<svg width="24" height="24" viewBox="0 0 24 24" fill="none" xmlns="http://www.w3.org/2000/svg">
<path d="M3.73202 20.5092V4.72931C3.73202 3.77423 4.50625 3 5.46132 3H13.6755C14.6306 3 15.4048 3.77424 15.4048 4.72931V20.5092H9.56843H3.73202ZM3.73202 20.5092H2" stroke="#1A2B3D" stroke-width="1.5" stroke-linecap="round"/>
<path opacity="0.3" d="M7.62305 16.6183C7.62305 15.5439 8.49406 14.6729 9.56852 14.6729V14.6729C10.643 14.6729 11.514 15.5439 11.514 16.6183V20.5093H7.62305V16.6183Z" fill="#F27D00"/>
<path d="M7.62305 16.6183C7.62305 15.5439 8.49406 14.6729 9.56852 14.6729V14.6729C10.643 14.6729 11.514 15.5439 11.514 16.6183V20.5093H7.62305V16.6183Z" stroke="#1A2B3D" stroke-width="1.5"/>
<path d="M7.13672 10.5095H12.0004" stroke="#1A2B3D" stroke-width="1.5" stroke-linecap="round"/>
<path d="M7.13672 7.33228H12.0004" stroke="#1A2B3D" stroke-width="1.5" stroke-linecap="round"/>
<path opacity="0.6" d="M18.5389 8.83636H15.4045V14.6728V20.5092H17.8364H20.2682V10.5657C20.2682 9.6106 19.494 8.83636 18.5389 8.83636Z" fill="#F27D00"/>
<path d="M20.2682 20.5092V10.5657C20.2682 9.6106 19.494 8.83636 18.5389 8.83636H15.4045V14.6728V20.5092H17.8364H20.2682ZM20.2682 20.5092H22" stroke="#1A2B3D" stroke-width="1.5" stroke-linecap="round"/>
<path d="M15.4045 16.3255H17.388" stroke="#1A2B3D" stroke-width="1.5" stroke-linecap="round"/>
<path d="M15.4045 13.0201H17.388" stroke="#1A2B3D" stroke-width="1.5" stroke-linecap="round"/>
</svg>
