<svg width="24" height="24" viewBox="0 0 24 24" fill="none" xmlns="http://www.w3.org/2000/svg">
<path opacity="0.6" d="M7.11409 21.1039C5.25447 21.1039 4.07241 20.8026 3.61207 20.2499C3.20891 19.7659 2.75336 18.8642 2.75336 16.4711V9.7501C2.75336 7.5174 2.92573 6.56977 3.38607 6.01708C3.84641 5.46439 4.97529 5.03119 5.93602 5.03119C5.07804 10.7031 6.72328 12.8668 8.97095 14.0766V21.1039H7.11409Z" fill="#F27D00"/>
<path d="M9.30172 21H5.75342C4.09656 21 2.75342 19.6569 2.75342 18V8C2.75342 6.34315 4.09656 5 5.75342 5H15.7534C17.4103 5 18.7534 6.34315 18.7534 8V12.2936" stroke="#1A2B3D" stroke-width="1.5" stroke-linecap="round"/>
<path d="M15.2534 7V5.5C15.2534 3.01472 13.2387 1 10.7534 1V1C8.26814 1 6.25342 3.01472 6.25342 5.5V7" stroke="#1A2B3D" stroke-width="1.5" stroke-linecap="round" stroke-linejoin="round"/>
<rect opacity="0.3" x="8.74658" y="12.2485" width="12.5" height="10" rx="3" fill="#F27D00"/>
<rect x="8.74658" y="12.2485" width="12.5" height="10" rx="3" stroke="#1A2B3D" stroke-width="1.5"/>
<path d="M17.4625 15.6824V15.9595C17.4625 17.3214 16.3585 18.4254 14.9966 18.4254V18.4254C13.6348 18.4254 12.5308 17.3214 12.5308 15.9595V15.6824" stroke="#1A2B3D" stroke-width="1.5" stroke-linecap="round" stroke-linejoin="round"/>
</svg>
