<svg width="24" height="24" viewBox="0 0 24 24" fill="none" xmlns="http://www.w3.org/2000/svg">
<path opacity="0.6" d="M5.04346 21.193V15.3919V11.2221L6.84505 10.2149V7.74579L5.04346 7.05223V4.68943C5.04346 3.75313 5.51986 2.99412 6.10753 2.99412H15.9948V7.27168L17.1313 8.7586H20.6177C20.6177 12.8015 14.9995 19.307 7.95308 21.1929L5.04346 21.193Z" fill="#F27D00"/>
<path opacity="0.3" d="M20.149 8.43903L16.6057 3.24219V8.43903H20.149Z" fill="#F27D00"/>
<path opacity="0.3" d="M6.72738 9.00944C6.72738 9.8713 6.02871 10.57 5.16685 10.57C4.305 10.57 3.60632 9.8713 3.60632 9.00944C3.60632 8.14759 4.305 7.44891 5.16685 7.44891C6.02871 7.44891 6.72738 8.14759 6.72738 9.00944Z" fill="#F27D00"/>
<path fill-rule="evenodd" clip-rule="evenodd" d="M9.19738 14.2756C9.19738 13.8613 9.5164 13.5256 9.90993 13.5256H15.9848C16.3784 13.5256 16.6974 13.8613 16.6974 14.2756C16.6974 14.6898 16.3784 15.0256 15.9848 15.0256H9.90993C9.5164 15.0256 9.19738 14.6898 9.19738 14.2756ZM9.19738 17.1579C9.19738 16.7436 9.5164 16.4079 9.90993 16.4079H15.9848C16.3784 16.4079 16.6974 16.7436 16.6974 17.1579C16.6974 17.5721 16.3784 17.9079 15.9848 17.9079H9.90993C9.5164 17.9079 9.19738 17.5721 9.19738 17.1579Z" fill="#1A2B3D"/>
<path fill-rule="evenodd" clip-rule="evenodd" d="M19.9363 19.2499C19.9363 19.9402 19.3766 20.4999 18.6863 20.4999H7.20839C6.51803 20.4999 5.95839 19.9402 5.95839 19.2499L5.95839 14.0347C5.95839 13.6205 5.62261 13.2847 5.20839 13.2847C4.79418 13.2847 4.45839 13.6205 4.45839 14.0347L4.45839 19.2499C4.45839 20.7687 5.68961 21.9999 7.20839 21.9999H18.6863C20.2051 21.9999 21.4363 20.7687 21.4363 19.2499V8.71959L16.5845 2.01184L6.52825 2.01184C5.41648 2.01184 4.45839 2.88247 4.45839 4.025C4.45839 4.43921 4.79418 4.775 5.20839 4.775C5.62261 4.775 5.95839 4.43921 5.95839 4.025C5.95839 3.77229 6.18215 3.51184 6.52825 3.51184L15.4514 3.51184V6.9624C15.4514 8.48118 16.6826 9.7124 18.2014 9.7124H19.9363V19.2499ZM19.2182 8.2124L16.9514 5.07846V6.9624C16.9514 7.65275 17.511 8.2124 18.2014 8.2124H19.2182Z" fill="#1A2B3D"/>
<path d="M7.68973 9.30201C7.70314 9.1947 7.7132 9.08572 7.7132 8.97506C7.7132 8.8644 7.70314 8.75542 7.68973 8.64811L8.39895 8.09314C8.46266 8.04284 8.48111 7.9523 8.43919 7.87853L7.76853 6.7166C7.72661 6.64451 7.63943 6.61433 7.56398 6.64451L6.729 6.98151C6.5563 6.84906 6.36684 6.73672 6.16229 6.65121L6.03654 5.76259C6.02145 5.68378 5.95271 5.62175 5.86887 5.62175H4.52755C4.44372 5.62175 4.37497 5.68378 4.36156 5.76259L4.23581 6.65121C4.03312 6.73575 3.84256 6.84682 3.6691 6.98151L2.83412 6.64451C2.79701 6.63035 2.75608 6.62982 2.71862 6.64303C2.68116 6.65623 2.6496 6.6823 2.62957 6.7166L1.95891 7.87853C1.91699 7.95062 1.93544 8.04116 1.99915 8.09314L2.7067 8.64811C2.69329 8.75542 2.68323 8.8644 2.68323 8.97506C2.68323 9.08572 2.69329 9.1947 2.7067 9.30201L1.99915 9.85698C1.93544 9.90728 1.91699 9.99782 1.95891 10.0716L2.62957 11.2335C2.67149 11.3056 2.75868 11.3358 2.83412 11.3056L3.6691 10.9686C3.8418 11.1011 4.03126 11.2134 4.23581 11.2989L4.36156 12.1875C4.37497 12.2663 4.44372 12.3284 4.52755 12.3284H5.86887C5.95271 12.3284 6.02145 12.2663 6.03486 12.1875L6.16061 11.2989C6.3633 11.2144 6.55387 11.1033 6.72732 10.9686L7.5623 11.3056C7.59941 11.3198 7.64034 11.3203 7.6778 11.3071C7.71526 11.2939 7.74682 11.2678 7.76685 11.2335L8.43751 10.0716C8.47943 9.9995 8.46099 9.90896 8.39727 9.85698L7.68973 9.30201ZM5.19821 10.1487C4.54935 10.1487 4.02455 9.62393 4.02455 8.97506C4.02455 8.32619 4.54935 7.8014 5.19821 7.8014C5.84708 7.8014 6.37187 8.32619 6.37187 8.97506C6.37187 9.62393 5.84708 10.1487 5.19821 10.1487Z" fill="#1A2B3D"/>
</svg>
