<svg width="24" height="24" viewBox="0 0 24 24" fill="none" xmlns="http://www.w3.org/2000/svg">
<g opacity="0.6">
<path d="M16.4955 21.2522H5.88905C4.9994 21.2522 4.2782 20.6115 4.2782 19.8212V19.3401C4.2782 15.6542 7.64176 12.6661 11.7909 12.6661C12.5709 12.6661 13.0007 12.692 13.7081 12.89C15.3227 13.1006 16.3734 13.7268 17.0243 14.5664C15.2425 14.664 13.8278 16.1392 13.8278 17.9447C13.8278 19.5675 14.9705 20.9234 16.4955 21.2522Z" fill="#F27D00"/>
<path d="M11.9951 10.5198C14.1398 10.5198 15.8783 8.7818 15.8783 6.63789C15.8783 4.49397 14.1398 2.75598 11.9951 2.75598C9.8505 2.75598 8.11194 4.49397 8.11194 6.63789C8.11194 8.7818 9.8505 10.5198 11.9951 10.5198Z" fill="#F27D00"/>
</g>
<path opacity="0.3" d="M17.2123 21.3282C19.0816 21.3282 20.5969 19.8134 20.5969 17.9447C20.5969 16.0761 19.0816 14.5613 17.2123 14.5613C15.3431 14.5613 13.8278 16.0761 13.8278 17.9447C13.8278 19.8134 15.3431 21.3282 17.2123 21.3282Z" fill="#F27D00"/>
<path fill-rule="evenodd" clip-rule="evenodd" d="M3.5282 19.34C3.5282 15.181 7.17905 11.9161 11.5454 11.9161C11.8753 11.9161 12.2009 11.9348 12.5209 11.9711C12.9324 12.0178 13.2282 12.3894 13.1815 12.8009C13.1347 13.2125 12.7632 13.5083 12.3516 13.4615C12.0877 13.4316 11.8187 13.4161 11.5454 13.4161C7.88466 13.4161 5.0282 16.1272 5.0282 19.34V19.8211C5.0282 20.1384 5.32864 20.5021 5.83641 20.5021H12.4363C12.8505 20.5021 13.1863 20.8379 13.1863 21.2521C13.1863 21.6663 12.8505 22.0021 12.4363 22.0021H5.83641C4.62303 22.0021 3.5282 21.0845 3.5282 19.8211V19.34Z" fill="#1A2B3D"/>
<path fill-rule="evenodd" clip-rule="evenodd" d="M17.2124 15.3113C15.7572 15.3113 14.5778 16.4906 14.5778 17.9448C14.5778 19.3989 15.7572 20.5782 17.2124 20.5782C18.6677 20.5782 19.847 19.3989 19.847 17.9448C19.847 16.4906 18.6677 15.3113 17.2124 15.3113ZM13.0778 17.9448C13.0778 15.6617 14.9292 13.8113 17.2124 13.8113C19.4957 13.8113 21.347 15.6617 21.347 17.9448C21.347 20.2278 19.4957 22.0782 17.2124 22.0782C14.9292 22.0782 13.0778 20.2278 13.0778 17.9448Z" fill="#1A2B3D"/>
<path d="M17.6532 19.0274H17.8871C17.9976 19.0274 18.0871 19.1169 18.0871 19.2274V19.5183C18.0871 19.6287 17.9976 19.7183 17.8871 19.7183H16.5377C16.4273 19.7183 16.3377 19.6287 16.3377 19.5183V19.2274C16.3377 19.1169 16.4273 19.0274 16.5377 19.0274H16.8131V17.8791H16.5377C16.4273 17.8791 16.3377 17.7895 16.3377 17.6791V17.3881C16.3377 17.2777 16.4273 17.1881 16.5377 17.1881H17.4532C17.5637 17.1881 17.6532 17.2777 17.6532 17.3881V19.0274ZM16.7385 16.103C16.7385 15.9926 16.828 15.903 16.9385 15.903H17.4781C17.5886 15.903 17.6781 15.9926 17.6781 16.103V16.499C17.6781 16.6094 17.5886 16.699 17.4781 16.699H16.9385C16.828 16.699 16.7385 16.6094 16.7385 16.499V16.103Z" fill="#1A2B3D"/>
<path fill-rule="evenodd" clip-rule="evenodd" d="M12.0001 3.50598C10.2694 3.50598 8.86687 4.90842 8.86687 6.63789C8.86687 8.36736 10.2694 9.76979 12.0001 9.76979C13.7307 9.76979 15.1332 8.36736 15.1332 6.63789C15.1332 4.90842 13.7307 3.50598 12.0001 3.50598ZM7.36687 6.63789C7.36687 4.07952 9.44145 2.00598 12.0001 2.00598C14.5587 2.00598 16.6332 4.07952 16.6332 6.63789C16.6332 9.19625 14.5587 11.2698 12.0001 11.2698C9.44146 11.2698 7.36687 9.19625 7.36687 6.63789Z" fill="#1A2B3D"/>
</svg>
