<svg width="24" height="24" viewBox="0 0 24 24" fill="none" xmlns="http://www.w3.org/2000/svg">
<path opacity="0.6" fill-rule="evenodd" clip-rule="evenodd" d="M9.39197 21.2382C9.53636 21.3747 9.68996 21.4953 9.85737 21.592C10.1922 21.7853 10.5696 21.8863 10.9692 21.8938L12.804 21.9008C13.4593 21.9071 14.0724 21.6553 14.5335 21.1881C14.9979 20.7334 15.2496 20.1134 15.2513 19.4661C15.2469 18.9214 15.4028 18.5225 15.6718 18.3696C15.9408 18.2166 16.3618 18.279 16.8321 18.5506C17.996 19.2225 19.4923 18.8216 20.1643 17.6577L20.9743 16.2547C21.6463 15.0908 21.2454 13.5945 20.0815 12.9225C19.6112 12.651 19.3466 12.3176 19.3446 12.0081C19.3425 11.6987 19.618 11.3688 20.0839 11.0957C20.6437 10.7706 21.0422 10.246 21.2163 9.61309C21.3824 8.9756 21.294 8.3187 20.9688 7.75894L20.0533 6.17811C19.4575 5.11135 18.0902 4.73647 17.0142 5.34823L16.8391 5.44906C15.8993 5.99063 15.2536 5.61783 15.2527 4.53317L15.2491 4.3185C15.2363 3.08879 14.228 2.09212 13.0189 2.10614L11.1841 2.09912C10.5288 2.09277 9.91566 2.34465 9.4546 2.81186C8.99814 3.27109 8.73851 3.88648 8.73677 4.53384C8.74119 5.07847 8.58528 5.47739 8.31629 5.63033C8.0473 5.78327 7.62627 5.72088 7.15594 5.44933C5.99207 4.77737 4.49574 5.17831 3.82377 6.34218L3.01374 7.74521C2.34177 8.90908 2.74271 10.4054 3.90659 11.0774C4.37692 11.3489 4.64146 11.6823 4.64351 11.9918C4.64556 12.3012 4.37007 12.6311 3.90416 12.9042C3.3444 13.2293 2.94588 13.7539 2.7718 14.3868C2.60569 15.0243 2.6941 15.6812 3.01929 16.241L3.93479 17.8218C4.22135 18.338 4.69809 18.7089 5.27855 18.8633C5.84644 19.0212 6.44507 18.9416 6.96587 18.6471L7.14101 18.5462C8.0808 18.0047 8.72651 18.3775 8.72739 19.4621L8.731 19.6768C8.74093 20.2671 8.97596 20.8174 9.39197 21.2382ZM9.24605 10.408C8.36991 11.9224 8.88861 13.8613 10.4039 14.7359C11.919 15.6104 13.8568 15.0901 14.7302 13.5743C15.6027 12.0599 15.0837 10.1258 13.5701 9.25175C12.0564 8.37758 10.1214 8.89502 9.24605 10.408Z" fill="#F27D00"/>
<circle opacity="0.3" cx="11.995" cy="11.9984" r="2.72375" fill="#F27D00"/>
<path fill-rule="evenodd" clip-rule="evenodd" d="M8.23683 18.4801C8.47048 18.6149 8.62798 18.934 8.62839 19.4621L8.63203 19.6784C8.64491 20.4441 9.14048 21.3185 9.80791 21.6777C10.158 21.8798 10.5521 21.9849 10.9674 21.9927L12.8036 21.9998C13.4852 22.0062 14.1237 21.744 14.6034 21.2582C15.0871 20.7843 15.3486 20.1389 15.3504 19.4663L15.3504 19.4652C15.3461 18.9297 15.5009 18.5807 15.7208 18.4556C15.9421 18.3298 16.3206 18.3695 16.7827 18.6363C17.9939 19.3356 19.5508 18.9184 20.2501 17.7072L21.0602 16.3041C21.7595 15.0929 21.3423 13.536 20.1311 12.8367C19.669 12.5699 19.4454 12.262 19.4437 12.0074C19.4429 11.883 19.4979 11.7449 19.6155 11.6009C19.7329 11.4573 19.908 11.3136 20.134 11.1812C20.6704 10.8667 21.1819 10.2959 21.3412 9.59763C21.5502 8.68122 21.2428 7.99535 21.0545 7.70911L20.1394 6.12905C19.5161 5.01393 18.0876 4.62401 16.9649 5.26232L16.7897 5.36317C16.3321 5.62688 15.9771 5.65 15.7434 5.5151C15.5098 5.3802 15.3523 5.06117 15.3518 4.53301L15.3482 4.31702C15.3347 3.0342 14.2832 1.99278 13.0185 2.00702L11.1848 2C10.5029 1.99347 9.86417 2.25588 9.38429 2.74208C8.90989 3.21943 8.63959 3.85962 8.63778 4.5335L8.63779 4.53457C8.64214 5.07005 8.48735 5.4191 8.2674 5.54415C8.04609 5.66998 7.6676 5.63026 7.20553 5.36348C5.99428 4.66417 4.43737 5.08134 3.73806 6.29258L2.92802 7.69561C2.22871 8.90686 2.64588 10.4638 3.85713 11.1631C4.3192 11.4299 4.54284 11.7378 4.54453 11.9924C4.54535 12.1168 4.49029 12.2549 4.37268 12.3989C4.25533 12.5425 4.08022 12.6861 3.85428 12.8186C3.27158 13.1571 2.85712 13.7033 2.67635 14.3605L2.67602 14.3618C2.50342 15.0242 2.59521 15.708 2.93371 16.2906L3.84868 17.8706C4.14842 18.41 4.64699 18.7976 5.25262 18.9588C5.84661 19.1238 6.4727 19.0397 7.01536 18.7328L7.19053 18.632C7.64814 18.3683 8.00318 18.3452 8.23683 18.4801ZM13.0234 3.57865C13.426 3.57743 13.7591 3.90991 13.7652 4.3051L13.7609 4.51342L13.7609 4.51535C13.7596 5.59094 14.1737 6.45846 14.9226 6.89084C15.6714 7.32321 16.6298 7.24803 17.5606 6.70913L17.7351 6.60867C18.0985 6.40398 18.5601 6.53201 18.7557 6.8872L18.7569 6.88927L19.6795 8.47331C19.8014 8.69963 19.8377 8.95192 19.7706 9.20106C19.703 9.45231 19.5446 9.65906 19.3288 9.78383C18.4022 10.3149 17.8532 11.1161 17.8494 11.9774C17.8455 12.8399 18.3978 13.6378 19.327 14.1742C19.7893 14.4412 19.941 15.0296 19.6782 15.485L18.8681 16.888C18.6009 17.3508 18.0202 17.5064 17.5574 17.2392C16.6282 16.7028 15.6611 16.6234 14.9161 17.058C14.1721 17.492 13.7527 18.368 13.7561 19.4359C13.756 19.6853 13.6561 19.9258 13.4723 20.11C13.2898 20.2929 13.0408 20.3905 12.7897 20.3904L10.9504 20.3913L10.9488 20.3914C10.7629 20.3945 10.5825 20.3198 10.4358 20.178C10.291 20.038 10.212 19.8515 10.2129 19.6565L10.2126 19.4546C10.2139 18.379 9.79982 17.5115 9.05094 17.0792C8.30169 16.6466 7.3386 16.7304 6.41309 17.2608L6.23925 17.3609C6.059 17.4573 5.85294 17.4872 5.66232 17.4326L5.66134 17.4324C5.4748 17.3811 5.3123 17.2586 5.21836 17.0837L4.29397 15.4967C4.17205 15.2704 4.13583 15.0181 4.2029 14.769C4.27054 14.5177 4.42887 14.3109 4.6447 14.1862C5.57127 13.6551 6.12029 12.8539 6.12413 11.9926C6.12797 11.1301 5.5757 10.3322 4.64655 9.79576C4.18421 9.52884 4.03245 8.94036 4.29533 8.48503L5.10537 7.082C5.37258 6.61918 5.95329 6.46358 6.41611 6.73079C7.34527 7.26724 8.31242 7.34656 9.0574 6.91201C9.80141 6.47802 10.2208 5.60199 10.2174 4.53407C10.2175 4.28474 10.3174 4.04422 10.5012 3.85999C10.6837 3.67707 10.9327 3.57952 11.1838 3.5796L13.0234 3.57865Z" fill="#1A2B3D"/>
<path fill-rule="evenodd" clip-rule="evenodd" d="M12 9.91675C10.8495 9.91675 9.91684 10.8494 9.91684 11.9999C9.91684 13.1505 10.8495 14.0831 12 14.0831C13.1506 14.0831 14.0832 13.1505 14.0832 11.9999C14.0832 10.8494 13.1506 9.91675 12 9.91675ZM8.44512 11.9999C8.44512 10.0366 10.0367 8.44503 12 8.44503C13.9634 8.44503 15.555 10.0366 15.555 11.9999C15.555 13.9633 13.9634 15.5549 12 15.5549C10.0367 15.5549 8.44512 13.9633 8.44512 11.9999Z" fill="#1A2B3D"/>
</svg>
