<svg width="24" height="24" viewBox="0 0 24 24" fill="none" xmlns="http://www.w3.org/2000/svg">
<g clip-path="url(#clip0_2499_180)">
<path d="M18.6874 19.4905H12.0619C11.7303 19.4905 11.4195 19.3257 11.2808 19.0244C10.9214 18.2437 10.3938 16.5616 11.267 14.5883C12.4749 11.8587 12.8229 9.50118 11.8304 7.07649C10.8379 4.65179 8.05176 2.9462 8.05176 2.9462H18.6874C19.2397 2.9462 19.6874 3.39391 19.6874 3.9462V18.4905C19.6874 19.0428 19.2397 19.4905 18.6874 19.4905Z" fill="#F7B166"/>
<path d="M3.81494 12.1092H20.185" stroke="#1A2B3D" stroke-width="1.5" stroke-linecap="round" stroke-linejoin="round"/>
<path d="M3.81494 6.65256H20.185" stroke="#1A2B3D" stroke-width="1.5" stroke-linecap="round" stroke-linejoin="round"/>
<path d="M8.88203 19.9045L6.54346 23.0226" stroke="#1A2B3D" stroke-width="1.5" stroke-linecap="round" stroke-linejoin="round"/>
<path d="M15.1182 19.9045L17.4567 23.0226" stroke="#1A2B3D" stroke-width="1.5" stroke-linecap="round" stroke-linejoin="round"/>
<path d="M17.8464 2.75491H6.15352C4.86196 2.75491 3.81494 3.80193 3.81494 5.09349V17.5659C3.81494 18.8575 4.86196 19.9045 6.15352 19.9045H17.8464C19.138 19.9045 20.185 18.8575 20.185 17.5659V5.09349C20.185 3.80193 19.138 2.75491 17.8464 2.75491Z" stroke="#1A2B3D" stroke-width="1.5" stroke-linecap="round" stroke-linejoin="round"/>
<path d="M12 6.65256V12.1092" stroke="#1A2B3D" stroke-width="1.5" stroke-linecap="round" stroke-linejoin="round"/>
<path d="M16.1353 16.2667H16.1363M7.82031 16.2667H7.82135" stroke="#1A2B3D" stroke-width="2" stroke-linecap="round"/>
</g>
<defs>
<clipPath id="clip0_2499_180">
<rect width="24" height="24" fill="white"/>
</clipPath>
</defs>
</svg>
