<svg width="24" height="24" viewBox="0 0 24 24" fill="none" xmlns="http://www.w3.org/2000/svg">
<path d="M17.3333 4H6.66667C5.2 4 4 5.2 4 6.66667V17.3333C4 18.8 5.2 20 6.66667 20H17.3333C18.8 20 20 18.8 20 17.3333V6.66667C20 5.2 18.8 4 17.3333 4ZM18.6667 12H5.33333V6.66667C5.33333 5.93333 5.93333 5.33333 6.66667 5.33333H17.3333C18.0667 5.33333 18.6667 5.93333 18.6667 6.66667V12Z" fill="#3E4957"/>
<path d="M17.4466 18.6667H6.55325C5.87992 18.6667 5.33325 18.12 5.33325 17.4467V12H18.6666V17.4467C18.6666 18.12 18.1199 18.6667 17.4466 18.6667Z" fill="#BECAD6"/>
<path d="M23.3333 13.3333H0.666667C0.3 13.3333 0 13.0333 0 12.6667C0 12.3 0.3 12 0.666667 12H23.3333C23.7 12 24 12.3 24 12.6667C24 13.0333 23.7 13.3333 23.3333 13.3333Z" fill="#3E4957"/>
</svg>
