<svg width="24" height="24" viewBox="0 0 24 24" fill="none" xmlns="http://www.w3.org/2000/svg">
<g clip-path="url(#clip0_2499_167)">
<path d="M23.5 18C23.2239 18 23 18.2239 23 18.5V22C23 22.55 22.55 23 22 23H18.5C18.2239 23 18 23.2239 18 23.5V23.5C18 23.7761 18.2239 24 18.5 24H22C23.1 24 24 23.1 24 22V18.5C24 18.2239 23.7761 18 23.5 18V18ZM2 23C1.45 23 1 22.55 1 22V18.5C1 18.2239 0.776142 18 0.5 18V18C0.223858 18 0 18.2239 0 18.5V22C0 23.1 0.9 24 2 24H5.5C5.77614 24 6 23.7761 6 23.5V23.5C6 23.2239 5.77614 23 5.5 23H2ZM22 0H18.5C18.2239 0 18 0.223858 18 0.5V0.5C18 0.776142 18.2239 1 18.5 1H22C22.55 1 23 1.45 23 2V5.5C23 5.77614 23.2239 6 23.5 6V6C23.7761 6 24 5.77614 24 5.5V2C24 0.9 23.1 0 22 0ZM0 2V5.5C0 5.77614 0.223858 6 0.5 6V6C0.776142 6 1 5.77614 1 5.5V2C1 1.45 1.45 1 2 1H5.5C5.77614 1 6 0.776142 6 0.5V0.5C6 0.223858 5.77614 0 5.5 0H2C0.9 0 0 0.9 0 2Z" fill="#3E4957"/>
<path d="M16 6H8C6.9 6 6 6.9 6 8V16C6 17.1 6.9 18 8 18H16C17.1 18 18 17.1 18 16V8C18 6.9 17.1 6 16 6ZM17 12H7V8C7 7.45 7.45 7 8 7H16C16.55 7 17 7.45 17 8V12Z" fill="#3E4957"/>
<path d="M16.085 17H7.915C7.41 17 7 16.59 7 16.085V12H17V16.085C17 16.59 16.59 17 16.085 17Z" fill="#BECAD6"/>
<path d="M20.5 13H3.5C3.225 13 3 12.775 3 12.5C3 12.225 3.225 12 3.5 12H20.5C20.775 12 21 12.225 21 12.5C21 12.775 20.775 13 20.5 13Z" fill="#3E4957"/>
</g>
<defs>
<clipPath id="clip0_2499_167">
<rect width="24" height="24" fill="white"/>
</clipPath>
</defs>
</svg>
