<svg width="24" height="24" viewBox="0 0 24 24" fill="none" xmlns="http://www.w3.org/2000/svg">
<path opacity="0.3" d="M14.0955 2.73702C14.4462 2.58249 14.8332 2.86368 14.7946 3.24493L14.5865 5.30047C14.5723 5.44013 14.6175 5.5793 14.7111 5.68398L16.0877 7.22461C16.343 7.51036 16.1952 7.96533 15.8206 8.04643L13.8014 8.48369C13.6642 8.5134 13.5458 8.59941 13.4752 8.72071L12.4353 10.506C12.2424 10.8371 11.7641 10.8371 11.5712 10.506L10.5314 8.72071C10.4607 8.59941 10.3423 8.5134 10.2051 8.48369L8.18589 8.04643C7.81136 7.96533 7.66354 7.51036 7.91886 7.22461L9.29545 5.68398C9.38898 5.5793 9.4342 5.44013 9.42006 5.30047L9.21194 3.24493C9.17334 2.86368 9.56035 2.58249 9.91102 2.73702L11.8016 3.57015C11.9301 3.62676 12.0764 3.62676 12.2049 3.57015L14.0955 2.73702Z" fill="#BECAD6"/>
<g opacity="0.6">
<path d="M11.544 16.772L11.547 20.7494C11.5472 21.0257 11.3233 21.2498 11.047 21.2498H8.09667C7.87343 21.2498 7.67724 21.1018 7.61591 20.8872L7.23718 19.5616C7.17934 19.3592 7.05905 19.1801 6.89348 19.05L4.29417 17.0077C4.07404 16.8348 3.93649 16.5775 3.91495 16.2983L3.3182 8.56538C3.28645 8.15401 3.55721 7.78016 3.95796 7.68202C4.36315 7.58279 4.77996 7.79495 4.93816 8.18095L6.74006 12.5774C7.32701 12.1128 8.17911 12.21 8.64631 12.7949L11.3253 16.1487C11.4667 16.3257 11.5438 16.5455 11.544 16.772Z" fill="#BECAD6"/>
<path d="M13.0166 16.772L13.0136 20.7494C13.0134 21.0257 13.2373 21.2498 13.5136 21.2498H16.4639C16.6872 21.2498 16.8834 21.1018 16.9447 20.8872L17.3234 19.5616C17.3813 19.3592 17.5015 19.1801 17.6671 19.05L20.2664 17.0077C20.4865 16.8348 20.6241 16.5775 20.6456 16.2983L21.2424 8.56538C21.2741 8.15401 21.0034 7.78016 20.6026 7.68202C20.1974 7.58279 19.7806 7.79495 19.6224 8.18095L17.8205 12.5774C17.2336 12.1128 16.3815 12.21 15.9143 12.7949L13.2353 16.1487C13.0939 16.3257 13.0168 16.5455 13.0166 16.772Z" fill="#BECAD6"/>
</g>
<path fill-rule="evenodd" clip-rule="evenodd" d="M13.6313 4.11111L13.0114 4.38425C12.3691 4.66729 11.6374 4.66729 10.9952 4.38425L10.3753 4.11111L10.4435 4.78502C10.5143 5.48333 10.2882 6.1792 9.82049 6.70259L9.36917 7.20769L10.0312 7.35105C10.7172 7.49959 11.3091 7.92967 11.6624 8.53617L12.0033 9.12149L12.3442 8.53617C12.6975 7.92967 13.2894 7.4996 13.9754 7.35105L14.6374 7.20769L14.1861 6.70259C13.7184 6.1792 13.4923 5.48333 13.563 4.78502L13.6313 4.11111ZM15.2101 3.40813C15.2873 2.64561 14.5133 2.08325 13.8119 2.3923L12.4065 3.01162C12.1496 3.12483 11.857 3.12483 11.6 3.01162L10.1946 2.3923C9.49329 2.08325 8.71927 2.64561 8.79647 3.40813L8.95118 4.93613C8.97946 5.21545 8.88902 5.4938 8.70196 5.70315L7.67866 6.84839C7.16801 7.4199 7.46366 8.32982 8.21271 8.49203L9.71373 8.81707C9.98812 8.87649 10.2249 9.04852 10.3662 9.29112L11.1392 10.6182C11.5249 11.2805 12.4817 11.2805 12.8674 10.6182L13.6404 9.29112C13.7817 9.04852 14.0184 8.87649 14.2928 8.81707L15.7939 8.49203C16.5429 8.32983 16.8386 7.4199 16.3279 6.84839L15.3046 5.70315C15.1176 5.4938 15.0271 5.21545 15.0554 4.93613L15.2101 3.40813Z" fill="#3E4957"/>
<path fill-rule="evenodd" clip-rule="evenodd" d="M18.9347 7.92655C19.2201 7.18197 20.0147 6.7659 20.7892 6.95557C21.5419 7.13991 22.0505 7.84212 21.9909 8.61478L21.3935 16.3561C21.3558 16.8445 21.1151 17.2948 20.7299 17.5975L18.1306 19.6398C18.0892 19.6723 18.0591 19.7171 18.0446 19.7677L17.7695 20.7306C17.5549 21.4819 16.8682 21.9999 16.0868 21.9999H14.014C13.047 21.9999 12.2633 21.2156 12.264 20.2485L12.2667 16.7715C12.267 16.375 12.4019 15.9904 12.6494 15.6806L15.4735 12.1451C15.9818 11.5088 16.8204 11.2908 17.5494 11.5414L18.9347 7.92655ZM18.7117 12.7C18.9149 13.2864 18.8231 13.961 18.4084 14.483L16.6819 16.6563C16.4243 16.9807 15.9525 17.0347 15.6281 16.7771C15.3038 16.5194 15.2498 16.0477 15.5074 15.7233L17.2339 13.55C17.3632 13.3872 17.3359 13.1502 17.1728 13.0212C17.0104 12.8926 16.7747 12.9195 16.6455 13.0813L13.8214 16.6168C13.786 16.6611 13.7667 16.716 13.7667 16.7727L13.764 20.2497C13.7639 20.3878 13.8759 20.4999 14.014 20.4999H16.0868C16.1985 20.4999 16.2966 20.4259 16.3272 20.3185L16.6023 19.3556C16.7036 19.0013 16.9141 18.688 17.2038 18.4603L19.8031 16.418C19.8582 16.3748 19.8926 16.3105 19.8979 16.2407L20.4953 8.49937C20.4985 8.45893 20.4718 8.42217 20.4324 8.41252C20.3919 8.40259 20.3503 8.42437 20.3354 8.46335L18.7117 12.7Z" fill="#3E4957"/>
<path fill-rule="evenodd" clip-rule="evenodd" d="M5.06521 7.92655C4.77985 7.18197 3.98518 6.7659 3.21067 6.95557C2.45796 7.13991 1.94939 7.84212 2.00901 8.61478L2.60641 16.3561C2.64411 16.8445 2.88482 17.2948 3.27004 17.5975L5.86935 19.6398C5.91074 19.6723 5.94081 19.7171 5.95528 19.7677L6.23039 20.7306C6.44504 21.4819 7.13172 21.9999 7.91306 21.9999H9.98586C10.9529 21.9999 11.7366 21.2156 11.7359 20.2485L11.7332 16.7715C11.7329 16.375 11.598 15.9904 11.3505 15.6806L8.52642 12.1451C8.01809 11.5088 7.17955 11.2908 6.45055 11.5414L5.06521 7.92655ZM5.28821 12.7C5.085 13.2864 5.17684 13.961 5.59153 14.483L7.31799 16.6563C7.57564 16.9807 8.04743 17.0347 8.37176 16.7771C8.69609 16.5194 8.75015 16.0477 8.4925 15.7233L6.76604 13.55C6.63667 13.3872 6.66403 13.1502 6.82711 13.0212C6.98947 12.8926 7.22518 12.9195 7.35442 13.0813L10.1785 16.6168C10.2139 16.6611 10.2332 16.716 10.2332 16.7727L10.2359 20.2497C10.236 20.3878 10.124 20.4999 9.98586 20.4999H7.91306C7.80144 20.4999 7.70334 20.4259 7.67268 20.3185L7.39756 19.3556C7.29633 19.0013 7.08584 18.688 6.79608 18.4603L4.19677 16.418C4.14174 16.3748 4.10735 16.3105 4.10197 16.2407L3.50457 8.49937C3.50145 8.45893 3.52807 8.42217 3.56747 8.41252C3.60801 8.40259 3.64961 8.42437 3.66454 8.46335L5.28821 12.7Z" fill="#3E4957"/>
</svg>
