<svg width="24" height="24" viewBox="0 0 24 24" fill="none" xmlns="http://www.w3.org/2000/svg">
<path opacity="0.6" d="M4.34167 19.5688V2.84857C9.96302 10.491 14.6824 11.1132 19.6584 11.1132V19.5688C19.6584 20.5044 19.1899 21.2629 18.612 21.2629H5.38816C4.8102 21.2629 4.34167 20.5044 4.34167 19.5688Z" fill="#BECAD6"/>
<path fill-rule="evenodd" clip-rule="evenodd" d="M9.44206 7.0403C9.84438 6.94176 10.2504 7.18802 10.349 7.59034L11.1758 10.9663C11.2032 11.0781 11.3035 11.1568 11.4187 11.1568H12.6833C13.0975 11.1568 13.4333 11.4926 13.4333 11.9068C13.4333 12.321 13.0975 12.6568 12.6833 12.6568H11.4187C10.6125 12.6568 9.91068 12.1061 9.7189 11.3231L8.89202 7.9472C8.79348 7.54488 9.03974 7.13885 9.44206 7.0403Z" fill="#3E4957"/>
<path fill-rule="evenodd" clip-rule="evenodd" d="M11.6054 7.02394C12.006 6.91865 12.4161 7.15805 12.5214 7.55866L12.95 9.18933H14.3453C15.0356 9.18933 15.5953 9.74898 15.5953 10.4393V12.4645C15.5953 12.8787 15.2595 13.2145 14.8453 13.2145C14.4311 13.2145 14.0953 12.8787 14.0953 12.4645V10.6893H12.603C12.1259 10.6893 11.7087 10.3677 11.5875 9.90624L11.0707 7.93996C10.9654 7.53935 11.2048 7.12924 11.6054 7.02394Z" fill="#3E4957"/>
<path d="M12.1277 5.85209C12.1277 6.35219 11.7223 6.75761 11.2222 6.75761C10.7221 6.75761 10.3167 6.35219 10.3167 5.85209C10.3167 5.35199 10.7221 4.94657 11.2222 4.94657C11.7223 4.94657 12.1277 5.35199 12.1277 5.85209Z" fill="#3E4957"/>
<path fill-rule="evenodd" clip-rule="evenodd" d="M6.29639 21.9025C4.77761 21.9025 3.54639 20.6713 3.54639 19.1525L3.54639 4.65033C3.54639 3.13154 4.7776 1.90033 6.29639 1.90033L17.7861 1.90033C19.3049 1.90033 20.5361 3.13155 20.5361 4.65033V19.1525C20.5361 20.6713 19.3049 21.9025 17.7861 21.9025H6.29639ZM5.04639 19.1525C5.04639 19.8429 5.60603 20.4025 6.29639 20.4025H17.7861C18.4765 20.4025 19.0361 19.8429 19.0361 19.1525V4.65033C19.0361 3.95997 18.4765 3.40033 17.7861 3.40033L6.29639 3.40033C5.60603 3.40033 5.04639 3.95997 5.04639 4.65033V19.1525Z" fill="#3E4957"/>
<path fill-rule="evenodd" clip-rule="evenodd" d="M8.0404 15.6852C8.0404 15.271 8.37619 14.9352 8.7904 14.9352H15.2095C15.6237 14.9352 15.9595 15.271 15.9595 15.6852C15.9595 16.0995 15.6237 16.4352 15.2095 16.4352H8.7904C8.37619 16.4352 8.0404 16.0995 8.0404 15.6852ZM8.0404 18.235C8.0404 17.8208 8.37619 17.485 8.7904 17.485H15.2095C15.6237 17.485 15.9595 17.8208 15.9595 18.235C15.9595 18.6492 15.6237 18.985 15.2095 18.985H8.7904C8.37619 18.985 8.0404 18.6492 8.0404 18.235Z" fill="#3E4957"/>
</svg>
