<svg width="568" height="160" viewBox="0 0 568 160" fill="none" xmlns="http://www.w3.org/2000/svg">
<path fill-rule="evenodd" clip-rule="evenodd" d="M553.553 64.6103C559.959 64.6103 565.153 59.4168 565.153 53.0103C565.153 46.6038 559.959 41.4103 553.553 41.4103C547.146 41.4103 541.953 46.6038 541.953 53.0103C541.953 59.4168 547.146 64.6103 553.553 64.6103ZM553.553 67.0103C561.285 67.0103 567.553 60.7422 567.553 53.0103C567.553 45.2783 561.285 39.0103 553.553 39.0103C545.821 39.0103 539.553 45.2783 539.553 53.0103C539.553 60.7422 545.821 67.0103 553.553 67.0103Z" fill="#1882FF"/>
<path d="M560.006 60.0419H557.166L555.295 56.287C554.927 55.5633 554.449 55.0171 553.22 55.0171H551.267V60.0419H548.714V45.978H554.039C557.289 45.978 559.351 47.3844 559.351 50.361C559.351 52.4092 558.245 53.7336 556.756 54.4163C557.234 54.6758 557.535 55.14 557.808 55.6588L560.006 60.0419ZM553.984 52.8051C555.65 52.8051 556.797 52.1361 556.797 50.4293C556.797 48.8454 555.691 48.2037 553.984 48.2037H551.295V52.8051H553.984Z" fill="#1882FF"/>
<path d="M261.208 91.3469C261.241 95.3569 260.81 99.3337 260.391 103.322C259.673 109.452 258.734 115.561 258.303 121.725C258.06 125.128 246.571 124.299 246.825 120.897C247.289 114.611 248.195 108.37 248.946 102.106C249.333 98.4499 249.719 94.7824 249.697 91.1039C246.56 95.3679 243.821 99.8971 241.213 104.504C237.822 110.734 234.806 117.13 231.813 123.559C228.764 128.132 229.46 128.773 220.236 124.675C219.253 124.244 219.717 122.576 219.65 121.504C219.606 120.786 219.772 120.057 219.893 119.339C220.181 117.638 220.877 114.976 221.263 113.374C223.826 103.62 226.278 93.8434 228.488 84.0119C230.995 72.4128 234.475 56.8591 236.242 45.1385C237.093 39.6262 237.844 34.1029 238.761 28.6016C239.501 25.2655 250.736 27.762 249.996 31.0982C249.178 36.3564 248.427 41.6257 247.621 46.895C245.908 58.2731 242.506 73.4954 240.098 84.741C240.827 83.7357 241.556 82.7305 242.318 81.7473C244.826 78.7205 248.074 75.4507 252.459 75.9809C253.884 76.1466 255.32 76.6879 256.491 77.5164C257.673 78.356 258.347 79.7368 259.275 80.8415C259.684 81.9351 260.203 82.9956 260.501 84.1334C261.075 86.3869 261.186 89.0271 261.208 91.3469Z" fill="#1882FF"/>
<path d="M319.634 73.6391C317.734 78.1572 316.53 82.9515 315.238 87.6685C312.741 97.4559 310.885 107.365 309.405 117.351C308.544 124.001 308.919 120.698 308.267 127.282C307.925 130.684 296.48 129.547 296.812 126.144C297.508 119.152 297.11 122.653 298.016 115.672C298.325 113.573 298.668 111.474 299.01 109.375C295.111 113.032 290.791 116.522 285.909 118.456C284.705 118.931 283.423 119.174 282.186 119.527C281.059 119.571 279.921 119.748 278.795 119.66C275.05 119.395 271.371 117.373 269.295 114.236C268.753 113.418 268.378 112.501 267.925 111.629C267.704 110.789 267.417 109.972 267.273 109.121C266.5 104.581 268.013 100.074 269.582 95.8762C270.068 94.8046 270.499 93.711 271.018 92.6505C274.056 86.5748 278.342 81.184 283.434 76.6991C284.495 75.8485 285.511 74.9427 286.616 74.1583C290.814 71.1647 295.177 69.4856 300.347 69.9385C301.087 70.06 301.838 70.1263 302.567 70.292C304.423 70.7118 306.135 71.5292 307.704 72.5676C308.201 71.1868 308.731 69.828 309.328 68.4914C310.874 65.4425 321.17 70.5903 319.634 73.6391ZM304.047 85.0172C303.727 84.8184 303.473 84.5643 303.363 84.2108C303.075 83.6033 302.611 83.1283 302.103 82.6975C301.209 81.8137 300.104 81.3829 298.856 81.3498C295.508 81.2724 293.122 83.6143 290.703 85.6358C285.931 89.8336 282.617 94.7162 280.12 100.516C279.502 102.714 277.723 106.028 278.96 108.304C279.027 108.293 279.093 108.282 279.159 108.282C279.27 108.348 279.358 108.469 279.491 108.469C279.557 108.469 279.524 108.315 279.59 108.304C279.734 108.271 279.877 108.348 280.021 108.348C280.606 108.337 280.595 108.282 281.17 108.072C286.229 105.829 290.272 101.985 294.128 98.1186C297.066 95.0477 299.518 91.5569 301.429 87.7568C301.783 87.0609 302.611 86.8179 303.628 86.8621C303.749 86.2434 303.893 85.6248 304.047 85.0172Z" fill="#1882FF"/>
<path d="M360.639 81.5598L359.8 85.7134C359.502 87.2158 358.375 88.3978 356.894 88.8175C343.926 92.5403 334.205 109.696 331.874 123.836C331.321 127.205 319.999 125.614 320.474 122.223C321.291 116.456 329.355 74.6004 331.178 69.2096C332.68 66.1386 343.02 71.187 341.517 74.258C340.567 78.3674 340.092 80.9523 339.308 85.1279C342.423 80.0023 351.073 77.1964 356.298 76.6772C359.004 76.4121 361.181 78.8865 360.639 81.5598Z" fill="#1882FF"/>
<path d="M397.79 117.495C395.393 119.163 392.962 120.765 390.289 121.969C383.661 124.962 376.713 127.525 369.322 127.393C366.041 126.995 364.561 127.083 361.512 125.592C357.756 123.769 354.939 120.522 353.791 116.49C353.426 115.197 353.426 113.816 353.238 112.48C353.36 111.276 353.382 110.06 353.592 108.867C354.476 103.697 356.729 98.7155 359.402 94.12C359.369 93.634 359.325 93.159 359.336 92.6729C359.336 91.6787 360.286 90.9607 361.623 90.5188C361.844 90.1763 362.065 89.8229 362.286 89.4914C363.302 88.1658 364.263 86.7961 365.346 85.5257C369.455 80.6541 374.481 76.1802 380.369 73.5842C381.728 72.9877 383.164 72.6121 384.556 72.115C386.091 71.9493 387.627 71.4964 389.173 71.6068C394.188 71.9603 397.889 75.0645 399.568 79.6599C399.9 80.5547 400.032 81.5157 400.264 82.4547C400.308 83.3274 400.419 84.189 400.397 85.0617C400.242 89.5025 398.298 93.5566 395.812 97.1468C392.487 101.378 388.842 104.813 383.992 107.277C379.253 109.442 374.702 110.889 369.521 109.276C368.704 108.912 367.853 108.613 367.069 108.171C366.826 108.039 366.616 107.884 366.384 107.741C365.942 109.055 365.6 110.392 365.412 111.728C365.323 112.281 365.379 112.855 365.368 113.419C365.489 113.695 365.566 113.993 365.732 114.236C366.516 115.385 369.344 115.286 370.482 115.319C375.685 115.054 380.601 113.065 385.285 110.933C387.24 110.016 389.041 108.878 390.775 107.608C393.702 105.498 400.728 115.407 397.79 117.495ZM374.304 93.7113C373.564 94.606 372.901 95.5561 372.217 96.484C372.371 96.9701 373.774 98.5608 373.84 97.909C375.586 97.898 377.287 97.0143 378.833 96.2631C381.805 94.6834 384.191 92.3967 386.191 89.7234C387.395 87.8344 388.643 85.7245 388.157 83.4268C388.035 83.2611 387.185 82.3332 387.306 83.0954C387.34 83.2832 387.594 83.482 387.483 83.6367C387.306 83.9018 386.931 83.935 386.655 84.0786C381.706 86.0228 377.663 89.6571 374.304 93.7113Z" fill="#1882FF"/>
<path d="M459.806 46.652C459.773 46.6079 459.751 46.5747 459.718 46.5305C456.415 45.5474 452.891 45.9119 449.489 45.7462C443.192 45.8125 436.884 45.9671 430.61 46.5305C430.345 49.6899 429.958 52.8492 429.56 55.9976C428.29 66.1716 426.522 76.2793 424.733 86.3871C423.12 95.2907 421.463 104.194 419.861 113.109C419.276 116.324 418.768 119.549 418.315 122.797C417.851 126.177 406.44 124.598 406.915 121.217C407.39 117.826 407.909 114.446 408.527 111.076C410.129 102.173 411.786 93.2802 413.388 84.3765C415.144 74.4676 416.879 64.5477 418.127 54.5504C418.414 52.2969 418.701 50.0434 418.933 47.7788C414.062 48.3532 409.201 49.016 404.407 50.0102C400.563 50.8056 396.674 51.5347 393.029 53.037C389.825 54.2411 385.782 43.4595 388.986 42.2554C393.184 40.5322 397.657 39.6484 402.087 38.7315C410.074 37.0745 418.204 36.246 426.302 35.3623C433.957 34.4675 441.668 34.3018 449.367 34.2245C453.83 34.1914 458.271 34.3129 462.623 35.3733C463.22 35.6053 463.816 35.8484 464.413 36.0803C467.55 37.4612 462.943 48.0108 459.806 46.652Z" fill="#1882FF"/>
<path d="M469.703 81.5598L468.864 85.7134C468.565 87.2158 467.439 88.3978 465.958 88.8175C452.99 92.5403 443.269 109.696 440.938 123.836C440.385 127.205 429.062 125.614 429.537 122.223C430.355 116.456 438.419 74.6004 440.242 69.2096C441.744 66.1386 452.084 71.187 450.581 74.258C449.631 78.3674 449.156 80.9523 448.372 85.1279C451.487 80.0023 460.137 77.1964 465.362 76.6772C468.068 76.4121 470.245 78.8865 469.703 81.5598Z" fill="#1882FF"/>
<path d="M487.412 72.7999C487.069 77.1855 486.318 81.5268 485.511 85.8461C484.285 92.5293 482.982 99.1905 481.568 105.83C480.839 109.497 479.833 113.143 479.69 116.887C479.502 120.301 468.002 119.66 468.201 116.247C468.257 115.385 468.279 114.523 468.367 113.673C468.731 110.226 469.659 106.846 470.311 103.444C471.703 96.8928 472.984 90.3311 474.189 83.7472C474.862 80.1128 475.448 76.4674 475.89 72.7999C475.901 69.3865 487.412 69.3865 487.412 72.7999ZM493.808 34.3574C493.697 38.2679 493.101 42.1674 492.482 46.0338C491.896 49.7455 491.189 53.4461 490.494 57.1468C489.864 60.505 478.552 58.384 479.182 55.0258C479.856 51.4245 480.54 47.8233 481.115 44.211C481.645 40.9523 482.153 37.6604 482.297 34.3685C482.297 30.9329 493.808 30.9329 493.808 34.3574Z" fill="#1882FF"/>
<path d="M537.674 88.4306C537.077 89.6236 536.359 90.7615 535.708 91.9324C530.924 99.4 524.44 104.647 517.215 109.585C512.3 112.501 507.086 115.705 501.496 117.185C500.977 117.318 500.446 117.428 499.916 117.528C498.436 127.028 497.022 136.55 496.072 146.128C495.718 149.894 495.542 153.672 495.365 157.439C495.21 160.853 483.711 160.345 483.865 156.931C484.042 152.943 484.241 148.956 484.616 144.979C485.732 133.822 487.411 122.742 489.168 111.673C491.057 100.759 493.012 89.8667 495.089 78.9857C496.094 73.8821 497.11 68.7785 498.513 63.7633C499.496 60.4935 510.521 63.7964 509.538 67.0663C508.742 69.9384 508.091 72.8327 507.483 75.749C509.096 72.9542 510.919 70.303 513.051 67.8396C516.011 64.9343 519.568 62.4377 523.7 61.554C524.572 61.3662 525.456 61.322 526.34 61.2115C530.902 61.1232 535.597 62.5703 538.315 66.525C539.022 67.5413 539.441 68.7233 540.016 69.8169C540.281 71.021 540.679 72.203 540.822 73.4402C541.441 78.6211 539.961 83.8352 537.674 88.4306ZM529.444 74.3792C529.798 73.153 528.428 72.7001 527.456 72.678C525.224 72.5896 523.313 74.0478 521.7 75.4507C519.005 78.4333 517.061 81.9462 515.326 85.5585C513.007 90.651 510.886 95.8319 508.963 101.09C509.549 100.748 510.145 100.394 510.731 100.063C516.398 96.2296 521.866 91.9876 525.71 86.2213C527.831 82.5758 529.864 78.7426 529.444 74.3792Z" fill="#1882FF"/>
<path d="M220.711 83.692L220.402 83.1286C217.96 78.7541 214.492 75.65 210.073 73.8936C207.996 72.7447 203.644 71.6621 189.537 71.7063H189.438C179.197 72.0267 176.292 70.2371 175.95 69.3865C175.961 69.2098 175.983 68.8784 176.038 68.2818C176.657 65.4649 178.667 61.9521 182.003 57.8317C188.742 51.1594 191.956 48.7402 193.481 47.8896L193.746 47.7239C201.004 42.775 207.256 39.4831 212.36 37.9144L212.349 37.9476C211.719 39.7592 209.487 43.6035 202.484 51.6124C199.004 54.5839 197.358 56.1636 197.745 58.5718C198.176 61.2561 200.252 64.073 204.793 63.8631L205.654 63.7527C207.245 63.4986 209.134 62.4934 213.133 58.4503L213.354 58.1962C225.395 43.5151 226.345 37.9586 225.826 34.7661L225.505 32.7556L225.229 32.2254C224.754 31.3196 223.981 29.8614 222.81 28.8672C220.678 25.8735 215.254 25.8735 212.415 25.8735H211.929L211.454 26.0061C206.184 27.4532 202.506 28.8451 200.241 30.2812C195.767 32.137 189.868 35.7272 182.235 41.2395L182.036 41.3941C168.548 52.5845 162.616 61.93 163.909 69.9499C164.273 72.1924 165.422 74.4349 167.322 76.6111C170.106 79.914 174.922 81.9576 182.058 82.8414L182.401 82.8635C188.311 83.0402 194.21 83.0955 199.932 83.0181C205.058 83.3274 208.195 84.4763 209.278 86.4205L209.498 87.7903C209.498 87.8014 209.565 88.7845 207.919 91.4247C205.378 94.8492 202.771 97.3899 200.175 98.9917L192.962 104.018C185.306 108.569 175.287 113.231 163.235 117.859C156.662 120.279 154.729 121.604 153.757 122.952L152.873 124.178L153.414 127.514L154.574 128.398C156.088 129.547 157.767 130.143 159.479 130.143C159.877 130.143 160.285 130.11 160.683 130.044L161.556 129.9L162.473 129.657C162.76 129.668 163.058 129.657 163.345 129.613L163.677 129.558L172.359 126.399L172.481 126.354C207.786 112.049 223.329 99.787 221.396 87.7903L220.711 83.692Z" fill="#1882FF"/>
<path d="M13.9804 112.347C11.054 112.907 9.3851 113.376 8.40201 113.788C3.04073 103.703 0 92.2115 0 80.0114C0 40.2554 32.2248 8 71.9943 8C101.201 8 126.327 25.4026 137.621 50.3745L136.101 50.546L92.5249 42.4964C92.2277 42.4278 91.9304 42.5536 91.7132 42.7823C91.5075 43.0109 91.4275 43.3082 91.5189 43.6055L93.8166 51.6894C93.9195 52.0781 94.2739 52.3182 94.6625 52.3411L119.583 52.4783L115.022 53.0043C114.999 53.0043 114.987 53.0272 114.987 53.0272L93.3822 56.5831C79.6533 59.4188 70.8397 60.9624 67.1131 61.1567C67.4675 60.5965 67.7304 60.0819 67.959 59.5903C68.5534 59.1329 69.3079 58.6413 70.2339 58.0696C73.0231 57.3835 73.4461 55.5769 73.4461 54.5593V54.0677C73.4461 53.3816 73.1603 52.6841 72.6344 52.0095L72.463 51.8037C72.3029 51.5979 72.04 51.4721 71.7771 51.4721H71.4913C70.4968 51.4721 69.4223 51.6436 68.1305 52.0667C67.7076 52.2611 67.3189 52.4554 66.9417 52.6498C66.13 51.5293 64.2096 50.7861 60.7002 50.2258C60.6316 50.2029 60.4715 50.2029 60.403 50.2258C56.322 50.6603 53.4984 51.2549 51.9552 51.9752C48.5487 52.7413 43.6447 54.7423 37.346 57.9209C26.4749 64.3354 21.1936 70.1782 21.1936 75.7694C21.1936 77.2215 21.6966 78.7994 22.714 80.4116C24.2 82.9042 27.3093 84.8137 32.2705 86.2544C36.6144 87.1005 40.9812 87.8323 45.1422 88.4497C49.7833 89.4673 52.3667 91.1482 52.824 93.435C52.7668 93.5379 52.7326 93.6637 52.7326 93.8009V94.384C52.7326 94.7384 52.5382 95.7675 50.8235 97.7113C48.4001 100.078 45.9995 101.782 43.6561 102.742L37.8833 105.532C31.6189 108.048 23.5484 110.323 13.9804 112.347ZM139.165 54.0791C138.399 54.7079 136.638 55.3825 132.832 56.4688C132.797 56.4688 132.672 56.5031 132.637 56.5031C129.917 56.869 127.185 57.2578 124.452 57.6808L97.7833 65.4445C94.9598 71.596 92.5363 77.1301 90.593 81.8981L90.4329 82.1839C90.2729 82.424 89.5413 83.8647 85.4832 93.8809C84.2715 96.3849 83.357 98.5345 82.7168 100.261C82.5796 100.661 82.0538 101.908 79.5618 107.556L75.5494 116.863C75.5151 116.92 75.4808 116.989 75.4465 117.035C73.6633 119.39 72.7488 119.802 72.0286 119.893C71.9714 119.905 71.8914 119.905 71.8228 119.905C71.6856 119.905 71.537 119.893 71.457 119.848C70.2682 119.39 69.7194 118.773 69.7194 117.95C69.7194 115.514 71.6971 109.9 75.9266 100.284C80.0419 90.4964 84.8545 78.8566 90.2043 65.6503C90.2272 65.616 90.2729 65.5131 90.2958 65.4788C90.6501 64.8499 90.9816 64.1639 91.2903 63.4435C80.4077 65.4788 73.8576 66.6222 71.8114 66.828L68.3363 67.3197C68.0505 67.3197 67.8104 67.2854 67.6161 67.2168L66.21 67.3197C64.724 67.3197 63.5809 67.0567 62.6321 66.6336C61.066 68.2687 59.2141 70.0181 57.0079 71.9847C53.5556 74.5231 52.2867 74.8547 51.498 74.8547H51.1665C48.8574 74.5917 47.5427 73.2768 47.5427 71.3444C47.5427 70.4183 48.0686 69.8009 51.3951 67.7885C55.6247 64.2782 57.9909 61.8999 59.317 60.2992C59.6485 58.9271 60.3458 57.6694 61.4203 56.4917C61.2831 56.4574 61.1231 56.4573 60.986 56.4002C56.6764 56.6746 50.9721 58.4698 44.0676 61.717C42.09 62.4488 38.6835 64.5526 33.8823 67.9828C30.7616 70.7842 28.7154 73.3683 27.8695 75.6322C27.698 76.3297 27.6408 76.6155 27.6294 76.7184C27.6294 78.7308 31.5732 80.4345 38.4434 81.3264C49.2803 83.0072 51.8866 84.3564 52.904 85.2139C55.659 86.7918 57.7052 89.3187 58.9169 92.6003L58.9855 92.9547L59.0083 95.7561C59.0083 104.16 46.3882 110.975 19.2731 117.183L12.6316 118.464C12.5744 118.487 12.4715 118.487 12.4258 118.487C12.2315 118.487 12.0372 118.453 11.8657 118.395L11.2484 118.464H11.1455C23.9143 138.611 46.3882 152 72.0057 152C91.8847 152 109.878 143.928 122.921 130.904C135.93 117.869 144 99.8609 144 79.9771C143.989 70.8642 142.285 62.1172 139.165 54.0791Z" fill="#1882FF"/>
</svg>
