<svg width="24" height="24" viewBox="0 0 24 24" fill="none" xmlns="http://www.w3.org/2000/svg">
<path d="M19.3846 7.74252C19.6603 8.22106 20.2717 8.38548 20.7503 8.10976C21.2288 7.83405 21.3932 7.2226 21.1175 6.74406L19.3846 7.74252ZM21.1175 17.3044C21.3932 16.8259 21.2288 16.2145 20.7503 15.9387C20.2717 15.663 19.6603 15.8275 19.3846 16.306L21.1175 17.3044ZM7.4 15.5516C7.4 16.1039 7.84771 16.5516 8.4 16.5516C8.95228 16.5516 9.4 16.1039 9.4 15.5516H7.4ZM8.37081 8.76696L8.91279 9.60736L8.9128 9.60735L8.37081 8.76696ZM5.95651 9.13405C5.49237 9.43338 5.35877 10.0523 5.65809 10.5164C5.95742 10.9806 6.57632 11.1142 7.04046 10.8148L5.95651 9.13405ZM19.0539 10.9983C18.5016 10.9983 18.0539 11.446 18.0539 11.9983C18.0539 12.5506 18.5016 12.9983 19.0539 12.9983V10.9983ZM22.2185 12.9983C22.7708 12.9983 23.2185 12.5506 23.2185 11.9983C23.2185 11.446 22.7708 10.9983 22.2185 10.9983V12.9983ZM19.6362 13.5805C19.6362 14.1328 20.0839 14.5805 20.6362 14.5805C21.1885 14.5805 21.6362 14.1328 21.6362 13.5805H19.6362ZM21.6362 10.4159C21.6362 9.86365 21.1885 9.41593 20.6362 9.41593C20.0839 9.41593 19.6362 9.86365 19.6362 10.4159H21.6362ZM11.9351 21.6149V20.6149C7.19065 20.6149 3.34448 16.7687 3.34448 12.0243H2.34448H1.34448C1.34448 17.8733 6.08608 22.6149 11.9351 22.6149V21.6149ZM2.34448 12.0243H3.34448C3.34448 7.27976 7.19065 3.43359 11.9351 3.43359V2.43359V1.43359C6.08608 1.43359 1.34448 6.17519 1.34448 12.0243H2.34448ZM11.9351 2.43359V3.43359C15.1189 3.43359 17.8995 5.16506 19.3846 7.74252L20.251 7.24329L21.1175 6.74406C19.2901 3.57237 15.863 1.43359 11.9351 1.43359V2.43359ZM20.251 16.8052L19.3846 16.306C17.8995 18.8834 15.1189 20.6149 11.9351 20.6149V21.6149V22.6149C15.863 22.6149 19.2901 20.4761 21.1175 17.3044L20.251 16.8052ZM8.4 15.5516H9.4V8.78287H8.4H7.4V15.5516H8.4ZM8.37081 8.76696L7.82883 7.92657L5.95651 9.13405L6.49848 9.97444L7.04046 10.8148L8.91279 9.60736L8.37081 8.76696ZM8.38107 8.76394V7.76394C8.18519 7.76394 7.99345 7.82041 7.82883 7.92658L8.37081 8.76696L8.9128 9.60735C8.75429 9.70958 8.56968 9.76394 8.38107 9.76394V8.76394ZM8.4 8.78287H9.4C9.4 8.22017 8.94384 7.76394 8.38107 7.76394V8.76394V9.76394C7.83921 9.76394 7.4 9.32467 7.4 8.78287H8.4ZM15.7791 10.1561H14.7791C14.7791 10.4471 14.4977 10.8683 13.8058 10.8683V11.8683V12.8683C15.2935 12.8683 16.7791 11.837 16.7791 10.1561H15.7791ZM13.8058 11.8683V10.8683C13.1139 10.8683 12.8325 10.4471 12.8325 10.1561H11.8325H10.8325C10.8325 11.837 12.3181 12.8683 13.8058 12.8683V11.8683ZM11.8325 10.1561H12.8325C12.8325 9.81426 13.1717 9.37084 13.8058 9.37084V8.37084V7.37084C12.2602 7.37084 10.8325 8.52599 10.8325 10.1561H11.8325ZM13.8058 8.37084V9.37084C14.4399 9.37084 14.7791 9.81426 14.7791 10.1561H15.7791H16.7791C16.7791 8.52599 15.3513 7.37084 13.8058 7.37084V8.37084ZM16.0016 13.671H15.0016C15.0016 14.1439 14.553 14.6775 13.8058 14.6775V15.6775V16.6775C15.484 16.6775 17.0016 15.4144 17.0016 13.671H16.0016ZM13.8058 15.6775V14.6775C13.0586 14.6775 12.61 14.1439 12.61 13.671H11.61H10.61C10.61 15.4144 12.1276 16.6775 13.8058 16.6775V15.6775ZM11.61 13.671H12.61C12.61 13.4436 12.6989 13.2756 12.8709 13.1405C13.0614 12.9908 13.381 12.8683 13.8058 12.8683V11.8683V10.8683C13.0178 10.8683 12.2396 11.0931 11.6353 11.5678C11.0126 12.057 10.61 12.7904 10.61 13.671H11.61ZM13.8058 11.8683V12.8683C14.2305 12.8683 14.5502 12.9908 14.7407 13.1405C14.9127 13.2756 15.0016 13.4436 15.0016 13.671H16.0016H17.0016C17.0016 12.7904 16.5989 12.057 15.9762 11.5678C15.372 11.0931 14.5937 10.8683 13.8058 10.8683V11.8683ZM19.0539 11.9983V12.9983H22.2185V11.9983V10.9983H19.0539V11.9983ZM20.6362 13.5805H21.6362V10.4159H20.6362H19.6362V13.5805H20.6362Z" fill="#0D151F"/>
</svg>
