<svg width="24" height="24" viewBox="0 0 24 24" fill="none" xmlns="http://www.w3.org/2000/svg">
<g clip-path="url(#clip0_2499_1015)">
<path d="M16.3083 13.4958H16.3192" stroke="#0D151F" stroke-width="2" stroke-linecap="round"/>
<path d="M15.1794 8.88647C15.1794 9.43903 14.7315 9.88696 14.179 9.88696C13.6264 9.88696 13.1785 9.43903 13.1785 8.88647C13.1785 8.33392 13.6264 7.88599 14.179 7.88599C14.7315 7.88599 15.1794 8.33392 15.1794 8.88647Z" stroke="#0D151F" stroke-width="2" stroke-linecap="round"/>
<path d="M4.7828 7.89145L4.57565 7.93949C3.72952 8.13575 3.09912 8.84425 3.00259 9.70746V9.70746C2.93561 10.3064 3.13579 10.9045 3.54985 11.3425L4.50072 12.3483C5.08176 12.9629 5.23894 13.8654 4.89989 14.6403V14.6403C4.25993 16.1028 5.4157 17.718 7.00649 17.5842L7.09605 17.5767C8.04194 17.4972 8.92891 18.0444 9.28218 18.9255L9.64403 19.8279C9.92796 20.536 10.6141 21.0001 11.377 21.0001H12.3197C12.4825 21.0001 12.6302 20.9044 12.6967 20.7557V20.7557M7.01546 5.5991L7.20722 5.00001C7.5497 3.93004 8.86647 3.54707 9.72936 4.26647V4.26647C10.4541 4.87072 11.5432 4.711 12.0639 3.92409L12.1556 3.78558C12.831 2.76496 14.323 2.74757 15.022 3.75216L15.6432 4.64493C16.0637 5.24926 16.7318 5.63454 17.4655 5.69577L17.672 5.713C18.8888 5.81455 20.5726 6.3315 20.8294 7.52523C20.8606 7.67014 20.8783 7.83404 20.8783 8.02136C20.8783 8.49794 20.5305 8.94117 20.0854 9.3625C18.9974 10.3924 18.9244 11.8338 19.8665 12.9987L20.4764 13.7528C21.0014 14.4018 21.1059 15.2951 20.745 16.0479V16.0479C20.425 16.7153 19.7859 17.1726 19.051 17.2603L15.5255 17.6807" stroke="#0D151F" stroke-width="2" stroke-linecap="round" stroke-linejoin="round"/>
<path d="M17.7449 21.0297L5.44922 3.58276" stroke="#0D151F" stroke-width="2" stroke-linecap="round"/>
<path d="M9.3283 14.3835C9.10306 14.543 8.79115 14.4898 8.63162 14.2645C8.47209 14.0393 8.52536 13.7274 8.7506 13.5678" stroke="#0D151F"/>
</g>
<defs>
<clipPath id="clip0_2499_1015">
<rect width="20" height="20" fill="white" transform="translate(2 2)"/>
</clipPath>
</defs>
</svg>
