<svg width="24" height="24" viewBox="0 0 24 24" fill="none" xmlns="http://www.w3.org/2000/svg">
<path d="M16.3083 12.4963C15.756 12.4963 15.3083 12.944 15.3083 13.4963C15.3083 14.0486 15.756 14.4963 16.3083 14.4963V12.4963ZM16.3192 14.4963C16.8714 14.4963 17.3192 14.0486 17.3192 13.4963C17.3192 12.944 16.8714 12.4963 16.3192 12.4963V14.4963ZM12.1556 3.78604L11.3216 3.23419L11.3216 3.23419L12.1556 3.78604ZM12.0653 3.9225L12.8992 4.47435L12.8992 4.47435L12.0653 3.9225ZM3.54983 11.343L2.82316 12.03L2.82316 12.03L3.54983 11.343ZM4.5007 12.3488L5.22737 11.6618L5.22737 11.6618L4.5007 12.3488ZM7.00647 17.5847L6.92271 16.5882L6.92271 16.5882L7.00647 17.5847ZM7.09603 17.5772L7.17979 18.5737L7.1798 18.5737L7.09603 17.5772ZM9.28216 18.9259L8.354 19.2981L8.354 19.2981L9.28216 18.9259ZM9.64401 19.8284L8.71585 20.2005L8.71585 20.2005L9.64401 19.8284ZM20.4716 13.7473L21.2491 13.1185L21.2491 13.1185L20.4716 13.7473ZM19.8665 12.9992L19.089 13.628L19.089 13.628L19.8665 12.9992ZM20.0854 9.36296L19.3979 8.63674L19.3979 8.63674L20.0854 9.36296ZM20.8294 7.5257L19.8517 7.73602L19.8517 7.73602L20.8294 7.5257ZM17.672 5.71347L17.5888 6.71L17.5888 6.71L17.672 5.71347ZM17.4655 5.69623L17.5487 4.6997L17.5487 4.6997L17.4655 5.69623ZM15.6432 4.6454L14.8223 5.21655L14.8223 5.21655L15.6432 4.6454ZM15.022 3.75263L15.8428 3.18148L15.8428 3.18147L15.022 3.75263ZM5.00872 8.86605C5.54673 8.74127 5.8817 8.20397 5.75692 7.66597C5.63213 7.12797 5.09484 6.79299 4.55683 6.91777L5.00872 8.86605ZM4.57563 7.93996L4.80157 8.9141L4.80157 8.9141L4.57563 7.93996ZM7.20288 4.99649L6.25117 4.68948L6.25117 4.68948L7.20288 4.99649ZM6.01315 5.42735C5.84359 5.95296 6.13223 6.51651 6.65785 6.68606C7.18346 6.85562 7.74701 6.56698 7.91656 6.04136L6.01315 5.42735ZM15.2974 16.7504C14.7497 16.8214 14.3632 17.3229 14.4341 17.8706C14.505 18.4183 15.0065 18.8048 15.5542 18.7339L15.2974 16.7504ZM19.06 17.2716L18.9316 16.2799L18.9316 16.2799L19.06 17.2716ZM13.6095 21.1644C13.835 20.6602 13.609 20.0688 13.1049 19.8433C12.6007 19.6179 12.0092 19.8438 11.7838 20.348L13.6095 21.1644ZM20.7417 16.0552L21.6434 16.4876L21.6434 16.4876L20.7417 16.0552ZM4.89987 14.6407L3.98374 14.2398L3.98374 14.2398L4.89987 14.6407ZM3.00257 9.70793L2.00877 9.5968L2.00877 9.5968L3.00257 9.70793ZM9.72744 4.26536L9.08709 5.03344L9.08709 5.03344L9.72744 4.26536ZM6.26663 3.00717C5.94848 2.55573 5.32461 2.44768 4.87317 2.76583C4.42173 3.08398 4.31367 3.70786 4.63183 4.1593L6.26663 3.00717ZM16.9275 21.6062C17.2457 22.0576 17.8695 22.1657 18.321 21.8475C18.7724 21.5294 18.8805 20.9055 18.5623 20.4541L16.9275 21.6062ZM16.3083 13.4963V14.4963H16.3192V13.4963V12.4963H16.3083V13.4963ZM15.1794 8.88694H14.1794L14.1789 8.88743V9.88743V10.8874C15.2837 10.8874 16.1794 9.99178 16.1794 8.88694H15.1794ZM14.1789 9.88743V8.88743L14.1784 8.88694H13.1784H12.1784C12.1784 9.99178 13.0741 10.8874 14.1789 10.8874V9.88743ZM13.1784 8.88694H14.1784L14.1789 8.88645V7.88645V6.88645C13.0741 6.88645 12.1784 7.7821 12.1784 8.88694H13.1784ZM14.1789 7.88645V8.88645L14.1794 8.88694H15.1794H16.1794C16.1794 7.7821 15.2837 6.88645 14.1789 6.88645V7.88645ZM12.1556 3.78604L11.3216 3.23419L11.2313 3.37064L12.0653 3.9225L12.8992 4.47435L12.9895 4.3379L12.1556 3.78604ZM3.54983 11.343L2.82316 12.03L3.77403 13.0358L4.5007 12.3488L5.22737 11.6618L4.2765 10.656L3.54983 11.343ZM7.00647 17.5847L7.09023 18.5812L7.17979 18.5737L7.09603 17.5772L7.01227 16.5807L6.92271 16.5882L7.00647 17.5847ZM9.28216 18.9259L8.354 19.2981L8.71585 20.2005L9.64401 19.8284L10.5722 19.4562L10.2103 18.5538L9.28216 18.9259ZM20.4716 13.7473L21.2491 13.1185L20.644 12.3703L19.8665 12.9992L19.089 13.628L19.6941 14.3762L20.4716 13.7473ZM20.0854 9.36296L20.7728 10.0892C21.2147 9.67086 21.8783 8.96346 21.8783 8.02183H20.8783H19.8783C19.8783 8.00976 19.8835 8.05351 19.8062 8.17449C19.7268 8.29867 19.5948 8.45036 19.3979 8.63674L20.0854 9.36296ZM20.8783 8.02183H21.8783C21.8783 7.77111 21.8545 7.5362 21.807 7.31537L20.8294 7.5257L19.8517 7.73602C19.8666 7.80502 19.8783 7.8979 19.8783 8.02183H20.8783ZM17.672 5.71347L17.7552 4.71693L17.5487 4.6997L17.4655 5.69623L17.3823 6.69277L17.5888 6.71L17.672 5.71347ZM15.6432 4.6454L16.464 4.07425L15.8428 3.18148L15.022 3.75263L14.2011 4.32378L14.8223 5.21655L15.6432 4.6454ZM4.78278 7.89191L4.55683 6.91777L4.34968 6.96582L4.57563 7.93996L4.80157 8.9141L5.00872 8.86605L4.78278 7.89191ZM11.377 21.0006V22.0006H12.3197V21.0006V20.0006H11.377V21.0006ZM7.20288 4.99649L6.25117 4.68948L6.01315 5.42735L6.96486 5.73435L7.91656 6.04136L8.15459 5.3035L7.20288 4.99649ZM15.4258 17.7422L15.5542 18.7339L19.1884 18.2634L19.06 17.2716L18.9316 16.2799L15.2974 16.7504L15.4258 17.7422ZM12.3197 21.0006V22.0006C12.8769 22.0006 13.3821 21.6731 13.6095 21.1644L12.6966 20.7562L11.7838 20.348C11.8783 20.1367 12.0881 20.0006 12.3197 20.0006V21.0006ZM17.4655 5.69623L17.5487 4.6997C17.112 4.66326 16.7143 4.43394 16.464 4.07425L15.6432 4.6454L14.8223 5.21655C15.4131 6.06551 16.3517 6.60676 17.3823 6.69277L17.4655 5.69623ZM20.8294 7.5257L21.807 7.31538C21.584 6.27878 20.7695 5.65784 20.0442 5.30889C19.2995 4.95056 18.4475 4.77471 17.7552 4.71693L17.672 5.71347L17.5888 6.71C18.1134 6.75378 18.7116 6.88717 19.1771 7.11114C19.6621 7.34449 19.8179 7.57889 19.8517 7.73602L20.8294 7.5257ZM19.8665 12.9992L20.644 12.3703C20.3102 11.9575 20.1924 11.5455 20.213 11.1878C20.2334 10.8325 20.3949 10.447 20.7728 10.0892L20.0854 9.36296L19.3979 8.63674C18.6878 9.30889 18.2688 10.159 18.2163 11.0731C18.1639 11.9849 18.4807 12.8759 19.089 13.628L19.8665 12.9992ZM20.7417 16.0552L21.6434 16.4876C22.1732 15.3826 22.0198 14.0713 21.2491 13.1185L20.4716 13.7473L19.6941 14.3762C19.9793 14.7288 20.036 15.214 19.84 15.6228L20.7417 16.0552ZM20.7417 16.0552L19.84 15.6228C19.668 15.9816 19.3261 16.2288 18.9316 16.2799L19.06 17.2716L19.1884 18.2634C20.2546 18.1253 21.1785 17.457 21.6434 16.4876L20.7417 16.0552ZM9.64401 19.8284L8.71585 20.2005C9.15185 21.2879 10.2055 22.0006 11.377 22.0006V21.0006V20.0006C11.0227 20.0006 10.704 19.785 10.5722 19.4562L9.64401 19.8284ZM7.09603 17.5772L7.1798 18.5737C7.68784 18.531 8.16425 18.8249 8.354 19.2981L9.28216 18.9259L10.2103 18.5538C9.69353 17.2649 8.39599 16.4644 7.01227 16.5807L7.09603 17.5772ZM4.89987 14.6407L3.98374 14.2398C3.04002 16.3965 4.74437 18.7784 7.09023 18.5812L7.00647 17.5847L6.92271 16.5882C6.08698 16.6585 5.4798 15.8099 5.816 15.0416L4.89987 14.6407ZM4.5007 12.3488L3.77403 13.0358C4.07928 13.3586 4.16186 13.8328 3.98374 14.2398L4.89987 14.6407L5.816 15.0416C6.31598 13.899 6.0842 12.5681 5.22737 11.6618L4.5007 12.3488ZM3.00257 9.70793L2.00877 9.5968C1.90909 10.4882 2.20699 11.3782 2.82316 12.03L3.54983 11.343L4.2765 10.656C4.06456 10.4318 3.96209 10.1257 3.99638 9.81907L3.00257 9.70793ZM3.00257 9.70793L3.99638 9.81907C4.04579 9.37722 4.36846 9.01456 4.80157 8.9141L4.57563 7.93996L4.34968 6.96582C3.09053 7.25787 2.15242 8.31222 2.00877 9.5968L3.00257 9.70793ZM9.72744 4.26536L10.3678 3.49728C8.96071 2.32417 6.8136 2.94599 6.25117 4.68948L7.20288 4.99649L8.15459 5.3035C8.28199 4.90856 8.76835 4.76771 9.08709 5.03344L9.72744 4.26536ZM12.0653 3.9225L11.2313 3.37064C11.0387 3.66171 10.6359 3.72078 10.3678 3.49728L9.72744 4.26536L9.08709 5.03344C10.2706 6.02011 12.0489 5.7593 12.8992 4.47435L12.0653 3.9225ZM12.1556 3.78604L12.9895 4.3379C13.275 3.90649 13.9057 3.89913 14.2011 4.32378L15.022 3.75263L15.8428 3.18147C14.7403 1.59694 12.3869 1.62438 11.3216 3.23419L12.1556 3.78604ZM5.44923 3.58323L4.63183 4.1593L16.9275 21.6062L17.7449 21.0301L18.5623 20.4541L6.26663 3.00717L5.44923 3.58323ZM9.32822 14.384L8.75024 13.5679C8.9757 13.4082 9.28791 13.4616 9.44759 13.687L8.63154 14.265L7.81549 14.843C8.29422 15.5189 9.23026 15.6788 9.90619 15.2L9.32822 14.384ZM8.63154 14.265L9.44759 13.687C9.60728 13.9125 9.55395 14.2247 9.3285 14.3844L8.75052 13.5683L8.17254 12.7523C7.49662 13.231 7.33675 14.167 7.81549 14.843L8.63154 14.265Z" fill="#0D151F"/>
</svg>
