<svg width="24" height="24" viewBox="0 0 24 24" fill="none" xmlns="http://www.w3.org/2000/svg">
<path d="M11.2488 13.3495L12.164 15.7099M11.2488 13.3495H7.30254M11.2488 13.3495L9.47242 8.76807C9.40654 8.59816 9.1663 8.59769 9.09976 8.76734L7.30254 13.3495M6.37674 15.7099L7.30254 13.3495M15.2188 10.2932V12.8621M17.623 10.9918C17.5127 10.952 17.4058 10.9231 17.3022 10.905C17.2019 10.887 17.0899 10.8779 16.9663 10.8779C16.6788 10.8779 16.2098 10.9665 15.9759 11.1436C15.7452 11.317 15.5614 11.5538 15.4244 11.8538C15.2874 12.1501 15.2188 12.4862 15.2188 12.8621M15.2188 12.8621V15.7099M4.83325 21.1666H19.1666C20.2712 21.1666 21.1666 20.2712 21.1666 19.1666V4.83325C21.1666 3.72868 20.2712 2.83325 19.1666 2.83325H4.83325C3.72868 2.83325 2.83325 3.72869 2.83325 4.83325V19.1666C2.83325 20.2712 3.72869 21.1666 4.83325 21.1666Z" stroke="#0D151F" stroke-width="2" stroke-linecap="round"/>
</svg>
