<svg width="24" height="24" viewBox="0 0 24 24" fill="none" xmlns="http://www.w3.org/2000/svg">
<path d="M21.7667 17.0381C19.9119 18.8737 17.4929 20.1878 14.7756 20.7266M14.7756 20.7266C13.8796 20.9043 12.9512 20.9977 11.9999 20.9977C11.0486 20.9977 10.1202 20.9043 9.22424 20.7266M14.7756 20.7266V14.8748M9.22424 20.7266C6.50699 20.1878 4.08793 18.8737 2.23315 17.0381M9.22424 20.7266V14.8748M18.8089 8.48827V8.831C18.8089 12.1447 16.1226 14.831 12.8089 14.831H11.1084C7.79474 14.831 5.10845 12.1447 5.10845 8.831V6.48827C5.10845 4.57132 6.66244 3.01733 8.57938 3.01733H10.295C10.4669 3.01733 10.6062 3.15666 10.6062 3.32853V6.43137C10.6062 6.46279 10.6317 6.48827 10.6631 6.48827H16.8089C17.9135 6.48827 18.8089 7.3837 18.8089 8.48827Z" stroke="#0D151F" stroke-width="2" stroke-linecap="round"/>
</svg>
