<svg width="24" height="24" viewBox="0 0 24 24" fill="none" xmlns="http://www.w3.org/2000/svg">
<g clip-path="url(#clip0_2499_891)">
<path fill-rule="evenodd" clip-rule="evenodd" d="M2.59556 12.1415C0.827798 13.9093 0.827798 16.7377 2.59556 18.5055L5.42399 21.3339C7.12105 23.0309 10.0202 23.1017 11.788 21.4753L15.8892 17.3741C16.8084 16.4548 17.3034 15.2528 17.2327 14.0507C17.6569 14.0507 18.0812 13.7678 18.364 13.485L19.2833 12.5658C20.4147 11.4344 20.4854 9.80804 19.6368 8.53525L19.9904 8.1817C21.1218 7.05033 21.1218 5.21185 19.9904 4.08048C18.859 2.94911 17.0205 2.94911 15.8892 4.08048L15.5356 4.43403C14.2628 3.5855 12.5658 3.72693 11.5051 4.78759L10.6566 5.63611C10.303 5.98967 10.0909 6.34322 10.0909 6.76748C8.88882 6.69677 7.61602 7.12104 6.69678 8.04028L2.59556 12.1415ZM8.111 9.45449C9.10095 8.46454 10.6566 8.46454 11.6465 9.45449L14.475 12.2829C15.1821 12.99 15.3235 14.1214 14.9699 15.0406L13.7679 13.8386C13.3436 13.4143 12.7779 13.4143 12.3536 13.8386C11.9294 14.2628 11.9294 14.8285 12.3536 15.2528L13.6264 16.5256L13.0607 17.0912L11.788 15.8185C11.3637 15.3942 10.798 15.3942 10.3737 15.8185C9.94947 16.2427 9.94947 16.8084 10.3737 17.2327L11.6465 18.5055L11.1516 19.0004L9.87877 17.7276C9.4545 17.3034 8.88882 17.3034 8.46455 17.7276C8.04029 18.1519 8.04029 18.7176 8.46455 19.1419L9.73734 20.4146C8.74739 20.8389 7.61602 20.6975 6.83821 19.9197L4.00978 17.0912C3.01983 16.1013 3.01983 14.5457 4.00978 13.5557L8.111 9.45449ZM16.0306 11.0101L15.8892 10.8687L13.0607 8.04028L12.0708 7.05033L12.9193 6.2018C13.4143 5.70682 14.1214 5.70682 14.475 6.2018C15.0406 6.76748 15.8892 6.76748 16.4549 6.2018L17.2327 5.42398C17.5862 5.07043 18.1519 5.07043 18.5055 5.42398C18.859 5.77754 18.859 6.34322 18.5055 6.69677L17.7276 7.47459C17.162 8.04028 17.162 8.88881 17.7276 9.45449C18.1519 9.87875 18.1519 10.5859 17.7276 11.0101L16.8791 11.8587L16.1013 11.0808L16.0306 11.0101Z" fill="#0D151F"/>
</g>
<defs>
<clipPath id="clip0_2499_891">
<rect width="24" height="24" fill="white"/>
</clipPath>
</defs>
</svg>
