<svg width="24" height="24" viewBox="0 0 24 24" fill="none" xmlns="http://www.w3.org/2000/svg">
<path d="M14.6061 13.3963L16.432 15.2213M14.1749 17.6741L12.2521 15.7503M11.8209 20.028L9.8971 18.1052M16.432 15.2213C16.8316 14.5435 17.0475 13.7655 17.0473 12.9652C17.047 11.7873 16.5787 10.6578 15.7455 9.82536L14.1758 8.25563C13.3433 7.42207 12.2137 6.95351 11.0357 6.95311C9.85763 6.95271 8.72773 7.42051 7.89472 8.25351L3.97077 12.1774C3.3459 12.8023 2.99508 13.65 2.99561 14.5337C2.99614 15.4174 3.34798 16.2646 3.9736 16.8887L7.11446 20.0296C8.41467 21.3298 10.5227 21.3298 11.823 20.0296L15.7469 16.1056C16.0139 15.8386 16.2434 15.5411 16.432 15.2213ZM20.4535 3.54721C20.0629 3.15631 19.52 2.95712 18.9692 3.0026C18.4184 3.04808 17.9156 3.33362 17.5943 3.7833L17.3032 4.19648C17.2082 4.32914 17.0597 4.41331 16.897 4.4266C16.7344 4.4399 16.5741 4.38098 16.4589 4.26551C16.0612 3.86695 15.5213 3.64296 14.9582 3.64296C14.3952 3.64296 13.8553 3.86695 13.4576 4.26551L12.6012 5.11686C12.1681 5.55043 12.1681 6.25294 12.6012 6.68651L17.3142 11.3994C17.7478 11.8326 18.4503 11.8326 18.8839 11.3994L19.7402 10.5431C20.1388 10.1454 20.3628 9.60553 20.3628 9.0425C20.3628 8.47946 20.1388 7.93956 19.7402 7.54187C19.6247 7.42658 19.5658 7.26633 19.5791 7.1037C19.5924 6.94107 19.6766 6.79252 19.8093 6.69752L20.2174 6.4064C20.6671 6.08515 20.9526 5.58229 20.9981 5.03152C21.0436 4.48075 20.8444 3.93787 20.4535 3.54721Z" stroke="#0D151F" stroke-width="2" stroke-linecap="round" stroke-linejoin="round"/>
</svg>
