<svg width="24" height="24" viewBox="0 0 24 24" fill="none" xmlns="http://www.w3.org/2000/svg">
<path d="M12 14.2026L20.869 4.50128C20.9533 4.40912 21 4.28877 21 4.16391V3.54541C21 3.26927 20.7761 3.04541 20.5 3.04541H3.5C3.22386 3.04541 3 3.26927 3 3.54541V4.16391C3 4.28877 3.04672 4.40912 3.13097 4.50128L12 14.2026ZM12 14.2026V20.9547M12 20.9547H16.8129M12 20.9547H7.18711M14.2774 6.47036H9.72253C9.72213 6.47036 9.72177 6.4706 9.72161 6.47097L9.72141 6.47144C9.72125 6.47181 9.72133 6.47224 9.7216 6.47253L11.999 8.8665C11.9992 8.8667 11.9994 8.86681 11.9997 8.86681H12.0003C12.0006 8.86681 12.0008 8.8667 12.001 8.8665L14.2784 6.47253C14.2787 6.47224 14.2787 6.47181 14.2786 6.47144L14.2784 6.47097C14.2782 6.4706 14.2778 6.47036 14.2774 6.47036Z" stroke="#0D151F" stroke-width="2" stroke-linecap="round"/>
</svg>
