<svg width="24" height="24" viewBox="0 0 24 24" fill="none" xmlns="http://www.w3.org/2000/svg">
<path d="M9.05873 6.64563V2.39355H13.1429V6.64563M21.8721 1.93799H21.8833M21.8721 4.65271H21.8834M21.8721 7.36723H21.8834M19.3983 3.29518H19.4095M19.3983 6.00978H19.4096M16.9244 4.65271H16.9356M18.8608 14.2503C18.8608 18.5406 15.3865 22.0185 11.1008 22.0185C6.81508 22.0185 3.34082 18.5406 3.34082 14.2503C3.34082 9.96005 6.81508 6.4821 11.1008 6.4821C15.3865 6.4821 18.8608 9.96005 18.8608 14.2503ZM11.1007 17.93C11.3246 17.93 14.7765 16.0901 14.7765 13.1603C14.7765 12.1815 13.954 11.3883 12.9386 11.3883C12.0344 11.3883 11.2535 12.0449 11.1007 12.7604C10.948 12.0449 10.1671 11.3883 9.26286 11.3883C8.24753 11.3883 7.42497 12.1815 7.42497 13.1603C7.42497 16.0901 10.8769 17.93 11.1007 17.93Z" stroke="#0D151F" stroke-width="2" stroke-linecap="round" stroke-linejoin="round"/>
</svg>
