<svg width="24" height="24" viewBox="0 0 24 24" fill="none" xmlns="http://www.w3.org/2000/svg">
<path d="M12.6624 3.63184H14.4071C14.8338 3.63184 15.2136 3.90263 15.3526 4.30609L16.6304 8.01494M19.5314 16.0593L16.6304 8.01494M16.6304 8.01494H15.5935M5.28407 15.8569H11.5145C11.912 15.8569 12.2718 15.6214 12.4309 15.2571L15.5935 8.01494M15.5935 8.01494H12.1352C11.897 8.01494 11.6665 8.1 11.4854 8.25481L9.69963 9.78133C9.42794 10.0136 9.05294 10.0832 8.71602 9.96383L1.29004 7.33383M19.9891 8.48331C19.697 8.28438 19.459 7.9992 19.3183 7.64624C19.1776 7.29329 19.154 6.92263 19.229 6.5773M8.60407 15.7695C8.60407 17.7578 6.99229 19.3695 5.00407 19.3695C3.01584 19.3695 1.40407 17.7578 1.40407 15.7695C1.40407 13.7813 3.01584 12.1695 5.00407 12.1695C6.99229 12.1695 8.60407 13.7813 8.60407 15.7695ZM22.6041 15.7695C22.6041 17.7578 20.9923 19.3695 19.0041 19.3695C17.0158 19.3695 15.4041 17.7578 15.4041 15.7695C15.4041 13.7813 17.0158 12.1695 19.0041 12.1695C20.9923 12.1695 22.6041 13.7813 22.6041 15.7695Z" stroke="#0D151F" stroke-width="2" stroke-linecap="round"/>
</svg>
