<svg width="24" height="24" viewBox="0 0 24 24" fill="none" xmlns="http://www.w3.org/2000/svg">
<path d="M15.901 5.79943L16.6535 6.45802L16.6535 6.45802L15.901 5.79943ZM15.309 3.15035L14.9078 4.06634L14.9078 4.06634L15.309 3.15035ZM17.5553 4.20624L17.1901 3.2753L17.1901 3.2753L17.5553 4.20624ZM17.5549 4.01989L17.9159 3.08734L17.5549 4.01989ZM3.45361 10.9174C2.9587 10.6723 2.35879 10.8748 2.11366 11.3697C1.86853 11.8646 2.07102 12.4645 2.56592 12.7096L3.45361 10.9174ZM5.48206 13.0381L5.9259 12.142L5.48206 13.0381ZM17.8678 10.7339L17.8678 11.7339L17.8678 10.7339ZM15.1036 11.5734C15.5611 11.8827 16.1828 11.7626 16.4921 11.305C16.8014 10.8475 16.6813 10.2258 16.2238 9.91653L15.1036 11.5734ZM10.505 7.25738L11.0651 6.42894L11.0651 6.42894L10.505 7.25738ZM9.88157 7.30819L9.19475 6.58137L9.19475 6.58137L9.88157 7.30819ZM6.90631 10.1197L7.59314 10.8466L7.59314 10.8466L6.90631 10.1197ZM7.24212 11.1047L7.43355 10.1232L7.43355 10.1232L7.24212 11.1047ZM11.0605 18.4389C11.0605 18.9912 11.5083 19.4389 12.0605 19.4389C12.6128 19.4389 13.0605 18.9912 13.0605 18.4389H11.0605ZM12.9524 4.69202H11.9524C11.9524 6.17338 13.1533 7.37427 14.6347 7.37427V6.37427V5.37427C14.2579 5.37427 13.9524 5.06881 13.9524 4.69202H12.9524ZM14.6347 3.00977V2.00977C13.1533 2.00977 11.9524 3.21065 11.9524 4.69202H12.9524H13.9524C13.9524 4.31522 14.2579 4.00977 14.6347 4.00977V3.00977ZM14.6347 6.37427V7.37427C15.44 7.37427 16.1634 7.01809 16.6535 6.45802L15.901 5.79943L15.1485 5.14084C15.022 5.28542 14.8393 5.37427 14.6347 5.37427V6.37427ZM15.901 5.79943L16.6535 6.45802C17.0659 5.98682 17.3169 5.36749 17.3169 4.69202H16.3169H15.3169C15.3169 4.86472 15.254 5.02027 15.1485 5.14084L15.901 5.79943ZM16.3169 4.69202L16.6821 5.62295L17.9205 5.13717L17.5553 4.20624L17.1901 3.2753L15.9517 3.76108L16.3169 4.69202ZM16.3169 4.69202H17.3169C17.3169 3.59143 16.6542 2.64785 15.7102 2.23436L15.309 3.15035L14.9078 4.06634C15.1505 4.17267 15.3169 4.41402 15.3169 4.69202H16.3169ZM15.309 3.15035L15.7102 2.23436C15.3796 2.08959 15.0152 2.00977 14.6347 2.00977V3.00977V4.00977C14.7338 4.00977 14.8254 4.03028 14.9078 4.06634L15.309 3.15035ZM17.5549 4.01989L17.9159 3.08734L15.67 2.2178L15.309 3.15035L14.9479 4.0829L17.1938 4.95244L17.5549 4.01989ZM17.5553 4.20624L17.9205 5.13717C18.8537 4.77107 18.8508 3.44931 17.9159 3.08734L17.5549 4.01989L17.1938 4.95244C16.4289 4.65628 16.4265 3.57484 17.1901 3.2753L17.5553 4.20624ZM9.06667 17.7217H8.06667C8.06667 18.8419 7.1585 19.7501 6.03822 19.7501V20.7501V21.7501C8.26307 21.7501 10.0667 19.9465 10.0667 17.7217H9.06667ZM6.03822 20.7501V19.7501C4.91793 19.7501 4.00977 18.8419 4.00977 17.7217H3.00977H2.00977C2.00977 19.9465 3.81336 21.7501 6.03822 21.7501V20.7501ZM3.00977 17.7217H4.00977C4.00977 16.6014 4.91793 15.6932 6.03822 15.6932V14.6932V13.6932C3.81337 13.6932 2.00977 15.4968 2.00977 17.7217H3.00977ZM6.03822 14.6932V15.6932C7.1585 15.6932 8.06667 16.6014 8.06667 17.7217H9.06667H10.0667C10.0667 15.4968 8.26307 13.6932 6.03822 13.6932V14.6932ZM6.03822 14.6932H7.03822V13.9342H6.03822H5.03822V14.6932H6.03822ZM5.48206 13.0381L5.9259 12.142L3.45361 10.9174L3.00977 11.8135L2.56592 12.7096L5.03822 13.9342L5.48206 13.0381ZM6.03822 13.9342H7.03822C7.03822 13.1739 6.60717 12.4794 5.9259 12.142L5.48206 13.0381L5.03822 13.9342L5.03822 13.9342H6.03822ZM20.9962 17.7216H19.9962C19.9962 18.8419 19.0881 19.7501 17.9678 19.7501V20.7501V21.7501C20.1926 21.7501 21.9962 19.9465 21.9962 17.7216H20.9962ZM17.9678 20.7501V19.7501C16.8475 19.7501 15.9393 18.8419 15.9393 17.7216H14.9393H13.9393C13.9393 19.9465 15.7429 21.7501 17.9678 21.7501V20.7501ZM14.9393 17.7216H15.9393C15.9393 16.6014 16.8475 15.6932 17.9678 15.6932V14.6932V13.6932C15.7429 13.6932 13.9393 15.4968 13.9393 17.7216H14.9393ZM17.9678 14.6932V15.6932C19.0881 15.6932 19.9962 16.6014 19.9962 17.7216H20.9962H21.9962C21.9962 15.4968 20.1926 13.6932 17.9678 13.6932V14.6932ZM17.9678 14.6932H18.9678V10.8339H17.9678H16.9678V14.6932H17.9678ZM17.8678 10.7339V9.73389H15.7745V10.7339V11.7339H17.8678V10.7339ZM17.9678 10.8339H18.9678C18.9678 10.2264 18.4753 9.73389 17.8678 9.73389L17.8678 10.7339L17.8678 11.7339C17.3707 11.7339 16.9678 11.3309 16.9678 10.8339H17.9678ZM15.6637 10.745L16.2238 9.91653L11.0651 6.42894L10.505 7.25738L9.94495 8.08582L15.1036 11.5734L15.6637 10.745ZM9.88157 7.30819L9.19475 6.58137L6.21949 9.39292L6.90631 10.1197L7.59314 10.8466L10.5684 8.03501L9.88157 7.30819ZM7.24212 11.1047L7.05069 12.0862C9.40031 12.5445 11.0605 14.3479 11.0605 16.0232H12.0605H13.0605C13.0605 13.0838 10.3842 10.6987 7.43355 10.1232L7.24212 11.1047ZM12.0605 16.0232H11.0605V18.4389H12.0605H13.0605V16.0232H12.0605ZM6.90631 10.1197L6.21949 9.39292C5.70875 9.87555 5.66951 10.543 5.84172 11.0298C6.01098 11.5082 6.43038 11.9653 7.05069 12.0862L7.24212 11.1047L7.43355 10.1232C7.60992 10.1576 7.69704 10.2775 7.7272 10.3627C7.7603 10.4563 7.77513 10.6746 7.59314 10.8466L6.90631 10.1197ZM10.505 7.25738L11.0651 6.42894C10.4829 6.03535 9.70552 6.09871 9.19475 6.58137L9.88157 7.30819L10.5684 8.03501C10.3981 8.1959 10.139 8.21702 9.94495 8.08582L10.505 7.25738Z" fill="#0D151F"/>
</svg>
