<svg width="24" height="24" viewBox="0 0 24 24" fill="none" xmlns="http://www.w3.org/2000/svg">
<path d="M10.3954 9.70599C10.2971 9.59879 10.1879 9.50609 10.0678 9.42789C9.83848 9.27458 9.59143 9.19792 9.32667 9.19792C8.96184 9.19792 8.64183 9.31358 8.36664 9.54489C8.09354 9.77351 7.88193 10.0976 7.73183 10.5172C7.58381 10.9341 7.50981 11.4263 7.50981 11.9938V12.0019C7.50981 12.5721 7.58381 13.067 7.73183 13.4865C7.88193 13.9034 8.09354 14.2275 8.36664 14.4589C8.63974 14.6875 8.9608 14.8018 9.3298 14.8018C9.60915 14.8018 9.86245 14.7332 10.0897 14.596C10.2015 14.5291 10.3034 14.4495 10.3954 14.357M12.1883 21.0061C15.0285 21.0061 17.5265 19.3738 18.9673 16.9054C18.9852 16.8747 19.0183 16.8556 19.0539 16.8547C20.9489 16.8074 22.4731 14.9217 22.4731 12.6024C22.4731 10.533 21.2596 8.80873 19.652 8.4276C19.6195 8.41988 19.5924 8.39685 19.58 8.36575C18.325 5.20869 15.4876 3.0061 12.1883 3.0061C9.08101 3.0061 6.3834 4.95976 5.0315 7.82445C5.017 7.85516 4.98788 7.87663 4.95431 7.8818C2.98771 8.18506 1.47314 10.0724 1.47314 12.3554C1.47314 14.7828 3.18537 16.7629 5.33266 16.8672C5.36715 16.8688 5.39885 16.8877 5.4163 16.9175C6.85821 19.3791 9.35266 21.0061 12.1883 21.0061ZM14.789 14.8018C15.1354 14.8018 15.4353 14.6875 15.6888 14.4589C15.9424 14.2275 16.1388 13.9021 16.2781 13.4825C16.4194 13.0629 16.49 12.5694 16.49 12.0019V11.9938C16.49 11.4263 16.4194 10.9327 16.2781 10.5132C16.1388 10.0936 15.9424 9.76947 15.6888 9.54085C15.4353 9.31223 15.1354 9.19792 14.789 9.19792C14.4445 9.19792 14.1446 9.31223 13.8891 9.54085C13.6356 9.76947 13.4392 10.0936 13.2999 10.5132C13.1606 10.9327 13.0909 11.4263 13.0909 11.9938V12.0019C13.0909 12.5694 13.1606 13.0629 13.2999 13.4825C13.4392 13.9021 13.6356 14.2275 13.8891 14.4589C14.1446 14.6875 14.4445 14.8018 14.789 14.8018Z" stroke="#0D151F" stroke-width="2" stroke-linecap="round"/>
</svg>
