<svg width="24" height="24" viewBox="0 0 24 24" fill="none" xmlns="http://www.w3.org/2000/svg">
<path d="M7.15771 20.002C6.60543 20.002 6.15771 20.4497 6.15771 21.002C6.15771 21.5542 6.60543 22.002 7.15771 22.002V20.002ZM20.6092 5.78345C20.6092 5.23116 20.1615 4.78345 19.6092 4.78345C19.0569 4.78345 18.6092 5.23116 18.6092 5.78345H20.6092ZM13.3359 9.09753L12.3628 9.32777L12.3629 9.32806L13.3359 9.09753ZM12.1399 7.89527L11.9272 8.87238L11.9276 8.87247L12.1399 7.89527ZM10.6167 8.55036L9.8516 9.1943L10.6166 10.1032L11.3817 9.19434L10.6167 8.55036ZM9.07545 7.89942L9.29889 8.87413L9.29943 8.87401L9.07545 7.89942ZM7.90569 9.06294L8.87476 9.30976L8.8748 9.3096L7.90569 9.06294ZM8.25365 10.5848L9.04089 9.96815L9.02754 9.95111L9.01348 9.93467L8.25365 10.5848ZM10.349 13.2598L9.56172 13.8764L9.56211 13.8769L10.349 13.2598ZM10.8851 13.2605L11.6707 13.8791L11.6712 13.8785L10.8851 13.2605ZM13.0668 10.4852L13.853 11.1032L13.864 11.0892L13.8745 11.0748L13.0668 10.4852ZM15.4586 18.2349V17.2349H5.77413V18.2349V19.2349H15.4586V18.2349ZM5.77413 18.2349V17.2349C5.56203 17.2349 5.39062 17.0635 5.39062 16.8514H4.39062H3.39062C3.39062 18.168 4.45746 19.2349 5.77413 19.2349V18.2349ZM4.39062 16.8514H5.39062V4.39986H4.39062H3.39062V16.8514H4.39062ZM4.39062 4.39986H5.39062C5.39062 4.18776 5.56203 4.01636 5.77413 4.01636V3.01636V2.01636C4.45746 2.01636 3.39062 3.08319 3.39062 4.39986H4.39062ZM5.77413 3.01636V4.01636H15.4586V3.01636V2.01636H5.77413V3.01636ZM15.4586 3.01636V4.01636C15.6707 4.01636 15.8421 4.18776 15.8421 4.39986H16.8421H17.8421C17.8421 3.08319 16.7753 2.01636 15.4586 2.01636V3.01636ZM16.8421 4.39986H15.8421V16.8514H16.8421H17.8421V4.39986H16.8421ZM16.8421 16.8514H15.8421C15.8421 17.0635 15.6707 17.2349 15.4586 17.2349V18.2349V19.2349C16.7753 19.2349 17.8421 18.168 17.8421 16.8514H16.8421ZM7.15771 21.002V22.002H18.2257V21.002V20.002H7.15771V21.002ZM18.2257 21.002V22.002C19.5424 22.002 20.6092 20.9351 20.6092 19.6185H19.6092H18.6092C18.6092 19.8306 18.4378 20.002 18.2257 20.002V21.002ZM19.6092 19.6185H20.6092V5.78345H19.6092H18.6092V19.6185H19.6092ZM13.3359 9.09753L14.3091 8.86729C14.0845 7.91808 13.3234 7.1291 12.3522 6.91807L12.1399 7.89527L11.9276 8.87247C12.1088 8.91185 12.3065 9.08994 12.3628 9.32777L13.3359 9.09753ZM12.1399 7.89527L12.3526 6.91815C11.2073 6.66884 10.3068 7.36567 9.85163 7.90637L10.6167 8.55036L11.3817 9.19434C11.4921 9.06325 11.615 8.96509 11.7234 8.91197C11.8231 8.8631 11.8844 8.86306 11.9272 8.87238L12.1399 7.89527ZM10.6167 8.55036L11.3817 7.90641C10.9203 7.35818 10.0068 6.65931 8.85146 6.92482L9.07545 7.89942L9.29943 8.87401C9.34528 8.86347 9.4078 8.86357 9.5078 8.91181C9.61695 8.96446 9.7408 9.06267 9.8516 9.1943L10.6167 8.55036ZM9.07545 7.89942L8.852 6.9247C7.91484 7.13954 7.17153 7.89325 6.93659 8.81628L7.90569 9.06294L8.8748 9.3096C8.93178 9.08571 9.11957 8.91524 9.29889 8.87413L9.07545 7.89942ZM7.90569 9.06294L6.93663 8.81613C6.7009 9.74169 6.96478 10.6166 7.49382 11.2349L8.25365 10.5848L9.01348 9.93467C8.87843 9.77683 8.81027 9.56293 8.87476 9.30976L7.90569 9.06294ZM8.25365 10.5848L7.4664 11.2014L9.56172 13.8764L10.349 13.2598L11.1362 12.6432L9.04089 9.96815L8.25365 10.5848ZM10.349 13.2598L9.56211 13.8769C10.1005 14.5633 11.1316 14.5638 11.6707 13.8791L10.8851 13.2605L10.0994 12.6418C10.3618 12.3086 10.8742 12.309 11.1358 12.6427L10.349 13.2598ZM13.0668 10.4852L13.8745 11.0748C14.3118 10.4758 14.504 9.69012 14.309 8.867L13.3359 9.09753L12.3629 9.32806C12.4183 9.56194 12.3643 9.75157 12.2592 9.89558L13.0668 10.4852ZM10.8851 13.2605L11.6712 13.8785L13.853 11.1032L13.0668 10.4852L12.2807 9.86715L10.0989 12.6425L10.8851 13.2605Z" fill="#0D151F"/>
</svg>
