<svg width="24" height="24" viewBox="0 0 24 24" fill="none" xmlns="http://www.w3.org/2000/svg">
<path d="M7.16116 13.4347L4.54801 14.7257C4.20689 14.8943 3.99097 15.2418 3.99097 15.6223V20.0002C3.99097 20.5525 4.43868 21.0002 4.99097 21.0002H7.16116M7.16116 13.4347L7.22839 7.11665M7.16116 13.4347V21.0002M16.839 13.4347L19.4521 14.7257C19.7932 14.8943 20.0092 15.2418 20.0092 15.6223V20.0002C20.0092 20.5525 19.5614 21.0002 19.0092 21.0002H16.839M16.839 13.4347V7.11665M16.839 13.4347V21.0002M7.22839 7.11665L5.90355 8.36855M7.22839 7.11665L11.318 3.25217C11.7015 2.8898 12.3006 2.88771 12.6866 3.24739L16.839 7.11665M16.839 7.11665L18.1638 8.36855M12.0001 21.0002V16.3566M12.0001 21.0002H16.839M12.0001 21.0002H7.16116M12 11.4006V8.90264M12 8.90264V7.56951M12 8.90264H13.3535M12 8.90264H10.6466" stroke="#0D151F" stroke-width="2" stroke-linecap="round"/>
</svg>
