<svg width="24" height="24" viewBox="0 0 24 24" fill="none" xmlns="http://www.w3.org/2000/svg">
<path d="M14.9566 7.30555C14.9566 8.91016 13.4369 10.2483 11.9406 10.2483C10.4443 10.2483 8.92457 8.91016 8.92457 7.30555L8.85193 3.97842C8.84006 3.43477 8.39595 3.00024 7.85217 3.00024H5.77218C5.64878 3.00024 5.5389 3.07836 5.49836 3.19491C4.10537 7.19931 3.60376 8.64126 3.60376 12.682C3.60376 17.2533 7.35713 20.9629 11.9999 20.9958C16.6427 20.9629 20.3961 17.2533 20.3961 12.682C20.3961 8.64126 19.8945 7.19931 18.5015 3.19491C18.461 3.07836 18.3511 3.00024 18.2277 3.00024H16.029C15.4852 3.00024 15.0411 3.43477 15.0292 3.97842L14.9566 7.30555Z" stroke="#0D151F" stroke-width="2"/>
<path d="M12.0076 15.4113L12.0736 15.3453C12.3391 15.0798 13.0196 14.5798 13.2851 14.8453C13.5121 15.0724 13.5494 15.4273 13.3743 15.6966L13.349 15.7355C13.0965 16.124 12.4894 16.4331 12.0687 16.6273L12.0677 16.6277C12.0243 16.6474 11.9745 16.6473 11.9312 16.6273C11.5105 16.4331 10.9034 16.124 10.6509 15.7355L10.6256 15.6966C10.4505 15.4273 10.4878 15.0724 10.7148 14.8453C10.9803 14.5798 11.6608 15.0798 11.9263 15.3453L11.9935 15.4113C11.9975 15.4152 12.0037 15.4152 12.0076 15.4113Z" stroke="#0D151F" stroke-width="2"/>
</svg>
