<svg width="24" height="24" viewBox="0 0 24 24" fill="none" xmlns="http://www.w3.org/2000/svg">
<path d="M9.00184 6.70961L9.92221 6.31858L9.92221 6.31858L9.00184 6.70961ZM10.5443 8.88053L11.3364 8.27004L11.3364 8.27004L10.5443 8.88053ZM13.3177 5.0245C13.7989 4.75358 13.9695 4.14382 13.6986 3.66254C13.4276 3.18127 12.8179 3.01074 12.3366 3.28165L13.3177 5.0245ZM11.5389 4.89954L12.0504 5.7588L12.0504 5.7588L11.5389 4.89954ZM11.2664 9.81485L10.4759 10.4273L10.4761 10.4276L11.2664 9.81485ZM12.9419 11.968L13.7298 11.3521L13.7297 11.3521L12.9419 11.968ZM6.29948 11.9646L5.98686 11.0147L5.98685 11.0147L6.29948 11.9646ZM20.479 17.7462C20.9561 18.0244 21.5684 17.8632 21.8465 17.386C22.1247 16.9089 21.9635 16.2967 21.4864 16.0185L20.479 17.7462ZM18.3941 15.373L18.8978 14.5092L18.8978 14.5092L18.3941 15.373ZM16.3793 15.373L15.8756 14.5092L15.8756 14.5092L16.3793 15.373ZM14.7982 16.295L15.3019 17.1588L15.3019 17.1588L14.7982 16.295ZM12.7834 16.295L12.2797 17.1588L12.2797 17.1588L12.7834 16.295ZM11.2022 15.373L10.6985 16.2369L10.6985 16.2369L11.2022 15.373ZM9.18742 15.373L8.68372 14.5092L8.68372 14.5092L9.18742 15.373ZM7.60628 16.295L8.10998 17.1588L8.10998 17.1588L7.60628 16.295ZM5.59148 16.295L6.09518 15.4311L6.09518 15.4311L5.59148 16.295ZM3.50663 13.9218C3.02952 13.6436 2.41724 13.8048 2.13905 14.282C1.86087 14.7591 2.02212 15.3713 2.49923 15.6495L3.50663 13.9218ZM20.479 21.7969C20.9561 22.0751 21.5684 21.9138 21.8465 21.4367C22.1247 20.9596 21.9635 20.3473 21.4864 20.0691L20.479 21.7969ZM18.3941 19.4237L18.8978 18.5598L18.8978 18.5598L18.3941 19.4237ZM16.3793 19.4237L16.883 20.2876L16.883 20.2876L16.3793 19.4237ZM14.7982 20.3456L14.2945 19.4817L14.2945 19.4817L14.7982 20.3456ZM12.7834 20.3456L12.2797 21.2095L12.2797 21.2095L12.7834 20.3456ZM11.2022 19.4237L11.7059 18.5598L11.2022 19.4237ZM9.18742 19.4237L8.68372 18.5598L8.68372 18.5598L9.18742 19.4237ZM7.60628 20.3456L7.10258 19.4817L7.10258 19.4817L7.60628 20.3456ZM5.59148 20.3456L6.09518 19.4817L6.09518 19.4817L5.59148 20.3456ZM3.50663 17.9724C3.02952 17.6943 2.41724 17.8555 2.13905 18.3326C1.86087 18.8097 2.02212 19.422 2.49923 19.7002L3.50663 17.9724ZM18.1323 8.19593H17.1323C17.1323 8.66981 16.7482 9.05396 16.2743 9.05396V10.054V11.054C17.8527 11.054 19.1323 9.77438 19.1323 8.19593H18.1323ZM16.2743 10.054V9.05396C15.8004 9.05396 15.4163 8.66981 15.4163 8.19593H14.4163H13.4163C13.4163 9.77438 14.6958 11.054 16.2743 11.054V10.054ZM14.4163 8.19593H15.4163C15.4163 7.72205 15.8004 7.3379 16.2743 7.3379V6.3379V5.3379C14.6958 5.3379 13.4163 6.61748 13.4163 8.19593H14.4163ZM16.2743 6.3379V7.3379C16.7482 7.3379 17.1323 7.72205 17.1323 8.19593H18.1323H19.1323C19.1323 6.61748 17.8527 5.3379 16.2743 5.3379V6.3379ZM12.934 11.9841V10.9841H6.30261V11.9841V12.9841H12.934V11.9841ZM9.00184 6.70961L8.08146 7.10064C8.15938 7.28404 8.32289 7.54165 8.5516 7.87133C8.80109 8.23097 9.18184 8.75092 9.75232 9.49103L10.5443 8.88053L11.3364 8.27004C10.7775 7.54502 10.4186 7.05377 10.1949 6.73136C9.95047 6.37899 9.9074 6.2837 9.92221 6.31858L9.00184 6.70961ZM12.8271 4.15308L12.3366 3.28165C11.9696 3.48825 11.506 3.75534 11.0273 4.04028L11.5389 4.89954L12.0504 5.7588C12.5143 5.4826 12.9639 5.22362 13.3177 5.0245L12.8271 4.15308ZM11.5389 4.89954L11.0273 4.04028C10.3933 4.41773 9.71661 4.83618 9.20203 5.19035C8.94956 5.36411 8.70763 5.54173 8.52534 5.70285C8.43966 5.77858 8.32574 5.88644 8.2308 6.01546C8.18436 6.07856 8.1097 6.19014 8.05795 6.34016C8.00692 6.48806 7.94418 6.77753 8.08146 7.10064L9.00184 6.70961L9.92221 6.31858C10.0494 6.61802 9.9879 6.87849 9.94859 6.99244C9.90855 7.10851 9.85611 7.1812 9.84164 7.20086C9.81064 7.243 9.79965 7.24578 9.84988 7.20138C9.93941 7.12224 10.1012 6.99943 10.3359 6.83785C10.7958 6.52132 11.4279 6.12939 12.0504 5.7588L11.5389 4.89954ZM10.5443 8.88053L9.75232 9.49103C9.99066 9.80024 10.2344 10.1155 10.4759 10.4273L11.2664 9.81485L12.057 9.20245C11.8163 8.89182 11.5736 8.57779 11.3364 8.27004L10.5443 8.88053ZM11.2664 9.81485L10.4761 10.4276L10.7943 10.8379L11.5846 10.2252L12.3748 9.61243L12.0567 9.20211L11.2664 9.81485ZM11.5846 10.2252L10.7946 10.8383C11.2965 11.4851 11.7737 12.0973 12.1542 12.5839L12.9419 11.968L13.7297 11.3521C13.3507 10.8673 12.8751 10.257 12.3746 9.61209L11.5846 10.2252ZM11.5846 10.2252L11.2719 9.2753L5.98686 11.0147L6.29948 11.9646L6.6121 12.9145L11.8972 11.1751L11.5846 10.2252ZM6.30261 11.9841V10.9841C7.42791 10.9841 7.68085 12.5627 6.61211 12.9144L6.29948 11.9646L5.98685 11.0147C4.89652 11.3736 5.15458 12.9841 6.30261 12.9841V11.9841ZM12.934 11.9841V12.9841C13.7551 12.9841 14.2608 12.0313 13.7298 11.3521L12.9419 11.968L12.1541 12.5839C11.6334 11.9179 12.1296 10.9841 12.934 10.9841V11.9841ZM20.9827 16.8823L21.4864 16.0185L18.8978 14.5092L18.3941 15.373L17.8904 16.2369L20.479 17.7462L20.9827 16.8823ZM16.3793 15.373L15.8756 14.5092L14.2945 15.4311L14.7982 16.295L15.3019 17.1588L16.883 16.2369L16.3793 15.373ZM12.7834 16.295L13.2871 15.4311L11.7059 14.5092L11.2022 15.373L10.6985 16.2369L12.2797 17.1588L12.7834 16.295ZM9.18742 15.373L8.68372 14.5092L7.10258 15.4311L7.60628 16.295L8.10998 17.1588L9.69112 16.2369L9.18742 15.373ZM5.59148 16.295L6.09518 15.4311L3.50663 13.9218L3.00293 14.7857L2.49923 15.6495L5.08777 17.1588L5.59148 16.295ZM7.60628 16.295L7.10258 15.4311C6.7913 15.6126 6.40645 15.6126 6.09518 15.4311L5.59148 16.295L5.08777 17.1588C6.0216 17.7033 7.17615 17.7033 8.10998 17.1588L7.60628 16.295ZM11.2022 15.373L11.7059 14.5092C10.7721 13.9647 9.61755 13.9647 8.68372 14.5092L9.18742 15.373L9.69112 16.2369C10.0024 16.0554 10.3872 16.0554 10.6985 16.2369L11.2022 15.373ZM14.7982 16.295L14.2945 15.4311C13.9832 15.6126 13.5983 15.6126 13.2871 15.4311L12.7834 16.295L12.2797 17.1588C13.2135 17.7033 14.368 17.7033 15.3019 17.1588L14.7982 16.295ZM18.3941 15.373L18.8978 14.5092C17.964 13.9647 16.8094 13.9647 15.8756 14.5092L16.3793 15.373L16.883 16.2369C17.1943 16.0554 17.5791 16.0554 17.8904 16.2369L18.3941 15.373ZM20.9827 20.933L21.4864 20.0691L18.8978 18.5598L18.3941 19.4237L17.8904 20.2876L20.479 21.7969L20.9827 20.933ZM16.3793 19.4237L15.8756 18.5598L14.2945 19.4817L14.7982 20.3456L15.3019 21.2095L16.883 20.2876L16.3793 19.4237ZM12.7834 20.3456L13.2871 19.4817L11.7059 18.5598L11.2022 19.4237L10.6985 20.2876L12.2797 21.2095L12.7834 20.3456ZM9.18742 19.4237L8.68372 18.5598L7.10258 19.4817L7.60628 20.3456L8.10998 21.2095L9.69112 20.2876L9.18742 19.4237ZM5.59148 20.3456L6.09518 19.4817L3.50663 17.9724L3.00293 18.8363L2.49923 19.7002L5.08777 21.2095L5.59148 20.3456ZM7.60628 20.3456L7.10258 19.4817C6.7913 19.6632 6.40645 19.6632 6.09518 19.4817L5.59148 20.3456L5.08777 21.2095C6.02161 21.754 7.17615 21.754 8.10998 21.2095L7.60628 20.3456ZM11.2022 19.4237L11.7059 18.5598C10.7721 18.0153 9.61755 18.0153 8.68372 18.5598L9.18742 19.4237L9.69112 20.2876C10.0024 20.1061 10.3872 20.1061 10.6985 20.2876L11.2022 19.4237ZM14.7982 20.3456L14.2945 19.4817C13.9832 19.6632 13.5983 19.6632 13.2871 19.4817L12.7834 20.3456L12.2797 21.2095C13.2135 21.754 14.368 21.754 15.3019 21.2095L14.7982 20.3456ZM18.3941 19.4237L18.8978 18.5598C17.964 18.0153 16.8094 18.0153 15.8756 18.5598L16.3793 19.4237L16.883 20.2876C17.1943 20.1061 17.5791 20.1061 17.8904 20.2876L18.3941 19.4237Z" fill="#0D151F"/>
</svg>
