<svg width="24" height="24" viewBox="0 0 24 24" fill="none" xmlns="http://www.w3.org/2000/svg">
<path d="M18.1203 8.11485L15.1255 10.9915C15.1232 10.9936 15.1201 10.9946 15.117 10.9941L12.949 10.6469C12.3204 10.5462 11.6798 10.5462 11.0512 10.6469L8.88327 10.9941C8.88018 10.9946 8.87703 10.9937 8.87476 10.9915L5.87988 8.11485M20.9899 19.6076L18.4013 18.0983C17.7788 17.7353 17.0091 17.7353 16.3865 18.0983L14.8054 19.0202C14.1828 19.3832 13.4131 19.3832 12.7906 19.0202L11.2094 18.0983C10.5869 17.7353 9.81718 17.7353 9.19462 18.0983L7.61348 19.0202C6.99093 19.3832 6.22123 19.3832 5.59868 19.0202L3.01013 17.5109M20.9899 15.6076L18.4013 14.0983C17.7788 13.7353 17.0091 13.7353 16.3865 14.0983L14.8054 15.0202C14.1828 15.3832 13.4131 15.3832 12.7906 15.0202L11.2094 14.0983C10.5869 13.7353 9.81718 13.7353 9.19462 14.0983L7.61348 15.0202C6.99093 15.3832 6.22123 15.3832 5.59868 15.0202L3.01013 13.5109M13.8096 6.20837C13.8096 7.23454 12.9777 8.06641 11.9515 8.06641C10.9254 8.06641 10.0935 7.23454 10.0935 6.20837C10.0935 5.18221 10.9254 4.35034 11.9515 4.35034C12.9777 4.35034 13.8096 5.18221 13.8096 6.20837Z" stroke="#0D151F" stroke-width="2" stroke-linecap="round"/>
</svg>
