<svg width="24" height="24" viewBox="0 0 24 24" fill="none" xmlns="http://www.w3.org/2000/svg">
<path d="M12 9.04658V7.50021M12 9.04658H14.9054M12 9.04658H9.09463M16.9021 9.04658H14.9054M14.9054 9.04658L14.1601 10.4829C13.586 11.5891 12.856 12.5942 12 13.472M9.09463 9.04658H7.09795M9.09463 9.04658L9.83997 10.4829C10.414 11.5891 11.144 12.5942 12 13.472M12 13.472C10.6981 14.807 9.10471 15.8473 7.32512 16.5002M12 13.472C13.3019 14.807 14.8953 15.8473 16.6749 16.5002M4.83338 21.1668H19.1667C20.2713 21.1668 21.1667 20.2714 21.1667 19.1668V4.8335C21.1667 3.72893 20.2713 2.8335 19.1667 2.8335H4.83337C3.7288 2.8335 2.83337 3.72893 2.83337 4.8335V19.1668C2.83337 20.2714 3.72881 21.1668 4.83338 21.1668Z" stroke="#0D151F" stroke-width="2" stroke-linecap="round" stroke-linejoin="round"/>
</svg>
