<svg width="24" height="24" viewBox="0 0 24 24" fill="none" xmlns="http://www.w3.org/2000/svg">
<path d="M2.473 10.2814L2.07567 9.36374L2.07567 9.36374L2.473 10.2814ZM21.527 10.2814L21.9243 9.36374L21.9243 9.36374L21.527 10.2814ZM1.5 11.763L2.5 11.763L2.5 11.763L1.5 11.763ZM12.4129 4.66614L12.0845 3.72158L12.0845 3.72159L12.4129 4.66614ZM12.0003 5.19844L13.0003 5.19874V5.19844H12.0003ZM10.3806 1.63037C9.9961 2.02682 10.0058 2.65991 10.4022 3.04442C10.7987 3.42893 11.4318 3.41925 11.8163 3.0228L10.3806 1.63037ZM8.75708 17.0278C8.20479 17.0278 7.75708 17.4755 7.75708 18.0278C7.75708 18.5801 8.20479 19.0278 8.75708 19.0278V17.0278ZM15.2434 19.0278C15.7957 19.0278 16.2434 18.5801 16.2434 18.0278C16.2434 17.4755 15.7957 17.0278 15.2434 17.0278V19.0278ZM2.473 10.2814L2.87033 11.1991L12.3973 7.07417L12 6.15649L11.6027 5.23882L2.07567 9.36374L2.473 10.2814ZM12 6.15649L11.6027 7.07417L21.1297 11.1991L21.527 10.2814L21.9243 9.36374L12.3973 5.23882L12 6.15649ZM20.8871 13.3775V12.3775H15.3685V13.3775V14.3775H20.8871V13.3775ZM7.59833 13.3775V12.3775H3.11448V13.3775V14.3775H7.59833V13.3775ZM20.8871 13.3775V14.3775C22.3324 14.3775 23.5 13.2056 23.5 11.763H22.5H21.5C21.5 12.1037 21.2252 12.3775 20.8871 12.3775V13.3775ZM21.527 10.2814L21.1297 11.1991C21.3545 11.2964 21.5 11.518 21.5 11.763H22.5H23.5C23.5 10.7206 22.8809 9.77789 21.9243 9.36374L21.527 10.2814ZM2.473 10.2814L2.07567 9.36374C1.11914 9.77789 0.499993 10.7207 0.5 11.763L1.5 11.763L2.5 11.763C2.5 11.518 2.64551 11.2964 2.87033 11.1991L2.473 10.2814ZM3.11448 13.3775V12.3775C2.77511 12.3775 2.5 12.1023 2.5 11.763L1.5 11.763L0.5 11.763C0.500006 13.2069 1.67055 14.3775 3.11448 14.3775V13.3775ZM12.0003 1.94482V2.94482C12.1415 2.94482 12.2568 3.05947 12.2568 3.20199H13.2568H14.2568C14.2568 1.95585 13.247 0.944824 12.0003 0.944824V1.94482ZM13.2568 3.20199H12.2568C12.2568 3.23673 12.2505 3.29733 12.2291 3.37606C12.2081 3.45331 12.177 3.53117 12.1399 3.59966C12.1021 3.66947 12.0665 3.71382 12.0443 3.73611C12.021 3.75946 12.0313 3.74008 12.0845 3.72158L12.4129 4.66614L12.7412 5.61069C13.3212 5.40906 13.6915 4.93414 13.8982 4.55265C14.1153 4.15211 14.2568 3.66633 14.2568 3.20199H13.2568ZM12.4129 4.66614L12.0845 3.72159C11.5786 3.89747 11.0003 4.40524 11.0003 5.19844H12.0003H13.0003C13.0003 5.33208 12.9477 5.43799 12.895 5.50182C12.8471 5.55979 12.7935 5.59251 12.7412 5.61069L12.4129 4.66614ZM12.0003 5.19844L11.0003 5.19815L11 6.1562L12 6.15649L13 6.15679L13.0003 5.19874L12.0003 5.19844ZM11.0984 2.32658L11.8163 3.0228C11.8641 2.97345 11.928 2.94482 12.0003 2.94482V1.94482V0.944824C11.3649 0.944824 10.7895 1.20881 10.3806 1.63037L11.0984 2.32658ZM8.20001 12.1209V13.1209H15.8V12.1209V11.1209H8.20001V12.1209ZM15.8 20.9971V19.9971H8.20001V20.9971V21.9971H15.8V20.9971ZM16 20.7971H17V12.3209H16H15V20.7971H16ZM8.00001 20.7971H9.00001V12.3209H8.00001H7.00001V20.7971H8.00001ZM8.20001 20.9971V19.9971C8.64184 19.9971 9.00001 20.3553 9.00001 20.7971H8.00001H7.00001C7.00001 21.4599 7.53726 21.9971 8.20001 21.9971V20.9971ZM15.8 20.9971V21.9971C16.4628 21.9971 17 21.4599 17 20.7971H16H15C15 20.3553 15.3582 19.9971 15.8 19.9971V20.9971ZM15.8 12.1209V13.1209C15.3582 13.1209 15 12.7627 15 12.3209H16H17C17 11.6582 16.4627 11.1209 15.8 11.1209V12.1209ZM8.20001 12.1209V11.1209C7.53727 11.1209 7.00001 11.6582 7.00001 12.3209H8.00001H9.00001C9.00001 12.7627 8.64183 13.1209 8.20001 13.1209V12.1209ZM8.75708 18.0278V19.0278H15.2434V18.0278V17.0278H8.75708V18.0278Z" fill="#0D151F"/>
</svg>
