<svg width="24" height="24" viewBox="0 0 24 24" fill="none" xmlns="http://www.w3.org/2000/svg">
<path d="M20 11.8134V3.99585C20 3.44356 19.5523 2.99585 19 2.99585H5C4.44772 2.99585 4 3.44356 4 3.99585V11.8134M20 11.8134V13.4912C20 14.0435 19.5523 14.4912 19 14.4912H13.4311M20 11.8134H4M4 11.8134V13.4912C4 14.0435 4.44772 14.4912 5 14.4912H10.5689M10.5689 14.4912H13.4311M10.5689 14.4912L9.26583 18.1598C9.26352 18.1663 9.26835 18.1732 9.27525 18.1732H14.7247C14.7317 18.1732 14.7365 18.1663 14.7342 18.1598L13.4311 14.4912M17.9684 20.9699H6.32153" stroke="#0D151F" stroke-width="2" stroke-linecap="round"/>
</svg>
