<svg width="24" height="24" viewBox="0 0 24 24" fill="none" xmlns="http://www.w3.org/2000/svg">
<g clip-path="url(#clip0_2499_963)">
<path d="M1.91675 12.0318H4.91145M1.91675 12.0318L1.91675 10.4425M1.91675 12.0318L1.91675 13.5575M22.0833 10.4425V12.0318M22.0833 12.0318V13.5575M22.0833 12.0318H19.0863M12.0318 5.12161V1.91675M12.0318 1.91675L10.4426 1.91675M12.0318 1.91675L13.5575 1.91675M12.0318 22.0833H10.4426M12.0318 22.0833H13.5575M12.0318 22.0833V18.9573M4.84781 4.89256L7.02882 7.07357M4.84781 4.89256L5.97156 3.76881M4.84781 4.89256L3.76897 5.9714M20.2315 18.0287L19.1077 19.1525M19.1077 19.1525L18.0289 20.2313M19.1077 19.1525L16.7952 16.84M4.89285 19.1525L3.7691 18.0288M4.89285 19.1525L5.97169 20.2314M4.89285 19.1525L7.13484 16.9106M18.029 3.76887L19.1528 4.89262M19.1528 4.89262L20.2316 5.97146M19.1528 4.89262L17.1109 6.93449M13.3042 14.2272H13.3151M13.3042 9.7728H13.3151M9.68497 12H9.69583M18.7501 12C18.7501 15.728 15.728 18.75 12.0001 18.75C8.27216 18.75 5.25008 15.728 5.25008 12C5.25008 8.27212 8.27216 5.25004 12.0001 5.25004C15.728 5.25004 18.7501 8.27212 18.7501 12Z" stroke="#0D151F" stroke-width="2" stroke-linecap="round"/>
</g>
<defs>
<clipPath id="clip0_2499_963">
<rect width="24" height="24" fill="white"/>
</clipPath>
</defs>
</svg>
