<svg width="24" height="24" viewBox="0 0 24 24" fill="none" xmlns="http://www.w3.org/2000/svg">
<path d="M18.3474 15.8572L19.3006 15.5552L19.3006 15.5552L18.3474 15.8572ZM14.8104 4.69514L14.9666 3.70742C14.957 3.70591 14.9474 3.70453 14.9378 3.70329L14.8104 4.69514ZM16.6284 5.99518C17.1739 6.08148 17.6861 5.70922 17.7723 5.16372C17.8586 4.61822 17.4864 4.10605 16.9409 4.01975L16.6284 5.99518ZM12.5071 3.39097C11.9593 3.32058 11.4582 3.70759 11.3878 4.25537C11.3174 4.80315 11.7044 5.30427 12.2522 5.37466L12.5071 3.39097ZM5.38709 15.8632L6.3493 16.1355L6.3493 16.1355L5.38709 15.8632ZM9.31065 9.64363C9.86293 9.64363 10.3106 9.19592 10.3106 8.64363C10.3106 8.09135 9.86293 7.64363 9.31065 7.64363V9.64363ZM6.44327 7.64363C5.89098 7.64363 5.44327 8.09135 5.44327 8.64363C5.44327 9.19592 5.89098 9.64363 6.44327 9.64363V7.64363ZM14.6541 15.6434H13.6541C13.6541 18.3904 15.8809 20.6172 18.6279 20.6172V19.6172V18.6172C16.9855 18.6172 15.6541 17.2858 15.6541 15.6434H14.6541ZM18.6279 19.6172V20.6172C21.3749 20.6172 23.6017 18.3904 23.6017 15.6434H22.6017H21.6017C21.6017 17.2858 20.2703 18.6172 18.6279 18.6172V19.6172ZM22.6017 15.6434H23.6017C23.6017 12.8964 21.3749 10.6696 18.6279 10.6696V11.6696V12.6696C20.2703 12.6696 21.6017 14.001 21.6017 15.6434H22.6017ZM18.6279 11.6696V10.6696C15.8809 10.6696 13.6541 12.8964 13.6541 15.6434H14.6541H15.6541C15.6541 14.001 16.9855 12.6696 18.6279 12.6696V11.6696ZM1.39832 15.6434H0.398315C0.398315 18.3904 2.62518 20.6172 5.37216 20.6172V19.6172V18.6172C3.72975 18.6172 2.39832 17.2858 2.39832 15.6434H1.39832ZM5.37216 19.6172V20.6172C8.11914 20.6172 10.346 18.3904 10.346 15.6434H9.34601H8.34601C8.34601 17.2858 7.01457 18.6172 5.37216 18.6172V19.6172ZM9.34601 15.6434H10.346C10.346 12.8964 8.11914 10.6696 5.37216 10.6696V11.6696V12.6696C7.01457 12.6696 8.34601 14.001 8.34601 15.6434H9.34601ZM5.37216 11.6696V10.6696C2.62518 10.6696 0.398315 12.8964 0.398315 15.6434H1.39832H2.39832C2.39832 14.001 3.72975 12.6696 5.37216 12.6696V11.6696ZM5.57954 16.1176V17.1176H18.1567V16.1176V15.1176H5.57954V16.1176ZM18.3474 15.8572L19.3006 15.5552L15.7637 4.39307L14.8104 4.69514L13.8571 4.99721L17.3941 16.1593L18.3474 15.8572ZM14.8104 4.69514L14.6541 5.68286L16.6284 5.99518L16.7846 5.00746L16.9409 4.01975L14.9666 3.70742L14.8104 4.69514ZM14.8104 4.69514L14.9378 3.70329L12.5071 3.39097L12.3796 4.38281L12.2522 5.37466L14.6829 5.68698L14.8104 4.69514ZM5.38709 15.8632L6.3493 16.1355L8.3926 8.91596L7.4304 8.64363L6.46819 8.3713L4.42489 15.5908L5.38709 15.8632ZM7.4304 8.64363V9.64363H9.31065V8.64363V7.64363H7.4304V8.64363ZM7.4304 8.64363V7.64363H6.44327V8.64363V9.64363H7.4304V8.64363ZM18.1567 16.1176V17.1176C18.9683 17.1176 19.5458 16.3288 19.3006 15.5552L18.3474 15.8572L17.3941 16.1593C17.2306 15.6435 17.6156 15.1176 18.1567 15.1176V16.1176ZM5.57954 16.1176V15.1176C6.11021 15.1176 6.49382 15.6249 6.3493 16.1355L5.38709 15.8632L4.42489 15.5908C4.20811 16.3568 4.78352 17.1176 5.57954 17.1176V16.1176Z" fill="#0D151F"/>
</svg>
