<svg width="24" height="24" viewBox="0 0 24 24" fill="none" xmlns="http://www.w3.org/2000/svg">
<path d="M15.0898 4.45374C15.0898 3.52465 15.8429 2.77148 16.772 2.77148M15.0898 4.45374C15.0898 4.87783 15.2467 5.26527 15.5056 5.56115C15.814 5.91348 16.267 6.13599 16.772 6.13599C17.7011 6.13599 18.4543 5.38282 18.4543 4.45374C18.4543 3.52465 17.7011 2.77148 16.772 2.77148M15.0898 4.45374L13.1244 2.95093C13.0485 2.89284 13.0895 2.7715 13.1852 2.7715L16.772 2.77148M17.9678 14.6933C16.2952 14.6933 14.9393 16.0491 14.9393 17.7217C14.9393 19.3943 16.2952 20.7502 17.9678 20.7502C19.6404 20.7502 20.9962 19.3943 20.9962 17.7217C20.9962 16.0491 19.6404 14.6933 17.9678 14.6933ZM17.9678 14.6933V11.6773L19.9718 10.0925M17.9683 11.6734L11.9688 6.54013C11.7938 6.39041 11.5392 6.37958 11.3521 6.5139L6.20182 10.212C5.80722 10.4953 6.00696 11.1723 6.48518 11.2577C9.26753 11.7545 12.0605 13.58 12.0605 16.7732V18.4168M9.06667 17.7217C9.06667 19.3943 7.71079 20.7502 6.03822 20.7502C4.36565 20.7502 3.00977 19.3943 3.00977 17.7217C3.00977 16.0492 4.36565 14.6933 6.03822 14.6933C7.71079 14.6933 9.06667 16.0492 9.06667 17.7217Z" stroke="#0D151F" stroke-width="2" stroke-linecap="round"/>
</svg>
