<svg width="24" height="24" viewBox="0 0 24 24" fill="none" xmlns="http://www.w3.org/2000/svg">
<path d="M11.2892 11.2932C10.8986 11.6838 10.8986 12.3169 11.2892 12.7075C11.6797 13.098 12.3129 13.098 12.7034 12.7075L11.2892 11.2932ZM16.7751 3.90632L17.7625 3.74811L17.7625 3.74811L16.7751 3.90632ZM16.8312 3.7332L16.1244 3.02579L16.1244 3.02579L16.8312 3.7332ZM19.0615 1.50477L19.7683 2.21218L19.7683 2.21218L19.0615 1.50477ZM19.4004 1.61461L18.413 1.77282L18.413 1.77282L19.4004 1.61461ZM22.3761 4.46933L22.4858 3.47537L22.4858 3.47537L22.3761 4.46933ZM22.4956 4.80961L23.2024 5.51701L23.2024 5.51701L22.4956 4.80961ZM20.2787 7.02454L20.9855 7.73195L20.9855 7.73195L20.2787 7.02454ZM20.1154 7.08185L20.2252 6.08789L20.2251 6.08789L20.1154 7.08185ZM19.8122 4.18495L18.8248 4.34316L19.8122 4.18495ZM19.8125 4.18552L20.5021 3.46131L19.8125 4.18552ZM19.8139 4.18653L19.7042 5.18049L19.8139 4.18653ZM19.8133 4.18626L19.1237 4.91047L19.8133 4.18626ZM11.2945 12.0224H10.2945C10.2945 12.9737 11.0657 13.7449 12.017 13.7449V12.7449V11.7449C12.1702 11.7449 12.2945 11.8691 12.2945 12.0224H11.2945ZM12.017 12.7449V13.7449C12.9683 13.7449 13.7395 12.9737 13.7395 12.0224H12.7395H11.7395C11.7395 11.8691 11.8637 11.7449 12.017 11.7449V12.7449ZM12.7395 12.0224H13.7395C13.7395 11.0711 12.9683 10.2999 12.017 10.2999V11.2999V12.2999C11.8637 12.2999 11.7395 12.1757 11.7395 12.0224H12.7395ZM12.017 11.2999V10.2999C11.0657 10.2999 10.2945 11.0711 10.2945 12.0224H11.2945H12.2945C12.2945 12.1757 12.1703 12.2999 12.017 12.2999V11.2999ZM11.9963 12.0003L12.7034 12.7075L17.94 7.47081L17.2329 6.7637L16.5258 6.05659L11.2892 11.2932L11.9963 12.0003ZM17.2329 6.7637L18.2203 6.60549L17.7625 3.74811L16.7751 3.90632L15.7877 4.06453L16.2455 6.92191L17.2329 6.7637ZM16.8312 3.7332L17.538 4.4406L19.7683 2.21218L19.0615 1.50477L18.3547 0.797363L16.1244 3.02579L16.8312 3.7332ZM19.4004 1.61461L18.413 1.77282L18.8248 4.34316L19.8122 4.18495L20.7996 4.02674L20.3878 1.4564L19.4004 1.61461ZM19.8139 4.18653L19.7042 5.18049L22.2664 5.4633L22.3761 4.46933L22.4858 3.47537L19.9236 3.19256L19.8139 4.18653ZM22.4956 4.80961L21.7887 4.1022L19.5719 6.31714L20.2787 7.02454L20.9855 7.73195L23.2024 5.51701L22.4956 4.80961ZM20.1154 7.08185L20.2251 6.08789L17.3426 5.76974L17.2329 6.7637L17.1232 7.75766L20.0057 8.07582L20.1154 7.08185ZM20.2787 7.02454L19.5719 6.31714C19.7436 6.1456 19.9839 6.06126 20.2252 6.08789L20.1154 7.08185L20.0057 8.07582C20.3676 8.11576 20.728 7.98926 20.9855 7.73195L20.2787 7.02454ZM22.3761 4.46933L22.2664 5.4633C21.5993 5.38966 21.3139 4.57664 21.7887 4.1022L22.4956 4.80961L23.2024 5.51701C23.9146 4.80536 23.4866 3.58583 22.4858 3.47537L22.3761 4.46933ZM19.8125 4.18552L19.1229 4.90972L19.1237 4.91047L19.8133 4.18626L20.5029 3.46205L20.5021 3.46131L19.8125 4.18552ZM19.0615 1.50477L19.7683 2.21218C19.3065 2.67361 18.5162 2.41744 18.413 1.77282L19.4004 1.61461L20.3878 1.4564C20.2328 0.489469 19.0474 0.105218 18.3547 0.797363L19.0615 1.50477ZM16.7751 3.90632L17.7625 3.74811C17.8031 4.00159 17.7196 4.25916 17.538 4.4406L16.8312 3.7332L16.1244 3.02579C15.852 3.29796 15.7268 3.68431 15.7877 4.06453L16.7751 3.90632ZM21.0018 12.0092H20.0018C20.0018 16.4227 16.4239 20.0006 12.0103 20.0006V21.0006V22.0006C17.5285 22.0006 22.0018 17.5273 22.0018 12.0092H21.0018ZM12.0103 21.0006V20.0006C7.5968 20.0006 4.01892 16.4227 4.01892 12.0092H3.01892H2.01892C2.01892 17.5273 6.49223 22.0006 12.0103 22.0006V21.0006ZM3.01892 12.0092H4.01892C4.01892 7.59566 7.5968 4.01777 12.0103 4.01777V3.01777V2.01777C6.49223 2.01777 2.01892 6.49109 2.01892 12.0092H3.01892ZM16.7195 12.0092H15.7195C15.7195 14.0577 14.0588 15.7183 12.0103 15.7183V16.7183V17.7183C15.1634 17.7183 17.7195 15.1623 17.7195 12.0092H16.7195ZM12.0103 16.7183V15.7183C9.96185 15.7183 8.30121 14.0577 8.30121 12.0092H7.30121H6.30121C6.30121 15.1623 8.85728 17.7183 12.0103 17.7183V16.7183ZM7.30121 12.0092H8.30121C8.30121 9.9607 9.96185 8.30006 12.0103 8.30006V7.30006V6.30006C8.85728 6.30006 6.30121 8.85613 6.30121 12.0092H7.30121ZM12.0103 7.30006V8.30006C14.0588 8.30006 15.7195 9.9607 15.7195 12.0092H16.7195H17.7195C17.7195 8.85613 15.1634 6.30006 12.0103 6.30006V7.30006ZM19.6714 7.30006L18.82 7.82453C19.5693 9.04095 20.0018 10.473 20.0018 12.0092H21.0018H22.0018C22.0018 10.0921 21.4609 8.29833 20.5229 6.77559L19.6714 7.30006ZM12.0103 3.01777V4.01777C13.5465 4.01777 14.9786 4.45022 16.195 5.19952L16.7195 4.3481L17.244 3.49667C15.7212 2.55867 13.9274 2.01777 12.0103 2.01777V3.01777ZM19.8122 4.18495L18.8248 4.34316C18.8594 4.55939 18.9641 4.75848 19.1229 4.90972L19.8125 4.18552L20.5021 3.46131C20.6606 3.61225 20.765 3.81094 20.7996 4.02674L19.8122 4.18495ZM19.8139 4.18653L19.9236 3.19256C20.141 3.21656 20.3445 3.31123 20.5029 3.46205L19.8133 4.18626L19.1237 4.91047C19.2824 5.06159 19.4863 5.15645 19.7042 5.18049L19.8139 4.18653Z" fill="#0D151F"/>
</svg>
