<svg width="24" height="24" viewBox="0 0 24 24" fill="none" xmlns="http://www.w3.org/2000/svg">
<path d="M2 10.8061C4.67621 10.3343 5.91351 8.55926 6.25946 4.99805M2 10.8061V13.1941M2 10.8061V6.99805C2 5.89348 2.89543 4.99805 4 4.99805H6.25946M6.25946 4.99805H17.7405M17.7405 4.99805C18.0865 8.55926 19.3238 10.3343 22 10.8061M17.7405 4.99805H20C21.1046 4.99805 22 5.89348 22 6.99805V10.8061M22 10.8061V13.1941M22 13.1941C19.3238 13.6658 18.0865 15.4409 17.7405 19.0021M22 13.1941V17.0021C22 18.1067 21.1046 19.0021 20 19.0021H17.7405M17.7405 19.0021H6.25946M6.25946 19.0021C5.91351 15.4409 4.67621 13.6658 2 13.1941M6.25946 19.0021H4C2.89543 19.0021 2 18.1067 2 17.0021V13.1941" stroke="#0D151F" stroke-width="2"/>
<circle cx="12.1538" cy="12.3001" r="1.97122" stroke="#0D151F" stroke-width="2"/>
</svg>
