<svg width="24" height="24" viewBox="0 0 24 24" fill="none" xmlns="http://www.w3.org/2000/svg">
<path d="M14.5193 20.9805V7.69017M14.5193 20.9805H20.4694M14.5193 20.9805H11.3549M3.57966 20.9805V4.48878C3.57966 3.66035 4.25124 2.98878 5.07966 2.98878H9.04947M3.57966 20.9805H1.72607M3.57966 20.9805H6.72688M14.5193 7.69017V4.48878C14.5193 3.66035 13.8477 2.98878 13.0193 2.98878H9.04947M14.5193 7.69017H18.9694C19.7978 7.69017 20.4694 8.36174 20.4694 9.19017V20.9805M20.4694 20.9805H22.4584M11.3549 20.9805V14.7025C11.3549 14.1502 10.9071 13.7025 10.3549 13.7025H7.72688C7.1746 13.7025 6.72688 14.1502 6.72688 14.7025V20.9805M11.3549 20.9805H6.72688M9.04947 2.98878V1.54224M11.3549 9.8893H6.72697M17.465 16.0075V17.4466M17.465 11.4317V12.8709M11.3549 6.58441H6.72697" stroke="#0D151F" stroke-width="2" stroke-linecap="round"/>
</svg>
