<svg width="24" height="24" viewBox="0 0 24 24" fill="none" xmlns="http://www.w3.org/2000/svg">
<path d="M12.0164 7.38499C11.0041 6.65774 9.73678 6.00613 8.3825 6.07774C5.27379 6.24212 2.8839 8.83772 3.04451 11.8752C3.20512 14.9126 5.63402 22.4081 9.23594 22.2176C10.3881 22.1567 11.2989 21.8848 12.0164 21.4607C12.7339 21.8848 13.6447 22.1567 14.7969 22.2176C18.3988 22.4081 20.8277 14.9126 20.9883 11.8752C21.1489 8.83772 18.759 6.24212 15.6503 6.07774C14.2961 6.00613 13.0288 6.65774 12.0164 7.38499ZM12.0164 7.38499C11.9608 6.60798 11.8743 5.50192 12.6216 4.17938C12.8695 3.74057 13.2252 3.37531 13.601 3.03944V3.03944C14.0711 2.61924 14.5929 2.26062 15.1537 1.97225L15.2863 1.90405" stroke="#0D151F" stroke-width="2" stroke-linecap="round" stroke-linejoin="round"/>
</svg>
