<svg width="24" height="24" viewBox="0 0 24 24" fill="none" xmlns="http://www.w3.org/2000/svg">
<path d="M11.9199 6.87437C14.8612 6.87437 17.2457 9.25881 17.2457 12.2002M21.5 12C21.5 17.2467 17.2467 21.5 12 21.5C6.75329 21.5 2.5 17.2467 2.5 12C2.5 6.75329 6.75329 2.5 12 2.5C17.2467 2.5 21.5 6.75329 21.5 12ZM13.0556 12C13.0556 12.583 12.583 13.0556 12 13.0556C11.4171 13.0556 10.9445 12.583 10.9445 12C10.9445 11.417 11.4171 10.9444 12 10.9444C12.583 10.9444 13.0556 11.417 13.0556 12Z" stroke="#0D151F" stroke-width="2" stroke-linecap="round"/>
</svg>
