<svg width="24" height="24" viewBox="0 0 24 24" fill="none" xmlns="http://www.w3.org/2000/svg">
<path d="M10.6762 16.9961H13.4492M4.85117 16.9961H3.5C2.39543 16.9961 1.5 16.1007 1.5 14.9961V11.1879C1.5 10.0833 2.39543 9.18791 3.5 9.18791H3.98182C4.41801 9.18791 4.80387 8.90518 4.93533 8.48928L6.30838 4.14506C6.57128 3.31325 7.34302 2.7478 8.21539 2.7478H15.7846C16.657 2.7478 17.4287 3.31325 17.6916 4.14506L19.0647 8.48928C19.1961 8.90518 19.582 9.18791 20.0182 9.18791H20.5C21.6046 9.18791 22.5 10.0833 22.5 11.1879V14.9961C22.5 16.1007 21.6046 16.9961 20.5 16.9961H19.2852M13.4735 6.4065L11.0898 8.79015C10.9812 8.8988 11.0305 9.0843 11.1788 9.12458L13.1405 9.65745C13.2888 9.69773 13.3381 9.88323 13.2295 9.99188L10.9977 12.2236M10.3233 17.1922C10.3233 18.5177 9.2488 19.5922 7.92331 19.5922C6.59783 19.5922 5.52331 18.5177 5.52331 17.1922C5.52331 15.8668 6.59783 14.7922 7.92331 14.7922C9.2488 14.7922 10.3233 15.8668 10.3233 17.1922ZM18.8233 17.1922C18.8233 18.5177 17.7488 19.5922 16.4233 19.5922C15.0978 19.5922 14.0233 18.5177 14.0233 17.1922C14.0233 15.8668 15.0978 14.7922 16.4233 14.7922C17.7488 14.7922 18.8233 15.8668 18.8233 17.1922Z" stroke="#0D151F" stroke-width="2" stroke-linecap="round" stroke-linejoin="round"/>
</svg>
