<svg width="24" height="24" viewBox="0 0 24 24" fill="none" xmlns="http://www.w3.org/2000/svg">
<path d="M12 22H20C21.1046 22 22 21.1046 22 20V7.48894M12 22H4C2.89543 22 2 21.1046 2 20V7.48894M12 22V7.48894M22 7.48894V4C22 2.89543 21.1046 2 20 2H4C2.89543 2 2 2.89543 2 4V7.48894M22 7.48894H12M2 7.48894H12M6.17126 4.73361H6.18212M10.0535 4.73361H10.0643M13.9357 4.73361H13.9465M17.8179 4.73361H17.8287M8.41174 13.0415L7.56331 14.0611C7.40909 14.2464 7.40909 14.5154 7.5633 14.7007L8.41174 15.7204M15.5884 13.0415L16.4368 14.0611C16.591 14.2464 16.591 14.5154 16.4368 14.7007L15.5884 15.7204" stroke="#0D151F" stroke-width="2" stroke-linecap="round"/>
</svg>
