<svg width="24" height="24" viewBox="0 0 24 24" fill="none" xmlns="http://www.w3.org/2000/svg">
<path d="M10.709 8.83327C11.2613 8.83327 11.709 8.38556 11.709 7.83327C11.709 7.28099 11.2613 6.83327 10.709 6.83327V8.83327ZM6.43119 7.83327V6.83327C5.87891 6.83327 5.43119 7.28099 5.43119 7.83327H6.43119ZM6.43119 16.1666H5.43119C5.43119 16.7189 5.87891 17.1666 6.43119 17.1666V16.1666ZM10.709 17.1666C11.2613 17.1666 11.709 16.7189 11.709 16.1666C11.709 15.6143 11.2613 15.1666 10.709 15.1666V17.1666ZM10.5098 12.8796C11.0621 12.8796 11.5098 12.4319 11.5098 11.8796C11.5098 11.3273 11.0621 10.8796 10.5098 10.8796V12.8796ZM16.5688 16.1666C16.5688 16.7189 17.0166 17.1666 17.5688 17.1666C18.1211 17.1666 18.5688 16.7189 18.5688 16.1666H16.5688ZM17.0926 11.3893L17.812 10.6947L17.8084 10.691L17.0926 11.3893ZM15.0571 11.047L14.6683 10.1256L14.6618 10.1284L15.0571 11.047ZM14.4505 11.4698L15.1723 12.162L15.1789 12.1549L14.4505 11.4698ZM14.0545 12.1091L14.9887 12.466L14.9928 12.4548L14.0545 12.1091ZM12.9141 16.1666C12.9141 16.7189 13.3618 17.1666 13.9141 17.1666C14.4664 17.1666 14.9141 16.7189 14.9141 16.1666H12.9141ZM14.9141 10.7499C14.9141 10.1977 14.4664 9.74994 13.9141 9.74994C13.3618 9.74994 12.9141 10.1977 12.9141 10.7499H14.9141ZM4.83337 2.83325V3.83325H19.1667V2.83325V1.83325H4.83337V2.83325ZM21.1667 4.83325H20.1667V19.1666H21.1667H22.1667V4.83325H21.1667ZM19.1667 21.1666V20.1666H4.83338V21.1666V22.1666H19.1667V21.1666ZM2.83337 19.1666H3.83337V4.83325H2.83337H1.83337V19.1666H2.83337ZM4.83338 21.1666V20.1666C4.28109 20.1666 3.83337 19.7189 3.83337 19.1666H2.83337H1.83337C1.83337 20.8234 3.17652 22.1666 4.83338 22.1666V21.1666ZM21.1667 19.1666H20.1667C20.1667 19.7189 19.719 20.1666 19.1667 20.1666V21.1666V22.1666C20.8236 22.1666 22.1667 20.8234 22.1667 19.1666H21.1667ZM19.1667 2.83325V3.83325C19.719 3.83325 20.1667 4.28097 20.1667 4.83325H21.1667H22.1667C22.1667 3.1764 20.8236 1.83325 19.1667 1.83325V2.83325ZM4.83337 2.83325V1.83325C3.17652 1.83325 1.83337 3.1764 1.83337 4.83325H2.83337H3.83337C3.83337 4.28097 4.28109 3.83325 4.83337 3.83325V2.83325ZM10.709 7.83327V6.83327H6.43119V7.83327V8.83327H10.709V7.83327ZM6.43119 16.1666V17.1666H10.709V16.1666V15.1666H6.43119V16.1666ZM6.43119 11.8796V12.8796H10.5098V11.8796V10.8796H6.43119V11.8796ZM17.5688 16.1666H18.5688V12.6931H17.5688H16.5688V16.1666H17.5688ZM17.5688 12.6931H18.5688C18.5688 11.9441 18.3417 11.2434 17.812 10.6947L17.0926 11.3893L16.3731 12.0838C16.4784 12.1929 16.5688 12.3615 16.5688 12.6931H17.5688ZM17.0926 11.3893L17.8084 10.691C17.2721 10.1412 16.5746 9.90096 15.8242 9.90096V10.901V11.901C16.1299 11.901 16.278 11.9863 16.3767 12.0875L17.0926 11.3893ZM15.8242 10.901V9.90096C15.4261 9.90096 15.0361 9.97042 14.6683 10.1256L15.0571 11.047L15.446 11.9683C15.5394 11.9288 15.6608 11.901 15.8242 11.901V10.901ZM15.0571 11.047L14.6618 10.1284C14.3051 10.2819 13.9887 10.5012 13.7221 10.7847L14.4505 11.4698L15.1789 12.1549C15.2533 12.0759 15.3413 12.0133 15.4524 11.9655L15.0571 11.047ZM14.4505 11.4698L13.7288 10.7777C13.4559 11.0622 13.252 11.3946 13.1161 11.7635L14.0545 12.1091L14.9928 12.4548C15.0374 12.3337 15.0976 12.2399 15.1723 12.162L14.4505 11.4698ZM14.0545 12.1091L13.1203 11.7523C12.9776 12.1259 12.9141 12.5208 12.9141 12.9247H13.9141H14.9141C14.9141 12.7312 14.9442 12.5824 14.9886 12.466L14.0545 12.1091ZM13.9141 12.9247H12.9141V16.1666H13.9141H14.9141V12.9247H13.9141ZM13.9141 10.7499H12.9141V12.9247H13.9141H14.9141V10.7499H13.9141ZM6.43119 7.83327H5.43119V11.8796H6.43119H7.43119V7.83327H6.43119ZM6.43119 11.8796H5.43119V16.1666H6.43119H7.43119V11.8796H6.43119Z" fill="#0D151F"/>
</svg>
