<svg width="24" height="24" viewBox="0 0 24 24" fill="none" xmlns="http://www.w3.org/2000/svg">
<path d="M17.9684 19.7793H6.32153M4.5 4.22046H19.5C20.3284 4.22046 21 4.89203 21 5.72046V14.7205C21 15.5489 20.3284 16.2205 19.5 16.2205H4.5C3.67157 16.2205 3 15.5489 3 14.7205V5.72046C3 4.89203 3.67157 4.22046 4.5 4.22046ZM9.75 12.7539C9.75 12.8272 9.82626 12.8755 9.89258 12.8443L15.0577 10.4137C15.1343 10.3777 15.1343 10.2687 15.0577 10.2327L9.89258 7.80206C9.82626 7.77085 9.75 7.81924 9.75 7.89254V12.7539Z" stroke="#0D151F" stroke-width="2" stroke-linecap="round"/>
</svg>
