<svg width="24" height="24" viewBox="0 0 24 24" fill="none" xmlns="http://www.w3.org/2000/svg">
<path d="M19.4419 14.2206H20.0002C20.5525 14.2206 21.0002 13.7729 21.0002 13.2206V10.5749C21.0002 10.0226 20.5525 9.57487 20.0002 9.57487H7.46826M19.4419 14.2206H4.56007M19.4419 14.2206L18.3846 21.004M4.56007 14.2206H4.00171C3.44942 14.2206 3.00171 13.7729 3.00171 13.2206V10.5749C3.00171 10.0226 3.44942 9.57487 4.00171 9.57487H7.46826M4.56007 14.2206L5.6173 21.004M7.46826 9.57487C7.14644 7.76546 7.6678 4.14666 12.3278 4.14666M14.3112 4.1596C14.3112 5.23258 13.4413 6.1024 12.3684 6.1024C11.2954 6.1024 10.4255 5.23258 10.4255 4.1596C10.4255 3.08662 11.2954 2.2168 12.3684 2.2168C13.4413 2.2168 14.3112 3.08662 14.3112 4.1596Z" stroke="#0D151F" stroke-width="2" stroke-linecap="round"/>
</svg>
