<svg width="24" height="24" viewBox="0 0 24 24" fill="none" xmlns="http://www.w3.org/2000/svg">
<path d="M12.0901 17.5073V21.4425M15.7791 20.973H18.1505C18.3688 20.973 18.5457 20.7371 18.5457 20.446V16.5108C18.5457 15.3467 17.8379 14.6664 16.9648 14.6664C16.0917 14.6664 15.3838 15.3467 15.3838 16.5108V20.446C15.3838 20.7371 15.5608 20.973 15.7791 20.973ZM18.5457 9.90106V11.4673C18.5457 11.4673 18.5457 11.4673 18.5457 11.4673V11.4673C18.5447 11.4691 18.5433 11.4706 18.5415 11.4716C17.5664 12.0391 16.3616 12.0388 15.3867 11.4708C15.3859 11.4703 15.3851 11.4696 15.3846 11.4687V11.4687C15.3841 11.4678 15.3838 11.4668 15.3838 11.4658V9.90106C15.3838 9.02793 16.0917 8.32011 16.9648 8.32011C17.8379 8.32011 18.5457 9.02793 18.5457 9.90106ZM4.51428 21.4714H19.4857C20.5903 21.4714 21.4857 20.576 21.4857 19.4714V4.5C21.4857 3.39543 20.5903 2.5 19.4857 2.5H4.51428C3.40971 2.5 2.51428 3.39543 2.51428 4.5V19.4714C2.51428 20.576 3.40971 21.4714 4.51428 21.4714ZM6.02987 21.5H8.4013C8.61958 21.5 8.79653 21.2641 8.79653 20.973V15.7204C8.79653 14.5562 8.08872 13.8759 7.21558 13.8759C6.34245 13.8759 5.63463 14.5562 5.63463 15.7204V20.973C5.63463 21.2641 5.81158 21.5 6.02987 21.5ZM9.19087 9.24825C9.19087 10.2669 8.36509 11.0927 7.34643 11.0927C6.32777 11.0927 5.50198 10.2669 5.50198 9.24825C5.50198 8.22959 6.32777 7.40381 7.34643 7.40381C8.36509 7.40381 9.19087 8.22959 9.19087 9.24825ZM13.0779 14.2555C12.8012 14.7347 12.1884 14.8989 11.7092 14.6223C11.23 14.3456 11.0658 13.7328 11.3425 13.2536C11.6192 12.7744 12.2319 12.6102 12.7111 12.8869C13.1903 13.1636 13.3545 13.7763 13.0779 14.2555Z" stroke="#0D151F" stroke-width="2" stroke-linecap="round"/>
</svg>
