<svg width="24" height="24" viewBox="0 0 24 24" fill="none" xmlns="http://www.w3.org/2000/svg">
<path d="M6.17273 15.4016H17.8759M16.445 18.874H20.5C20.7761 18.874 21 18.6501 21 18.374V8.50042C21 8.22428 20.7761 8.00042 20.5 8.00042H3.5C3.22386 8.00042 3 8.22428 3 8.50042V18.374C3 18.6501 3.22386 18.874 3.5 18.874H7.54712M16.3402 15.612V20.5C16.3402 20.7761 16.1163 21 15.8402 21H8.15991C7.88377 21 7.65991 20.7761 7.65991 20.5V15.612M7.65991 7.82458V3.5C7.65991 3.22386 7.88377 3 8.15991 3H15.8402C16.1163 3 16.3402 3.22386 16.3402 3.5V7.82458" stroke="#0D151F" stroke-width="2" stroke-linecap="round"/>
</svg>
