<svg width="24" height="24" viewBox="0 0 24 24" fill="none" xmlns="http://www.w3.org/2000/svg">
<path d="M18.0625 17.5527V10.9639C18.0625 8.6379 16.1769 6.75227 13.8508 6.75227C11.5248 6.75227 9.63916 8.6379 9.63916 10.9639V17.5527M18.0625 17.5527V21.4735C18.0625 21.7643 17.8268 22 17.536 22H10.1656C9.87487 22 9.63916 21.7643 9.63916 21.4735V17.5527M18.0625 17.5527H9.63916M13.8531 3.6064H12.755C9.26594 3.6064 5.9375 6.43485 5.9375 9.92391V13.9113M13.8531 3.6064H17.9724M13.8531 3.6064V6.58755M12.8231 3.87998V2.77646C12.8231 2.4857 13.0588 2.25 13.3496 2.25H14.4531C14.7439 2.25 14.9796 2.4857 14.9796 2.77646V3.87998C14.9796 4.17073 14.7439 4.40644 14.4531 4.40644H13.3496C13.0588 4.40644 12.8231 4.17073 12.8231 3.87998Z" stroke="#0D151F" stroke-width="2" stroke-linecap="round"/>
</svg>
