<svg width="24" height="24" viewBox="0 0 24 24" fill="none" xmlns="http://www.w3.org/2000/svg">
<path d="M15.587 7.5636H21.5221C22.0744 7.5636 22.5221 7.11588 22.5221 6.5636V3.83228C22.5221 3.27999 22.0744 2.83228 21.5221 2.83228H15.587M15.587 7.5636V2.83228M15.587 7.5636H8.41276M15.587 2.83228H8.41276M8.41276 2.83228H2.47766C1.92538 2.83228 1.47766 3.27999 1.47766 3.83228V6.5636C1.47766 7.11588 1.92538 7.5636 2.47766 7.5636H8.41276M8.41276 2.83228V7.5636M13.8058 17.376C13.8058 18.707 13.175 19.7861 12.1144 19.7861C11.0539 19.7861 10.1942 18.707 10.1942 17.376C10.1942 16.0449 11.0539 14.9658 12.1144 14.9658C12.6331 14.9658 12.2644 16.3731 12.61 16.7925C12.971 17.2307 13.8058 16.6958 13.8058 17.376ZM17.7174 21.1676V16.8017C17.7174 13.644 15.1576 11.0843 12 11.0843C8.84239 11.0843 6.28263 13.644 6.28263 16.8017V21.1676H17.7174ZM4 21.1654H20C20.5523 21.1654 21 20.7177 21 20.1654V7.56714H3V20.1654C3 20.7177 3.44772 21.1654 4 21.1654Z" stroke="#0D151F" stroke-width="2"/>
</svg>
