<svg width="24" height="24" viewBox="0 0 24 24" fill="none" xmlns="http://www.w3.org/2000/svg">
<path d="M18.7978 4.17475L18.0907 4.88186L18.0907 4.88186L18.7978 4.17475ZM19.825 5.20194L20.5321 4.49483L20.5321 4.49483L19.825 5.20194ZM5.20169 19.8252L4.49458 20.5323L4.49458 20.5323L5.20169 19.8252ZM4.1745 18.798L4.88161 18.0909L4.88161 18.0909L4.1745 18.798ZM19.825 10.8588L19.1179 10.1517L19.1179 10.1517L19.825 10.8588ZM10.8585 19.8252L10.1514 19.1181L10.1514 19.1181L10.8585 19.8252ZM13.1409 4.17475L13.848 4.88186L13.848 4.88186L13.1409 4.17475ZM4.1745 13.1412L3.4674 12.4341L3.4674 12.4341L4.1745 13.1412ZM13.141 19.8252L12.4339 20.5323L12.4339 20.5323L13.141 19.8252ZM18.7978 19.8252L18.0907 19.1181L18.0907 19.1181L18.7978 19.8252ZM4.17454 5.20194L3.46744 4.49483L3.46744 4.49483L4.17454 5.20194ZM4.17454 10.8588L4.88165 10.1517L4.88165 10.1517L4.17454 10.8588ZM10.8586 4.17474L11.5657 3.46764L10.8586 4.17474ZM5.20173 4.17475L5.90884 4.88186L5.90884 4.88186L5.20173 4.17475ZM19.825 13.1412L19.1179 13.8483L19.825 13.1412ZM19.825 18.798L20.5321 19.5051L20.5321 19.5051L19.825 18.798ZM9.97912 10.9841C9.42684 10.9841 8.97912 11.4318 8.97912 11.9841C8.97912 12.5364 9.42684 12.9841 9.97912 12.9841V10.9841ZM9.98012 12.9841C10.5324 12.9841 10.9801 12.5364 10.9801 11.9841C10.9801 11.4318 10.5324 10.9841 9.98012 10.9841V12.9841ZM13.9869 10.9841C13.4346 10.9841 12.9869 11.4318 12.9869 11.9841C12.9869 12.5364 13.4346 12.9841 13.9869 12.9841V10.9841ZM13.9879 12.9841C14.5402 12.9841 14.9879 12.5364 14.9879 11.9841C14.9879 11.4318 14.5402 10.9841 13.9879 10.9841V12.9841ZM10.9838 13.9884C10.9838 14.5406 11.4315 14.9884 11.9838 14.9884C12.536 14.9884 12.9838 14.5406 12.9838 13.9884H10.9838ZM12.9838 13.9874C12.9838 13.4351 12.536 12.9874 11.9838 12.9874C11.4315 12.9874 10.9838 13.4351 10.9838 13.9874H12.9838ZM10.9838 9.98071C10.9838 10.533 11.4315 10.9807 11.9838 10.9807C12.536 10.9807 12.9838 10.533 12.9838 9.98071H10.9838ZM12.9838 9.97971C12.9838 9.42743 12.536 8.97971 11.9838 8.97971C11.4315 8.97971 10.9838 9.42743 10.9838 9.97971H12.9838ZM18.7978 4.17475L18.0907 4.88186L19.1179 5.90904L19.825 5.20194L20.5321 4.49483L19.5049 3.46764L18.7978 4.17475ZM5.20169 19.8252L5.9088 19.1181L4.88161 18.0909L4.1745 18.798L3.46739 19.5051L4.49458 20.5323L5.20169 19.8252ZM19.825 10.8588L19.1179 10.1517L18.2905 10.9791L18.9976 11.6862L19.7047 12.3933L20.5321 11.5659L19.825 10.8588ZM11.6859 18.9978L10.9788 18.2907L10.1514 19.1181L10.8585 19.8252L11.5657 20.5323L12.393 19.7049L11.6859 18.9978ZM12.3135 5.00214L13.0206 5.70925L13.848 4.88186L13.1409 4.17475L12.4338 3.46764L11.6064 4.29504L12.3135 5.00214ZM4.1745 13.1412L4.88161 13.8483L5.709 13.0209L5.0019 12.3138L4.29479 11.6067L3.4674 12.4341L4.1745 13.1412ZM5.20169 19.8252L4.49458 20.5323C6.4472 22.485 9.61303 22.485 11.5657 20.5323L10.8585 19.8252L10.1514 19.1181C8.97986 20.2897 7.08037 20.2897 5.9088 19.1181L5.20169 19.8252ZM19.825 5.20194L19.1179 5.90904C20.2894 7.08062 20.2894 8.98011 19.1179 10.1517L19.825 10.8588L20.5321 11.5659C22.4847 9.61328 22.4847 6.44745 20.5321 4.49483L19.825 5.20194ZM18.7978 4.17475L19.5049 3.46764C17.5523 1.51502 14.3865 1.51502 12.4338 3.46764L13.1409 4.17475L13.848 4.88186C15.0196 3.71028 16.9191 3.71028 18.0907 4.88186L18.7978 4.17475ZM4.1745 18.798L4.88161 18.0909C3.71004 16.9194 3.71004 15.0199 4.88161 13.8483L4.1745 13.1412L3.4674 12.4341C1.51478 14.3867 1.51477 17.5525 3.4674 19.5051L4.1745 18.798ZM19.825 13.1412L20.5321 12.4341L11.5657 3.46764L10.8586 4.17474L10.1515 4.88185L19.1179 13.8483L19.825 13.1412ZM5.20173 4.17475L4.49463 3.46764L3.46744 4.49483L4.17454 5.20194L4.88165 5.90904L5.90884 4.88186L5.20173 4.17475ZM4.17454 10.8588L3.46744 11.5659L12.4339 20.5323L13.141 19.8252L13.8481 19.1181L4.88165 10.1517L4.17454 10.8588ZM18.7978 19.8252L19.5049 20.5323L20.5321 19.5051L19.825 18.798L19.1179 18.0909L18.0907 19.1181L18.7978 19.8252ZM13.141 19.8252L12.4339 20.5323C14.3865 22.485 17.5523 22.485 19.5049 20.5323L18.7978 19.8252L18.0907 19.1181C16.9192 20.2897 15.0197 20.2897 13.8481 19.1181L13.141 19.8252ZM4.17454 5.20194L3.46744 4.49483C1.51481 6.44745 1.51482 9.61328 3.46744 11.5659L4.17454 10.8588L4.88165 10.1517C3.71008 8.98011 3.71008 7.08062 4.88165 5.90904L4.17454 5.20194ZM10.8586 4.17474L11.5657 3.46764C9.61307 1.51502 6.44725 1.51502 4.49463 3.46764L5.20173 4.17475L5.90884 4.88186C7.08041 3.71028 8.9799 3.71028 10.1515 4.88185L10.8586 4.17474ZM19.825 13.1412L19.1179 13.8483C20.2895 15.0199 20.2895 16.9194 19.1179 18.0909L19.825 18.798L20.5321 19.5051C22.4848 17.5525 22.4847 14.3867 20.5321 12.4341L19.825 13.1412ZM9.97912 11.9841V12.9841H9.98012V11.9841V10.9841H9.97912V11.9841ZM13.9869 11.9841V12.9841H13.9879V11.9841V10.9841H13.9869V11.9841ZM11.9838 13.9884H12.9838V13.9874H11.9838H10.9838V13.9884H11.9838ZM11.9838 9.98071H12.9838V9.97971H11.9838H10.9838V9.98071H11.9838Z" fill="#0D151F"/>
</svg>
