<svg width="24" height="24" viewBox="0 0 24 24" fill="none" xmlns="http://www.w3.org/2000/svg">
<path d="M11.6683 8.68517C12.2206 8.68517 12.6683 8.23745 12.6683 7.68517C12.6683 7.13288 12.2206 6.68517 11.6683 6.68517V8.68517ZM7.3905 7.68517V6.68517C6.83822 6.68517 6.3905 7.13288 6.3905 7.68517H7.3905ZM11.0525 12.7315C11.6048 12.7315 12.0525 12.2838 12.0525 11.7315C12.0525 11.1792 11.6048 10.7315 11.0525 10.7315V12.7315ZM16.4792 12.5377C16.9988 12.7249 17.5718 12.4556 17.7591 11.936C17.9463 11.4164 17.677 10.8434 17.1574 10.6562L16.4792 12.5377ZM16.4974 11.5102L16.3201 12.4943L16.3256 12.4953L16.4974 11.5102ZM15.1711 11.7487L15.7723 12.5478L15.7747 12.546L15.1711 11.7487ZM14.6197 12.4589L15.5273 12.8786L15.5292 12.8744L14.6197 12.4589ZM13.4141 16.315C13.4141 16.8673 13.8618 17.315 14.4141 17.315C14.9664 17.315 15.4141 16.8673 15.4141 16.315H13.4141ZM6.3905 16.0185C6.3905 16.5708 6.83822 17.0185 7.3905 17.0185C7.94279 17.0185 8.3905 16.5708 8.3905 16.0185H6.3905ZM15.4141 10.8983C15.4141 10.3461 14.9664 9.89834 14.4141 9.89834C13.8618 9.89834 13.4141 10.3461 13.4141 10.8983H15.4141ZM5.00012 3V4H19.0001V3V2H5.00012V3ZM21.0001 5H20.0001V19H21.0001H22.0001V5H21.0001ZM19.0001 21V20H5.00012V21V22H19.0001V21ZM3.00012 19H4.00012V5H3.00012H2.00012V19H3.00012ZM5.00012 21V20C4.44784 20 4.00012 19.5523 4.00012 19H3.00012H2.00012C2.00012 20.6569 3.34327 22 5.00012 22V21ZM21.0001 19H20.0001C20.0001 19.5523 19.5524 20 19.0001 20V21V22C20.657 22 22.0001 20.6569 22.0001 19H21.0001ZM19.0001 3V4C19.5524 4 20.0001 4.44772 20.0001 5H21.0001H22.0001C22.0001 3.34315 20.657 2 19.0001 2V3ZM5.00012 3V2C3.34327 2 2.00012 3.34315 2.00012 5H3.00012H4.00012C4.00012 4.44772 4.44784 4 5.00012 4V3ZM11.6683 7.68517V6.68517H7.3905V7.68517V8.68517H11.6683V7.68517ZM7.3905 11.7315V12.7315H11.0525V11.7315V10.7315H7.3905V11.7315ZM16.8183 11.5969L17.1574 10.6562C16.9988 10.599 16.8359 10.5541 16.6693 10.525L16.4974 11.5102L16.3256 12.4953C16.3662 12.5024 16.4172 12.5153 16.4792 12.5377L16.8183 11.5969ZM16.4974 11.5102L16.6748 10.526C16.5052 10.4955 16.3326 10.4831 16.1615 10.4831V11.4831V12.4831C16.2378 12.4831 16.2892 12.4887 16.3201 12.4943L16.4974 11.5102ZM16.1615 11.4831V10.4831C15.9305 10.4831 15.662 10.5166 15.4104 10.5777C15.178 10.6341 14.8461 10.7406 14.5676 10.9514L15.1711 11.7487L15.7747 12.546C15.7427 12.5702 15.7322 12.5705 15.762 12.5584C15.788 12.5477 15.8286 12.5343 15.8821 12.5213C15.9954 12.4938 16.1052 12.4831 16.1615 12.4831V11.4831ZM15.1711 11.7487L14.57 10.9496C14.1882 11.2368 13.9063 11.6137 13.7101 12.0434L14.6197 12.4589L15.5292 12.8744C15.607 12.7041 15.6928 12.6076 15.7723 12.5478L15.1711 11.7487ZM14.6197 12.4589L13.712 12.0392C13.5056 12.4856 13.4141 12.9683 13.4141 13.4673H14.4141H15.4141C15.4141 13.2145 15.4597 13.0249 15.5273 12.8786L14.6197 12.4589ZM14.4141 13.4673H13.4141V16.315H14.4141H15.4141V13.4673H14.4141ZM7.3905 7.68517H6.3905V11.7315H7.3905H8.3905V7.68517H7.3905ZM7.3905 11.7315H6.3905V16.0185H7.3905H8.3905V11.7315H7.3905ZM14.4141 10.8983H13.4141V13.4673H14.4141H15.4141V10.8983H14.4141Z" fill="#0D151F"/>
</svg>
