<svg width="24" height="24" viewBox="0 0 24 24" fill="none" xmlns="http://www.w3.org/2000/svg">
<path d="M17.25 21H19C20.1046 21 21 20.1046 21 19V8.40769C21 7.62561 20.5441 6.91529 19.8332 6.58949L12.8332 3.3818C12.3042 3.13938 11.6958 3.13938 11.1668 3.3818L4.16683 6.58949C3.45585 6.91529 3 7.62561 3 8.40769V19C3 20.1046 3.89543 21 5 21H6.75M17.25 21H12H6.75M17.25 21H6.75M17.25 21V17.3875M6.75 21V17.3875M17.25 13.6626V10.8002C17.25 10.2479 16.8023 9.80017 16.25 9.80017H7.75C7.19772 9.80017 6.75 10.2479 6.75 10.8002V13.6626M17.25 13.6626V15.7751V17.3875M17.25 13.6626H6.75M6.75 13.6626V15.7751V17.3875M17.25 17.3875H6.75" stroke="#0D151F" stroke-width="2"/>
</svg>
