<svg width="24" height="24" viewBox="0 0 24 24" fill="none" xmlns="http://www.w3.org/2000/svg">
<path d="M12.0006 20.8108V11.9309M8.4447 5.38026L5.77271 3.47553C5.44172 3.23959 4.98248 3.47621 4.98248 3.88267V5.68158C4.98248 8.99529 7.66876 11.6816 10.9825 11.6816H13.019C16.3327 11.6816 19.019 8.99529 19.019 5.68158V3.88267C19.019 3.47621 18.5598 3.23959 18.2288 3.47553L15.5568 5.38026C15.372 5.51195 15.1218 5.50275 14.9472 5.35785L12.3201 3.17728C12.1349 3.02359 11.8666 3.02359 11.6814 3.17728L9.05427 5.35785C8.8797 5.50275 8.62944 5.51195 8.4447 5.38026ZM12.7095 21.0621L14.1722 21.0088C17.3109 20.8945 19.8303 18.3791 19.9495 15.2406L19.9663 14.7978C19.9778 14.4958 19.7208 14.2527 19.4199 14.281L17.9537 14.419C15.5561 14.6446 13.5257 16.2817 12.797 18.577L12.2147 20.4111C12.11 20.7408 12.3638 21.0747 12.7095 21.0621ZM11.2904 21.0621L9.82775 21.0088C6.68905 20.8945 4.16961 18.3791 4.05039 15.2406L4.03357 14.7978C4.0221 14.4958 4.27914 14.2527 4.58005 14.281L6.04624 14.419C8.44379 14.6446 10.4742 16.2817 11.2029 18.577L11.7852 20.4111C11.8899 20.7408 11.6362 21.0747 11.2904 21.0621Z" stroke="#0D151F" stroke-width="2" stroke-linecap="round"/>
</svg>
