<svg width="24" height="24" viewBox="0 0 24 24" fill="none" xmlns="http://www.w3.org/2000/svg">
<path d="M13.838 13.3703C13.838 12.8295 13.9323 12.3652 14.1209 11.9774C14.3094 11.5861 14.5709 11.2837 14.9053 11.0702C15.2398 10.8567 15.6258 10.75 16.0634 10.75C16.501 10.75 16.8835 10.8567 17.2108 11.0702C17.5416 11.2801 17.7978 11.5807 17.9792 11.9721C18.1023 12.2375 18.1836 12.5372 18.2232 12.8713C18.2557 13.1455 18.0275 13.3703 17.7514 13.3703H13.838ZM13.838 13.3703V13.445L13.8382 13.4823C13.8423 14.0217 13.9365 14.4913 14.1209 14.8912C14.3094 15.3004 14.5745 15.6152 14.916 15.8358C15.2576 16.0564 15.6578 16.1667 16.1168 16.1667C16.437 16.1667 16.7305 16.1204 16.9973 16.0279C17.2641 15.9354 17.4918 15.8073 17.6804 15.6437M5 21H19C20.1046 21 21 20.1046 21 19V5C21 3.89543 20.1046 3 19 3H5C3.89543 3 3 3.89543 3 5V19C3 20.1046 3.89543 21 5 21ZM7.93963 16.1667H6.24857C5.97243 16.1667 5.74857 15.9428 5.74857 15.6667V8.33333C5.74857 8.05719 5.97243 7.83333 6.24857 7.83333H7.93963C8.725 7.83333 9.38706 8.00424 9.92581 8.34605C10.4684 8.68375 10.88 9.16353 11.1608 9.78539C11.4415 10.4073 11.5819 11.1424 11.5819 11.9907V12.0031C11.5819 12.8514 11.4415 13.5866 11.1608 14.2084C10.88 14.8303 10.4684 15.3121 9.92581 15.6539C9.38706 15.9958 8.725 16.1667 7.93963 16.1667Z" stroke="#0D151F" stroke-width="2" stroke-linecap="round"/>
</svg>
