<svg width="24" height="24" viewBox="0 0 24 24" fill="none" xmlns="http://www.w3.org/2000/svg">
<path d="M19.2392 15.2923V19.0359C19.2392 20.1405 18.3437 21.0359 17.2392 21.0359H6.76103C5.65646 21.0359 4.76103 20.1405 4.76103 19.0359V15.2923M4.71986 12.2193C6.50474 12.8843 8.28447 11.6834 9.22232 10.288C9.25465 10.2399 9.33378 10.245 9.35686 10.2973C9.81798 11.3435 10.5241 12.8763 12.0003 12.8763C13.4765 12.8763 14.1822 11.3434 14.6432 10.2973C14.6663 10.245 14.7454 10.2399 14.7778 10.288C15.7156 11.6834 17.4953 12.8843 19.2802 12.2193C21.1157 11.5355 21.4072 9.53743 20.4926 8.09247L18.2087 4.48442C17.6956 3.6738 16.8328 3.16213 15.8945 3.0164C15.875 3.01337 15.8552 3.01196 15.8354 3.01196H8.16468C8.1449 3.01196 8.12513 3.01337 8.10562 3.0164C7.16727 3.16213 6.30448 3.6738 5.79136 4.48442L3.5075 8.09247C2.59286 9.53743 2.88436 11.5355 4.71986 12.2193Z" stroke="#0D151F" stroke-width="2" stroke-linecap="round"/>
</svg>
