<svg width="24" height="24" viewBox="0 0 24 24" fill="none" xmlns="http://www.w3.org/2000/svg">
<path d="M17.1998 15.6994L19.7664 11.2539C19.9896 10.8673 20.0439 10.406 19.9167 9.97813L18.1974 4.19811C17.9513 3.37097 17.1017 2.88041 16.2623 3.08091L10.397 4.48195C9.96285 4.58565 9.59047 4.86339 9.36728 5.24996L6.80068 9.69543M17.1998 15.6994L14.6332 20.1449C14.1845 20.9221 13.1907 21.1884 12.4135 20.7396L4.82887 16.3606C4.05166 15.9119 3.78537 14.9181 4.23409 14.1409L6.80068 9.69543M17.1998 15.6994L6.80068 9.69543M15.8106 8.12931C15.5345 8.60752 14.923 8.77137 14.4448 8.49528C13.9666 8.21918 13.8027 7.60769 14.0788 7.12948C14.3549 6.65127 14.9664 6.48742 15.4446 6.76351C15.9228 7.03961 16.0867 7.6511 15.8106 8.12931Z" stroke="#0D151F" stroke-width="2"/>
</svg>
