<svg width="24" height="24" viewBox="0 0 24 24" fill="none" xmlns="http://www.w3.org/2000/svg">
<path d="M8.15079 6.62781L7.63825 6.72061C5.2251 7.15752 3.31942 9.01672 2.82307 11.4183C2.62301 12.3863 3.03578 13.3781 3.86353 13.9183L4.62753 14.4169C4.70021 14.4643 4.73074 14.5555 4.70128 14.6371L4.14022 16.1915C3.92665 16.7833 3.95829 17.4358 4.22813 18.004L4.82963 19.0208C4.92189 19.2151 4.78019 19.4392 4.56509 19.4392H2.56399C1.85919 19.4392 1.28784 20.0106 1.28784 20.7154V20.7154C1.28784 21.4202 1.85919 21.9915 2.56399 21.9915H7.63825M8.15079 6.62781C9.00313 6.56531 9.74874 7.02704 9.84275 7.08779C9.84844 7.09147 9.85588 7.08998 9.85985 7.08449L10.5024 6.19694C11.065 5.41984 11.7453 4.74246 12.5144 4.18664M8.15079 6.62781L8.67694 5.24007C8.94738 4.52679 9.28673 3.84335 9.68931 3.19914C10.3843 2.08705 11.6893 1.11957 12.7096 1.94346V1.94346C13.7372 2.77327 12.7096 4.04951 12.7096 4.04951L12.5144 4.18664M12.5144 4.18664C13.1777 3.70731 13.9071 3.31839 14.684 3.0339L14.9369 2.94128C15.7979 2.62602 16.6019 3.52445 16.1934 4.34526C15.4196 5.9 14.1673 7.16538 12.6207 7.95526L11.4884 8.53351C11.4826 8.53649 11.4801 8.54334 11.483 8.54923C11.709 9.00497 12.1022 10.057 11.4333 11.1021C11.4306 11.1064 11.4335 11.1122 11.4387 11.1123L15.8386 11.2079C17.1328 11.236 18.4253 11.5185 19.6158 12.027C23.8172 13.8217 23.7321 19.8846 19.4268 21.4132C18.3488 21.7959 17.2132 21.9915 16.0693 21.9915H11.3993C11.1504 21.9915 10.8971 21.9066 10.7632 21.6967C10.169 20.7651 10.7982 19.3574 11.9869 19.3574H14.423L14.3777 19.2724C13.5831 17.7807 14.6641 15.9802 16.3542 15.9802H17.781M6.61428 10.4215H6.6179" stroke="#0D151F" stroke-width="2" stroke-linecap="round" stroke-linejoin="round"/>
</svg>
