<svg width="24" height="24" viewBox="0 0 24 24" fill="none" xmlns="http://www.w3.org/2000/svg">
<path d="M21.1154 9.05847H18.1384C18.1067 9.05847 18.0762 9.05133 18.0481 9.03692L16.1347 8.0587M6.49034 6.47417C8.54976 5.03832 10.6333 5.46406 11.4737 5.68082C11.4878 5.68446 11.5007 5.68948 11.5137 5.69611L13.0355 6.47417M13.0355 6.47417L9.79334 11.2162C9.74324 11.2895 9.74743 11.387 9.80364 11.4557L12.0729 14.2297M13.0355 6.47417L16.1347 8.0587M14.3707 19.6716H13.2355C13.1251 19.6716 13.0355 19.5821 13.0355 19.4716V15.4779C13.0355 15.4317 13.0196 15.387 12.9903 15.3513L12.0729 14.2297M12.0729 14.2297L16.1347 8.0587M10.2048 15.9521L6.06857 17.3308C5.96828 17.3642 5.91133 17.4699 5.93856 17.5721L6.28684 18.8781M12.0729 22.5924H15.8544C15.9074 22.5924 15.9583 22.5714 15.9958 22.5339L17.0779 21.4518M5.19577 21.7546L4.07379 21.1468C4.02987 21.123 3.99644 21.0837 3.98008 21.0365L2.71606 17.3903M18.7158 3.26689C18.7158 4.27804 17.8961 5.09774 16.8849 5.09774C15.8738 5.09774 15.0541 4.27804 15.0541 3.26689C15.0541 2.25574 15.8738 1.43604 16.8849 1.43604C17.8961 1.43604 18.7158 2.25574 18.7158 3.26689Z" stroke="#0D151F" stroke-width="2" stroke-linecap="round" stroke-linejoin="round"/>
</svg>
