<svg width="24" height="24" viewBox="0 0 24 24" fill="none" xmlns="http://www.w3.org/2000/svg">
<path d="M5.50409 19.2989L5.69153 18.3166L5.69153 18.3166L5.50409 19.2989ZM14.318 20.9808L14.1306 21.9631L14.1306 21.9631L14.318 20.9808ZM14.318 3.01926L14.5055 4.00153L14.318 3.01926ZM5.50409 4.70117L5.31665 3.7189L5.50409 4.70117ZM11.9793 11C11.427 11 10.9793 11.4477 10.9793 12C10.9793 12.5523 11.427 13 11.9793 13V11ZM11.9803 13C12.5326 13 12.9803 12.5523 12.9803 12C12.9803 11.4477 12.5326 11 11.9803 11V13ZM5.50409 4.70117L5.69153 5.68345L14.5055 4.00153L14.318 3.01926L14.1306 2.03698L5.31665 3.7189L5.50409 4.70117ZM15.5055 4.00153H14.5055V19.9985H15.5055H16.5055V4.00153H15.5055ZM14.318 20.9808L14.5055 19.9985L5.69153 18.3166L5.50409 19.2989L5.31664 20.2812L14.1306 21.9631L14.318 20.9808ZM4.69153 18.3166H5.69153V5.68345H4.69153H3.69153V18.3166H4.69153ZM5.50409 19.2989L5.69153 18.3166L5.69153 18.3166H4.69153H3.69153C3.69153 19.2766 4.37365 20.1012 5.31664 20.2812L5.50409 19.2989ZM15.5055 19.9985H14.5055L14.5055 19.9985L14.318 20.9808L14.1306 21.9631C15.3632 22.1983 16.5055 21.2534 16.5055 19.9985H15.5055ZM14.318 3.01926L14.5055 4.00153L14.5055 4.00153H15.5055H16.5055C16.5055 2.74665 15.3632 1.80176 14.1306 2.03698L14.318 3.01926ZM5.50409 4.70117L5.31665 3.7189C4.37365 3.89884 3.69153 4.72344 3.69153 5.68345H4.69153H5.69153L5.69153 5.68345L5.50409 4.70117ZM15.3801 4.85712V5.85712H18.3086V4.85712V3.85712H15.3801V4.85712ZM19.3086 5.85712H18.3086V18.1424H19.3086H20.3086V5.85712H19.3086ZM18.3086 19.1424V18.1424H15.3801V19.1424V20.1424H18.3086V19.1424ZM19.3086 18.1424H18.3086V18.1424V19.1424V20.1424C19.4132 20.1424 20.3086 19.247 20.3086 18.1424H19.3086ZM18.3086 4.85712V5.85712H18.3086H19.3086H20.3086C20.3086 4.75255 19.4132 3.85712 18.3086 3.85712V4.85712ZM11.9793 12V13H11.9803V12V11H11.9793V12Z" fill="#0D151F"/>
</svg>
