<svg width="24" height="24" viewBox="0 0 24 24" fill="none" xmlns="http://www.w3.org/2000/svg">
<path d="M15.0912 2C15.0912 1.44772 14.6435 1 14.0912 1C13.539 1 13.0912 1.44772 13.0912 2H15.0912ZM20.7536 16.6629L19.768 16.8319L19.768 16.8319L20.7536 16.6629ZM21.3681 20.2467L22.3537 20.0777L22.3537 20.0777L21.3681 20.2467ZM2.63195 20.2467L1.64633 20.0777L2.63195 20.2467ZM3.24645 16.6629L2.26083 16.4939L2.26083 16.4939L3.24645 16.6629ZM14.9515 18.6873V17.6873H8.92456V18.6873V19.6873H14.9515V18.6873ZM16.4515 6.02592H15.4515V9.8675H16.4515H17.4515V6.02592H16.4515ZM16.4515 9.8675H15.4515V17.1873H16.4515H17.4515V9.8675H16.4515ZM7.42456 17.1873H8.42456V9.8675H7.42456H6.42456V17.1873H7.42456ZM7.42456 9.8675H8.42456V6.02592H7.42456H6.42456V9.8675H7.42456ZM16.4515 9.8675V8.8675H7.42456V9.8675V10.8675H16.4515V9.8675ZM8.92456 4.52592V5.52592H14.0912V4.52592V3.52592H8.92456V4.52592ZM14.0912 4.52592V5.52592H14.9515V4.52592V3.52592H14.0912V4.52592ZM14.0912 4.52592H15.0912V2H14.0912H13.0912V4.52592H14.0912ZM8.92456 18.6873V17.6873C8.64842 17.6873 8.42456 17.4634 8.42456 17.1873H7.42456H6.42456C6.42456 18.568 7.54385 19.6873 8.92456 19.6873V18.6873ZM14.9515 18.6873V19.6873C16.3322 19.6873 17.4515 18.568 17.4515 17.1873H16.4515H15.4515C15.4515 17.4634 15.2277 17.6873 14.9515 17.6873V18.6873ZM16.4515 6.02592H17.4515C17.4515 4.64521 16.3322 3.52592 14.9515 3.52592V4.52592V5.52592C15.2277 5.52592 15.4515 5.74978 15.4515 6.02592H16.4515ZM7.42456 6.02592H8.42456C8.42456 5.74978 8.64842 5.52592 8.92456 5.52592V4.52592V3.52592C7.54385 3.52592 6.42456 4.64521 6.42456 6.02592H7.42456ZM20.7536 16.6629L19.768 16.8319L20.3825 20.4157L21.3681 20.2467L22.3537 20.0777L21.7392 16.4939L20.7536 16.6629ZM19.8896 22.0002V21.0002H4.11037V22.0002V23.0002H19.8896V22.0002ZM2.63195 20.2467L3.61757 20.4157L4.23206 16.8319L3.24645 16.6629L2.26083 16.4939L1.64633 20.0777L2.63195 20.2467ZM16.2699 15.4164V16.4164H19.2751V15.4164V14.4164H16.2699V15.4164ZM4.72487 15.4164V16.4164H7.73009V15.4164V14.4164H4.72487V15.4164ZM4.11037 22.0002V21.0002C3.80046 21.0002 3.56519 20.7211 3.61757 20.4157L2.63195 20.2467L1.64633 20.0777C1.38446 21.605 2.5608 23.0002 4.11037 23.0002V22.0002ZM21.3681 20.2467L20.3825 20.4157C20.4348 20.7211 20.1996 21.0002 19.8896 21.0002V22.0002V23.0002C21.4392 23.0002 22.6156 21.605 22.3537 20.0777L21.3681 20.2467ZM20.7536 16.6629L21.7392 16.4939C21.5334 15.2937 20.4928 14.4164 19.2751 14.4164V15.4164V16.4164C19.5187 16.4164 19.7268 16.5918 19.768 16.8319L20.7536 16.6629ZM3.24645 16.6629L4.23206 16.8319C4.27322 16.5918 4.48133 16.4164 4.72487 16.4164V15.4164V14.4164C3.50718 14.4164 2.46662 15.2937 2.26083 16.4939L3.24645 16.6629Z" fill="#0D151F"/>
</svg>
