<svg width="24" height="24" viewBox="0 0 24 24" fill="none" xmlns="http://www.w3.org/2000/svg">
<path d="M9.17218 15.4361V8.36242M12.3916 10.564H13.5142M13.5142 10.564V9.18651M13.5142 10.564H14.8279M13.5142 10.564V14.6278C13.5142 14.9808 13.5877 15.2373 13.7348 15.3974C13.8818 15.5576 14.1253 15.6376 14.4652 15.6376C14.5371 15.6376 14.6041 15.636 14.6662 15.6327C14.7282 15.6295 14.7822 15.6246 14.8279 15.618M6.94807 20.9632H17.052C19.2121 20.9632 20.9632 19.2121 20.9632 17.052V6.94807C20.9632 4.78797 19.2121 3.03687 17.052 3.03687H6.94807C4.78797 3.03687 3.03687 4.78797 3.03687 6.94807V17.052C3.03687 19.2121 4.78797 20.9632 6.94807 20.9632Z" stroke="#0D151F" stroke-width="2" stroke-linecap="round"/>
</svg>
