<svg width="24" height="24" viewBox="0 0 24 24" fill="none" xmlns="http://www.w3.org/2000/svg">
<path d="M6.812 14.1956V14.2113C6.82947 14.4943 6.91331 14.7493 7.06352 14.9764C7.21723 15.2034 7.41985 15.3833 7.67138 15.5161C7.9264 15.6453 8.21111 15.71 8.52552 15.71C9.08446 15.71 9.52114 15.5423 9.83554 15.2069C10.15 14.8716 10.3072 14.4069 10.3072 13.8131V8.28997M13.1767 10.5553C13.2682 10.2595 13.4081 10.0034 13.588 9.7869C13.771 9.5704 13.989 9.40422 14.2421 9.28835C14.4952 9.16943 14.7711 9.10997 15.0699 9.10997C15.4846 9.10997 15.8505 9.2167 16.1676 9.43014C16.4878 9.64358 16.7378 9.94088 16.9177 10.322C17.0976 10.7032 17.1876 11.1407 17.1876 11.6347V11.6439C17.1876 12.1409 17.0976 12.58 16.9177 12.9611C16.7378 13.3423 16.4878 13.6411 16.1676 13.8576C15.8505 14.071 15.4846 14.1777 15.0699 14.1777C14.7772 14.1777 14.5043 14.1213 14.2512 14.0085C14.0012 13.8926 13.7832 13.7295 13.5972 13.5191C13.4142 13.3087 13.2755 13.0617 13.1809 12.7782M13.1767 10.5553V9.18316M13.1767 10.5553L13.1809 12.7782M13.1809 12.7782V15.71M4.99988 21H18.9999C20.1044 21 20.9999 20.1046 20.9999 19V5C20.9999 3.89543 20.1044 3 18.9999 3H4.99988C3.89531 3 2.99988 3.89543 2.99988 5V19C2.99988 20.1046 3.89531 21 4.99988 21Z" stroke="#0D151F" stroke-width="2" stroke-linecap="round"/>
</svg>
