<svg width="24" height="24" viewBox="0 0 24 24" fill="none" xmlns="http://www.w3.org/2000/svg">
<path d="M18.6073 18.707L18.9351 19.6518L18.9351 19.6518L18.6073 18.707ZM14.2025 20.2357L14.5303 21.1804L14.5303 21.1804L14.2025 20.2357ZM15.3036 19.8535L15.6315 20.7983L15.6315 20.7983L15.3036 19.8535ZM17.4049 15.115C17.4049 14.5627 16.9571 14.115 16.4049 14.115C15.8526 14.115 15.4049 14.5627 15.4049 15.115H17.4049ZM4.53472 18.4092L4.20686 19.354L4.53472 18.4092ZM19.4654 18.4092L19.7932 19.354L19.4654 18.4092ZM13.9672 20.3173L13.6393 19.3726L13.9672 20.3173ZM10.0329 20.3173L10.3608 19.3726L4.86257 17.4645L4.53472 18.4092L4.20686 19.354L9.70505 21.2621L10.0329 20.3173ZM19.8014 5.70738L20.1293 4.76265L14.296 2.73826L13.9681 3.68299L13.6402 4.62772L19.4736 6.65211L19.8014 5.70738ZM10.0322 3.68355L9.70407 2.73892L3.87011 4.76539L4.19824 5.71002L4.52637 6.65466L10.3603 4.62818L10.0322 3.68355ZM20.8097 7.12447H19.8097V9.22935H20.8097H21.8097V7.12447H20.8097ZM12 12.288L12.328 13.2327L21.1376 10.174L20.8097 9.22935L20.4817 8.28467L11.6721 11.3433L12 12.288ZM3.19043 16.5198H4.19043V9.23076H3.19043H2.19043V16.5198H3.19043ZM3.19043 9.23076H4.19043V7.12697H3.19043H2.19043V9.23076H3.19043ZM12 12.288L12.3279 11.3433L3.51829 8.28603L3.19043 9.23076L2.86257 10.1755L11.6722 13.2328L12 12.288ZM19.4654 18.4092L19.1375 17.4645L18.2794 17.7623L18.6073 18.707L18.9351 19.6518L19.7932 19.354L19.4654 18.4092ZM14.2025 20.2357L13.8746 19.291L13.6393 19.3726L13.9672 20.3173L14.295 21.2621L14.5303 21.1804L14.2025 20.2357ZM20.8097 9.22935H19.8097V13.586H20.8097H21.8097V9.22935H20.8097ZM20.8097 13.586H19.8097V16.5198H20.8097H21.8097V13.586H20.8097ZM18.6073 18.707L18.2794 17.7623L17.1782 18.1445L17.5061 19.0892L17.8339 20.0339L18.9351 19.6518L18.6073 18.707ZM17.5061 19.0892L17.1782 18.1445L16.077 18.5266L16.4049 19.4714L16.7327 20.4161L17.8339 20.0339L17.5061 19.0892ZM16.4049 19.4714L16.077 18.5266L14.9758 18.9088L15.3036 19.8535L15.6315 20.7983L16.7327 20.4161L16.4049 19.4714ZM15.3036 19.8535L14.9758 18.9088L13.8746 19.291L14.2025 20.2357L14.5303 21.1804L15.6315 20.7983L15.3036 19.8535ZM12 12.288H11V20.2357H12H13V12.288H12ZM12 8.88916L12.3327 7.94611L4.30482 5.11423L3.97215 6.05727L3.63949 7.00032L11.6674 9.8322L12 8.88916ZM20.1157 6.2923L19.8109 5.33987L11.6953 7.93673L12 8.88916L12.3048 9.84159L20.4205 7.24473L20.1157 6.2923ZM12 12.288H13V8.88916H12H11V12.288H12ZM18.6073 18.707L18.2794 17.7623L16.077 18.5266L16.4049 19.4714L16.7327 20.4161L18.9351 19.6518L18.6073 18.707ZM16.4049 19.4714L16.077 18.5266L13.8746 19.291L14.2025 20.2357L14.5303 21.1804L16.7327 20.4161L16.4049 19.4714ZM16.4049 19.4714H17.4049V15.115H16.4049H15.4049V19.4714H16.4049ZM13.9681 3.68299L14.296 2.73826C12.8088 2.22216 11.1911 2.22239 9.70407 2.73892L10.0322 3.68355L10.3603 4.62818C11.4225 4.25924 12.578 4.25907 13.6402 4.62772L13.9681 3.68299ZM4.19824 5.71002L3.87011 4.76539C2.86453 5.11469 2.19043 6.06245 2.19043 7.12697H3.19043H4.19043C4.19043 6.91407 4.32525 6.72452 4.52637 6.65466L4.19824 5.71002ZM4.53472 18.4092L4.86257 17.4645C4.4602 17.3249 4.19043 16.9457 4.19043 16.5198H3.19043H2.19043C2.19043 17.7975 2.99974 18.9351 4.20686 19.354L4.53472 18.4092ZM19.4654 18.4092L19.7932 19.354C21.0003 18.9351 21.8097 17.7975 21.8097 16.5198H20.8097H19.8097C19.8097 16.9457 19.5399 17.3249 19.1375 17.4645L19.4654 18.4092ZM19.8014 5.70738L19.4736 6.65211C19.6748 6.72193 19.8097 6.91152 19.8097 7.12447H20.8097H21.8097C21.8097 6.05969 21.1352 5.11175 20.1293 4.76265L19.8014 5.70738ZM10.0329 20.3173L9.70505 21.2621C11.1916 21.7779 12.8085 21.7779 14.295 21.2621L13.9672 20.3173L13.6393 19.3726C12.5775 19.7411 11.4226 19.7411 10.3608 19.3726L10.0329 20.3173Z" fill="#0D151F"/>
</svg>
