<svg width="24" height="24" viewBox="0 0 24 24" fill="none" xmlns="http://www.w3.org/2000/svg">
<g clip-path="url(#clip0_2499_1011)">
<path d="M19.3089 12.8225C21.5518 10.5796 21.5518 6.94317 19.3089 4.70028C17.066 2.45738 13.4296 2.45738 11.1867 4.70028M19.3089 12.8225C18.1382 13.9932 16.5878 14.5529 15.0541 14.5014C14.7734 14.492 14.4932 14.4621 14.216 14.4118M19.3089 12.8225V12.8225C15.7665 11.1036 12.9056 8.24265 11.1867 4.70028V4.70028M11.1867 4.70028C10.016 5.871 9.45633 7.42139 9.50776 8.9551C9.51718 9.23585 9.54707 9.51603 9.59743 9.79323M4.90244 19.1068L5.084 19.2883C5.79687 20.0012 6.92889 20.072 7.72508 19.4536L14.216 14.4118M4.90244 19.1068L4.72089 18.9252C4.00801 18.2123 3.93717 17.0803 4.55562 16.2841L9.59743 9.79323M4.90244 19.1068L3.00307 21.0061M14.216 14.4118C13.1063 14.2101 12.0446 13.6804 11.1867 12.8225C10.3288 11.9646 9.79906 10.9029 9.59743 9.79323" stroke="#0D151F" stroke-width="2" stroke-linecap="round"/>
</g>
<defs>
<clipPath id="clip0_2499_1011">
<rect width="24" height="24" fill="white"/>
</clipPath>
</defs>
</svg>
