<svg width="24" height="24" viewBox="0 0 24 24" fill="none" xmlns="http://www.w3.org/2000/svg">
<path d="M6.08395 8.36296V12.8623M6.08395 12.8623V15.783M6.08395 12.8623L7.44191 11.4453M7.44191 11.4453L10.3202 8.44188M7.44191 11.4453L10.8465 15.783M5 21H19C20.1046 21 21 20.1046 21 19V5C21 3.89543 20.1046 3 19 3H5C3.89543 3 3 3.89543 3 5V19C3 20.1046 3.89543 21 5 21ZM15.5266 15.783C16.044 15.783 16.4932 15.6709 16.8742 15.4469C17.2552 15.2228 17.552 14.9081 17.7646 14.5026C17.9772 14.0972 18.0835 13.6224 18.0835 13.0783V13.0676C18.0835 12.5235 17.9772 12.0487 17.7646 11.6433C17.552 11.2378 17.2552 10.9231 16.8742 10.699C16.4932 10.475 16.044 10.363 15.5266 10.363C15.0093 10.363 14.5581 10.475 14.173 10.699C13.792 10.9231 13.4972 11.2378 13.2887 11.6433C13.0801 12.0451 12.9758 12.5199 12.9758 13.0676V13.0783C12.9758 13.6224 13.0801 14.0972 13.2887 14.5026C13.4972 14.9081 13.792 15.2228 14.173 15.4469C14.5581 15.6709 15.0093 15.783 15.5266 15.783Z" stroke="#0D151F" stroke-width="2" stroke-linecap="round"/>
</svg>
