<svg width="24" height="24" viewBox="0 0 24 24" fill="none" xmlns="http://www.w3.org/2000/svg">
<path d="M12 6.37689H5C3.89543 6.37689 3 7.27232 3 8.37689V20.3769C3 21.4815 3.89543 22.3769 5 22.3769H12M12 6.37689H19C20.1046 6.37689 21 7.27232 21 8.37689V20.3769C21 21.4815 20.1046 22.3769 19 22.3769H12M12 6.37689V22.3769M7.94202 5.62305C7.94202 3.41391 9.73288 1.62305 11.942 1.62305M11.942 1.62305C14.1512 1.62305 15.942 3.41391 15.942 5.62305M11.942 1.62305V3.47221M8.99996 12.9561L8.03802 14.1554C7.89141 14.3382 7.89141 14.5983 8.03802 14.7811L8.99996 15.9805M15 12.9561L15.962 14.1554C16.1086 14.3382 16.1086 14.5983 15.962 14.7811L15 15.9805" stroke="#0D151F" stroke-width="2" stroke-linecap="round"/>
</svg>
