<svg width="24" height="24" viewBox="0 0 24 24" fill="none" xmlns="http://www.w3.org/2000/svg">
<path d="M6.79935 9.48529V16.1277C6.79935 16.2658 6.91128 16.3777 7.04935 16.3777H16.8849C17.023 16.3777 17.1349 16.2658 17.1349 16.1277V6.35792C17.1349 6.21985 17.023 6.10792 16.8849 6.10792H7.04935C6.91128 6.10792 6.79935 6.21985 6.79935 6.35792V9.48529ZM6.79935 9.48529H7.99259M6.79935 9.48529H5.83814M7.99259 12.9979H5.83814M16.7972 20.8721V22M7.20298 22V20.8721M14.054 12.5266V9.9591M4.7572 20.4857H19.2429C20.3474 20.4857 21.2429 19.5902 21.2429 18.4857V4C21.2429 2.89543 20.3474 2 19.2429 2H4.7572C3.65263 2 2.7572 2.89543 2.7572 4V18.4857C2.7572 19.5902 3.65263 20.4857 4.7572 20.4857Z" stroke="#0D151F" stroke-width="2" stroke-linecap="round"/>
</svg>
