<svg width="24" height="24" viewBox="0 0 24 24" fill="none" xmlns="http://www.w3.org/2000/svg">
<path d="M12 2H5C3.34315 2 2 3.34315 2 5V19C2 20.6569 3.34315 22 5 22H12M12 2H19C20.6569 2 22 3.34315 22 5V19C22 20.6569 20.6569 22 19 22H12M12 2V22M15.8355 12.5364H17.9517M15.8355 8.29999V6.87774M15.8355 15.3702H17.9517M15.8355 18.2041H17.9517M6.04819 12.5364H8.16435M6.04819 8.29999V6.87774M6.04819 15.3702H8.16435M6.04819 18.2041H8.16435" stroke="#0D151F" stroke-width="2" stroke-linecap="round"/>
</svg>
