<svg width="24" height="24" viewBox="0 0 24 24" fill="none" xmlns="http://www.w3.org/2000/svg">
<path d="M9.49542 8.15526V5.25C9.49542 4.97386 9.27156 4.75 8.99542 4.75H7.12839C6.85225 4.75 6.62839 4.97386 6.62839 5.25V8.15526M9.49542 8.15526V10.7172C9.49542 11.4759 9.74421 12.2136 10.2037 12.8174C10.6631 13.4211 10.9119 14.1589 10.9119 14.9176V21.5C10.9119 21.7761 10.688 22 10.4119 22H5.71191C5.43576 22 5.21191 21.7761 5.21191 21.5V14.9176C5.21191 14.1589 5.4607 13.4211 5.92015 12.8174C6.3796 12.2136 6.62839 11.4759 6.62839 10.7172V8.15526M9.49542 8.15526H6.62839M18.4749 18.6809V14.2387C18.4749 13.9625 18.2511 13.7387 17.9749 13.7387H17.0653M18.4749 18.6809V21.472C18.4749 21.7481 18.2511 21.972 17.9749 21.972H14.9749C14.6988 21.972 14.4749 21.7481 14.4749 21.472V17.0298M18.4749 18.6809L14.4749 17.0298M14.4749 17.0298V14.2387C14.4749 13.9625 14.6988 13.7387 14.9749 13.7387H17.0653M17.0653 13.7387V11.9891M4 22H20C21.1046 22 22 21.1046 22 20V4C22 2.89543 21.1046 2 20 2H4C2.89543 2 2 2.89543 2 4V20C2 21.1046 2.89543 22 4 22Z" stroke="#0D151F" stroke-width="2" stroke-linecap="round"/>
</svg>
