<svg width="24" height="24" viewBox="0 0 24 24" fill="none" xmlns="http://www.w3.org/2000/svg">
<path d="M11.9992 11.272L17.5832 12.7096C19.7128 13.2578 23.2689 14.0694 22.5492 16.1473V16.1473V16.1473C22.005 17.7187 19.7775 17.6259 18.2222 17.0375L17.5829 16.7956M11.9992 11.272L6.41671 12.7094C4.28715 13.2577 0.731017 14.0694 1.45072 16.1473V16.1473V16.1473C1.99497 17.7187 4.22242 17.6259 5.77777 17.0375L6.41705 16.7956M11.9992 11.272C11.9992 10.8492 11.9992 8.0311 11.9992 7.27124V11.272ZM11.9992 11.272L14.1509 15.9174L14.6816 18.2482L18.4542 22.3463M11.9992 11.272L9.84754 15.9174L9.31686 18.2482L5.54421 22.3463M11.9992 11.272V16.886V22.5M11.9992 11.272L16.382 8.77164L17.0148 5.77124L20.0508 2.92993M11.9992 11.272L7.70725 8.77164L7.16529 5.77124L4.12934 2.92993" stroke="#0D151F" stroke-width="2" stroke-linecap="round" stroke-linejoin="round"/>
</svg>
