<svg width="24" height="24" viewBox="0 0 24 24" fill="none" xmlns="http://www.w3.org/2000/svg">
<path d="M19.8017 20V12.9112C19.8017 12.2699 19.2745 11.75 18.6241 11.75H17.6945C17.6791 11.75 17.6654 11.7404 17.6604 11.7261L16.5615 8.58017C16.2985 7.82718 15.8478 7.15142 15.2509 6.61492C14.3308 5.78786 13.1669 5.37433 12.003 5.37433M19.8017 20H14.7247M19.8017 20H22M4.20426 20V12.9112C4.20426 12.2699 4.73149 11.75 5.38186 11.75H6.31149C6.32689 11.75 6.34059 11.7404 6.3456 11.7261L7.44446 8.58017C7.70747 7.82718 8.15812 7.15142 8.75503 6.61492C9.67522 5.78786 10.8391 5.37433 12.003 5.37433M4.20426 20L2 20M4.20426 20L9.28122 20M14.7247 20V15.4586M14.7247 20H9.28122M9.28122 20V15.4586M12.003 5.37433V4" stroke="#0D151F" stroke-width="2" stroke-linecap="round" stroke-linejoin="round"/>
</svg>
