<svg width="24" height="24" viewBox="0 0 24 24" fill="none" xmlns="http://www.w3.org/2000/svg">
<path d="M8.29326 18.9131C8.29326 20.0581 7.36511 20.9862 6.22018 20.9862C5.07525 20.9862 4.14709 20.0581 4.14709 18.9131C4.14709 17.7682 5.07525 16.84 6.22018 16.84C7.36511 16.84 8.29326 17.7682 8.29326 18.9131ZM8.29326 18.9131L8.29405 7.34283C8.29405 6.4251 8.91864 5.62513 9.80897 5.40255L18.1103 3.32723C18.7414 3.16944 19.3528 3.6468 19.3528 4.29737L19.352 16.1483M19.352 16.1483C19.352 17.2932 18.4238 18.2214 17.2789 18.2214C16.134 18.2214 15.2058 17.2932 15.2058 16.1483C15.2058 15.0034 16.134 14.0752 17.2789 14.0752C18.4238 14.0752 19.352 15.0034 19.352 16.1483ZM19.3528 7.8548L8.29405 10.6195" stroke="#0D151F" stroke-width="2" stroke-miterlimit="10" stroke-linecap="round"/>
</svg>
