<svg width="24" height="24" viewBox="0 0 24 24" fill="none" xmlns="http://www.w3.org/2000/svg">
<path d="M19.8751 20.0708H5.37512C3.71827 20.0708 2.37512 18.7276 2.37512 17.0708V4.92895C2.37512 4.37667 2.82407 3.92896 3.37635 3.92896H17.1239C17.6762 3.92896 18.1251 4.37667 18.1251 4.92896V18.3208C18.1251 18.7849 18.3095 19.23 18.6377 19.5582C18.9659 19.8864 19.411 20.0708 19.8751 20.0708ZM19.8751 20.0708C20.3393 20.0708 20.7844 19.8864 21.1126 19.5582C21.4408 19.23 21.6252 18.7849 21.6252 18.3208V10.2498H18.1252M19.8751 20.0708L18.1252 20.0708M12.8751 8.49995H14.6251M12.8751 11.9999H14.6251M5.87504 16.303H14.625M5.87497 8.49995H9.37497V12H5.87497V8.49995Z" stroke="#0D151F" stroke-width="2" stroke-linecap="round" stroke-linejoin="round"/>
</svg>
