<svg width="24" height="24" viewBox="0 0 24 24" fill="none" xmlns="http://www.w3.org/2000/svg">
<path d="M16.4113 16.4336C15.5281 14.9151 13.8833 13.8943 12.0001 13.8943C10.1168 13.8943 8.47204 14.9151 7.58887 16.4336M21 21.0019L18.3637 18.3656M18.3637 18.3656C19.9925 16.7365 21 14.4859 21 12C21 7.02835 16.9706 2.99805 12 2.99805C7.02944 2.99805 3 7.02835 3 12C3 16.9716 7.02944 21.0019 12 21.0019C14.4851 21.0019 16.735 19.9944 18.3637 18.3656ZM14.0635 8.93921C14.0635 10.0788 13.1397 11.0027 12.0001 11.0027C10.8604 11.0027 9.9366 10.0788 9.9366 8.93921C9.9366 7.79959 10.8604 6.87575 12.0001 6.87575C13.1397 6.87575 14.0635 7.79959 14.0635 8.93921Z" stroke="#0D151F" stroke-width="2" stroke-linecap="round"/>
</svg>
