<svg width="24" height="24" viewBox="0 0 24 24" fill="none" xmlns="http://www.w3.org/2000/svg">
<path d="M8.27506 12.3105H8.28592M16.2751 12.3105H16.2859M12.967 18.7867H6.01931C4.36246 18.7867 3.01313 17.4398 3.06466 15.7837C3.28048 8.84769 4.21531 5.10426 4.75043 3.80037C4.85833 3.53747 5.16762 3.49045 5.37801 3.68149C5.99381 4.24067 7.18806 5.41563 7.87152 6.68207C8.02185 6.96061 8.38029 7.07206 8.65851 6.92114C9.70191 6.35514 10.873 6.05635 12.0664 6.05635C13.2599 6.05635 14.4309 6.35514 15.4743 6.92114C15.7525 7.07206 16.111 6.96061 16.2613 6.68207C16.9458 5.41372 18.1426 4.23713 18.7576 3.67897C18.967 3.48897 19.2926 3.52326 19.4352 3.76732C19.9155 4.58895 20.6564 6.48434 20.968 11.3047V12.34M20.9743 16.9329L17.2465 20.6607M17.2465 16.9329L20.9743 20.6607" stroke="#0D151F" stroke-width="2" stroke-linecap="round"/>
</svg>
