<svg width="24" height="24" viewBox="0 0 24 24" fill="none" xmlns="http://www.w3.org/2000/svg">
<path d="M22.0714 5.08022C22.4863 4.7157 22.5271 4.08385 22.1626 3.66895C21.7981 3.25405 21.1662 3.21321 20.7513 3.57774L22.0714 5.08022ZM1.66916 20.343C1.25426 20.7075 1.21343 21.3394 1.57795 21.7543C1.94247 22.1692 2.57432 22.21 2.98922 21.8455L1.66916 20.343ZM17.6916 4.9749L16.7381 5.27627L16.7381 5.27627L17.6916 4.9749ZM6.30838 4.9749L7.26188 5.27627L7.26188 5.27627L6.30838 4.9749ZM4.93533 9.31911L5.88883 9.62048L5.88883 9.62048L4.93533 9.31911ZM13.4492 18.826C14.0015 18.826 14.4492 18.3782 14.4492 17.826C14.4492 17.2737 14.0015 16.826 13.4492 16.826V18.826ZM4.85117 18.826C5.40345 18.826 5.85117 18.3782 5.85117 17.826C5.85117 17.2737 5.40345 16.826 4.85117 16.826V18.826ZM19.2852 16.826C18.7329 16.826 18.2852 17.2737 18.2852 17.826C18.2852 18.3782 18.7329 18.826 19.2852 18.826V16.826ZM7.92331 19.4221C7.37103 19.4221 6.92331 19.8698 6.92331 20.4221C6.92331 20.9744 7.37103 21.4221 7.92331 21.4221V19.4221ZM21.172 9.09352C20.6337 8.97015 20.0973 9.30654 19.9739 9.84487C19.8505 10.3832 20.1869 10.9196 20.7252 11.043L21.172 9.09352ZM21.4114 4.32898L20.7513 3.57774L1.66916 20.343L2.32919 21.0943L2.98922 21.8455L22.0714 5.08022L21.4114 4.32898ZM22.5 12.0177H21.5V15.826H22.5H23.5V12.0177H22.5ZM1.5 15.826H2.5V12.0177H1.5H0.5V15.826H1.5ZM3.5 10.0177V11.0177H3.98182V10.0177V9.01774H3.5V10.0177ZM15.7846 3.57764V2.57764H8.21539V3.57764V4.57764H15.7846V3.57764ZM6.30838 4.9749L5.35487 4.67353L3.98182 9.01774L4.93533 9.31911L5.88883 9.62048L7.26188 5.27627L6.30838 4.9749ZM4.85117 17.826V16.826H3.5V17.826V18.826H4.85117V17.826ZM20.5 17.826V16.826H19.2852V17.826V18.826H20.5V17.826ZM8.21539 3.57764V2.57764C6.90683 2.57764 5.74923 3.4258 5.35487 4.67353L6.30838 4.9749L7.26188 5.27627C7.39334 4.86036 7.7792 4.57764 8.21539 4.57764V3.57764ZM17.6916 4.9749L18.6451 4.67353C18.2508 3.4258 17.0932 2.57764 15.7846 2.57764V3.57764V4.57764C16.2208 4.57764 16.6067 4.86036 16.7381 5.27627L17.6916 4.9749ZM3.98182 10.0177V11.0177C4.8542 11.0177 5.62593 10.4523 5.88883 9.62048L4.93533 9.31911L3.98182 9.01774L3.98182 9.01774V10.0177ZM1.5 15.826H0.5C0.5 17.4828 1.84315 18.826 3.5 18.826V17.826V16.826C2.94772 16.826 2.5 16.3782 2.5 15.826H1.5ZM22.5 15.826H21.5C21.5 16.3782 21.0523 16.826 20.5 16.826V17.826V18.826C22.1569 18.826 23.5 17.4828 23.5 15.826H22.5ZM1.5 12.0177H2.5C2.5 11.4655 2.94771 11.0177 3.5 11.0177V10.0177V9.01774C1.84315 9.01774 0.5 10.3609 0.5 12.0177H1.5ZM10.3233 18.0221H9.32331C9.32331 18.7953 8.69651 19.4221 7.92331 19.4221V20.4221V21.4221C9.80108 21.4221 11.3233 19.8998 11.3233 18.0221H10.3233ZM5.52331 18.0221H6.52331C6.52331 17.2489 7.15011 16.6221 7.92331 16.6221V15.6221V14.6221C6.04554 14.6221 4.52331 16.1443 4.52331 18.0221H5.52331ZM18.8233 18.0221H17.8233C17.8233 18.7953 17.1965 19.4221 16.4233 19.4221V20.4221V21.4221C18.3011 21.4221 19.8233 19.8998 19.8233 18.0221H18.8233ZM16.4233 20.4221V19.4221C15.6501 19.4221 15.0233 18.7953 15.0233 18.0221H14.0233H13.0233C13.0233 19.8998 14.5455 21.4221 16.4233 21.4221V20.4221ZM14.0233 18.0221H15.0233C15.0233 17.2489 15.6501 16.6221 16.4233 16.6221V15.6221V14.6221C14.5455 14.6221 13.0233 16.1443 13.0233 18.0221H14.0233ZM16.4233 15.6221V16.6221C17.1965 16.6221 17.8233 17.2489 17.8233 18.0221H18.8233H19.8233C19.8233 16.1443 18.3011 14.6221 16.4233 14.6221V15.6221ZM13.4492 17.826V16.826H10.5194V17.826V18.826H13.4492V17.826ZM22.5 12.0177H23.5C23.5 10.591 22.505 9.39901 21.172 9.09352L20.9486 10.0683L20.7252 11.043C21.1694 11.1448 21.5 11.5438 21.5 12.0177H22.5ZM7.92331 15.6221V16.6221C8.15238 16.6221 8.36588 16.6763 8.55437 16.7718L9.00618 15.8797L9.45799 14.9876C8.99583 14.7535 8.47347 14.6221 7.92331 14.6221V15.6221ZM18.3781 7.147L19.3317 6.84563L18.6451 4.67353L17.6916 4.9749L16.7381 5.27627L17.4246 7.44837L18.3781 7.147ZM10.5194 17.826V16.826C9.85884 16.826 9.32331 17.3615 9.32331 18.0221H10.3233H11.3233C11.3233 18.466 10.9634 18.826 10.5194 18.826V17.826Z" fill="#0D151F"/>
</svg>
