<svg width="24" height="24" viewBox="0 0 24 24" fill="none" xmlns="http://www.w3.org/2000/svg">
<path d="M19.7441 11.6589L18.5963 5.65932C18.4159 4.71677 17.5915 4.03516 16.6319 4.03516H14.5564M4.28415 11.6589L5.43203 5.65932C5.61237 4.71677 6.43675 4.03516 7.3964 4.03516H9.47185M9.47185 4.03516V5.62594C9.47185 6.17822 9.91957 6.62594 10.4719 6.62594H13.5564C14.1087 6.62594 14.5564 6.17822 14.5564 5.62594V4.03516M9.47185 4.03516H14.5564M19.3436 14.2179L18.5502 19.2861C18.3978 20.2594 17.5594 20.9768 16.5742 20.9768H7.45405C6.4689 20.9768 5.63048 20.2594 5.47812 19.2861L4.68474 14.2179M3.55483 14.5135H20.4735C21.3176 14.5135 22.0019 13.8292 22.0019 12.985C22.0019 12.1409 21.3176 11.4565 20.4735 11.4565H3.55483C2.71068 11.4565 2.02637 12.1409 2.02637 12.985C2.02637 13.8292 2.71068 14.5135 3.55483 14.5135Z" stroke="#0D151F" stroke-width="2"/>
</svg>
