<svg width="24" height="24" viewBox="0 0 24 24" fill="none" xmlns="http://www.w3.org/2000/svg">
<path d="M6.4271 10.7421L4.50054 14.0676M6.4271 10.7421H1.63686M6.4271 10.7421L8.99291 12.792M4.50054 14.0676L6.57013 16.4309C6.84362 16.7432 6.89572 17.192 6.70105 17.5587L5.43537 19.9426M4.50054 14.0676L1.58386 19.1666M17.5706 10.7421L19.4971 14.0676M17.5706 10.7421H22.3608M17.5706 10.7421L15.0048 12.792M19.4971 14.0676L17.4275 16.4309C17.1541 16.7432 17.102 17.192 17.2966 17.5587L18.5623 19.9426M19.4971 14.0676L22.4138 19.1666M9.63098 6.76113C9.63098 7.83679 8.75899 8.70878 7.68333 8.70878C6.60767 8.70878 5.73568 7.83679 5.73568 6.76113C5.73568 5.68547 6.60767 4.81348 7.68333 4.81348C8.75899 4.81348 9.63098 5.68547 9.63098 6.76113ZM17.7353 6.76113C17.7353 7.83679 16.8633 8.70878 15.7877 8.70878C14.712 8.70878 13.84 7.83679 13.84 6.76113C13.84 5.68547 14.712 4.81348 15.7877 4.81348C16.8633 4.81348 17.7353 5.68547 17.7353 6.76113ZM12.9356 18.7492C12.9356 19.3017 12.4876 19.7496 11.9351 19.7496C11.3825 19.7496 10.9346 19.3017 10.9346 18.7492C10.9346 18.1966 11.3825 17.7487 11.9351 17.7487C12.4876 17.7487 12.9356 18.1966 12.9356 18.7492Z" stroke="#0D151F" stroke-width="2" stroke-linecap="round"/>
</svg>
