<svg width="24" height="24" viewBox="0 0 24 24" fill="none" xmlns="http://www.w3.org/2000/svg">
<path d="M8.21637 15.7113V12.4193M8.21637 12.4193V9.28894C8.21637 8.73665 8.66409 8.28894 9.21637 8.28894H10.2409C10.6777 8.28894 11.0513 8.37295 11.3616 8.54098C11.6749 8.70901 11.916 8.94905 12.0847 9.2611C12.2534 9.57315 12.3377 9.94521 12.3377 10.3773V10.3876C12.3377 10.9225 12.1991 11.37 11.922 11.7301C11.6641 12.0619 11.3136 12.2839 10.8706 12.396C10.8038 12.4129 10.7349 12.4193 10.666 12.4193H8.21637ZM15.7835 15.6172V8.38293M5 21H19C20.1046 21 21 20.1046 21 19V5C21 3.89543 20.1046 3 19 3H5C3.89543 3 3 3.89543 3 5V19C3 20.1046 3.89543 21 5 21Z" stroke="#0D151F" stroke-width="2" stroke-linecap="round"/>
</svg>
