<svg width="24" height="24" viewBox="0 0 24 24" fill="none" xmlns="http://www.w3.org/2000/svg">
<path d="M7.29065 15.7111V12.4191M7.29065 12.4191V9.28871C7.29065 8.73642 7.73837 8.28871 8.29065 8.28871H9.31518C9.75202 8.28871 10.1256 8.37272 10.4359 8.54075C10.7492 8.70878 10.9902 8.94882 11.1589 9.26087C11.3277 9.57292 11.412 9.94498 11.412 10.3771V10.3873C11.412 10.9223 11.2734 11.3698 10.9963 11.7299C10.7384 12.0617 10.3879 12.2836 9.9449 12.3958C9.87811 12.4127 9.80918 12.4191 9.74028 12.4191H7.29065ZM14.4003 10.6143H15.5483M15.5483 10.6143V9.20558M15.5483 10.6143H16.8919M15.5483 10.6143V14.7704C15.5483 15.1314 15.6235 15.3938 15.7739 15.5575C15.9243 15.7213 16.1733 15.8032 16.5209 15.8032C16.5945 15.8032 16.663 15.8015 16.7265 15.7982C16.79 15.7948 16.8451 15.7898 16.8919 15.7831M4.83325 21.1666H19.1666C20.2712 21.1666 21.1666 20.2712 21.1666 19.1666V4.83325C21.1666 3.72868 20.2712 2.83325 19.1666 2.83325H4.83325C3.72868 2.83325 2.83325 3.72869 2.83325 4.83325V19.1666C2.83325 20.2712 3.72869 21.1666 4.83325 21.1666Z" stroke="#0D151F" stroke-width="2" stroke-linecap="round"/>
</svg>
