<svg width="24" height="24" viewBox="0 0 24 24" fill="none" xmlns="http://www.w3.org/2000/svg">
<path d="M19.7888 16.5328L19.97 17.5163L19.97 17.5163L19.7888 16.5328ZM9.99529 13.4823L9.41545 14.297L9.41545 14.297L9.99529 13.4823ZM11.7903 14.7597L11.2105 15.5745L11.2105 15.5745L11.7903 14.7597ZM2.67602 13.1669C2.18884 13.427 2.00477 14.0328 2.26491 14.52C2.52504 15.0072 3.13086 15.1913 3.61804 14.9311L2.67602 13.1669ZM4.79605 13.1685L4.32504 12.2864L4.32504 12.2864L4.79605 13.1685ZM5.45507 12.8757L5.79408 13.8165L5.79409 13.8165L5.45507 12.8757ZM5.48778 12.8639L5.14877 11.9231L5.14875 11.9231L5.48778 12.8639ZM9.1297 12.9902L9.53309 12.0752L9.53309 12.0752L9.1297 12.9902ZM13.9133 15.9278L13.5354 16.8537L13.5354 16.8537L13.9133 15.9278ZM13.8943 19.9468L13.5868 20.8984L13.5868 20.8984L13.8943 19.9468ZM13.978 19.9739L14.2855 19.0223L14.2855 19.0223L13.978 19.9739ZM8.80512 17.1465L9.32743 16.2937L9.32743 16.2937L8.80512 17.1465ZM9.25723 17.4234L9.81286 16.592L9.79641 16.581L9.77953 16.5706L9.25723 17.4234ZM10.7701 18.4344L11.3257 17.603L11.3257 17.603L10.7701 18.4344ZM2.76115 17.2029C2.28685 17.4859 2.13172 18.0998 2.41467 18.5741C2.69762 19.0484 3.31149 19.2035 3.78579 18.9205L2.76115 17.2029ZM4.84641 17.1234L4.33409 16.2646L4.33409 16.2646L4.84641 17.1234ZM5.37769 16.86L5.75116 17.7876L5.37769 16.86ZM8.00188 8.73222L7.00681 8.83142C7.05778 9.34275 7.48801 9.73222 8.00188 9.73222C8.51574 9.73222 8.94597 9.34275 8.99694 8.83142L8.00188 8.73222ZM10.3405 7.86732C10.8928 7.86732 11.3405 7.4196 11.3405 6.86732C11.3405 6.31503 10.8928 5.86732 10.3405 5.86732V7.86732ZM6.85469 6.1426C6.34675 5.92575 5.7592 6.16173 5.54236 6.66966C5.32551 7.17759 5.56149 7.76514 6.06942 7.98199L6.85469 6.1426ZM19.7888 16.5328L19.97 17.5163L20.3508 17.4461L20.1696 16.4627L19.9884 15.4792L19.6075 15.5494L19.7888 16.5328ZM9.99529 13.4823L9.41545 14.297L11.2105 15.5745L11.7903 14.7597L12.3701 13.945L10.5751 12.6675L9.99529 13.4823ZM3.14703 14.049L3.61804 14.9311L5.26706 14.0506L4.79605 13.1685L4.32504 12.2864L2.67602 13.1669L3.14703 14.049ZM5.45507 12.8757L5.79409 13.8165L5.82681 13.8047L5.48778 12.8639L5.14875 11.9231L5.11604 11.9349L5.45507 12.8757ZM9.1297 12.9902L8.72631 13.9053C8.96872 14.0121 9.19962 14.1434 9.41545 14.297L9.99529 13.4823L10.5751 12.6675C10.2488 12.4353 9.89963 12.2368 9.53309 12.0752L9.1297 12.9902ZM13.9133 15.9278L13.5354 16.8537C15.5728 17.6851 17.8059 17.9151 19.97 17.5163L19.7888 16.5328L19.6075 15.5494C17.8195 15.8789 15.9745 15.6889 14.2911 15.0019L13.9133 15.9278ZM13.9133 15.9278L14.2911 15.0019C13.6122 14.7249 12.9676 14.3702 12.3701 13.945L11.7903 14.7597L11.2105 15.5745C11.9335 16.0891 12.7137 16.5183 13.5354 16.8537L13.9133 15.9278ZM4.79605 13.1685L5.26706 14.0506C5.43686 13.96 5.61299 13.8817 5.79408 13.8165L5.45507 12.8757L5.11606 11.9349C4.84426 12.0328 4.57989 12.1503 4.32504 12.2864L4.79605 13.1685ZM9.1297 12.9902L9.53309 12.0752C8.14539 11.4634 6.57553 11.409 5.14877 11.9231L5.48778 12.8639L5.82679 13.8047C6.77036 13.4647 7.80857 13.5007 8.72631 13.9053L9.1297 12.9902ZM13.8943 19.9468L13.5868 20.8984L13.6705 20.9254L13.978 19.9739L14.2855 19.0223L14.2018 18.9953L13.8943 19.9468ZM8.80512 17.1465L8.28282 17.9992L8.73492 18.2761L9.25723 17.4234L9.77953 16.5706L9.32743 16.2937L8.80512 17.1465ZM9.25723 17.4234L8.70159 18.2548L10.2144 19.2658L10.7701 18.4344L11.3257 17.603L9.81286 16.592L9.25723 17.4234ZM3.27347 18.0617L3.78579 18.9205L5.35873 17.9822L4.84641 17.1234L4.33409 16.2646L2.76115 17.2029L3.27347 18.0617ZM13.978 19.9739L13.6705 20.9254C15.8507 21.63 18.1763 21.7575 20.4205 21.2955L20.2188 20.316L20.0172 19.3365C18.1116 19.7289 16.1368 19.6206 14.2855 19.0223L13.978 19.9739ZM13.8943 19.9468L14.2018 18.9953C13.1834 18.6662 12.2155 18.1976 11.3257 17.603L10.7701 18.4344L10.2144 19.2658C11.2578 19.9631 12.3927 20.5125 13.5868 20.8984L13.8943 19.9468ZM4.84641 17.1234L5.35873 17.9822C5.48431 17.9073 5.61551 17.8422 5.75116 17.7876L5.37769 16.86L5.00422 15.9323C4.77258 16.0256 4.54854 16.1367 4.33409 16.2646L4.84641 17.1234ZM8.80512 17.1465L9.32743 16.2937C8.02476 15.4959 6.42127 15.3618 5.00422 15.9323L5.37769 16.86L5.75116 17.7876C6.58098 17.4535 7.51998 17.532 8.28282 17.9992L8.80512 17.1465ZM8.00188 8.73222L8.99694 8.83142C8.99683 8.83254 9.00805 8.75828 9.06462 8.63626C9.11756 8.52205 9.19675 8.39574 9.30384 8.28056C9.50245 8.06695 9.81527 7.86732 10.3405 7.86732V6.86732V5.86732C9.21333 5.86732 8.38343 6.3333 7.83912 6.91872C7.32852 7.4679 7.05644 8.13514 7.00681 8.63302L8.00188 8.73222ZM8.00188 8.73222L8.99694 8.63302C8.94727 8.13471 8.64141 7.62604 8.3262 7.24909C7.97927 6.83421 7.48233 6.41055 6.85469 6.1426L6.46205 7.06229L6.06942 7.98199C6.35466 8.10376 6.60732 8.31129 6.79193 8.53206C6.88272 8.64064 6.946 8.73939 6.98388 8.81278C7.02913 8.90047 7.01406 8.9042 7.00681 8.83142L8.00188 8.73222ZM17.57 9.43409H16.57C16.57 10.0416 16.0775 10.5341 15.47 10.5341V11.5341V12.5341C17.1821 12.5341 18.57 11.1462 18.57 9.43409H17.57ZM15.47 11.5341V10.5341C14.8625 10.5341 14.37 10.0416 14.37 9.43409H13.37H12.37C12.37 11.1462 13.7579 12.5341 15.47 12.5341V11.5341ZM13.37 9.43409H14.37C14.37 8.82657 14.8625 8.33409 15.47 8.33409V7.33409V6.33409C13.7579 6.33409 12.37 7.722 12.37 9.43409H13.37ZM15.47 7.33409V8.33409C16.0775 8.33409 16.57 8.82657 16.57 9.43409H17.57H18.57C18.57 7.722 17.1821 6.33409 15.47 6.33409V7.33409ZM4.5 3V4H19.5V3V2H4.5V3ZM21 4.5H20V19.5H21H22V4.5H21ZM19.5 21V20H4.5V21V22H19.5V21ZM3 19.5H4V4.5H3H2V19.5H3ZM4.5 21V20C4.22386 20 4 19.7761 4 19.5H3H2C2 20.8807 3.11929 22 4.5 22V21ZM21 19.5H20C20 19.7761 19.7761 20 19.5 20V21V22C20.8807 22 22 20.8807 22 19.5H21ZM19.5 3V4C19.7761 4 20 4.22386 20 4.5H21H22C22 3.11929 20.8807 2 19.5 2V3ZM4.5 3V2C3.11929 2 2 3.11929 2 4.5H3H4C4 4.22386 4.22386 4 4.5 4V3Z" fill="#0D151F"/>
</svg>
