<svg width="24" height="24" viewBox="0 0 24 24" fill="none" xmlns="http://www.w3.org/2000/svg">
<path d="M8.36081 5.78715H5.72623C5.64716 5.78715 5.57551 5.83374 5.54343 5.90602L4.48683 8.28678C4.45475 8.35905 4.3831 8.40565 4.30402 8.40565H3.1311C3.02065 8.40565 2.9311 8.49519 2.9311 8.60565V10.817C2.9311 10.8177 2.93136 10.8183 2.93183 10.8188V10.8188C2.93229 10.8192 2.93292 10.8195 2.93357 10.8195H4.67345C7.90573 10.8195 10.4655 13.5504 10.2567 16.7757C10.2567 16.7768 10.257 16.7778 10.2578 16.7786V16.7786C10.2578 16.7786 10.2578 16.7786 10.2578 16.7786H13.6389C13.6394 16.7786 13.6399 16.7784 13.6403 16.778V16.778C13.6407 16.7776 13.641 16.7771 13.641 16.7765L13.6575 16.3255C13.7595 13.5313 15.8794 11.2266 18.6554 10.892H21.243C21.3534 10.892 21.443 10.8025 21.443 10.692V7.51262C21.443 7.40217 21.3534 7.31262 21.243 7.31262H16.5859C16.5329 7.31262 16.482 7.33369 16.4445 7.3712L15.4686 8.34707C15.4311 8.38457 15.3802 8.40565 15.3272 8.40565H10.5865C10.5263 8.40565 10.4693 8.37855 10.4313 8.33187L8.36081 5.78715ZM8.36081 5.78715L9.93069 3.5273C9.96807 3.47349 10.0294 3.44141 10.0949 3.44141H11.6299M22.5677 16.6243C22.5677 18.2811 21.2246 19.6243 19.5677 19.6243C17.9109 19.6243 16.5677 18.2811 16.5677 16.6243C16.5677 14.9674 17.9109 13.6243 19.5677 13.6243C21.2246 13.6243 22.5677 14.9674 22.5677 16.6243ZM7.2478 16.6243C7.2478 18.2811 5.90466 19.6243 4.2478 19.6243C2.59095 19.6243 1.2478 18.2811 1.2478 16.6243C1.2478 14.9674 2.59095 13.6243 4.2478 13.6243C5.90466 13.6243 7.2478 14.9674 7.2478 16.6243Z" stroke="#0D151F" stroke-width="2" stroke-linecap="round"/>
</svg>
