<svg width="24" height="24" viewBox="0 0 24 24" fill="none" xmlns="http://www.w3.org/2000/svg">
<path d="M18.5348 3.02271C20.0626 4.55051 21.0076 6.66116 21.0076 8.99251C21.0076 11.3239 20.0626 13.4345 18.5348 14.9623M5.4779 14.9623C3.95009 13.4345 3.00513 11.3239 3.00513 8.99251C3.00513 6.66116 3.95009 4.55051 5.4779 3.02271M15.7382 5.37259C16.6949 6.29901 17.2866 7.57884 17.2866 8.99251C17.2866 10.4062 16.6949 11.686 15.7382 12.6124M8.26182 12.6124C7.30513 11.686 6.71341 10.4062 6.71341 8.99251C6.71341 7.57884 7.30513 6.29901 8.26182 5.37259M12.0001 10.7846C12.9554 10.7846 13.7299 10.0102 13.7299 9.05482C13.7299 8.09948 12.9554 7.32502 12.0001 7.32502C11.0447 7.32502 10.2703 8.09948 10.2703 9.05482C10.2703 10.0102 11.0447 10.7846 12.0001 10.7846ZM12.0001 10.7846V21.0018" stroke="#0D151F" stroke-width="2" stroke-linecap="round"/>
</svg>
