<svg width="24" height="24" viewBox="0 0 24 24" fill="none" xmlns="http://www.w3.org/2000/svg">
<path d="M11.9998 14.9637H18.9998C20.1043 14.9637 20.9998 14.0683 20.9998 12.9637V5C20.9998 3.89543 20.1043 3 18.9998 3H4.99976C3.89519 3 2.99976 3.89543 2.99976 5V12.9637C2.99976 14.0683 3.89519 14.9637 4.99976 14.9637H11.9998ZM11.9998 14.9637L6.09107 21M11.9998 14.9637L17.9084 21M16.6982 6.1672H18.1574M12.4719 9.00112C12.4719 10.7718 11.0365 12.2072 9.26587 12.2072C7.49521 12.2072 6.05981 10.7718 6.05981 9.00112C6.05981 7.23046 7.49521 5.79506 9.26587 5.79506C11.0365 5.79506 12.4719 7.23046 12.4719 9.00112Z" stroke="#0D151F" stroke-width="2" stroke-linecap="round" stroke-linejoin="round"/>
</svg>
