<svg width="24" height="24" viewBox="0 0 24 24" fill="none" xmlns="http://www.w3.org/2000/svg">
<path d="M9.09417 12.4194C9.58523 12.3165 9.96935 12.0867 10.2465 11.7301C10.5237 11.3701 10.6623 10.9226 10.6623 10.3876V10.3773C10.6623 9.94524 10.5779 9.57318 10.4092 9.26113C10.2405 8.94908 9.99948 8.70904 9.68616 8.54101C9.37585 8.37298 9.00228 8.28897 8.56544 8.28897H7.54092C6.98863 8.28897 6.54092 8.73668 6.54092 9.28897V12.4194M9.09417 12.4194L10.8159 15.7114M9.09417 12.4194H6.54092M6.54092 15.7114V12.4194M13.8046 10.2947V13.7682C13.8046 14.3085 13.9634 14.7431 14.2809 15.072C14.5984 15.3976 15.0212 15.5603 15.5493 15.5603C15.83 15.5603 16.0857 15.5117 16.3163 15.4143C16.5503 15.3137 16.7525 15.1727 16.9229 14.9915C17.0967 14.8103 17.2287 14.5972 17.319 14.3522C17.4126 14.1072 17.4594 13.8353 17.4594 13.5366M17.4594 13.5366V10.2947M17.4594 13.5366V15.7114M4.8335 21.1668H19.1668C20.2714 21.1668 21.1668 20.2714 21.1668 19.1668V4.8335C21.1668 3.72893 20.2714 2.8335 19.1668 2.8335H4.8335C3.72893 2.8335 2.8335 3.72893 2.8335 4.8335V19.1668C2.8335 20.2714 3.72893 21.1668 4.8335 21.1668Z" stroke="#0D151F" stroke-width="2" stroke-linecap="round"/>
</svg>
