<svg width="24" height="24" viewBox="0 0 24 24" fill="none" xmlns="http://www.w3.org/2000/svg">
<path d="M21 8.49059V6.25C21 5.42157 20.3284 4.75 19.5 4.75H4.5C3.67157 4.75 3 5.42157 3 6.25V8.49059M21 8.49059V17.75C21 18.5784 20.3284 19.25 19.5 19.25H4.5C3.67157 19.25 3 18.5784 3 17.75V8.49059M21 8.49059H3M10.5549 13.8909C10.5549 15.0292 9.63209 15.9521 8.49371 15.9521C7.35533 15.9521 6.4325 15.0292 6.4325 13.8909C6.4325 12.7525 7.35533 11.8296 8.49371 11.8296C9.63209 11.8296 10.5549 12.7525 10.5549 13.8909ZM10.5549 13.8909H14.8029M17.576 15.4223V14.8909C17.576 14.3386 17.1283 13.8909 16.576 13.8909H14.8029M14.8029 13.8909V15.4223" stroke="#0D151F" stroke-width="2" stroke-linecap="round"/>
</svg>
