<svg width="24" height="24" viewBox="0 0 24 24" fill="none" xmlns="http://www.w3.org/2000/svg">
<path d="M20.9785 21.0009L16.2794 16.3018H11.0309L9.00459 13.1823C8.88734 13.0018 8.80526 12.8007 8.76268 12.5898C8.46164 11.0983 10.1281 9.9967 11.3959 10.838C11.5522 10.9417 11.6914 11.071 11.806 11.2194L13.8727 13.895M6.44421 16.407L9.01086 11.3402M14.1166 19.6966H4.0033C3.45101 19.6966 3.0033 19.2489 3.0033 18.6966V3M15.6567 10.1625L15.2506 8.43872C15.1362 7.95289 15.341 7.38802 15.7081 7.17704L16.6852 6.61546C17.0523 6.40449 17.2571 5.83962 17.1427 5.35379L16.5886 3.00151M19.4736 11.4009L19.0676 9.67712C18.9532 9.1913 19.158 8.62643 19.5251 8.41545L20.5022 7.85387C20.8693 7.64289 21.0741 7.07802 20.9597 6.5922L20.4056 4.23991M11.4535 6.14136C11.4535 7.07044 10.7003 7.82361 9.77124 7.82361C8.84216 7.82361 8.08899 7.07044 8.08899 6.14136C8.08899 5.21228 8.84216 4.45911 9.77124 4.45911C10.7003 4.45911 11.4535 5.21228 11.4535 6.14136Z" stroke="#0D151F" stroke-width="2" stroke-linecap="round"/>
</svg>
