<svg width="24" height="24" viewBox="0 0 24 24" fill="none" xmlns="http://www.w3.org/2000/svg">
<path d="M11.9857 10.9775L10.2984 7.5345C10.1304 7.19179 9.78203 6.97456 9.40038 6.97456H4.53521C4.03486 6.97456 3.61151 7.34437 3.54428 7.84019L3.02541 11.6668L2.97461 17.8874M11.9857 10.9775L14.9106 11.9039M11.9857 10.9775L10.7768 13.0594M14.9106 11.9039L18.9312 13.1773C20.1781 13.5722 21.0254 14.7294 21.0254 16.0373V17.8874M14.9106 11.9039L13.9001 14.074M21.0254 17.8874V20.4716C21.0254 20.7478 20.8016 20.9716 20.5254 20.9716H3.51724C3.2443 20.9716 3.0218 20.7527 3.0173 20.4799L2.97461 17.8874M21.0254 17.8874H2.97461M15.506 3.54194L14.2337 4.2765M14.2337 4.2765L12.9613 5.0111M14.2337 4.2765L13.4991 3.00415M14.2337 4.2765L14.9682 5.54882M20.9946 7.17422L19.4013 8.08725M19.4013 8.08725L17.8078 9.00032M19.4013 8.08725L18.4882 6.49383M19.4013 8.08725L20.3143 9.68062" stroke="#0D151F" stroke-width="2" stroke-linecap="round" stroke-linejoin="round"/>
</svg>
