<svg width="24" height="24" viewBox="0 0 24 24" fill="none" xmlns="http://www.w3.org/2000/svg">
<path d="M5.24489 6.04356H20.9971L19.4701 13.1697C19.3869 13.5882 19.1593 13.9641 18.8269 14.2316C18.4946 14.4992 18.0787 14.6413 17.6521 14.6331H8.04448C7.60062 14.6369 7.17072 14.4781 6.83585 14.1868C6.50097 13.8954 6.28426 13.4916 6.22657 13.0515L4.84495 3.83036C4.78766 3.39337 4.57356 2.99207 4.2425 2.70114C3.91144 2.4102 3.48595 2.24945 3.04522 2.24878H2.10815M9.17936 19.1812C9.17936 20.1849 8.36572 20.9985 7.36205 20.9985C6.35838 20.9985 5.54475 20.1849 5.54475 19.1812C5.54475 18.1775 6.35838 17.3639 7.36205 17.3639C8.36572 17.3639 9.17936 18.1775 9.17936 19.1812ZM20.0873 19.1812C20.0873 20.1849 19.2737 20.9985 18.27 20.9985C17.2663 20.9985 16.4527 20.1849 16.4527 19.1812C16.4527 18.1775 17.2663 17.3639 18.27 17.3639C19.2737 17.3639 20.0873 18.1775 20.0873 19.1812Z" stroke="#0D151F" stroke-width="2" stroke-linecap="round" stroke-linejoin="round"/>
</svg>
