<svg width="24" height="24" viewBox="0 0 24 24" fill="none" xmlns="http://www.w3.org/2000/svg">
<path d="M11.8047 17.3583H8.17361M11.7941 17.3583H15.0106M8.17361 17.3583H5.83829C5.39882 17.3583 5.04256 17.0021 5.04256 16.5626V15.4327V3.79671C5.04256 3.35724 5.39882 3.00098 5.83829 3.00098H11.1832C11.6227 3.00098 11.9789 3.35724 11.9789 3.79671V5.92897M8.17361 17.3583V20.9979M8.17361 17.3583L15.0106 17.3583M8.17361 20.9979H15.0106M8.17361 20.9979H4.26392H15.0106M15.0106 17.3583H17.4315C17.8709 17.3583 18.2272 17.002 18.2272 16.5625V15.4327C18.2272 11.5047 14.3684 11.1754 12.1788 11.159C12.0683 11.1582 11.9789 11.0688 11.9789 10.9583V9.88223V8.65802M15.0106 17.3583V20.9979M15.0106 20.9979H18.5455C19.9022 20.9979 21.0015 19.8969 20.9994 18.5401V18.5401M11.9789 8.65802H9.92975M11.9789 8.65802V5.92897M11.9789 5.92897H9.92975" stroke="#0D151F" stroke-width="2" stroke-linecap="round" stroke-linejoin="round"/>
</svg>
