<svg width="24" height="24" viewBox="0 0 24 24" fill="none" xmlns="http://www.w3.org/2000/svg">
<path d="M19.1519 6.43482H4.84814M19.1519 6.43482V11.6352M19.1519 6.43482C19.1519 4.78765 17.9212 3.39928 16.2802 3.25661C14.909 3.13738 13.2899 3.02686 12 3.02686C10.7101 3.02686 9.09101 3.13738 7.71975 3.25661C6.07877 3.39928 4.84814 4.78765 4.84814 6.43482M4.84814 6.43482V11.6352M4.84814 11.6352V16.6107C4.84814 17.4077 5.22505 18.1577 5.86455 18.6333M4.84814 11.6352H19.1519M19.1519 11.6352V16.6107C19.1519 17.4077 18.775 18.1577 18.1354 18.6333M18.1354 18.6333H16.6016M18.1354 18.6333V20.7955C18.1354 20.9059 18.0459 20.9955 17.9354 20.9955H16.8016C16.6911 20.9955 16.6016 20.9059 16.6016 20.7955V18.6333M16.6016 18.6333H7.39841M7.39841 18.6333H5.86455M7.39841 18.6333V20.7955C7.39841 20.9059 7.30887 20.9955 7.19841 20.9955H6.06455C5.95409 20.9955 5.86455 20.9059 5.86455 20.7955V18.6333M15.9692 15.0336C15.9692 14.6364 15.6472 14.3144 15.25 14.3144C14.8528 14.3144 14.5308 14.6364 14.5308 15.0336C14.5308 15.4309 14.8528 15.7529 15.25 15.7529C15.6472 15.7529 15.9692 15.4309 15.9692 15.0336ZM9.46924 15.0336C9.46924 14.6364 9.14722 14.3144 8.75 14.3144C8.35277 14.3144 8.03076 14.6364 8.03076 15.0336C8.03076 15.4309 8.35277 15.7529 8.75 15.7529C9.14722 15.7529 9.46924 15.4309 9.46924 15.0336Z" stroke="#0D151F" stroke-width="2"/>
</svg>
