<svg width="24" height="24" viewBox="0 0 24 24" fill="none" xmlns="http://www.w3.org/2000/svg">
<path d="M20.6006 13.7992L16.922 11.6275C16.7399 11.5201 16.5967 11.3577 16.5127 11.1637L15.611 9.08115L15.4325 8.59626M10.267 17.3489L13.1103 14.3266C13.527 13.8837 13.4552 13.1746 12.9584 12.8242L11.0578 11.4837M10.6307 8.01917L13.313 6.33216C13.8512 5.9937 14.5644 6.23673 14.7839 6.83336L15.4325 8.59626M10.6307 8.01917L8.21628 9.47949M10.6307 8.01917L5.19702 4.91898M8.21628 9.47949L10.6307 11.1591M8.21628 9.47949L11.0578 11.4837M15.4325 8.59626L11.0578 11.4837M3.39941 13.9627L14.6804 20.2205C15.5709 20.7144 16.5725 20.9736 17.5909 20.9736H18.8044M20.04 4.55591C20.04 5.40066 19.3552 6.08546 18.5105 6.08546C17.6658 6.08546 16.981 5.40066 16.981 4.55591C16.981 3.71117 17.6658 3.02637 18.5105 3.02637C19.3552 3.02637 20.04 3.71117 20.04 4.55591Z" stroke="#0D151F" stroke-width="2" stroke-linecap="round"/>
</svg>
