<svg width="24" height="24" viewBox="0 0 24 24" fill="none" xmlns="http://www.w3.org/2000/svg">
<path d="M18.328 3.85522H21.0004M18.328 3.85522V7.8111C18.328 8.91567 17.4326 9.8111 16.328 9.8111H7.94313C6.83856 9.8111 5.94313 8.91567 5.94313 7.8111V3.85522M18.328 3.85522H5.94313M3 3.85522H5.94313M10.3665 20.9793V20.1414C10.3665 19.5711 10.61 19.0279 11.0357 18.6484L12.0929 17.706C12.5186 17.3265 12.7621 16.7833 12.7621 16.213V14.2803M4.72128 20.9793V20.1414C4.72128 19.5711 4.96474 19.0279 5.39046 18.6484L6.44769 17.706C6.87341 17.3265 7.11687 16.7833 7.11687 16.213V14.2803M16.0115 20.9793V20.1414C16.0115 19.5711 16.255 19.0279 16.6807 18.6484L17.7379 17.706C18.1636 17.3265 18.4071 16.7833 18.4071 16.213L18.4071 14.2803" stroke="#0D151F" stroke-width="2" stroke-linecap="round"/>
</svg>
