<svg width="24" height="24" viewBox="0 0 24 24" fill="none" xmlns="http://www.w3.org/2000/svg">
<path d="M17.2304 15.3983L17.7456 16.2554L17.7456 16.2554L17.2304 15.3983ZM20.1828 13.6237L19.6676 12.7666L19.6676 12.7666L20.1828 13.6237ZM20.2761 13.4902L19.2943 13.3005L19.2943 13.3006L20.2761 13.4902ZM20.9487 10.0088L19.9669 9.81906L19.9669 9.81907L20.9487 10.0088ZM10.8606 4.69775C10.3084 4.69775 9.86065 5.14547 9.86065 5.69775C9.86065 6.25004 10.3084 6.69775 10.8606 6.69775V4.69775ZM20.85 9.79626L20.3618 10.669L20.3619 10.669L20.85 9.79626ZM15.5985 6.85919L16.0866 5.98642C16.0771 5.98109 16.0675 5.97592 16.0578 5.97091L15.5985 6.85919ZM13.3955 5.7201L12.9362 6.60838L12.9362 6.60838L13.3955 5.7201ZM12.8772 9.80259L12.143 9.12374L12.143 9.12374L12.8772 9.80259ZM20.9761 18.0674V19.0674C21.0093 19.0674 21.0425 19.0657 21.0755 19.0624L20.9761 18.0674ZM20.9904 18.0659L21.0898 19.061L21.0898 19.061L20.9904 18.0659ZM13.7986 17.0674C13.2463 17.0674 12.7986 17.5151 12.7986 18.0674C12.7986 18.6197 13.2463 19.0674 13.7986 19.0674V17.0674ZM11.1106 14.4269C10.5584 14.4269 10.1106 14.8746 10.1106 15.4269C10.1106 15.9792 10.5584 16.4269 11.1106 16.4269V14.4269ZM2.8404 16.4269C3.39268 16.4269 3.8404 15.9792 3.8404 15.4269C3.8404 14.8746 3.39268 14.4269 2.8404 14.4269V16.4269ZM17.2304 15.3983L17.7456 16.2554L20.698 14.4808L20.1828 13.6237L19.6676 12.7666L16.7152 14.5412L17.2304 15.3983ZM20.2761 13.4902L21.258 13.6799L21.9306 10.1984L20.9487 10.0088L19.9669 9.81907L19.2943 13.3005L20.2761 13.4902ZM13.3037 5.69775V4.69775H10.8606V5.69775V6.69775H13.3037V5.69775ZM20.85 9.79626L21.3381 8.92349L16.0866 5.98642L15.5985 6.85919L15.1104 7.73196L20.3618 10.669L20.85 9.79626ZM15.5985 6.85919L16.0578 5.97091L13.8549 4.83182L13.3955 5.7201L12.9362 6.60838L15.1392 7.74747L15.5985 6.85919ZM15.5985 6.85919L14.8642 6.18033L12.143 9.12374L12.8772 9.80259L13.6115 10.4814L16.3328 7.53804L15.5985 6.85919ZM12.7304 9.86682V8.86682H1.91826V9.86682V10.8668H12.7304V9.86682ZM1.71826 10.0668H0.718262V15.2269H1.71826H2.71826V10.0668H1.71826ZM16.5878 15.4269V16.4269H17.1274V15.4269V14.4269H16.5878V15.4269ZM16.5878 15.4269H15.5878V18.0674H16.5878H17.5878V15.4269H16.5878ZM16.5878 18.0674V19.0674H20.9761V18.0674V17.0674H16.5878V18.0674ZM20.9761 18.0674L21.0755 19.0624L21.0898 19.061L20.9904 18.0659L20.891 17.0709L20.8768 17.0723L20.9761 18.0674ZM16.5878 18.0674V17.0674H13.7986V18.0674V19.0674H16.5878V18.0674ZM11.1106 15.4269V16.4269H16.5878V15.4269V14.4269H11.1106V15.4269ZM1.91826 15.4269V16.4269H2.8404V15.4269V14.4269H1.91826V15.4269ZM1.91826 9.86682V8.86682C1.25552 8.86682 0.718262 9.40408 0.718262 10.0668H1.71826H2.71826C2.71826 10.5086 2.36009 10.8668 1.91826 10.8668V9.86682ZM12.8772 9.80259L12.143 9.12374C12.2944 8.95995 12.5073 8.86682 12.7304 8.86682V9.86682V10.8668C13.065 10.8668 13.3844 10.7271 13.6115 10.4814L12.8772 9.80259ZM13.3037 5.69775V6.69775C13.1758 6.69775 13.0498 6.6671 12.9362 6.60838L13.3955 5.7201L13.8549 4.83182C13.6845 4.74373 13.4955 4.69775 13.3037 4.69775V5.69775ZM20.9487 10.0088L21.9306 10.1984C22.0288 9.69014 21.7899 9.17618 21.3381 8.92349L20.85 9.79626L20.3619 10.669C20.0606 10.5006 19.9014 10.1579 19.9669 9.81906L20.9487 10.0088ZM20.1828 13.6237L20.698 14.4808C20.9898 14.3054 21.1934 14.0142 21.258 13.6799L20.2761 13.4902L19.2943 13.3006C19.3373 13.0776 19.4731 12.8835 19.6676 12.7666L20.1828 13.6237ZM20.9904 18.0659L21.0898 19.061C22.1556 18.9545 23.0315 18.1735 23.2588 17.1267L22.2816 16.9145L21.3044 16.7023C21.2611 16.9018 21.0941 17.0506 20.891 17.0709L20.9904 18.0659ZM17.2304 15.3983L16.7153 14.5412C16.8397 14.4664 16.9822 14.4269 17.1274 14.4269V15.4269V16.4269C17.3452 16.4269 17.5589 16.3676 17.7456 16.2554L17.2304 15.3983ZM1.71826 15.2269H0.718262C0.718262 15.8896 1.25552 16.4269 1.91826 16.4269V15.4269V14.4269C2.36009 14.4269 2.71826 14.785 2.71826 15.2269H1.71826ZM5.02445 14.102V15.102H9.03568V14.102V13.102H5.02445V14.102ZM9.03569 18.302V17.302H5.02445V18.302V19.302H9.03569V18.302ZM5.02445 18.302V17.302C4.41693 17.302 3.92444 16.8096 3.92444 16.202H2.92444H1.92444C1.92444 17.9141 3.31236 19.302 5.02445 19.302V18.302ZM11.1357 16.202H10.1357C10.1357 16.8096 9.64321 17.302 9.03569 17.302V18.302V19.302C10.7478 19.302 12.1357 17.9141 12.1357 16.202H11.1357ZM9.03568 14.102V15.102C9.64321 15.102 10.1357 15.5945 10.1357 16.202H11.1357H12.1357C12.1357 14.4899 10.7478 13.102 9.03568 13.102V14.102ZM5.02445 14.102V13.102C3.31236 13.102 1.92444 14.4899 1.92444 16.202H2.92444H3.92444C3.92444 15.5945 4.41693 15.102 5.02445 15.102V14.102Z" fill="#0D151F"/>
</svg>
