<svg width="24" height="24" viewBox="0 0 24 24" fill="none" xmlns="http://www.w3.org/2000/svg">
<path d="M10.4443 7.83333H6.16651V11.8796M10.4443 16.1667H6.16651V11.8796M6.16651 11.8796H10.2451M12.7776 14.4459C12.837 14.802 12.9811 15.1105 13.2101 15.3715C13.4432 15.6282 13.7464 15.8249 14.1194 15.9616C14.4925 16.0983 14.9164 16.1666 15.3913 16.1666C15.8449 16.1666 16.2561 16.0879 16.6249 15.9305C16.9938 15.7732 17.2863 15.5578 17.5025 15.2845C17.723 15.007 17.8332 14.6923 17.8332 14.3403V14.3278C17.8332 13.835 17.6615 13.4561 17.3181 13.191C16.9747 12.926 16.4554 12.7148 15.7601 12.5574L15.0351 12.3959C14.6621 12.3089 14.3505 12.2074 14.1003 12.0915C13.8502 11.9755 13.6616 11.8326 13.5344 11.6628C13.4114 11.493 13.35 11.2881 13.35 11.0479V11.0354C13.35 10.758 13.4411 10.5095 13.6234 10.29C13.8099 10.0663 14.0537 9.89033 14.3547 9.76195C14.66 9.63357 14.9885 9.56938 15.3404 9.56938C15.8746 9.56938 16.3324 9.69155 16.714 9.93589C16.9354 10.0777 17.1054 10.246 17.224 10.4408M5 21H19C20.1046 21 21 20.1046 21 19V5C21 3.89543 20.1046 3 19 3H5C3.89543 3 3 3.89543 3 5V19C3 20.1046 3.89543 21 5 21Z" stroke="#0D151F" stroke-width="2" stroke-linecap="round" stroke-linejoin="round"/>
</svg>
