<svg width="24" height="24" viewBox="0 0 24 24" fill="none" xmlns="http://www.w3.org/2000/svg">
<path d="M19.392 12.6683H20.5023C21.3307 12.6683 22.0023 13.3399 22.0023 14.1683V18.0236C22.0023 18.852 21.3307 19.5236 20.5023 19.5236H19.1601M19.392 12.6683H4.60802M19.392 12.6683L17.2986 6.67645C17.0182 5.87374 16.2609 5.3361 15.4106 5.3361C15.11 5.3361 14.7964 5.3361 14.4152 5.3361M4.60802 12.6683H3.4978C2.66938 12.6683 1.9978 13.3399 1.9978 14.1683V18.0236C1.9978 18.852 2.66938 19.5236 3.4978 19.5236H4.83991M4.60802 12.6683L6.70141 6.67645C6.98186 5.87373 7.7392 5.3361 8.5895 5.3361H9.58486M19.1601 19.5236H6.99891H4.83991M19.1601 19.5236V22M4.83991 19.5236V22M14.4152 5.3361H9.58486M14.4152 5.3361V3C14.4152 2.44772 13.9675 2 13.4152 2H10.5849C10.0326 2 9.58486 2.44772 9.58486 3V5.3361M9.85467 16.2532H14.1451M5.96041 16.2532H5.96695M18.033 16.2532H18.0395" stroke="#0D151F" stroke-width="2" stroke-linecap="round" stroke-linejoin="round"/>
</svg>
