<svg width="24" height="24" viewBox="0 0 24 24" fill="none" xmlns="http://www.w3.org/2000/svg">
<path d="M14.787 17.1957H14.788M7.97266 4.93182H4.94828M7.69488 7.81062H2.97266M7.97266 10.6894H4.94828M10.4952 14.7686C10.9483 13.8715 11.6723 13.1381 12.5451 12.6683C12.7311 12.5682 12.8563 12.379 12.8563 12.1678V3.79559C12.8563 2.70843 13.7209 1.82715 14.7874 1.82715C15.8539 1.82715 16.7184 2.70843 16.7184 3.79559V12.2494C16.7184 12.4585 16.8409 12.6465 17.0252 12.7452C17.9028 13.2156 18.6598 13.9136 19.1038 14.8173C19.5988 15.8247 19.7397 16.9748 19.503 18.0753C19.2662 19.1759 18.6661 20.1603 17.803 20.8641C16.9398 21.5679 15.8659 21.9485 14.7606 21.9423C13.6553 21.9359 12.5856 21.5433 11.7301 20.8298C10.8747 20.1162 10.2854 19.1251 10.0606 18.0219C9.83587 16.9188 9.98925 15.7704 10.4952 14.7686Z" stroke="#0D151F" stroke-width="2" stroke-linecap="round"/>
</svg>
