<svg width="24" height="24" viewBox="0 0 24 24" fill="none" xmlns="http://www.w3.org/2000/svg">
<path d="M8.10034 12.7624V11.5072C8.10034 10.6788 8.77191 10.0072 9.60034 10.0072H20.5C21.3284 10.0072 22 10.6788 22 11.5072V19.528C22 20.3564 21.3284 21.028 20.5 21.028H9.60034C8.77191 21.028 8.10034 20.3565 8.10034 19.528V18.2728M8.10034 12.7624V18.2728M8.10034 12.7624L4.12149 10.9511C3.12827 10.4989 2 11.225 2 12.3163V18.719C2 19.8103 3.12827 20.5363 4.12149 20.0842L8.10034 18.2728M15.0402 6.16475C15.0402 7.94023 13.6009 9.37954 11.8254 9.37954C10.0499 9.37954 8.61062 7.94023 8.61062 6.16475C8.61062 4.38926 10.0499 2.94995 11.8254 2.94995C13.6009 2.94995 15.0402 4.38926 15.0402 6.16475ZM21.9136 7.37247C21.9136 8.48092 21.015 9.37949 19.9065 9.37949C18.7981 9.37949 17.8995 8.48092 17.8995 7.37247C17.8995 6.26401 18.7981 5.36544 19.9065 5.36544C21.015 5.36544 21.9136 6.26401 21.9136 7.37247Z" stroke="#0D151F" stroke-width="2"/>
</svg>
