<svg width="24" height="24" viewBox="0 0 24 24" fill="none" xmlns="http://www.w3.org/2000/svg">
<path d="M6.76182 7.23768C6.20954 7.23768 5.76182 7.68539 5.76182 8.23768C5.76182 8.78996 6.20954 9.23768 6.76182 9.23768V7.23768ZM13.3314 9.23768C13.8836 9.23768 14.3314 8.78996 14.3314 8.23768C14.3314 7.68539 13.8836 7.23768 13.3314 7.23768V9.23768ZM9.04659 15.6577C9.04659 16.21 9.4943 16.6577 10.0466 16.6577C10.5989 16.6577 11.0466 16.21 11.0466 15.6577H9.04659ZM16.8991 11.985C17.4187 12.1723 17.9917 11.9029 18.179 11.3834C18.3663 10.8638 18.0969 10.2908 17.5773 10.1035L16.8991 11.985ZM16.9174 10.9575L16.74 11.9417L16.7455 11.9427L16.9174 10.9575ZM15.591 11.1961L16.1922 11.9952L16.1946 11.9934L15.591 11.1961ZM15.0396 11.9063L15.9473 12.326L15.9492 12.3218L15.0396 11.9063ZM13.834 15.7624C13.834 16.3147 14.2817 16.7624 14.834 16.7624C15.3863 16.7624 15.834 16.3147 15.834 15.7624H13.834ZM15.834 10.3457C15.834 9.79342 15.3863 9.34571 14.834 9.34571C14.2817 9.34571 13.834 9.79342 13.834 10.3457H15.834ZM5 3V4H19V3V2H5V3ZM21 5H20V19H21H22V5H21ZM19 21V20H5V21V22H19V21ZM3 19H4V5H3H2V19H3ZM5 21V20C4.44772 20 4 19.5523 4 19H3H2C2 20.6569 3.34315 22 5 22V21ZM21 19H20C20 19.5523 19.5523 20 19 20V21V22C20.6569 22 22 20.6569 22 19H21ZM19 3V4C19.5523 4 20 4.44772 20 5H21H22C22 3.34315 20.6569 2 19 2V3ZM5 3V2C3.34315 2 2 3.34315 2 5H3H4C4 4.44772 4.44772 4 5 4V3ZM6.76182 8.23768V9.23768H10.0466V8.23768V7.23768H6.76182V8.23768ZM10.0466 8.23768V9.23768H13.3314V8.23768V7.23768H10.0466V8.23768ZM10.0466 15.6577H11.0466V8.23768H10.0466H9.04659V15.6577H10.0466ZM17.2382 11.0443L17.5773 10.1035C17.4187 10.0464 17.2558 10.0015 17.0892 9.97241L16.9174 10.9575L16.7455 11.9427C16.7862 11.9498 16.8371 11.9627 16.8991 11.985L17.2382 11.0443ZM16.9174 10.9575L17.0947 9.9734C16.9251 9.94283 16.7525 9.93043 16.5815 9.93043V10.9304V11.9304C16.6578 11.9304 16.7091 11.9361 16.74 11.9417L16.9174 10.9575ZM16.5815 10.9304V9.93043C16.3504 9.93043 16.082 9.96399 15.8304 10.0251C15.598 10.0815 15.266 10.1879 14.9875 10.3988L15.591 11.1961L16.1946 11.9934C16.1626 12.0176 16.1521 12.0179 16.1819 12.0057C16.208 11.9951 16.2485 11.9816 16.302 11.9686C16.4153 11.9412 16.5251 11.9304 16.5815 11.9304V10.9304ZM15.591 11.1961L14.9899 10.3969C14.6081 10.6841 14.3263 11.0611 14.13 11.4908L15.0396 11.9063L15.9492 12.3218C16.027 12.1515 16.1127 12.055 16.1922 11.9952L15.591 11.1961ZM15.0396 11.9063L14.1319 11.4866C13.9255 11.933 13.834 12.4157 13.834 12.9146H14.834H15.834C15.834 12.6618 15.8796 12.4723 15.9472 12.326L15.0396 11.9063ZM14.834 12.9146H13.834V15.7624H14.834H15.834V12.9146H14.834ZM14.834 10.3457H13.834V12.9146H14.834H15.834V10.3457H14.834Z" fill="#0D151F"/>
</svg>
