<svg width="24" height="24" viewBox="0 0 24 24" fill="none" xmlns="http://www.w3.org/2000/svg">
<path d="M20.2864 16.5V18C20.2864 19.6569 18.9433 21 17.2864 21H14.0715M20.2864 16.5V6C20.2864 4.34315 18.9433 3 17.2864 3H6.71338C5.05652 3 3.71338 4.34315 3.71338 6V16.5M20.2864 16.5H14.0715M3.71338 16.5V18C3.71338 19.6569 5.05652 21 6.71338 21H9.92826M3.71338 16.5H9.92826M9.92826 16.5V21M9.92826 16.5H14.0715M9.92826 21H14.0715M14.0715 21V16.5M16.6237 6.96854H16.6335M16.6237 9.89352H16.6335M7.71123 13.4418H11.2887C11.5649 13.4418 11.7887 13.218 11.7887 12.9418V6.75C11.7887 6.47386 11.5649 6.25 11.2887 6.25H7.71123C7.43509 6.25 7.21123 6.47386 7.21123 6.75V12.9418C7.21123 13.218 7.43509 13.4418 7.71123 13.4418Z" stroke="#0D151F" stroke-width="2" stroke-linecap="round"/>
</svg>
