<svg width="24" height="24" viewBox="0 0 24 24" fill="none" xmlns="http://www.w3.org/2000/svg">
<path d="M18.9118 16.7254L21.5619 7.07158C21.693 6.59423 21.125 6.23708 20.7515 6.56202L16.3968 10.3512C16.1512 10.5649 15.77 10.4906 15.6227 10.2002L12.4459 3.9393C12.2607 3.57429 11.7393 3.57429 11.5541 3.9393L8.37729 10.2002C8.22996 10.4906 7.84883 10.5649 7.60319 10.3512L3.24846 6.56202C2.87503 6.23708 2.30705 6.59422 2.43809 7.07157L5.08818 16.7254M18.9118 16.7254H5.08818M18.9118 16.7254V18.9395C18.9118 20.044 18.0164 20.9395 16.9118 20.9395H7.08818C5.98361 20.9395 5.08818 20.044 5.08818 18.9395V16.7254" stroke="#0D151F" stroke-width="2"/>
</svg>
