<svg width="24" height="24" viewBox="0 0 24 24" fill="none" xmlns="http://www.w3.org/2000/svg">
<path d="M7.80774 9.54589L8.96597 9.36812C10.9769 9.05948 13.0232 9.05948 15.0342 9.36812L16.1924 9.54589M7.80774 14.1581L10.4698 14.3624C11.4885 14.4406 12.5117 14.4406 13.5304 14.3624L16.1924 14.1581M21.3331 12.9534C21.7752 12.9534 22.1992 12.8172 22.5118 12.5746C22.8244 12.3321 23 12.0031 23 11.6601V10.3668C23 10.0237 22.8244 9.69478 22.5118 9.45223C22.1992 9.20969 21.7752 9.07343 21.3331 9.07343M2.66686 12.9534C2.22478 12.9534 1.80081 12.8172 1.48821 12.5746C1.17562 12.3321 1 12.0031 1 11.6601V10.3668C1 10.0237 1.17562 9.69478 1.48821 9.45223C1.80081 9.20969 2.22478 9.07343 2.66686 9.07343M21 13.2715C21 18.8119 13.3869 20.7125 12.1647 20.982C12.0561 21.006 11.9439 21.006 11.8353 20.982C10.6131 20.7125 3 18.8119 3 13.2715V6.98985C3 6.81321 3.05168 6.64084 3.14804 6.49615C3.24439 6.35147 3.38074 6.24147 3.53857 6.18111L11.7204 3.05181C11.901 2.98273 12.099 2.98273 12.2796 3.05181L20.4614 6.18111C20.6193 6.24147 20.7556 6.35147 20.852 6.49615C20.9483 6.64084 21 6.81321 21 6.98985V13.2715Z" stroke="#0D151F" stroke-width="2" stroke-linecap="round" stroke-linejoin="round"/>
</svg>
