<svg width="24" height="24" viewBox="0 0 24 24" fill="none" xmlns="http://www.w3.org/2000/svg">
<path d="M16.9046 3.00513C17.9487 3.56316 18.8944 4.2938 19.7073 5.16105M4.29256 5.16105C5.10543 4.2938 6.05113 3.56316 7.09525 3.00513M11.6477 8.74167V12.3341C11.6477 12.7971 11.8202 13.2436 12.1316 13.5868L14.2563 15.9281M7.56035 19.5655L6.15838 20.9649M16.3227 19.5655L17.7247 20.9649M19.9445 12.7068C19.9445 17.1388 16.3876 20.7317 11.9999 20.7317C7.6123 20.7317 4.05542 17.1388 4.05542 12.7068C4.05542 8.27481 7.6123 4.68197 11.9999 4.68197C16.3876 4.68197 19.9445 8.27481 19.9445 12.7068Z" stroke="#0D151F" stroke-width="2" stroke-linecap="round"/>
</svg>
