<svg width="24" height="24" viewBox="0 0 24 24" fill="none" xmlns="http://www.w3.org/2000/svg">
<path d="M20.9937 7.8754V4.99227C20.9937 3.88846 20.0988 2.99365 18.995 2.99365H4.99227C3.88846 2.99365 2.99365 3.88847 2.99365 4.99227V7.8754M20.9937 7.8754V18.995C20.9937 20.0988 20.0988 20.9937 18.995 20.9937H4.99227C3.88846 20.9937 2.99365 20.0988 2.99365 18.995V7.8754M20.9937 7.8754H2.99365M5.73077 5.40556H5.73177M8.48375 5.40556H8.48475M15.7994 14.029C15.5947 12.108 13.9688 10.6117 11.9935 10.6117C9.87955 10.6117 8.16586 12.3254 8.16586 14.4393C8.16586 14.6175 8.17803 14.7928 8.20159 14.9645M15.7994 14.029C15.8138 14.1638 15.8211 14.3007 15.8211 14.4393C15.8211 16.5533 14.1074 18.267 11.9935 18.267C10.0577 18.267 8.45758 16.83 8.20159 14.9645M15.7994 14.029L15.4463 14.1839C15.0624 14.3523 14.6478 14.4393 14.2286 14.4393C14.015 14.4393 13.802 14.4167 13.5932 14.372L12.5747 14.1536C12.1883 14.0708 11.7943 14.029 11.3991 14.029C10.5313 14.029 9.6754 14.2304 8.89868 14.6173L8.20159 14.9645" stroke="#0D151F" stroke-width="2" stroke-linecap="round"/>
</svg>
