<svg width="24" height="24" viewBox="0 0 24 24" fill="none" xmlns="http://www.w3.org/2000/svg">
<path d="M4 6.00061C4 6.79626 4.84285 7.55932 6.34315 8.12193C7.84344 8.68454 9.87827 9.00061 12 9.00061C14.1217 9.00061 16.1566 8.68454 17.6569 8.12193C19.1571 7.55932 20 6.79626 20 6.00061C20 5.20496 19.1571 4.4419 17.6569 3.87929C16.1566 3.31668 14.1217 3.00061 12 3.00061C9.87827 3.00061 7.84344 3.31668 6.34315 3.87929C4.84285 4.4419 4 5.20496 4 6.00061Z" stroke="#77818C" stroke-width="1.5" stroke-linecap="round" stroke-linejoin="round"/>
<path d="M4 6.00061V12.0006C4 12.7963 4.84285 13.5593 6.34315 14.1219C7.84344 14.6845 9.87827 15.0006 12 15.0006C14.1217 15.0006 16.1566 14.6845 17.6569 14.1219C19.1571 13.5593 20 12.7963 20 12.0006V6.00061" stroke="#77818C" stroke-width="1.5" stroke-linecap="round" stroke-linejoin="round"/>
<path d="M4 12.0006V18.0006C4 18.7963 4.84285 19.5593 6.34315 20.1219C7.84344 20.6845 9.87827 21.0006 12 21.0006C14.1217 21.0006 16.1566 20.6845 17.6569 20.1219C19.1571 19.5593 20 18.7963 20 18.0006V12.0006" stroke="#77818C" stroke-width="1.5" stroke-linecap="round" stroke-linejoin="round"/>
</svg>
