<svg width="24" height="24" viewBox="0 0 24 24" fill="none" xmlns="http://www.w3.org/2000/svg">
<path d="M5 17.0006C5 17.531 5.21071 18.0398 5.58579 18.4148C5.96086 18.7899 6.46957 19.0006 7 19.0006C7.53043 19.0006 8.03914 18.7899 8.41421 18.4148C8.78929 18.0398 9 17.531 9 17.0006C9 16.4702 8.78929 15.9615 8.41421 15.5864C8.03914 15.2113 7.53043 15.0006 7 15.0006C6.46957 15.0006 5.96086 15.2113 5.58579 15.5864C5.21071 15.9615 5 16.4702 5 17.0006Z" stroke="#77818C" stroke-width="1.5" stroke-linecap="round" stroke-linejoin="round"/>
<path d="M15 17.0006C15 17.531 15.2107 18.0398 15.5858 18.4148C15.9609 18.7899 16.4696 19.0006 17 19.0006C17.5304 19.0006 18.0391 18.7899 18.4142 18.4148C18.7893 18.0398 19 17.531 19 17.0006C19 16.4702 18.7893 15.9615 18.4142 15.5864C18.0391 15.2113 17.5304 15.0006 17 15.0006C16.4696 15.0006 15.9609 15.2113 15.5858 15.5864C15.2107 15.9615 15 16.4702 15 17.0006Z" stroke="#77818C" stroke-width="1.5" stroke-linecap="round" stroke-linejoin="round"/>
<path d="M5 17.0006H3V13.0006M2 5.00061H13V17.0006M9 17.0006H15M19 17.0006H21V11.0006M21 11.0006H13M21 11.0006L18 6.00061H13" stroke="#77818C" stroke-width="1.5" stroke-linecap="round" stroke-linejoin="round"/>
<path d="M3 9.00061H7" stroke="#77818C" stroke-width="1.5" stroke-linecap="round" stroke-linejoin="round"/>
</svg>
