<svg width="24" height="24" viewBox="0 0 24 24" fill="none" xmlns="http://www.w3.org/2000/svg">
<path d="M19.4475 16.9349L18.3138 9.83832L17.5246 10.5735L16.6396 11.3085L14.7991 12.7144L17.1329 17.6517C17.4636 18.3512 18.3518 18.5722 18.9715 18.1091C19.336 17.8367 19.5194 17.3844 19.4475 16.9349Z" stroke="#77818C" stroke-width="1.5" stroke-linecap="round"/>
<path d="M7.045 4.52502L14.1375 5.65944L13.4027 6.44907L12.563 7.50087L11.9779 8.28707L11.2813 9.1848L6.32862 6.84094C5.62949 6.51008 5.40861 5.62135 5.87142 5.00137C6.14369 4.63664 6.59572 4.45316 7.045 4.52502Z" stroke="#77818C" stroke-width="1.5" stroke-linecap="round"/>
<path d="M7.14202 16.8554L8.7994 20.7259C8.93345 21.0245 9.32578 21.0939 9.55919 20.8603L10.2096 20.2095C10.4363 19.9828 10.5417 19.6618 10.4937 19.3447L10.0914 16.6855C10.064 16.5045 10.1367 16.3229 10.2813 16.2109L15.9854 11.7923C15.9854 11.7923 19.724 9.20236 20.5845 6.64813C20.8511 5.85698 20.949 4.7502 20.9843 3.96435C21.0084 3.4264 20.5802 2.99196 20.0423 3.00916C19.2488 3.03454 18.1265 3.12033 17.3247 3.38643C14.7682 4.23489 12.1977 8.0025 12.1977 8.0025L7.78153 13.7101C7.66968 13.8547 7.48843 13.9274 7.30774 13.9003L4.65362 13.5011C4.33708 13.4535 4.01673 13.5591 3.79039 13.7856L3.13945 14.4369C2.90603 14.6704 2.9754 15.063 3.27379 15.1971L7.14202 16.8554ZM7.14202 16.8554L7.137 16.8437M7.14202 16.8554L7.15379 16.8605" stroke="#77818C" stroke-width="1.5" stroke-linecap="round"/>
</svg>
