<svg width="24" height="24" viewBox="0 0 24 24" fill="none" xmlns="http://www.w3.org/2000/svg">
<path d="M3 9.00061C3 8.73539 3.10536 8.48104 3.29289 8.2935C3.48043 8.10597 3.73478 8.00061 4 8.00061H20C20.2652 8.00061 20.5196 8.10597 20.7071 8.2935C20.8946 8.48104 21 8.73539 21 9.00061V11.0006C21 11.2658 20.8946 11.5202 20.7071 11.7077C20.5196 11.8953 20.2652 12.0006 20 12.0006H4C3.73478 12.0006 3.48043 11.8953 3.29289 11.7077C3.10536 11.5202 3 11.2658 3 11.0006V9.00061Z" stroke="#77818C" stroke-width="1.5" stroke-linecap="round" stroke-linejoin="round"/>
<path d="M12 8.00061V21.0006" stroke="#77818C" stroke-width="1.5" stroke-linecap="round" stroke-linejoin="round"/>
<path d="M19 12.0006V19.0006C19 19.531 18.7893 20.0398 18.4142 20.4148C18.0391 20.7899 17.5304 21.0006 17 21.0006H7C6.46957 21.0006 5.96086 20.7899 5.58579 20.4148C5.21071 20.0398 5 19.531 5 19.0006V12.0006" stroke="#77818C" stroke-width="1.5" stroke-linecap="round" stroke-linejoin="round"/>
<path d="M7.5 8.00062C6.83696 8.00062 6.20107 7.73723 5.73223 7.26839C5.26339 6.79955 5 6.16366 5 5.50062C5 4.83758 5.26339 4.20169 5.73223 3.73285C6.20107 3.26401 6.83696 3.00062 7.5 3.00062C8.46469 2.98381 9.41002 3.45188 10.2127 4.34378C11.0154 5.23568 11.6383 6.51002 12 8.00062C12.3617 6.51002 12.9846 5.23568 13.7873 4.34378C14.59 3.45188 15.5353 2.98381 16.5 3.00062C17.163 3.00062 17.7989 3.26401 18.2678 3.73285C18.7366 4.20169 19 4.83758 19 5.50062C19 6.16366 18.7366 6.79955 18.2678 7.26839C17.7989 7.73723 17.163 8.00062 16.5 8.00062" stroke="#77818C" stroke-width="1.5" stroke-linecap="round" stroke-linejoin="round"/>
</svg>
