<svg width="24" height="24" viewBox="0 0 24 24" fill="none" xmlns="http://www.w3.org/2000/svg">
<path d="M17.7193 12.5893L21.0648 6.98575C21.3406 6.5239 22.0512 6.76356 21.991 7.29808L21.1156 15.0618C21.0239 15.8758 20.6033 16.6168 19.9515 17.1129L17.4782 18.9954C17.354 19.0899 17.281 19.2371 17.281 19.3932V20.5006C17.281 20.7767 17.0572 21.0006 16.781 21.0006H13.9046C13.6631 21.0006 13.457 20.829 13.4228 20.59C13.2989 19.7228 13.0753 17.6747 13.4876 16.3362C13.9168 14.9427 15.3053 13.4415 16.1152 12.6529C16.4722 12.3053 17.0069 12.2385 17.4539 12.4586C18.1765 12.8144 18.3772 13.7517 17.8638 14.3722L16.8965 15.5412M6.28069 12.5893L2.9352 6.98575C2.65946 6.52389 1.94878 6.76356 2.00904 7.29808L2.88438 15.0618C2.97615 15.8758 3.39675 16.6168 4.04855 17.1129L6.5218 18.9954C6.64604 19.0899 6.71898 19.2371 6.71898 19.3932V20.5006C6.71898 20.7767 6.94283 21.0006 7.21898 21.0006H10.0954C10.3369 21.0006 10.543 20.829 10.5772 20.59C10.7011 19.7228 10.9247 17.6747 10.5124 16.3362C10.0832 14.9426 8.69474 13.4415 7.88486 12.6529C7.52784 12.3053 6.99316 12.2385 6.54612 12.4586C5.82353 12.8144 5.62278 13.7517 6.13626 14.3722L7.10356 15.5412" stroke="#77818C" stroke-width="1.5" stroke-linecap="round"/>
<path d="M12.2327 3.42339C12.087 3.49997 11.913 3.49997 11.7673 3.42339L9.95783 2.47207C9.59102 2.27922 9.1623 2.5907 9.23235 2.99916L9.57795 5.01413C9.60577 5.17633 9.552 5.34183 9.43415 5.4567L7.97021 6.88363C7.67344 7.1729 7.8372 7.6769 8.24732 7.73649L10.2704 8.03042C10.4332 8.05408 10.574 8.15637 10.6468 8.30394L11.5516 10.1372C11.735 10.5089 12.2649 10.5089 12.4484 10.1372L13.3532 8.30394C13.426 8.15637 13.5668 8.05408 13.7296 8.03042L15.7527 7.73649C16.1628 7.6769 16.3265 7.1729 16.0298 6.88363L14.5658 5.4567C14.448 5.34183 14.3942 5.17633 14.422 5.01413L14.7676 2.99916C14.8377 2.5907 14.409 2.27922 14.0421 2.47207L12.2327 3.42339Z" stroke="#77818C" stroke-width="1.5"/>
</svg>
