<svg width="24" height="24" viewBox="0 0 24 24" fill="none" xmlns="http://www.w3.org/2000/svg">
<path d="M3 12.0006C3 13.7806 3.52784 15.5207 4.51677 17.0007C5.50571 18.4808 6.91131 19.6343 8.55585 20.3155C10.2004 20.9967 12.01 21.1749 13.7558 20.8277C15.5016 20.4804 17.1053 19.6232 18.364 18.3646C19.6226 17.1059 20.4798 15.5023 20.8271 13.7564C21.1743 12.0106 20.9961 10.201 20.3149 8.55646C19.6337 6.91192 18.4802 5.50632 17.0001 4.51738C15.5201 3.52845 13.78 3.00061 12 3.00061C9.48395 3.01008 7.06897 3.99183 5.26 5.74061L3 8.00061" stroke="#77818C" stroke-width="1.5" stroke-linecap="round" stroke-linejoin="round"/>
<path d="M3 3.00061V8.00061H8" stroke="#77818C" stroke-width="1.5" stroke-linecap="round" stroke-linejoin="round"/>
<path d="M12 7.00061V12.0006L16 14.0006" stroke="#77818C" stroke-width="1.5" stroke-linecap="round" stroke-linejoin="round"/>
</svg>
