<svg width="24" height="24" viewBox="0 0 24 24" fill="none" xmlns="http://www.w3.org/2000/svg">
<path d="M5.43806 21.3617H19.3479C20.1393 21.3617 20.4562 20.6105 19.7727 20.2115C18.1459 19.2619 15.3387 18.2749 11.9477 18.1517C7.48584 17.9896 5.53067 19.2128 4.73609 20.2994C4.3727 20.7964 4.82239 21.3617 5.43806 21.3617Z" stroke="#77818C" stroke-width="1.5" stroke-linecap="round"/>
<path d="M15.4873 6.35975C15.0902 6.24187 14.6728 6.46821 14.5549 6.8653C14.437 7.26238 14.6633 7.67984 15.0604 7.79773L15.4873 6.35975ZM18.3518 7.4251L17.8025 6.91441L18.3518 7.4251ZM17.3489 7.69476L17.5624 6.97577L17.3489 7.69476ZM21.0562 4.04461L21.714 4.40493L21.0562 4.04461ZM20.3984 3.6843C19.9342 4.53178 18.7056 5.94318 17.8025 6.91441L18.9011 7.9358C19.7788 6.99183 21.1442 5.44507 21.714 4.40493L20.3984 3.6843ZM17.5624 6.97577L15.4873 6.35975L15.0604 7.79773L17.1355 8.41374L17.5624 6.97577ZM12.7337 7.65097C13.0277 6.49843 13.5419 5.23872 14.6173 4.42979C15.6611 3.6447 17.3994 3.16481 20.4168 3.92759L20.7844 2.47334C17.4875 1.63989 15.2364 2.0872 13.7157 3.23104C12.2266 4.35105 11.6012 6.02201 11.2802 7.28019L12.7337 7.65097ZM17.8025 6.91441C17.746 6.97521 17.6547 7.00319 17.5624 6.97577L17.1355 8.41374C17.7613 8.59954 18.4474 8.42368 18.9011 7.9358L17.8025 6.91441ZM21.714 4.40493C21.9424 3.98789 21.9254 3.52333 21.7066 3.14619C21.5014 2.79247 21.1523 2.56634 20.7844 2.47334L20.4168 3.92759C20.4581 3.93802 20.4381 3.9489 20.4091 3.89888C20.3931 3.87131 20.3788 3.83051 20.3781 3.78164C20.3774 3.73176 20.3912 3.69738 20.3984 3.6843L21.714 4.40493Z" fill="#77818C"/>
<path d="M11.972 8.67539L11.6019 9.32772L11.6084 9.33145L11.6151 9.33506L11.972 8.67539ZM3.19618 11.4896L3.84587 11.8643L3.19618 11.4896ZM4.20391 13.0164L4.24741 12.2676L4.20391 13.0164ZM7.42091 13.3759L7.3407 14.1216L7.42091 13.3759ZM9.67402 11.0999C9.78702 10.7014 9.55558 10.2867 9.15708 10.1737C8.75858 10.0607 8.34392 10.2922 8.23092 10.6907L9.67402 11.0999ZM8.42934 12.7401L9.15089 12.9447L8.42934 12.7401ZM8.35905 12.9103L7.72068 12.5166L8.35905 12.9103ZM12.342 8.02306C11.258 7.40805 9.52166 6.97698 7.69946 7.29633C5.84121 7.622 3.92555 8.7237 2.54648 11.1149L3.84587 11.8643C5.0003 9.86259 6.53226 9.02375 7.95839 8.77381C9.42057 8.51756 10.8053 8.87582 11.6019 9.32772L12.342 8.02306ZM4.1604 13.7651C5.05332 13.817 5.97435 13.9746 7.3407 14.1216L7.50111 12.6302C6.26213 12.4969 5.1778 12.3217 4.24741 12.2676L4.1604 13.7651ZM9.15089 12.9447L9.67402 11.0999L8.23092 10.6907L7.70779 12.5355L9.15089 12.9447ZM7.3407 14.1216C8.01578 14.1942 8.65304 13.8624 8.99741 13.304L7.72068 12.5166C7.66913 12.6002 7.58175 12.6388 7.50111 12.6302L7.3407 14.1216ZM2.54648 11.1149C2.17904 11.752 2.30931 12.4368 2.64737 12.9202C2.97626 13.3905 3.53192 13.7286 4.1604 13.7651L4.24741 12.2676C4.09891 12.259 3.95511 12.1728 3.87658 12.0606C3.84027 12.0086 3.82862 11.9662 3.82631 11.9407C3.82449 11.9204 3.82654 11.8978 3.84587 11.8643L2.54648 11.1149ZM11.6151 9.33506L12.0156 9.5517L12.7293 8.23236L12.3288 8.01572L11.6151 9.33506ZM7.70779 12.5355C7.70399 12.5489 7.7025 12.5521 7.70359 12.5494C7.70482 12.5463 7.70994 12.534 7.72068 12.5166L8.99741 13.304C9.08201 13.1668 9.12578 13.0332 9.15089 12.9447L7.70779 12.5355Z" fill="#77818C"/>
<path d="M14.9013 8.84646C14.7083 8.47994 14.2548 8.33925 13.8883 8.53222C13.5218 8.72519 13.3811 9.17875 13.574 9.54526L14.9013 8.84646ZM13.574 9.54526C14.1815 10.6991 14.491 12.2175 14.492 13.7812C14.493 15.3432 14.1859 16.8827 13.6267 18.0664L14.983 18.7071C15.6551 17.2844 15.9931 15.5175 15.992 13.7802C15.9909 12.0447 15.6512 10.2708 14.9013 8.84646L13.574 9.54526Z" fill="#77818C"/>
<path d="M11.9445 15.8903C14.4798 5.68305 8.73052 1.4979 4.43954 3.17101C4.12146 3.29504 4.0689 3.70454 4.31929 3.93663L6.6801 6.12488" stroke="#77818C" stroke-width="1.5" stroke-linecap="round"/>
</svg>
