<svg width="24" height="24" viewBox="0 0 24 24" fill="none" xmlns="http://www.w3.org/2000/svg">
<path d="M3.73208 20.5092V4.72931C3.73208 3.77423 4.50631 3 5.46138 3H13.6756C14.6307 3 15.4049 3.77424 15.4049 4.72931V20.5092H9.56849H3.73208ZM3.73208 20.5092H2.00006" stroke="#77818C" stroke-width="1.5" stroke-linecap="round"/>
<path d="M11.5139 20.5093V16.6183C11.5139 15.5439 10.6429 14.6729 9.56847 14.6729V14.6729C8.49402 14.6729 7.623 15.5439 7.623 16.6183V20.5093" stroke="#77818C" stroke-width="1.5"/>
<path d="M7.13678 10.5095H12.0005" stroke="#77818C" stroke-width="1.5" stroke-linecap="round"/>
<path d="M7.13678 7.33228H12.0005" stroke="#77818C" stroke-width="1.5" stroke-linecap="round"/>
<path d="M20.2683 20.5092V10.5657C20.2683 9.6106 19.494 8.83636 18.539 8.83636H15.4046V14.6728V20.5092H17.8364H20.2683ZM20.2683 20.5092H22.0001" stroke="#77818C" stroke-width="1.5" stroke-linecap="round"/>
<path d="M15.4047 16.3255H17.3881" stroke="#77818C" stroke-width="1.5" stroke-linecap="round"/>
<path d="M15.4046 13.0201H17.388" stroke="#77818C" stroke-width="1.5" stroke-linecap="round"/>
</svg>
