<svg width="24" height="24" viewBox="0 0 24 24" fill="none" xmlns="http://www.w3.org/2000/svg">
<path d="M12 12.0006V12.0106M14.828 9.17263C15.5779 9.92274 15.9991 10.94 15.9991 12.0006C15.9991 13.0613 15.5779 14.0785 14.828 14.8286M17.657 6.34363C18.3999 7.0865 18.9892 7.96843 19.3913 8.93907C19.7933 9.9097 20.0003 10.95 20.0003 12.0006C20.0003 13.0512 19.7933 14.0916 19.3913 15.0622C18.9892 16.0328 18.3999 16.9148 17.657 17.6576M9.168 14.8286C8.41811 14.0785 7.99685 13.0613 7.99685 12.0006C7.99685 10.94 8.41811 9.92274 9.168 9.17263M6.337 17.6576C5.59408 16.9148 5.00477 16.0328 4.60271 15.0622C4.20065 14.0916 3.99371 13.0512 3.99371 12.0006C3.99371 10.95 4.20065 9.9097 4.60271 8.93907C5.00477 7.96843 5.59408 7.0865 6.337 6.34363" stroke="#77818C" stroke-width="1.5" stroke-linecap="round" stroke-linejoin="round"/>
</svg>
