<svg width="24" height="24" viewBox="0 0 24 24" fill="none" xmlns="http://www.w3.org/2000/svg">
<path d="M12 12.0006C11.4513 13.0658 10.7156 14.0237 9.828 14.8286C9.26864 15.3881 8.55591 15.7692 7.77995 15.9237C7.00399 16.0781 6.19967 15.999 5.46869 15.6962C4.73772 15.3935 4.11293 14.8808 3.67335 14.223C3.23377 13.5652 2.99915 12.7918 2.99915 12.0006C2.99915 11.2094 3.23377 10.436 3.67335 9.77821C4.11293 9.12038 4.73772 8.60769 5.46869 8.30498C6.19967 8.00226 7.00399 7.92312 7.77995 8.07756C8.55591 8.232 9.26864 8.61308 9.828 9.17261C10.7156 9.97754 11.4513 10.9354 12 12.0006ZM12 12.0006C12.5487 10.9354 13.2844 9.97754 14.172 9.17261C14.7314 8.61308 15.4441 8.232 16.22 8.07756C16.996 7.92312 17.8003 8.00226 18.5313 8.30498C19.2623 8.60769 19.8871 9.12038 20.3266 9.77821C20.7662 10.436 21.0009 11.2094 21.0009 12.0006C21.0009 12.7918 20.7662 13.5652 20.3266 14.223C19.8871 14.8808 19.2623 15.3935 18.5313 15.6962C17.8003 15.999 16.996 16.0781 16.22 15.9237C15.4441 15.7692 14.7314 15.3881 14.172 14.8286C13.2844 14.0237 12.5487 13.0658 12 12.0006Z" stroke="#77818C" stroke-width="1.5" stroke-linecap="round" stroke-linejoin="round"/>
</svg>
