<svg width="24" height="24" viewBox="0 0 24 24" fill="none" xmlns="http://www.w3.org/2000/svg">
<path d="M10.0037 9H14.0037" stroke="#77818C" stroke-width="1.5" stroke-linecap="round"/>
<path d="M10.0037 12.5H14.0037" stroke="#77818C" stroke-width="1.5" stroke-linecap="round"/>
<path d="M5.00366 17.7716V4.22318C5.00366 3.45536 5.83314 2.97399 6.4998 3.35494L7.51138 3.93298C8.12625 4.28434 8.88107 4.28434 9.49594 3.93298L11.0114 3.06702C11.6262 2.71566 12.3811 2.71566 12.9959 3.06702L14.5114 3.93298C15.1262 4.28434 15.8811 4.28434 16.4959 3.93298L17.5075 3.35494C18.1742 2.97399 19.0037 3.45536 19.0037 4.22318V19.5C19.0037 20.6046 18.1082 21.5 17.0037 21.5H15.5037" stroke="#77818C" stroke-width="1.5"/>
<path d="M19 18.9344V19.8768C19 20.769 18.2799 21.494 17.3877 21.5V21.5M17.3877 21.5H5C3.89543 21.5 3 20.6046 3 19.5V17.959C3 17.8486 3.08954 17.759 3.2 17.759H14.531C14.8072 17.759 15.031 17.9829 15.031 18.259V19.5C15.031 20.6046 15.9265 21.5 17.031 21.5H17.3877Z" stroke="#77818C" stroke-width="1.5" stroke-linecap="round"/>
</svg>
