<svg width="24" height="24" viewBox="0 0 24 24" fill="none" xmlns="http://www.w3.org/2000/svg">
<path d="M20 12.0006V7.00061M13.0077 22.0006H6.01278C4.9101 22.0006 4.01551 21.111 4.01328 20.0083C4.00571 16.2653 3.99213 8.18175 4.00595 3.97554C4.00955 2.87957 4.89971 2.00061 5.99568 2.00061H15M8 10.0006H14M8 6.00061H11M8 14.0006H11.0099M15 2.00061V6.00061C15 6.5529 15.4477 7.00061 16 7.00061H20M15 2.00061L20 7.00061" stroke="#77818C" stroke-width="1.5" stroke-linecap="round" stroke-linejoin="round"/>
<path d="M22.993 17.3586C23.001 17.0846 22.824 16.8523 22.548 16.7746C20.997 16.3379 19.4837 15.0641 19.4837 15.0641C19.4837 15.0641 17.9996 16.3379 16.452 16.7746C16.176 16.8524 16.0013 17.0788 16.007 17.3586C16.007 21.9929 19.5 23.0006 19.5 23.0006C19.5 23.0006 22.993 21.9929 22.993 17.3586Z" stroke="#77818C" stroke-width="1.5" stroke-linecap="round" stroke-linejoin="round"/>
</svg>
