<svg width="24" height="24" viewBox="0 0 24 24" fill="none" xmlns="http://www.w3.org/2000/svg">
<path d="M6 9.00061C6 10.5919 6.63214 12.118 7.75736 13.2433C8.88258 14.3685 10.4087 15.0006 12 15.0006C13.5913 15.0006 15.1174 14.3685 16.2426 13.2433C17.3679 12.118 18 10.5919 18 9.00061C18 7.40931 17.3679 5.88319 16.2426 4.75797C15.1174 3.63275 13.5913 3.00061 12 3.00061C10.4087 3.00061 8.88258 3.63275 7.75736 4.75797C6.63214 5.88319 6 7.40931 6 9.00061Z" stroke="#77818C" stroke-width="1.5" stroke-linecap="round" stroke-linejoin="round"/>
<path d="M12 15.0006L15.4 20.8906L16.998 17.6576L20.596 17.8896L17.196 12.0006" stroke="#77818C" stroke-width="1.5" stroke-linecap="round" stroke-linejoin="round"/>
<path d="M6.80199 12.0006L3.40199 17.8906L6.99999 17.6576L8.59799 20.8896L11.998 15.0006" stroke="#77818C" stroke-width="1.5" stroke-linecap="round" stroke-linejoin="round"/>
</svg>
