<svg width="24" height="24" viewBox="0 0 24 24" fill="none" xmlns="http://www.w3.org/2000/svg">
<path fill-rule="evenodd" clip-rule="evenodd" d="M8.23677 18.4807C8.47042 18.6156 8.62791 18.9346 8.62833 19.4628L8.63197 19.679C8.64485 20.4447 9.14042 21.3192 9.80785 21.6783C10.158 21.8804 10.552 21.9855 10.9674 21.9933L12.8035 22.0004C13.4851 22.0068 14.1236 21.7446 14.6034 21.2588C15.0871 20.7849 15.3485 20.1395 15.3504 19.4669L15.3504 19.4658C15.346 18.9303 15.5008 18.5813 15.7207 18.4562C15.9421 18.3304 16.3205 18.3701 16.7826 18.6369C17.9939 19.3362 19.5508 18.919 20.2501 17.7078L21.0601 16.3048C21.7594 15.0935 21.3423 13.5366 20.131 12.8373C19.6689 12.5705 19.4453 12.2626 19.4436 12.008C19.4428 11.8836 19.4979 11.7455 19.6155 11.6015C19.7328 11.4579 19.9079 11.3142 20.1339 11.1818C20.6703 10.8674 21.1819 10.2965 21.3411 9.59824C21.5501 8.68183 21.2427 7.99596 21.0544 7.70972L20.1394 6.12966C19.5161 5.01454 18.0875 4.62462 16.9648 5.26293L16.7896 5.36378C16.332 5.62749 15.977 5.65061 15.7433 5.51571C15.5097 5.38081 15.3522 5.06179 15.3518 4.53362L15.3481 4.31763C15.3346 3.03481 14.2831 1.99339 13.0185 2.00763L11.1848 2.00061C10.5029 1.99408 9.86411 2.25649 9.38423 2.74269C8.90983 3.22004 8.63953 3.86023 8.63772 4.53411L8.63773 4.53518C8.64208 5.07067 8.48728 5.41971 8.26734 5.54476C8.04603 5.67059 7.66754 5.63087 7.20546 5.36409C5.99422 4.66478 4.43731 5.08195 3.738 6.2932L2.92796 7.69622C2.22865 8.90747 2.64582 10.4644 3.85707 11.1637C4.31914 11.4305 4.54278 11.7384 4.54447 11.993C4.54529 12.1174 4.49022 12.2555 4.37262 12.3995C4.25527 12.5431 4.08016 12.6867 3.85422 12.8192C3.27152 13.1577 2.85706 13.7039 2.67629 14.3611L2.67595 14.3624C2.50336 15.0248 2.59515 15.7086 2.93365 16.2913L3.84862 17.8712C4.14836 18.4106 4.64693 18.7982 5.25256 18.9595C5.84655 19.1244 6.47264 19.0403 7.0153 18.7334L7.19047 18.6326C7.64808 18.3689 8.00312 18.3458 8.23677 18.4807ZM13.0233 3.57926C13.426 3.57804 13.759 3.91052 13.7652 4.30571L13.7608 4.51403L13.7608 4.51597C13.7595 5.59155 14.1736 6.45907 14.9225 6.89145C15.6714 7.32382 16.6297 7.24864 17.5606 6.70974L17.735 6.60928C18.0984 6.40459 18.56 6.53262 18.7556 6.88781L18.7568 6.88988L19.6795 8.47392C19.8014 8.70024 19.8376 8.95253 19.7705 9.20167C19.7029 9.45292 19.5446 9.65967 19.3287 9.78444C18.4022 10.3155 17.8531 11.1167 17.8493 11.978C17.8455 12.8405 18.3977 13.6384 19.3269 14.1749C19.7892 14.4418 19.941 15.0303 19.6781 15.4856L18.8681 16.8886C18.6009 17.3514 18.0201 17.507 17.5573 17.2398C16.6282 16.7034 15.661 16.6241 14.916 17.0586C14.172 17.4926 13.7527 18.3686 13.756 19.4366C13.7559 19.6859 13.656 19.9264 13.4722 20.1106C13.2898 20.2936 13.0408 20.3911 12.7897 20.391L10.9503 20.392L10.9487 20.392C10.7628 20.3951 10.5824 20.3204 10.4357 20.1786C10.2909 20.0386 10.2119 19.8521 10.2128 19.6571L10.2125 19.4552C10.2138 18.3796 9.79976 17.5121 9.05088 17.0798C8.30163 16.6472 7.33854 16.731 6.41303 17.2614L6.23919 17.3615C6.05894 17.4579 5.85288 17.4878 5.66226 17.4333L5.66128 17.433C5.47474 17.3817 5.31224 17.2592 5.2183 17.0843L4.29391 15.4973C4.17199 15.271 4.13576 15.0187 4.20284 14.7696C4.27048 14.5183 4.42881 14.3116 4.64464 14.1868C5.57121 13.6557 6.12023 12.8545 6.12407 11.9932C6.12791 11.1307 5.57564 10.3328 4.64648 9.79637C4.18415 9.52945 4.03239 8.94097 4.29527 8.48564L5.10531 7.08261C5.37252 6.61979 5.95323 6.4642 6.41605 6.7314C7.3452 7.26785 8.31236 7.34717 9.05734 6.91262C9.80135 6.47864 10.2207 5.6026 10.2173 4.53468C10.2175 4.28535 10.3173 4.04483 10.5011 3.8606C10.6836 3.67768 10.9326 3.58013 11.1837 3.58021L13.0233 3.57926Z" fill="#77818C"/>
<path fill-rule="evenodd" clip-rule="evenodd" d="M12 9.91736C10.8495 9.91736 9.91678 10.85 9.91678 12.0006C9.91678 13.1511 10.8495 14.0838 12 14.0838C13.1505 14.0838 14.0832 13.1511 14.0832 12.0006C14.0832 10.85 13.1505 9.91736 12 9.91736ZM8.44505 12.0006C8.44505 10.0372 10.0366 8.44564 12 8.44564C13.9633 8.44564 15.5549 10.0372 15.5549 12.0006C15.5549 13.9639 13.9633 15.5555 12 15.5555C10.0366 15.5555 8.44505 13.9639 8.44505 12.0006Z" fill="#77818C"/>
</svg>
