<svg width="24" height="24" viewBox="0 0 24 24" fill="none" xmlns="http://www.w3.org/2000/svg">
<path d="M22.4956 6.62246C22.7252 6.60969 22.94 6.74296 23.0293 6.95755L23.0469 6.99995C23.1622 7.27712 23.0596 7.61983 22.7617 7.75263C22.5093 7.8652 22.2449 7.95005 21.9734 8.00546L21.9536 8.00949H21.9164C21.4691 8.0691 21.0186 8.13484 20.5674 8.20422L16.1828 9.50473C15.7251 10.5095 15.332 11.4106 15.0122 12.1894L15.0073 12.2014L14.9708 12.2653C14.9708 12.2653 14.9682 12.2696 14.9628 12.28C14.957 12.2913 14.9485 12.3085 14.9363 12.3346C14.9118 12.3869 14.8737 12.4717 14.8146 12.6091C14.6964 12.8839 14.496 13.3651 14.1546 14.2102L14.15 14.2217C13.9505 14.6393 13.7979 14.9939 13.6929 15.2793C13.6653 15.3576 13.5673 15.5827 13.1567 16.523L12.4763 18.1131L12.4674 18.1253L12.4602 18.1432L12.4439 18.1646C12.1358 18.5707 11.9394 18.702 11.7315 18.7252L11.7205 18.7264H11.6884C11.6497 18.7315 11.6103 18.7302 11.5719 18.7223L11.5556 18.719L11.54 18.713C11.4243 18.6684 11.3196 18.6096 11.2427 18.5258C11.1606 18.4364 11.1191 18.3282 11.1191 18.2092C11.1191 17.9651 11.215 17.5978 11.3868 17.1095C11.5615 16.6129 11.8245 15.9655 12.1787 15.1489C12.8063 13.7019 13.5037 11.9734 14.2833 10.0412L14.5648 9.34376V9.30244L14.5725 9.28887C12.9918 9.57918 12.0151 9.75638 11.6794 9.78975L11.091 9.8751L11.08 9.87547C11.0291 9.87717 10.9784 9.87128 10.9295 9.85807L10.7213 9.87594C10.5329 9.88003 10.3455 9.85111 10.1673 9.79159C9.91989 10.046 9.63236 10.3163 9.29876 10.612L9.29183 10.6181L9.28438 10.6236C8.70384 11.0493 8.44516 11.146 8.23921 11.146H8.17032L8.15829 11.1445C7.93369 11.1172 7.73623 11.0372 7.59301 10.8969C7.447 10.754 7.37359 10.5639 7.37359 10.352C7.37359 10.2924 7.38229 10.2267 7.41424 10.1571C7.44503 10.09 7.49172 10.0317 7.54922 9.97665C7.65803 9.87249 7.83561 9.75254 8.10896 9.58657C8.56849 9.2246 8.99665 8.82439 9.38888 8.39023C9.41837 8.28916 9.45718 8.19138 9.50465 8.09811C8.66097 8.23677 7.84285 8.50473 7.07926 8.89321L7.07531 8.89522C6.48516 9.1792 5.92694 9.52544 5.41019 9.92814C5.00907 10.2521 4.68617 10.6625 4.46555 11.1287C4.44942 11.193 4.44182 11.2306 4.43737 11.2545C4.44087 11.2708 4.45349 11.2995 4.49687 11.3408C4.55404 11.3953 4.65025 11.4567 4.79449 11.5187C5.08195 11.6422 5.51657 11.75 6.08249 11.8247L6.08704 11.8253C7.00304 11.9677 7.57913 12.0978 7.95126 12.2129C8.30967 12.3237 8.49015 12.424 8.60493 12.5175C9.11266 12.8235 9.49627 13.2994 9.68787 13.8612L9.69858 13.8926V14.4592C9.69858 15.2816 9.07847 15.9744 7.96224 16.5787C6.83722 17.1878 5.14521 17.7432 2.86039 18.2692L2.8534 18.2708C2.60179 18.3193 2.14964 18.4107 1.83706 18.4743C1.55022 18.5326 1.25913 18.3964 1.12019 18.1387C0.909012 17.7471 1.13552 17.2626 1.57148 17.1736L1.95741 17.0947C3.31468 16.8283 4.59332 16.4117 5.89742 15.9211L6.85199 15.4673C7.2804 15.2733 7.66867 15.0006 7.99659 14.6631C8.2546 14.3696 8.263 14.2395 8.26321 14.2349V14.1374C8.2632 14.1137 8.26585 14.09 8.27104 14.0671C8.23514 13.9582 8.14995 13.8488 7.98858 13.7437C7.80196 13.6222 7.52632 13.5155 7.15161 13.4323C6.45171 13.3276 5.71776 13.2061 4.98327 13.0639L4.97427 13.0622L4.96547 13.0596C4.11623 12.8129 3.53673 12.471 3.24438 11.9898C3.06774 11.7267 2.96834 11.4193 2.95752 11.1025L2.95729 11.0957C2.95729 10.5579 3.21212 10.0302 3.68275 9.50919C4.15307 8.98849 4.85222 8.45919 5.77576 7.91252L5.78089 7.90948C6.56978 7.47372 7.40546 7.12894 8.27186 6.88159C8.74195 6.70894 9.23435 6.60466 9.73402 6.57193L9.74709 6.57108L9.81333 6.57151L9.82899 6.57401C10.1308 6.62219 10.3756 6.67972 10.5664 6.75379C10.6918 6.80248 10.8022 6.86146 10.8912 6.93616L10.9718 6.897L10.9828 6.89317C11.1847 6.82254 11.3967 6.7847 11.6106 6.78108L11.614 6.78103L11.661 6.78105C11.661 6.78105 11.7539 6.77795 11.8281 6.82092C11.9023 6.86389 11.9595 6.94424 11.9595 6.94424C12.0685 7.07072 12.1331 7.22949 12.1434 7.39624L12.1441 7.40856L12.1438 7.50307C12.1438 7.6138 12.1205 7.77614 12.0144 7.93151C11.9101 8.08418 11.7393 8.21027 11.4824 8.27956C11.4432 8.30435 11.4065 8.32764 11.3721 8.34977C12.6762 8.17703 13.9714 7.94193 15.2533 7.64525L15.2654 7.64244L17.1405 7.3301L15.5159 7.32097C15.4405 7.3204 15.3669 7.29532 15.307 7.24956C15.2472 7.20391 15.2038 7.14016 15.1833 7.06788L14.7972 5.7205C14.7797 5.66406 14.777 5.60405 14.7893 5.54621C14.8019 5.48706 14.8298 5.43223 14.8702 5.38723L14.8726 5.38456C14.9125 5.34185 14.9622 5.30964 15.0175 5.29078C15.1008 5.26237 15.2094 5.28977 15.2984 5.29654L22.4956 6.62246Z" fill="#77818C"/>
</svg>
