<svg width="24" height="24" viewBox="0 0 24 24" fill="none" xmlns="http://www.w3.org/2000/svg">
<path d="M4 12.1953V19C4 20.1046 4.89543 21 6 21H18C19.1046 21 20 20.1046 20 19V12.1953" stroke="#77818C" stroke-width="1.5" stroke-linecap="round"/>
<path d="M10.1932 17.8067C10.1932 16.8089 11.0021 16 11.9999 16V16C12.9978 16 13.8066 16.8089 13.8066 17.8067V21H10.1932V17.8067Z" stroke="#77818C" stroke-width="1.5"/>
<path d="M8.55556 11C8.55556 11 10.0595 13 12 13C13.9405 13 15.4444 11 15.4444 11M8.55556 11L7.78463 11.6938C6.90408 12.4863 5.63614 12.6782 4.56052 12.1818V12.1818C3.12634 11.5198 2.46347 9.84932 3.05361 8.38413L4.71763 4.25278C5.02252 3.49581 5.75674 3 6.5728 3H9.77778M8.55556 11L9.77778 3M15.4444 11L16.2154 11.6938C17.0959 12.4863 18.3639 12.6782 19.4395 12.1818V12.1818C20.8737 11.5198 21.5365 9.84932 20.9464 8.38413L19.2824 4.25278C18.9775 3.49581 18.2433 3 17.4272 3H14.2222M15.4444 11L14.2222 3M9.77778 3H14.2222" stroke="#77818C" stroke-width="1.5"/>
</svg>
