<svg width="24" height="24" viewBox="0 0 24 24" fill="none" xmlns="http://www.w3.org/2000/svg">
<path d="M3.49976 16.4848H3.50976" stroke="#77818C" stroke-width="1.5" stroke-linecap="round"/>
<path d="M17.3715 11.772L22.0552 9.44986C22.433 9.26253 22.4235 8.72036 22.0393 8.54641L12.2062 4.09402C12.0752 4.03466 11.9248 4.03466 11.7938 4.09402L1.96069 8.54641C1.57652 8.72036 1.567 9.26253 1.94483 9.44986L3.48809 10.215M17.3715 11.772L12.1888 13.8852C12.0678 13.9346 11.9322 13.9346 11.8112 13.8852L6.62847 11.772M17.3715 11.772V16.6412C17.3715 16.8488 17.2856 17.0471 17.1341 17.189C14.2464 19.8954 9.75364 19.8954 6.86587 17.189C6.71441 17.0471 6.62847 16.8488 6.62847 16.6412V11.772M6.62847 11.772L3.48809 10.215M3.48809 10.215V14.0023" stroke="#77818C" stroke-width="1.5" stroke-linecap="round"/>
</svg>
