<svg width="24" height="24" viewBox="0 0 24 24" fill="none" xmlns="http://www.w3.org/2000/svg">
<path d="M7 11.0006V19.0006C7 19.2658 6.89464 19.5202 6.70711 19.7077C6.51957 19.8953 6.26522 20.0006 6 20.0006H4C3.73478 20.0006 3.48043 19.8953 3.29289 19.7077C3.10536 19.5202 3 19.2658 3 19.0006V12.0006C3 11.7354 3.10536 11.481 3.29289 11.2935C3.48043 11.106 3.73478 11.0006 4 11.0006H7ZM7 11.0006C8.06087 11.0006 9.07828 10.5792 9.82843 9.82904C10.5786 9.07889 11 8.06148 11 7.00061V6.00061C11 5.47018 11.2107 4.96147 11.5858 4.5864C11.9609 4.21132 12.4696 4.00061 13 4.00061C13.5304 4.00061 14.0391 4.21132 14.4142 4.5864C14.7893 4.96147 15 5.47018 15 6.00061V11.0006H18C18.5304 11.0006 19.0391 11.2113 19.4142 11.5864C19.7893 11.9615 20 12.4702 20 13.0006L19 18.0006C18.8562 18.6141 18.5834 19.1409 18.2227 19.5016C17.8619 19.8623 17.4328 20.0374 17 20.0006H10C9.20435 20.0006 8.44129 19.6845 7.87868 19.1219C7.31607 18.5593 7 17.7963 7 17.0006" stroke="#77818C" stroke-width="1.5" stroke-linecap="round" stroke-linejoin="round"/>
</svg>
