<svg width="24" height="24" viewBox="0 0 24 24" fill="none" xmlns="http://www.w3.org/2000/svg">
<path d="M11 21.0006C15.9706 21.0006 20 16.9712 20 12.0006C20 7.03005 15.9706 3.00061 11 3.00061C6.02944 3.00061 2 7.03005 2 12.0006C2 16.9712 6.02944 21.0006 11 21.0006Z" stroke="#77818C" stroke-width="1.5"/>
<path d="M12.2543 3.08583C12.6608 3.02965 13.076 3.00061 13.4979 3.00061C18.4685 3.00061 22.4979 7.03005 22.4979 12.0006C22.4979 16.9712 18.4685 21.0006 13.4979 21.0006C13.0737 21.0006 12.6563 20.9713 12.2477 20.9145" stroke="#77818C" stroke-width="1.5"/>
<path d="M10.5 7.00061V15.5006C10.5 16.329 11.1716 17.0006 12 17.0006V17.0006C12.8284 17.0006 13.5 16.3291 13.5 15.5006V15.054" stroke="#77818C" stroke-width="1.5" stroke-linecap="round"/>
<path d="M8.5 11.5855H12.5" stroke="#77818C" stroke-width="1.5" stroke-linecap="round"/>
<path d="M8.5 8.64606H12.5" stroke="#77818C" stroke-width="1.5" stroke-linecap="round"/>
</svg>
