<svg width="24" height="24" viewBox="0 0 24 24" fill="none" xmlns="http://www.w3.org/2000/svg">
<path d="M16.5455 20.1825C15.5514 16.7742 12.8229 14.7279 9.27273 14.7279C5.72251 14.7279 2.99406 16.7742 2 20.1825" stroke="#77818C" stroke-width="1.5" stroke-linecap="round" stroke-linejoin="round"/>
<path d="M22 20.1825C21.3217 17.8569 19.8359 16.1654 17.8325 15.3254" stroke="#77818C" stroke-width="1.5" stroke-linecap="round" stroke-linejoin="round"/>
<path d="M9.27273 11.0915C11.281 11.0915 12.9091 9.46346 12.9091 7.45515C12.9091 5.44684 11.281 3.81879 9.27273 3.81879C7.26442 3.81879 5.63637 5.44684 5.63637 7.45515C5.63637 9.46346 7.26442 11.0915 9.27273 11.0915Z" stroke="#77818C" stroke-width="1.5" stroke-linecap="round" stroke-linejoin="round"/>
<path d="M15.6364 3.93695C16.4186 4.13722 17.1119 4.59213 17.6069 5.22996C18.102 5.86779 18.3708 6.65225 18.3708 7.45968C18.3708 8.26711 18.102 9.05157 17.6069 9.68939C17.1119 10.3272 16.4186 10.7821 15.6364 10.9824" stroke="#77818C" stroke-width="1.5" stroke-linecap="round" stroke-linejoin="round"/>
</svg>
