<svg width="24" height="24" viewBox="0 0 24 24" fill="none" xmlns="http://www.w3.org/2000/svg">
<path d="M15.3586 5.50106C15.1253 5.01759 15.4525 4.31912 15.9416 3.82982C16.0193 3.75214 16.0194 3.62576 15.9422 3.54766L15.0333 2.62868C13.8752 1.45711 11.9975 1.45711 10.8394 2.62868L8 5.50106" stroke="#77818C" stroke-width="1.5"/>
<path d="M16.2 5.50003H7.8C6.11984 5.50003 5.27976 5.50003 4.63803 5.82701C4.07354 6.11463 3.6146 6.57357 3.32698 7.13806C3.04593 7.68964 3.00645 8.38776 3.00091 9.63989C2.99969 9.91389 3.22434 10.1309 3.49302 10.1846C4.63762 10.4136 5.5 11.4241 5.5 12.636C5.5 13.8466 4.63949 14.8563 3.49675 15.0867C3.22609 15.1412 3.00004 15.3598 3.00285 15.6359C3.01384 16.7175 3.06727 17.3523 3.32698 17.862C3.6146 18.4265 4.07354 18.8854 4.63803 19.173C5.27976 19.5 6.11984 19.5 7.8 19.5H16.2C17.8802 19.5 18.7202 19.5 19.362 19.173C19.9265 18.8854 20.3854 18.4265 20.673 17.862C20.9327 17.3523 20.9862 16.7174 20.9972 15.6359C21 15.3598 20.7739 15.1412 20.5033 15.0867C19.3605 14.8563 18.5 13.8467 18.5 12.636C18.5 11.4254 19.3605 10.4158 20.5032 10.1854C20.7739 10.1308 21.0003 9.91216 20.9991 9.63602C20.9935 8.38632 20.9538 7.68907 20.673 7.13806C20.3854 6.57357 19.9265 6.11463 19.362 5.82701C18.7202 5.50003 17.8802 5.50003 16.2 5.50003Z" stroke="#77818C" stroke-width="1.5"/>
<path d="M14.7496 9.75104L9.24961 15.251" stroke="#77818C" stroke-width="1.5" stroke-linecap="round"/>
<path d="M14.74 15.251H14.75" stroke="#77818C" stroke-width="1.5" stroke-linecap="round"/>
<path d="M9.24988 9.75104H9.25988" stroke="#77818C" stroke-width="1.5" stroke-linecap="round"/>
</svg>
