<svg width="24" height="24" viewBox="0 0 24 24" fill="none" xmlns="http://www.w3.org/2000/svg">
<path d="M16.3391 15.4286C15.5588 15.4286 14.9162 14.7886 14.9048 14.0114C14.9048 13.6343 15.0539 13.2686 15.3178 12.9943C15.5817 12.72 15.9604 12.5714 16.3276 12.5714C17.1308 12.5828 17.7619 13.2228 17.7619 14.0114C17.7619 14.7886 17.1308 15.4286 16.3391 15.4286Z" stroke="#77818C" stroke-width="1.5"/>
<path d="M3 7.38153H18.2381M5.92585 20C4.6933 20 3.77178 19.424 3.26494 18.3528C3.10367 18.0072 3.01152 17.5925 3.01152 17.2009C3 13.7336 3 10.2779 3 6.82217C3 5.27862 4.25558 4.01152 5.78762 4.01152C7.41181 4 9.036 4 10.6487 4C12.1922 4 13.7243 4 15.2678 4.01152C16.869 4.01152 18.0785 5.24406 18.09 6.86825V7.47876C18.09 7.47876 18.3549 7.51332 18.4125 7.52484C19.7142 7.77826 20.6703 8.91865 20.6703 10.2433C20.6818 12.5702 20.6818 14.8855 20.6703 17.2124C20.6703 18.7444 19.4377 19.9654 17.8711 20H5.92585Z" stroke="#77818C" stroke-width="1.5" stroke-linecap="round"/>
</svg>
