<svg width="24" height="24" viewBox="0 0 24 24" fill="none" xmlns="http://www.w3.org/2000/svg">
<path fill-rule="evenodd" clip-rule="evenodd" d="M4.40479 1.78712C4.00558 1.39774 3.3669 1.40633 2.97826 1.80631C2.58962 2.20629 2.5982 2.8462 2.99741 3.23558L10.4278 10.4831H7.6028L4.52717 7.09304L4.50689 7.07272C4.28528 6.85068 3.93172 6.60821 3.45726 6.60821C3.08766 6.60821 2.7907 6.75578 2.57364 6.9254C2.42225 7.0151 2.30642 7.13363 2.22673 7.24895C2.09605 7.43808 2.05135 7.62699 2.03367 7.71555C1.99919 7.88826 1.99984 8.06079 2.00004 8.11467L2.00007 8.12437V8.16319L2.11475 9.65697C2.23131 11.3955 2.78334 13.171 3.90576 14.6541V21.0406C3.90576 21.482 4.11604 21.8384 4.34135 22.0642C4.56667 22.2899 4.92237 22.5006 5.36295 22.5006H7.15654C7.45649 22.5006 7.7743 22.4182 8.05297 22.1949C8.2953 22.0007 8.43054 21.7586 8.50724 21.6049L8.54617 21.5269L8.7747 20.7637C9.51378 20.3838 10.0966 19.8318 10.5715 19.2435H11.7922L12.4402 21.3534C12.5015 21.7596 12.7425 22.0649 13.0146 22.2466C13.3014 22.4382 13.6209 22.5006 13.8825 22.5006H15.7882C16.2288 22.5006 16.5845 22.2899 16.8098 22.0642C17.0351 21.8384 17.2454 21.482 17.2454 21.0406V16.4098L17.9227 14.7509H18.5907C19.9288 14.7509 21.0116 13.9192 21.5964 12.8938L21.6079 12.8743L21.8471 12.3951C21.9208 12.2473 21.9807 12.0712 21.9961 11.8697C22.0119 11.6644 21.9775 11.486 21.9298 11.3427C21.8867 11.213 21.8302 11.1067 21.8014 11.0532C21.787 11.0264 21.7764 11.007 21.7677 10.9913C21.7538 10.9659 21.7461 10.9518 21.735 10.9295L21.6398 10.7388L18.5906 8.21044V5.65344C18.5906 5.21201 18.3803 4.85562 18.155 4.62987C17.9297 4.40412 17.574 4.19343 17.1334 4.19343L17.1202 4.1934L17.1191 4.1934C16.9685 4.19283 16.4937 4.19104 16.0838 4.60179L16.0706 4.61472L13.7117 7.20316C13.4228 7.49791 13.1587 7.89519 12.9605 8.19335L12.9054 8.27613L12.2674 9.45619L4.40479 1.78712ZM15.1695 8.6015L16.573 7.06142V9.16145L19.8493 11.8781L19.832 11.9128C19.5202 12.4446 19.0411 12.7294 18.5907 12.7294H16.5682L16.2066 13.6151L13.4628 11.4893L14.6353 9.32053C14.8655 8.9751 15.0236 8.74742 15.1563 8.61444L15.1695 8.6015ZM11.5678 12.5046H6.71028L4.13914 9.67087C4.26264 11.129 4.76141 12.5387 5.68954 13.6546L5.92335 13.9358V20.4791H6.75347L7.1187 19.2593L7.58702 19.0834C8.21769 18.8464 8.74554 18.3532 9.25023 17.6452L9.55198 17.222H13.2824L14.2827 20.4791H15.2278V16.0123L15.4363 15.5017L11.5678 12.5046Z" fill="black"/>
</svg>
