<svg width="24" height="24" viewBox="0 0 24 24" fill="none" xmlns="http://www.w3.org/2000/svg">
<path d="M20.092 3.90077C17.3082 1.11618 12.4365 1.51398 9.65269 4.29857C8.06194 5.88977 7.16714 8.37601 7.26656 10.8622L5.67581 16.9287L2.29546 20.31C1.89777 20.7078 1.89777 21.3045 2.29546 21.7023C2.69315 22.1001 3.28968 22.1001 3.68737 21.7023L7.06772 18.321L13.1325 16.7298C15.7174 16.9287 18.1036 15.8347 19.5949 14.343C21.2851 13.4479 23.7706 7.48096 20.092 3.90077ZM17.7059 4.59692C18.1036 4.79582 18.4018 4.99472 18.7001 5.29307C18.9984 5.59142 19.1972 5.88977 19.396 6.18812L16.0157 9.5694L14.3255 7.87876L17.7059 4.59692ZM15.4192 4.00022L12.9336 6.48646L11.6411 5.19362C12.6354 4.39802 14.0273 3.90077 15.4192 4.00022ZM10.3486 6.68536L11.5417 7.87876L9.255 10.1661C9.255 8.97271 9.65269 7.67986 10.3486 6.68536ZM8.06194 15.9342L8.55905 14.1441C8.95673 14.7408 9.35442 15.0391 9.85153 15.4369L8.06194 15.9342ZM11.4423 14.1441C10.6469 13.7463 10.2492 13.3485 9.85153 12.4534L13.033 9.27106L14.6238 10.9617L11.4423 14.1441ZM13.6296 14.7408L16.0157 12.354L17.3082 13.6468C16.2145 14.343 14.9221 14.7408 13.6296 14.7408ZM17.4076 10.9617L19.9926 8.37601C20.092 9.7683 19.5949 11.26 18.7995 12.354L17.4076 10.9617Z" fill="black"/>
<path d="M18.9983 16.5203C17.6402 16.5203 16.6016 17.5592 16.6016 18.9177C16.6016 20.2762 17.6402 21.3151 18.9983 21.3151C20.3565 21.3151 21.3951 20.2762 21.3951 18.9177C21.3951 17.5592 20.3565 16.5203 18.9983 16.5203Z" fill="black"/>
</svg>
