<svg width="24" height="24" viewBox="0 0 24 24" fill="none" xmlns="http://www.w3.org/2000/svg">
<path fill-rule="evenodd" clip-rule="evenodd" d="M19.7854 10.3025L19.6983 7.56111C19.6481 5.98226 18.2543 4.80828 16.6923 5.0293C15.1304 5.25032 14.0783 6.77038 14.4235 8.3075L15.0288 11.0032L15.2346 10.7185C15.5252 10.3166 15.8939 10.007 16.3034 9.79492L16.0899 8.11143C16.0204 7.56353 16.4074 7.05663 16.9542 6.97924C17.501 6.90184 18.0007 7.28325 18.0702 7.83115L18.2837 9.51466C18.7316 9.60537 19.1645 9.80154 19.5449 10.1084L19.7854 10.3025ZM19.8699 12.9587L18.2814 11.6772C17.8386 11.32 17.1827 11.4128 16.8446 11.8806L15.6095 13.589L16.5192 17.6403C16.7186 18.5283 17.5602 19.1091 18.4625 18.9814C19.3649 18.8537 20.032 18.0595 20.003 17.1474L19.8699 12.9587ZM16.4406 3.04521C13.7111 3.43143 11.8727 6.08772 12.4758 8.77381L14.5715 18.1066C14.9966 19.9996 16.7907 21.2377 18.7142 20.9655C20.6378 20.6933 22.06 19.0001 21.9982 17.0558L21.6935 7.46951C21.6058 4.71048 19.1701 2.65898 16.4406 3.04521Z" fill="black"/>
<path fill-rule="evenodd" clip-rule="evenodd" d="M4.21456 10.3023L4.30169 7.56111C4.35187 5.98225 5.74571 4.80828 7.30768 5.0293C8.86965 5.25032 9.92168 6.77038 9.57652 8.3075L8.97119 11.0032L8.7653 10.7184C8.47477 10.3165 8.10605 10.0069 7.69657 9.79486L7.9101 8.1114C7.9796 7.5635 7.59264 7.0566 7.04581 6.97921C6.49897 6.90181 5.99934 7.28322 5.92984 7.83112L5.71631 9.51455C5.26838 9.60526 4.83548 9.80143 4.45501 10.1084L4.21456 10.3023ZM4.13014 12.9585L5.71858 11.6771C6.16136 11.3199 6.8172 11.4128 7.15535 11.8805L8.39054 13.589L7.48081 17.6403C7.28141 18.5283 6.43983 19.1091 5.53749 18.9814C4.63514 18.8537 3.96802 18.0595 3.99701 17.1474L4.13014 12.9585ZM7.55942 3.04521C10.2889 3.43143 12.1273 6.08772 11.5242 8.77381L9.42847 18.1066C9.0034 19.9996 7.20933 21.2377 5.28575 20.9655C3.36217 20.6933 1.94001 19.0001 2.00181 17.0558L2.30649 7.46951C2.39418 4.71048 4.8299 2.65898 7.55942 3.04521Z" fill="black"/>
</svg>
