<svg width="24" height="24" viewBox="0 0 24 24" fill="none" xmlns="http://www.w3.org/2000/svg">
<path d="M3 19.0006C2.71667 19.0006 2.479 18.9046 2.287 18.7126C2.095 18.5206 1.99934 18.2833 2 18.0006C2 17.7173 2.096 17.4796 2.288 17.2876C2.48 17.0956 2.71734 16.9999 3 17.0006H21C21.2833 17.0006 21.521 17.0966 21.713 17.2886C21.905 17.4806 22.0007 17.7179 22 18.0006C22 18.2839 21.904 18.5216 21.712 18.7136C21.52 18.9056 21.2827 19.0013 21 19.0006H3ZM3 16.0006V15.0006C3 12.8673 3.65434 10.9839 4.963 9.35061C6.27167 7.71728 7.95067 6.68395 10 6.25061V6.00061C10 5.45061 10.196 4.97961 10.588 4.58761C10.98 4.19561 11.4507 3.99995 12 4.00061C12.55 4.00061 13.021 4.19661 13.413 4.58861C13.805 4.98061 14.0007 5.45128 14 6.00061V6.25061C16.0667 6.68395 17.75 7.71728 19.05 9.35061C20.35 10.9839 21 12.8673 21 15.0006V16.0006H3ZM5.05 14.0006H18.95C18.7167 12.2673 17.9417 10.8339 16.625 9.70061C15.3083 8.56728 13.7667 8.00061 12 8.00061C10.2333 8.00061 8.696 8.56728 7.388 9.70061C6.08 10.8339 5.30067 12.2673 5.05 14.0006Z" fill="black"/>
</svg>
