<svg width="24" height="24" viewBox="0 0 24 24" fill="none" xmlns="http://www.w3.org/2000/svg">
<path d="M12 6.00061C11.45 6.00061 10.979 5.80461 10.587 5.41261C10.195 5.02061 9.99933 4.54995 10 4.00061C10 3.45061 10.196 2.97961 10.588 2.58761C10.98 2.19561 11.4507 1.99995 12 2.00061C12.55 2.00061 13.021 2.19661 13.413 2.58861C13.805 2.98061 14.0007 3.45128 14 4.00061C14 4.55061 13.804 5.02161 13.412 5.41361C13.02 5.80561 12.5493 6.00128 12 6.00061ZM17 22.0006V17.0006H12C11.45 17.0006 10.979 16.8046 10.587 16.4126C10.195 16.0206 9.99933 15.5499 10 15.0006V9.00061C10 8.45061 10.196 7.97961 10.588 7.58761C10.98 7.19561 11.4507 6.99995 12 7.00061C12.4 7.00061 12.746 7.08828 13.038 7.26361C13.33 7.43895 13.6423 7.71795 13.975 8.10061C14.8917 9.20061 15.721 9.95495 16.463 10.3636C17.205 10.7723 18.0507 10.9846 19 11.0006V13.0006C18.1167 13.0006 17.225 12.8089 16.325 12.4256C15.425 12.0423 14.65 11.5839 14 11.0506V14.5006H17C17.55 14.5006 18.021 14.6966 18.413 15.0886C18.805 15.4806 19.0007 15.9513 19 16.5006V22.0006H17ZM10 22.0006C8.61667 22.0006 7.43733 21.5129 6.462 20.5376C5.48667 19.5623 4.99933 18.3833 5 17.0006C5 15.8006 5.379 14.7423 6.137 13.8256C6.895 12.9089 7.84933 12.3339 9 12.1006V14.1506C8.41667 14.3839 7.93733 14.7549 7.562 15.2636C7.18667 15.7723 6.99933 16.3513 7 17.0006C7 17.8339 7.29167 18.5423 7.875 19.1256C8.45833 19.7089 9.16667 20.0006 10 20.0006C10.65 20.0006 11.2293 19.8129 11.738 19.4376C12.2467 19.0623 12.6173 18.5833 12.85 18.0006H14.9C14.6667 19.1506 14.0917 20.1049 13.175 20.8636C12.2583 21.6223 11.2 22.0013 10 22.0006Z" fill="black"/>
</svg>
