<svg width="24" height="24" viewBox="0 0 24 24" fill="none" xmlns="http://www.w3.org/2000/svg">
<path fill-rule="evenodd" clip-rule="evenodd" d="M11.5791 2.00061L12.4759 2.00061C17.9853 2.25565 22.2209 6.91551 21.9911 12.455V12.5283L21.9902 12.5359C21.9365 13.0199 21.5082 13.3938 21.0016 13.367L20.9937 13.3666C20.5104 13.3128 20.1372 12.8836 20.1638 12.3762L20.1641 12.372C20.1863 12.1052 20.1863 11.8613 20.1641 11.5945L20.1638 11.5899C19.9392 7.09151 16.1446 3.62877 11.6544 3.85363L11.6472 3.854L11.64 3.85359C11.1709 3.82749 10.7632 3.48544 10.7343 2.99541C10.6827 2.48702 11.0574 2.02792 11.5719 2.0008L11.5791 2.00061ZM11.4649 5.31659H12.0881C15.8843 5.5032 18.819 8.72167 18.6575 12.5238C18.6566 12.7708 18.5465 12.9862 18.389 13.144C18.0397 13.4938 17.4533 13.495 17.1024 13.1476C16.9045 12.975 16.8301 12.7029 16.8301 12.4749V11.9752C16.6951 9.19387 14.3398 7.03609 11.54 7.16963L11.5334 7.16994C11.0341 7.16994 10.574 6.77511 10.574 6.25462C10.574 5.74809 10.9497 5.34356 11.4577 5.31678L11.4649 5.31659ZM11.3704 8.67831C13.4541 8.58509 15.2292 10.1984 15.3239 12.3087L15.3241 12.3149L15.324 12.6423C15.2969 13.1575 14.8384 13.5328 14.3308 13.4812C13.8415 13.4522 13.5 13.0439 13.474 12.5741L13.4735 12.5662L13.474 12.5583C13.5379 11.4708 12.709 10.552 11.6206 10.4858H11.4037C10.9023 10.5367 10.5089 10.1178 10.4829 9.62357C10.456 9.11246 10.8583 8.68012 11.3704 8.67831ZM5.41318 8.94821C5.62626 8.73479 5.98239 8.73479 6.19547 8.94821L7.56748 10.2995C7.77849 10.5132 7.77781 10.8683 7.56542 11.081L6.21171 12.4369L11.5347 17.7984L12.9199 16.4543L12.925 16.4492C13.1381 16.2358 13.4943 16.2358 13.7073 16.4492L15.0544 17.7984C15.2675 18.0119 15.2675 18.3686 15.0544 18.582L14.712 18.925C13.0604 20.5792 10.3754 20.5792 8.72388 18.925L5.07069 15.2889L5.06966 15.2878C3.41917 13.6336 3.41952 10.9451 5.07069 9.29124L5.41318 8.94821ZM4.11772 7.65068C5.04525 6.72168 6.55907 6.72066 7.48788 7.64763L8.86087 8.99994C9.78941 9.92997 9.78941 11.4485 8.86087 12.3785L8.79897 12.4405L11.5587 15.2203L11.6354 15.1459C12.5644 14.2216 14.0762 14.2236 15.0028 15.1517L16.3499 16.5009C17.2784 17.4309 17.2784 18.9495 16.3499 19.8795L16.0074 20.2225C13.6408 22.5929 9.79668 22.5933 7.4296 20.2237L7.42842 20.2225L3.77727 16.5884L3.77524 16.5864C1.40825 14.2156 1.40825 10.3645 3.77524 7.99372L4.11772 7.65068Z" fill="black"/>
</svg>
