<svg width="24" height="24" viewBox="0 0 24 24" fill="none" xmlns="http://www.w3.org/2000/svg">
<path d="M19 2.00061H5C4.20435 2.00061 3.44129 2.31668 2.87868 2.87929C2.31607 3.4419 2 4.20496 2 5.00061V19.0006C2 19.7963 2.31607 20.5593 2.87868 21.1219C3.44129 21.6845 4.20435 22.0006 5 22.0006H19C19.7956 22.0006 20.5587 21.6845 21.1213 21.1219C21.6839 20.5593 22 19.7963 22 19.0006V5.00061C22 4.20496 21.6839 3.4419 21.1213 2.87929C20.5587 2.31668 19.7956 2.00061 19 2.00061ZM20 19.0006C20 19.2658 19.8946 19.5202 19.7071 19.7077C19.5196 19.8953 19.2652 20.0006 19 20.0006H5C4.73478 20.0006 4.48043 19.8953 4.29289 19.7077C4.10536 19.5202 4 19.2658 4 19.0006V5.00061C4 4.73539 4.10536 4.48104 4.29289 4.2935C4.48043 4.10597 4.73478 4.00061 5 4.00061H19C19.2652 4.00061 19.5196 4.10597 19.7071 4.2935C19.8946 4.48104 20 4.73539 20 5.00061V19.0006Z" fill="black"/>
<path d="M6.16288 17.1106C5.96419 17.1106 5.79143 17.0313 5.64458 16.8726C5.50636 16.714 5.43726 16.5273 5.43726 16.3126V7.68862C5.43726 7.47396 5.50636 7.28729 5.64458 7.12862C5.79143 6.96996 5.96419 6.89062 6.16288 6.89062H10.7498C10.9485 6.89062 11.117 6.96996 11.2552 7.12862C11.402 7.28729 11.4754 7.47396 11.4754 7.68862V8.01062C11.4754 8.22529 11.402 8.41196 11.2552 8.57063C11.117 8.72929 10.9485 8.80862 10.7498 8.80862H7.74369C7.67458 8.80862 7.64003 8.84596 7.64003 8.92062V10.7686C7.64003 10.8526 7.67458 10.8946 7.74369 10.8946H10.4907C10.6894 10.8946 10.8578 10.974 10.996 11.1326C11.1429 11.2913 11.2163 11.478 11.2163 11.6926V11.9026C11.2163 12.1173 11.1429 12.304 10.996 12.4626C10.8578 12.6213 10.6894 12.7006 10.4907 12.7006H7.74369C7.67458 12.7006 7.64003 12.738 7.64003 12.8126V15.0806C7.64003 15.1553 7.67458 15.1926 7.74369 15.1926H10.7498C10.9485 15.1926 11.117 15.272 11.2552 15.4306C11.402 15.5893 11.4754 15.776 11.4754 15.9906V16.3126C11.4754 16.5273 11.402 16.714 11.2552 16.8726C11.117 17.0313 10.9485 17.1106 10.7498 17.1106H6.16288Z" fill="black"/>
<path d="M12.9911 17.1106C12.7924 17.1106 12.6196 17.0313 12.4728 16.8726C12.3346 16.714 12.2655 16.5273 12.2655 16.3126V10.6286C12.2655 10.414 12.3346 10.2273 12.4728 10.0686C12.6196 9.90996 12.7924 9.83062 12.9911 9.83062H13.5223C13.7297 9.83062 13.9024 9.90996 14.0406 10.0686C14.1875 10.218 14.2652 10.4046 14.2739 10.6286L14.2868 10.7406C14.2868 10.75 14.2912 10.7546 14.2998 10.7546L14.3257 10.7266C14.8872 10.036 15.561 9.69063 16.3471 9.69063C17.1332 9.69063 17.699 9.93329 18.0445 10.4186C18.39 10.8946 18.5628 11.7113 18.5628 12.8686V16.3126C18.5628 16.5273 18.4894 16.714 18.3425 16.8726C18.2043 17.0313 18.0359 17.1106 17.8372 17.1106H17.2671C17.0684 17.1106 16.8956 17.0313 16.7488 16.8726C16.6019 16.714 16.5285 16.5273 16.5285 16.3126V12.9386C16.5285 12.3786 16.4594 11.996 16.3212 11.7906C16.1829 11.576 15.9324 11.4686 15.5696 11.4686C15.2673 11.4686 14.9865 11.604 14.7274 11.8746C14.4769 12.136 14.3516 12.4206 14.3516 12.7286V16.3126C14.3516 16.5273 14.2782 16.714 14.1313 16.8726C13.9931 17.0313 13.8247 17.1106 13.626 17.1106H12.9911Z" fill="black"/>
</svg>
