<svg width="24" height="24" viewBox="0 0 24 24" fill="none" xmlns="http://www.w3.org/2000/svg">
<path d="M6 2.00061C5.46957 2.00061 4.96086 2.21132 4.58579 2.5864C4.21071 2.96147 4 3.47018 4 4.00061V19.0006C4 20.1106 4.89 21.0006 6 21.0006V22.0006H8V21.0006H16V22.0006H18V21.0006C19.11 21.0006 20 20.1106 20 19.0006V4.00061C20 3.47018 19.7893 2.96147 19.4142 2.5864C19.0391 2.21132 18.5304 2.00061 18 2.00061H6ZM6 4.00061H11V19.0006H6V4.00061ZM13 4.00061H18V19.0006H13V4.00061ZM8 10.0006V13.0006H10V10.0006H8ZM14 10.0006V13.0006H16V10.0006H14Z" fill="black"/>
</svg>
