<svg width="24" height="24" viewBox="0 0 24 24" fill="none" xmlns="http://www.w3.org/2000/svg">
<path fill-rule="evenodd" clip-rule="evenodd" d="M17.3047 10.5682C17.7607 10.5682 18.1304 10.1986 18.1304 9.74255C18.1304 9.28654 17.7607 8.91687 17.3047 8.91687C16.8487 8.91687 16.479 9.28654 16.479 9.74255C16.479 10.1986 16.8487 10.5682 17.3047 10.5682ZM17.3047 12.5682C18.8653 12.5682 20.1304 11.3031 20.1304 9.74255C20.1304 8.18197 18.8653 6.91687 17.3047 6.91687C15.7441 6.91687 14.479 8.18197 14.479 9.74255C14.479 11.3031 15.7441 12.5682 17.3047 12.5682Z" fill="black"/>
<path fill-rule="evenodd" clip-rule="evenodd" d="M10.2502 2.4438C9.94557 1.98683 9.32835 1.86261 8.87113 2.16823L8.51151 2.40798C7.4954 3.08522 6.78563 4.09672 6.47264 5.24199C6.19207 5.09816 5.89245 4.98628 5.57444 4.92369C4.60441 4.73462 3.61865 4.96045 2.79426 5.55531L2.41265 5.83052C1.9677 6.15174 1.86645 6.77311 2.18804 7.21858C2.50923 7.66349 3.13064 7.76468 3.57609 7.44319L3.95749 7.16812C4.34618 6.88793 4.77014 6.79167 5.19137 6.87533C5.20339 6.87769 5.2154 6.88025 5.2274 6.883C4.14837 7.56529 3.42866 8.76803 3.42866 10.1382C3.42866 10.6873 3.87384 11.1325 4.42294 11.1325C4.97204 11.1325 5.41723 10.6873 5.41723 10.1382C5.41723 9.47963 5.76387 8.90249 6.2858 8.57275V13.9914C5.01297 13.8509 3.81949 13.9397 2.82085 14.0468L2.00028 14.1348V21.9988H15.333H16.4485C16.7665 21.9387 17.0769 21.8267 17.3669 21.6628L17.6453 21.5054C17.9506 21.3329 18.324 21.3329 18.6294 21.5054L18.9077 21.6628C19.7445 22.1128 21.0118 22.1128 21.86 21.6628L21.9992 21.5841L21.9997 19.443C21.7073 19.5059 21.4221 19.6129 21.1543 19.7643L20.8759 19.9216C20.5706 20.0942 20.1972 20.0942 19.8918 19.9216L19.6135 19.7643C18.6974 19.2466 17.5772 19.2466 16.6612 19.7643L16.3828 19.9216C16.0774 20.0942 15.704 20.0942 15.3987 19.9216L14.6978 19.5255C14.4642 19.3934 14.2119 19.3086 13.9543 19.2709C13.7651 18.952 13.5711 18.6507 13.3729 18.3662C13.6263 18.2948 13.9014 18.3254 14.1362 18.4582L14.4146 18.6155C15.3306 19.1332 16.4509 19.1332 17.3669 18.6155L17.6453 18.4582C17.9506 18.2856 18.324 18.2856 18.6294 18.4582L18.9078 18.6155C19.8238 19.1332 20.9441 19.1332 21.8601 18.6155L21.9993 18.5368L21.9997 16.3957C21.7073 16.4586 21.4221 16.5657 21.1544 16.717L20.876 16.8744C20.5706 17.0469 20.1972 17.0469 19.8919 16.8744L19.6135 16.717C18.6975 16.1993 17.5772 16.1993 16.6612 16.717L16.3828 16.8744C16.0775 17.0469 15.704 17.0469 15.3987 16.8744L15.1203 16.717C14.2043 16.1993 13.084 16.1993 12.168 16.717L12.0606 16.7777C11.0247 15.7287 9.90933 15.0291 8.76311 14.585C8.60003 14.5218 8.43704 14.4641 8.27437 14.4115V8.57275C8.7963 8.90249 9.14294 9.47963 9.14294 10.1382C9.14294 10.6873 9.58812 11.1325 10.1372 11.1325C10.6863 11.1325 11.1315 10.6873 11.1315 10.1382C11.1315 8.76803 10.4118 7.56529 9.33276 6.883C9.34477 6.88025 9.35724 6.8776 9.36926 6.87524C9.79165 6.79152 10.2144 6.88799 10.6026 7.16808L10.9843 7.44336C11.43 7.76438 12.0513 7.66394 12.3721 7.21858C12.6937 6.77311 12.5924 6.15166 12.1474 5.83045L11.7659 5.55526C10.942 4.96098 9.95476 4.73633 8.98521 4.92379C8.89682 4.94119 8.81027 4.96276 8.72547 4.98775C8.94811 4.62383 9.24818 4.30675 9.61453 4.06256L9.9744 3.82265C10.4314 3.51812 10.5545 2.90054 10.2502 2.4438ZM3.92749 20.0815V15.9552C5.2503 15.8649 6.66098 15.9154 8.0405 16.4499C9.40961 16.9804 10.8363 18.0243 12.1074 20.0815H3.92749Z" fill="black"/>
</svg>
