<svg width="24" height="24" viewBox="0 0 24 24" fill="none" xmlns="http://www.w3.org/2000/svg">
<path d="M19 10.0006H18.68L17.43 5.88062C17.2068 5.32588 16.8228 4.85051 16.3275 4.51553C15.8321 4.18055 15.248 4.00124 14.65 4.00062H8.65C7.95529 3.99863 7.28142 4.23781 6.74342 4.67734C6.20541 5.11686 5.83662 5.72948 5.7 6.41062L5.18 10.0006H5C4.20435 10.0006 3.44129 10.3167 2.87868 10.8793C2.31607 11.4419 2 12.205 2 13.0006V16.0006C2 16.2658 2.10536 16.5202 2.29289 16.7077C2.48043 16.8953 2.73478 17.0006 3 17.0006H4C4 17.7963 4.31607 18.5593 4.87868 19.1219C5.44129 19.6846 6.20435 20.0006 7 20.0006C7.79565 20.0006 8.55871 19.6846 9.12132 19.1219C9.68393 18.5593 10 17.7963 10 17.0006H14C14 17.7963 14.3161 18.5593 14.8787 19.1219C15.4413 19.6846 16.2044 20.0006 17 20.0006C17.7956 20.0006 18.5587 19.6846 19.1213 19.1219C19.6839 18.5593 20 17.7963 20 17.0006H21C21.2652 17.0006 21.5196 16.8953 21.7071 16.7077C21.8946 16.5202 22 16.2658 22 16.0006V13.0006C22 12.205 21.6839 11.4419 21.1213 10.8793C20.5587 10.3167 19.7956 10.0006 19 10.0006ZM13 6.00062H14.65C14.8486 6.00242 15.0421 6.0633 15.206 6.17549C15.3698 6.28769 15.4965 6.44613 15.57 6.63062L16.52 10.0006H13V6.00062ZM7.66 6.80062C7.70675 6.57135 7.83242 6.36573 8.01514 6.21955C8.19786 6.07338 8.42605 5.9959 8.66 6.00062H11V10.0006H7.22L7.66 6.80062ZM7 18.0006C6.80222 18.0006 6.60888 17.942 6.44443 17.8321C6.27998 17.7222 6.15181 17.566 6.07612 17.3833C6.00043 17.2006 5.98063 16.9995 6.01921 16.8055C6.0578 16.6116 6.15304 16.4334 6.29289 16.2935C6.43275 16.1537 6.61093 16.0584 6.80491 16.0198C6.99889 15.9813 7.19996 16.0011 7.38268 16.0767C7.56541 16.1524 7.72159 16.2806 7.83147 16.4451C7.94135 16.6095 8 16.8028 8 17.0006C8 17.2658 7.89464 17.5202 7.70711 17.7077C7.51957 17.8953 7.26522 18.0006 7 18.0006ZM17 18.0006C16.8022 18.0006 16.6089 17.942 16.4444 17.8321C16.28 17.7222 16.1518 17.566 16.0761 17.3833C16.0004 17.2006 15.9806 16.9995 16.0192 16.8055C16.0578 16.6116 16.153 16.4334 16.2929 16.2935C16.4327 16.1537 16.6109 16.0584 16.8049 16.0198C16.9989 15.9813 17.2 16.0011 17.3827 16.0767C17.5654 16.1524 17.7216 16.2806 17.8315 16.4451C17.9414 16.6095 18 16.8028 18 17.0006C18 17.2658 17.8946 17.5202 17.7071 17.7077C17.5196 17.8953 17.2652 18.0006 17 18.0006ZM20 15.0006H19.22C18.9388 14.6913 18.5961 14.4441 18.2138 14.275C17.8315 14.1058 17.418 14.0184 17 14.0184C16.582 14.0184 16.1685 14.1058 15.7862 14.275C15.4039 14.4441 15.0612 14.6913 14.78 15.0006H9.22C8.93882 14.6913 8.59609 14.4441 8.21378 14.275C7.83148 14.1058 7.41805 14.0184 7 14.0184C6.58195 14.0184 6.16852 14.1058 5.78622 14.275C5.40391 14.4441 5.06118 14.6913 4.78 15.0006H4V13.0006C4 12.7354 4.10536 12.4811 4.29289 12.2935C4.48043 12.106 4.73478 12.0006 5 12.0006H19C19.2652 12.0006 19.5196 12.106 19.7071 12.2935C19.8946 12.4811 20 12.7354 20 13.0006V15.0006Z" fill="black"/>
</svg>
