<svg width="24" height="24" viewBox="0 0 24 24" fill="none" xmlns="http://www.w3.org/2000/svg">
<path d="M21.0242 13.4306C21.8461 11.965 22.1816 10.2734 21.9817 8.60235C21.7819 6.93132 21.0572 5.36825 19.9133 4.14105C19.2213 3.45232 18.4006 2.90858 17.4986 2.54126C16.5966 2.17394 15.6312 1.99033 14.6583 2.00105C12.3372 2.05069 10.125 3.00128 8.48336 4.65432C6.84176 6.30737 5.89776 8.53508 5.84846 10.8723C5.84593 11.9191 6.05633 12.9552 6.46669 13.9169L3.56872 16.0083C2.99726 16.4142 2.56982 16.9936 2.34898 17.6617C2.12814 18.3298 2.1255 19.0516 2.34145 19.7214C2.5574 20.3911 2.98059 20.9737 3.54907 21.3838C4.11755 21.7938 4.80147 22.0099 5.5007 22.0003H5.75186C6.22617 21.9607 6.6862 21.8175 7.09994 21.5806C7.51368 21.3438 7.87117 21.0189 8.14752 20.6288L10.2341 17.7106C11.1901 18.1207 12.2184 18.3324 13.2576 18.3331C14.189 18.3297 15.1131 18.1686 15.9914 17.8565C16.2547 18.2606 16.6006 18.6034 17.006 18.862C17.4115 19.1206 17.8671 19.2891 18.3424 19.3561C18.8177 19.4232 19.3017 19.3872 19.7621 19.2508C20.2225 19.1143 20.6487 18.8804 21.0121 18.5647C21.3755 18.2491 21.6678 17.8589 21.8695 17.4203C22.0711 16.9818 22.1774 16.5049 22.1813 16.0216C22.1852 15.5383 22.0865 15.0598 21.892 14.618C21.6974 14.1762 21.4115 13.7813 21.0532 13.4598L21.0242 13.4306ZM9.84766 6.03787C11.1213 4.72863 12.8577 3.98025 14.6776 3.95623C15.3923 3.94881 16.1014 4.08331 16.7644 4.35203C17.4274 4.62075 18.0313 5.01843 18.5416 5.52232C19.3966 6.46235 19.9294 7.65394 20.0616 8.92172C20.1937 10.1895 19.9183 11.4665 19.2757 12.5649C19.1214 12.554 18.9664 12.554 18.8121 12.5649C18.0523 12.5659 17.315 12.8247 16.7191 13.2994C16.1232 13.7742 15.7035 14.4372 15.5277 15.1815L8.43732 8.05141C8.78967 7.30398 9.2667 6.62293 9.84766 6.03787ZM6.55363 19.4907C6.44225 19.649 6.29833 19.7813 6.13165 19.8787C5.96497 19.976 5.77943 20.0361 5.58764 20.0549C5.39288 20.0745 5.19624 20.0497 5.01229 19.9823C4.82835 19.9149 4.66182 19.8068 4.52505 19.6658C4.38616 19.5272 4.27947 19.3594 4.21266 19.1744C4.14585 18.9894 4.12058 18.7918 4.13866 18.5958C4.15726 18.4026 4.21693 18.2158 4.31361 18.048C4.41028 17.8801 4.5417 17.7352 4.69893 17.623L7.48098 15.6192C7.6413 15.8196 7.81221 16.0112 7.99296 16.1931C8.17343 16.3753 8.36369 16.5475 8.56289 16.7087L6.55363 19.4907ZM9.33569 14.7924C8.83485 14.2789 8.43964 13.6708 8.17275 13.0031C7.90586 12.3354 7.77254 11.6212 7.78044 10.9015C7.76779 10.6715 7.76779 10.4409 7.78044 10.2109L13.8565 16.3293C13.0369 16.4275 12.2059 16.3405 11.4239 16.0746C10.6418 15.8087 9.92849 15.3707 9.33569 14.7924ZM18.7927 17.4285C18.5062 17.4285 18.226 17.3429 17.9877 17.1826C17.7494 17.0223 17.5637 16.7944 17.454 16.5278C17.3444 16.2612 17.3157 15.9678 17.3716 15.6847C17.4275 15.4017 17.5655 15.1417 17.7681 14.9377C17.9708 14.7336 18.229 14.5946 18.5101 14.5383C18.7911 14.482 19.0825 14.5109 19.3472 14.6214C19.612 14.7318 19.8383 14.9188 19.9975 15.1588C20.1567 15.3987 20.2417 15.6808 20.2417 15.9694C20.2417 16.3564 20.0891 16.7275 19.8173 17.0011C19.5456 17.2748 19.177 17.4285 18.7927 17.4285Z" fill="black"/>
</svg>
