<svg width="24" height="24" viewBox="0 0 24 24" fill="none" xmlns="http://www.w3.org/2000/svg">
<path d="M22 8.31649H19.535L15.835 2.46916C15.6878 2.23689 15.459 2.07568 15.1989 2.021C14.9388 1.96632 14.6687 2.02265 14.448 2.17759C14.2273 2.33253 14.0742 2.57339 14.0222 2.84719C13.9703 3.121 14.0238 3.4053 14.171 3.63758L17.132 8.31649H6.868L9.832 3.63758C9.97919 3.4053 10.0327 3.121 9.98076 2.84719C9.92881 2.57339 9.77566 2.33253 9.555 2.17759C9.33434 2.02265 9.06424 1.96632 8.80413 2.021C8.54402 2.07568 8.3152 2.23689 8.168 2.46916L4.465 8.31649H2C1.73478 8.31649 1.48043 8.42739 1.29289 8.6248C1.10536 8.8222 1 9.08994 1 9.36912C1 9.64829 1.10536 9.91603 1.29289 10.1134C1.48043 10.3108 1.73478 10.4217 2 10.4217H3V18.8427C3 19.6803 3.31607 20.4835 3.87868 21.0757C4.44129 21.6679 5.20435 22.0006 6 22.0006H18C18.7956 22.0006 19.5587 21.6679 20.1213 21.0757C20.6839 20.4835 21 19.6803 21 18.8427V10.4217H22C22.2652 10.4217 22.5196 10.3108 22.7071 10.1134C22.8946 9.91603 23 9.64829 23 9.36912C23 9.08994 22.8946 8.8222 22.7071 8.6248C22.5196 8.42739 22.2652 8.31649 22 8.31649ZM19 18.8427C19 19.1219 18.8946 19.3896 18.7071 19.5871C18.5196 19.7845 18.2652 19.8954 18 19.8954H6C5.73478 19.8954 5.48043 19.7845 5.29289 19.5871C5.10536 19.3896 5 19.1219 5 18.8427V10.4217H19V18.8427Z" fill="black"/>
<path d="M8 18.3165C8.26522 18.3165 8.51957 18.2056 8.70711 18.0082C8.89464 17.8108 9 17.543 9 17.2639V13.0534C9 12.7742 8.89464 12.5064 8.70711 12.309C8.51957 12.1116 8.26522 12.0007 8 12.0007C7.73478 12.0007 7.48043 12.1116 7.29289 12.309C7.10536 12.5064 7 12.7742 7 13.0534V17.2639C7 17.543 7.10536 17.8108 7.29289 18.0082C7.48043 18.2056 7.73478 18.3165 8 18.3165Z" fill="black"/>
<path d="M12 18.3165C12.2652 18.3165 12.5196 18.2056 12.7071 18.0082C12.8946 17.8108 13 17.543 13 17.2639V13.0534C13 12.7742 12.8946 12.5064 12.7071 12.309C12.5196 12.1116 12.2652 12.0007 12 12.0007C11.7348 12.0007 11.4804 12.1116 11.2929 12.309C11.1054 12.5064 11 12.7742 11 13.0534V17.2639C11 17.543 11.1054 17.8108 11.2929 18.0082C11.4804 18.2056 11.7348 18.3165 12 18.3165Z" fill="black"/>
<path d="M16 18.3165C16.2652 18.3165 16.5196 18.2056 16.7071 18.0082C16.8946 17.8108 17 17.543 17 17.2639V13.0534C17 12.7742 16.8946 12.5064 16.7071 12.309C16.5196 12.1116 16.2652 12.0007 16 12.0007C15.7348 12.0007 15.4804 12.1116 15.2929 12.309C15.1054 12.5064 15 12.7742 15 13.0534V17.2639C15 17.543 15.1054 17.8108 15.2929 18.0082C15.4804 18.2056 15.7348 18.3165 16 18.3165Z" fill="black"/>
</svg>
