<svg width="24" height="24" viewBox="0 0 24 24" fill="none" xmlns="http://www.w3.org/2000/svg">
<path fill-rule="evenodd" clip-rule="evenodd" d="M8.87277 3.00061C6.82644 3.00061 5.15366 4.6793 5.15366 6.73286V8.94195H5.12866L5.12156 8.94224C3.32366 9.01346 1.93421 10.5544 2.00477 12.3511C2.04906 13.5053 2.71287 14.5536 3.72604 15.0919V16.9722C3.72604 17.9053 4.30124 18.7345 5.15366 19.0685V20.0061C5.15366 20.56 5.58197 20.9936 6.13235 20.9993C6.68668 21.0277 7.10111 20.5768 7.13263 20.0707L7.13333 20.0595V19.2086H16.8685V19.9218C16.8685 20.4795 17.3027 20.9151 17.8584 20.9151H17.8696L17.8808 20.9144C18.3979 20.882 18.8152 20.4632 18.8475 19.9443L18.8482 19.9331V19.0474C19.7006 18.7135 20.2758 17.8842 20.2758 16.9511V15.0701C21.7759 14.2706 22.4129 12.4468 21.7149 10.8642C21.2187 9.72675 20.1096 8.96835 18.88 8.92089H18.8482V6.73286C18.8482 4.6793 17.1754 3.00061 15.1291 3.00061H8.87277ZM7.13333 6.73286C7.13333 5.77361 7.9169 4.98727 8.87277 4.98727H15.1291C16.085 4.98727 16.8685 5.77361 16.8685 6.73286V9.53123C16.7403 9.62245 16.6131 9.72651 16.4955 9.84396C16.2035 10.1186 15.9759 10.4409 15.8126 10.796H8.18931C8.026 10.4409 7.79842 10.1186 7.50633 9.84395C7.38873 9.7265 7.26158 9.62245 7.13333 9.53123V6.73286ZM17.4836 14.982V12.1939C17.5022 11.4587 18.0806 10.8913 18.7949 10.9075H18.8144C19.4602 10.9448 19.9759 11.4247 20.0406 12.0579C20.1058 12.6965 19.6807 13.2904 19.0569 13.4391C18.6246 13.5398 18.2962 13.9356 18.2962 14.4018V16.9511C18.2962 17.1098 18.1844 17.2219 18.0263 17.2219H5.97554C5.81746 17.2219 5.70571 17.1098 5.70571 16.9511V14.4018C5.70571 13.9356 5.37731 13.5399 4.94512 13.4391C4.25363 13.2733 3.8296 12.5997 3.97566 11.9096C4.10592 11.3425 4.58848 10.9448 5.18828 10.9075H5.24073C5.5602 10.9075 5.87126 11.0346 6.12425 11.2696C6.37529 11.5237 6.5183 11.8536 6.5183 12.1896V14.9185C6.49073 15.4742 6.93978 15.8896 7.44369 15.9212L7.4549 15.9219H16.4838C17.0375 15.9495 17.4514 15.4989 17.4829 14.9932L17.4836 14.982ZM8.49796 13.9352V12.7826H15.5039V13.9352H8.49796Z" fill="black"/>
</svg>
