<svg width="24" height="24" viewBox="0 0 24 24" fill="none" xmlns="http://www.w3.org/2000/svg">
<path d="M11.3758 2.00061C11.6306 2.00089 11.8757 2.09849 12.0609 2.27346C12.2462 2.44843 12.3577 2.68756 12.3726 2.94201C12.3876 3.19645 12.3048 3.44699 12.1413 3.64244C11.9777 3.8379 11.7458 3.96351 11.4928 3.99361L11.3758 4.00061H4.878V20.0006H16.8739V12.5006C16.8742 12.2457 16.9718 12.0006 17.1467 11.8152C17.3216 11.6299 17.5606 11.5184 17.815 11.5034C18.0694 11.4885 18.3198 11.5713 18.5152 11.7349C18.7106 11.8985 18.8362 12.1305 18.8662 12.3836L18.8732 12.5006V20.0006H19.8729C20.1277 20.0009 20.3728 20.0985 20.558 20.2735C20.7433 20.4484 20.8548 20.6876 20.8697 20.942C20.8847 21.1964 20.8019 21.447 20.6384 21.6424C20.4748 21.8379 20.2429 21.9635 19.9899 21.9936L19.8729 22.0006H2.87868C2.62389 22.0003 2.37882 21.9027 2.19354 21.7278C2.00827 21.5528 1.89678 21.3137 1.88185 21.0592C1.86691 20.8048 1.94967 20.5542 2.1132 20.3588C2.27674 20.1633 2.50871 20.0377 2.76172 20.0076L2.87868 20.0006V4.00061C2.87852 3.49603 3.06902 3.01004 3.412 2.64006C3.75497 2.27008 4.22507 2.04345 4.72805 2.00561L4.878 2.00061H11.3758ZM12.3755 12.0006C12.5724 12.0006 12.7674 12.0394 12.9493 12.1148C13.1312 12.1902 13.2965 12.3007 13.4358 12.4399C13.575 12.5792 13.6854 12.7446 13.7608 12.9266C13.8362 13.1086 13.8749 13.3036 13.8749 13.5006C13.8749 13.6976 13.8362 13.8926 13.7608 14.0746C13.6854 14.2566 13.575 14.422 13.4358 14.5613C13.2965 14.7006 13.1312 14.811 12.9493 14.8864C12.7674 14.9618 12.5724 15.0006 12.3755 15.0006C11.9778 15.0006 11.5964 14.8426 11.3152 14.5613C11.0339 14.28 10.876 13.8984 10.876 13.5006C10.876 13.1028 11.0339 12.7213 11.3152 12.4399C11.5964 12.1586 11.9778 12.0006 12.3755 12.0006ZM14.6677 4.17261C14.8476 3.99326 15.089 3.88914 15.3428 3.88138C15.5967 3.87363 15.844 3.96283 16.0345 4.13086C16.225 4.29889 16.3444 4.53316 16.3685 4.78609C16.3926 5.03901 16.3195 5.29162 16.1642 5.49261L16.0812 5.58661L15.6683 5.99861H20.8726C21.1289 5.99658 21.3762 6.09315 21.5634 6.26835C21.7506 6.44355 21.8634 6.684 21.8784 6.94C21.8934 7.19601 21.8096 7.44799 21.6441 7.6439C21.4787 7.8398 21.2443 7.96463 20.9895 7.99261L20.8726 7.99861H15.6663L16.0822 8.41561C16.2611 8.59573 16.3649 8.83722 16.3724 9.09106C16.3799 9.3449 16.2905 9.59208 16.1225 9.78244C15.9544 9.97279 15.7203 10.0921 15.4676 10.1161C15.2149 10.1401 14.9625 10.067 14.7616 9.91161L14.6667 9.82861L12.5474 7.70561C12.3754 7.53329 12.2722 7.30413 12.2571 7.0611C12.242 6.81808 12.3161 6.5779 12.4654 6.38561L12.5484 6.29161L14.6677 4.17261Z" fill="black"/>
</svg>
