<svg width="24" height="24" viewBox="0 0 24 24" fill="none" xmlns="http://www.w3.org/2000/svg">
<path d="M11.6765 2.00061C10.8576 2.00061 10.2143 2.67458 10.2143 3.47269C10.2143 4.27374 10.8808 4.94477 11.6765 4.94477C12.1039 4.94477 12.4685 4.76014 12.7322 4.4744H13.2967L12.8155 9.70655C12.6451 11.5941 11.0935 13.0235 9.19828 13.0235C7.30561 13.0235 5.7712 11.5964 5.5809 9.70499L5.09984 4.4744H5.66438C5.92802 4.76014 6.29268 4.94477 6.72004 4.94477C7.53893 4.94477 8.18224 4.2708 8.18224 3.47269C8.18224 2.66869 7.53307 2.02106 6.72004 2.02106C6.29268 2.02106 5.92802 2.20569 5.66438 2.49143H3.99805C3.72589 2.49143 3.44784 2.60116 3.25112 2.8275L3.24458 2.83503L3.23862 2.84303C3.09127 3.04083 2.9758 3.31081 3.00436 3.60136L3.59337 9.94022C3.8416 12.5226 5.75646 14.5177 8.20329 14.9669V16.193C8.20329 19.3861 10.7786 22.0006 13.9719 22.0006C17.1646 22.0006 19.7406 19.4072 19.7406 16.193V15.1148C20.4807 14.7328 21 13.9493 21 13.0436C21 11.7722 19.9881 10.7535 18.7253 10.7535C17.4624 10.7535 16.4505 11.7722 16.4505 13.0436C16.4505 13.9482 16.9693 14.7343 17.7303 15.1001V16.1725C17.7303 18.255 16.0404 19.9563 13.9719 19.9563C11.9034 19.9563 10.2136 18.255 10.2136 16.1725V14.9482C12.6626 14.5161 14.5756 12.499 14.8236 9.91892L15.4126 3.58001C15.4398 3.30413 15.3567 3.02677 15.1657 2.80705C14.969 2.58071 14.691 2.47098 14.4188 2.47098H12.7322C12.4685 2.18524 12.1039 2.00061 11.6765 2.00061Z" fill="black"/>
<path d="M8.69044 5.72262C8.42292 5.72262 8.20329 5.94374 8.20329 6.21307V7.27687H7.1248L7.10327 7.28048C6.98551 7.30024 6.8803 7.35833 6.80272 7.43643C6.72681 7.51287 6.65947 7.6279 6.65947 7.76732V8.8103C6.65947 9.07963 6.8791 9.30075 7.14662 9.30075H8.20329V10.3646C8.20329 10.6339 8.42292 10.855 8.69044 10.855H9.72643C9.99395 10.855 10.2136 10.6339 10.2136 10.3646V9.30075H11.2702C11.5378 9.30075 11.7574 9.07963 11.7574 8.8103V7.76732C11.7574 7.49799 11.5378 7.27687 11.2702 7.27687H10.2136V6.21307C10.2136 5.94374 9.99395 5.72262 9.72643 5.72262H8.69044Z" fill="black"/>
</svg>
