<svg width="24" height="24" viewBox="0 0 24 24" fill="none" xmlns="http://www.w3.org/2000/svg">
<path fill-rule="evenodd" clip-rule="evenodd" d="M12 2.00061C7.58172 2.00061 4 5.61184 4 10.0665C4 14.1622 7.02774 17.5449 10.9496 18.0635V19.8823H7.49175C6.91161 19.8823 6.44132 20.3564 6.44132 20.9414C6.44132 21.5263 6.91161 22.0005 7.49175 22.0005H16.5084C17.0885 22.0005 17.5588 21.5263 17.5588 20.9414C17.5588 20.3564 17.0885 19.8823 16.5084 19.8823H13.0505V18.0635C16.9723 17.5449 20 14.1622 20 10.0665C20 5.61184 16.4183 2.00061 12 2.00061ZM6.04227 10.0665C6.04227 6.74904 8.70963 4.0597 12 4.0597C15.2904 4.0597 17.9577 6.74904 17.9577 10.0665C17.9577 13.384 15.2904 16.0733 12 16.0733C8.70963 16.0733 6.04227 13.384 6.04227 10.0665Z" fill="black"/>
</svg>
