<svg width="24" height="24" viewBox="0 0 24 24" fill="none" xmlns="http://www.w3.org/2000/svg">
<path fill-rule="evenodd" clip-rule="evenodd" d="M7.14375 2.00061C6.87081 2.00061 6.62123 2.09286 6.43919 2.27495C6.25717 2.45702 6.16499 2.70658 6.16499 2.97945V4.79224C4.96953 4.92693 4.08372 5.90288 4.08372 7.14306V7.56798C2.88825 7.70267 2.00244 8.67862 2.00244 9.9188V19.6339C2.00244 20.9708 3.03177 22.0006 4.36872 22.0006H9.91879C11.2557 22.0006 12.2851 20.9708 12.2851 19.6339V9.9188C12.2851 8.67862 11.3993 7.70267 10.2038 7.56798V7.14306C10.2038 5.90288 9.31797 4.92693 8.12251 4.79224V3.95829H9.91879C10.1917 3.95829 10.4413 3.86604 10.6233 3.68396C10.8054 3.50189 10.8975 3.25233 10.8975 2.97945C10.8975 2.70658 10.8054 2.45702 10.6233 2.27495C10.4413 2.09286 10.1917 2.00061 9.91879 2.00061H7.14375ZM6.04124 7.14306C6.04124 6.99958 6.08781 6.90217 6.1486 6.84136C6.20938 6.78057 6.30668 6.73404 6.44999 6.73404H7.83751C7.98082 6.73404 8.07813 6.78057 8.1389 6.84136C8.19969 6.90217 8.24627 6.99958 8.24627 7.14306V7.55209H6.04124V7.14306ZM3.95996 9.9188C3.95996 9.77532 4.00654 9.67791 4.06733 9.6171C4.1281 9.55631 4.22541 9.50978 4.36872 9.50978H9.91879C10.0621 9.50978 10.1594 9.55631 10.2202 9.6171C10.281 9.67791 10.3275 9.77532 10.3275 9.9188V19.6339C10.3275 19.7774 10.281 19.8748 10.2202 19.9356C10.1594 19.9964 10.0621 20.0429 9.91879 20.0429H4.36872C4.22541 20.0429 4.1281 19.9964 4.06733 19.9356C4.00654 19.8748 3.95996 19.7774 3.95996 19.6339V9.9188ZM16.1626 11.5472C15.8545 11.5472 15.5947 11.6122 15.3894 11.7572C15.182 11.9036 15.0623 12.1087 14.993 12.3272C14.9252 12.5411 14.9016 12.7804 14.8929 13.0167C14.8866 13.1855 14.8878 13.3673 14.889 13.5471L14.8894 13.612L14.079 14.2007L14.0657 14.2132C13.645 14.6102 13.3426 15.1589 13.3426 15.736V19.9218C13.3426 21.1109 14.3098 22.0006 15.5289 22.0006H16.7964C18.0154 22.0006 18.9826 21.1109 18.9826 19.9218V15.736C18.9826 15.1727 18.6911 14.5509 18.2402 14.1963L17.4359 13.612L17.4363 13.5471V13.5471V13.5471V13.547C17.4374 13.3673 17.4386 13.1855 17.4323 13.0167C17.4236 12.7804 17.4 12.5411 17.3322 12.3272C17.2629 12.1087 17.1432 11.9036 16.9359 11.7572C16.7305 11.6122 16.4707 11.5472 16.1626 11.5472ZM15.1801 15.736C15.1801 15.6264 15.2171 15.5548 15.265 15.5096C15.3144 15.463 15.3987 15.4229 15.5289 15.4229H16.7964C16.9265 15.4229 17.0108 15.463 17.0602 15.5096C17.1081 15.5548 17.1451 15.6264 17.1451 15.736V19.9218C17.1451 20.0313 17.1081 20.1029 17.0602 20.1481C17.0108 20.1947 16.9265 20.2348 16.7964 20.2348H15.5289C15.3987 20.2348 15.3144 20.1947 15.265 20.1481C15.2171 20.1029 15.1801 20.0313 15.1801 19.9218V15.736ZM21.0189 2.00061C20.7459 2.00061 20.4963 2.09286 20.3143 2.27495C20.1981 2.39115 20.1186 2.53485 20.0762 2.69455H18.2438C17.9709 2.69455 17.7213 2.7868 17.5393 2.96888C17.3573 3.15095 17.2651 3.40051 17.2651 3.67339V8.53093C17.2651 8.80381 17.3573 9.05337 17.5393 9.23544C17.7213 9.41752 17.9709 9.50978 18.2438 9.50978H20.0401V21.0218C20.0401 21.2946 20.1323 21.5442 20.3143 21.7263C20.4963 21.9084 20.7459 22.0006 21.0189 22.0006C21.2918 22.0006 21.5414 21.9084 21.7234 21.7263C21.9055 21.5442 21.9976 21.2946 21.9976 21.0218V2.97945C21.9976 2.70658 21.9055 2.45702 21.7234 2.27495C21.5414 2.09286 21.2918 2.00061 21.0189 2.00061ZM19.2226 7.55209V4.65223H20.0401V7.55209H19.2226Z" fill="black"/>
</svg>
