<svg width="24" height="24" viewBox="0 0 24 24" fill="none" xmlns="http://www.w3.org/2000/svg">
<path fill-rule="evenodd" clip-rule="evenodd" d="M15.8246 3.03061C15.888 2.47611 16.3832 2.07868 16.9307 2.14292C19.1876 2.40776 20.8462 3.94818 21.123 5.86848C21.3261 7.27758 20.763 8.64978 19.5104 9.66321C20.8435 10.5431 22.0083 12.2965 22.0083 15.6367C22.0083 16.195 21.5615 16.6475 21.0104 16.6475C20.4593 16.6475 20.0126 16.195 20.0126 15.6367C20.0126 12.6714 18.9691 11.6663 18.2804 11.2702C17.8926 11.0471 17.5188 10.9605 17.2543 10.912C17.2204 10.9058 17.1885 10.9002 17.1561 10.8946L17.1491 10.8933C17.1205 10.8884 17.088 10.8827 17.0585 10.8773L17.0541 10.8765L17.0541 10.8765C17.0228 10.8711 16.8638 10.8436 16.7189 10.7771C16.6694 10.7544 16.5715 10.7055 16.4688 10.6162C16.3664 10.5271 16.1944 10.34 16.1353 10.0389C16.0722 9.71723 16.1733 9.45132 16.2746 9.29031C16.366 9.14521 16.4721 9.05744 16.524 9.01777C16.6286 8.9378 16.7295 8.89264 16.7648 8.87699C16.8145 8.85495 16.8632 8.83658 16.9023 8.8225C18.8502 8.12113 19.2627 6.95482 19.1482 6.16055C19.022 5.28512 18.2046 4.32738 16.701 4.15094C16.1536 4.0867 15.7612 3.58511 15.8246 3.03061ZM17.3838 8.88177C17.3842 8.88172 17.3904 8.88296 17.401 8.88562C17.3886 8.88314 17.3833 8.88181 17.3838 8.88177ZM2.0083 20.1147C2.0083 18.9982 2.90181 18.0932 4.00402 18.0932H14.9915V22.1361H4.00402C2.90181 22.1361 2.0083 21.2311 2.0083 20.1147ZM16.2833 18.0932H18.7147V22.1361H16.2833V18.0932ZM21.9572 18.0932H19.5259V22.1361H21.9572V18.0932ZM13.3439 11.6334C12.5245 11.5951 12.0348 11.3055 11.7627 10.9949C11.4851 10.678 11.3615 10.259 11.4108 9.82061C11.5032 8.99817 12.2728 7.92671 14.1835 7.92671C14.7346 7.92671 15.1813 7.47419 15.1813 6.91598C15.1813 6.35778 14.7346 5.90526 14.1835 5.90526C11.4127 5.90526 9.65176 7.59971 9.42788 9.592C9.319 10.5609 9.59087 11.5615 10.2701 12.3367C10.9548 13.1183 11.9835 13.5934 13.2518 13.6527C14.7465 13.7226 15.3542 14.17 15.5966 14.4782C15.85 14.8007 15.864 15.1712 15.8097 15.3899C15.675 15.9312 15.9991 16.4805 16.5336 16.6169C17.068 16.7532 17.6103 16.4249 17.7449 15.8836C17.9225 15.1694 17.867 14.1213 17.1578 13.2191C16.4375 12.3028 15.1895 11.7197 13.3439 11.6334Z" fill="black"/>
</svg>
