<svg width="24" height="24" viewBox="0 0 24 24" fill="none" xmlns="http://www.w3.org/2000/svg">
<path d="M3 3.00061C3 2.45061 3.196 1.97961 3.588 1.58761C3.98 1.19561 4.45066 0.999945 5 1.00061L19 1.00061C19.55 1.00061 20.021 1.19661 20.413 1.58861C20.805 1.98061 21.0007 2.45128 21 3.00061V21.0006C21 21.5506 20.804 22.0216 20.412 22.4136C20.02 22.8056 19.5493 23.0013 19 23.0006H5C4.45 23.0006 3.979 22.8046 3.587 22.4126C3.195 22.0206 2.99933 21.5499 3 21.0006V3.00061ZM5 3.00061V21.0006H19V3.00061L5 3.00061ZM7 5.00061V15.0006H17V5.00061L7 5.00061ZM7 18.0006C7 18.2839 7.096 18.5216 7.288 18.7136C7.48 18.9056 7.71733 19.0013 8 19.0006C8.28333 19.0006 8.521 18.9046 8.713 18.7126C8.905 18.5206 9.00066 18.2833 9 18.0006C9 17.7173 8.904 17.4796 8.712 17.2876C8.52 17.0956 8.28266 16.9999 8 17.0006C7.71666 17.0006 7.479 17.0966 7.287 17.2886C7.095 17.4806 6.99933 17.7179 7 18.0006ZM9 7.00061L15 7.00061V13.0006H9V7.00061ZM11 18.0006C11 18.2839 11.096 18.5216 11.288 18.7136C11.48 18.9056 11.7173 19.0013 12 19.0006C12.2833 19.0006 12.521 18.9046 12.713 18.7126C12.905 18.5206 13.0007 18.2833 13 18.0006C13 17.7173 12.904 17.4796 12.712 17.2876C12.52 17.0956 12.2827 16.9999 12 17.0006C11.7167 17.0006 11.479 17.0966 11.287 17.2886C11.095 17.4806 10.9993 17.7179 11 18.0006ZM15 18.0006C15 18.2839 15.096 18.5216 15.288 18.7136C15.48 18.9056 15.7173 19.0013 16 19.0006C16.2833 19.0006 16.521 18.9046 16.713 18.7126C16.905 18.5206 17.0007 18.2833 17 18.0006C17 17.7173 16.904 17.4796 16.712 17.2876C16.52 17.0956 16.2827 16.9999 16 17.0006C15.7167 17.0006 15.479 17.0966 15.287 17.2886C15.095 17.4806 14.9993 17.7179 15 18.0006Z" fill="black"/>
</svg>
