<svg width="24" height="24" viewBox="0 0 24 24" fill="none" xmlns="http://www.w3.org/2000/svg">
<path fill-rule="evenodd" clip-rule="evenodd" d="M20.0363 3.57042C18.0093 1.46311 14.4271 1.55985 12.0192 3.41316C9.61633 1.53128 5.9882 1.5021 3.99874 3.57042C2.81346 4.80269 2.15251 6.7295 2.03516 8.6507C1.91773 10.5731 2.3382 12.5947 3.44144 14.0192L3.44795 14.0276L3.45481 14.0357C3.54092 14.1374 3.62677 14.2373 3.71239 14.3352C2.83568 14.8624 2.25495 15.8425 2.25495 16.9526V20.9942L3.71885 20.9938L3.7191 22.0087H5.67586L5.67562 20.9937H18.3591L18.3594 22.0087H20.3162L20.3159 20.9938L21.7801 20.9942V16.9526C21.7801 15.8102 21.1792 14.851 20.3225 14.3361C20.4038 14.2432 20.485 14.1488 20.5661 14.0531L20.5746 14.0431L20.5826 14.0326C21.6877 12.5767 22.1132 10.5547 21.9978 8.63425C21.8825 6.716 21.2214 4.80254 20.0363 3.57042ZM20.0468 8.75555C20.1328 10.1619 19.8573 11.5567 19.2221 12.5466C18.8624 11.2747 17.7233 10.3743 16.4096 10.3743L13.9695 10.3743L13.9682 10.3743C13.1978 10.3765 12.5193 10.6847 12.0188 11.1447C11.5026 10.6679 10.819 10.3743 10.0655 10.3743H7.62542C6.25506 10.3743 5.1628 11.3271 4.81306 12.556C4.17622 11.5949 3.89763 10.1947 3.98675 8.76971C4.08265 7.23629 4.59661 5.79809 5.39598 4.96703C6.0858 4.24987 7.13317 3.9248 8.25023 4.00999C9.36574 4.09507 10.5011 4.58808 11.3189 5.43832L12.0175 6.16464L12.7161 5.43832L12.7172 5.43724C13.5423 4.57414 14.683 4.08861 15.7998 4.01056C16.9195 3.9323 17.9636 4.26479 18.639 4.96703C19.4401 5.79979 19.9533 7.22717 20.0468 8.75555ZM6.65176 13.4011C6.65176 12.8002 7.12357 12.369 7.62542 12.369H10.0651C10.6173 12.3694 11.0391 12.8475 11.0391 13.4011V13.9258H6.65176V13.4011ZM12.9959 13.4011C12.9959 12.7905 13.4651 12.369 13.9695 12.369H16.4096C16.9573 12.369 17.3833 12.8483 17.3833 13.4011V13.9258H12.9959V13.4011ZM5.18537 15.9205L18.8468 15.9201C19.4145 15.9211 19.8233 16.3959 19.8233 16.9526V18.9993H4.21172V16.9526C4.21172 16.3562 4.68474 15.9205 5.18537 15.9205Z" fill="black"/>
</svg>
