<svg width="24" height="24" viewBox="0 0 24 24" fill="none" xmlns="http://www.w3.org/2000/svg">
<path fill-rule="evenodd" clip-rule="evenodd" d="M4.00161 5.50222V18.4993H19.9984V5.50222H4.00161ZM2 5.25135C2 4.28444 2.78383 3.50061 3.75074 3.50061H20.2493C21.2162 3.50061 22 4.28444 22 5.25135V18.7501C22 19.717 21.2162 20.5009 20.2493 20.5009H3.75074C2.78383 20.5009 2 19.717 2 18.7501V5.25135Z" fill="black"/>
<path fill-rule="evenodd" clip-rule="evenodd" d="M8.26455 12.2262L3.75667 16.7341C3.36614 17.1246 2.73298 17.1246 2.34245 16.7341C1.95193 16.3436 1.95193 15.7104 2.34245 15.3199L7.03065 10.6317C7.19269 10.4697 7.38505 10.3411 7.59677 10.2534C7.80848 10.1657 8.0354 10.1206 8.26455 10.1206C8.49371 10.1206 8.72062 10.1657 8.93234 10.2534C9.14405 10.3411 9.33642 10.4697 9.49845 10.6317L13.4796 14.6128L15.2257 12.8667C15.3877 12.7047 15.5801 12.5761 15.7918 12.4884C16.0035 12.4007 16.2304 12.3556 16.4596 12.3556C16.6887 12.3556 16.9156 12.4007 17.1273 12.4884C17.3391 12.5761 17.5314 12.7047 17.6935 12.8667L21.6367 16.8099C22.0272 17.2004 22.0272 17.8336 21.6367 18.2241C21.2461 18.6147 20.613 18.6147 20.2225 18.2241L16.4596 14.4612L14.7135 16.2073C14.5514 16.3694 14.3591 16.4979 14.1473 16.5856C13.9356 16.6733 13.7087 16.7184 13.4796 16.7184C13.2504 16.7184 13.0235 16.6733 12.8118 16.5856C12.6001 16.4979 12.4077 16.3694 12.2457 16.2073L8.26455 12.2262Z" fill="black"/>
<path d="M14.5064 11.5356C15.3293 11.5356 15.9964 10.8685 15.9964 10.0456C15.9964 9.22268 15.3293 8.55558 14.5064 8.55558C13.6835 8.55558 13.0164 9.22268 13.0164 10.0456C13.0164 10.8685 13.6835 11.5356 14.5064 11.5356Z" fill="black"/>
</svg>
