<svg width="24" height="24" viewBox="0 0 24 24" fill="none" xmlns="http://www.w3.org/2000/svg">
<path d="M22 9.00061C22 8.44833 21.5523 8.00061 21 8.00061H18V5.00061C18 3.34061 16.66 2.00061 15 2.00061C13.34 2.00061 12 3.34061 12 5.00061H14C14 4.45061 14.45 4.00061 15 4.00061C15.55 4.00061 16 4.45061 16 5.00061V8.00061H8C9.1 8.00061 10 7.10061 10 6.00061V2.00061H4V6.00061C4 7.10061 4.9 8.00061 6 8.00061H3C2.44772 8.00061 2 8.44833 2 9.00061V9.00061C2 9.5529 2.44772 10.0006 3 10.0006H4V21.0006C4 21.5529 4.44772 22.0006 5 22.0006H19C19.5523 22.0006 20 21.5529 20 21.0006V10.0006H21C21.5523 10.0006 22 9.5529 22 9.00061V9.00061ZM6 4.00061H8V6.00061H6V4.00061ZM6 20.0006V10.0006H11V20.0006H6ZM18 20.0006H13V10.0006H18V20.0006Z" fill="black"/>
</svg>
