<svg width="24" height="24" viewBox="0 0 24 24" fill="none" xmlns="http://www.w3.org/2000/svg">
<path d="M17 20.0006H7V21.0006C7 21.5529 6.55228 22.0006 6 22.0006H5C4.44772 22.0006 4 21.5529 4 21.0006V20.0006H3V12.0006H2V8.00061H3V5.00061C3 3.89604 3.89543 3.00061 5 3.00061H19C20.1046 3.00061 21 3.89604 21 5.00061V8.00061H22V12.0006H21V20.0006H20V21.0006C20 21.5529 19.5523 22.0006 19 22.0006H18C17.4477 22.0006 17 21.5529 17 21.0006V20.0006ZM19 12.0006V5.00061H5V12.0006H19ZM19 14.0006H5V18.0006H19V14.0006ZM6 15.0006H10V17.0006H6V15.0006ZM14 15.0006H18V17.0006H14V15.0006Z" fill="black"/>
</svg>
