<svg width="24" height="24" viewBox="0 0 24 24" fill="none" xmlns="http://www.w3.org/2000/svg">
<path fill-rule="evenodd" clip-rule="evenodd" d="M20 4.00061H4V20.0006H20V4.00061ZM4 2.00061C2.89543 2.00061 2 2.89604 2 4.00061V20.0006C2 21.1052 2.89543 22.0006 4 22.0006H20C21.1046 22.0006 22 21.1052 22 20.0006V4.00061C22 2.89604 21.1046 2.00061 20 2.00061H4Z" fill="black"/>
<path d="M15.0093 6.23503C15.4094 6.22642 15.8049 6.32189 16.1569 6.51208C16.509 6.70227 16.8057 6.98066 17.0178 7.31998C17.2299 7.6593 17.3503 8.04791 17.367 8.44773C17.3838 8.84754 17.2964 9.24486 17.1134 9.60074C16.9998 9.82166 16.8518 10.0219 16.6758 10.1944L18.8526 11.5452C19.3805 11.8883 19.5657 12.5977 19.2139 13.1451C18.995 13.5102 18.6141 13.6968 18.229 13.6968C18.0201 13.6968 17.803 13.6446 17.609 13.5206L16.7689 12.9996L17.6977 16.2749C17.873 16.8952 17.5093 17.5406 16.8906 17.7155L16.8818 17.718C16.7788 17.7437 16.6743 17.7568 16.569 17.7568C16.0553 17.7568 15.598 17.4183 15.4509 16.9102L15.4504 16.9086L15.0391 15.457L14.6277 16.9086L14.6272 16.9102C14.4801 17.4183 14.0228 17.7568 13.509 17.7568C13.4038 17.7568 13.2993 17.7436 13.1963 17.7178L13.1872 17.7156C12.8896 17.6312 12.6376 17.4323 12.4863 17.1625C12.3351 16.8927 12.2969 16.5739 12.3801 16.276L12.3804 16.2749L13.3375 12.9006L11.9984 13.6811C11.8107 13.791 11.3946 13.922 10.909 13.7339L10.2974 13.4893L11.2443 16.2238C11.4421 16.8304 11.1306 17.4879 10.5269 17.697C10.3859 17.7563 10.2435 17.7668 10.139 17.7668C9.65483 17.7668 9.19737 17.4589 9.0348 16.9727L9.03444 16.9717L8.60905 15.7255L8.18126 16.9787C8.00955 17.4542 7.56899 17.7668 7.07905 17.7668H7.07493C6.89032 17.7643 6.7089 17.7183 6.54536 17.6326C6.38182 17.5469 6.24074 17.4239 6.13355 17.2736C6.02637 17.1233 5.95608 16.9498 5.92838 16.7673C5.90068 16.5848 5.91635 16.3983 5.97411 16.2229L5.97512 16.2199L6.69481 14.1117L6.38341 14.3041C6.18735 14.4217 5.98408 14.4768 5.76905 14.4768C5.38937 14.4768 5.00207 14.2767 4.78534 13.9269C4.70181 13.797 4.64579 13.6513 4.62076 13.4989C4.59555 13.3453 4.60233 13.1882 4.64067 13.0374C4.67902 12.8865 4.7481 12.7453 4.8436 12.6224C4.93714 12.502 5.05403 12.4019 5.18723 12.3279L7.00307 11.1951C6.76452 10.9615 6.57812 10.6776 6.45872 10.362C6.28568 9.90452 6.26229 9.40396 6.39192 8.93237C6.52156 8.46079 6.79753 8.04251 7.18008 7.7378C7.56264 7.43308 8.03204 7.25765 8.52067 7.23677C9.00931 7.21589 9.49196 7.35063 9.89912 7.6216C10.3063 7.89257 10.6169 8.28577 10.7863 8.74458C10.9557 9.20339 10.9751 9.70412 10.8417 10.1747C10.7537 10.4854 10.602 10.7723 10.3983 11.0182L11.3435 11.3938L13.4179 10.1751C13.0027 9.7584 12.749 9.1844 12.749 8.54679C12.7487 8.14674 12.8522 7.75344 13.0494 7.4054C13.2468 7.05727 13.5311 6.76637 13.8747 6.5612C14.2183 6.35604 14.6093 6.24364 15.0093 6.23503Z" fill="black"/>
</svg>
