<svg width="24" height="24" viewBox="0 0 24 24" fill="none" xmlns="http://www.w3.org/2000/svg">
<path d="M4 22.0006C3.45 22.0006 2.979 21.7943 2.587 21.3817C2.195 20.969 1.99934 20.4736 2 19.8953V8.3164C2 7.73745 2.196 7.24166 2.588 6.82903C2.98 6.4164 3.45067 6.21044 4 6.21114H8V4.10587C8 3.52693 8.196 3.03114 8.588 2.61851C8.98 2.20588 9.45067 1.99991 10 2.00061H14C14.55 2.00061 15.021 2.20693 15.413 2.61956C15.805 3.03219 16.0007 3.52763 16 4.10587V6.21114H20C20.55 6.21114 21.021 6.41745 21.413 6.83008C21.805 7.24272 22.0007 7.73816 22 8.3164V19.8953C22 20.4743 21.804 20.9701 21.412 21.3827C21.02 21.7953 20.5493 22.0013 20 22.0006H4ZM10 6.21114H14V4.10587H10V6.21114ZM20 15.6848H15V16.7375C15 17.0357 14.904 17.2859 14.712 17.488C14.52 17.6901 14.2827 17.7908 14 17.7901H10C9.71667 17.7901 9.479 17.689 9.287 17.4869C9.095 17.2848 8.99934 17.035 9 16.7375V15.6848H4V19.8953H20V15.6848ZM11 15.6848H13V13.5796H11V15.6848ZM4 13.5796H9V12.5269C9 12.2287 9.096 11.9785 9.288 11.7764C9.48 11.5743 9.71734 11.4736 10 11.4743H14C14.2833 11.4743 14.521 11.5753 14.713 11.7775C14.905 11.9796 15.0007 12.2294 15 12.5269V13.5796H20V8.3164H4V13.5796Z" fill="black"/>
</svg>
