<svg width="24" height="24" viewBox="0 0 24 24" fill="none" xmlns="http://www.w3.org/2000/svg">
<path d="M18.4928 6.83899C17.6456 3.96883 15.0305 2.00061 11.9846 2.00061C8.23131 2.00061 5.17745 5.05158 5.17745 8.80054C5.17745 8.87148 5.17949 8.94258 5.18231 9.01493C3.33029 9.49519 2 11.1764 2 13.153C2 15.5105 3.92093 17.4289 6.2827 17.4289C6.63223 17.4289 6.91552 17.1456 6.91552 16.796C6.91552 16.4465 6.63223 16.1632 6.2827 16.1632C4.61904 16.1632 3.26629 14.8131 3.26629 13.1539C3.26629 11.6126 4.41376 10.3266 5.93539 10.1621C6.10631 10.1439 6.26232 10.0566 6.3678 9.92023C6.47264 9.78446 6.51831 9.61151 6.49367 9.44073C6.46056 9.21645 6.44439 9.00125 6.44439 8.80164C6.44439 5.75007 8.92999 3.26776 11.9851 3.26776C14.5873 3.26776 16.803 5.03126 17.3727 7.55608C17.4339 7.82745 17.6653 8.02726 17.9429 8.04763C20.0432 8.20584 21.6885 9.98893 21.6885 12.1061C21.6885 13.1588 21.2849 14.1565 20.5522 14.9138C20.309 15.1648 20.3152 15.5656 20.567 15.8083C20.8187 16.0509 21.2202 16.0459 21.4614 15.7935C22.424 14.7986 22.955 13.4887 22.955 12.1055C22.9536 9.48448 21.0284 7.25389 18.4931 6.83843L18.4928 6.83899Z" fill="black"/>
<path d="M11.2752 4.51787C9.93919 4.73792 8.76568 5.58873 8.13491 6.79318C7.97325 7.10253 8.09269 7.48502 8.40282 7.64747C8.49636 7.69596 8.59618 7.71982 8.69537 7.71982C8.92327 7.71982 9.14393 7.59615 9.25724 7.38018C9.70375 6.52654 10.5356 5.92321 11.4812 5.76643C11.8265 5.70945 12.0593 5.38394 12.0023 5.03942C11.946 4.69366 11.6189 4.45539 11.2752 4.51787Z" fill="black"/>
<path d="M16.9045 14.0235H10.7153C10.3658 14.0235 10.0825 14.3068 10.0825 14.6563C10.0825 15.0058 10.3658 15.2891 10.7153 15.2891H16.9045C17.9241 15.2891 18.7545 14.4587 18.7545 13.4391C18.7545 12.4196 17.9241 11.59 16.9045 11.59C16.283 11.59 15.7064 11.9015 15.3619 12.4232C15.1699 12.7143 15.2493 13.1073 15.5411 13.3001C15.8322 13.4914 16.226 13.4112 16.418 13.1208C16.5269 12.9556 16.7097 12.8565 16.9045 12.8565C17.2266 12.8565 17.488 13.1182 17.488 13.4395C17.488 13.762 17.2264 14.0235 16.9045 14.0235H16.9045Z" fill="black"/>
<path d="M14.4288 18.3021H10.1943C9.84482 18.3021 9.56152 18.5854 9.56152 18.9349C9.56152 19.2844 9.84482 19.5677 10.1943 19.5677H14.4686C14.4785 19.5677 14.4882 19.5671 14.4981 19.5671C14.8068 19.5818 15.0544 19.8378 15.0544 20.1506C15.0544 20.4727 14.7921 20.7341 14.47 20.7341C14.2732 20.7341 14.0904 20.6357 13.9806 20.4704C13.7887 20.1793 13.3963 20.0993 13.1038 20.2926C12.8126 20.4854 12.7332 20.8784 12.926 21.1695C13.2698 21.6892 13.8477 22.0006 14.47 22.0006C15.4902 22.0006 16.3207 21.1701 16.3207 20.1506C16.3208 19.1171 15.4736 18.2501 14.4286 18.302L14.4288 18.3021Z" fill="black"/>
<path d="M10.2239 16.7974C10.2239 16.4478 9.94059 16.1646 9.59106 16.1646H8.6974C8.34787 16.1646 8.06458 16.4478 8.06458 16.7974C8.06458 17.1469 8.34787 17.4302 8.6974 17.4302H9.59106C9.94059 17.431 10.2239 17.1469 10.2239 16.7974Z" fill="black"/>
<path d="M18.4684 16.1646H11.7963C11.4467 16.1646 11.1635 16.4478 11.1635 16.7974C11.1635 17.1469 11.4467 17.4302 11.7963 17.4302H18.4684C18.7897 17.4302 19.0513 17.6918 19.0513 18.0131C19.0513 18.3344 18.7897 18.596 18.4684 18.596C18.2708 18.596 18.0866 18.4968 17.9769 18.3317C17.7841 18.0406 17.3926 17.9612 17.1 18.1539C16.8089 18.3466 16.7294 18.7396 16.9222 19.0308C17.2667 19.5511 17.8454 19.8626 18.4684 19.8626C19.488 19.8626 20.3176 19.033 20.3176 18.0134C20.3176 16.9936 19.488 16.1646 18.4684 16.1646Z" fill="black"/>
</svg>
