<svg width="24" height="24" viewBox="0 0 24 24" fill="none" xmlns="http://www.w3.org/2000/svg">
<path fill-rule="evenodd" clip-rule="evenodd" d="M12.0004 2.00061C9.72617 2.00061 8.03301 3.12706 7.94052 3.19023C7.6671 3.37549 7.5034 3.68806 7.5034 4.02132V9.57132C7.5034 11.3168 8.53102 12.8221 10.0154 13.5439C10.615 13.8355 11.2893 13.9992 12.0004 13.9992C12.7032 13.9992 13.37 13.8393 13.9644 13.554C15.4601 12.8363 16.4974 11.3251 16.4974 9.57132V4.02132C16.4974 3.68735 16.3338 3.37624 16.0609 3.19065C15.9757 3.13229 14.2799 2.00061 12.0004 2.00061ZM9.46975 6.28632V4.60991C9.9881 4.35505 10.9094 3.99918 12.0004 3.99918C13.0819 3.99918 14.0083 4.3568 14.5311 4.61201V6.28632H9.46975ZM9.46975 9.57132V8.2849H14.5311V9.57132C14.5311 10.8975 13.4096 12.0006 12.0004 12.0006C10.5912 12.0006 9.46975 10.8975 9.46975 9.57132Z" fill="black"/>
<path d="M16.4326 13.5604C16.7184 13.3941 17.0664 13.3855 17.3597 13.5341C17.3944 13.5518 17.4256 13.5767 17.438 13.5867C17.457 13.602 17.4787 13.6207 17.5018 13.6415C17.5485 13.6834 17.6083 13.7402 17.6789 13.8105C17.8204 13.9515 18.0098 14.1512 18.2307 14.4034C18.6725 14.9078 19.2434 15.6258 19.811 16.508C20.7427 17.9562 21.6756 19.8632 22 22.0043H19.9977C19.7436 20.6683 19.2093 19.3012 18.6228 18.1522C18.2658 17.4527 17.8927 16.8406 17.5585 16.3727C17.2926 16.0003 17.0646 15.7384 16.8987 15.5911L12.9836 17.8653V22.0043H11.0172V17.8653L7.10216 15.5911C6.93662 15.7382 6.70894 15.9998 6.44316 16.3719C6.10906 16.8397 5.73597 17.4516 5.37877 18.1512C4.79204 19.3002 4.25733 20.6677 4.00306 22.0043H2C2.31959 19.8743 3.23631 17.9838 4.15864 16.5435C4.73148 15.649 5.3103 14.9222 5.75877 14.412C5.98302 14.1569 6.17549 13.955 6.31932 13.8126C6.39108 13.7416 6.45185 13.6843 6.4992 13.6421C6.52271 13.6211 6.54453 13.6024 6.56373 13.5871C6.57623 13.5771 6.60663 13.5528 6.64116 13.5352C6.92076 13.3928 7.24876 13.3949 7.52561 13.5374C7.54013 13.5449 7.55451 13.5528 7.56874 13.561L12.0004 16.1352L16.4326 13.5604Z" fill="black"/>
<path fill-rule="evenodd" clip-rule="evenodd" d="M16.9125 18.2784C16.9125 17.8642 16.5821 17.5284 16.1746 17.5284C15.7671 17.5284 15.4367 17.8642 15.4367 18.2784V18.9553H14.7707C14.3632 18.9553 14.0328 19.2911 14.0328 19.7053C14.0328 20.1195 14.3632 20.4553 14.7707 20.4553H15.4367V21.1321C15.4367 21.5464 15.7671 21.8821 16.1746 21.8821C16.5821 21.8821 16.9125 21.5464 16.9125 21.1321V20.4553H17.5784C17.986 20.4553 18.3163 20.1195 18.3163 19.7053C18.3163 19.2911 17.986 18.9553 17.5784 18.9553H16.9125V18.2784Z" fill="black"/>
</svg>
