<svg width="24" height="24" viewBox="0 0 24 24" fill="none" xmlns="http://www.w3.org/2000/svg">
<ellipse cx="7.24231" cy="13.5932" rx="1.83044" ry="1.80309" fill="black"/>
<ellipse cx="5.16993" cy="8.95366" rx="0.968875" ry="0.954394" fill="black"/>
<ellipse cx="6.51856" cy="7.04497" rx="0.968875" ry="0.954394" fill="black"/>
<ellipse cx="7.86731" cy="5.13616" rx="0.968875" ry="0.954394" fill="black"/>
<ellipse cx="9.21595" cy="3.22734" rx="0.968875" ry="0.954394" fill="black"/>
<ellipse cx="11.9137" cy="2.95513" rx="0.968875" ry="0.954394" fill="black"/>
<ellipse cx="0.968875" cy="0.954394" rx="0.968875" ry="0.954394" transform="matrix(-1 0 0 1 20.9745 9.63586)" fill="black"/>
<ellipse cx="0.968875" cy="0.954394" rx="0.968875" ry="0.954394" transform="matrix(-1 0 0 1 19.6259 7.72705)" fill="black"/>
<ellipse cx="0.968875" cy="0.954394" rx="0.968875" ry="0.954394" transform="matrix(-1 0 0 1 18.2771 5.81824)" fill="black"/>
<ellipse cx="0.968875" cy="0.954394" rx="0.968875" ry="0.954394" transform="matrix(-1 0 0 1 16.9285 3.90955)" fill="black"/>
<ellipse cx="0.968875" cy="0.954394" rx="0.968875" ry="0.954394" transform="matrix(-1 0 0 1 15.5798 2.00073)" fill="black"/>
<path fill-rule="evenodd" clip-rule="evenodd" d="M3.00281 11.1652C3.55509 11.1652 4.00281 11.6222 4.00281 12.186V16.3783H9.67139V16.0795C9.67139 14.3882 11.0145 13.0171 12.6714 13.0171H19C20.6569 13.0171 22 14.3882 22 16.0795V20.9799C22 21.5437 21.5523 22.0007 21 22.0007C20.7498 22.0007 20.5211 21.907 20.3457 21.7519C20.1252 21.5647 19.9849 21.2825 19.9849 20.9668V19.4408C19.9849 18.877 19.5371 18.42 18.9849 18.42H4.00281V20.9669C4.00281 21.5307 3.55509 21.9877 3.00281 21.9877C2.45052 21.9877 2.00281 21.5307 2.00281 20.9669V12.186C2.00281 11.6222 2.45052 11.1652 3.00281 11.1652ZM20 16.5581V16.0795C20 15.5158 19.5523 15.0587 19 15.0587H12.6714C12.1191 15.0587 11.6714 15.5158 11.6714 16.0795V16.3783H18.9849C19.3412 16.3783 19.683 16.4418 20 16.5581Z" fill="black"/>
</svg>
