<svg width="24" height="24" viewBox="0 0 24 24" fill="none" xmlns="http://www.w3.org/2000/svg">
<path fill-rule="evenodd" clip-rule="evenodd" d="M2 3.94798C2 3.42476 2.41594 3.00061 2.92902 3.00061H21.071C21.5841 3.00061 22 3.42476 22 3.94798V11.3637C22 11.8869 21.5841 12.3111 21.071 12.3111H19.5493C19.0363 12.3111 18.6203 11.8869 18.6203 11.3637C18.6203 10.8405 19.0363 10.4164 19.5493 10.4164H20.142V4.89535H3.85804V10.4164H4.45066C4.96375 10.4164 5.37968 10.8405 5.37968 11.3637C5.37968 11.8869 4.96375 12.3111 4.45066 12.3111H2.92902C2.41594 12.3111 2 11.8869 2 11.3637V3.94798ZM15.3175 7.21545C16.3394 7.21545 17.197 7.98587 17.3061 9.00197L18.3565 18.7871C18.4835 19.9694 17.557 21.0006 16.368 21.0006H7.63208C6.44303 21.0006 5.51659 19.9694 5.64351 18.7871L6.69399 9.00197C6.80307 7.98588 7.66062 7.21545 8.68256 7.21545H15.3175ZM7.47843 19.1058H9.00195L9.72553 9.11019H8.55151L7.47843 19.1058ZM10.865 19.1058L11.5886 9.11019H15.4486L16.5216 19.1058H10.865ZM14.8918 15.5024C14.8918 14.9792 14.4758 14.5551 13.9627 14.5551C13.4497 14.5551 13.0337 14.9792 13.0337 15.5024V16.7375C13.0337 17.2607 13.4497 17.6849 13.9627 17.6849C14.4758 17.6849 14.8918 17.2607 14.8918 16.7375V15.5024Z" fill="black"/>
</svg>
