<svg width="24" height="24" viewBox="0 0 24 24" fill="none" xmlns="http://www.w3.org/2000/svg">
<path d="M2 2.00061H4V8.00061H10.5875V3.00061H18C20.2 3.00061 22 4.80061 22 7.00061V22.0006H20V20.0006H4V22.0006H2V2.00061ZM12.5875 5.00061V8.00061H20V7.00061C20 5.90061 19.1 5.00061 18 5.00061H12.5875ZM4 10.0006V18.0006H10.5875V13.0006H18C18.7 13.0006 19.4 13.2006 20 13.6006V10.0006H4ZM12.5875 15.0006V18.0006H20V17.0006C20 15.9006 19.1 15.0006 18 15.0006H12.5875Z" fill="black"/>
<path d="M9.33894 4.82635C9.33894 6.02662 8.36593 6.99963 7.16566 6.99963C5.96539 6.99963 4.99238 6.02662 4.99238 4.82635C4.99238 3.62609 5.96539 2.65308 7.16566 2.65308C8.36593 2.65308 9.33894 3.62609 9.33894 4.82635Z" fill="black"/>
<path d="M9.33894 14.8264C9.33894 16.0266 8.36593 16.9996 7.16566 16.9996C5.96539 16.9996 4.99238 16.0266 4.99238 14.8264C4.99238 13.6261 5.96539 12.6531 7.16566 12.6531C8.36593 12.6531 9.33894 13.6261 9.33894 14.8264Z" fill="black"/>
</svg>
