<svg width="24" height="24" viewBox="0 0 24 24" fill="none" xmlns="http://www.w3.org/2000/svg">
<path fill-rule="evenodd" clip-rule="evenodd" d="M3.20349 1.94775C2.53961 1.94775 2.00144 2.48333 2.00144 3.14399V9.38401C2.00144 10.0447 2.53962 10.5802 3.20349 10.5802H13.598C14.1155 10.5802 14.5414 10.1897 14.5942 9.68853L15.0486 9.89048V13.0124H12.3039C11.64 13.0124 11.1018 13.5479 11.1018 14.2086V19.2972C11.1018 19.9578 11.64 20.4934 12.3039 20.4934H20.7979C21.4618 20.4934 22 19.9578 22 19.2972V14.2086C22 14.2062 22 14.2038 22 14.2014V9.44331C22 8.78264 21.4618 8.24707 20.7979 8.24707H16.2638L14.5996 7.50738C14.5997 7.50179 14.5997 7.49618 14.5997 7.49057V3.14399C14.5997 2.48332 14.0615 1.94775 13.3976 1.94775H3.20349ZM12.5963 6.617V3.94147H4.00486V8.58652H12.1148L9.76849 7.54368C9.26335 7.31917 9.03675 6.72965 9.26236 6.22696C9.48797 5.72427 10.0804 5.49876 10.5855 5.72328L12.5963 6.617ZM19.9966 13.0124V10.2408H17.052V13.0124H19.9966ZM13.1052 18.4997V15.0061H19.9966V18.4997H13.1052ZM18.5982 5.96219C19.1443 5.96219 19.587 5.52163 19.587 4.97818C19.587 4.43472 19.1443 3.99416 18.5982 3.99416C18.0521 3.99416 17.6094 4.43472 17.6094 4.97818C17.6094 5.52163 18.0521 5.96219 18.5982 5.96219ZM18.5982 7.95591C20.2508 7.95591 21.5904 6.62273 21.5904 4.97818C21.5904 3.33362 20.2508 2.00044 18.5982 2.00044C16.9457 2.00044 15.606 3.33362 15.606 4.97818C15.606 6.62273 16.9457 7.95591 18.5982 7.95591ZM6.98417 14.9468C6.98417 15.4902 6.54147 15.9308 5.99537 15.9308C5.44927 15.9308 5.00657 15.4902 5.00657 14.9468C5.00657 14.4033 5.44927 13.9628 5.99537 13.9628C6.54147 13.9628 6.98417 14.4033 6.98417 14.9468ZM8.98759 14.9468C8.98759 16.5913 7.64793 17.9245 5.99537 17.9245C4.34281 17.9245 3.00315 16.5913 3.00315 14.9468C3.00315 13.3022 4.34281 11.969 5.99537 11.969C7.64793 11.969 8.98759 13.3022 8.98759 14.9468Z" fill="black"/>
<path d="M7.80884 20.3997H4.00342V21.9478H2V19.4028C2 18.8523 2.44848 18.4059 3.00171 18.4059H8.81055C9.36378 18.4059 9.81226 18.8523 9.81226 19.4028V21.9478H7.80884V20.3997Z" fill="black"/>
</svg>
