<svg width="24" height="24" viewBox="0 0 24 24" fill="none" xmlns="http://www.w3.org/2000/svg">
<path fill-rule="evenodd" clip-rule="evenodd" d="M20.652 10.7401C23.0297 12.7674 22.1171 16.5195 19.0502 17.3254L11.2915 19.3641C9.73883 19.7721 8.08277 19.2475 7.08753 18.0324L2.8594 12.8705C1.10845 10.7328 2.15825 7.5727 4.87475 6.80391L12.4683 4.65487C13.5854 4.33871 14.7909 4.51364 15.7609 5.13265L19.1952 7.3242C20.2076 7.97026 20.3676 9.18223 19.8362 10.0446L20.652 10.7401ZM18.0573 9.09542C18.09 9.08732 18.1011 9.0765 18.1065 9.07053C18.1152 9.061 18.1253 9.04387 18.1296 9.01987C18.1338 8.99587 18.1301 8.9765 18.1251 8.96475C18.122 8.9574 18.1153 8.94369 18.0871 8.92574L14.6529 6.73418C14.176 6.42987 13.5834 6.34388 13.0342 6.4993L5.44068 8.64834C4.08243 9.03274 3.55753 10.6128 4.43301 11.6816L8.66113 16.8436C9.15875 17.4511 9.98678 17.7134 10.7631 17.5094L18.5219 15.4707C20.0553 15.0678 20.5116 13.1917 19.3227 12.1781L18.0409 11.0851L11.3901 12.7306C10.9237 12.846 10.6767 13.3358 10.8717 13.7588C11.0283 14.0987 11.4207 14.2775 11.7952 14.1784C13.0531 13.8452 14.5154 13.4612 15.6885 13.1601C16.2745 13.0098 16.7918 12.8792 17.1766 12.7858C17.3683 12.7393 17.5326 12.7007 17.6583 12.6732C17.7204 12.6596 17.7804 12.6471 17.8329 12.6375C17.8338 12.6373 17.8352 12.6371 17.8368 12.6368C17.8636 12.6318 17.976 12.6106 18.0923 12.6106C18.6452 12.6106 19.0934 13.041 19.0934 13.572C19.0934 14.0686 18.7014 14.4773 18.1983 14.5281C18.1785 14.5319 18.1475 14.5383 18.1031 14.548C18.0002 14.5705 17.8535 14.6049 17.667 14.6501C17.2956 14.7402 16.7887 14.8681 16.2054 15.0178C15.0398 15.3169 13.5834 15.6994 12.3274 16.032C10.998 16.3841 9.59961 15.7493 9.04088 14.5371C8.34536 13.028 9.22663 11.2802 10.8907 10.8685L18.0573 9.09542ZM18.2265 14.5233C18.2261 14.5234 18.2209 14.5244 18.2119 14.5256C18.2223 14.5238 18.2268 14.5231 18.2265 14.5233Z" fill="black"/>
</svg>
