<svg width="24" height="24" viewBox="0 0 24 24" fill="none" xmlns="http://www.w3.org/2000/svg">
<path fill-rule="evenodd" clip-rule="evenodd" d="M11.0001 2.00061C10.4697 2.00061 9.96098 2.21132 9.58591 2.5864C9.21084 2.96147 9.00012 3.47018 9.00012 4.00061C9.00012 4.53104 9.21084 5.03975 9.58591 5.41482C9.96098 5.7899 10.4697 6.00061 11.0001 6.00061C11.5306 6.00061 12.0393 5.7899 12.4143 5.41482C12.7894 5.03975 13.0001 4.53104 13.0001 4.00061C13.0001 3.47018 12.7894 2.96147 12.4143 2.5864C12.0393 2.21132 11.5306 2.00061 11.0001 2.00061ZM11.1589 7.24819C11.0036 7.11198 10.8048 7.02254 10.5832 7.00406C10.4716 6.99476 10.3627 7.00417 10.2597 7.02965L5.78322 8.02443C5.44032 8.10063 5.16255 8.35116 5.05147 8.68439L4.05147 11.6844C3.87682 12.2083 4.15998 12.7747 4.68392 12.9493C5.20786 13.124 5.77418 12.8408 5.94883 12.3168L6.76979 9.85398L9.39074 9.27155L9.00358 13.9176C8.975 14.2605 9.12479 14.5941 9.40012 14.8006L13.0001 17.5006V21.0006C13.0001 21.5529 13.4478 22.0006 14.0001 22.0006C14.5524 22.0006 15.0001 21.5529 15.0001 21.0006V17.0006C15.0001 16.6859 14.8519 16.3895 14.6001 16.2006L11.0426 13.5325L11.3343 10.0326L13.3494 11.7599C13.4672 11.8609 13.607 11.9331 13.7576 11.9708L17.7576 12.9708C18.2934 13.1047 18.8363 12.779 18.9703 12.2432C19.1042 11.7074 18.7785 11.1644 18.2427 11.0305L14.4717 10.0877L11.1589 7.24819ZM9.64455 16.9478C9.89154 16.4538 9.69131 15.8532 9.19734 15.6062C8.70336 15.3592 8.10268 15.5594 7.85569 16.0534L7.17827 17.4083L4.29302 20.2935C3.90249 20.684 3.90249 21.3172 4.29302 21.7077C4.68354 22.0982 5.3167 22.0982 5.70723 21.7077L8.70723 18.7077C8.78323 18.6317 8.84648 18.544 8.89455 18.4478L9.64455 16.9478ZM17.4395 14.4399C17.7208 14.1586 18.1023 14.0006 18.5001 14.0006C18.8979 14.0006 19.2795 14.1586 19.5608 14.4399C19.8421 14.7213 20.0001 15.1028 20.0001 15.5006C20.0001 15.8984 19.8421 16.28 19.5608 16.5613C19.2795 16.8426 18.8979 17.0006 18.5001 17.0006C18.1023 17.0006 17.7208 16.8426 17.4395 16.5613C17.1582 16.28 17.0001 15.8984 17.0001 15.5006C17.0001 15.1028 17.1582 14.7213 17.4395 14.4399Z" fill="black"/>
</svg>
