<svg width="24" height="24" viewBox="0 0 24 24" fill="none" xmlns="http://www.w3.org/2000/svg">
<path fill-rule="evenodd" clip-rule="evenodd" d="M5.1462 4.14706C5.05243 4.24082 4.99976 4.368 4.99976 4.50061V22.0006H2.99976V4.50061C2.99976 3.83757 3.26315 3.20168 3.73199 2.73284C4.20083 2.264 4.83671 2.00061 5.49976 2.00061H12.5021C13.1651 2.00061 13.801 2.264 14.2699 2.73284C14.7387 3.20168 15.0021 3.83757 15.0021 4.50061V5.87668C17.1501 6.28594 18.8967 7.98817 19.5593 10.2305C19.7453 10.8601 19.8459 11.5323 19.8459 12.2305H8.15431C8.15431 11.5323 8.25489 10.8601 8.44095 10.2305C9.10395 7.98678 10.8523 6.28382 13.0021 5.87592V4.50061C13.0021 4.368 12.9494 4.24082 12.8557 4.14706C12.7619 4.05329 12.6347 4.00061 12.5021 4.00061H5.49976C5.36715 4.00061 5.23997 4.05329 5.1462 4.14706ZM10.5595 10.2305C11.2208 8.71795 12.5995 7.78233 14.0001 7.78233C15.4007 7.78233 16.7794 8.71795 17.4407 10.2305H10.5595Z" fill="black"/>
<path d="M16.0001 16.0006C16.5524 16.0006 17.0001 15.5529 17.0001 15.0006C17.0001 14.4483 16.5524 14.0006 16.0001 14.0006C15.4478 14.0006 15.0001 14.4483 15.0001 15.0006C15.0001 15.5529 15.4478 16.0006 16.0001 16.0006Z" fill="black"/>
<path d="M13.0001 15.0006C13.0001 15.5529 12.5524 16.0006 12.0001 16.0006C11.4478 16.0006 11.0001 15.5529 11.0001 15.0006C11.0001 14.4483 11.4478 14.0006 12.0001 14.0006C12.5524 14.0006 13.0001 14.4483 13.0001 15.0006Z" fill="black"/>
<path d="M18.0001 19.0006C18.5524 19.0006 19.0001 18.5529 19.0001 18.0006C19.0001 17.4483 18.5524 17.0006 18.0001 17.0006C17.4478 17.0006 17.0001 17.4483 17.0001 18.0006C17.0001 18.5529 17.4478 19.0006 18.0001 19.0006Z" fill="black"/>
<path d="M17.0001 21.0006C17.0001 21.5529 16.5524 22.0006 16.0001 22.0006C15.4478 22.0006 15.0001 21.5529 15.0001 21.0006C15.0001 20.4483 15.4478 20.0006 16.0001 20.0006C16.5524 20.0006 17.0001 20.4483 17.0001 21.0006Z" fill="black"/>
<path d="M20.0001 22.0006C20.5524 22.0006 21.0001 21.5529 21.0001 21.0006C21.0001 20.4483 20.5524 20.0006 20.0001 20.0006C19.4478 20.0006 19.0001 20.4483 19.0001 21.0006C19.0001 21.5529 19.4478 22.0006 20.0001 22.0006Z" fill="black"/>
<path d="M15.0001 18.0006C15.0001 18.5529 14.5524 19.0006 14.0001 19.0006C13.4478 19.0006 13.0001 18.5529 13.0001 18.0006C13.0001 17.4483 13.4478 17.0006 14.0001 17.0006C14.5524 17.0006 15.0001 17.4483 15.0001 18.0006Z" fill="black"/>
<path d="M12.0001 22.0006C12.5524 22.0006 13.0001 21.5529 13.0001 21.0006C13.0001 20.4483 12.5524 20.0006 12.0001 20.0006C11.4478 20.0006 11.0001 20.4483 11.0001 21.0006C11.0001 21.5529 11.4478 22.0006 12.0001 22.0006Z" fill="black"/>
<path d="M11.0001 18.0006C11.0001 18.5529 10.5524 19.0006 10.0001 19.0006C9.44784 19.0006 9.00013 18.5529 9.00013 18.0006C9.00013 17.4483 9.44784 17.0006 10.0001 17.0006C10.5524 17.0006 11.0001 17.4483 11.0001 18.0006Z" fill="black"/>
<path d="M8.00013 22.0006C8.55241 22.0006 9.00013 21.5529 9.00013 21.0006C9.00013 20.4483 8.55241 20.0006 8.00013 20.0006C7.44784 20.0006 7.00013 20.4483 7.00013 21.0006C7.00013 21.5529 7.44784 22.0006 8.00013 22.0006Z" fill="black"/>
</svg>
