<svg width="24" height="24" viewBox="0 0 24 24" fill="none" xmlns="http://www.w3.org/2000/svg">
<path fill-rule="evenodd" clip-rule="evenodd" d="M21 13.9984V14.9984C21 16.9084 19.93 18.5684 18.35 19.4084L19 21.9984H17L16.5 19.9984H7.5L7 21.9984H5L5.65 19.4084C4.84919 18.9836 4.17931 18.3485 3.71239 17.5715C3.24548 16.7945 2.99919 15.9049 3 14.9984V13.9984H2V11.9984H22V13.9984H21ZM5 13.9984H19V14.9984C19 15.7941 18.6839 16.5571 18.1213 17.1197C17.5587 17.6823 16.7956 17.9984 16 17.9984H8C7.20435 17.9984 6.44129 17.6823 5.87868 17.1197C5.31607 16.5571 5 15.7941 5 14.9984V13.9984Z" fill="black"/>
<path fill-rule="evenodd" clip-rule="evenodd" d="M5.38956 4.30794C5.89137 4.5386 6.11117 5.13238 5.88051 5.6342L5.05921 7.42097L5.98674 8.07803C6.772 8.63431 7.04977 9.67095 6.64785 10.5453L6.47537 10.9206C6.2447 11.4224 5.65092 11.6422 5.14911 11.4115C4.6473 11.1809 4.42749 10.5871 4.65815 10.0853L4.83063 9.71003L3.9031 9.05297C3.11784 8.49669 2.84007 7.46005 3.24199 6.58567L4.0633 4.7989C4.29396 4.29709 4.88774 4.07728 5.38956 4.30794Z" fill="black"/>
<path fill-rule="evenodd" clip-rule="evenodd" d="M9.5433 2.0838C10.0511 2.30088 10.2868 2.88854 10.0698 3.39637L8.93526 6.05038L10.186 6.75379C11.1041 7.27017 11.4643 8.41019 11.0096 9.36038L10.2864 10.8714C10.048 11.3696 9.4509 11.5802 8.95273 11.3417C8.45456 11.1033 8.24398 10.5062 8.4824 10.008L9.20555 8.497L7.95485 7.79359C7.06507 7.29317 6.69498 6.20294 7.09623 5.26426L8.23073 2.61025C8.44781 2.10242 9.03547 1.86671 9.5433 2.0838Z" fill="black"/>
<path d="M20.5015 6.80413C20.5015 8.00503 19.5279 8.97856 18.327 8.97856C17.1261 8.97856 16.1526 8.00503 16.1526 6.80413C16.1526 5.60322 17.1261 4.62969 18.327 4.62969C19.5279 4.62969 20.5015 5.60322 20.5015 6.80413Z" fill="black"/>
<path d="M12.4093 11.2691C12.4093 10.0825 13.3713 9.12049 14.5579 9.12049H17.3223C18.5089 9.12049 19.4709 10.0825 19.4709 11.2691H12.4093Z" fill="black"/>
</svg>
