<svg width="24" height="24" viewBox="0 0 24 24" fill="none" xmlns="http://www.w3.org/2000/svg">
<path d="M21.1126 16.8383C20.6747 16.4052 20.1135 16.1172 19.5056 16.0138C18.8976 15.9104 18.2724 15.9965 17.7153 16.2604L16.5663 15.1244C18.9205 12.5911 20.6965 9.57918 21.772 6.296C21.9762 5.72879 22.0144 5.1154 21.8823 4.52736C21.7501 3.93931 21.4531 3.40084 21.0258 2.97472C20.5985 2.5486 20.0585 2.25239 19.4689 2.12063C18.8792 1.98886 18.2641 2.02698 17.6954 2.23052C14.4031 3.30316 11.3829 5.07425 8.84257 7.42197L7.7035 6.27607C7.94014 5.78093 8.03561 5.23041 7.97946 4.68477C7.92332 4.13913 7.71771 3.61942 7.38516 3.18253C7.05262 2.74564 6.60594 2.40842 6.09405 2.20778C5.58215 2.00714 5.02477 1.95083 4.48292 2.045C3.94107 2.13917 3.43565 2.38019 3.02199 2.74169C2.60833 3.10318 2.30238 3.57121 2.13763 4.09453C1.97288 4.61784 1.95569 5.17627 2.08794 5.70868C2.22018 6.2411 2.49677 6.72696 2.88741 7.11308C3.44903 7.67384 4.21096 7.98924 5.00569 7.98994C5.44893 7.98583 5.88574 7.88373 6.28465 7.69101L7.43372 8.82695C5.07952 11.3603 3.30354 14.3722 2.22795 17.6554C2.04061 18.2218 2.01427 18.8289 2.15184 19.4093C2.28941 19.9898 2.58552 20.5208 3.00732 20.9437C3.29295 21.2473 3.63597 21.4917 4.01666 21.6627C4.39734 21.8337 4.80817 21.928 5.22551 21.9401C5.5916 21.9366 5.95519 21.8796 6.30463 21.7707C9.59687 20.6981 12.6171 18.927 15.1574 16.5792L16.2965 17.7252C16.0599 18.2203 15.9644 18.7708 16.0205 19.3164C16.0767 19.8621 16.2823 20.3818 16.6148 20.8187C16.9474 21.2556 17.3941 21.5928 17.906 21.7934C18.4178 21.9941 18.9752 22.0504 19.5171 21.9562C20.0589 21.8621 20.5643 21.621 20.978 21.2595C21.3917 20.898 21.6976 20.43 21.8624 19.9067C22.0271 19.3834 22.0443 18.8249 21.9121 18.2925C21.7798 17.7601 21.5032 17.2743 21.1126 16.8881V16.8383ZM5.71511 5.69813C5.52829 5.88577 5.27437 5.9917 5.00922 5.99264C4.74408 5.99357 4.48941 5.88943 4.30126 5.70311C4.11311 5.5168 4.00689 5.26359 4.00595 4.99917C4.00501 4.73475 4.10944 4.48079 4.29627 4.29315C4.48309 4.10552 4.73701 3.99958 5.00216 3.99865C5.26731 3.99772 5.52197 4.10186 5.71012 4.28817C5.89827 4.47448 6.0045 4.7277 6.00543 4.99212C6.00637 5.25654 5.90194 5.5105 5.71511 5.69813ZM18.3049 4.13372C18.4565 4.08391 18.6148 4.05704 18.7745 4.05401C18.9284 4.05276 19.0809 4.08207 19.2233 4.14023C19.3657 4.1984 19.495 4.28426 19.6038 4.3928C19.7666 4.56142 19.8777 4.77303 19.9237 5.00259C19.9697 5.23215 19.9489 5.47006 19.8636 5.68817C19.3358 7.30618 18.6216 8.8577 17.7353 10.3116L13.6686 6.25614C15.1266 5.37235 16.6824 4.66012 18.3049 4.13372ZM5.69513 19.8177C5.47723 19.9047 5.23853 19.9259 5.00862 19.8789C4.7787 19.8319 4.56768 19.7186 4.40172 19.5531C4.23576 19.3876 4.12216 19.1771 4.07499 18.9479C4.02783 18.7186 4.04918 18.4805 4.1364 18.2632C4.66425 16.6452 5.37844 15.0937 6.26467 13.6398L10.3314 17.6953C8.8734 18.5791 7.3176 19.2913 5.69513 19.8177ZM12 16.5494L7.41373 11.9757C7.859 11.373 8.33595 10.7943 8.84257 10.2419L13.7486 15.1344C13.1912 15.6365 12.6075 16.1088 12 16.5494ZM15.1474 13.7195L10.2514 8.82695C10.8086 8.32145 11.3923 7.84581 12 7.40204L16.5963 11.9857C16.1478 12.5886 15.6675 13.1673 15.1574 13.7195H15.1474ZM19.6937 19.6981C19.6012 19.791 19.4913 19.8648 19.3702 19.9154C19.249 19.9659 19.1191 19.9921 18.9879 19.9926C18.8566 19.9931 18.7265 19.9677 18.605 19.9181C18.4835 19.8684 18.3731 19.7953 18.2799 19.7031C18.1867 19.6108 18.1127 19.5012 18.062 19.3804C18.0114 19.2596 17.985 19.1301 17.9846 18.9991C17.9841 18.8682 18.0095 18.7385 18.0593 18.6173C18.1091 18.4962 18.1824 18.386 18.2749 18.2931C18.4621 18.1075 18.7154 18.0034 18.9793 18.0034C19.2433 18.0034 19.4965 18.1075 19.6837 18.2931C19.8607 18.4754 19.9613 18.7181 19.965 18.9717C19.9687 19.2254 19.8753 19.4709 19.7037 19.6582L19.6937 19.6981Z" fill="black"/>
</svg>
