<svg width="24" height="24" viewBox="0 0 24 24" fill="none" xmlns="http://www.w3.org/2000/svg">
<path fill-rule="evenodd" clip-rule="evenodd" d="M9.71994 1.28131C9.92404 1.08964 10.1962 1.00061 10.4737 1.00061H13.6316C13.9091 1.00061 14.1812 1.08964 14.3853 1.28131C14.5894 1.47297 14.6842 1.72855 14.6842 1.98916V4.25579L15.8985 5.39614C16.6221 6.07572 17 6.8911 17 7.82159V20.4979C17 22.205 15.2928 23.4513 13.465 22.8451L11.9474 22.3997L10.4201 22.8479L10.4179 22.8486C8.72636 23.3374 7 22.2293 7 20.4979V7.82159C7 6.8911 7.37789 6.07572 8.10152 5.39614L8.10841 5.38967L9.42105 4.24499V1.98916C9.42105 1.72855 9.51585 1.47297 9.71994 1.28131ZM11.5263 2.97771V3.47198H12.5789V2.97771H11.5263ZM11.1029 5.44908L9.54942 6.81677L9.52632 6.83304C9.36516 6.94655 9.23108 7.16961 9.16004 7.42617H14.8248C14.75 7.18333 14.6155 6.97484 14.4229 6.79242L12.8971 5.44908H11.1029ZM9.10526 9.40327V13.3804H14.8947V9.40327H9.10526ZM9.21053 15.3575V20.5968C9.21053 20.697 9.27731 20.8306 9.4334 20.9333C9.58742 21.0345 9.75769 21.0578 9.8862 21.0175L9.89412 21.0151L12.0393 20.3789L14.2393 20.9226L14.288 20.9455C14.4095 21.0026 14.5462 20.9912 14.6719 20.9085C14.8008 20.8238 14.8947 20.6753 14.8947 20.4979V15.3575H9.21053Z" fill="black"/>
</svg>
