<svg width="24" height="24" viewBox="0 0 24 24" fill="none" xmlns="http://www.w3.org/2000/svg">
<path fill-rule="evenodd" clip-rule="evenodd" d="M12.1151 3.50061C9.02017 3.50061 6.46886 5.44703 5.59317 8.06825H18.6371C17.7614 5.44703 15.2101 3.50061 12.1151 3.50061ZM20.7201 8.06825C19.7898 4.30118 16.2902 1.50061 12.1151 1.50061C7.94006 1.50061 4.44044 4.30118 3.5102 8.06825C3.50175 8.10247 3.49352 8.13677 3.48549 8.17114H2.23029C1.678 8.17114 1.23029 8.61886 1.23029 9.17114C1.23029 9.72343 1.678 10.1711 2.23029 10.1711H22C22.5523 10.1711 23 9.72343 23 9.17114C23 8.61886 22.5523 8.17114 22 8.17114H20.7448C20.7368 8.13677 20.7285 8.10247 20.7201 8.06825ZM2 11.4763C1.44772 11.4763 1 11.924 1 12.4763C1 13.0286 1.44772 13.4763 2 13.4763H7.12102L9.91705 16.2675V17.4141L7.63343 15.7424C7.18779 15.4162 6.56207 15.513 6.23584 15.9586C5.90961 16.4042 6.00641 17.03 6.45205 17.3562L9.21942 19.382C9.39081 19.5075 9.5977 19.5751 9.81011 19.5751H16.6492C16.8143 19.5751 16.9767 19.616 17.1222 19.6941L18.0026 20.1667C18.0602 20.1976 18.0962 20.2577 18.0962 20.3231C18.0962 20.4211 18.0167 20.5006 17.9187 20.5006H7.38846L3.04812 17.0921C2.61376 16.751 1.98512 16.8266 1.64402 17.261C1.30292 17.6953 1.37852 18.324 1.81288 18.6651L6.42512 22.2871C6.60127 22.4254 6.81876 22.5006 7.04274 22.5006H17.9187C19.1213 22.5006 20.0962 21.5257 20.0962 20.3231C20.0962 19.521 19.6552 18.7839 18.9486 18.4046L18.0681 17.9319C17.6318 17.6977 17.1444 17.5751 16.6492 17.5751H11.9171V15.8527C11.9171 15.5872 11.8115 15.3326 11.6235 15.145L8.24121 11.7686C8.05373 11.5814 7.79964 11.4763 7.53473 11.4763H2Z" fill="black"/>
</svg>
