<svg width="24" height="24" viewBox="0 0 24 24" fill="none" xmlns="http://www.w3.org/2000/svg">
<path d="M4.93052 19.0654C6.82642 20.9586 9.33762 22.0006 12.0049 22.0006C14.6722 22.0006 17.1843 20.9586 19.0792 19.0654C22.9801 15.1701 22.9801 8.83212 19.0792 4.93582C17.1843 3.04362 14.6711 2.00061 12.0049 2.00061C9.33862 2.00061 6.82542 3.04362 4.93052 4.93582C1.02967 8.83112 1.02967 15.1701 4.93052 19.0654ZM17.6646 17.6527C16.6161 18.7026 15.2949 19.4393 13.8498 19.7797C13.8408 18.1792 14.436 16.6367 15.5416 15.5328C16.7051 14.3709 18.2749 13.7065 19.8206 13.6835C19.5019 15.1871 18.7529 16.566 17.6646 17.6527ZM19.9907 11.6934C17.8657 11.6724 15.7046 12.5456 14.1269 14.1201C12.5942 15.6506 11.7988 17.7966 11.8628 19.9955C9.78755 19.9639 7.80695 19.1231 6.34419 17.6527C4.87962 16.1895 4.04286 14.2145 4.01109 12.146C4.08812 12.148 4.16516 12.16 4.2422 12.16C6.3582 12.16 8.40417 11.3567 9.88188 9.88212C11.4626 8.30362 12.34 6.14667 12.313 4.0147C14.3289 4.08699 16.2418 4.92159 17.6646 6.34948C19.0891 7.77276 19.9203 9.68237 19.9907 11.6934ZM6.34519 6.34948C7.43252 5.25864 8.8132 4.50595 10.3201 4.18254C10.3021 5.73606 9.63476 7.30357 8.4682 8.46947C7.36368 9.57142 5.82495 10.1639 4.22819 10.1589C4.56344 8.71644 5.29685 7.39673 6.34519 6.34948Z" fill="black"/>
</svg>
