<svg width="24" height="24" viewBox="0 0 24 24" fill="none" xmlns="http://www.w3.org/2000/svg">
<path d="M9.28602 12.3596C9.1066 11.6057 8.27014 11.2172 7.57838 11.5665L5.31032 12.7117C4.63685 13.0517 4.21216 13.7419 4.21216 14.4964V22.0006H6.21143V14.4964L7.57552 13.8076L9.52536 22.0006H11.5805L9.28602 12.3596Z" fill="black"/>
<path d="M16.4214 11.5665C15.7297 11.2172 14.8932 11.6057 14.7138 12.3596L12.4193 22.0006H14.4744L16.4243 13.8076L17.7884 14.4964V22.0006H19.7876V14.4964C19.7876 13.7419 19.363 13.0517 18.6895 12.7117L16.4214 11.5665Z" fill="black"/>
<path fill-rule="evenodd" clip-rule="evenodd" d="M11.9999 9.19794C13.4353 9.19794 14.5989 8.03432 14.5989 6.59891C14.5989 5.16351 13.4353 3.99988 11.9999 3.99988C10.5645 3.99988 9.40087 5.16351 9.40087 6.59891C9.40087 8.03432 10.5645 9.19794 11.9999 9.19794ZM11.9999 11.1972C14.5395 11.1972 16.5982 9.13849 16.5982 6.59891C16.5982 4.05934 14.5395 2.00061 11.9999 2.00061C9.46033 2.00061 7.4016 4.05934 7.4016 6.59891C7.4016 9.13849 9.46033 11.1972 11.9999 11.1972ZM11.6702 12.287L11.9999 12.4812L12.3296 12.287C13.016 11.8826 13.8819 12.3774 13.8819 13.1741V14.1089C13.8819 14.9056 13.016 15.4004 12.3296 14.996L11.9999 14.8017L11.6702 14.996C10.9838 15.4004 10.1179 14.9056 10.1179 14.1089V13.1741C10.1179 12.3774 10.9838 11.8826 11.6702 12.287Z" fill="black"/>
</svg>
