<svg width="24" height="24" viewBox="0 0 24 24" fill="none" xmlns="http://www.w3.org/2000/svg">
<path fill-rule="evenodd" clip-rule="evenodd" d="M9.58002 4.00061C8.90597 4.00061 8.33368 4.55963 8.33368 5.28137C8.33368 6.00312 8.90597 6.56214 9.58002 6.56214C10.2541 6.56214 10.8264 6.00312 10.8264 5.28137C10.8264 4.55963 10.2541 4.00061 9.58002 4.00061ZM6.33368 5.28137C6.33368 3.48385 7.77283 2.00061 9.58002 2.00061C11.3872 2.00061 12.8264 3.48385 12.8264 5.28137C12.8264 6.71889 11.9059 7.9554 10.613 8.39304C12.5853 8.88655 13.9823 10.7642 14.1464 12.9039H15.8958C15.8958 11.6315 17.0393 10.6 18.45 10.6C19.8607 10.6 21.0043 11.6315 21.0043 12.9039L22 12.9039C22.5523 12.9039 23 13.3516 23 13.9039C23 14.4562 22.5523 14.9039 22 14.9039H20.9291V22.0006H3.0708V14.9039H2C1.44772 14.9039 1 14.4562 1 13.9039C1 13.3516 1.44772 12.9039 2 12.9039H5.0135C5.17756 10.7641 6.57463 8.88648 8.547 8.39301C7.25405 7.95535 6.33368 6.71886 6.33368 5.28137ZM14.1625 14.9076H5.0708V20.0006H18.9291V14.9039H14.1625V14.9076ZM9.57993 10.2668C10.7876 10.2668 11.9594 11.3241 12.1389 12.9039H7.02099C7.20045 11.3241 8.37227 10.2668 9.57993 10.2668Z" fill="black"/>
</svg>
