<svg width="24" height="24" viewBox="0 0 24 24" fill="none" xmlns="http://www.w3.org/2000/svg">
<path fill-rule="evenodd" clip-rule="evenodd" d="M20.1043 2.2825C19.8521 2.03024 19.4756 1.93451 19.1311 2.04771L14.6678 3.221L12.4303 2.1029C12.16 1.96732 11.8412 1.9676 11.5707 2.1028L9.33307 3.221L4.86888 2.04748C4.77228 2.01629 4.67252 2.00113 4.57492 2.00113C4.32409 2.00113 4.07839 2.09997 3.89586 2.2825C3.63837 2.54 3.54903 2.92053 3.6643 3.26538L3.66865 3.2784L7.81133 12.8159V14.7597C7.39193 15.4849 7.16567 16.3121 7.16567 17.1662C7.16567 19.8317 9.33463 22.0006 12.0001 22.0006C14.6656 22.0006 16.8345 19.8317 16.8345 17.1662C16.8345 16.3127 16.6083 15.485 16.1888 14.7597L16.1888 12.8159L20.3315 3.2784L20.3359 3.26538C20.4512 2.92029 20.361 2.53917 20.1043 2.2825ZM10.4662 4.80287L12.0001 4.03536L13.534 4.80229L12.9418 8.94793L14.8434 9.21972L15.4469 4.99598L17.8535 4.43369L14.5601 11.6861H9.4394L6.14603 4.43431L8.55323 4.99664L9.15681 9.22037L11.0584 8.94857L10.4662 4.80287ZM9.7322 14.2688V13.607H14.268V14.2688H9.7322ZM9.08653 17.1662C9.08653 16.8309 9.15038 16.5027 9.26617 16.1896L14.7344 16.1896C14.8498 16.5028 14.9136 16.831 14.9136 17.1662C14.9136 18.7724 13.6063 20.0797 12.0001 20.0797C10.3938 20.0797 9.08654 18.7724 9.08653 17.1662Z" fill="black"/>
</svg>
