<svg width="24" height="24" viewBox="0 0 24 24" fill="none" xmlns="http://www.w3.org/2000/svg">
<path fill-rule="evenodd" clip-rule="evenodd" d="M12 2.73689C11.4752 2.27515 10.7787 2.00061 9.99766 2.00061H6.99854C5.29903 2.00061 3.99941 3.30061 3.99941 5.00061V6.90061L2 15.8006V20.0006C2 21.1006 2.89974 22.0006 3.99941 22.0006H10.9974C11.3621 22.0006 11.7048 21.9016 12 21.7292C12.2952 21.9016 12.6379 22.0006 13.0026 22.0006H20.0006C21.1003 22.0006 22 21.1006 22 20.0006V15.8006L20.0006 6.90061V5.00061C20.0006 3.30061 18.701 2.00061 17.0015 2.00061H14.0023C13.2213 2.00061 12.5248 2.27515 12 2.73689ZM10.9974 8.00061H5.79889L4.19936 15.0006H10.9974V8.00061ZM6.99854 4.00061C6.39871 4.00061 5.99883 4.40061 5.99883 5.00061V6.00061H10.9974V5.00061C10.9974 4.40061 10.5975 4.00061 9.99766 4.00061H6.99854ZM3.99941 17.0006V20.0006H10.9974V17.0006H3.99941ZM13.0026 8.00061H18.2011L19.8006 15.0006H13.0026V8.00061ZM17.0015 4.00061C17.6013 4.00061 18.0012 4.40061 18.0012 5.00061V6.00061H13.0026V5.00061C13.0026 4.40061 13.4025 4.00061 14.0023 4.00061H17.0015ZM20.0006 17.0006V20.0006H13.0026V17.0006H20.0006Z" fill="black"/>
</svg>
