<svg width="24" height="24" viewBox="0 0 24 24" fill="none" xmlns="http://www.w3.org/2000/svg">
<path fill-rule="evenodd" clip-rule="evenodd" d="M8.08579 2.5864C8.46086 2.21132 8.96957 2.00061 9.5 2.00061C10.0304 2.00061 10.5391 2.21132 10.9142 2.5864C11.2893 2.96147 11.5 3.47018 11.5 4.00061C11.5 4.53104 11.2893 5.03975 10.9142 5.41482C10.5391 5.7899 10.0304 6.00061 9.5 6.00061C8.96957 6.00061 8.46086 5.7899 8.08579 5.41482C7.71071 5.03975 7.5 4.53104 7.5 4.00061C7.5 3.47018 7.71071 2.96147 8.08579 2.5864ZM12.0188 6.124C12.263 5.98997 12.552 5.96384 12.8162 6.05193C14.6635 6.66769 15.6166 7.93806 16.0737 9.30938C16.5004 10.5895 16.5002 11.9756 16.5 12.9464C16.5 12.9646 16.5 12.9827 16.5 13.0006C16.5 13.5529 16.0523 14.0006 15.5 14.0006C14.9477 14.0006 14.5 13.5529 14.5 13.0006C14.5 11.9736 14.4916 10.8877 14.1763 9.94184C13.9835 9.36328 13.6805 8.84933 13.1669 8.45606L12.4701 11.2431C12.4098 11.4845 12.2617 11.6947 12.0547 11.8327L9.0547 13.8327C8.59517 14.139 7.9743 14.0148 7.66795 13.5553C7.3616 13.0958 7.48577 12.4749 7.9453 12.1686L10.6236 10.383L11.5299 6.75807C11.5974 6.48785 11.7746 6.25804 12.0188 6.124ZM3.08579 14.5864C3.46086 14.2113 3.96957 14.0006 4.5 14.0006C5.03043 14.0006 5.53914 14.2113 5.91421 14.5864C6.28929 14.9615 6.5 15.4702 6.5 16.0006C6.5 16.531 6.28929 17.0398 5.91421 17.4148C5.53914 17.7899 5.03043 18.0006 4.5 18.0006C3.96957 18.0006 3.46086 17.7899 3.08579 17.4148C2.71071 17.0398 2.5 16.531 2.5 16.0006C2.5 15.4702 2.71071 14.9615 3.08579 14.5864ZM7.5 16.0006C7.5 15.4483 7.94772 15.0006 8.5 15.0006H20.5C21.0523 15.0006 21.5 15.4483 21.5 16.0006C21.5 16.5529 21.0523 17.0006 20.5 17.0006H9.5V19.0006C9.5 19.3794 9.286 19.7256 8.94721 19.895L4.94721 21.895C4.45324 22.142 3.85256 21.9418 3.60557 21.4478C3.35858 20.9538 3.55881 20.3532 4.05279 20.1062L7.5 18.3826V16.0006ZM10.5 19.0006C10.5 18.4483 10.9477 18.0006 11.5 18.0006H20.5C21.0523 18.0006 21.5 18.4483 21.5 19.0006C21.5 19.5529 21.0523 20.0006 20.5 20.0006H11.5C10.9477 20.0006 10.5 19.5529 10.5 19.0006Z" fill="black"/>
</svg>
