<svg width="24" height="24" viewBox="0 0 24 24" fill="none" xmlns="http://www.w3.org/2000/svg">
<path fill-rule="evenodd" clip-rule="evenodd" d="M20.1469 3.38774C20.3493 2.88141 20.0941 2.29807 19.5769 2.08484C19.0598 1.8716 18.4765 2.1092 18.2741 2.61553L17.8767 3.60964C17.4438 4.69269 17.6316 5.93656 18.3698 6.87562C18.7152 7.31494 18.7523 7.91379 18.4629 8.37565L18.298 8.63886C18.0087 9.1004 18.1586 9.71616 18.6327 10.0142C19.1067 10.3122 19.7255 10.1797 20.0148 9.71814L20.1797 9.45494C20.9082 8.29246 20.8147 6.78519 19.9454 5.67944C19.6521 5.30635 19.5775 4.81215 19.7495 4.38184L20.1469 3.38774ZM6.4797 7.70509C7.76577 7.70509 8.80834 6.66291 8.80834 5.37732C8.80834 4.09173 7.76577 3.04955 6.4797 3.04955C5.19363 3.04955 4.15107 4.09173 4.15107 5.37732C4.15107 6.66291 5.19363 7.70509 6.4797 7.70509ZM3.30488 11.0317C2.58664 11.0317 2.00439 11.6138 2.00439 12.3317V17.5058C2.00439 19.9911 4.01986 22.0058 6.50607 22.0058H17.5027C19.9889 22.0058 22.0044 19.9911 22.0044 17.5058V12.3317C22.0044 11.6138 21.4222 11.0317 20.7039 11.0317H13.4541L9.77886 8.49248C9.52811 8.31923 9.23051 8.22643 8.92569 8.22643H5.77594C4.9472 8.22643 4.27538 8.89801 4.27538 9.72643V11.0317H3.30488ZM6.27613 11.0317H9.93521L8.76965 10.2264H6.27613V11.0317ZM4.00514 17.5058V13.0317H20.0036V17.5058C20.0036 18.8866 18.8839 20.0058 17.5027 20.0058H6.50607C5.12484 20.0058 4.00514 18.8866 4.00514 17.5058ZM16.037 14.0402C16.5893 14.0402 17.037 14.4879 17.037 15.0402V18.2103C17.037 18.7626 16.5893 19.2103 16.037 19.2103C15.4847 19.2103 15.037 18.7626 15.037 18.2103V15.0402C15.037 14.4879 15.4847 14.0402 16.037 14.0402ZM13.0673 15.0402C13.0673 14.4879 12.6196 14.0402 12.0673 14.0402C11.5151 14.0402 11.0673 14.4879 11.0673 15.0402V18.2103C11.0673 18.7626 11.5151 19.2103 12.0673 19.2103C12.6196 19.2103 13.0673 18.7626 13.0673 18.2103V15.0402ZM8.0976 14.0402C8.64988 14.0402 9.0976 14.4879 9.0976 15.0402V18.2103C9.0976 18.7626 8.64988 19.2103 8.0976 19.2103C7.54531 19.2103 7.0976 18.7626 7.0976 18.2103V15.0402C7.0976 14.4879 7.54531 14.0402 8.0976 14.0402ZM15.9399 2.08484C16.4571 2.29807 16.7122 2.88141 16.5098 3.38774L16.1125 4.38184C15.9405 4.81215 16.0151 5.30635 16.3084 5.67944C17.1776 6.78519 17.2712 8.29246 16.5427 9.45494L16.3778 9.71814C16.0885 10.1797 15.4697 10.3122 14.9956 10.0142C14.5215 9.71616 14.3717 9.1004 14.6609 8.63886L14.8259 8.37565C15.1153 7.91379 15.0781 7.31494 14.7328 6.87562C13.9945 5.93656 13.8067 4.69269 14.2397 3.60964L14.637 2.61553C14.8394 2.1092 15.4227 1.8716 15.9399 2.08484Z" fill="black"/>
</svg>
