<svg width="24" height="24" viewBox="0 0 24 24" fill="none" xmlns="http://www.w3.org/2000/svg">
<path fill-rule="evenodd" clip-rule="evenodd" d="M2.46033 16.8649C2.80286 16.4386 3.41771 16.3776 3.83364 16.7287C6.47575 18.959 9.02792 20.0009 11.5061 20.0009C13.9843 20.0009 16.5365 18.959 19.1786 16.7287C19.5945 16.3776 20.2093 16.4386 20.5519 16.8649C20.8944 17.2912 20.8349 17.9215 20.419 18.2726C17.5323 20.7093 14.5562 22.0009 11.5061 22.0009C8.456 22.0009 5.47988 20.7093 2.59322 18.2726C2.1773 17.9215 2.1178 17.2912 2.46033 16.8649Z" fill="black"/>
<path fill-rule="evenodd" clip-rule="evenodd" d="M18.2933 2.00154C18.6624 1.98522 19.0088 2.18397 19.1882 2.51497L21.6272 7.01497C21.8387 7.40527 21.7722 7.89201 21.4642 8.20772L20.0008 9.70772C19.7039 10.0121 19.2502 10.0875 18.8746 9.89504L17.796 9.34226L17.4147 10.124L19.285 18.2716C19.4084 18.8092 19.0833 19.3475 18.5588 19.474C18.0343 19.6005 17.5091 19.2673 17.3857 18.7297L15.4345 10.2297C15.3822 10.0019 15.4095 9.76264 15.5115 9.5534L16.4871 7.5534C16.7281 7.05942 17.3141 6.8592 17.796 7.10619L19.1183 7.78385L19.5641 7.32688L17.7837 4.04187C15.9053 4.22916 14.8593 4.87941 14.1706 5.67224C13.3659 6.59857 12.9474 7.81646 12.4461 9.27504L12.4263 9.33288C12.2888 9.73298 11.9199 10.0006 11.5061 10.0006H7.41965L5.63151 18.7066C5.52051 19.2471 5.0031 19.5929 4.47584 19.4792C3.94858 19.3654 3.61114 18.835 3.72214 18.2946L5.4228 10.0145C4.98988 10.0671 4.5841 10.2672 4.27272 10.5864C3.90679 10.9615 3.70122 11.4702 3.70122 12.0006C3.70122 12.5529 3.26442 13.0006 2.72561 13.0006C2.18679 13.0006 1.75 12.5529 1.75 12.0006C1.75 10.9397 2.16115 9.92233 2.893 9.17219C3.62485 8.42204 4.61744 8.00061 5.65243 8.00061H6.60744C6.62048 8.00034 6.63357 8.00034 6.64668 8.00061H10.8156C11.2422 6.77625 11.7682 5.4302 12.7133 4.34224C13.8913 2.98622 15.6222 2.11969 18.2933 2.00154Z" fill="black"/>
<path fill-rule="evenodd" clip-rule="evenodd" d="M8.64906 14.6292C8.79722 14.2496 9.15596 14.0006 9.55489 14.0006H13.4573C13.8563 14.0006 14.215 14.2496 14.3632 14.6292L16.3144 19.6292C16.5145 20.142 16.2712 20.724 15.7709 20.9291C15.2706 21.1342 14.7028 20.8848 14.5027 20.372L12.7968 16.0006H10.2154L8.50951 20.372C8.3094 20.8848 7.74162 21.1342 7.24134 20.9291C6.74107 20.724 6.49774 20.142 6.69785 19.6292L8.64906 14.6292Z" fill="black"/>
</svg>
