<svg width="24" height="24" viewBox="0 0 24 24" fill="none" xmlns="http://www.w3.org/2000/svg">
<path d="M7.19584 2.00061C5.98991 2.00061 5.01049 2.97581 5.01049 4.18131C5.01049 4.95295 5.41204 5.63051 6.01753 6.01809C5.90087 6.05471 5.78788 6.10182 5.67889 6.16021C5.07204 6.48527 4.73436 7.0816 4.53768 7.74731L4.52787 7.7805L4.52195 7.8146C4.34847 8.81402 4.26105 9.36162 4.18955 10.5002C4.08962 11.6815 4.21976 12.9714 4.74167 13.8726C5.01098 14.3376 5.40605 14.7332 5.95584 14.9133C6.5054 15.0934 7.11589 15.0276 7.75585 14.7543L7.76486 14.7503C8.68931 14.3374 9.34488 14.1476 9.80763 14.101C10.2578 14.0557 10.4692 14.1499 10.587 14.2468C10.7224 14.3583 10.8461 14.5644 10.9475 14.9452C11.0487 15.3253 11.1058 15.7882 11.1732 16.3467L11.1743 16.356C11.2316 16.8304 11.2955 17.3601 11.4045 17.8944L11.4353 18.0454C9.95573 18.5666 8.44684 19.0185 6.71586 19.5191L6.36676 19.6201L4.93882 19.003C4.17898 18.6747 3.31711 18.6747 2.55727 19.003L2.00073 19.2435V21.4208L3.35112 20.8373C3.6044 20.7279 3.89169 20.7279 4.14497 20.8373L6.26714 21.7544C7.02698 22.0827 7.88885 22.0827 8.64869 21.7544L10.7709 20.8373C11.0241 20.7279 11.3114 20.7279 11.5647 20.8373L13.6869 21.7544C14.4467 22.0827 15.3086 22.0827 16.0684 21.7544L18.1906 20.8373C18.4439 20.7279 18.7312 20.7279 18.9845 20.8373L21.1066 21.7544C21.392 21.8777 21.6919 21.9547 21.9953 21.9854V19.9555C21.9632 19.9453 21.9316 19.9335 21.9005 19.9201L19.7783 19.003C19.0185 18.6747 18.1566 18.6747 17.3967 19.003L15.2746 19.9201C15.0213 20.0295 14.734 20.0295 14.4807 19.9201L13.6385 19.5561C15.6435 18.8304 17.642 17.9254 20.1437 16.5013L20.6104 16.2357L19.7228 14.1797L19.1427 14.5031C17.3748 15.4886 15.854 16.2455 14.421 16.8715C14.3638 16.6309 14.311 16.3416 14.2495 16.0029L14.2377 15.9379C14.038 14.8377 13.7524 13.2645 12.8905 12.1773C12.431 11.5977 11.8038 11.1469 10.9574 10.969C10.3118 10.8333 9.57171 10.8633 8.72268 11.0761C8.70311 10.4635 8.7185 9.94519 8.89358 9.35893C10.2897 9.38939 11.848 9.32182 13.6404 9.11571C13.6581 9.66366 14.1014 10.1072 14.7234 10.124L14.7316 10.1242H21.9991V8.04027H15.8924C15.9191 7.93453 15.9307 7.82299 15.9254 7.70726C15.9108 7.39026 15.7607 7.08733 15.4926 6.88038C15.2283 6.67632 14.8912 6.59551 14.5361 6.62122C12.0176 6.72473 10.1482 6.49908 8.13625 6.15025C8.87221 5.79957 9.38119 5.05006 9.38119 4.18131C9.38119 2.97581 8.40176 2.00061 7.19584 2.00061Z" fill="black"/>
</svg>
