<svg width="24" height="24" viewBox="0 0 24 24" fill="none" xmlns="http://www.w3.org/2000/svg">
<path d="M11.2 21.949C10.0333 21.7253 8.9 21.3382 7.8 20.7877C6.7 20.2372 5.721 19.4716 4.863 18.4909C4.00433 17.5103 3.31267 16.2974 2.788 14.8522C2.26333 13.4071 2.00067 11.6866 2 9.69093V9.48448C2 9.24362 2.075 9.04577 2.225 8.89093C2.375 8.73609 2.56667 8.65867 2.8 8.65867H3C3.85 8.65867 4.725 8.7705 5.625 8.99416C6.525 9.21781 7.36667 9.5533 8.15 10.0006C8.33333 8.72749 8.7 7.41997 9.25 6.07803C9.8 4.73609 10.4583 3.52319 11.225 2.43932C11.425 2.14685 11.6833 2.00061 12 2.00061C12.3167 2.00061 12.575 2.14685 12.775 2.43932C13.5417 3.52319 14.2 4.73609 14.75 6.07803C15.3 7.41997 15.6667 8.72749 15.85 10.0006C16.6333 9.5533 17.475 9.21781 18.375 8.99416C19.275 8.7705 20.15 8.65867 21 8.65867H21.1C21.35 8.65867 21.5627 8.74917 21.738 8.93016C21.9133 9.11115 22.0007 9.33033 22 9.58771V9.69093C22 11.6866 21.7373 13.4071 21.212 14.8522C20.6867 16.2974 19.995 17.5103 19.137 18.4909C18.279 19.4716 17.3 20.2372 16.2 20.7877C15.1 21.3382 13.9667 21.7253 12.8 21.949C12.5833 21.9834 12.3167 22.0006 12 22.0006C11.6833 22.0006 11.4167 21.9834 11.2 21.949ZM11.95 19.9619C11.7667 17.1232 10.9377 14.9682 9.463 13.4969C7.98833 12.0256 6.184 11.1182 4.05 10.7748C4.01667 10.7748 4.01667 10.7748 4.05 10.7748C4.23333 13.6823 5.08767 15.8673 6.613 17.3296C8.13833 18.792 9.91733 19.6694 11.95 19.9619C11.9833 19.9791 11.9833 19.9836 11.95 19.9753C11.9167 19.9671 11.9167 19.9626 11.95 19.9619ZM10.05 11.1877C10.3833 11.4802 10.7333 11.8284 11.1 12.2324C11.4667 12.6363 11.7667 13.0279 12 13.4071C12.25 13.0286 12.5543 12.637 12.913 12.2324C13.2717 11.8277 13.6173 11.4795 13.95 11.1877C13.9167 10.2071 13.7293 9.18341 13.388 8.11674C13.0467 7.05007 12.584 6.00921 12 4.99416C11.4167 6.00921 10.954 7.05007 10.612 8.11674C10.27 9.18341 10.0827 10.2071 10.05 11.1877ZM13.1 15.5748C13.3 16.1253 13.471 16.7275 13.613 17.3813C13.755 18.035 13.8673 18.7404 13.95 19.4974C14.55 19.2909 15.1833 18.9813 15.85 18.5684C16.5167 18.1554 17.1333 17.6049 17.7 16.9167C18.2667 16.2286 18.7583 15.3811 19.175 14.3743C19.5917 13.3675 19.85 12.1677 19.95 10.7748C19.95 10.7404 19.95 10.7404 19.95 10.7748C18.3833 11.0157 17.0083 11.5535 15.825 12.3882C14.6417 13.223 13.7333 14.2852 13.1 15.5748Z" fill="black"/>
</svg>
