<svg width="24" height="24" viewBox="0 0 24 24" fill="none" xmlns="http://www.w3.org/2000/svg">
<path fill-rule="evenodd" clip-rule="evenodd" d="M7.24046 4.84825L6.01454 3.00061L4.4166 4.20478L5.62491 6.02587H5.4928C5.22972 6.02587 4.97171 6.11617 4.77822 6.31058C4.58473 6.50499 4.49486 6.76423 4.49486 7.02856V9.03396H2V11.0394H3.49692V20.6998H5.4928V11.0394H11.479V19.9979C11.479 20.2622 11.5689 20.5215 11.7624 20.7159C11.9559 20.9103 12.2139 21.0006 12.477 21.0006H19.5051C19.7682 21.0006 20.0262 20.9103 20.2197 20.7159C20.4132 20.5215 20.5031 20.2622 20.5031 19.9979V11.0394H22V9.03396H9.98355V7.02856C9.98355 6.76423 9.89368 6.50499 9.70019 6.31058C9.51122 6.1207 9.2607 6.03014 9.00402 6.02601L9.63421 4.44305L7.70969 3.66958L7.24046 4.84825ZM6.49075 9.03396V8.03126H7.98766V9.03396H6.49075ZM13.4749 14.0474V11.0394H18.5072V14.0474H13.4749ZM13.4749 18.9952V16.0528H18.5072V18.9952H13.4749Z" fill="black"/>
</svg>
