<svg width="24" height="24" viewBox="0 0 24 24" fill="none" xmlns="http://www.w3.org/2000/svg">
<path fill-rule="evenodd" clip-rule="evenodd" d="M8.84231 4.15986C8.42355 4.15986 8.02195 4.33048 7.72584 4.63418C7.42974 4.93789 7.26339 5.3498 7.26339 5.7793V9.55799H14.6317V5.7793C14.6317 4.77713 15.0198 3.816 15.7108 3.10736C16.4017 2.39872 17.3387 2.00061 18.3158 2.00061C19.2929 2.00061 20.23 2.39872 20.9209 3.10736C21.6118 3.816 22 4.77713 22 5.7793C21.9997 6.05447 21.897 6.31915 21.7128 6.51924C21.5286 6.71933 21.2769 6.83975 21.0091 6.85587C20.7412 6.872 20.4775 6.78262 20.2718 6.60601C20.066 6.42939 19.9338 6.17886 19.9021 5.90562L19.8948 5.7793C19.8948 5.3498 19.7284 4.93789 19.4323 4.63418C19.1362 4.33048 18.7346 4.15986 18.3158 4.15986C17.8971 4.15986 17.4955 4.33048 17.1994 4.63418C16.9033 4.93789 16.7369 5.3498 16.7369 5.7793V14.9561C16.7369 15.1116 16.7053 15.2584 16.6475 15.3912C16.8294 15.4927 17.0365 15.537 17.2428 15.5183C17.4492 15.4997 17.6456 15.4191 17.8074 15.2865L19.2369 14.1129C19.3448 14.0243 19.4688 13.9584 19.6016 13.9189C19.7344 13.8794 19.8735 13.8671 20.0109 13.8828C20.1483 13.8984 20.2814 13.9417 20.4025 14.01C20.5237 14.0784 20.6305 14.1706 20.7169 14.2814C20.8033 14.3921 20.8675 14.5192 20.906 14.6554C20.9445 14.7916 20.9565 14.9343 20.9413 15.0752C20.926 15.2162 20.8839 15.3527 20.8172 15.4769C20.7505 15.6011 20.6606 15.7107 20.5527 15.7993L19.1232 16.9718C18.6 17.4012 17.9571 17.6488 17.2876 17.6786C16.6181 17.7085 15.9567 17.5192 15.3991 17.138L14.8022 16.7299C14.6163 16.6027 14.3957 16.5394 14.1724 16.5493C13.9491 16.5592 13.7346 16.6418 13.5601 16.785L13.4464 16.8789C12.8865 17.3383 12.1909 17.5886 11.4738 17.5886C10.7568 17.5886 10.0612 17.3383 9.50125 16.8789L9.38651 16.785C9.21188 16.6419 8.99738 16.5596 8.77407 16.5498C8.55076 16.5401 8.33023 16.6036 8.14443 16.731L7.5497 17.138C6.99195 17.5195 6.33034 17.7089 5.66062 17.679C4.9909 17.6492 4.34783 17.4014 3.82449 16.9718L2.39504 15.7993C2.17701 15.6203 2.03722 15.3599 2.00643 15.0752C1.97563 14.7905 2.05635 14.505 2.23083 14.2814C2.40532 14.0577 2.65927 13.9143 2.93681 13.8828C3.21436 13.8512 3.49278 13.934 3.71081 14.1129L5.15816 15.3016V5.7793C5.15816 5.28308 5.25345 4.79171 5.4386 4.33326C5.62374 3.87481 5.89512 3.45825 6.23722 3.10736C6.57933 2.75648 6.98546 2.47814 7.43245 2.28825C7.87943 2.09835 8.3585 2.00061 8.84231 2.00061C9.32612 2.00061 9.80519 2.09835 10.2522 2.28825C10.6992 2.47814 11.1053 2.75648 11.4474 3.10736C11.7895 3.45825 12.0609 3.87481 12.246 4.33326C12.4312 4.79171 12.5265 5.28308 12.5265 5.7793C12.5262 6.05447 12.4234 6.31915 12.2393 6.51924C12.0551 6.71933 11.8034 6.83975 11.5355 6.85587C11.2677 6.872 11.004 6.78262 10.7982 6.60601C10.5925 6.42939 10.4603 6.17886 10.4286 5.90562L10.4212 5.7793C10.4212 5.3498 10.2549 4.93789 9.95878 4.63418C9.66267 4.33048 9.26107 4.15986 8.84231 4.15986ZM14.6317 14.4174V11.7172H7.26339V14.7596C7.80684 14.4675 8.42148 14.3441 9.0322 14.4045C9.64292 14.4649 10.2233 14.7065 10.7023 15.0997L10.816 15.1936C11.0027 15.3469 11.2347 15.4305 11.4738 15.4305C11.713 15.4305 11.945 15.3469 12.1317 15.1936L12.2454 15.0997C12.5777 14.8266 12.9604 14.6253 13.3705 14.5079C13.7805 14.3904 14.2096 14.3593 14.6317 14.4163V14.4174ZM17.8074 19.605C17.6328 19.7481 17.4183 19.8304 17.195 19.8401C16.9717 19.8498 16.7512 19.7864 16.5653 19.659L15.9706 19.2519C15.4129 18.8705 14.7513 18.6811 14.0815 18.7109C13.4118 18.7408 12.7688 18.9885 12.2454 19.4182L12.1317 19.5121C11.945 19.6654 11.713 19.749 11.4738 19.749C11.2347 19.749 11.0027 19.6654 10.816 19.5121L10.7023 19.4182C10.179 18.9888 9.53617 18.7412 8.86668 18.7113C8.19718 18.6815 7.53577 18.8708 6.97813 19.2519L6.3813 19.66C6.19538 19.7873 5.97479 19.8506 5.75148 19.8407C5.52817 19.8308 5.31372 19.7482 5.13921 19.605L3.71081 18.4314C3.49278 18.2525 3.21436 18.1697 2.93681 18.2013C2.65927 18.2328 2.40532 18.3762 2.23083 18.5999C2.05635 18.8235 1.97563 19.109 2.00643 19.3937C2.03722 19.6784 2.17701 19.9388 2.39504 20.1178L3.82449 21.2903C4.34783 21.7199 4.9909 21.9677 5.66062 21.9975C6.33034 22.0274 6.99195 21.838 7.5497 21.4565L8.14548 21.0484C8.33139 20.9212 8.55198 20.8579 8.77529 20.8678C8.99861 20.8777 9.21305 20.9603 9.38757 21.1035L9.50125 21.1974C10.0612 21.6568 10.7568 21.9071 11.4738 21.9071C12.1909 21.9071 12.8865 21.6568 13.4464 21.1974L13.5612 21.1035C13.7358 20.9604 13.9503 20.8781 14.1736 20.8684C14.3969 20.8586 14.6175 20.9221 14.8033 21.0495L15.3991 21.4565C15.9567 21.8377 16.6181 22.027 17.2876 21.9972C17.9571 21.9673 18.6 21.7197 19.1232 21.2903L20.5527 20.1178C20.6606 20.0292 20.7505 19.9196 20.8172 19.7954C20.8839 19.6712 20.926 19.5347 20.9413 19.3937C20.9565 19.2528 20.9445 19.1101 20.906 18.9739C20.8675 18.8377 20.8033 18.7106 20.7169 18.5999C20.6305 18.4891 20.5237 18.3969 20.4025 18.3285C20.2814 18.2602 20.1483 18.2169 20.0109 18.2013C19.8735 18.1856 19.7344 18.1979 19.6016 18.2374C19.4688 18.2769 19.3448 18.3428 19.2369 18.4314L17.8074 19.605Z" fill="black"/>
</svg>
