<svg width="24" height="24" viewBox="0 0 24 24" fill="none" xmlns="http://www.w3.org/2000/svg">
<path d="M4 20.0006C3.45 20.0006 2.979 19.8046 2.587 19.4126C2.195 19.0206 1.99934 18.5499 2 18.0006V6.00061C2 5.45061 2.196 4.97961 2.588 4.58761C2.98 4.19561 3.45067 3.99995 4 4.00061H20C20.55 4.00061 21.021 4.19661 21.413 4.58861C21.805 4.98061 22.0007 5.45128 22 6.00061V18.0006C22 18.5506 21.804 19.0216 21.412 19.4136C21.02 19.8056 20.5493 20.0013 20 20.0006H4ZM4 18.0006H20V6.00061H4V18.0006ZM5 17.0006H15V7.00061H5V17.0006ZM18 17.0006C18.2833 17.0006 18.521 16.9046 18.713 16.7126C18.905 16.5206 19.0007 16.2833 19 16.0006C19 15.7173 18.904 15.4796 18.712 15.2876C18.52 15.0956 18.2827 14.9999 18 15.0006C17.7167 15.0006 17.479 15.0966 17.287 15.2886C17.095 15.4806 16.9993 15.7179 17 16.0006C17 16.2839 17.096 16.5216 17.288 16.7136C17.48 16.9056 17.7173 17.0013 18 17.0006ZM7 15.0006V9.00061H13V15.0006H7ZM18 13.0006C18.2833 13.0006 18.521 12.9046 18.713 12.7126C18.905 12.5206 19.0007 12.2833 19 12.0006C19 11.7173 18.904 11.4796 18.712 11.2876C18.52 11.0956 18.2827 10.9999 18 11.0006C17.7167 11.0006 17.479 11.0966 17.287 11.2886C17.095 11.4806 16.9993 11.7179 17 12.0006C17 12.2839 17.096 12.5216 17.288 12.7136C17.48 12.9056 17.7173 13.0013 18 13.0006ZM18 9.00061C18.2833 9.00061 18.521 8.90461 18.713 8.71261C18.905 8.52061 19.0007 8.28328 19 8.00061C19 7.71728 18.904 7.47961 18.712 7.28761C18.52 7.09561 18.2827 6.99995 18 7.00061C17.7167 7.00061 17.479 7.09661 17.287 7.28861C17.095 7.48061 16.9993 7.71795 17 8.00061C17 8.28395 17.096 8.52161 17.288 8.71361C17.48 8.90561 17.7173 9.00128 18 9.00061Z" fill="black"/>
</svg>
