<svg width="24" height="24" viewBox="0 0 24 24" fill="none" xmlns="http://www.w3.org/2000/svg">
<path d="M1 9.00062L3 11.0006C7.97 6.03062 16.03 6.03062 21 11.0006L23 9.00062C16.93 2.93062 7.08 2.93062 1 9.00062ZM9 17.0006L12 20.0006L15 17.0006C14.6064 16.606 14.1388 16.2929 13.624 16.0792C13.1092 15.8656 12.5574 15.7556 12 15.7556C11.4426 15.7556 10.8908 15.8656 10.376 16.0792C9.86117 16.2929 9.39359 16.606 9 17.0006ZM5 13.0006L7 15.0006C8.32646 13.6753 10.1249 12.9308 12 12.9308C13.8751 12.9308 15.6735 13.6753 17 15.0006L19 13.0006C15.14 9.14062 8.87 9.14062 5 13.0006Z" fill="black"/>
</svg>
