<svg width="24" height="24" viewBox="0 0 24 24" fill="none" xmlns="http://www.w3.org/2000/svg">
<path d="M10.487 4.04081C11.1888 4.15626 11.8267 4.51726 12.287 5.05942C12.7472 5.60157 13 6.28962 13 7.00081V9.00081H7V7.00081C7 5.96181 7.528 5.04581 8.33 4.50781C8.04198 4.25135 7.68596 4.08364 7.30482 4.02486C6.92368 3.96608 6.53367 4.01875 6.18178 4.17653C5.82988 4.3343 5.5311 4.59044 5.32143 4.91411C5.11176 5.23778 5.00013 5.61516 5 6.00081V12.0008H21C21.2652 12.0008 21.5196 12.1062 21.7071 12.2937C21.8946 12.4812 22 12.7356 22 13.0008C22 13.266 21.8946 13.5204 21.7071 13.7079C21.5196 13.8955 21.2652 14.0008 21 14.0008V15.0008C21.0002 16.2419 20.6156 17.4525 19.8992 18.4659C19.1829 19.4794 18.17 20.2458 17 20.6598V21.0008C17 21.266 16.8946 21.5204 16.7071 21.7079C16.5196 21.8955 16.2652 22.0008 16 22.0008C15.7348 22.0008 15.4804 21.8955 15.2929 21.7079C15.1054 21.5204 15 21.266 15 21.0008H9C9 21.266 8.89464 21.5204 8.70711 21.7079C8.51957 21.8955 8.26522 22.0008 8 22.0008C7.73478 22.0008 7.48043 21.8955 7.29289 21.7079C7.10536 21.5204 7 21.266 7 21.0008V20.6598C5.83001 20.2458 4.81712 19.4794 4.10077 18.4659C3.38442 17.4525 2.99985 16.2419 3 15.0008V14.0008C2.73478 14.0008 2.48043 13.8955 2.29289 13.7079C2.10536 13.5204 2 13.266 2 13.0008C2 12.7356 2.10536 12.4812 2.29289 12.2937C2.48043 12.1062 2.73478 12.0008 3 12.0008V6.00081C2.99996 5.11629 3.29309 4.25671 3.83355 3.55652C4.37401 2.85633 5.13131 2.35502 5.98699 2.13101C6.84267 1.90701 7.74846 1.97294 8.56269 2.31849C9.37691 2.66405 10.0536 3.26973 10.487 4.04081ZM19 14.0008H5V15.0008C5 16.0617 5.42143 17.0791 6.17157 17.8292C6.92172 18.5794 7.93913 19.0008 9 19.0008H15C16.0609 19.0008 17.0783 18.5794 17.8284 17.8292C18.5786 17.0791 19 16.0617 19 15.0008V14.0008ZM10 6.00081C9.73478 6.00081 9.48043 6.10617 9.29289 6.2937C9.10536 6.48124 9 6.73559 9 7.00081H11C11 6.73559 10.8946 6.48124 10.7071 6.2937C10.5196 6.10617 10.2652 6.00081 10 6.00081Z" fill="black"/>
</svg>
