<svg width="24" height="24" viewBox="0 0 24 24" fill="none" xmlns="http://www.w3.org/2000/svg">
<path fill-rule="evenodd" clip-rule="evenodd" d="M6.34826 2.13738L5.57834 2.07035C5.20927 2.03821 4.93465 2.40458 5.06902 2.74982L9.80453 14.9165L7.04158 14.9848C6.504 14.9981 6.07904 15.4448 6.09255 15.9824V15.9824C6.10605 16.5197 6.55249 16.9444 7.08981 16.931L15.6376 16.7188C16.1751 16.7054 16.6 16.2588 16.5865 15.7212V15.7212C16.573 15.1839 16.1265 14.7592 15.5892 14.7726L13.7378 14.8187L18.0411 12.8626C18.4417 12.6805 18.6745 12.2564 18.6131 11.8207V11.8207L18.6123 11.8161C18.027 8.20388 15.6873 5.38115 11.8711 3.65208C10.1198 2.86641 8.25676 2.3554 6.34826 2.13738ZM17.4848 18.7163C17.4804 18.5952 17.381 18.4994 17.2598 18.4994H15.7541C15.6334 18.4994 15.5342 18.5945 15.5291 18.7151V18.7151C15.5152 19.0476 15.3749 19.3624 15.1366 19.5959C14.8983 19.8295 14.5798 19.9643 14.2455 19.9732L14.2417 19.9733C14.0794 19.9804 13.9173 19.9549 13.765 19.8985C13.6127 19.8422 13.4734 19.7559 13.3552 19.645C13.237 19.5341 13.1424 19.4006 13.0769 19.2527C13.0115 19.1047 12.9765 18.9452 12.9741 18.7835V18.7835C12.9723 18.6605 12.8721 18.5617 12.749 18.5617H11.2006C11.0751 18.5617 10.9739 18.6642 10.9755 18.7897V18.7897C10.9775 18.9485 10.9473 19.1062 10.8867 19.2531C10.8261 19.4001 10.7363 19.5334 10.6227 19.6451C10.5092 19.7567 10.3741 19.8445 10.2257 19.903C10.0774 19.9614 9.91886 19.9895 9.75945 19.9857C9.42439 19.9756 9.10562 19.8395 8.86738 19.6048C8.62903 19.37 8.48903 19.0539 8.47563 18.7205V18.7205C8.47078 18.5997 8.3715 18.5043 8.25066 18.5043H6.7449C6.62388 18.5043 6.5245 18.6 6.51991 18.721V18.721C6.50718 19.0563 6.36759 19.3745 6.12911 19.6118C5.89062 19.8491 5.57066 19.988 5.23363 20.0007C5.07257 20.0069 4.91188 19.9813 4.7608 19.9255C4.60971 19.8696 4.47122 19.7846 4.3533 19.6753C4.23537 19.5659 4.14034 19.4345 4.07367 19.2885C4.00701 19.1425 3.97002 18.9848 3.96484 18.8245V18.8245C3.96083 18.7004 3.85715 18.6029 3.73306 18.6067L2.22721 18.6516C2.1021 18.6553 2.00408 18.7605 2.00907 18.8855V18.8855C2.03462 19.5252 2.25139 20.1428 2.63163 20.6593C3.01188 21.1757 3.53833 21.5676 4.14361 21.7846C4.7489 22.0017 5.40551 22.0342 6.02944 21.8779C6.57454 21.7413 7.07304 21.4661 7.47693 21.081C7.74487 21.3389 8.05636 21.5488 8.39773 21.7008C8.81269 21.8855 9.26234 21.9805 9.71693 21.9794C10.1723 21.9848 10.6234 21.8916 11.0389 21.7062C11.3796 21.5542 11.6897 21.3432 11.955 21.0837C12.2217 21.3406 12.5314 21.5504 12.8707 21.7033C13.2852 21.89 13.7347 21.9875 14.1897 21.9896C14.6446 21.9916 15.0949 21.898 15.5111 21.715C15.8531 21.5646 16.1657 21.3566 16.4355 21.1007C16.7053 21.3608 17.0195 21.5721 17.364 21.7245C17.7812 21.909 18.2333 22.0027 18.6898 21.9993C19.1134 22.0112 19.5352 21.9397 19.9309 21.7888C20.328 21.6375 20.691 21.4093 20.9988 21.1174C21.3067 20.8255 21.5533 20.4758 21.7244 20.0885C21.8956 19.7012 21.9878 19.2839 21.9958 18.8609V18.8609C21.9981 18.7381 21.9017 18.6362 21.779 18.6317L20.2732 18.5768C20.1482 18.5722 20.0435 18.6703 20.0399 18.7953V18.7953C20.0305 19.1221 19.8913 19.4318 19.6529 19.6568C19.4149 19.8814 19.0972 20.0032 18.7692 19.9957C18.4326 19.9831 18.1132 19.8445 17.875 19.6075C17.6365 19.3701 17.4971 19.0517 17.4848 18.7163V18.7163ZM7.8057 4.34385L11.4488 13.7049L16.5439 11.3878C15.9178 8.93536 14.291 7.29189 12.4943 6.1907C10.8417 5.17787 9.05595 4.6311 7.8057 4.34385Z" fill="black"/>
</svg>
