<svg width="24" height="24" viewBox="0 0 24 24" fill="none" xmlns="http://www.w3.org/2000/svg">
<path fill-rule="evenodd" clip-rule="evenodd" d="M13.062 6.04051C14.1665 6.04051 15.0619 5.15853 15.0619 4.07055C15.0619 2.98257 14.1665 2.10059 13.062 2.10059C11.9574 2.10059 11.062 2.98257 11.062 4.07055C11.062 5.15853 11.9574 6.04051 13.062 6.04051Z" fill="black"/>
<path fill-rule="evenodd" clip-rule="evenodd" d="M8.42304 13.4188L8.42916 13.4217L6.29968 17.0656L5.85283 17.701L8.05638 19.2046C8.55513 19.5449 9.23954 19.4225 9.58505 18.9313C9.93055 18.44 9.80632 17.7658 9.30757 17.4255L9.04094 17.2436L12.514 12.9448L12.4979 12.9372L12.7321 12.5672C13.101 11.9845 13.8728 11.0762 14.8229 10.3794C15.6802 9.7506 16.5239 9.40709 17.2633 9.43295C17.4469 9.60363 17.6267 9.7696 17.8027 9.93134L17.7843 9.92415L17.1584 9.67959L16.6531 10.118C14.8572 11.6761 12.3429 16.1998 14.7341 21.9006H17.1479C14.8218 17.3183 16.3962 13.7211 17.6514 12.2131C17.8574 12.3004 18.0662 12.3908 18.2772 12.4821L18.3768 12.5252C18.8462 12.7282 19.3318 12.9369 19.7729 13.0989C20.1921 13.2528 20.6753 13.4053 21.1174 13.4355C21.3414 13.4508 21.6503 13.4427 21.9621 13.3135C22.3158 13.1668 22.6073 12.8895 22.7552 12.5048L23 11.8679L22.5229 11.375C21.8153 10.6437 20.9476 9.85193 20.0144 9.00023L20.0135 8.99944L20.0126 8.9986C19.7461 8.75537 19.4742 8.50726 19.1992 8.25428L19.5036 7.82789C19.8527 7.33906 19.7334 6.66406 19.2371 6.32024C18.7408 5.97642 18.0555 6.09397 17.7065 6.5828L17.2182 7.26666C15.8034 7.25452 14.5022 7.91629 13.5107 8.64348C13.2243 8.85351 12.9513 9.07792 12.6948 9.30876L11.2262 8.45775L11.8896 5.93101L11.6035 5.52379C11.4138 5.25365 11.1609 5.10414 10.9702 5.02137C10.7743 4.93631 10.5739 4.8909 10.3972 4.86535C10.044 4.8143 9.64953 4.82362 9.26094 4.86712C8.47679 4.95489 7.53945 5.20233 6.65708 5.60794C5.78173 6.01032 4.87639 6.60726 4.25021 7.44477C3.59797 8.31715 3.27399 9.42475 3.58023 10.6945L3.70026 11.1922C3.55976 11.1887 3.42045 11.1856 3.2823 11.1833C2.51762 11.1707 1.74246 11.1777 1 11.2744V13.465C1.57913 13.3627 2.30987 13.3318 3.24536 13.3473C3.66478 13.3542 4.11518 13.3699 4.59376 13.3865C5.7251 13.4259 7.01406 13.4708 8.42304 13.4188ZM5.66145 9.72144L8.87472 11.2329C9.60583 11.1925 10.3651 11.1208 11.1549 11.002L11.1934 10.9497L8.68417 9.49575L9.32859 7.0413C8.8131 7.11903 8.18486 7.29397 7.58626 7.56913C6.9088 7.88054 6.3535 8.2813 6.0194 8.72816C5.79859 9.0235 5.66622 9.34528 5.66145 9.72144Z" fill="black"/>
</svg>
