<svg width="24" height="24" viewBox="0 0 24 24" fill="none" xmlns="http://www.w3.org/2000/svg">
<path fill-rule="evenodd" clip-rule="evenodd" d="M8.0611 5.00061C8.0611 4.44833 8.50882 4.00061 9.0611 4.00061H16.5961C17.5937 4.00069 18.534 4.41066 19.2543 5.11544C19.9712 5.81692 20.4283 6.76615 20.575 7.78269L21.1578 11.824L21.9761 17.4999C22.018 17.791 22.0048 18.0892 21.9364 18.3757C21.8681 18.6622 21.7447 18.9369 21.5676 19.1786C21.3903 19.4206 21.1609 19.6269 20.8884 19.7731C20.615 19.9198 20.3089 20.0001 19.993 20.0006L19.9913 20.0006H3C2.73478 20.0006 2.48043 19.8953 2.29289 19.7077C2.10536 19.5202 2 19.2658 2 19.0006C2 16.6123 2.82023 14.2978 4.31515 12.5713C5.81398 10.8403 7.88036 9.83394 10.0713 9.83394H18.8501L18.5954 8.06822C18.5063 7.45026 18.2333 6.9146 17.8555 6.54495C17.4811 6.17862 17.0331 6.00067 16.5961 6.00061C16.596 6.00061 16.5961 6.00061 16.5961 6.00061H9.0611C8.50882 6.00061 8.0611 5.5529 8.0611 5.00061ZM19.1386 11.8339H10.0713C8.51137 11.8339 6.98053 12.5484 5.82712 13.8805C4.87055 14.9852 4.24705 16.4339 4.05951 18.0006H19.9512C19.9522 17.9994 19.9532 17.998 19.9543 17.9965C19.9666 17.9798 19.9815 17.9516 19.991 17.9118C20.0005 17.872 20.0027 17.8281 19.9966 17.7853M19.9966 17.7853L19.1783 12.1095L19.1386 11.8339M9.07129 15.5006C9.07129 14.9483 9.519 14.5006 10.0713 14.5006H10.0814C10.6337 14.5006 11.0814 14.9483 11.0814 15.5006C11.0814 16.0529 10.6337 16.5006 10.0814 16.5006H10.0713C9.519 16.5006 9.07129 16.0529 9.07129 15.5006ZM13.112 15.5006C13.112 14.9483 13.5597 14.5006 14.112 14.5006H14.1221C14.6744 14.5006 15.1221 14.9483 15.1221 15.5006C15.1221 16.0529 14.6744 16.5006 14.1221 16.5006H14.112C13.5597 16.5006 13.112 16.0529 13.112 15.5006Z" fill="black"/>
</svg>
