<svg width="24" height="24" viewBox="0 0 24 24" fill="none" xmlns="http://www.w3.org/2000/svg">
<path fill-rule="evenodd" clip-rule="evenodd" d="M7.47319 1.99585C7.25318 1.99585 7.01513 2.05226 6.79717 2.19427C6.58469 2.33272 6.44811 2.51532 6.36307 2.68155L6.35089 2.70535L2.16742 12.0906L2.1616 12.1048C2.07347 12.3201 2.02185 12.6094 2.11053 12.9214C2.20355 13.2487 2.42107 13.4938 2.67712 13.644L2.6964 13.6553L4.51854 14.6179L4.57189 14.6387C5.01621 14.8124 5.64834 14.7661 6.04818 14.2451L6.05292 14.2389L7.1043 12.8238C6.96814 15.0777 6.6432 17.912 6.28773 20.5977C6.15697 21.4526 6.8894 21.9958 7.52053 21.9958H16.587C17.2182 21.9958 17.9506 21.4526 17.8198 20.5977C17.4633 17.9036 17.1374 15.06 17.002 12.8028L18.0762 14.236L18.0831 14.2451C18.2913 14.5164 18.5756 14.6536 18.8242 14.7047C19.0682 14.7549 19.3598 14.74 19.635 14.6055L19.6493 14.5986L21.4805 13.6312L21.5401 13.5875C21.9312 13.3008 22.2228 12.7233 21.9696 12.1048L21.9638 12.0906L17.7804 2.70535L17.7682 2.68155C17.6831 2.51532 17.5466 2.33272 17.3341 2.19428C17.1161 2.05226 16.8781 1.99585 16.6581 1.99585H16.0426H14.3026H9.83714H8.6095V1.99586L8.60944 1.99586L7.47319 1.99585ZM10.6733 3.9964L12.0334 7.25058L13.4387 3.9964H10.6733ZM15.629 3.9964L13.082 9.89453L13.8398 12.6382H14.9771C14.9232 11.639 14.9067 10.7445 14.942 10.0172C14.9584 9.47697 15.3494 9.0644 15.8336 8.96977C16.2689 8.88469 16.7023 9.06224 16.9611 9.39956L16.9681 9.4086L19.2986 12.5182L19.8283 12.2384L16.1544 3.9964L16.0426 3.9964L15.629 3.9964ZM7.97688 3.9964L4.30298 12.2384L4.83019 12.5169L7.10844 9.45051C7.40002 8.99843 7.91295 8.90516 8.25339 8.96755C8.65221 9.04063 9.14851 9.38886 9.16562 10.0188C9.20087 10.7458 9.18434 11.6397 9.13042 12.6382H11.7526L11.0646 10.1473L8.49375 3.9964H7.97688ZM8.39585 19.9953C8.62517 18.2074 8.83992 16.3454 8.98719 14.6387H12.0183V19.9953H8.39585ZM14.0311 19.9953V14.6387H15.1204C15.2677 16.3454 15.4824 18.2074 15.7117 19.9953H14.0311Z" fill="black"/>
</svg>
