<svg width="24" height="24" viewBox="0 0 24 24" fill="none" xmlns="http://www.w3.org/2000/svg">
<path d="M9.07642 10.9324H14.6006V13.3506C14.6006 14.876 13.364 16.1127 11.8385 16.1127C10.313 16.1127 9.07642 14.876 9.07642 13.3506V10.9324Z" stroke="black" stroke-width="1.5"/>
<path d="M8.04492 9.78408C8.04492 9.2628 8.358 8.70271 9.04502 8.23943C9.72756 7.77917 10.713 7.47021 11.8385 7.47021C12.964 7.47021 13.9494 7.77917 14.6319 8.23943C15.319 8.70271 15.632 9.2628 15.632 9.78408C15.632 10.2824 15.3446 10.8181 14.7195 11.2679H8.95747C8.33232 10.8181 8.04492 10.2824 8.04492 9.78408Z" stroke="black" stroke-width="1.5"/>
<path d="M21.3607 9.15679V20.0244C21.3607 20.7148 20.8011 21.2744 20.1107 21.2744H4.11072C3.42036 21.2744 2.86072 20.7148 2.86072 20.0244V9.15679C2.86072 8.71772 3.09109 8.31083 3.4676 8.08493L11.4676 3.28493C11.8635 3.04742 12.358 3.04742 12.7538 3.28493L20.7538 8.08493C21.1303 8.31083 21.3607 8.71772 21.3607 9.15679Z" stroke="black" stroke-width="1.5"/>
<path d="M17.5735 21.2742L6.10321 21.2742L6.10321 19.8628C6.10321 18.6201 7.11057 17.6128 8.35321 17.6128L15.3235 17.6128C16.5661 17.6128 17.5735 18.6201 17.5735 19.8628L17.5735 21.2742Z" stroke="black" stroke-width="1.5"/>
</svg>
