<svg width="24" height="24" viewBox="0 0 24 24" fill="none" xmlns="http://www.w3.org/2000/svg">
<path d="M12 6.00061H9C8.73478 6.00061 8.48043 6.10597 8.29289 6.2935C8.10536 6.48104 8 6.73539 8 7.00061V17.0006C8 17.2658 8.10536 17.5202 8.29289 17.7077C8.48043 17.8953 8.73478 18.0006 9 18.0006C9.26522 18.0006 9.51957 17.8953 9.70711 17.7077C9.89464 17.5202 10 17.2658 10 17.0006V14.0006H12C13.0609 14.0006 14.0783 13.5792 14.8284 12.829C15.5786 12.0789 16 11.0615 16 10.0006C16 8.93974 15.5786 7.92233 14.8284 7.17218C14.0783 6.42204 13.0609 6.00061 12 6.00061ZM12 12.0006H10V8.00061H12C12.5304 8.00061 13.0391 8.21132 13.4142 8.5864C13.7893 8.96147 14 9.47018 14 10.0006C14 10.531 13.7893 11.0398 13.4142 11.4148C13.0391 11.7899 12.5304 12.0006 12 12.0006ZM19 2.00061H5C4.20435 2.00061 3.44129 2.31668 2.87868 2.87929C2.31607 3.4419 2 4.20496 2 5.00061V19.0006C2 19.7963 2.31607 20.5593 2.87868 21.1219C3.44129 21.6845 4.20435 22.0006 5 22.0006H19C19.7956 22.0006 20.5587 21.6845 21.1213 21.1219C21.6839 20.5593 22 19.7963 22 19.0006V5.00061C22 4.20496 21.6839 3.4419 21.1213 2.87929C20.5587 2.31668 19.7956 2.00061 19 2.00061ZM20 19.0006C20 19.2658 19.8946 19.5202 19.7071 19.7077C19.5196 19.8953 19.2652 20.0006 19 20.0006H5C4.73478 20.0006 4.48043 19.8953 4.29289 19.7077C4.10536 19.5202 4 19.2658 4 19.0006V5.00061C4 4.73539 4.10536 4.48104 4.29289 4.2935C4.48043 4.10597 4.73478 4.00061 5 4.00061H19C19.2652 4.00061 19.5196 4.10597 19.7071 4.2935C19.8946 4.48104 20 4.73539 20 5.00061V19.0006Z" fill="black"/>
</svg>
