<svg width="24" height="24" viewBox="0 0 24 24" fill="none" xmlns="http://www.w3.org/2000/svg">
<path fill-rule="evenodd" clip-rule="evenodd" d="M9.66301 2.23514C11.1867 1.92204 12.7419 1.92215 14.2748 2.2372L15.6075 2.50154C15.6963 2.49988 15.7856 2.50976 15.8726 2.5312C16.0686 2.57962 16.2451 2.68468 16.3789 2.83264C16.5128 2.98061 16.5978 3.16457 16.6228 3.36047L16.9478 5.89968H19.009C19.8314 5.89968 20.5 6.55255 20.5 7.35555V20.5447C20.5 21.3477 19.8314 22.0006 19.009 22.0006H4.99095C4.1686 22.0006 3.5 21.3477 3.5 20.5447V7.35555C3.5 6.55255 4.1686 5.89968 4.99095 5.89968H7.05228L7.37735 3.36031C7.40314 3.15927 7.49205 2.97097 7.63186 2.82127C7.77168 2.67157 7.95607 2.56771 8.15871 2.52417C8.17073 2.52161 8.18277 2.51928 8.19482 2.51716L9.66301 2.23514ZM10.0654 4.1564C11.3251 3.89767 12.6021 3.89742 13.8669 4.15735L13.8688 4.15773L13.8957 4.16307L11.8127 7.01552L9.99616 4.16974L10.0619 4.15712L10.0654 4.1564ZM15.292 8.77359L13.3935 8.22898L14.9494 6.09832L15.292 8.77359ZM8.71497 8.72259L9.01913 6.34658L10.2269 8.23884L8.71497 8.72259ZM17.1989 7.8608L17.4746 10.0144C17.4953 10.1758 17.4745 10.3397 17.4141 10.4914C17.3537 10.643 17.2557 10.7776 17.1288 10.883C16.9451 11.0351 16.7138 11.1165 16.4781 11.1165C16.3832 11.1165 16.2881 11.1034 16.1948 11.0766L11.8127 9.59243L7.83473 11.0678C7.73254 11.1006 7.62679 11.1165 7.52238 11.1166C7.38 11.1166 7.23913 11.0871 7.10932 11.0299C6.97948 10.9728 6.86358 10.8893 6.7693 10.7851C6.67502 10.6808 6.60453 10.5582 6.56251 10.4253C6.52048 10.2925 6.50789 10.1524 6.52555 10.0144L6.80123 7.86084H5.50841V20.0395H18.4916V7.8608H17.1989ZM12.0001 13.2149C12.6078 13.2149 13.1005 12.7338 13.1005 12.1403C13.1005 11.5469 12.6078 11.0658 12.0001 11.0658C11.3923 11.0658 10.8996 11.5469 10.8996 12.1403C10.8996 12.7338 11.3923 13.2149 12.0001 13.2149ZM13.1005 15.0077C13.1005 15.6012 12.6078 16.0823 12.0001 16.0823C11.3923 16.0823 10.8996 15.6012 10.8996 15.0077C10.8996 14.4142 11.3923 13.9331 12.0001 13.9331C12.6078 13.9331 13.1005 14.4142 13.1005 15.0077ZM12.0001 18.9496C12.6078 18.9496 13.1005 18.4685 13.1005 17.8751C13.1005 17.2816 12.6078 16.8005 12.0001 16.8005C11.3923 16.8005 10.8996 17.2816 10.8996 17.8751C10.8996 18.4685 11.3923 18.9496 12.0001 18.9496Z" fill="black"/>
</svg>
