<svg width="24" height="24" viewBox="0 0 24 24" fill="none" xmlns="http://www.w3.org/2000/svg">
<path d="M8 10.5765H12.017L12.601 11.1675C13.1486 11.7247 13.8399 12.1063 14.592 12.2666L15.688 12.4985L18.052 19.2206C18.0969 19.3484 18.1657 19.4657 18.2544 19.566C18.3432 19.6662 18.4501 19.7474 18.5692 19.8049C18.6882 19.8623 18.817 19.895 18.9482 19.9009C19.0795 19.9069 19.2106 19.886 19.334 19.8395C19.4574 19.793 19.5708 19.7218 19.6677 19.63C19.7645 19.5382 19.843 19.4275 19.8985 19.3043C19.954 19.1811 19.9856 19.0477 19.9913 18.9119C19.9971 18.7761 19.9769 18.6404 19.932 18.5127L17.599 11.8816L18.392 10.9584C19.0821 10.1561 19.4439 9.10766 19.401 8.03442C19.3581 6.96118 18.9138 5.94723 18.1619 5.20672C17.4101 4.46622 16.4096 4.05715 15.3718 4.06591C14.334 4.07467 13.3401 4.50058 12.6 5.25367L12.016 5.84464H8V10.5765ZM6 10.5765V5.84464H4V10.5765H6ZM11.2 12.6465H4C3.46957 12.6465 2.96086 12.4284 2.58579 12.0402C2.21071 11.652 2 11.1255 2 10.5765V5.84464C2 5.29566 2.21071 4.76916 2.58579 4.38097C2.96086 3.99278 3.46957 3.7747 4 3.7747H11.2C12.3104 2.64566 13.8013 2.00744 15.3579 1.99482C16.9144 1.9822 18.4148 2.59617 19.5422 3.70707C20.6695 4.81797 21.3356 6.33884 21.3998 7.94852C21.4639 9.5582 20.9211 11.1307 19.886 12.3339L21.811 17.8048C21.9494 18.1887 22.0129 18.5973 21.998 19.0068C21.9831 19.4163 21.8899 19.8187 21.724 20.1908C21.5581 20.5629 21.3226 20.8973 21.0312 21.1748C20.7398 21.4522 20.3982 21.6672 20.0261 21.8074C19.6541 21.9475 19.2589 22.0101 18.8633 21.9914C18.4678 21.9727 18.0797 21.8732 17.7215 21.6985C17.3633 21.5238 17.042 21.2775 16.7763 20.9737C16.5105 20.6699 16.3055 20.3147 16.173 19.9285L14.191 14.2941C13.0619 14.0543 12.0236 13.4821 11.201 12.6465H11.2ZM14 7.17561H17C17.2652 7.17561 17.5196 7.28465 17.7071 7.47875C17.8946 7.67284 18 7.93609 18 8.21058C18 8.48508 17.8946 8.74832 17.7071 8.94242C17.5196 9.13651 17.2652 9.24555 17 9.24555H14C13.7348 9.24555 13.4804 9.13651 13.2929 8.94242C13.1054 8.74832 13 8.48508 13 8.21058C13 7.93609 13.1054 7.67284 13.2929 7.47875C13.4804 7.28465 13.7348 7.17561 14 7.17561Z" fill="black"/>
</svg>
