<svg width="24" height="24" viewBox="0 0 24 24" fill="none" xmlns="http://www.w3.org/2000/svg">
<path d="M8.31152 6.91951C7.99104 6.47085 7.36754 6.36695 6.9189 6.68741C6.47025 7.00788 6.36633 7.63137 6.68679 8.08002C7.04034 8.57499 7.2077 9.08485 7.20411 9.63072C7.20047 10.1834 7.02116 10.8053 6.62647 11.5158C5.52496 13.4985 5.49753 15.4167 6.68679 17.0817C7.00727 17.5304 7.63077 17.6343 8.07941 17.3138C8.52806 16.9933 8.63199 16.3699 8.31152 15.9212C7.95797 15.4262 7.79061 14.9164 7.7942 14.3705C7.79784 13.8178 7.97716 13.1959 8.37184 12.4854C9.47335 10.5027 9.50078 8.58448 8.31152 6.91951Z" fill="black"/>
<path d="M12.8124 6.91951C12.4919 6.47085 11.8684 6.36695 11.4197 6.68741C10.9711 7.00788 10.8672 7.63137 11.1876 8.08002C11.5412 8.57499 11.7085 9.08485 11.705 9.63072C11.7013 10.1834 11.522 10.8053 11.1273 11.5158C10.0258 13.4985 9.99837 15.4167 11.1876 17.0817C11.5081 17.5304 12.1316 17.6343 12.5803 17.3138C13.0289 16.9933 13.1328 16.3699 12.8124 15.9212C12.4588 15.4262 12.2915 14.9164 12.295 14.3705C12.2987 13.8178 12.478 13.1959 12.8727 12.4854C13.9742 10.5027 14.0016 8.58448 12.8124 6.91951Z" fill="black"/>
<path d="M17.3132 6.91951C16.9927 6.47085 16.3692 6.36695 15.9206 6.68741C15.4719 7.00788 15.368 7.63137 15.6885 8.08002C16.042 8.57499 16.2094 9.08485 16.2058 9.63072C16.2022 10.1834 16.0228 10.8053 15.6282 11.5158C14.5266 13.4985 14.4992 15.4167 15.6885 17.0817C16.009 17.5304 16.6325 17.6343 17.0811 17.3138C17.5298 16.9933 17.6337 16.3699 17.3132 15.9212C16.9597 15.4262 16.7923 14.9164 16.7959 14.3705C16.7995 13.8178 16.9788 13.1959 17.3735 12.4854C18.475 10.5027 18.5025 8.58448 17.3132 6.91951Z" fill="black"/>
<path fill-rule="evenodd" clip-rule="evenodd" d="M4.12352 2.00061C2.95073 2.00061 2 2.95134 2 4.12413V19.8771C2 21.0499 2.95073 22.0006 4.12352 22.0006H19.8765C21.0493 22.0006 22 21.0499 22 19.8771V4.12413C22 2.95134 21.0493 2.00061 19.8765 2.00061H4.12352ZM3.99662 4.12413C3.99662 4.05405 4.05344 3.99723 4.12352 3.99723H19.8765C19.9466 3.99723 20.0034 4.05405 20.0034 4.12413V19.8771C20.0034 19.9472 19.9466 20.004 19.8765 20.004H4.12352C4.05344 20.004 3.99662 19.9472 3.99662 19.8771V4.12413Z" fill="black"/>
</svg>
