<svg width="24" height="24" viewBox="0 0 24 24" fill="none" xmlns="http://www.w3.org/2000/svg">
<path d="M6.01666 4.12765C6.01665 3.70697 6.14139 3.29573 6.3751 2.94594C6.60881 2.59616 6.941 2.32353 7.32965 2.16253C7.71831 2.00154 8.14597 1.95941 8.55857 2.04147C8.97117 2.12354 9.35016 2.32611 9.64763 2.62357C9.9451 2.92103 10.1477 3.30002 10.2298 3.71262C10.3118 4.12521 10.2697 4.55288 10.1087 4.94154C9.94775 5.3302 9.67513 5.66239 9.32535 5.89611C8.97557 6.12983 8.56434 6.25458 8.14366 6.25458C7.57955 6.25458 7.03855 6.0305 6.63966 5.63162C6.24078 5.23274 6.01668 4.69175 6.01666 4.12765ZM19.5898 14.4184L15.5528 10.5606C15.2022 10.2258 14.7585 10.005 14.2801 9.92713H11.9359L9.27962 7.39157C9.11253 7.20471 8.89135 7.07458 8.64686 7.01928C8.40236 6.96398 8.14671 6.98626 7.91546 7.08302L7.67698 7.18382C7.44769 7.28208 7.25451 7.44903 7.12407 7.66166C6.99363 7.8743 6.93235 8.12216 6.94867 8.37108L6.90586 12.0927C6.8991 12.6753 7.03757 13.2504 7.30876 13.7661C7.57994 14.2818 7.97531 14.7218 8.45914 15.0464C8.94297 15.371 9.50004 15.57 10.08 15.6254C10.66 15.6808 11.2447 15.5908 11.7812 15.3636L15.1164 13.9516L17.9762 16.3068C18.2075 16.4935 18.498 16.5912 18.7952 16.5824C19.0923 16.5735 19.3765 16.4586 19.5963 16.2584C19.7207 16.1395 19.8197 15.9965 19.887 15.8381C19.9544 15.6796 19.9889 15.5092 19.9883 15.337C19.9877 15.1649 19.952 14.9947 19.8835 14.8367C19.815 14.6788 19.715 14.5365 19.5898 14.4184ZM15.9866 16.4002C15.5602 16.1253 15.0714 15.9625 14.5654 15.9269C14.0594 15.8913 13.5526 15.984 13.0919 16.1964L11.9026 16.6899C11.2168 16.9818 10.4693 17.0992 9.72705 17.0315C8.98477 16.9638 8.27085 16.7132 7.64912 16.3021C7.02739 15.891 6.51725 15.3322 6.16431 14.6757C5.81137 14.0192 5.62665 13.2855 5.62665 12.5401V7.80814C5.62665 7.35572 5.25989 6.98896 4.80747 6.98896V6.98896C4.35505 6.98896 3.98828 7.35572 3.98828 7.80814V12.5401C3.98716 13.5566 4.23826 14.5575 4.71908 15.453C5.19989 16.3486 5.89539 17.1109 6.74325 17.6716C7.59111 18.2323 8.56484 18.5738 9.57716 18.6656C10.5895 18.7574 11.6088 18.5967 12.5437 18.1977L13.6185 17.7444L13.7749 17.6858C13.9861 17.5889 14.2183 17.5467 14.4501 17.563C14.6819 17.5793 14.9059 17.6536 15.1015 17.7791C15.2971 17.9045 15.458 18.0772 15.5695 18.2811C15.6809 18.485 15.7393 18.7136 15.7394 18.946C15.7389 19.3136 15.5927 19.6661 15.3327 19.926C15.0728 20.186 14.7204 20.3322 14.3527 20.3327H7.72479C7.27236 20.3327 6.90559 20.6994 6.90559 21.1519V21.1519C6.90559 21.6043 7.27236 21.971 7.72479 21.971H14.3527C15.0065 21.971 15.6427 21.7593 16.166 21.3674C16.6893 20.9755 17.0715 20.4247 17.2555 19.7973C17.4395 19.17 17.4153 18.5 17.1865 17.8875C16.9578 17.2751 16.5368 16.7533 15.9866 16.4002Z" fill="black"/>
</svg>
