<svg width="24" height="24" viewBox="0 0 24 24" fill="none" xmlns="http://www.w3.org/2000/svg">
<path fill-rule="evenodd" clip-rule="evenodd" d="M7.92749 2.00061C6.27064 2.00061 4.92749 3.34375 4.92749 5.00061V7.96268L4.3955 9.19741L3.5588 11.1578L2.0805 14.607L2.0798 14.6095L2.07843 14.6143L2.0769 14.6195C2.0315 14.7295 2.0126 14.8448 2.008 14.9606C2.00771 14.9674 2.00586 14.9736 2.00401 14.9798C2.002 14.9865 2 14.9932 2 15.0006V21.0006C2 21.5528 2.4478 22.0006 3 22.0006C3.5522 22.0006 4 21.5528 4 21.0006V20.0006H20V21.0006C20 21.5528 20.4478 22.0006 21 22.0006C21.5522 22.0006 22 21.5528 22 21.0006V15.0006C22 14.9932 21.998 14.9864 21.9959 14.9797C21.9941 14.9735 21.9922 14.9673 21.9919 14.9606C21.9873 14.8448 21.9684 14.7295 21.923 14.6195L21.9216 14.6147L21.9201 14.6095L21.9194 14.607L20.4411 11.1578L19.6045 9.19741L19.0725 7.96276V5.00061C19.0725 3.34376 17.7294 2.00061 16.0725 2.00061H7.92749ZM17.0725 5.41421V5.00061C17.0725 4.44833 16.6248 4.00061 16.0725 4.00061H7.92749C7.3752 4.00061 6.92749 4.44832 6.92749 5.00061V5.41418C6.9909 5.39434 7.05577 5.37785 7.1207 5.36134C7.1342 5.35791 7.14771 5.35447 7.1612 5.35101C7.18463 5.34495 7.20757 5.33769 7.2305 5.33042C7.26472 5.31958 7.29893 5.30874 7.3348 5.30191C7.5085 5.26881 7.6872 5.25061 7.8701 5.25061H10.1299C10.312 5.25061 10.49 5.26881 10.6631 5.30181C10.6994 5.30867 10.7342 5.31954 10.7689 5.33042C10.792 5.33763 10.815 5.34485 10.8386 5.35091C10.8523 5.35444 10.866 5.35795 10.8797 5.36145C10.9761 5.38608 11.0723 5.41069 11.164 5.44641C11.2074 5.46326 11.2483 5.48443 11.2892 5.50563C11.3114 5.51714 11.3336 5.52867 11.3563 5.53951C11.3723 5.54718 11.3884 5.55476 11.4044 5.56234C11.4791 5.59759 11.5536 5.63277 11.6236 5.67581C11.6673 5.70273 11.7078 5.73361 11.7484 5.76453C11.7674 5.77898 11.7864 5.79344 11.8057 5.80751C11.8281 5.82383 11.8511 5.83943 11.874 5.85503C11.9173 5.88443 11.9605 5.9138 12 5.94791C12.0399 5.91347 12.0834 5.88384 12.127 5.85418C12.15 5.83853 12.173 5.82288 12.1955 5.80651C12.2145 5.79263 12.2332 5.77838 12.2519 5.76415C12.2923 5.73336 12.3326 5.70265 12.376 5.67591C12.4465 5.63257 12.5214 5.5972 12.5966 5.56175C12.6128 5.5541 12.629 5.54645 12.6452 5.53871C12.668 5.52784 12.6903 5.51628 12.7126 5.50473C12.7528 5.48385 12.793 5.46302 12.8357 5.44641C12.9288 5.41018 13.0266 5.38525 13.1245 5.36029C13.1372 5.35707 13.1498 5.35385 13.1624 5.35061C13.186 5.34456 13.209 5.33733 13.2321 5.33011C13.2665 5.31932 13.3009 5.30854 13.3369 5.30171C13.51 5.26881 13.688 5.25061 13.8701 5.25061H16.1299C16.3127 5.25061 16.4915 5.26881 16.6652 5.30191C16.7015 5.30877 16.736 5.31971 16.7707 5.33067C16.7936 5.33794 16.8166 5.34521 16.8401 5.35131C16.8547 5.35508 16.8693 5.3588 16.8839 5.36253C16.9473 5.3787 17.0106 5.39485 17.0725 5.41421ZM4 18.0006V16.0006H20V18.0006H4ZM17 8.13981C16.9995 8.21841 16.9902 8.25161 16.9834 8.26971C16.9707 8.30441 16.9595 8.33951 16.9507 8.37521C16.8589 8.73741 16.5137 9.00061 16.1299 9.00061H13.8701C13.4863 9.00061 13.1411 8.73741 13.0493 8.37511C13.0405 8.33951 13.0293 8.30431 13.0166 8.26961C13.0103 8.25251 13.002 8.22271 13.0005 8.13781C13.0039 8.11241 13.0064 8.08701 13.0078 8.06161C13.0356 7.60701 13.4145 7.25061 13.8701 7.25061H16.1299C16.5855 7.25061 16.9644 7.60701 16.9922 8.06161C16.9937 8.08801 16.9961 8.11391 17 8.13981ZM10.9996 8.13751C10.9993 8.16541 10.9977 8.18431 10.9958 8.20201C10.9955 8.20503 10.9953 8.20893 10.9951 8.21283C10.9949 8.21784 10.9947 8.22286 10.9942 8.22601C10.991 8.24681 10.987 8.26031 10.9835 8.26961C10.9708 8.30431 10.9596 8.33941 10.9508 8.37511C10.8589 8.73741 10.5137 9.00061 10.1299 9.00061H7.8701C7.4863 9.00061 7.1411 8.73741 7.0493 8.37511C7.0405 8.33951 7.0293 8.30431 7.0166 8.26961C7.0103 8.25261 7.002 8.22281 7.0005 8.13741C7.004 8.11211 7.0063 8.08691 7.0078 8.06161C7.0356 7.60701 7.4146 7.25061 7.8701 7.25061H10.1299C10.5855 7.25061 10.9644 7.60701 10.9922 8.06161C10.9936 8.08711 10.9964 8.11211 10.9996 8.13751ZM5.73748 11.1462L5.7402 11.1422L6.0728 10.3671C6.07802 10.3713 6.08371 10.3749 6.08941 10.3784C6.09484 10.3819 6.10027 10.3853 6.1053 10.3892C6.16813 10.4385 6.2353 10.4813 6.30265 10.5243C6.31183 10.5302 6.32102 10.536 6.3302 10.5419C6.34809 10.5534 6.36568 10.5652 6.38326 10.577C6.41942 10.6014 6.45551 10.6256 6.494 10.6467C6.56641 10.6865 6.64284 10.7186 6.71938 10.7508C6.73152 10.7559 6.74367 10.761 6.7558 10.7661C6.77642 10.7748 6.79667 10.7842 6.81691 10.7936C6.85166 10.8097 6.88638 10.8257 6.9229 10.8385C7.01693 10.8713 7.11497 10.8937 7.21312 10.916C7.22018 10.9176 7.22724 10.9192 7.2343 10.9208C7.25498 10.9255 7.27529 10.9312 7.29559 10.9369C7.32486 10.9452 7.35411 10.9534 7.3844 10.9586C7.5427 10.9856 7.7049 11.0006 7.8701 11.0006H10.1299C10.2995 11.0006 10.4656 10.9839 10.628 10.9554C10.6613 10.9496 10.6933 10.9406 10.7253 10.9317C10.7456 10.926 10.7658 10.9204 10.7864 10.9155C10.8926 10.8905 10.9983 10.8651 11.0998 10.8286C11.1415 10.8136 11.1813 10.7954 11.2212 10.7771C11.2393 10.7687 11.2574 10.7604 11.2757 10.7524C11.3647 10.7135 11.4529 10.6742 11.5371 10.6267C11.5844 10.6 11.629 10.5701 11.6737 10.5401C11.6848 10.5327 11.6959 10.5252 11.7071 10.5178C11.7843 10.4666 11.8599 10.4143 11.9316 10.3559C11.9417 10.3477 11.9525 10.3405 11.9634 10.3333C11.9759 10.3249 11.9885 10.3165 11.9999 10.3066C12.0113 10.3165 12.0239 10.3249 12.0364 10.3333C12.0473 10.3405 12.0581 10.3477 12.0682 10.3559C12.1399 10.4143 12.2155 10.4666 12.2927 10.5178C12.3043 10.5255 12.3158 10.5332 12.3273 10.5409C12.3717 10.5706 12.4159 10.6003 12.4627 10.6267C12.5469 10.6742 12.6351 10.7135 12.7241 10.7524C12.7424 10.7604 12.7605 10.7687 12.7786 10.7771C12.8185 10.7954 12.8583 10.8136 12.9 10.8286C13.0016 10.8652 13.1072 10.8906 13.2134 10.9155C13.2344 10.9204 13.255 10.9262 13.2756 10.9319C13.3073 10.9408 13.339 10.9496 13.3718 10.9554C13.5344 10.9839 13.7005 11.0006 13.8701 11.0006H16.1299C16.2951 11.0006 16.4572 10.9856 16.6156 10.9585C16.6463 10.9532 16.6758 10.9449 16.7054 10.9366C16.7257 10.9309 16.746 10.9252 16.7667 10.9205C16.7731 10.9191 16.7795 10.9176 16.7859 10.9162C16.8844 10.8938 16.9828 10.8714 17.0772 10.8384C17.1139 10.8256 17.1488 10.8095 17.1837 10.7933C17.2039 10.784 17.2241 10.7746 17.2447 10.7659C17.2563 10.761 17.268 10.7561 17.2796 10.7512C17.3565 10.7188 17.4331 10.6866 17.5059 10.6466C17.5442 10.6256 17.5802 10.6014 17.6162 10.5772C17.6342 10.5651 17.6522 10.553 17.6705 10.5413C17.6816 10.5342 17.6927 10.5271 17.7038 10.52C17.7689 10.4784 17.8338 10.4369 17.8946 10.3891C17.8996 10.3852 17.9051 10.3817 17.9105 10.3783C17.9163 10.3748 17.922 10.3712 17.9272 10.367L18.2598 11.1421C18.2607 11.1441 18.2619 11.1458 18.2631 11.1476C18.2644 11.1493 18.2656 11.151 18.2665 11.153L19.4839 14.0006H4.5161L5.7348 11.1501L5.73748 11.1462Z" fill="black"/>
</svg>
