<svg width="24" height="24" viewBox="0 0 24 24" fill="none" xmlns="http://www.w3.org/2000/svg">
<path fill-rule="evenodd" clip-rule="evenodd" d="M18.9349 2.03652C18.5603 1.93366 18.1598 2.05594 17.9077 2.35009L8.64719 13.157C8.37632 13.4731 8.33139 13.9233 8.5345 14.2862C8.7376 14.6491 9.14599 14.8483 9.55877 14.7858L14.5164 14.0347L12.626 20.7368C12.4768 21.2658 12.7869 21.8149 13.3187 21.9634C13.8504 22.1118 14.4024 21.8033 14.5516 21.2743L16.4598 14.5094L20.3902 17.5346C20.7159 17.7853 21.1628 17.8117 21.5161 17.6012C21.8693 17.3907 22.0567 16.9862 21.9882 16.5823L19.6548 2.82987C19.5902 2.44874 19.3094 2.13937 18.9349 2.03652ZM18.0394 5.26331L19.5902 14.4033L16.5098 12.0324C16.2934 11.8658 16.0178 11.7947 15.7473 11.8357L11.9092 12.4172L18.0394 5.26331Z" fill="black"/>
<path fill-rule="evenodd" clip-rule="evenodd" d="M4.99124 9.19733C4.99124 8.64504 5.43896 8.19733 5.99124 8.19733H7.89365C8.44593 8.19733 8.89365 8.64504 8.89365 9.19733C8.89365 9.74961 8.44593 10.1973 7.89365 10.1973H5.99124C5.43896 10.1973 4.99124 9.74961 4.99124 9.19733Z" fill="black"/>
<path d="M12.9972 4.7865C12.9972 4.23421 12.5494 3.7865 11.9972 3.7865L1.9978 3.7865V5.7865L11.9972 5.7865C12.5494 5.7865 12.9972 5.33878 12.9972 4.7865Z" fill="black"/>
<path d="M6.9641 13.6081C6.9641 13.0558 6.51639 12.6081 5.9641 12.6081L1.9978 12.6081V14.6081L5.9641 14.6081C6.51639 14.6081 6.9641 14.1604 6.9641 13.6081Z" fill="black"/>
<path d="M10.0491 18.0189C10.0491 17.4666 9.60142 17.0189 9.04913 17.0189H1.9978V19.0189H9.04913C9.60142 19.0189 10.0491 18.5711 10.0491 18.0189Z" fill="black"/>
</svg>
