<svg width="24" height="24" viewBox="0 0 24 24" fill="none" xmlns="http://www.w3.org/2000/svg">
<path d="M16 13.0006V5.00061H6V13.0006C6 14.1052 6.89543 15.0006 8 15.0006H14C15.1046 15.0006 16 14.1052 16 13.0006ZM5 3.00061H20C21.1046 3.00061 22 3.89604 22 5.00061V8.00061C22 9.10518 21.1046 10.0006 20 10.0006H18V13.0006C18 15.2097 16.2091 17.0006 14 17.0006H8C5.79086 17.0006 4 15.2097 4 13.0006V4.00061C4 3.44833 4.44772 3.00061 5 3.00061ZM18 5.00061V8.00061H20V5.00061H18ZM2 19.0006H20V21.0006H2V19.0006Z" fill="black"/>
</svg>
