<svg width="24" height="24" viewBox="0 0 24 24" fill="none" xmlns="http://www.w3.org/2000/svg">
<path fill-rule="evenodd" clip-rule="evenodd" d="M12 8.2815L10.553 6.32562C9.86334 5.39347 8.76798 4.8 7.56 4.8C5.51137 4.8 3.8 6.49472 3.8 8.65281C3.8 9.66266 3.95883 10.5902 4.2344 11.4515L4.23811 11.4631L4.23807 11.4631C4.90153 13.5863 6.27648 15.34 7.8195 16.681C9.35591 18.0163 10.9595 18.8551 11.9369 19.197C11.942 19.1975 11.948 19.198 11.9551 19.1985C11.9687 19.1994 11.9839 19.2 12 19.2C12.0161 19.2 12.0313 19.1994 12.0449 19.1985C12.052 19.198 12.058 19.1975 12.0631 19.197C13.0405 18.8551 14.6441 18.0163 16.1805 16.681C17.7235 15.34 19.0985 13.5863 19.7619 11.4631L19.7656 11.4515L19.7656 11.4515C20.0412 10.5902 20.2 9.66266 20.2 8.65281C20.2 6.49472 18.4886 4.8 16.44 4.8C15.232 4.8 14.1367 5.39347 13.447 6.32562L12 8.2815ZM10.7009 3.99128C9.80647 3.36703 8.72242 3 7.56 3C4.49 3 2 5.52809 2 8.65281C2 9.85618 2.19 10.9685 2.52 12C4.1 17.0562 8.97 20.0798 11.38 20.909C11.72 21.0303 12.28 21.0303 12.62 20.909C15.03 20.0798 19.9 17.0562 21.48 12C21.81 10.9685 22 9.85618 22 8.65281C22 5.52809 19.51 3 16.44 3C15.2776 3 14.1935 3.36703 13.2991 3.99128C12.8008 4.33904 12.3614 4.76663 12 5.25506C11.6386 4.76663 11.1992 4.33904 10.7009 3.99128Z" fill="black"/>
</svg>
