<svg width="24" height="24" viewBox="0 0 24 24" fill="none" xmlns="http://www.w3.org/2000/svg">
<path fill-rule="evenodd" clip-rule="evenodd" d="M9.50001 2.00061C8.94772 2.00061 8.50001 2.44661 8.50001 2.99677V5.81679L4.57184 14.6513C4.44829 14.9583 4.48571 15.3063 4.67171 15.5802C4.85771 15.8541 5.16804 16.0182 5.50001 16.0182H8.50001V17.0198H3.00001C2.67856 17.0198 2.37672 17.1737 2.18877 17.4335C2.00081 17.6933 1.94967 18.0272 2.05132 18.331L3.05132 21.3195C3.18744 21.7262 3.56958 22.0006 4.00001 22.0006H15.557C16.0078 22.0007 16.4506 21.8792 16.8378 21.6493L21.5123 18.8715C21.8987 18.6419 22.0836 18.1834 21.9641 17.7513C21.8445 17.3192 21.45 17.0198 21 17.0198H10.5V16.0182H19.5C20.0523 16.0182 20.5 15.5722 20.5 15.0221C20.5 11.5436 19.1614 9.02121 17.1665 6.43779C15.1886 3.87637 12.4279 2.00061 9.50001 2.00061ZM10.5 5.98648C10.5004 6.00171 10.5004 6.01697 10.5 6.03226V14.0259H18.4579C18.2347 11.3669 17.1423 9.67412 15.5813 7.65252C14.0911 5.72269 12.2713 4.45145 10.5 4.09516V5.98648ZM6.97835 14.0259L8.50001 11.1702V14.0259H6.97835ZM4.38743 19.0121L4.72077 20.0083H13.557C13.6471 20.0083 15.7358 19.9841 15.8132 19.9383L17.3717 19.0121H4.38743Z" fill="black"/>
</svg>
