<svg width="24" height="24" viewBox="0 0 24 24" fill="none" xmlns="http://www.w3.org/2000/svg">
<path fill-rule="evenodd" clip-rule="evenodd" d="M0.5 5.50061C0.5 3.84376 1.84315 2.50061 3.5 2.50061H20.5C22.1569 2.50061 23.5 3.84376 23.5 5.50061V9.96884C23.5 11.6257 22.1569 12.9688 20.5 12.9688H19.75C19.1977 12.9688 18.75 12.5211 18.75 11.9688C18.75 11.4166 19.1977 10.9688 19.75 10.9688H20.5C21.0523 10.9688 21.5 10.5211 21.5 9.96884V5.50061C21.5 4.94833 21.0523 4.50061 20.5 4.50061H3.5C2.94772 4.50061 2.5 4.94833 2.5 5.50061V9.96884C2.5 10.5211 2.94772 10.9688 3.5 10.9688H4.25C4.80228 10.9688 5.25 11.4166 5.25 11.9688C5.25 12.5211 4.80228 12.9688 4.25 12.9688H3.5C1.84315 12.9688 0.5 11.6257 0.5 9.96884V5.50061Z" fill="black"/>
<path fill-rule="evenodd" clip-rule="evenodd" d="M12 11.5107C12.5523 11.5107 13 11.9585 13 12.5107V20.5005C13 21.0528 12.5523 21.5005 12 21.5005C11.4477 21.5005 11 21.0528 11 20.5005V12.5107C11 11.9585 11.4477 11.5107 12 11.5107Z" fill="black"/>
<path fill-rule="evenodd" clip-rule="evenodd" d="M16.1885 11.5107C16.7408 11.5107 17.1885 11.9585 17.1885 12.5107V16.3097C17.1885 16.9438 17.3894 17.5616 17.7624 18.0744L19.0992 19.9123C19.4241 20.3589 19.3253 20.9844 18.8787 21.3092C18.4321 21.6341 17.8067 21.5354 17.4818 21.0887L16.145 19.2508C15.5233 18.3962 15.1885 17.3666 15.1885 16.3097V12.5107C15.1885 11.9585 15.6362 11.5107 16.1885 11.5107Z" fill="black"/>
<path fill-rule="evenodd" clip-rule="evenodd" d="M7.81152 11.5107C7.25924 11.5107 6.81152 11.9585 6.81152 12.5107V16.3097C6.81152 16.9438 6.61061 17.5616 6.23763 18.0744L4.90081 19.9123C4.57594 20.3589 4.67466 20.9844 5.12129 21.3092C5.56793 21.6341 6.19335 21.5354 6.51821 21.0887L7.85503 19.2508C8.47667 18.3962 8.81152 17.3666 8.81152 16.3097V12.5107C8.81152 11.9585 8.36381 11.5107 7.81152 11.5107Z" fill="black"/>
<path fill-rule="evenodd" clip-rule="evenodd" d="M5.46826 8.15161C5.46826 7.59933 5.91598 7.15161 6.46826 7.15161H17.5314C18.0837 7.15161 18.5314 7.59933 18.5314 8.15161C18.5314 8.7039 18.0837 9.15161 17.5314 9.15161H6.46826C5.91598 9.15161 5.46826 8.7039 5.46826 8.15161Z" fill="black"/>
</svg>
