<svg width="24" height="24" viewBox="0 0 24 24" fill="none" xmlns="http://www.w3.org/2000/svg">
<path d="M11.9298 5.98597C11.6034 5.98522 11.3172 6.11404 11.0916 6.33914C10.8872 6.54311 10.7625 6.79651 10.7404 7.08399C10.1776 7.26329 9.70075 7.56707 9.32808 8.00365C8.88159 8.52671 8.64542 9.12889 8.64542 9.79527C8.64603 10.5162 8.86099 11.1467 9.32611 11.6365C9.76393 12.0976 10.415 12.4593 11.2266 12.7478C12.0495 13.0479 12.5655 13.2969 12.8259 13.4877C13.027 13.635 13.1047 13.7969 13.1047 14.0091C13.105 14.3079 13.0093 14.4527 12.8675 14.5458C12.6535 14.6864 12.3817 14.768 12.0287 14.768C11.7717 14.7676 11.5468 14.7068 11.3436 14.5892C11.1548 14.4799 10.9815 14.3025 10.833 14.0274L10.8291 14.0202L10.825 14.0131C10.6774 13.7598 10.4613 13.5718 10.1913 13.4582C9.90412 13.3374 9.60058 13.3301 9.30834 13.4407C9.00838 13.5493 8.7741 13.7537 8.63006 14.0404C8.47445 14.35 8.47305 14.682 8.60711 14.9942L8.61056 15.0022L8.6143 15.0102C8.85421 15.5189 9.18198 15.9481 9.59995 16.288C9.92241 16.5502 10.2905 16.745 10.6986 16.8758C10.7118 17.1797 10.8383 17.4471 11.0515 17.6607C11.2771 17.8866 11.5635 18.0151 11.8896 18.0153C12.2164 18.0161 12.5038 17.8881 12.73 17.6615C12.9319 17.4592 13.0555 17.2088 13.0791 16.9252C13.2958 16.8644 13.5052 16.7908 13.7071 16.7039C14.0468 16.5579 14.3497 16.3628 14.6115 16.1175C14.8796 15.8661 15.0913 15.5651 15.2481 15.2207C15.4147 14.8551 15.4905 14.4473 15.4905 14.0091C15.4905 13.3554 15.3013 12.7514 14.9289 12.2094C14.5295 11.6283 13.7942 11.1881 12.8428 10.8391C12.0554 10.5772 11.5006 10.3412 11.2571 10.1827C11.0872 10.0721 11.0312 9.9561 11.0312 9.79527L11.0312 9.79373C11.0309 9.70626 11.0425 9.63444 11.0647 9.57371C11.0945 9.4919 11.1436 9.43022 11.2089 9.37747C11.3295 9.27999 11.5511 9.19391 11.9483 9.19385C12.1587 9.1943 12.3118 9.23065 12.4235 9.28369L12.4349 9.28924C12.5701 9.35649 12.6755 9.43904 12.7581 9.53525C12.926 9.75877 13.1506 9.91626 13.419 9.99869C13.6982 10.0844 13.9824 10.0728 14.2538 9.97014C14.5506 9.86358 14.7877 9.66314 14.9273 9.37234C15.0743 9.06626 15.0707 8.72969 14.8824 8.42979C14.6493 8.04322 14.3426 7.71564 13.9677 7.44828C13.703 7.25954 13.418 7.1246 13.1151 7.04617C13.0858 6.77447 12.9631 6.53461 12.768 6.33993C12.5421 6.11453 12.2558 5.98616 11.9298 5.98597Z" fill="black"/>
<path fill-rule="evenodd" clip-rule="evenodd" d="M12.0448 19.9956C14.7852 19.9956 17.1897 18.4668 18.4629 16.1838L18.2985 16.2183C17.7556 16.3324 17.2229 15.9857 17.1086 15.4439C16.9943 14.9021 17.3417 14.3704 17.8846 14.2563L19.9 13.8329C20.3725 13.7336 20.849 13.9839 21.0345 14.4288L21.9227 16.5594C22.1358 17.0706 21.8933 17.6574 21.381 17.8701C20.886 18.0756 20.3202 17.8565 20.0904 17.3802C18.4501 20.1432 15.4674 22.0006 12.0448 22.0006C7.74195 22.0006 4.13436 19.0649 3.01546 15.0847C2.8656 14.5516 3.17716 13.9982 3.71135 13.8487C4.24554 13.6991 4.80008 14.01 4.94994 14.5431C5.83862 17.7044 8.68998 19.9956 12.0448 19.9956Z" fill="black"/>
<path fill-rule="evenodd" clip-rule="evenodd" d="M11.9552 4.00565C9.21477 4.00565 6.81032 5.53441 5.53712 7.8174L5.70145 7.78288C6.24437 7.66881 6.77714 8.01556 6.89144 8.55736C7.00574 9.09916 6.65827 9.63084 6.11536 9.7449L4.09999 10.1683C3.62746 10.2676 3.151 10.0173 2.96552 9.57239L2.07733 7.44183C1.86422 6.93063 2.10672 6.34381 2.61897 6.13114C3.11401 5.92561 3.67982 6.14472 3.90962 6.62106C5.54987 3.85801 8.53256 2.00061 11.9552 2.00061C16.258 2.00061 19.8656 4.9363 20.9845 8.91652C21.1344 9.44961 20.8228 10.003 20.2887 10.1526C19.7545 10.3021 19.1999 9.9912 19.0501 9.4581C18.1614 6.29683 15.31 4.00565 11.9552 4.00565Z" fill="black"/>
</svg>
