<svg width="24" height="24" viewBox="0 0 24 24" fill="none" xmlns="http://www.w3.org/2000/svg">
<path fill-rule="evenodd" clip-rule="evenodd" d="M2 4.72788C2 4.2258 2.40701 3.81879 2.90909 3.81879H21.0909C21.593 3.81879 22 4.2258 22 4.72788V15.5411C22 16.0432 21.593 16.4502 21.0909 16.4502H2.90909C2.40701 16.4502 2 16.0432 2 15.5411V4.72788ZM3.81818 5.63697V14.632H20.1818V5.63697H3.81818Z" fill="black"/>
<path fill-rule="evenodd" clip-rule="evenodd" d="M11.9999 15.0117C12.502 15.0117 12.909 15.4187 12.909 15.9208V18.3642H15.3312C15.8332 18.3642 16.2403 18.7713 16.2403 19.2733C16.2403 19.7754 15.8332 20.1824 15.3312 20.1824H8.66861C8.16654 20.1824 7.75952 19.7754 7.75952 19.2733C7.75952 18.7713 8.16654 18.3642 8.66861 18.3642H11.0908V15.9208C11.0908 15.4187 11.4978 15.0117 11.9999 15.0117Z" fill="black"/>
</svg>
