<svg width="24" height="24" viewBox="0 0 24 24" fill="none" xmlns="http://www.w3.org/2000/svg">
<path fill-rule="evenodd" clip-rule="evenodd" d="M17.5599 4.13261C17.2265 3.95483 16.8263 3.95483 16.4929 4.13261C16.3266 4.22129 16.2381 4.29573 16.1913 4.35356C15.903 4.7101 15.8207 5.03098 15.8232 5.31849C15.826 5.62846 15.9297 5.96457 16.1152 6.31068C16.7753 7.54202 16.9765 9.32393 16.0883 10.6715C15.2775 11.9015 14.4361 13.3796 14.1525 14.9523C13.8793 16.4667 14.1151 18.0989 15.5412 19.7522C15.6648 19.8955 15.8829 20.0019 16.1619 20.0019H17.8909C18.1699 20.0019 18.388 19.8955 18.5116 19.7522C19.9377 18.0989 20.1735 16.4667 19.9004 14.9523C19.6167 13.3796 18.7753 11.9015 17.9646 10.6715C17.0763 9.32393 17.2776 7.54202 17.9376 6.31068C18.1231 5.96457 18.2269 5.62846 18.2296 5.31849C18.2322 5.03098 18.1498 4.7101 17.8615 4.35356C17.8148 4.29573 17.7262 4.22129 17.5599 4.13261ZM15.5508 2.3694C16.473 1.87768 17.5798 1.87768 18.502 2.3694C18.794 2.52511 19.1382 2.75178 19.4179 3.09769C19.9949 3.81139 20.2369 4.58154 20.2302 5.33618C20.2237 6.06837 19.9847 6.72554 19.7013 7.25418C19.2762 8.04727 19.2661 9.01183 19.6355 9.57237C20.4754 10.8467 21.5102 12.6069 21.8693 14.5979C22.239 16.6472 21.8841 18.9041 20.0273 21.0569C19.467 21.7063 18.6595 22.0006 17.8909 22.0006H16.1619C15.3933 22.0006 14.5858 21.7063 14.0256 21.0569C12.1687 18.9041 11.8139 16.6472 12.1835 14.5979C12.5426 12.6069 13.5774 10.8467 14.4173 9.57237C14.7868 9.01183 14.7766 8.04727 14.3515 7.25418C14.0681 6.72554 13.8291 6.06837 13.8226 5.33618C13.8159 4.58154 14.0579 3.81139 14.6349 3.09769C14.9146 2.75178 15.2588 2.52511 15.5508 2.3694Z" fill="black"/>
<path fill-rule="evenodd" clip-rule="evenodd" d="M19.3718 12.5082H14.355V10.5095H19.3718V12.5082Z" fill="black"/>
<path fill-rule="evenodd" clip-rule="evenodd" d="M9.77493 8.46509C6.5859 8.46509 4.00068 11.0477 4.00068 14.2335C4.00068 17.4194 6.5859 20.002 9.77493 20.002C11.1292 20.002 12.3721 19.5375 13.3566 18.7585L14.5987 20.3253C13.2734 21.3739 11.5961 22.0006 9.77493 22.0006C5.48096 22.0006 2 18.5232 2 14.2335C2 9.94388 5.48096 6.46643 9.77493 6.46643C12.4876 6.46643 14.8752 7.85512 16.2648 9.95504L14.5959 11.0572C13.5609 9.49326 11.7879 8.46509 9.77493 8.46509Z" fill="black"/>
<path d="M8.19753 12.5184C8.19753 11.7968 7.61214 11.2118 6.89003 11.2118C6.16791 11.2118 5.58252 11.7968 5.58252 12.5184C5.58252 13.2401 6.16791 13.8251 6.89003 13.8251C7.61214 13.8251 8.19753 13.2401 8.19753 12.5184Z" fill="black"/>
<path d="M11.1063 10.6901C11.1063 9.96844 10.521 9.38344 9.79884 9.38344C9.07672 9.38344 8.49133 9.96844 8.49133 10.6901C8.49133 11.4117 9.07672 11.9967 9.79884 11.9967C10.521 11.9967 11.1063 11.4117 11.1063 10.6901Z" fill="black"/>
<path d="M11.1063 13.8251C11.1063 13.1034 10.521 12.5184 9.79884 12.5184C9.07672 12.5184 8.49133 13.1034 8.49133 13.8251C8.49133 14.5467 9.07672 15.1317 9.79884 15.1317C10.521 15.1317 11.1063 14.5467 11.1063 13.8251Z" fill="black"/>
</svg>
