<svg width="24" height="24" viewBox="0 0 24 24" fill="none" xmlns="http://www.w3.org/2000/svg">
<path fill-rule="evenodd" clip-rule="evenodd" d="M16.5263 18.5979C15.2391 19.4827 13.68 20.0006 12 20.0006C10.3171 20.0006 8.75559 19.481 7.46714 18.5934C7.74362 18.4897 8.01772 18.3419 8.28577 18.147C8.67935 18.4326 9.17993 18.679 9.7661 18.7567C10.5027 18.8543 11.2665 18.6706 11.9866 18.147C12.3802 18.4326 12.8808 18.679 13.467 18.7567C14.2036 18.8543 14.9673 18.6706 15.6875 18.147C15.9286 18.3219 16.2098 18.4822 16.5263 18.5979ZM18.908 16.038C18.7448 16.0996 18.5903 16.1948 18.4543 16.3252C17.992 16.7687 17.6491 16.803 17.4305 16.774C17.159 16.738 16.8759 16.5724 16.6487 16.3465C16.1453 15.8462 15.2994 15.8014 14.7535 16.3252C14.2911 16.7687 13.9483 16.803 13.7296 16.774C13.4581 16.738 13.175 16.5724 12.9478 16.3465C12.4445 15.8462 11.5986 15.8014 11.0526 16.3252C10.5902 16.7687 10.2474 16.803 10.0287 16.774C9.75724 16.738 9.47416 16.5724 9.24696 16.3465C8.74362 15.8462 7.89772 15.8014 7.35176 16.3252C6.88939 16.7687 6.54656 16.803 6.32788 16.774C6.05638 16.738 5.7733 16.5724 5.5461 16.3465C5.41666 16.2179 5.26456 16.1193 5.10074 16.0529C4.83097 15.5945 4.60557 15.107 4.43043 14.5961C4.48213 14.5622 4.53363 14.5267 4.58491 14.4894C4.97848 14.775 5.47907 15.0214 6.06524 15.0991C6.80184 15.1967 7.56561 15.013 8.28577 14.4894C8.67935 14.775 9.17993 15.0214 9.7661 15.0991C10.5027 15.1967 11.2665 15.013 11.9866 14.4894C12.3802 14.775 12.8808 15.0214 13.467 15.0991C14.2036 15.1967 14.9673 15.013 15.6875 14.4894C16.0811 14.775 16.5816 15.0214 17.1678 15.0991C17.9044 15.1967 18.6682 15.013 19.3884 14.4894C19.445 14.5305 19.5038 14.5707 19.5648 14.6098C19.3923 15.1102 19.1715 15.5881 18.908 16.038ZM20.7931 16.7672C20.4855 17.3334 20.1248 17.8666 19.7177 18.3601C17.8835 20.5834 15.1073 22.0006 12 22.0006C8.88822 22.0006 6.10841 20.5793 4.27436 18.3504C4.27435 18.3504 4.27434 18.3504 4.27433 18.3504C3.8497 17.8344 3.47576 17.2751 3.16014 16.6801C3.16015 16.6801 3.16016 16.6801 3.16017 16.6801C2.89564 16.1814 2.67206 15.6576 2.49394 15.1133C2.49393 15.1133 2.49392 15.1133 2.49391 15.1133C2.25814 14.3928 2.102 13.6363 2.03589 12.8541C2.0359 12.8541 2.03591 12.8541 2.03592 12.8542C2.01213 12.5728 2 12.2881 2 12.0006C2 6.47776 6.47715 2.00061 12 2.00061C17.5228 2.00061 22 6.47776 22 12.0006C22 12.7773 21.9115 13.5332 21.7439 14.259C21.6771 14.5484 21.5977 14.8331 21.5064 15.1124C21.3178 15.6888 21.0783 16.2422 20.7931 16.7672ZM19.9885 12.4328C19.9961 12.2897 20 12.1456 20 12.0006C20 7.58233 16.4183 4.00061 12 4.00061C7.58172 4.00061 4 7.58233 4 12.0006C4 12.1413 4.00363 12.2811 4.0108 12.4199C4.52271 12.1802 5.14381 12.2891 5.5461 12.6889C5.7733 12.9148 6.05638 13.0804 6.32788 13.1164C6.54656 13.1454 6.88939 13.1111 7.35176 12.6676C7.89772 12.1438 8.74362 12.1886 9.24696 12.6889C9.47416 12.9148 9.75724 13.0804 10.0287 13.1164C10.2474 13.1454 10.5902 13.1111 11.0526 12.6676C11.5986 12.1438 12.4445 12.1886 12.9478 12.6889C13.175 12.9148 13.4581 13.0804 13.7296 13.1164C13.9483 13.1454 14.2911 13.1111 14.7535 12.6676C15.2994 12.1438 16.1453 12.1886 16.6487 12.6889C16.8759 12.9148 17.159 13.0804 17.4305 13.1164C17.6491 13.1454 17.992 13.1111 18.4543 12.6676C18.8843 12.2551 19.5003 12.1952 19.9885 12.4328ZM12 9.56311C12.5832 9.56311 13.056 9.09034 13.056 8.50714C13.056 7.92395 12.5832 7.45117 12 7.45117C11.4168 7.45117 10.944 7.92395 10.944 8.50714C10.944 9.09034 11.4168 9.56311 12 9.56311ZM12 11.5631C13.6878 11.5631 15.056 10.1949 15.056 8.50714C15.056 6.81938 13.6878 5.45117 12 5.45117C10.3122 5.45117 8.94403 6.81938 8.94403 8.50714C8.94403 10.1949 10.3122 11.5631 12 11.5631Z" fill="black"/>
</svg>
