<svg width="24" height="24" viewBox="0 0 24 24" fill="none" xmlns="http://www.w3.org/2000/svg">
<path fill-rule="evenodd" clip-rule="evenodd" d="M15.2172 2.08343C17.2224 2.43788 18.4256 3.81456 19.1003 5.08165C19.3939 5.63296 19.5981 6.17835 19.7387 6.64084H20.3345C20.8867 6.64084 21.3345 7.08856 21.3345 7.64084C21.3345 8.19313 20.8867 8.64084 20.3345 8.64084H19.9057V9.40283H22C22.5523 9.40283 23 9.85055 23 10.4028V22.0005C23 22.5528 22.5523 23.0005 22 23.0005H4.72887C4.17659 23.0005 3.72887 22.5528 3.72887 22.0005V6.66259C3.72887 6.05854 3.49263 5.47844 3.07062 5.04625L1.28451 3.21703C0.898673 2.82188 0.906222 2.18876 1.30137 1.80292C1.69653 1.41708 2.32965 1.42463 2.71549 1.81978L4.5016 3.649C5.28841 4.4548 5.72887 5.53636 5.72887 6.66259V9.40283H8.48761V8.64084H8.1001C7.54781 8.64084 7.1001 8.19313 7.1001 7.64084C7.1001 7.08856 7.54781 6.64084 8.1001 6.64084H8.6546C8.79522 6.17835 8.99941 5.63296 9.293 5.08166C9.97237 3.80593 11.1874 2.41911 13.2172 2.07632V2.00061C13.2172 1.44833 13.6649 1.00061 14.2172 1.00061C14.7695 1.00061 15.2172 1.44833 15.2172 2.00061V2.08343ZM10.1444 9.40283V8.64084H18.2489V9.40283H10.1444ZM11.0583 6.02174C10.9478 6.22916 10.853 6.43808 10.772 6.64084H17.6214C17.5403 6.43808 17.4455 6.22916 17.335 6.02173C16.7566 4.93543 15.8242 3.99643 14.1967 3.99643C12.5691 3.99643 11.6368 4.93544 11.0583 6.02174ZM5.72887 11.4028V21.0005H10.3887V15.1953C10.3887 14.643 10.8364 14.1953 11.3887 14.1953C11.941 14.1953 12.3887 14.643 12.3887 15.1953V21.0005H13.7186V15.1953C13.7186 14.643 14.1663 14.1953 14.7186 14.1953C15.2709 14.1953 15.7186 14.643 15.7186 15.1953V21.0005H17.0485V15.1953C17.0485 14.643 17.4963 14.1953 18.0485 14.1953C18.6008 14.1953 19.0485 14.643 19.0485 15.1953V21.0005H21V11.4028H5.72887Z" fill="black"/>
</svg>
