<svg width="24" height="24" viewBox="0 0 24 24" fill="none" xmlns="http://www.w3.org/2000/svg">
<path d="M11.1141 2.00061C11.3689 2.00089 11.6139 2.09849 11.7992 2.27346C11.9845 2.44843 12.096 2.68756 12.1109 2.94201C12.1258 3.19645 12.0431 3.44699 11.8795 3.64244C11.716 3.8379 11.484 3.96351 11.231 3.99361L11.1141 4.00061H4.61628V20.0006H16.6122V12.5006C16.6125 12.2457 16.71 12.0006 16.885 11.8152C17.0599 11.6299 17.2989 11.5184 17.5533 11.5034C17.8076 11.4885 18.0581 11.5713 18.2535 11.7349C18.4489 11.8985 18.5744 12.1305 18.6045 12.3836L18.6115 12.5006V20.0006H19.6112C19.866 20.0009 20.111 20.0985 20.2963 20.2735C20.4816 20.4484 20.5931 20.6876 20.608 20.942C20.6229 21.1964 20.5402 21.447 20.3767 21.6424C20.2131 21.8379 19.9812 21.9635 19.7281 21.9936L19.6112 22.0006H2.61696C2.36217 22.0003 2.1171 21.9027 1.93183 21.7278C1.74655 21.5528 1.63506 21.3137 1.62013 21.0592C1.6052 20.8048 1.68795 20.5542 1.85149 20.3588C2.01502 20.1633 2.24699 20.0377 2.5 20.0076L2.61696 20.0006V4.00061C2.6168 3.49603 2.8073 3.01004 3.15028 2.64006C3.49325 2.27008 3.96335 2.04345 4.46633 2.00561L4.61628 2.00061H11.1141ZM12.1137 12.0006C12.3106 12.0006 12.5056 12.0394 12.6876 12.1148C12.8695 12.1902 13.0348 12.3007 13.174 12.4399C13.3133 12.5792 13.4237 12.7446 13.4991 12.9266C13.5744 13.1086 13.6132 13.3036 13.6132 13.5006C13.6132 13.6976 13.5744 13.8926 13.4991 14.0746C13.4237 14.2566 13.3133 14.422 13.174 14.5613C13.0348 14.7006 12.8695 14.811 12.6876 14.8864C12.5056 14.9618 12.3106 15.0006 12.1137 15.0006C11.716 15.0006 11.3346 14.8426 11.0534 14.5613C10.7722 14.28 10.6142 13.8984 10.6142 13.5006C10.6142 13.1028 10.7722 12.7213 11.0534 12.4399C11.3346 12.1586 11.716 12.0006 12.1137 12.0006ZM19.2059 4.17261C19.026 3.99326 18.7846 3.88914 18.5308 3.88138C18.2769 3.87363 18.0296 3.96283 17.8391 4.13086C17.6486 4.29889 17.5292 4.53316 17.5051 4.78609C17.481 5.03901 17.5541 5.29162 17.7094 5.49261L17.7924 5.58661L18.2053 5.99861H13.001C12.7447 5.99658 12.4974 6.09315 12.3102 6.26835C12.123 6.44355 12.0102 6.684 11.9952 6.94C11.9802 7.19601 12.0641 7.44799 12.2295 7.6439C12.3949 7.8398 12.6293 7.96463 12.8841 7.99261L13.001 7.99861H18.2073L17.7914 8.41561C17.6125 8.59573 17.5087 8.83722 17.5012 9.09106C17.4937 9.3449 17.5831 9.59208 17.7511 9.78244C17.9192 9.97279 18.1533 10.0921 18.406 10.1161C18.6587 10.1401 18.9111 10.067 19.112 9.91161L19.2069 9.82861L21.3262 7.70561C21.4982 7.53329 21.6014 7.30413 21.6165 7.0611C21.6316 6.81808 21.5575 6.5779 21.4082 6.38561L21.3252 6.29161L19.2059 4.17261Z" fill="black"/>
</svg>
