<svg width="24" height="24" viewBox="0 0 24 24" fill="none" xmlns="http://www.w3.org/2000/svg">
<path fill-rule="evenodd" clip-rule="evenodd" d="M12.6824 6.04739C12.6824 4.05853 14.3227 2.60059 16.2119 2.60059C18.2484 2.60059 19.7413 4.20242 19.7413 6.04739V12.3665C19.7413 12.7258 19.5672 13.0049 19.3928 13.1752C19.2185 13.3455 18.9327 13.5155 18.5648 13.5155H12.6824V6.04739ZM16.2119 4.51548C15.356 4.51548 14.6432 5.16392 14.6432 6.04739V11.6006H17.7805V6.04739C17.7805 5.21152 17.1165 4.51548 16.2119 4.51548Z" fill="black"/>
<path fill-rule="evenodd" clip-rule="evenodd" d="M4.54514 6.04739C4.54514 4.05853 6.18536 2.60059 8.07455 2.60059H16.2119C16.7533 2.60059 17.1922 3.02925 17.1922 3.55803C17.1922 4.08682 16.7533 4.51548 16.2119 4.51548C15.3072 4.51548 14.6432 5.21152 14.6432 6.04739L14.6432 19.6431C14.6432 20.1719 14.2042 20.6006 13.6628 20.6006H5.52553C4.98407 20.6006 4.54514 20.1719 4.54514 19.6431V6.04739ZM13.0465 4.51548H8.07455C7.21865 4.51548 6.50592 5.16392 6.50592 6.04739V18.6857H12.6824L12.6824 6.04739C12.6824 5.50411 12.8118 4.98191 13.0465 4.51548Z" fill="black"/>
<path fill-rule="evenodd" clip-rule="evenodd" d="M12.8785 7.41402C12.8785 6.88524 13.3174 6.45657 13.8589 6.45657H20.8197C21.3611 6.45657 21.8 6.88524 21.8 7.41402C21.8 7.9428 21.3611 8.37147 20.8197 8.37147H13.8589C13.3174 8.37147 12.8785 7.9428 12.8785 7.41402Z" fill="black"/>
<path fill-rule="evenodd" clip-rule="evenodd" d="M1.80005 7.41402C1.80005 6.88524 2.23899 6.45657 2.78044 6.45657H4.93731C5.47876 6.45657 5.9177 6.88524 5.9177 7.41402C5.9177 7.9428 5.47876 8.37147 4.93731 8.37147H2.78044C2.23899 8.37147 1.80005 7.9428 1.80005 7.41402Z" fill="black"/>
</svg>
