<svg width="24" height="24" viewBox="0 0 24 24" fill="none" xmlns="http://www.w3.org/2000/svg">
<path fill-rule="evenodd" clip-rule="evenodd" d="M4.21258 1.92932C3.65672 1.92932 3.2061 2.37994 3.2061 2.9358C3.2061 3.49167 3.65672 3.94228 4.21258 3.94228H4.63739V4.79189H3.73549C3.17962 4.79189 2.729 5.24251 2.729 5.79838C2.729 6.35424 3.17962 6.80486 3.73549 6.80486H4.63739V21.0654C4.63739 21.6213 5.088 22.0719 5.64387 22.0719C6.19973 22.0719 6.65035 21.6213 6.65035 21.0654V20.1635H17.9961V21.0654C17.9961 21.6213 18.4467 22.0719 19.0025 22.0719C19.5584 22.0719 20.009 21.6213 20.009 21.0654V6.80486H20.9109C21.4668 6.80486 21.9174 6.35424 21.9174 5.79838C21.9174 5.24251 21.4668 4.79189 20.9109 4.79189H20.009V3.94228H20.4338C20.9897 3.94228 21.4403 3.49167 21.4403 2.9358C21.4403 2.37994 20.9897 1.92932 20.4338 1.92932H17.5713C17.0154 1.92932 16.5648 2.37994 16.5648 2.9358C16.5648 3.49167 17.0154 3.94228 17.5713 3.94228H17.9961V4.79189H6.65035V3.94228H7.07515C7.63102 3.94228 8.08164 3.49167 8.08164 2.9358C8.08164 2.37994 7.63102 1.92932 7.07515 1.92932H4.21258ZM6.65035 15.288V6.80486H7.97706V13.4319C7.97706 13.9878 8.42767 14.4384 8.98354 14.4384C9.5394 14.4384 9.99002 13.9878 9.99002 13.4319V6.80486H11.3167V13.4319C11.3167 13.9878 11.7673 14.4384 12.3232 14.4384C12.8791 14.4384 13.3297 13.9878 13.3297 13.4319V6.80486H14.6564V13.4319C14.6564 13.9878 15.107 14.4384 15.6629 14.4384C16.2187 14.4384 16.6694 13.9878 16.6694 13.4319V6.80486H17.9961V15.288H6.65035ZM6.65035 18.1506V17.301H17.9961V18.1506H6.65035Z" fill="black"/>
</svg>
