<svg width="24" height="24" viewBox="0 0 24 24" fill="none" xmlns="http://www.w3.org/2000/svg">
<path fill-rule="evenodd" clip-rule="evenodd" d="M5.96406 17.5963C7.01356 18.7697 8.47611 19.5057 10.5046 19.5057C12.5331 19.5057 13.9957 18.7697 15.0452 17.5963C16.1008 16.416 16.8388 14.6723 17.1204 12.5013H3.88885C4.17045 14.6723 4.90842 16.416 5.96406 17.5963ZM1.85635 12.4982C1.73165 11.3999 2.64929 10.5 3.76357 10.5H17.2456C18.3599 10.5 19.2776 11.3999 19.1529 12.4982C18.571 17.6231 15.6883 21.507 10.5046 21.507C5.32096 21.507 2.4382 17.6231 1.85635 12.4982Z" fill="black"/>
<path fill-rule="evenodd" clip-rule="evenodd" d="M15.6428 17.9106C16.0764 18.1469 16.5642 18.3295 17.0918 18.4401C17.2123 18.4653 17.3323 18.4863 17.4517 18.5031C19.5575 18.8003 21.4611 17.8088 21.7946 16.1852C22.0724 14.8326 21.1778 13.4446 19.6869 12.687C19.6117 12.6488 19.5349 12.6122 19.4568 12.5773C19.1189 12.4264 18.754 12.307 18.3682 12.2261C18.1591 12.1823 17.9517 12.1511 17.7466 12.1326C17.2056 14.2416 16.4549 16.1741 15.5136 17.8377C15.5561 17.8626 15.5992 17.8869 15.6428 17.9106ZM18.3922 16.544C18.7363 16.5196 19.0352 16.4378 19.2683 16.326C19.6844 16.1265 19.7952 15.895 19.8206 15.7714C19.846 15.6477 19.8355 15.3908 19.5323 15.0405C19.42 14.9107 19.2762 14.7814 19.1031 14.6622C18.887 15.307 18.65 15.9353 18.3922 16.544Z" fill="black"/>
<path fill-rule="evenodd" clip-rule="evenodd" d="M10.2904 1.79938C10.6847 2.18979 10.6853 2.82336 10.2917 3.21449L8.81297 4.68399L9.40666 5.27395C10.1782 6.04062 10.1782 7.28215 9.40666 8.04883L8.03699 9.4099C7.6434 9.80103 7.00467 9.80161 6.61035 9.4112C6.21604 9.02078 6.21545 8.38722 6.60905 7.99609L7.95218 6.66139L7.38503 6.09779C6.59886 5.31655 6.59885 4.05143 7.38502 3.27019L8.86378 1.80069C9.25737 1.40956 9.8961 1.40897 10.2904 1.79938Z" fill="black"/>
<path fill-rule="evenodd" clip-rule="evenodd" d="M14.3586 1.79938C14.7529 2.18979 14.7535 2.82336 14.3599 3.21449L12.8811 4.68399L13.4748 5.27395C14.2463 6.04062 14.2463 7.28215 13.4748 8.04883L12.1052 9.4099C11.7116 9.80103 11.0728 9.80161 10.6785 9.4112C10.2842 9.02078 10.2836 8.38722 10.6772 7.99609L12.0203 6.66139L11.4532 6.09779C10.667 5.31655 10.667 4.05143 11.4532 3.27019L12.9319 1.80069C13.3255 1.40956 13.9643 1.40897 14.3586 1.79938Z" fill="black"/>
</svg>
