<svg width="24" height="24" viewBox="0 0 24 24" fill="none" xmlns="http://www.w3.org/2000/svg">
<path fill-rule="evenodd" clip-rule="evenodd" d="M12 2.00061C12.5523 2.00061 13 2.43526 13 2.97144C14.9647 3.03294 16.8357 3.81753 18.2301 5.17123C19.6835 6.58224 20.5 8.49598 20.5 10.4914V16.6611H21.0104C21.557 16.6611 22 17.0957 22 17.6319C22 18.1681 21.557 18.6027 21.0104 18.6027H19.5049L19.5 18.6027L18 18.6027H6L4.5 18.6027L4.49509 18.6027H2.98956C2.44304 18.6027 2 18.1681 2 17.6319C2 17.0957 2.44304 16.6611 2.98956 16.6611H3.5V10.4914C3.5 8.49598 4.31652 6.58224 5.76992 5.17123C7.1643 3.81753 9.0353 3.03294 11 2.97144C11 2.43527 11.4477 2.00061 12 2.00061ZM18.5 16.6611L17.5021 16.6611V12.535C17.5021 12.0845 17.3197 11.6523 16.9949 11.3337C16.6702 11.0151 16.2297 10.8361 15.7704 10.8361H15.25V10.3507C15.25 9.70698 14.9866 9.08965 14.5178 8.63449C14.0489 8.17932 13.413 7.92361 12.75 7.92361H11.25C10.587 7.92361 9.95107 8.17932 9.48223 8.63449C9.01339 9.08965 8.75 9.70698 8.75 10.3507V10.8361H8.34875C7.88947 10.8361 7.449 11.0151 7.12423 11.3337C6.79947 11.6523 6.61702 12.0844 6.61702 12.535V16.6611H5.5V10.4914C5.5 9.01093 6.1058 7.59106 7.18414 6.54419C8.2034 5.55466 9.56592 4.97499 11 4.91446H13C14.4341 4.97499 15.7966 5.55466 16.8159 6.54419C17.8942 7.59107 18.5 9.01093 18.5 10.4914V16.6611ZM10.75 10.8361H13.25V10.3507C13.25 10.2219 13.1973 10.0985 13.1036 10.0074C13.0098 9.91641 12.8826 9.86527 12.75 9.86527H11.25C11.1174 9.86527 10.9902 9.91641 10.8964 10.0074C10.8027 10.0985 10.75 10.2219 10.75 10.3507V10.8361ZM9.74625 12.7777H8.59614V16.6611H15.523V12.7777H14.2537L14.25 12.7778H9.75L9.74625 12.7777Z" fill="black"/>
<path d="M6 18.6027C6.9665 18.6027 7.75 19.3634 7.75 20.3017C7.75 21.24 6.9665 22.0006 6 22.0006C5.0335 22.0006 4.25 21.24 4.25 20.3017C4.25 19.3634 5.0335 18.6027 6 18.6027Z" fill="black"/>
<path d="M18 18.6027C18.9665 18.6027 19.75 19.3634 19.75 20.3017C19.75 21.24 18.9665 22.0006 18 22.0006C17.0335 22.0006 16.25 21.24 16.25 20.3017C16.25 19.3634 17.0335 18.6027 18 18.6027Z" fill="black"/>
</svg>
