<svg width="24" height="24" viewBox="0 0 24 24" fill="none" xmlns="http://www.w3.org/2000/svg">
<path fill-rule="evenodd" clip-rule="evenodd" d="M12 21C11.1716 21 10.5 20.3284 10.5 19.5C10.5 18.6716 11.1716 18 12 18C12.8284 18 13.5 18.6716 13.5 19.5C13.5 20.3284 12.8284 21 12 21ZM12 23C10.2956 23 8.87572 21.7817 8.56375 20.1684C8.52191 19.952 8.5 19.7286 8.5 19.5C8.5 18.9364 8.63322 18.4039 8.86988 17.9323C9.4449 16.7864 10.6306 16 12 16C13.933 16 15.5 17.567 15.5 19.5C15.5 21.433 13.933 23 12 23Z" fill="black"/>
<path fill-rule="evenodd" clip-rule="evenodd" d="M5.45704 18.1502C4.73698 17.2217 4.3094 16.1177 4.22306 14.9675H4.13022C3.30412 14.9667 2.50961 14.6542 1.92201 14.0952C1.33401 13.5358 1.00091 12.7747 1 11.9782V10.9796C1.00121 10.1832 1.3344 9.42197 1.92232 8.86264C2.50983 8.3037 3.3039 7.99114 4.12988 7.99H4.43786C5.30917 4.42564 8.09077 2 11.9995 2C15.9081 2 18.6908 4.4256 19.5621 7.99H19.8698C20.696 7.99114 21.4905 8.30385 22.0781 8.86303C22.666 9.42259 22.9991 10.1838 23 10.9803L23 11.9789C22.9988 12.7753 22.6656 13.5364 22.0776 14.0956C21.49 14.6544 20.6959 14.9667 19.87 14.9675H18.8204C18.5508 14.9672 18.2897 14.8653 18.0956 14.6806C17.9011 14.4955 17.7893 14.242 17.7889 13.9749V10.4804C17.7889 8.53552 17.2127 6.9122 16.2101 5.77861C15.2102 4.64796 13.7701 3.98587 11.9995 3.98587C10.2288 3.98587 8.78876 4.64773 7.7888 5.77824C6.78623 6.9117 6.21002 8.53501 6.21002 10.4804V13.4754C6.21002 14.8273 6.41298 15.8253 6.86158 16.5918C7.10328 17.0048 7.99861 17.519 8.86988 17.9323C8.63322 18.4039 8.5 18.9364 8.5 19.5C8.5 19.7286 8.52191 19.952 8.56375 20.1684C7.43236 19.7535 6.17343 19.0739 5.45704 18.1502ZM4.17778 12.989L4.13022 12.9827C3.84329 12.9827 3.57035 12.8742 3.37084 12.6845C3.17173 12.4952 3.06212 12.2411 3.0619 11.9787V10.9806C3.0619 10.7182 3.17129 10.464 3.37024 10.2746C3.56954 10.0848 3.84231 9.97614 4.12918 9.97588H4.17778V12.989ZM20.9371 11.9787C20.9366 12.2408 20.827 12.4945 20.6281 12.6835C20.4288 12.873 20.1562 12.9815 19.8696 12.9817L19.8222 12.989V9.97588H19.8696C19.9096 9.97591 19.9494 9.97806 19.9888 9.98225L20.0009 9.98361C20.2388 10.0115 20.4601 10.1141 20.6287 10.2746C20.8277 10.464 20.9371 10.7182 20.9371 10.9806V11.9787Z" fill="black"/>
</svg>
