<svg width="24" height="24" viewBox="0 0 24 24" fill="none" xmlns="http://www.w3.org/2000/svg">
<path d="M21.9482 15.6842L19 6.8385V3.00061C19.0001 2.86927 18.9743 2.7392 18.924 2.61784C18.8738 2.49648 18.8001 2.38621 18.7073 2.29334C18.6144 2.20046 18.5041 2.12681 18.3828 2.07658C18.2614 2.02635 18.1313 2.00054 18 2.00061H6C5.86866 2.00054 5.73859 2.02635 5.61723 2.07658C5.49587 2.12681 5.3856 2.20046 5.29273 2.29334C5.19985 2.38621 5.1262 2.49648 5.07597 2.61784C5.02574 2.7392 4.99993 2.86927 5 3.00061V6.8385L2.05176 15.6842C2.01759 15.7862 2.00011 15.893 2 16.0006V21.0006C1.99993 21.132 2.02574 21.262 2.07597 21.3834C2.1262 21.5047 2.19985 21.615 2.29273 21.7079C2.3856 21.8008 2.49587 21.8744 2.61723 21.9246C2.73859 21.9749 2.86866 22.0007 3 22.0006H21C21.1313 22.0007 21.2614 21.9749 21.3828 21.9246C21.5041 21.8744 21.6144 21.8008 21.7073 21.7079C21.8001 21.615 21.8738 21.5047 21.924 21.3834C21.9743 21.262 22.0001 21.132 22 21.0006V16.0006C21.9999 15.893 21.9824 15.7862 21.9482 15.6842ZM19.6127 15.0006H4.38733L6.7204 8.00061H17.2796L19.6127 15.0006ZM17 4.00061V6.00061H7V4.00061H17ZM20 20.0006H4V17.0006H20V20.0006Z" fill="black"/>
</svg>
