<svg width="24" height="24" viewBox="0 0 24 24" fill="none" xmlns="http://www.w3.org/2000/svg">
<path fill-rule="evenodd" clip-rule="evenodd" d="M2.58579 8.5864C2.96086 8.21132 3.46957 8.00061 4 8.00061H16C16.5304 8.00061 17.0391 8.21132 17.4142 8.5864C17.7893 8.96147 18 9.47018 18 10.0006V14.5006C18 15.4289 17.6313 16.3191 16.9749 16.9755C16.3185 17.6319 15.4283 18.0006 14.5 18.0006H14C13.2043 18.0006 12.4413 17.6845 11.8787 17.1219C11.3161 16.5593 11 15.7963 11 15.0006C11 14.7354 10.8946 14.481 10.7071 14.2935C10.5196 14.106 10.2652 14.0006 10 14.0006C9.73478 14.0006 9.48043 14.106 9.29289 14.2935C9.10536 14.481 9 14.7354 9 15.0006C9 15.7963 8.68393 16.5593 8.12132 17.1219C7.55871 17.6845 6.79565 18.0006 6 18.0006H5.5C4.57174 18.0006 3.6815 17.6319 3.02513 16.9755C2.36875 16.3191 2 15.4289 2 14.5006V10.0006C2 9.47018 2.21071 8.96147 2.58579 8.5864ZM16 10.0006H4V14.5006C4 14.8984 4.15804 15.28 4.43934 15.5613C4.72064 15.8426 5.10218 16.0006 5.5 16.0006H6C6.26522 16.0006 6.51957 15.8953 6.70711 15.7077C6.89464 15.5202 7 15.2658 7 15.0006C7 14.205 7.31607 13.4419 7.87868 12.8793C8.44129 12.3167 9.20435 12.0006 10 12.0006C10.7957 12.0006 11.5587 12.3167 12.1213 12.8793C12.6839 13.4419 13 14.205 13 15.0006C13 15.2658 13.1054 15.5202 13.2929 15.7077C13.4804 15.8953 13.7348 16.0006 14 16.0006H14.5C14.8978 16.0006 15.2794 15.8426 15.5607 15.5613C15.842 15.28 16 14.8984 16 14.5006L16 10.0006Z" fill="black"/>
<path fill-rule="evenodd" clip-rule="evenodd" d="M21 2.00061C21.5523 2.00061 22 2.44833 22 3.00061V15.5006C22 17.2245 21.3152 18.8778 20.0962 20.0968C18.8772 21.3158 17.2239 22.0006 15.5 22.0006H12C11.2043 22.0006 10.4413 21.6845 9.87868 21.1219C9.31607 20.5593 9 19.7963 9 19.0006C9 18.4483 9.44772 18.0006 10 18.0006C10.5523 18.0006 11 18.4483 11 19.0006C11 19.2658 11.1054 19.5202 11.2929 19.7077C11.4804 19.8953 11.7348 20.0006 12 20.0006H15.5C16.6935 20.0006 17.8381 19.5265 18.682 18.6826C19.5259 17.8387 20 16.6941 20 15.5006V3.00061C20 2.44833 20.4477 2.00061 21 2.00061Z" fill="black"/>
</svg>
