<svg width="24" height="24" viewBox="0 0 24 24" fill="none" xmlns="http://www.w3.org/2000/svg">
<path d="M16.303 12.0006C16.303 14.3771 14.3765 16.3036 12 16.3036C9.62353 16.3036 7.69702 14.3771 7.69702 12.0006C7.69702 9.62414 9.62353 7.69763 12 7.69763C14.3765 7.69763 16.303 9.62414 16.303 12.0006Z" fill="black"/>
<path d="M11.9092 6.09155H12.091C12.485 6.09155 12.8183 5.75821 12.8183 5.36423V2.72793C12.8183 2.33393 12.485 2.00061 12.091 2.00061H11.9092C11.5152 2.00061 11.1819 2.33395 11.1819 2.72793V5.36423C11.1819 5.75823 11.5152 6.09155 11.9092 6.09155Z" fill="black"/>
<path d="M16.2424 7.87939C16.5151 8.15207 16.9697 8.15207 17.2726 7.87939L19.1211 6.03092C19.3938 5.75824 19.3938 5.3036 19.1211 5.00068L19 4.87956C18.7273 4.60688 18.2726 4.60688 17.9697 4.87956L16.1213 6.72803C15.8486 7.00071 15.8486 7.45535 16.1213 7.75827L16.2424 7.87939Z" fill="black"/>
<path d="M21.2728 11.1824H18.6365C18.2425 11.1824 17.9092 11.5157 17.9092 11.9097V12.0915C17.9092 12.4855 18.2425 12.8188 18.6365 12.8188H21.2728C21.6668 12.8188 22.0001 12.4855 22.0001 12.0915V11.9097C22.0001 11.5157 21.6668 11.1824 21.2728 11.1824Z" fill="black"/>
<path d="M17.2728 16.1217C17.0002 15.8491 16.5455 15.8491 16.2426 16.1217L16.1213 16.2429C15.8486 16.5155 15.8486 16.9702 16.1213 17.2731L17.9697 19.1216C18.2424 19.3943 18.6971 19.3943 19 19.1216L19.1211 19.0005C19.3938 18.7278 19.3938 18.2731 19.1211 17.9702L17.2728 16.1217Z" fill="black"/>
<path d="M12.091 17.9097H11.9092C11.5152 17.9097 11.1819 18.243 11.1819 18.637V21.2733C11.1819 21.6673 11.5152 22.0006 11.9092 22.0006H12.091C12.485 22.0006 12.8183 21.6673 12.8183 21.2733V18.637C12.8183 18.243 12.485 17.9097 12.091 17.9097Z" fill="black"/>
<path d="M7.75779 16.1217C7.48511 15.8491 7.03046 15.8491 6.72754 16.1217L4.87907 17.9702C4.60639 18.2429 4.60639 18.6975 4.87907 19.0005L5.00019 19.1216C5.27286 19.3943 5.72751 19.3943 6.03043 19.1216L7.87891 17.2731C8.15158 17.0004 8.15158 16.5458 7.87891 16.2429L7.75779 16.1217Z" fill="black"/>
<path d="M6.09094 12.0915V11.9097C6.09094 11.5157 5.7576 11.1824 5.36362 11.1824H2.72732C2.33332 11.1824 2 11.5157 2 11.9097V12.0915C2 12.4855 2.33334 12.8188 2.72732 12.8188H5.36362C5.75762 12.8188 6.09094 12.4855 6.09094 12.0915Z" fill="black"/>
<path d="M6.72706 7.87939C6.99973 8.15207 7.45438 8.15207 7.7573 7.87939L7.87842 7.75827C8.1511 7.4856 8.1511 7.03095 7.87842 6.72803L6.02994 4.87956C5.75727 4.60688 5.30262 4.60688 4.9997 4.87956L4.87858 5.00068C4.6059 5.27335 4.6059 5.728 4.87858 6.03092L6.72706 7.87939Z" fill="black"/>
</svg>
