<svg width="24" height="24" viewBox="0 0 24 24" fill="none" xmlns="http://www.w3.org/2000/svg">
<path fill-rule="evenodd" clip-rule="evenodd" d="M5.05104 8.34058C4.77228 8.34058 4.50495 8.44663 4.30784 8.6354C4.11073 8.82418 4 9.08021 4 9.34717L4 11.4106C4.00243 12.66 4.44068 13.8728 5.24516 14.8564C5.99918 15.7783 7.0344 16.4493 8.20374 16.7781L5.88708 20.4753C5.81596 20.5886 5.76886 20.7143 5.74846 20.845C5.72806 20.9758 5.73477 21.1092 5.7682 21.2375C5.80163 21.3658 5.86112 21.4865 5.94329 21.5928C6.02543 21.699 6.12863 21.7887 6.24698 21.8568C6.36532 21.9249 6.49652 21.97 6.63308 21.9895C6.76963 22.0091 6.90887 22.0026 7.04283 21.9706C7.1768 21.9386 7.30286 21.8816 7.41382 21.8029C7.52479 21.7242 7.61847 21.6254 7.68952 21.512L8.43267 20.3264C8.45816 20.3305 8.48383 20.3337 8.50962 20.3358L8.51755 20.3365H15.5752L16.3105 21.512C16.3816 21.6254 16.4753 21.7242 16.5862 21.8029C16.6972 21.8816 16.8232 21.9385 16.9572 21.9705C17.0911 22.0025 17.2304 22.009 17.3669 21.9895C17.5034 21.9699 17.6346 21.9249 17.753 21.8568C17.8713 21.7887 17.9745 21.699 18.0567 21.5927C18.1388 21.4864 18.1983 21.3657 18.2317 21.2374C18.2651 21.1092 18.2719 20.9758 18.2515 20.8451C18.2311 20.7143 18.184 20.5886 18.1129 20.4753L15.7963 16.7781C16.9656 16.4493 18.0008 15.7783 18.7548 14.8564C19.5593 13.8728 19.9976 12.6597 20 11.4103V9.34717C20 9.08021 19.8893 8.82418 19.6922 8.6354C19.4951 8.44663 19.2277 8.34058 18.949 8.34058H5.05104ZM6.10207 10.3538V11.4101C6.1032 12.3607 6.498 13.2722 7.19986 13.9443C7.90175 14.6166 8.8534 14.9947 9.84602 14.9957H14.154C15.1466 14.9947 16.0982 14.6166 16.8001 13.9443C17.502 13.2721 17.8968 12.3607 17.8979 11.4101V10.3538H6.10207ZM10.5094 17.0089L9.68592 18.3233H14.3141L13.4906 17.0089H10.5094Z" fill="black"/>
<path fill-rule="evenodd" clip-rule="evenodd" d="M7.03052 2.00061C6.89244 2.00061 6.7557 2.02666 6.62812 2.07727C6.50055 2.12788 6.38463 2.20206 6.28699 2.29557C6.18934 2.38909 6.11189 2.5001 6.05905 2.62229C6.0062 2.74447 5.979 2.87542 5.979 3.00767C5.979 3.27476 6.08979 3.53091 6.28699 3.71977L6.54122 3.96325C6.63848 4.05617 6.71564 4.16655 6.76829 4.28808C6.82094 4.40961 6.84804 4.53988 6.84804 4.67146C6.84804 4.80303 6.82094 4.93331 6.76829 5.05483C6.71564 5.17636 6.63832 5.28689 6.54106 5.37981L6.28699 5.62314C6.08979 5.812 5.979 6.06815 5.979 6.33524C5.979 6.60233 6.08979 6.85848 6.28699 7.04734C6.48419 7.2362 6.75164 7.3423 7.03052 7.3423C7.3094 7.3423 7.57686 7.2362 7.77406 7.04734L8.02813 6.80401C8.32058 6.52398 8.55257 6.19152 8.71084 5.82562C8.86912 5.45971 8.95058 5.06752 8.95058 4.67146C8.95058 4.27539 8.86912 3.8832 8.71084 3.5173C8.55257 3.15139 8.32057 2.81892 8.02812 2.53889L7.77406 2.29557C7.67642 2.20206 7.5605 2.12788 7.43292 2.07727C7.30535 2.02666 7.16861 2.00061 7.03052 2.00061Z" fill="black"/>
<path fill-rule="evenodd" clip-rule="evenodd" d="M11.5657 2.00061C11.4276 2.00061 11.2909 2.02666 11.1633 2.07727C11.0357 2.12788 10.9198 2.20206 10.8222 2.29557C10.7245 2.38909 10.6471 2.5001 10.5942 2.62229C10.5414 2.74447 10.5142 2.87542 10.5142 3.00767C10.5142 3.27476 10.625 3.53091 10.8222 3.71977L11.0764 3.96325C11.1736 4.05617 11.2508 4.16655 11.3035 4.28808C11.3561 4.40961 11.3832 4.53988 11.3832 4.67146C11.3832 4.80303 11.3561 4.93331 11.3035 5.05483C11.2508 5.17636 11.1735 5.28689 11.0762 5.37981L10.8222 5.62314C10.625 5.812 10.5142 6.06815 10.5142 6.33524C10.5142 6.60233 10.625 6.85848 10.8222 7.04734C11.0194 7.2362 11.2868 7.3423 11.5657 7.3423C11.8446 7.3423 12.112 7.2362 12.3092 7.04734L12.5633 6.80401C12.8557 6.52398 13.0877 6.19152 13.246 5.82562C13.4043 5.45971 13.4857 5.06752 13.4857 4.67146C13.4857 4.27539 13.4043 3.8832 13.246 3.5173C13.0877 3.15139 12.8557 2.81892 12.5633 2.53889L12.3092 2.29557C12.2116 2.20206 12.0957 2.12788 11.9681 2.07727C11.8405 2.02666 11.7038 2.00061 11.5657 2.00061Z" fill="black"/>
<path fill-rule="evenodd" clip-rule="evenodd" d="M16.1008 2.00061C15.9627 2.00061 15.826 2.02666 15.6984 2.07727C15.5709 2.12788 15.4549 2.20206 15.3573 2.29557C15.2597 2.38909 15.1822 2.5001 15.1294 2.62229C15.0765 2.74447 15.0493 2.87542 15.0493 3.00767C15.0493 3.27476 15.1601 3.53091 15.3573 3.71977L15.6115 3.96325C15.7088 4.05617 15.7859 4.16655 15.8386 4.28808C15.8912 4.40961 15.9184 4.53988 15.9184 4.67146C15.9184 4.80303 15.8912 4.93331 15.8386 5.05483C15.7859 5.17636 15.7086 5.28689 15.6114 5.37981L15.3573 5.62314C15.1601 5.812 15.0493 6.06815 15.0493 6.33524C15.0493 6.60233 15.1601 6.85848 15.3573 7.04734C15.5545 7.2362 15.822 7.3423 16.1008 7.3423C16.3797 7.3423 16.6472 7.2362 16.8444 7.04734L17.0984 6.80401C17.3909 6.52398 17.6229 6.19152 17.7811 5.82562C17.9394 5.45971 18.0209 5.06752 18.0209 4.67146C18.0209 4.27539 17.9394 3.8832 17.7811 3.5173C17.6229 3.15139 17.3909 2.81892 17.0984 2.53889L16.8444 2.29557C16.7467 2.20206 16.6308 2.12788 16.5032 2.07727C16.3757 2.02666 16.2389 2.00061 16.1008 2.00061Z" fill="black"/>
</svg>
