<svg width="24" height="24" viewBox="0 0 24 24" fill="none" xmlns="http://www.w3.org/2000/svg">
<path fill-rule="evenodd" clip-rule="evenodd" d="M12 20.0006C16.4183 20.0006 20 16.4189 20 12.0006C20 7.58233 16.4183 4.00061 12 4.00061C7.58172 4.00061 4 7.58233 4 12.0006C4 16.4189 7.58172 20.0006 12 20.0006ZM12 22.0006C17.5228 22.0006 22 17.5235 22 12.0006C22 6.47776 17.5228 2.00061 12 2.00061C6.47715 2.00061 2 6.47776 2 12.0006C2 17.5235 6.47715 22.0006 12 22.0006Z" fill="black"/>
<path d="M10.7358 16.7188C10.1164 16.5528 9.58661 16.2828 9.14629 15.9088C8.70834 15.5259 8.39467 15.0862 8.20527 14.5898C8.01586 14.0933 7.98873 13.5929 8.12387 13.0886C8.21159 12.7612 8.33082 12.4755 8.48158 12.2314C8.64118 11.9897 8.83349 11.7851 9.0585 11.6178C9.29235 11.4529 9.55449 11.324 9.84491 11.2311C10.1353 11.1382 10.4596 11.0781 10.8178 11.0508L10.5606 11.4798C10.339 11.3161 10.1486 11.1418 9.9895 10.9569C9.83278 10.7632 9.70734 10.5589 9.61319 10.344C9.52789 10.1315 9.47269 9.91279 9.44758 9.68796C9.4337 9.45664 9.45758 9.22596 9.51922 8.99591C9.64724 8.51813 9.89937 8.12575 10.2756 7.81878C10.6518 7.51182 11.0996 7.30938 11.619 7.21146C12.1407 7.1047 12.6891 7.12836 13.2642 7.28247C13.8305 7.4342 14.3129 7.68673 14.7113 8.04005C15.1121 8.38453 15.3987 8.78375 15.5711 9.2377C15.7434 9.69166 15.7656 10.1575 15.6375 10.6353C15.5759 10.8654 15.4812 11.0771 15.3536 11.2705C15.2283 11.455 15.0767 11.6135 14.8989 11.7461C14.7212 11.8786 14.5116 11.9884 14.2702 12.0755C14.0376 12.1649 13.7743 12.2271 13.4804 12.2622L13.5111 11.8294C13.7793 11.9961 14.0116 12.1911 14.2078 12.4144C14.4152 12.6312 14.5734 12.8727 14.6822 13.1389C14.8023 13.3987 14.8754 13.6743 14.9016 13.9659C14.9278 14.2574 14.8982 14.5624 14.8129 14.8809C14.6754 15.3941 14.4005 15.8183 13.9882 16.1535C13.576 16.4888 13.0857 16.7083 12.5173 16.8121C11.949 16.9158 11.3552 16.8847 10.7358 16.7188ZM11.1732 15.0863C11.4387 15.1574 11.6962 15.1696 11.9458 15.1226C12.1955 15.0757 12.406 14.9804 12.5772 14.8366C12.7509 14.684 12.8697 14.4883 12.9337 14.2494C13.0001 14.0016 12.9963 13.7683 12.9222 13.5493C12.8505 13.3214 12.7194 13.1204 12.5291 12.9461C12.3475 12.7741 12.1196 12.6514 11.8453 12.5779C11.571 12.5044 11.3079 12.4956 11.0559 12.5513C10.8127 12.6094 10.6031 12.7192 10.4271 12.8807C10.2534 13.0333 10.1334 13.2335 10.067 13.4812C10.0054 13.7113 10.0116 13.9358 10.0857 14.1548C10.1621 14.365 10.2911 14.556 10.4727 14.7279C10.6654 14.8934 10.8989 15.0128 11.1732 15.0863ZM12.2792 10.9588C12.5181 11.0228 12.7423 11.0354 12.9518 10.9967C13.1637 10.9492 13.3429 10.8645 13.4893 10.7425C13.647 10.614 13.7543 10.4437 13.8112 10.2313C13.8658 10.0278 13.8569 9.83101 13.7845 9.64093C13.7234 9.44437 13.6129 9.27253 13.4532 9.12542C13.2935 8.9783 13.0942 8.87274 12.8553 8.80873C12.6164 8.74472 12.3866 8.7353 12.1658 8.78047C11.954 8.82801 11.768 8.92042 11.6079 9.05771C11.4591 9.18853 11.3574 9.35568 11.3029 9.55919C11.246 9.77153 11.2493 9.97157 11.3128 10.1593C11.3875 10.3405 11.5047 10.5047 11.6644 10.6518C11.8354 10.7924 12.0403 10.8948 12.2792 10.9588Z" fill="black"/>
<path fill-rule="evenodd" clip-rule="evenodd" d="M13.1348 7.76543C12.6258 7.62902 12.1563 7.61186 11.7192 7.70131L11.7116 7.70286C11.2668 7.78672 10.8977 7.95656 10.5917 8.2062C10.2984 8.44549 10.1036 8.74689 10.0022 9.12532C9.95521 9.30062 9.93699 9.47334 9.94598 9.64535C9.96635 9.81771 10.0089 9.98576 10.0743 10.1505C10.1429 10.3053 10.2329 10.4559 10.3464 10.6023C10.4869 10.5802 10.6314 10.5636 10.7798 10.5523L10.9425 10.5399C10.9082 10.4787 10.8775 10.4153 10.8505 10.3499L10.8443 10.3349L10.8391 10.3195C10.7406 10.0282 10.7403 9.72664 10.8199 9.42978C10.8983 9.13726 11.0501 8.88231 11.2779 8.68214L11.2824 8.67816C11.5064 8.48601 11.7672 8.35749 12.0564 8.2926L12.0656 8.29053C12.3696 8.22832 12.6783 8.24366 12.9847 8.32577C13.2907 8.40776 13.565 8.54859 13.792 8.75764C14.0089 8.95748 14.1677 9.19875 14.2573 9.4778C14.3633 9.76531 14.3735 10.0646 14.2942 10.3607C14.2127 10.665 14.0519 10.9284 13.8072 11.1284C13.7363 11.1873 13.6611 11.2394 13.5822 11.2849L13.775 11.4047C13.8803 11.4702 13.9814 11.5398 14.078 11.6136C14.0822 11.612 14.0865 11.6104 14.0907 11.6088L14.1005 11.605C14.3028 11.5321 14.4674 11.4442 14.6001 11.3452C14.732 11.2468 14.8443 11.1298 14.9381 10.9922C15.0345 10.8457 15.1068 10.6844 15.1546 10.5059C15.256 10.1275 15.238 9.76904 15.1036 9.41516C14.9635 9.04599 14.7287 8.71428 14.3854 8.41925L14.3795 8.4142C14.0448 8.1174 13.6338 7.89913 13.1348 7.76543ZM13.809 12.7184C13.8168 12.727 13.8245 12.7357 13.8322 12.7444L13.8392 12.7524L13.8465 12.76C14.0125 12.9335 14.1353 13.1224 14.2194 13.3281L14.2236 13.3385L14.2283 13.3487C14.3238 13.5552 14.3824 13.7749 14.4036 14.0106C14.4239 14.2367 14.402 14.4826 14.3299 14.7515C14.2197 15.163 14.0034 15.4968 13.6728 15.7656C13.3314 16.0432 12.9205 16.2302 12.4275 16.3202C11.9397 16.4092 11.421 16.3847 10.8652 16.2358C10.3108 16.0872 9.85018 15.8499 9.47273 15.53C9.09179 15.1963 8.82964 14.8236 8.67243 14.4116C8.51982 14.0116 8.49945 13.6188 8.60683 13.218C8.68333 12.9325 8.78372 12.6953 8.90303 12.5006C9.02958 12.3104 9.17905 12.1522 9.35184 12.0228C9.54022 11.8908 9.75431 11.785 9.99722 11.7074C10.008 11.7039 10.0189 11.7005 10.0298 11.6971C10.1046 11.7605 10.1825 11.8221 10.2636 11.882L10.6414 12.1611C10.4402 12.244 10.2563 12.3597 10.093 12.5087C9.83943 12.733 9.67262 13.0213 9.58406 13.3518C9.49769 13.6742 9.50534 13.9996 9.61205 14.315L9.61582 14.3258C9.7218 14.6171 9.89768 14.872 10.1288 15.0909L10.1377 15.0994L10.147 15.1073C10.403 15.327 10.7058 15.4787 11.0438 15.5693C11.3756 15.6582 11.709 15.6759 12.0382 15.6141C12.3606 15.5535 12.6531 15.4258 12.8987 15.2196L12.9073 15.2122C13.1604 14.9898 13.329 14.706 13.4167 14.3788C13.5053 14.0483 13.505 13.7152 13.3975 13.3942C13.3296 13.1803 13.2245 12.9863 13.0867 12.8127L13.5397 12.7586C13.6312 12.7477 13.721 12.7343 13.809 12.7184ZM12.9511 12.659L13.0338 11.49C12.7431 11.5422 12.446 11.5211 12.1498 11.4417C11.8679 11.3662 11.6113 11.2445 11.3885 11.0713L10.7622 12.1159C10.8201 12.0964 10.8793 12.0795 10.9396 12.065L10.9479 12.0631C11.2859 11.9883 11.6308 12.0028 11.9747 12.095C12.3169 12.1867 12.6206 12.3452 12.8698 12.5801C12.8977 12.6058 12.9249 12.6321 12.9511 12.659ZM9.33406 10.8908C9.26695 10.7788 9.20725 10.6634 9.15522 10.5446L9.15209 10.5375L9.14918 10.5302C9.04726 10.2763 8.98085 10.0137 8.95067 9.74344L8.94925 9.7307L8.94848 9.71791C8.93129 9.43147 8.9611 9.147 9.03626 8.8665C9.1909 8.28936 9.50034 7.80601 9.95951 7.43137C10.405 7.06785 10.9302 6.83309 11.5226 6.72083C12.1277 6.59766 12.7539 6.62807 13.3937 6.7995C14.0259 6.96891 14.5785 7.25489 15.0401 7.66337C15.497 8.05677 15.8344 8.52265 16.0385 9.06024C16.2489 9.61427 16.2752 10.1876 16.1205 10.7647C16.0454 11.0452 15.9289 11.3065 15.7708 11.546L15.7672 11.5514C15.6108 11.7817 15.4205 11.9809 15.1978 12.1469C15.0825 12.2329 14.9586 12.3097 14.827 12.3777C14.9533 12.5525 15.0582 12.7398 15.1407 12.9393C15.2826 13.2494 15.3687 13.5775 15.3996 13.9211C15.4317 14.278 15.3945 14.6422 15.2958 15.0103C15.1311 15.6252 14.7976 16.1398 14.3037 16.5415C13.8206 16.9344 13.2508 17.1864 12.6071 17.3039C11.9583 17.4224 11.2893 17.3847 10.6064 17.2017C9.92346 17.0187 9.32527 16.7169 8.82259 16.2899L8.81717 16.2853C8.32365 15.8538 7.95934 15.3479 7.73811 14.768C7.51191 14.1751 7.47802 13.5671 7.6409 12.9592C7.739 12.5931 7.8757 12.2609 8.05617 11.9687L8.06015 11.9622L8.06432 11.9559C8.25488 11.6673 8.48696 11.4197 8.76016 11.2166L8.77023 11.2091C8.94623 11.085 9.13451 10.9791 9.33406 10.8908ZM12.2707 9.26939C12.1393 9.29957 12.0303 9.35481 11.9358 9.43518C11.867 9.49637 11.8162 9.57528 11.7858 9.68859C11.7535 9.80912 11.7573 9.90358 11.7817 9.98448C11.8248 10.0826 11.8921 10.1794 11.9927 10.2743C12.1007 10.3605 12.2362 10.4296 12.4086 10.4758C12.5829 10.5225 12.7284 10.528 12.8519 10.5067C12.9923 10.4739 13.0936 10.4214 13.1694 10.3583L13.1736 10.3548C13.2431 10.2982 13.2963 10.2214 13.3283 10.1019C13.3566 9.99603 13.3508 9.90694 13.3172 9.81879L13.3117 9.80426L13.3071 9.78941C13.2735 9.68155 13.2132 9.58409 13.1145 9.49319C13.022 9.40802 12.8977 9.33772 12.7259 9.29169C12.5564 9.24629 12.4069 9.24227 12.2707 9.26939ZM11.168 13.0386C11.0055 13.0781 10.8745 13.1488 10.7651 13.2492L10.7572 13.2564C10.6657 13.3368 10.5937 13.4474 10.55 13.6107C10.5136 13.7464 10.5177 13.8685 10.5575 13.9893C10.6037 14.1134 10.6826 14.2359 10.8075 14.3563C10.9356 14.4638 11.097 14.5483 11.3026 14.6034C11.5017 14.6567 11.6834 14.6632 11.8535 14.6312C12.0277 14.5985 12.1549 14.5369 12.2514 14.4573C12.3435 14.375 12.4111 14.2682 12.4508 14.12C12.4945 13.9567 12.4876 13.8249 12.4486 13.7095L12.4451 13.6994C12.4019 13.5622 12.3223 13.4347 12.1914 13.3149L12.1852 13.3091C12.0718 13.2018 11.9209 13.1158 11.7159 13.0609C11.513 13.0065 11.3329 13.0029 11.168 13.0386Z" fill="black"/>
<path fill-rule="evenodd" clip-rule="evenodd" d="M2.00505 20.9849C2.00505 20.4326 2.45276 19.9849 3.00505 19.9849L12.2604 19.9849V21.9849L3.00505 21.9849C2.45276 21.9849 2.00505 21.5372 2.00505 20.9849Z" fill="black"/>
</svg>
