<svg width="24" height="24" viewBox="0 0 24 24" fill="none" xmlns="http://www.w3.org/2000/svg">
<path fill-rule="evenodd" clip-rule="evenodd" d="M15.4771 7.41238H10.797V19.9744H14.7939C14.0396 19.6899 13.5029 18.9601 13.5029 18.1045V13.7129H19.4436V18.1045C19.4436 18.9601 18.9069 19.6899 18.1526 19.9744H20.4743C21.0245 19.9744 21.4705 20.4214 21.4705 20.9729C21.4705 21.5244 21.0245 21.9714 20.4743 21.9714H4.49227L4.47814 21.9714H3.54021C2.99006 21.9714 2.54407 21.5243 2.54407 20.9729V4.99623C2.54407 3.34179 3.88204 2.00061 5.53251 2.00061H19.5077C20.608 2.00061 21.5 2.89473 21.5 3.99769V5.41531C21.5 6.51826 20.608 7.41238 19.5077 7.41238H17.4693V8.59166C17.4693 9.14314 17.0234 9.5902 16.4732 9.5902C15.923 9.5902 15.4771 9.14314 15.4771 8.59166V7.41238ZM8.80473 5.41531V19.9743H4.53636V12.4853V4.99623C4.53636 4.44475 4.98235 3.99769 5.53251 3.99769L19.5077 3.99769V5.41531H8.80473ZM5.69222 15.8023V17.7972H7.68451V15.8023H5.69222ZM15.4952 15.71H17.4513V18.1045L15.4952 18.1045V15.71Z" fill="black"/>
</svg>
