<svg width="24" height="24" viewBox="0 0 24 24" fill="none" xmlns="http://www.w3.org/2000/svg">
<path fill-rule="evenodd" clip-rule="evenodd" d="M7.09173 2.21986C7.30033 2.04807 7.57296 1.97192 7.8417 2.01038L11.3038 2.50591C11.827 2.58079 12.1896 3.06056 12.1138 3.57752C12.0381 4.09447 11.5526 4.45284 11.0294 4.37796L8.62115 4.03327L8.52576 6.55352H12.0266C12.3047 6.55352 12.569 6.67303 12.7508 6.88096C12.9326 7.08889 13.0139 7.36468 12.9736 7.63656L12.4626 11.0794C12.3858 11.5962 11.8997 11.9537 11.3767 11.8779C10.8537 11.8021 10.4919 11.3217 10.5686 10.8049L10.9188 8.44511H8.45416L8.14994 16.4821C8.13019 17.004 7.68595 17.4114 7.15771 17.3918C6.62948 17.3723 6.21728 16.9333 6.23704 16.4114L6.53857 8.44511H4.06744L5.82625 20.109H8.96051C9.48912 20.109 9.91763 20.5325 9.91763 21.0548C9.91763 21.5772 9.48912 22.0006 8.96051 22.0006H5.00117C4.52705 22.0006 4.12438 21.6576 4.0545 21.1942L2.01046 7.6387C1.96942 7.36654 2.05036 7.0902 2.23218 6.88178C2.414 6.67336 2.67866 6.55352 2.95713 6.55352H6.61017L6.74805 2.91106C6.7582 2.64291 6.88313 2.39165 7.09173 2.21986Z" fill="black"/>
<path fill-rule="evenodd" clip-rule="evenodd" d="M10.1477 16.9951C10.1951 14.4239 12.3192 12.354 14.9325 12.354H16.474C19.0873 12.354 21.2113 14.4239 21.2588 16.995C21.6841 17.0967 22 17.4753 22 17.9269C22 18.3781 21.6846 18.7565 21.2597 18.8585V19.1632C21.2597 20.7303 19.9742 22.0006 18.3883 22.0006H13.0183C11.4325 22.0006 10.147 20.7303 10.147 19.1632V18.8585C9.72215 18.7565 9.40674 18.3781 9.40674 17.9269C9.40674 17.4754 9.72249 17.0969 10.1477 16.9951ZM12.0634 16.9681H19.343C19.2821 15.4543 18.0209 14.2456 16.474 14.2456H14.9325C13.3856 14.2456 12.1244 15.4543 12.0634 16.9681ZM12.0612 18.8856V19.1632C12.0612 19.6856 12.4897 20.109 13.0183 20.109H18.3883C18.917 20.109 19.3455 19.6856 19.3455 19.1632V18.8856H12.0612Z" fill="black"/>
</svg>
