<svg width="24" height="24" viewBox="0 0 24 24" fill="none" xmlns="http://www.w3.org/2000/svg">
<path d="M8.82065 12.3172C8.55584 12.3172 8.30187 12.4224 8.11462 12.6096C7.92736 12.7969 7.82217 13.0508 7.82217 13.3156V15.3929C7.82217 15.6577 7.92736 15.9117 8.11462 16.099C8.30187 16.2862 8.55584 16.3914 8.82065 16.3914C9.08547 16.3914 9.33944 16.2862 9.52669 16.099C9.71394 15.9117 9.81914 15.6577 9.81914 15.3929V13.3156C9.81914 13.0508 9.71394 12.7969 9.52669 12.6096C9.33944 12.4224 9.08547 12.3172 8.82065 12.3172Z" fill="black"/>
<path d="M11.5903 12.3172C11.3255 12.3172 11.0716 12.4224 10.8843 12.6096C10.6971 12.7969 10.5919 13.0508 10.5919 13.3156V15.3929C10.5919 15.6577 10.6971 15.9117 10.8843 16.099C11.0716 16.2862 11.3255 16.3914 11.5903 16.3914C11.8552 16.3914 12.1091 16.2862 12.2964 16.099C12.4836 15.9117 12.5888 15.6577 12.5888 15.3929V13.3156C12.5888 13.0508 12.4836 12.7969 12.2964 12.6096C12.1091 12.4224 11.8552 12.3172 11.5903 12.3172Z" fill="black"/>
<path d="M14.36 12.3172C14.0952 12.3172 13.8413 12.4224 13.654 12.6096C13.4668 12.7969 13.3616 13.0508 13.3616 13.3156V15.3929C13.3616 15.6577 13.4668 15.9117 13.654 16.099C13.8413 16.2862 14.0952 16.3914 14.36 16.3914C14.6249 16.3914 14.8788 16.2862 15.0661 16.099C15.2533 15.9117 15.3585 15.6577 15.3585 15.3929V13.3156C15.3585 13.0508 15.2533 12.7969 15.0661 12.6096C14.8788 12.4224 14.6249 12.3172 14.36 12.3172Z" fill="black"/>
<path fill-rule="evenodd" clip-rule="evenodd" d="M9.51309 4.70046C9.06464 4.70046 8.63455 4.87861 8.31744 5.19571C8.00033 5.51282 7.82218 5.94291 7.82218 6.39137V6.80565C7.4875 6.86725 7.1766 7.02898 6.93259 7.27299C6.61548 7.59009 6.43733 8.02018 6.43733 8.46864V9.54743H6.05097C5.60252 9.54743 5.17243 9.72557 4.85532 10.0427C4.53821 10.3598 4.36006 10.7899 4.36006 11.2383V17.4702C4.36006 17.9186 4.53821 18.3487 4.85532 18.6658C5.17243 18.9829 5.60252 19.1611 6.05097 19.1611H17.1298C17.5782 19.1611 18.0083 18.9829 18.3254 18.6658C18.6425 18.3487 18.8207 17.9186 18.8207 17.4702V11.2383C18.8207 10.7899 18.6425 10.3598 18.3254 10.0427C18.0083 9.72557 17.5782 9.54743 17.1298 9.54743H16.7434V8.46864C16.7434 8.02018 16.5652 7.59009 16.2481 7.27299C16.0041 7.02898 15.6932 6.86725 15.3585 6.80565V6.39137C15.3585 5.94291 15.1804 5.51282 14.8633 5.19571C14.5462 4.87861 14.1161 4.70046 13.6676 4.70046H9.51309ZM9.81915 7.77622V6.69743H13.3616V7.77622C13.3616 8.04103 13.4668 8.295 13.654 8.48225C13.8413 8.6695 14.0952 8.7747 14.3601 8.7747H14.7464V10.5459C14.7464 10.8107 14.8516 11.0647 15.0389 11.2519C15.2261 11.4392 15.4801 11.5444 15.7449 11.5444H16.8237V17.1641H6.35703V11.5444H7.43582C7.70064 11.5444 7.9546 11.4392 8.14186 11.2519C8.32911 11.0647 8.43431 10.8107 8.43431 10.5459V8.7747H8.82067C9.08548 8.7747 9.33945 8.6695 9.5267 8.48225C9.71396 8.295 9.81915 8.04103 9.81915 7.77622Z" fill="black"/>
<path fill-rule="evenodd" clip-rule="evenodd" d="M3.97367 1.93079C3.34157 1.93079 2.73536 2.18189 2.28839 2.62885C1.84143 3.07581 1.59033 3.68202 1.59033 4.31412V19.5475C1.59033 20.1796 1.84143 20.7858 2.28839 21.2327C2.73536 21.6797 3.34157 21.9308 3.97367 21.9308H19.207C19.8391 21.9308 20.4453 21.6797 20.8923 21.2327C21.3392 20.7858 21.5903 20.1796 21.5903 19.5475V4.31412C21.5903 3.68202 21.3392 3.07581 20.8923 2.62885C20.4453 2.18189 19.8391 1.93079 19.207 1.93079H3.97367ZM3.70047 4.04092C3.77292 3.96846 3.8712 3.92776 3.97367 3.92776H19.207C19.3095 3.92776 19.4077 3.96846 19.4802 4.04092C19.5527 4.11338 19.5934 4.21165 19.5934 4.31412V19.5475C19.5934 19.6499 19.5527 19.7482 19.4802 19.8207C19.4077 19.8931 19.3095 19.9338 19.207 19.9338H3.97367C3.87119 19.9338 3.77292 19.8931 3.70047 19.8207C3.62801 19.7482 3.5873 19.6499 3.5873 19.5475V4.31412C3.5873 4.21165 3.62801 4.11338 3.70047 4.04092Z" fill="black"/>
</svg>
