<svg width="24" height="24" viewBox="0 0 24 24" fill="none" xmlns="http://www.w3.org/2000/svg">
<path fill-rule="evenodd" clip-rule="evenodd" d="M11 1.00061C10.4696 1.00061 9.96085 1.21132 9.58578 1.5864C9.21071 1.96147 8.99999 2.47018 8.99999 3.00061C8.99999 3.53104 9.21071 4.03975 9.58578 4.41482C9.96085 4.7899 10.4696 5.00061 11 5.00061C11.5304 5.00061 12.0391 4.7899 12.4142 4.41482C12.7893 4.03975 13 3.53104 13 3.00061C13 2.47018 12.7893 1.96147 12.4142 1.5864C12.0391 1.21132 11.5304 1.00061 11 1.00061ZM9.87504 6.00846C10.1793 5.9701 10.4872 6.07357 10.7071 6.29352L12.993 8.57943L15.1961 9.02005C15.7377 9.12836 16.0889 9.65519 15.9806 10.1967C15.8723 10.7383 15.3454 11.0895 14.8039 10.9812L12.3039 10.4812C12.1103 10.4425 11.9325 10.3473 11.7929 10.2077L10.4809 8.89573L10.064 11.7181L12.6978 14.2844C12.891 14.4726 13 14.7309 13 15.0006V18.0006C13 18.5529 12.5523 19.0006 12 19.0006C11.4477 19.0006 11 18.5529 11 18.0006V15.4225L8.30214 12.7938C8.07221 12.5698 7.96382 12.249 8.01073 11.9315L8.53268 8.39824L7 8.78141V10.0006C7 10.5529 6.55228 11.0006 6 11.0006C5.44772 11.0006 5 10.5529 5 10.0006V8.00063C5 7.54176 5.3123 7.14178 5.75746 7.03049L9.18941 6.1725C9.38383 6.04081 9.62491 5.97683 9.87504 6.00846ZM3.24253 13.0305C2.70673 12.8965 2.1638 13.2223 2.02985 13.7581C1.8959 14.2939 2.22166 14.8368 2.75746 14.9708L6.75746 15.9708C7.09823 16.0559 7.45872 15.9561 7.7071 15.7077L8.2071 15.2077C8.59762 14.8172 8.59762 14.184 8.2071 13.7935C7.81658 13.403 7.18341 13.403 6.79289 13.7935L6.69324 13.8931L3.24253 13.0305ZM21.4472 9.89506C21.9412 9.64807 22.1414 9.0474 21.8944 8.55342C21.6474 8.05944 21.0468 7.85921 20.5528 8.1062L18.5528 9.1062C18.243 9.26108 18.0355 9.5652 18.0041 9.9101L17.0868 20.0006H4C3.46957 20.0006 2.96086 20.2113 2.58579 20.5864C2.21071 20.9615 2 21.4702 2 22.0006C2 22.5529 2.44772 23.0006 3 23.0006C3.55228 23.0006 4 22.5529 4 22.0006H17.9898H18.0125H20C20 22.5529 20.4477 23.0006 21 23.0006C21.5523 23.0006 22 22.5529 22 22.0006C22 21.4702 21.7893 20.9615 21.4142 20.5864C21.0391 20.2113 20.5304 20.0006 20 20.0006H19.095L19.9455 10.6459L21.4472 9.89506Z" fill="black"/>
</svg>
