<svg width="24" height="24" viewBox="0 0 24 24" fill="none" xmlns="http://www.w3.org/2000/svg">
<path d="M7 9.99829H9C9.26522 9.99829 9.51957 9.89296 9.70711 9.70548C9.89464 9.518 10 9.26372 10 8.99858C10 8.73344 9.89464 8.47916 9.70711 8.29168C9.51957 8.1042 9.26522 7.99887 9 7.99887H7C6.73478 7.99887 6.48043 8.1042 6.29289 8.29168C6.10536 8.47916 6 8.73344 6 8.99858C6 9.26372 6.10536 9.518 6.29289 9.70548C6.48043 9.89296 6.73478 9.99829 7 9.99829ZM21 4.00003H13V3.00032C13 2.73518 12.8946 2.4809 12.7071 2.29342C12.5196 2.10594 12.2652 2.00061 12 2.00061C11.7348 2.00061 11.4804 2.10594 11.2929 2.29342C11.1054 2.4809 11 2.73518 11 3.00032V4.00003H3C2.73478 4.00003 2.48043 4.10536 2.29289 4.29284C2.10536 4.48032 2 4.7346 2 4.99974V14.9968C2 15.7923 2.31607 16.5551 2.87868 17.1175C3.44129 17.68 4.20435 17.996 5 17.996H9.59L7.29 20.2853C7.19627 20.3782 7.12188 20.4888 7.07111 20.6106C7.02034 20.7325 6.9942 20.8631 6.9942 20.9951C6.9942 21.1271 7.02034 21.2577 7.07111 21.3796C7.12188 21.5014 7.19627 21.612 7.29 21.7049C7.38296 21.7986 7.49356 21.873 7.61542 21.9237C7.73728 21.9745 7.86799 22.0006 8 22.0006C8.13201 22.0006 8.26272 21.9745 8.38458 21.9237C8.50644 21.873 8.61704 21.7986 8.71 21.7049L11 19.4056V20.9951C11 21.2602 11.1054 21.5145 11.2929 21.702C11.4804 21.8895 11.7348 21.9948 12 21.9948C12.2652 21.9948 12.5196 21.8895 12.7071 21.702C12.8946 21.5145 13 21.2602 13 20.9951V19.4056L15.29 21.7049C15.383 21.7986 15.4936 21.873 15.6154 21.9237C15.7373 21.9745 15.868 22.0006 16 22.0006C16.132 22.0006 16.2627 21.9745 16.3846 21.9237C16.5064 21.873 16.617 21.7986 16.71 21.7049C16.8037 21.612 16.8781 21.5014 16.9289 21.3796C16.9797 21.2577 17.0058 21.1271 17.0058 20.9951C17.0058 20.8631 16.9797 20.7325 16.9289 20.6106C16.8781 20.4888 16.8037 20.3782 16.71 20.2853L14.41 17.996H19C19.7956 17.996 20.5587 17.68 21.1213 17.1175C21.6839 16.5551 22 15.7923 22 14.9968V4.99974C22 4.7346 21.8946 4.48032 21.7071 4.29284C21.5196 4.10536 21.2652 4.00003 21 4.00003ZM20 14.9968C20 15.262 19.8946 15.5163 19.7071 15.7037C19.5196 15.8912 19.2652 15.9966 19 15.9966H5C4.73478 15.9966 4.48043 15.8912 4.29289 15.7037C4.10536 15.5163 4 15.262 4 14.9968V5.99945H20V14.9968ZM7 13.9971H13C13.2652 13.9971 13.5196 13.8918 13.7071 13.7043C13.8946 13.5168 14 13.2626 14 12.9974C14 12.7323 13.8946 12.478 13.7071 12.2905C13.5196 12.103 13.2652 11.9977 13 11.9977H7C6.73478 11.9977 6.48043 12.103 6.29289 12.2905C6.10536 12.478 6 12.7323 6 12.9974C6 13.2626 6.10536 13.5168 6.29289 13.7043C6.48043 13.8918 6.73478 13.9971 7 13.9971Z" fill="black"/>
</svg>
