<svg width="24" height="24" viewBox="0 0 24 24" fill="none" xmlns="http://www.w3.org/2000/svg">
<path fill-rule="evenodd" clip-rule="evenodd" d="M5.66989 2.00061C5.17951 2.00061 4.78034 2.40421 4.78034 2.90004V12.4013H3.88955C3.39917 12.4013 3 12.8049 3 13.3007V21.1012C3 21.597 3.39917 22.0006 3.88955 22.0006H20.1104C20.6008 22.0006 21 21.597 21 21.1012V13.3007C21 12.8049 20.6008 12.4013 20.1104 12.4013H19.2197V2.90004C19.2197 2.40421 18.8205 2.00061 18.3301 2.00061H5.66989ZM6.75726 8.72576V3.99948H8.2113C8.23566 5.17872 7.95284 7.00167 6.75726 8.72576ZM7.92794 10.4638C9.76278 8.19463 10.2152 5.67846 10.1999 3.99948H13.8937C13.8647 5.68066 14.3192 8.19156 16.1631 10.4564C15.8705 11.1058 15.6474 11.8278 15.5048 12.4013H8.57289C8.42623 11.8243 8.19713 11.1055 7.92794 10.4638ZM17.2427 8.62086C16.0966 6.92799 15.8244 5.15473 15.8481 3.99948H17.2427V8.62086ZM4.97691 20.0017V14.4001H6.26396V20.0017H4.97691ZM8.24088 20.0017V14.4001H9.42902V20.0017H8.24088ZM11.4059 20.0017V14.4001H12.5941V20.0017H11.4059ZM14.571 20.0017V14.4001H15.7591V20.0017H14.571ZM17.736 20.0017V14.4001H19.0231V20.0017H17.736Z" fill="black"/>
</svg>
