<svg width="24" height="24" viewBox="0 0 24 24" fill="none" xmlns="http://www.w3.org/2000/svg">
<path fill-rule="evenodd" clip-rule="evenodd" d="M12.6212 2.21756C12.2574 1.92943 11.7433 1.92943 11.3795 2.21756L4.63755 7.55777C4.30388 7.82207 4.174 8.26867 4.31388 8.67076C4.45376 9.07286 4.83275 9.34233 5.25837 9.34233H11.0003V13.8301H8.59543C8.04312 13.8301 7.59539 14.278 7.59539 14.8304C7.59539 15.3829 8.04312 15.8308 8.59543 15.8308H11.0003V20.9852C11.0003 21.5377 11.4482 21.9856 12.0007 21.9856C12.5531 21.9856 13.001 21.5377 13.001 20.9852V15.8308H15.4055C15.9578 15.8308 16.4055 15.3829 16.4055 14.8304C16.4055 14.278 15.9578 13.8301 15.4055 13.8301H13.001V9.34233H18.7424C19.168 9.34233 19.547 9.07286 19.6868 8.67076C19.8267 8.26867 19.6968 7.82207 19.3632 7.55777L12.6212 2.21756ZM15.8685 7.34168H8.13218L12.0004 4.27776L15.8685 7.34168ZM21.2563 12.7067C21.7902 12.8482 22.1082 13.3959 21.9667 13.9299L20.895 17.9733L21.9312 20.6205C22.1326 21.1349 21.8789 21.7153 21.3646 21.9167C20.8504 22.1181 20.2702 21.8644 20.0688 21.35L19.1621 19.0336H17.3685L16.8482 21.2172C16.7202 21.7546 16.1808 22.0864 15.6436 21.9583C15.1063 21.8302 14.7746 21.2907 14.9027 20.7533L15.606 17.8014C15.7134 17.3509 16.1158 17.033 16.5788 17.033H19.075L20.0334 13.4172C20.1749 12.8832 20.7224 12.5651 21.2563 12.7067ZM2.03391 13.9456C1.89237 13.4116 2.21041 12.8639 2.74427 12.7223C3.27813 12.5807 3.82565 12.8989 3.96719 13.4329L4.92554 17.0486H7.42175C7.88474 17.0486 8.28719 17.3665 8.39453 17.817L9.09791 20.769C9.22596 21.3064 8.89424 21.8459 8.35698 21.974C7.81973 22.102 7.28039 21.7702 7.15234 21.2328L6.63205 19.0493H4.83847L3.93174 21.3656C3.73036 21.88 3.15021 22.1338 2.63592 21.9323C2.12164 21.7309 1.86798 21.1506 2.06936 20.6362L3.1056 17.989L2.03391 13.9456Z" fill="black"/>
</svg>
