<svg width="24" height="24" viewBox="0 0 24 24" fill="none" xmlns="http://www.w3.org/2000/svg">
<path fill-rule="evenodd" clip-rule="evenodd" d="M4.54253 2.00804C4.18071 1.96375 3.82345 2.11985 3.61014 2.41544C3.39682 2.71103 3.36125 3.09928 3.5173 3.42871L5.11376 6.79903C5.09462 6.81994 5.0751 6.84143 5.0552 6.86349C4.71852 7.23668 4.27165 7.77689 3.82423 8.45228C2.94127 9.78513 2.00671 11.7196 2.00004 13.9763C1.99966 13.992 1.99966 14.0077 2.00003 14.0233C2.00627 16.2804 2.94107 18.2155 3.82422 19.5487C4.27163 20.2242 4.71849 20.7644 5.05516 21.1376C5.2239 21.3247 5.36607 21.471 5.46833 21.5727C5.5195 21.6235 5.56077 21.6633 5.5905 21.6915C5.60767 21.7078 5.62494 21.724 5.64242 21.7399L5.64353 21.7409C5.85201 21.93 6.06721 22.0006 6.31579 22.0006H14.3684C14.5498 22.0006 14.7277 21.9513 14.8831 21.858C14.9061 21.8439 14.929 21.8297 14.9517 21.8151C14.9884 21.7915 15.0385 21.7585 15.0999 21.716C15.2227 21.6311 15.3916 21.508 15.5911 21.3458C15.9893 21.0223 16.5152 20.5388 17.0408 19.8887C18.0756 18.6087 19.1181 16.6685 19.1568 14.0512C19.1582 14.0239 19.1585 13.9968 19.1577 13.9699C19.1578 13.9469 19.1579 13.9238 19.1579 13.9006C19.1579 11.2067 18.0954 9.26227 17.0314 8.00063H18.5928C18.7322 8.22981 18.9222 8.58967 19.1175 9.10499C19.5434 10.2288 20 12.107 20 15.0006C20 15.5529 20.4477 16.0006 21 16.0006C21.5523 16.0006 22 15.5529 22 15.0006C22 11.8942 21.5092 9.77246 20.9877 8.39627C20.7272 7.70883 20.4604 7.21112 20.2468 6.87288C20.1401 6.70393 20.047 6.57532 19.9751 6.48316C19.9392 6.4371 19.9086 6.4002 19.8842 6.37197C19.8673 6.3523 19.8501 6.33286 19.8322 6.31397L19.8312 6.31288C19.6423 6.11354 19.3798 6.00063 19.1052 6.00063H16.0354L16.3004 4.50903C16.3484 4.23868 16.2831 3.96047 16.1199 3.73966C15.9567 3.51886 15.7098 3.3749 15.4373 3.34154L4.54253 2.00804ZM6.72797 8.00063H14.0825C14.157 8.05068 14.2496 8.11583 14.3557 8.19641C14.6645 8.43101 15.0817 8.79173 15.4992 9.28609C16.1751 10.0864 16.8511 11.2336 17.078 12.7829C14.6719 12.4706 12.7264 12.9751 10.9975 13.4235C10.7737 13.4816 10.5535 13.5387 10.3364 13.593C8.34072 14.0919 6.49843 14.4041 4.03164 13.3708C4.17849 11.8999 4.81506 10.578 5.49156 9.55682C5.87309 8.9809 6.25516 8.51913 6.5402 8.20318C6.60922 8.12667 6.6723 8.059 6.72797 8.00063ZM4.19094 15.5615C4.45551 16.6584 4.96127 17.6437 5.49157 18.4442C5.87311 19.0202 6.25519 19.482 6.54023 19.798C6.60927 19.8745 6.67235 19.9422 6.72803 20.0006H14.0615C14.1356 19.9467 14.2265 19.8777 14.3299 19.7937C14.6422 19.5399 15.0637 19.153 15.4855 18.6313C16.2018 17.7453 16.9121 16.481 17.1062 14.807C14.9831 14.465 13.3029 14.8969 11.4897 15.3631C11.2692 15.4198 11.0469 15.4769 10.8215 15.5333C8.86636 16.022 6.78748 16.4014 4.19094 15.5615ZM14.0041 6.00061L14.1466 5.19848L6.10224 4.21387L6.9486 6.00061H14.0041Z" fill="black"/>
</svg>
