<svg width="24" height="24" viewBox="0 0 24 24" fill="none" xmlns="http://www.w3.org/2000/svg">
<path d="M22.708 11.2335C22.6106 11.0387 22.5133 10.7464 22.3186 10.5516C22.0265 10.162 21.7345 9.7723 21.3451 9.38265C20.7611 8.60335 20.177 7.82405 19.4956 6.94734C19.0088 6.46028 18.6195 5.8758 18.1327 5.38874C17.646 4.80426 17.2566 4.3172 16.4779 4.12238C15.6991 3.92755 14.823 4.02496 14.0442 4.02496C11.5133 4.02496 8.88496 4.02496 6.35398 4.02496C5.57522 4.02496 4.69912 4.02496 3.82301 4.02496C3.53097 4.02496 3.33628 4.02496 3.04425 4.02496C2.46018 4.02496 1.97345 4.21979 1.58407 4.60944C1.19469 4.99909 1 5.58356 1 6.07063V14.9352C1 15.5196 1.19469 16.0067 1.58407 16.3963C1.97345 16.786 2.46018 16.9808 3.04425 16.9808C3.04425 17.7601 3.33628 18.442 3.92035 19.1239C4.50442 19.7084 5.28319 20.0006 6.06195 20.0006C6.84071 20.0006 7.61947 19.7084 8.20354 19.1239C8.78761 18.5394 9.07965 17.8575 9.07965 16.9808H14.9204C14.9204 17.7601 15.2124 18.5394 15.7965 19.1239C16.3805 19.7084 17.0619 20.0006 17.9381 20.0006C18.8142 20.0006 19.4956 19.7084 20.0796 19.1239C20.6637 18.5394 20.9558 17.8575 20.9558 16.9808C21.5398 16.9808 22.0265 16.786 22.4159 16.3963C22.8053 16.0067 23 15.5196 23 14.9352V11.818C22.9027 11.6231 22.8053 11.3309 22.708 11.2335ZM15.0177 6.26545H15.8938L18.8142 10.0645H15.0177V6.26545ZM9.07965 6.26545H12.8761V10.162H9.07965V6.26545ZM3.14159 6.26545H6.93805V10.162H3.14159V6.26545ZM6.84071 17.8575C6.64602 18.0524 6.35398 18.1498 6.06195 18.1498C5.76991 18.1498 5.47788 18.0524 5.18584 17.8575C4.99115 17.5653 4.89381 17.3705 4.89381 16.9808C4.89381 16.6886 4.99115 16.3963 5.18584 16.1041C5.38053 15.9093 5.67257 15.8119 5.9646 15.8119C6.25664 15.8119 6.54867 15.9093 6.84071 16.1041C7.0354 16.2989 7.13274 16.5912 7.13274 16.8834C7.13274 17.3705 7.0354 17.5653 6.84071 17.8575ZM18.7168 17.8575C18.5221 18.0524 18.2301 18.1498 17.9381 18.1498C17.646 18.1498 17.354 18.0524 17.0619 17.8575C16.8673 17.6627 16.7699 17.3705 16.7699 17.0782C16.7699 16.786 16.8673 16.4938 17.0619 16.2015C17.2566 16.0067 17.5487 15.9093 17.8407 15.9093C18.1327 15.9093 18.4248 16.0067 18.7168 16.2015C18.9115 16.3963 19.0089 16.6886 19.0089 16.9808V17.0782C19.0089 17.2731 18.9115 17.5653 18.7168 17.8575ZM20.7611 14.9352H20.0796C19.7876 14.6429 19.4956 14.3507 19.1062 14.2533C18.7168 14.0584 18.3274 13.961 17.8407 13.961C17.4513 13.961 16.9646 14.0584 16.5752 14.2533C16.2832 14.4481 15.8938 14.6429 15.6018 14.9352H8.30088C8.00885 14.5455 7.71681 14.3507 7.23009 14.1559C6.84071 13.961 6.45133 13.8636 6.06195 13.8636C5.67257 13.8636 5.18584 13.961 4.79646 14.1559C4.50442 14.3507 4.11504 14.5455 3.82301 14.8377H3.14159V12.1102H20.7611V14.9352Z" fill="black"/>
</svg>
