<svg width="24" height="24" viewBox="0 0 24 24" fill="none" xmlns="http://www.w3.org/2000/svg">
<path d="M20.5771 14.078V15.078C20.5771 16.988 19.5071 18.648 17.9271 19.488L18.5771 22.078H16.5771L16.0771 20.078H7.07715L6.57715 22.078H4.57715L5.22715 19.488C4.42633 19.0632 3.75646 18.4281 3.28954 17.6511C2.82263 16.8741 2.57633 15.9845 2.57715 15.078V14.078H1.57715V12.078H19.5771V5.078C19.5771 4.81279 19.4718 4.55843 19.2843 4.3709C19.0967 4.18336 18.8424 4.078 18.5771 4.078C18.0771 4.078 17.6971 4.418 17.5771 4.868C18.2071 5.408 18.5771 6.208 18.5771 7.078H12.5771C12.5771 6.28235 12.8932 5.51929 13.4558 4.95668C14.0184 4.39407 14.7815 4.078 15.5771 4.078H15.7471C16.1571 2.918 17.2671 2.078 18.5771 2.078C19.3728 2.078 20.1359 2.39407 20.6985 2.95668C21.2611 3.51929 21.5771 4.28235 21.5771 5.078V14.078H20.5771ZM18.5771 14.078H4.57715V15.078C4.57715 15.8737 4.89322 16.6367 5.45583 17.1993C6.01844 17.7619 6.7815 18.078 7.57715 18.078H15.5771C16.3728 18.078 17.1359 17.7619 17.6985 17.1993C18.2611 16.6367 18.5771 15.8737 18.5771 15.078V14.078Z" fill="black"/>
</svg>
