<svg width="24" height="24" viewBox="0 0 24 24" fill="none" xmlns="http://www.w3.org/2000/svg">
<path fill-rule="evenodd" clip-rule="evenodd" d="M14.3051 6.35291C14.7464 7.09386 14.6283 8.0398 14.0185 8.6496L8.64898 14.0191C8.03918 14.6289 7.09325 14.747 6.35229 14.3057C5.97891 14.0834 5.48844 14.1359 5.16913 14.4552C4.78955 14.8348 4.78955 15.4502 5.16913 15.8298C5.37174 16.0324 5.63842 16.1272 5.90776 16.1132C6.44082 16.0855 6.96061 16.2851 7.33804 16.6626C7.71547 17.04 7.91514 17.5598 7.88744 18.0928C7.87345 18.3622 7.96819 18.6289 8.17079 18.8315C8.55037 19.2111 9.16579 19.2111 9.54537 18.8315C9.86467 18.5122 9.91721 18.0217 9.69486 17.6483C9.25364 16.9074 9.37169 15.9615 9.98148 15.3517L15.351 9.9821C15.9608 9.3723 16.9068 9.25426 17.6477 9.69549C18.0211 9.91784 18.5116 9.86531 18.8309 9.54601C19.2104 9.16643 19.2104 8.55101 18.8309 8.17143C18.6283 7.96882 18.3616 7.87408 18.0922 7.88807C17.5592 7.91577 17.0394 7.71611 16.6619 7.33867C16.2845 6.96123 16.0848 6.44144 16.1125 5.90838C16.1265 5.63903 16.0318 5.37235 15.8292 5.16975C15.4496 4.79017 14.8342 4.79017 14.4546 5.16975C14.1353 5.48905 14.0828 5.97952 14.3051 6.35291ZM17.9635 5.41141C17.873 4.83515 17.6057 4.28128 17.1617 3.83724C16.0462 2.72173 14.2376 2.72173 13.1221 3.83724C12.1784 4.78092 12.0331 6.2206 12.686 7.31709L7.31647 12.6866C6.21999 12.0337 4.7803 12.179 3.83663 13.1227C2.72112 14.2382 2.72112 16.0468 3.83663 17.1623C4.28068 17.6064 4.83457 17.8737 5.41084 17.9642C5.60762 17.9951 5.80701 18.0054 6.00553 17.9951C5.99522 18.1936 6.00552 18.393 6.03643 18.5898C6.12695 19.166 6.39423 19.7199 6.83829 20.164C7.95379 21.2795 9.76238 21.2795 10.8779 20.164C11.8215 19.2203 11.9669 17.7807 11.314 16.6842L16.6835 11.3146C17.78 11.9676 19.2197 11.8222 20.1634 10.8785C21.2789 9.76301 21.2789 7.95442 20.1634 6.83892C19.7193 6.39488 19.1655 6.12759 18.5892 6.03706C18.3924 6.00615 18.193 5.99585 17.9945 6.00616C18.0048 5.80762 17.9945 5.60821 17.9635 5.41141Z" fill="black"/>
</svg>
