<svg width="24" height="24" viewBox="0 0 24 24" fill="none" xmlns="http://www.w3.org/2000/svg">
<path d="M16.9993 17.9946H14.9994C14.2038 17.9946 13.4408 18.3112 12.8782 18.8746C12.3156 19.4381 11.9996 20.2023 11.9996 20.9991C11.9996 21.2647 12.1049 21.5195 12.2924 21.7073C12.48 21.8951 12.7343 22.0006 12.9995 22.0006C13.2647 22.0006 13.5191 21.8951 13.7066 21.7073C13.8941 21.5195 13.9995 21.2647 13.9995 20.9991C13.9995 20.7335 14.1048 20.4788 14.2924 20.291C14.4799 20.1031 14.7342 19.9976 14.9994 19.9976H16.9993C17.2645 19.9976 17.5189 20.1031 17.7064 20.291C17.8939 20.4788 17.9993 20.7335 17.9993 20.9991C17.9993 21.2647 18.1046 21.5195 18.2922 21.7073C18.4797 21.8951 18.734 22.0006 18.9993 22.0006C19.2645 22.0006 19.5188 21.8951 19.7063 21.7073C19.8939 21.5195 19.9992 21.2647 19.9992 20.9991C19.9992 20.2023 19.6832 19.4381 19.1206 18.8746C18.558 18.3112 17.795 17.9946 16.9993 17.9946ZM6.99978 17.9946H4.99987C4.20425 17.9946 3.44123 18.3112 2.87864 18.8746C2.31606 19.4381 2 20.2023 2 20.9991C2 21.2647 2.10535 21.5195 2.29288 21.7073C2.48041 21.8951 2.73475 22.0006 2.99996 22.0006C3.26516 22.0006 3.5195 21.8951 3.70703 21.7073C3.89456 21.5195 3.99991 21.2647 3.99991 20.9991C3.99991 20.7335 4.10526 20.4788 4.29279 20.291C4.48032 20.1031 4.73466 19.9976 4.99987 19.9976H6.99978C7.26499 19.9976 7.51933 20.1031 7.70686 20.291C7.89438 20.4788 7.99974 20.7335 7.99974 20.9991C7.99974 21.2647 8.10509 21.5195 8.29262 21.7073C8.48015 21.8951 8.73449 22.0006 8.99969 22.0006C9.2649 22.0006 9.51924 21.8951 9.70677 21.7073C9.8943 21.5195 9.99965 21.2647 9.99965 20.9991C9.99965 20.2023 9.68359 19.4381 9.12101 18.8746C8.55842 18.3112 7.7954 17.9946 6.99978 17.9946ZM5.99982 16.9932C6.59314 16.9932 7.17314 16.8169 7.66646 16.4868C8.15979 16.1567 8.54429 15.6874 8.77134 15.1384C8.99839 14.5894 9.0578 13.9853 8.94205 13.4025C8.8263 12.8197 8.54059 12.2844 8.12105 11.8642C7.70151 11.444 7.16699 11.1579 6.58507 11.0419C6.00315 10.926 5.39998 10.9855 4.85182 11.2129C4.30367 11.4403 3.83516 11.8254 3.50553 12.3195C3.1759 12.8136 2.99996 13.3944 2.99996 13.9887C2.99996 14.7855 3.31601 15.5497 3.8786 16.1132C4.44118 16.6766 5.20421 16.9932 5.99982 16.9932ZM5.99982 12.9872C6.1976 12.9872 6.39093 13.0459 6.55537 13.156C6.71981 13.266 6.84798 13.4224 6.92366 13.6054C6.99935 13.7884 7.01915 13.9898 6.98057 14.1841C6.94198 14.3783 6.84675 14.5568 6.7069 14.6968C6.56705 14.8369 6.38888 14.9323 6.19491 14.9709C6.00093 15.0096 5.79988 14.9897 5.61716 14.9139C5.43444 14.8381 5.27827 14.7098 5.16839 14.5451C5.05851 14.3804 4.99987 14.1868 4.99987 13.9887C4.99987 13.7231 5.10522 13.4683 5.29275 13.2805C5.48028 13.0927 5.73462 12.9872 5.99982 12.9872ZM15.4594 7.97973C15.7799 7.6022 16.0225 7.16472 16.1729 6.69264C16.3234 6.22057 16.3789 5.72327 16.3361 5.22957C16.2933 4.73588 16.1531 4.25559 15.9237 3.81654C15.6943 3.37749 15.3801 2.9884 14.9994 2.67182C14.4252 2.21721 13.7093 1.98003 12.9777 2.00201C12.246 2.02399 11.5456 2.30374 10.9996 2.792C10.4536 2.30374 9.75319 2.02399 9.02156 2.00201C8.28993 1.98003 7.574 2.21721 6.99978 2.67182C6.61912 2.9884 6.30496 3.37749 6.07551 3.81654C5.84607 4.25559 5.70589 4.73588 5.66311 5.22957C5.62032 5.72327 5.67578 6.22057 5.82627 6.69264C5.97676 7.16472 6.21929 7.6022 6.5398 7.97973H6.6198L10.2896 11.6552C10.3826 11.7491 10.4932 11.8236 10.615 11.8744C10.7369 11.9253 10.8676 11.9514 10.9996 11.9514C11.1316 11.9514 11.2623 11.9253 11.3842 11.8744C11.506 11.8236 11.6166 11.7491 11.7096 11.6552L15.3794 7.97973H15.4594ZM13.9195 6.64774L10.9996 9.5721L8.07973 6.64774C7.78502 6.3036 7.63584 5.85797 7.66384 5.40546C7.69185 4.95295 7.89484 4.52919 8.22973 4.22413C8.7997 3.76345 9.52967 3.98377 10.2296 4.83504C10.3235 4.94845 10.4411 5.03974 10.5742 5.1024C10.7073 5.16505 10.8525 5.19754 10.9996 5.19754C11.1467 5.19754 11.2919 5.16505 11.425 5.1024C11.5581 5.03974 11.6757 4.94845 11.7696 4.83504C12.4695 3.98377 13.1995 3.76345 13.7695 4.22413C14.1044 4.52919 14.3074 4.95295 14.3354 5.40546C14.3634 5.85797 14.2142 6.3036 13.9195 6.64774ZM20.7092 11.2746L20.4092 10.9842C20.0345 10.6111 19.5276 10.4017 18.9993 10.4017C18.4709 10.4017 17.964 10.6111 17.5893 10.9842L17.2893 11.2746C16.8863 11.0829 16.4456 10.9837 15.9994 10.9842C15.4061 10.9842 14.8261 11.1604 14.3327 11.4905C13.8394 11.8207 13.4549 12.2899 13.2279 12.8389C13.0008 13.3879 12.9414 13.992 13.0572 14.5748C13.1729 15.1576 13.4586 15.693 13.8782 16.1132C14.2977 16.5333 14.8322 16.8195 15.4141 16.9354C15.9961 17.0514 16.5992 16.9919 17.1474 16.7645C17.6955 16.537 18.1641 16.152 18.4937 15.6579C18.8233 15.1638 18.9993 14.5829 18.9993 13.9887C18.9966 13.541 18.8941 13.0996 18.6993 12.6968L18.9893 12.3963L19.2792 12.6968C19.3722 12.7906 19.4828 12.8651 19.6047 12.916C19.7265 12.9668 19.8572 12.993 19.9892 12.993C20.1212 12.993 20.2519 12.9668 20.3738 12.916C20.4956 12.8651 20.6062 12.7906 20.6992 12.6968C20.7936 12.6043 20.8687 12.4941 20.9204 12.3724C20.972 12.2507 20.999 12.12 21 11.9878C21.0009 11.8556 20.9757 11.7245 20.9258 11.6021C20.8759 11.4797 20.8023 11.3684 20.7092 11.2746ZM15.9994 14.9902C15.8016 14.9902 15.6083 14.9314 15.4438 14.8214C15.2794 14.7113 15.1512 14.5549 15.0755 14.3719C14.9999 14.1889 14.9801 13.9876 15.0186 13.7933C15.0572 13.599 15.1525 13.4206 15.2923 13.2805C15.4322 13.1405 15.6103 13.0451 15.8043 13.0064C15.9983 12.9678 16.1993 12.9876 16.3821 13.0634C16.5648 13.1392 16.7209 13.2676 16.8308 13.4323C16.9407 13.597 16.9993 13.7906 16.9993 13.9887C16.9993 14.2543 16.894 14.509 16.7065 14.6968C16.5189 14.8847 16.2646 14.9902 15.9994 14.9902Z" fill="black"/>
</svg>
