<svg width="24" height="24" viewBox="0 0 24 24" fill="none" xmlns="http://www.w3.org/2000/svg">
<path fill-rule="evenodd" clip-rule="evenodd" d="M9.6316 3.89535H14.3684C14.4941 3.89535 14.6146 3.94525 14.7034 4.03409C14.7922 4.12292 14.8421 4.2434 14.8421 4.36903V6.68481H9.15792V4.36903C9.15792 4.2434 9.20783 4.12292 9.29666 4.03409C9.38549 3.94525 9.50598 3.89535 9.6316 3.89535ZM16.7369 4.36903V6.68481H19.5789C20.9161 6.68481 22 7.76876 22 9.10587V19.5796C22 20.9167 20.9161 22.0006 19.5789 22.0006H4.42105C3.08394 22.0006 2 20.9167 2 19.5796V9.10587C2 7.76876 3.08394 6.68481 4.42105 6.68481H7.26318V4.36903C7.26318 3.74089 7.51271 3.13847 7.95688 2.6943C8.40104 2.25014 9.00346 2.00061 9.6316 2.00061H14.3684C14.9966 2.00061 15.599 2.25014 16.0432 2.6943C16.4873 3.13847 16.7369 3.74089 16.7369 4.36903ZM4.42105 8.68481C4.18851 8.68481 4 8.87333 4 9.10587V19.5796C4 19.8121 4.18851 20.0006 4.42105 20.0006H19.5789C19.8115 20.0006 20 19.8121 20 19.5796V9.10587C20 8.87333 19.8115 8.68481 19.5789 8.68481H4.42105ZM12.9999 11.5006C12.9999 10.9483 12.5522 10.5006 11.9999 10.5006C11.4477 10.5006 10.9999 10.9483 10.9999 11.5006V13.3427H9.15784C8.60555 13.3427 8.15784 13.7904 8.15784 14.3427C8.15784 14.895 8.60555 15.3427 9.15784 15.3427H10.9999V17.1848C10.9999 17.7371 11.4477 18.1848 11.9999 18.1848C12.5522 18.1848 12.9999 17.7371 12.9999 17.1848V15.3427H14.842C15.3943 15.3427 15.842 14.895 15.842 14.3427C15.842 13.7904 15.3943 13.3427 14.842 13.3427H12.9999V11.5006Z" fill="black"/>
</svg>
