<svg width="24" height="24" viewBox="0 0 24 24" fill="none" xmlns="http://www.w3.org/2000/svg">
<path d="M18 6.00061C18 6.60061 17.6 7.00061 17 7.00061C16.4 7.00061 16 6.60061 16 6.00061C16 5.40061 16.4 5.00061 17 5.00061C17.6 5.00061 18 5.40061 18 6.00061Z" fill="black"/>
<path fill-rule="evenodd" clip-rule="evenodd" d="M4 2.00061C3.44772 2.00061 3 2.44833 3 3.00061V21.0006C3 21.5529 3.44772 22.0006 4 22.0006H20C20.5523 22.0006 21 21.5529 21 21.0006V3.00061C21 2.44833 20.5523 2.00061 20 2.00061H4ZM19 4.00061H5V8.00061H19V4.00061ZM5 20.0006V10.0006H19V20.0006H5Z" fill="black"/>
<path d="M10 5.00061H14V7.00061H10V5.00061Z" fill="black"/>
<path fill-rule="evenodd" clip-rule="evenodd" d="M10.7 12.6006C11 12.2006 11.2 11.9006 11.4 11.6006C11.8 11.2006 12 11.0006 12 11.0006C12 11.0006 12.2 11.2006 12.6 11.6006C12.8 11.9006 13.1 12.2006 13.3 12.5006C14.1 13.6006 15 15.0006 15 16.1006C15 17.6006 13.7 18.9006 12 18.9006C10.3 18.9006 9 17.6006 9 16.1006C9 15.1006 9.9 13.7006 10.7 12.6006ZM12 14.2006C11.9 14.4006 11.7 14.6006 11.6 14.8006C11.4 15.2006 11.2 15.5006 11.1 15.8006C11.1 15.9006 11 16.0006 11 16.1006V16.2006C11 16.5006 11.3 17.0006 12 17.0006C12.7 17.0006 13 16.5006 13 16.2006V16.1006C13 16.0006 12.9 15.9006 12.9 15.8006C12.8 15.5006 12.6 15.2006 12.4 14.8006C12.3 14.6006 12.1 14.4006 12 14.2006Z" fill="black"/>
</svg>
