<svg width="24" height="24" viewBox="0 0 24 24" fill="none" xmlns="http://www.w3.org/2000/svg">
<path d="M9 21.0006V22.0006H7V21.0006C6.46957 21.0006 5.96086 20.7899 5.58579 20.4148C5.21071 20.0398 5 19.531 5 19.0006V4.00061C5 3.47018 5.21071 2.96147 5.58579 2.5864C5.96086 2.21132 6.46957 2.00061 7 2.00061H17C17.5304 2.00061 18.0391 2.21132 18.4142 2.5864C18.7893 2.96147 19 3.47018 19 4.00061V19.0006C19 19.531 18.7893 20.0398 18.4142 20.4148C18.0391 20.7899 17.5304 21.0006 17 21.0006V22.0006H15V21.0006H9ZM7 4.00061V9.00061H17V4.00061H7ZM7 19.0006H17V11.0006H7V19.0006ZM8 12.0006H10V15.0006H8V12.0006ZM8 6.00061H10V8.00061H8V6.00061Z" fill="black"/>
</svg>
