<svg width="24" height="24" viewBox="0 0 24 24" fill="none" xmlns="http://www.w3.org/2000/svg">
<path d="M9.07134 18.2606C9.1547 18.2961 9.24412 18.3148 9.33475 18.3158C9.42539 18.3169 9.51535 18.2999 9.59938 18.2661C9.68342 18.2322 9.75991 18.1821 9.82469 18.1186C9.88933 18.0552 9.94091 17.9797 9.97632 17.8962L10.5958 16.4425C10.633 16.3589 10.6531 16.2688 10.6551 16.1774C10.6571 16.0859 10.6408 15.995 10.6073 15.9099C10.5739 15.8248 10.5238 15.7472 10.4599 15.6816C10.3961 15.6161 10.3199 15.5638 10.2358 15.528C10.1517 15.4922 10.0612 15.4734 9.96974 15.4729C9.8783 15.4725 9.78766 15.4901 9.70309 15.5249C9.61852 15.5598 9.54175 15.6111 9.47711 15.676C9.4126 15.7408 9.36156 15.8178 9.32709 15.9025L8.7076 17.3561C8.63595 17.5245 8.63407 17.7142 8.70234 17.8836C8.77049 18.0533 8.90314 18.1888 9.07134 18.2606Z" fill="black"/>
<path d="M10.4264 20.9049C10.5098 20.9404 10.5992 20.9593 10.6899 20.9603C10.7804 20.9613 10.8702 20.9443 10.9542 20.9106C11.0382 20.8768 11.1149 20.8267 11.1795 20.7635C11.2443 20.7002 11.2959 20.6246 11.3314 20.5414L11.9509 19.0882C11.9865 19.0048 12.0052 18.9154 12.0061 18.8249C12.0071 18.7343 11.9902 18.6444 11.9564 18.5604C11.9226 18.4764 11.8727 18.3997 11.8092 18.3351C11.7459 18.2703 11.6705 18.2187 11.5872 18.1832C11.5038 18.1476 11.4144 18.1289 11.3238 18.128C11.2333 18.127 11.1434 18.1439 11.0594 18.1777C10.9754 18.2113 10.8987 18.2614 10.834 18.3249C10.7693 18.3881 10.7177 18.4636 10.6822 18.5469L10.0628 19.9999C10.0273 20.0833 10.0086 20.1728 10.0075 20.2633C10.0065 20.3539 10.0235 20.4438 10.0572 20.5278C10.091 20.6118 10.1409 20.6883 10.2044 20.7531C10.2677 20.8179 10.3432 20.8694 10.4264 20.9049Z" fill="black"/>
<path d="M13.4027 15.4395L12.7832 16.8932C12.746 16.9767 12.7258 17.067 12.7238 17.1584C12.7219 17.2499 12.7381 17.3409 12.7716 17.426C12.8051 17.511 12.8552 17.5887 12.9191 17.6541C12.9828 17.7197 13.059 17.772 13.1431 17.8078C13.2273 17.8435 13.3178 17.8622 13.4093 17.8629C13.5007 17.8634 13.5913 17.8458 13.6759 17.8109C13.7605 17.7759 13.8372 17.7247 13.9017 17.6598C13.9664 17.595 14.0173 17.5181 14.0518 17.4333L14.6713 15.9795C14.7084 15.896 14.7286 15.8058 14.7305 15.7143C14.7325 15.6229 14.7162 15.532 14.6827 15.4469C14.6493 15.3618 14.5992 15.2842 14.5354 15.2186C14.4715 15.153 14.3955 15.1009 14.3113 15.0651C14.2271 15.0293 14.1366 15.0106 14.0452 15.01C13.9537 15.0095 13.8631 15.0271 13.7785 15.062C13.694 15.0969 13.6172 15.1482 13.5526 15.213C13.488 15.2777 13.4373 15.3548 13.4027 15.4395Z" fill="black"/>
<path d="M8.44598 12.9217C8.36262 12.8862 8.2732 12.8673 8.1827 12.8664C8.09207 12.8654 8.00224 12.8823 7.91821 12.9161C7.83418 12.9499 7.75755 12.9998 7.6929 13.0631C7.62813 13.1264 7.57655 13.202 7.541 13.2852L6.92099 14.7384C6.84921 14.9066 6.84733 15.0965 6.91547 15.2663C6.98361 15.436 7.11653 15.5716 7.28474 15.6434C7.45294 15.7152 7.64283 15.7172 7.81263 15.649C7.98231 15.5808 8.11792 15.448 8.18972 15.2796L8.80907 13.826C8.88072 13.6579 8.88274 13.4683 8.81459 13.2988C8.74658 13.1292 8.61394 12.9936 8.44602 12.9217L8.44598 12.9217Z" fill="black"/>
<path d="M17.6614 6.47649C17.2255 5.44964 16.4979 4.57306 15.569 3.95533C14.6401 3.3376 13.5505 3.00563 12.4349 3.00067C11.2865 2.99542 10.1639 3.34125 9.21775 3.99198C8.27157 4.64271 7.54689 5.5671 7.14101 6.64136C6.59844 6.46858 6.02487 6.41525 5.45978 6.48514C4.89469 6.55503 4.35146 6.74654 3.86732 7.0463C3.38332 7.34608 2.96988 7.74712 2.65543 8.22199C2.34111 8.69671 2.1333 9.23391 2.04632 9.79669C1.95932 10.3593 1.99514 10.9342 2.1515 11.4818C2.30771 12.0294 2.58068 12.5366 2.95157 12.9686C3.3226 13.4006 3.7826 13.7471 4.30015 13.9845C4.81784 14.2218 5.38062 14.3443 5.94998 14.3433C6.13286 14.3433 6.30835 14.2707 6.43764 14.1414C6.56692 14.0121 6.63951 13.8367 6.63951 13.6538C6.63951 13.471 6.56692 13.2955 6.43764 13.1662C6.30835 13.037 6.13288 12.9642 5.94998 12.9642C5.55606 12.9653 5.16728 12.8758 4.81363 12.7023C4.45984 12.5289 4.15091 12.2762 3.91068 11.964C3.67029 11.652 3.50518 11.2887 3.42789 10.9024C3.35058 10.5161 3.36338 10.1173 3.46519 9.73675C3.56686 9.35618 3.755 9.00415 4.01466 8.708C4.27444 8.41186 4.59885 8.17956 4.96288 8.02901C5.32701 7.87844 5.72079 7.8138 6.11377 7.84006C6.50686 7.86632 6.88854 7.98268 7.22937 8.18024C7.32283 8.23505 7.42801 8.26683 7.53628 8.27289C7.64442 8.27895 7.75256 8.25916 7.85154 8.21525C7.95093 8.17189 8.0386 8.10576 8.10755 8.02227C8.1765 7.93864 8.22498 7.84006 8.24869 7.73434C8.4554 6.80633 8.96461 5.97326 9.69611 5.36618C10.4278 4.75896 11.3404 4.41217 12.2907 4.38011C13.2409 4.3482 14.1748 4.63289 14.9457 5.18949C15.7165 5.74596 16.2804 6.54294 16.5491 7.45506C16.5991 7.62824 16.7153 7.7749 16.8726 7.86297C17.03 7.95105 17.2156 7.97353 17.3894 7.92573C17.7421 7.83065 18.1109 7.81206 18.4712 7.87119C18.8316 7.93031 19.1752 8.06578 19.479 8.26834C19.7828 8.47102 20.0397 8.73632 20.2326 9.04632C20.4257 9.35633 20.55 9.70405 20.5978 10.066C20.6455 10.428 20.6153 10.7961 20.5092 11.1455C20.4032 11.495 20.2237 11.8177 19.9827 12.0921C19.7418 12.3665 19.445 12.5862 19.1122 12.7367C18.7795 12.8871 18.4184 12.9648 18.0533 12.9642H10.1994C10.0166 12.9642 9.8412 13.037 9.71191 13.1663C9.5825 13.2955 9.50991 13.471 9.50991 13.6538C9.50991 13.8367 9.5825 14.0121 9.71191 14.1414C9.8412 14.2707 10.0165 14.3433 10.1994 14.3433H18.0561C18.5906 14.3434 19.1196 14.2349 19.6108 14.0241C20.1021 13.8135 20.5454 13.5051 20.9139 13.1178C21.2823 12.7305 21.5682 12.2724 21.754 11.7712C21.9397 11.27 22.0218 10.7363 21.995 10.2024C21.9682 9.66863 21.8333 9.1457 21.5982 8.66573C21.363 8.18563 21.0327 7.75848 20.6275 7.40993C20.2221 7.06141 19.7502 6.79906 19.2402 6.63854C18.7305 6.47815 18.1933 6.42306 17.6615 6.47653L17.6614 6.47649Z" fill="black"/>
</svg>
