<svg width="24" height="24" viewBox="0 0 24 24" fill="none" xmlns="http://www.w3.org/2000/svg">
<path fill-rule="evenodd" clip-rule="evenodd" d="M5.81062 3.81879V20.1824H18.1894V3.81879H5.81062ZM4 3.81879C4 2.8324 4.78486 2.00061 5.79215 2.00061H18.2079C19.2151 2.00061 20 2.8324 20 3.81879V20.1824C20 21.1688 19.2151 22.0006 18.2079 22.0006H5.79215C4.78486 22.0006 4 21.1688 4 20.1824V3.81879Z" fill="black"/>
<path fill-rule="evenodd" clip-rule="evenodd" d="M4 8.137C4 7.63492 4.40532 7.22791 4.90531 7.22791H19.0947C19.5947 7.22791 20 7.63492 20 8.137C20 8.63907 19.5947 9.04609 19.0947 9.04609H4.90531C4.40532 9.04609 4 8.63907 4 8.137Z" fill="black"/>
<path d="M13.7737 6.54609C14.2635 6.54609 14.6605 6.13907 14.6605 5.637C14.6605 5.13492 14.2635 4.72791 13.7737 4.72791C13.2839 4.72791 12.8868 5.13492 12.8868 5.637C12.8868 6.13907 13.2839 6.54609 13.7737 6.54609Z" fill="black"/>
<path d="M16.4342 6.54609C16.924 6.54609 17.321 6.13907 17.321 5.637C17.321 5.13492 16.924 4.72791 16.4342 4.72791C15.9444 4.72791 15.5474 5.13492 15.5474 5.637C15.5474 6.13907 15.9444 6.54609 16.4342 6.54609Z" fill="black"/>
<path fill-rule="evenodd" clip-rule="evenodd" d="M12.0001 12.4551C10.8033 12.4551 9.80147 13.4549 9.80147 14.7279C9.80147 16.0008 10.8033 17.0006 12.0001 17.0006C13.1968 17.0006 14.1987 16.0008 14.1987 14.7279C14.1987 13.4549 13.1968 12.4551 12.0001 12.4551ZM7.99084 14.7279C7.99084 12.4863 9.76833 10.637 12.0001 10.637C14.2318 10.637 16.0093 12.4863 16.0093 14.7279C16.0093 16.9695 14.2318 18.8188 12.0001 18.8188C9.76833 18.8188 7.99084 16.9695 7.99084 14.7279Z" fill="black"/>
</svg>
