<svg width="24" height="24" viewBox="0 0 24 24" fill="none" xmlns="http://www.w3.org/2000/svg">
<path fill-rule="evenodd" clip-rule="evenodd" d="M12.6015 2.12521C12.2179 1.95908 11.7821 1.95908 11.3985 2.12521L6.71259 4.15423C5.67508 4.60348 5.48507 5.98797 6.36349 6.69794L7.28377 7.44176C7.13111 7.69351 7.02701 7.99329 7.02701 8.33729C7.02701 8.73842 7.16854 9.07941 7.36358 9.35424C7.24047 9.77854 7.17445 10.2268 7.17445 10.6899C7.17445 11.7654 7.52927 12.7583 8.12869 13.559C5.97523 13.6953 4.19169 15.3225 3.88998 17.477L3.5 22.0006H5.54412L5.88196 17.7536C6.03186 16.6831 6.83444 15.845 7.85553 15.6152L8.58387 16.9608C8.87953 17.5071 9.59657 17.6594 10.0904 17.2805L10.9944 16.5869L10.9944 22.0006H13.0056L13.0057 16.5869L13.9097 17.2805C14.4035 17.6594 15.1205 17.5071 15.4162 16.9608L16.1445 15.6152C17.1656 15.845 17.9682 16.6831 18.1181 17.7536L18.4559 22.0006H20.5L20.1101 17.477C19.8084 15.3225 18.0248 13.6953 15.8714 13.559C16.4708 12.7583 16.8256 11.7654 16.8256 10.6899C16.8256 10.2268 16.7596 9.77854 16.6365 9.35424C16.8315 9.07941 16.973 8.73842 16.973 8.33729C16.973 7.99327 16.8689 7.69348 16.7163 7.44172L17.6365 6.69794C18.5149 5.98797 18.3249 4.60348 17.2874 4.15423L12.6015 2.12521ZM8.96642 6.2223C9.80966 5.91046 10.8753 5.73894 12 5.73894C13.1247 5.73894 14.1904 5.91045 15.0336 6.22229L15.7265 5.66225L12 4.04865L8.2735 5.66225L8.96642 6.2223ZM9.19019 10.5301C9.18721 10.5829 9.1857 10.6363 9.1857 10.6899C9.1857 12.2377 10.4457 13.4924 12 13.4924C13.5543 13.4924 14.8144 12.2377 14.8144 10.6899C14.8144 10.6363 14.8128 10.5829 14.8099 10.5301C14.0056 10.7925 13.0274 10.9357 12 10.9357C10.9726 10.9357 9.9945 10.7925 9.19019 10.5301ZM14.8275 8.33729C14.7348 8.27689 14.6044 8.20724 14.4285 8.13645C13.8574 7.90657 12.9993 7.74169 12 7.74169C11.0008 7.74169 10.1426 7.90657 9.57154 8.13645C9.39569 8.20724 9.26526 8.27689 9.17259 8.33729C9.26526 8.3977 9.39569 8.46735 9.57154 8.53814C10.1426 8.76802 11.0008 8.9329 12 8.9329C12.9993 8.9329 13.8574 8.76802 14.4285 8.53814C14.6044 8.46735 14.7348 8.3977 14.8275 8.33729Z" fill="black"/>
<path fill-rule="evenodd" clip-rule="evenodd" d="M13.7959 20.0596C13.7959 19.5066 14.2461 19.0582 14.8015 19.0582H16.4451C17.0005 19.0582 17.4507 19.5066 17.4507 20.0596C17.4507 20.6126 17.0005 21.061 16.4451 21.061H14.8015C14.2461 21.061 13.7959 20.6126 13.7959 20.0596Z" fill="black"/>
</svg>
