<svg width="24" height="24" viewBox="0 0 24 24" fill="none" xmlns="http://www.w3.org/2000/svg">
<path fill-rule="evenodd" clip-rule="evenodd" d="M4.51908 13.4264C3.80473 14.2186 3.22312 14.9674 2.81346 15.567C2.50248 16.0222 1.88359 16.1376 1.43112 15.8247C0.978659 15.5119 0.863957 14.8894 1.17493 14.4342C1.64591 13.7449 2.30851 12.8938 3.12075 12.0006C2.30851 11.1074 1.64591 10.2564 1.17493 9.56702C0.863957 9.11187 0.978659 8.48931 1.43112 8.17649C1.88359 7.86367 2.50248 7.97905 2.81346 8.4342C3.22312 9.03379 3.80473 9.78266 4.51908 10.5748C5.0108 10.1105 5.53613 9.65156 6.0894 9.21421C8.27035 7.49021 11.0135 6.00061 13.9234 6.00061C14.9169 6.00061 15.8221 6.11436 16.644 6.31603M4.51908 13.4264C5.0108 13.8907 5.53613 14.3497 6.0894 14.787C8.27035 16.511 11.0135 18.0006 13.9234 18.0006C14.917 18.0006 15.8224 17.8868 16.6443 17.6851C18.6493 17.1936 20.1823 15.8425 21.1792 14.701C21.6856 14.1211 22.0747 13.5711 22.3382 13.1649C22.4703 12.9612 22.5718 12.7922 22.6416 12.6715C22.6765 12.6112 22.7036 12.5628 22.7226 12.5282L22.7452 12.4867L22.7519 12.474L22.7542 12.4697L22.755 12.4682C22.7551 12.4679 22.7556 12.4669 21.8762 12.0006L22.7556 12.4669L23 12.0006L22.7556 11.5343L21.8762 12.0006C22.7556 11.5343 22.7558 11.5346 22.7556 11.5343L22.755 11.5331L22.7542 11.5315L22.7519 11.5272L22.7452 11.5146L22.7226 11.4731C22.7036 11.4384 22.6765 11.3901 22.6416 11.3297C22.5718 11.2091 22.4703 11.04 22.3382 10.8363C22.0747 10.4301 21.6856 9.88016 21.1792 9.30025C20.1823 8.15873 18.649 6.80753 16.644 6.31603M20.719 12.0006C20.7042 11.9775 20.6889 11.9537 20.6731 11.9292C20.4488 11.5834 20.116 11.1132 19.6855 10.6202C18.8085 9.61605 17.6078 8.61075 16.1734 8.25919C15.6883 8.14016 15.157 8.05659 14.5763 8.02054L14.3677 8.52094C13.4401 10.7469 13.4401 13.2543 14.3677 15.4803L14.5763 15.9807C15.157 15.9446 15.688 15.8611 16.1731 15.7421C17.6075 15.3905 18.8085 14.3852 19.6855 13.381C20.116 12.888 20.4488 12.4178 20.6731 12.072C20.6889 12.0476 20.7042 12.0237 20.719 12.0006ZM12.3656 15.8241C10.6193 15.4384 8.88701 14.4548 7.31786 13.2145C6.82456 12.8245 6.35491 12.4151 5.91421 12.0006C6.35491 11.5861 6.82456 11.1767 7.31786 10.7868C8.88701 9.54638 10.6193 8.56286 12.3656 8.17715C11.4565 10.6438 11.4565 13.3574 12.3656 15.8241ZM20.9976 11.5329C20.9977 11.5327 20.9977 11.5326 20.9976 11.5329Z" fill="black"/>
<path d="M16.0027 12.8537C16.2276 13.0799 16.5326 13.207 16.8507 13.207C17.1688 13.207 17.4738 13.0799 17.6987 12.8537C17.9236 12.6274 18.05 12.3206 18.05 12.0006C18.05 11.6806 17.9236 11.3738 17.6987 11.1475C17.4738 10.9213 17.1688 10.7942 16.8507 10.7942C16.5326 10.7942 16.2276 10.9213 16.0027 11.1475C15.7777 11.3738 15.6514 11.6806 15.6514 12.0006C15.6514 12.3206 15.7777 12.6274 16.0027 12.8537Z" fill="black"/>
</svg>
