<svg width="24" height="24" viewBox="0 0 24 24" fill="none" xmlns="http://www.w3.org/2000/svg">
<path fill-rule="evenodd" clip-rule="evenodd" d="M17.3127 3.57236C17.3127 3.11341 16.9995 2.71154 16.5521 2.60934C12.7045 1.73049 10.3677 1.87116 7.44484 2.59843C7.00657 2.70748 6.70374 3.10501 6.70374 3.55664V8.81318C6.68809 8.98871 6.68006 9.16917 6.68006 9.35452C6.68006 12.0266 7.80684 13.8482 9.34589 14.7886C9.33754 15.0601 9.29972 15.2937 9.1816 15.4995C9.0522 15.725 8.8127 15.9401 8.34781 16.1227L5.83656 17.1158C4.42451 17.6742 3.60851 18.0775 3.16975 18.775C2.9495 19.1251 2.83088 19.5379 2.76609 20.056C2.70152 20.5724 2.68921 21.2054 2.68921 22.0006H4.68206C4.68206 21.3517 4.68219 20.8756 4.71092 20.5092C4.73966 20.1427 4.79597 19.9062 4.89579 19.7286C4.99328 19.5551 5.1419 19.4209 5.3912 19.2795C5.64082 19.1378 5.97539 18.9974 6.43757 18.8035L6.45994 18.7941L8.90423 17.7573C9.43965 17.5331 10.0412 17.2741 10.5082 16.8999C10.8461 16.6292 11.1192 16.2936 11.2499 15.8642V21.9932H12.7499V15.8643C12.8806 16.2936 13.1538 16.6292 13.4916 16.8999C13.9587 17.2741 14.5599 17.533 15.0954 17.7572L17.5393 18.7939C18.0128 18.9926 18.3547 19.1364 18.6082 19.2812C18.8573 19.4237 19.0062 19.5592 19.1039 19.7338C19.2039 19.9125 19.2602 20.1497 19.2889 20.5154C19.3176 20.8811 19.3178 21.3554 19.3178 22.0006H21.3106C21.3106 21.2054 21.2983 20.5724 21.2337 20.056C21.169 19.5379 21.0503 19.1251 20.8301 18.775C20.3913 18.0775 19.5753 17.6742 18.1633 17.1158L15.6524 16.1229C15.1875 15.9402 14.9476 15.725 14.8182 15.4995C14.7001 15.2937 14.6623 15.0601 14.6539 14.7886C16.193 13.8482 17.3198 12.0266 17.3198 9.35452C17.3198 9.2533 17.3174 9.15354 17.3127 9.05525V3.57236ZM8.70374 4.3583V6.79645C9.8804 6.5096 11.0101 6.34944 12.1489 6.34362C13.2222 6.33813 14.2601 6.46971 15.3127 6.72629V4.38847C12.5875 3.8421 10.7775 3.91097 8.70374 4.3583ZM15.2823 8.78558C13.0593 8.16305 11.1162 8.20651 8.70374 8.86179L8.70173 8.86233C8.68279 9.01955 8.67292 9.1836 8.67292 9.35452C8.67292 12.2402 10.3636 13.6327 12.0003 13.6361C13.6361 13.6395 15.3269 12.255 15.3269 9.35452C15.3269 9.15497 15.3106 8.96488 15.2823 8.78558Z" fill="black"/>
<path d="M17.1259 20.3323C17.1259 20.8943 16.6704 21.3498 16.1085 21.3498C15.5465 21.3498 15.091 20.8943 15.091 20.3323C15.091 19.7704 15.5465 19.3148 16.1085 19.3148C16.6704 19.3148 17.1259 19.7704 17.1259 20.3323Z" fill="black"/>
</svg>
