<svg width="24" height="24" viewBox="0 0 24 24" fill="none" xmlns="http://www.w3.org/2000/svg">
<path fill-rule="evenodd" clip-rule="evenodd" d="M15.9796 16.7545C15.9796 18.2802 14.927 19.5601 13.5084 19.9075L13.5084 13.6014C14.927 13.9489 15.9796 15.2288 15.9796 16.7545ZM15.7927 12.4922C17.1171 13.4445 17.9796 14.9988 17.9796 16.7545C17.9796 19.6518 15.6308 22.0006 12.7334 22.0006L12.5869 22.0006C11.9912 22.0006 11.5084 21.5177 11.5084 20.9221L11.5084 15.7932C10.5561 17.1176 9.00183 17.98 7.24612 17.98C4.34877 17.98 2 15.6313 2 12.7339L2 12.5874C2 11.9917 2.48287 11.5088 3.07853 11.5088L8.20719 11.5088C6.88287 10.5566 6.02045 9.00234 6.02045 7.24667C6.02045 4.34932 8.36922 2.00054 11.2666 2.00054L11.4131 2.00054C12.0088 2.00054 12.4916 2.48342 12.4916 3.07907L12.4916 8.20788C13.4439 6.88352 14.9982 6.02105 16.7539 6.02105C19.6512 6.02105 22 8.36982 22 11.2672L22 11.4137C22 12.0094 21.5171 12.4922 20.9215 12.4922L15.7927 12.4922ZM8.02045 7.24667C8.02045 8.77238 9.07303 10.0522 10.4916 10.3997L10.4916 4.09362C9.07303 4.44109 8.02045 5.72096 8.02045 7.24667ZM4.09307 13.5088C4.44054 14.9275 5.72041 15.98 7.24612 15.98C8.77183 15.98 10.0517 14.9275 10.3992 13.5088L4.09307 13.5088ZM16.7539 8.02105C15.2282 8.02105 13.9483 9.07363 13.6008 10.4922L19.9069 10.4922C19.5595 9.07363 18.2796 8.02105 16.7539 8.02105Z" fill="black"/>
</svg>
