<svg width="24" height="24" viewBox="0 0 24 24" fill="none" xmlns="http://www.w3.org/2000/svg">
<path d="M9 21.0006C9 21.5529 9.44772 22.0006 10 22.0006H16C16.5523 22.0006 17 21.5529 17 21.0006V19.5006C19.41 17.8706 21 15.1206 21 12.0006V4.00061C21 3.47018 20.7893 2.96147 20.4142 2.5864C20.0391 2.21132 19.5304 2.00061 19 2.00061H15C14.4696 2.00061 13.9609 2.21132 13.5858 2.5864C13.2107 2.96147 13 3.47018 13 4.00061V12.0006H4C3.44772 12.0006 2.99242 12.4506 3.07048 12.9974C3.45701 15.7048 5.43351 18.1632 9 19.5006V21.0006ZM5.29 14.0006H18.71C18.4291 14.9418 17.9537 15.8136 17.3146 16.5594C16.6756 17.3053 15.887 17.9087 15 18.3306V20.0006H11V18.3306C9 18.0006 5.86 15.9106 5.29 14.0006ZM15 4.00061H19V12.0006H15V4.00061ZM16 5.00061V8.00061H18V5.00061H16Z" fill="black"/>
</svg>
