<svg width="24" height="24" viewBox="0 0 24 24" fill="none" xmlns="http://www.w3.org/2000/svg">
<path d="M20.1857 13.3308L16.9995 14.2051L16.1368 13.6973L16.1369 13.6971C16.2383 13.4994 16.2318 13.262 16.1199 13.0702C16.0081 12.8785 15.8068 12.7597 15.5881 12.7564C15.3695 12.7531 15.1649 12.8659 15.0475 13.0543L13.2593 12L15.0412 10.9522C15.1586 11.1405 15.3632 11.2533 15.5818 11.2501C15.8005 11.2468 16.0017 11.128 16.1136 10.9362C16.2255 10.7445 16.232 10.5071 16.1306 10.3094L16.9933 9.80158L20.1857 10.6693C20.3489 10.7204 20.5256 10.7017 20.675 10.6173C20.8244 10.533 20.9339 10.3903 20.9783 10.222C21.0227 10.0537 20.9983 9.87417 20.9106 9.72451C20.8229 9.57499 20.6795 9.46822 20.5132 9.42862L18.5424 8.88865L19.4051 8.38083H19.405C19.5571 8.29961 19.6701 8.15856 19.7179 7.99023C19.7657 7.82205 19.7442 7.64111 19.6583 7.48942C19.5724 7.33775 19.4296 7.2284 19.2629 7.18679C19.0962 7.14503 18.9201 7.17459 18.7753 7.26858L17.9126 7.77641L18.4415 5.76433C18.4914 5.54579 18.426 5.31649 18.269 5.15934C18.112 5.00219 17.8862 4.94008 17.6731 4.99547C17.46 5.05072 17.2907 5.21545 17.2263 5.42997L16.3699 8.68288L15.5072 9.1907H15.5073C15.3899 9.00244 15.1853 8.88965 14.9668 8.8928C14.7481 8.89611 14.5468 9.01492 14.4349 9.20677C14.323 9.39849 14.3166 9.63584 14.4179 9.83354L12.6297 10.8879V8.78572C12.8547 8.78572 13.0626 8.66318 13.175 8.46429C13.2874 8.2654 13.2874 8.02031 13.175 7.82143C13.0626 7.62255 12.8547 7.5 12.6297 7.5V6.47789L14.9658 4.09284C15.1045 3.92739 15.1519 3.7014 15.0913 3.4923C15.0309 3.28337 14.8708 3.11992 14.6662 3.05824C14.4614 2.99639 14.24 3.04475 14.0779 3.18638L12.6297 4.66496V3.64285C12.6297 3.41311 12.5096 3.20089 12.3148 3.0861C12.12 2.9713 11.88 2.9713 11.6852 3.0861C11.4904 3.20089 11.3703 3.41312 11.3703 3.64285V4.66496L9.92839 3.18638C9.7662 3.04475 9.54483 2.99639 9.34017 3.05824C9.13552 3.11994 8.97542 3.28339 8.91501 3.4923C8.85443 3.70137 8.90166 3.92739 9.04052 4.09284L11.3703 6.47789V7.5C11.1453 7.5 10.9374 7.62254 10.825 7.82143C10.7126 8.02032 10.7126 8.26541 10.825 8.46429C10.9374 8.66317 11.1453 8.78572 11.3703 8.78572V10.8879L9.58842 9.84016V9.84001C9.68975 9.64228 9.68329 9.40493 9.57141 9.2131C9.45953 9.02138 9.25826 8.90257 9.03957 8.89927C8.82101 8.89597 8.61635 9.00876 8.49901 9.19717L7.63629 8.68935L6.78003 5.42997C6.74124 5.26022 6.63667 5.11385 6.49021 5.02431C6.34362 4.93477 6.16779 4.9098 6.00291 4.95514C5.83804 5.00049 5.69834 5.11227 5.61568 5.26481C5.53302 5.41735 5.51462 5.59772 5.56466 5.76433L6.09355 7.77641L5.22467 7.26212C5.0799 7.16813 4.90379 7.13857 4.73708 7.18033C4.57039 7.22194 4.42759 7.33128 4.34172 7.48296C4.25584 7.63463 4.23434 7.81558 4.28213 7.98376C4.32991 8.15208 4.44292 8.29314 4.595 8.37437L5.45773 8.88219L3.48677 9.42862C3.32049 9.46822 3.17713 9.57499 3.08942 9.72451C3.00172 9.87417 2.97726 10.0537 3.02168 10.222C3.06609 10.3903 3.17558 10.533 3.32499 10.6173C3.4744 10.7017 3.65107 10.7204 3.81427 10.6693L7.00047 9.79497L7.8632 10.3028L7.86305 10.3029C7.76172 10.5007 7.76818 10.738 7.88006 10.9299C7.99194 11.1216 8.19321 11.2404 8.4119 11.2437C8.63046 11.247 8.83512 11.1342 8.95246 10.9458L10.7407 12L8.95879 13.0478C8.84143 12.8596 8.63678 12.7468 8.41824 12.7499C8.19954 12.7532 7.99826 12.872 7.88639 13.0639C7.77451 13.2556 7.76805 13.493 7.86939 13.6907L7.00666 14.1985L3.81427 13.3308C3.60021 13.2798 3.37562 13.3466 3.22169 13.5068C3.06776 13.6671 3.00692 13.8977 3.06118 14.1152C3.11529 14.3328 3.27665 14.5057 3.48677 14.5714L5.45759 15.1114L4.59486 15.6192H4.595C4.41045 15.739 4.29998 15.948 4.30321 16.1711C4.30644 16.3944 4.42282 16.5998 4.6106 16.7141C4.79852 16.8283 5.03101 16.8349 5.22466 16.7314L6.08739 16.2236L5.5585 18.2357C5.50846 18.4023 5.52673 18.5826 5.60938 18.7352C5.69202 18.8877 5.83173 18.9995 5.99661 19.0449C6.16148 19.0902 6.33731 19.0652 6.48391 18.9757C6.63036 18.8861 6.73494 18.7398 6.77373 18.57L7.63013 15.3171L8.49285 14.8093H8.49271C8.61008 14.9976 8.81472 15.1104 9.03326 15.1072C9.25196 15.1039 9.45324 14.9851 9.56511 14.7932C9.67699 14.6015 9.68345 14.3642 9.58211 14.1665L11.3704 13.1121V15.2143C11.1453 15.2143 10.9375 15.3368 10.825 15.5357C10.7126 15.7346 10.7126 15.9797 10.825 16.1786C10.9375 16.3775 11.1453 16.5 11.3704 16.5V17.5221L9.03422 19.9072C8.8955 20.0726 8.84813 20.2986 8.90871 20.5077C8.96915 20.7166 9.12924 20.8801 9.33387 20.9418C9.53865 21.0036 9.76003 20.9552 9.92209 20.8136L11.3704 19.335V20.3571C11.3704 20.5869 11.4904 20.7991 11.6852 20.9139C11.88 21.0287 12.1201 21.0287 12.3149 20.9139C12.5097 20.7991 12.6297 20.5869 12.6297 20.3571V19.335L14.0716 20.8072C14.2338 20.9489 14.4552 20.9971 14.6599 20.9353C14.8645 20.8736 15.0246 20.7101 15.085 20.5012C15.1456 20.2923 15.0984 20.0663 14.9595 19.9007L12.6297 17.5221V16.5C12.8547 16.5 13.0626 16.3775 13.175 16.1786C13.2875 15.9797 13.2875 15.7346 13.175 15.5357C13.0626 15.3368 12.8547 15.2143 12.6297 15.2143V13.1121L14.4116 14.1598V14.16C14.3103 14.3577 14.3167 14.5951 14.4286 14.7869C14.5405 14.9786 14.7418 15.0974 14.9605 15.1007C15.179 15.104 15.3837 14.9912 15.501 14.8028L16.3637 15.3107L17.2201 18.5636H17.22C17.257 18.7038 17.3392 18.8272 17.4536 18.9135C17.5679 18.9999 17.7076 19.0443 17.8497 19.0392C17.9041 19.0466 17.959 19.0466 18.0134 19.0392C18.1744 18.9955 18.3118 18.8884 18.3956 18.7414C18.4795 18.5944 18.5027 18.4195 18.4605 18.2549L17.9316 16.2428L18.7944 16.7507H18.7942C18.988 16.8541 19.2204 16.8477 19.4083 16.7334C19.5962 16.6192 19.7126 16.4136 19.7157 16.1905C19.7189 15.9672 19.6084 15.7582 19.4239 15.6386L18.5611 15.1308L20.5133 14.5714C20.7234 14.5057 20.8848 14.3328 20.9389 14.1152C20.9931 13.8977 20.9323 13.6671 20.7784 13.5068C20.6245 13.3466 20.3998 13.2798 20.1858 13.3308L20.1857 13.3308Z" fill="black"/>
</svg>
