<svg width="24" height="24" viewBox="0 0 24 24" fill="none" xmlns="http://www.w3.org/2000/svg">
<path fill-rule="evenodd" clip-rule="evenodd" d="M9.27373 16.0111C9.36536 16.5559 8.99813 17.0719 8.4535 17.1636C7.24148 17.3676 6.28305 17.6752 5.65699 18.0078C5.343 18.1746 5.15557 18.3252 5.05803 18.4347C5.04449 18.4499 5.03363 18.4632 5.02498 18.4745C5.0564 18.5137 5.11604 18.5753 5.2262 18.6574C5.50608 18.8661 5.97477 19.0963 6.64375 19.3073C7.97 19.7255 9.8639 19.9999 12 19.9999C14.1361 19.9999 16.03 19.7255 17.3562 19.3073C18.0252 19.0963 18.4939 18.8661 18.7738 18.6574C18.8807 18.5778 18.94 18.5174 18.9721 18.4781C18.9624 18.4663 18.9502 18.4526 18.9351 18.437C18.8225 18.3205 18.6082 18.1638 18.2536 17.9941C17.5478 17.6563 16.4786 17.3572 15.1447 17.1675C14.5979 17.0898 14.2176 16.5833 14.2954 16.0363C14.3731 15.4893 14.8793 15.1089 15.4261 15.1866C16.872 15.3922 18.1601 15.7314 19.1167 16.1892C19.5932 16.4172 20.0363 16.6977 20.3734 17.0468C20.7148 17.4003 21 17.8834 21 18.4778C21 19.2886 20.4802 19.8805 19.9688 20.2618C19.4391 20.6567 18.7362 20.97 17.9574 21.2155C16.3883 21.7103 14.2822 22.0007 12 22.0007C9.71782 22.0007 7.61171 21.7103 6.04253 21.2155C5.26381 20.97 4.56092 20.6567 4.03116 20.2618C3.51974 19.8805 3 19.2886 3 18.4778C3 17.9183 3.2535 17.4531 3.56496 17.1035C3.87308 16.7576 4.27962 16.4742 4.71892 16.2408C5.59942 15.773 6.78478 15.4156 8.12167 15.1905C8.6663 15.0989 9.18209 15.4662 9.27373 16.0111ZM19.0086 18.5316C19.0084 18.5316 19.0077 18.5301 19.0067 18.5272C19.0082 18.5302 19.0087 18.5316 19.0086 18.5316ZM19.006 18.4283C19.0069 18.4254 19.0075 18.424 19.0076 18.424C19.0077 18.424 19.0073 18.4254 19.006 18.4283ZM4.99237 18.424C4.99248 18.424 4.99315 18.4254 4.99404 18.4283C4.99271 18.4254 4.99227 18.424 4.99237 18.424ZM4.99457 18.5216C4.99382 18.524 4.99328 18.5252 4.99319 18.5252C4.9931 18.5252 4.99348 18.524 4.99457 18.5216Z" fill="black"/>
<path fill-rule="evenodd" clip-rule="evenodd" d="M11.2258 2.15999C11.5116 1.97583 11.8713 1.94952 12.1809 2.09015L19.8844 5.59025C20.2326 5.74847 20.4601 6.09153 20.4705 6.47401C20.4808 6.85648 20.2722 7.21137 19.9331 7.38823L12.7673 11.125V18.0355C12.7673 18.588 12.3196 19.0359 11.7673 19.0359C11.215 19.0359 10.7673 18.588 10.7673 18.0355V3.00101C10.7673 2.66094 10.94 2.34415 11.2258 2.15999ZM12.7673 8.86864L17.1888 6.56299L12.7673 4.55411V8.86864Z" fill="black"/>
</svg>
