<svg width="24" height="24" viewBox="0 0 24 24" fill="none" xmlns="http://www.w3.org/2000/svg">
<path d="M12.8926 2.00061H10.9091C9.81818 2.00061 8.92562 2.90061 8.92562 4.00061V5.40061C7.73554 5.90061 6.7438 7.20061 6.54545 8.70061L6.24793 11.2006L3.66942 12.2006C3.3719 12.3006 3.17355 12.5006 3.07438 12.8006C2.97521 13.0006 2.97521 13.3006 3.07438 13.6006L5.75207 19.0006C5.2562 19.1006 4.95868 19.5006 4.95868 20.0006C4.95868 20.6006 5.35537 21.0006 5.95041 21.0006C6.44628 21.0006 6.54545 21.1006 6.94215 21.3006V21.4006C7.43802 21.7006 7.93388 22.0006 8.92562 22.0006C10.0165 22.0006 10.5124 21.6006 11.0083 21.3006C11.3058 21.1006 11.5041 21.0006 11.9008 21.0006C12.3967 21.0006 12.4959 21.1006 12.8926 21.3006C13.2893 21.6006 13.8843 22.0006 14.9752 22.0006C15.9669 22.0006 16.4628 21.7006 16.9587 21.4006L17.0579 21.3006C17.3554 21.1006 17.5537 21.0006 18.0496 21.0006C18.6446 21.0006 19.0413 20.6006 19.0413 20.0006C19.0413 19.5006 18.7438 19.2006 18.2479 19.0006L20.9256 13.6006C21.0248 13.3006 21.0248 13.1006 20.9256 12.8006C20.8264 12.5006 20.6281 12.3006 20.3306 12.2006L17.7521 11.2006L17.4545 8.70061C17.2562 7.10061 16.2645 5.90061 15.0744 5.30061V4.00061C14.876 2.90061 13.9835 2.00061 12.8926 2.00061ZM10.9091 4.00061H12.8926V5.00061H10.9091V4.00061ZM16.3636 12.8006L18.5455 13.6006L15.5702 19.8006C15.2727 19.9006 15.1736 20.0006 14.876 20.0006C14.4793 20.0006 14.281 19.9006 13.9835 19.6006C13.5868 19.3006 12.9917 18.8006 11.9008 18.8006C10.8099 18.8006 10.2149 19.2006 9.81818 19.6006C9.52066 19.9006 9.32231 20.0006 8.92562 20.0006C8.6281 20.0006 8.52893 19.9006 8.33058 19.8006L5.35537 13.6006L7.43802 12.8006L10.9091 11.4006V17.0006C10.9091 17.6006 11.3058 18.0006 11.9008 18.0006C12.4959 18.0006 12.8926 17.6006 12.8926 17.0006V11.5006L16.3636 12.8006ZM15.2727 9.00061L15.4711 10.3006L12.2975 9.00061C12.0992 8.90061 11.8017 8.90061 11.6033 9.00061L8.42975 10.3006L8.52893 9.00061C8.72727 7.80061 9.52066 7.00061 10.5124 7.00061H13.3884C14.281 7.00061 15.1736 7.80061 15.2727 9.00061Z" fill="black"/>
</svg>
