<svg width="24" height="24" viewBox="0 0 24 24" fill="none" xmlns="http://www.w3.org/2000/svg">
<path d="M17.2427 9.57127C17.2427 10.1236 16.7949 10.5713 16.2427 10.5713C15.6904 10.5713 15.2427 10.1236 15.2427 9.57127L15.2427 7.286L12.9573 7.28601C12.405 7.28601 11.9573 6.83829 11.9573 6.28601C11.9573 5.73372 12.405 5.28601 12.9573 5.28601L15.2427 5.286L15.2427 3.00061C15.2427 2.44833 15.6904 2.00061 16.2427 2.00061C16.795 2.00061 17.2427 2.44833 17.2427 3.00061L17.2427 5.286L19.5279 5.286C20.0802 5.286 20.5279 5.73371 20.5279 6.286C20.5279 6.83828 20.0802 7.286 19.5279 7.286L17.2427 7.286L17.2427 9.57127Z" fill="black"/>
<path fill-rule="evenodd" clip-rule="evenodd" d="M3 6.80057C3.55228 6.80057 4 7.24829 4 7.80057V13.4005H5.58987C5.18152 13.2746 4.88476 12.8943 4.88476 12.4447C4.88476 11.8924 5.33248 11.4447 5.88476 11.4447H9.48476C10.037 11.4447 10.4848 11.8924 10.4848 12.4447C10.4848 12.8943 10.188 13.2746 9.77965 13.4005H20V12.6006C20 12.0483 20.4477 11.6006 21 11.6006C21.5523 11.6006 22 12.0483 22 12.6006V21.0006C22 21.5528 21.5523 22.0006 21 22.0006C20.4477 22.0006 20 21.5528 20 21.0006V19.0007H4V21.0006C4 21.5529 3.55228 22.0006 3 22.0006C2.44772 22.0006 2 21.5529 2 21.0006V7.80057C2 7.24829 2.44772 6.80057 3 6.80057ZM4 17.0007H20V15.4005H4V17.0007Z" fill="black"/>
</svg>
