<svg width="24" height="24" viewBox="0 0 24 24" fill="none" xmlns="http://www.w3.org/2000/svg">
<path fill-rule="evenodd" clip-rule="evenodd" d="M11.8604 1.81531C8.7893 1.81531 6.24062 4.0514 5.76543 6.96829H4.9377C3.91458 6.96829 3.08264 7.79303 3.08264 8.8094V10.5271C3.08264 11.5425 3.91454 12.3682 4.9377 12.3682H7.65809V7.95057C7.65809 5.65096 9.54335 3.77988 11.8604 3.77988C14.1774 3.77988 16.0626 5.65096 16.0626 7.95057V12.3682H18.783C19.8062 12.3682 20.6381 11.5425 20.6381 10.5271V8.8094C20.6381 7.79303 19.8062 6.96829 18.783 6.96829H17.9553C17.4793 4.05144 14.9315 1.81531 11.8604 1.81531ZM5.06209 10.4036V8.93286H5.67864V10.4036H5.06209ZM18.0421 10.4036V8.93286H18.6587L18.6595 10.4036H18.0421Z" fill="black"/>
<path d="M11.8604 12.9801C9.54979 12.9801 7.58571 14.4517 6.85401 16.4976L6.79509 16.6623H8.94737L8.98335 16.601C9.56211 15.6138 10.6318 14.9447 11.8604 14.9447C13.089 14.9447 14.1586 15.6138 14.7374 16.601L14.7734 16.6623H16.9257L16.8667 16.4976C16.135 14.4517 14.171 12.9801 11.8604 12.9801Z" fill="black"/>
<path fill-rule="evenodd" clip-rule="evenodd" d="M3.20704 17.2742C2.94454 17.2742 2.6928 17.3777 2.50719 17.5619C2.32158 17.7462 2.21731 17.996 2.21731 18.2565V19.8507H1.88049V21.8153H21.8805V19.8507H21.5034V18.2565C21.5034 17.996 21.3992 17.7462 21.2135 17.5619C21.0279 17.3777 20.7762 17.2742 20.5137 17.2742H13.591C13.3285 17.2742 13.0768 17.3777 12.8912 17.5619C12.7056 17.7462 12.6013 17.996 12.6013 18.2565V19.8507H11.1194V18.2565C11.1194 17.996 11.0152 17.7462 10.8295 17.5619C10.6439 17.3777 10.3922 17.2742 10.1297 17.2742H3.20704ZM4.19676 19.8507V19.2388H9.13998V19.8507H4.19676ZM14.5808 19.8507V19.2388H19.524V19.8507H14.5808Z" fill="black"/>
<path fill-rule="evenodd" clip-rule="evenodd" d="M11.8604 5.25064C9.88274 5.25064 8.27464 6.84665 8.27464 8.80941C8.27464 10.7722 9.88274 12.3682 11.8604 12.3682C13.838 12.3682 15.4461 10.7722 15.4461 8.80941C15.4461 6.84665 13.838 5.25064 11.8604 5.25064ZM10.2541 8.80941C10.2541 7.92949 10.9746 7.21521 11.8604 7.21521C12.7462 7.21521 13.4666 7.92949 13.4666 8.80941C13.4666 9.68852 12.7461 10.4036 11.8604 10.4036C10.9746 10.4036 10.2541 9.68852 10.2541 8.80941Z" fill="black"/>
</svg>
