<svg width="24" height="24" viewBox="0 0 24 24" fill="none" xmlns="http://www.w3.org/2000/svg">
<path d="M3 17.2256V10.7637C3 10.2304 3.196 9.78038 3.588 9.41371C3.98 9.04705 4.44233 8.88038 4.975 8.91371C6.29167 9.11371 7.546 9.50138 8.738 10.0767C9.93 10.652 11.0173 11.3977 12 12.3137C12.9833 11.397 14.071 10.651 15.263 10.0757C16.455 9.50038 17.709 9.11305 19.025 8.91371C19.5583 8.88038 20.021 9.04705 20.413 9.41371C20.805 9.78038 21.0007 10.2304 21 10.7637V17.2256C21 17.7589 20.825 18.2133 20.475 18.5886C20.125 18.9639 19.6833 19.1679 19.15 19.2006C18.0833 19.3673 17.05 19.6423 16.05 20.0256C15.05 20.4089 14.1167 20.9173 13.25 21.5506C13.0667 21.7006 12.8707 21.8129 12.662 21.8876C12.4533 21.9623 12.2327 21.9999 12 22.0006C11.7667 22.0006 11.5457 21.9629 11.337 21.8876C11.1283 21.8123 10.9327 21.6999 10.75 21.5506C9.88333 20.9173 8.95 20.4089 7.95 20.0256C6.95 19.6423 5.91667 19.3673 4.85 19.2006C4.31667 19.1673 3.875 18.9633 3.525 18.5886C3.175 18.2139 3 17.7596 3 17.2256ZM12 19.9756C13.05 19.1923 14.1667 18.5673 15.35 18.1006C16.5333 17.6339 17.75 17.3256 19 17.1756V10.9637C17.7833 11.1804 16.5873 11.618 15.412 12.2767C14.2367 12.9354 13.0993 13.8144 12 14.9137C10.9 13.8137 9.76233 12.9344 8.587 12.2757C7.41167 11.617 6.216 11.1797 5 10.9637V17.1756C6.25 17.3256 7.46667 17.6339 8.65 18.1006C9.83333 18.5673 10.95 19.1923 12 19.9756Z" fill="black"/>
<circle cx="12" cy="6.00061" r="3.25" stroke="black" stroke-width="1.5"/>
</svg>
