<svg width="24" height="24" viewBox="0 0 24 24" fill="none" xmlns="http://www.w3.org/2000/svg">
<path d="M17.9512 9.18099H19.5L19.3109 22.0006H17.762L17.9512 13.0876C17.1413 12.9286 16.3821 12.6303 15.6633 12.2029C14.9446 11.7755 14.3372 11.2784 13.8209 10.7019L13.1932 13.7536L15.2616 15.7548V22.0006H13.237V17.2757L11.1585 15.2745L9.07632 22.0006H6.88971C6.88971 22.0006 10.2474 7.73961 10.2778 7.61038C10.3891 7.13324 10.6118 6.76544 10.9864 6.52687C11.361 6.25847 11.7355 6.12925 12.1202 6.12925C12.515 6.12925 12.8794 6.21871 13.2135 6.39764C13.5577 6.56663 13.8209 6.81514 14.0132 7.13324L15.0863 8.75354C15.3799 9.29033 15.7747 9.75754 16.2707 10.1353C16.7667 10.513 17.3336 10.8013 17.9512 11.0001V9.18099ZM8.92126 6.41752L7.75709 6.17895C7.18007 6.02984 6.65366 6.14913 6.17787 6.46722C5.71221 6.78532 5.42876 7.2227 5.32753 7.79925L4.50755 11.7556C4.47718 12.0439 4.53792 12.3023 4.69989 12.5409C4.86186 12.7795 5.07445 12.9087 5.32753 12.9484L7.56475 13.3759L8.92126 6.41752ZM13.295 2.00061C12.1815 2.00061 11.2704 2.89526 11.2704 3.98871C11.2704 5.08217 12.1815 5.97682 13.295 5.97682C14.4086 5.97682 15.3196 5.09211 15.3196 3.98871C15.3196 2.88532 14.4187 2.00061 13.295 2.00061Z" fill="black"/>
</svg>
