<svg width="24" height="24" viewBox="0 0 24 24" fill="none" xmlns="http://www.w3.org/2000/svg">
<path fill-rule="evenodd" clip-rule="evenodd" d="M11.1939 7.40417C11.4922 7.69491 11.4927 8.17426 11.1949 8.4656C10.9073 8.74701 10.4478 8.74778 10.1592 8.46733L7.73784 6.11398C7.33379 5.72128 7.33379 5.07246 7.73784 4.67976L10.1592 2.32641C10.4478 2.04596 10.9073 2.04673 11.1949 2.32814C11.4927 2.61948 11.4922 3.09883 11.1939 3.38957L9.88 4.66992H16.273C16.6745 4.66992 17 4.99539 17 5.39687C17 5.79836 16.6745 6.12383 16.273 6.12383H9.88L11.1939 7.40417ZM10.3333 18.7191C10.8266 19.0386 11.4067 19.2091 12 19.2091C12.7956 19.2091 13.5587 18.9028 14.1213 18.3575C14.6839 17.8121 15 17.0725 15 16.3013C15 15.7262 14.8241 15.164 14.4944 14.6858C14.1648 14.2076 13.6962 13.8349 13.1481 13.6149C12.5999 13.3948 11.9967 13.3372 11.4147 13.4494C10.8328 13.5616 10.2982 13.8385 9.87868 14.2452C9.45912 14.6519 9.1734 15.17 9.05764 15.734C8.94189 16.2981 9.0013 16.8828 9.22836 17.4141C9.45542 17.9454 9.83994 18.3996 10.3333 18.7191ZM3 21.1169C3 21.6692 3.44772 22.1169 4 22.1169H20C20.5523 22.1169 21 21.6692 21 21.1169V11.4857C21 10.9334 20.5523 10.4857 20 10.4857H4C3.44772 10.4857 3 10.9334 3 11.4857V21.1169ZM17.5858 13.795C17.9609 14.1585 18.4696 14.3628 19 14.3628V18.2399C18.4696 18.2399 17.9609 18.4441 17.5858 18.8076C17.2107 19.1712 17 19.6643 17 20.1784H7C7 19.6643 6.78929 19.1712 6.41421 18.8076C6.03914 18.4441 5.53043 18.2399 5 18.2399V14.3628C5.53043 14.3628 6.03914 14.1585 6.41421 13.795C6.78929 13.4315 7 12.9384 7 12.4242H17C17 12.9384 17.2107 13.4315 17.5858 13.795Z" fill="black"/>
</svg>
