<svg width="72" height="72" viewBox="0 0 72 72" fill="none" xmlns="http://www.w3.org/2000/svg">
<path opacity="0.08" d="M47.4938 27.6806C42.9053 27.6806 38.2345 27.4942 33.8652 26.2772C29.5782 25.0876 25.642 22.7796 22.1334 20.1098C19.8364 18.3719 17.7477 16.9849 14.7654 17.1933C11.8478 17.3511 9.05783 18.4406 6.80533 20.3016C3.01168 23.6238 3.58182 29.7803 5.10038 34.0892C7.38095 40.5966 14.3213 45.1303 20.2201 48.0632C27.0344 51.4677 34.5231 53.4467 42.0281 54.5815C48.6067 55.5847 57.0602 56.3084 62.7616 52.0159C67.997 48.0632 69.4334 39.0506 68.1506 32.9654C67.8393 31.1677 66.8821 29.5457 65.4588 28.4043C61.7803 25.7125 56.2927 27.5107 52.1591 27.5984C50.6241 27.6313 49.0617 27.6696 47.4938 27.6806Z" fill="#1882FF"/>
<path opacity="0.08" d="M36.4858 65.2499C47.6005 65.2499 56.6108 64.6879 56.6108 63.9945C56.6108 63.3012 47.6005 62.7391 36.4858 62.7391C25.3711 62.7391 16.3608 63.3012 16.3608 63.9945C16.3608 64.6879 25.3711 65.2499 36.4858 65.2499Z" fill="#1882FF"/>
<path d="M8.08813 15.5927L15.2149 14.9897C16.1036 14.9118 16.9921 15.1417 17.7316 15.6407C18.4711 16.1396 19.0167 16.8775 19.2772 17.7307L26.108 40.5913L24.7703 42.987C24.4267 43.6043 24.2571 44.3032 24.2796 45.0093C24.302 45.7154 24.5156 46.4022 24.8977 46.9964C25.2798 47.5906 25.816 48.07 26.4491 48.3834C27.0822 48.6968 27.7885 48.8326 28.4927 48.7761L55.8486 46.4517" stroke="#1A2B3D" stroke-linecap="round" stroke-linejoin="round"/>
<path d="M20.297 21.2008L52.0935 18.5036C52.4067 18.4767 52.7219 18.5208 53.0158 18.6324C53.3097 18.744 53.5747 18.9204 53.7911 19.1484C54.0076 19.3764 54.1699 19.6502 54.266 19.9495C54.3622 20.2488 54.3897 20.5659 54.3466 20.8773L52.1921 36.4302C52.1267 36.8968 51.9062 37.3279 51.5662 37.654C51.2261 37.9802 50.7862 38.1825 50.3172 38.2283L26.1081 40.5911L20.297 21.2008Z" fill="#FFE3C5" stroke="#1A2B3D" stroke-linecap="round" stroke-linejoin="round"/>
<path d="M31.5353 54.017C32.9614 54.017 34.1174 52.8609 34.1174 51.4349C34.1174 50.0088 32.9614 48.8528 31.5353 48.8528C30.1093 48.8528 28.9532 50.0088 28.9532 51.4349C28.9532 52.8609 30.1093 54.017 31.5353 54.017Z" fill="#FFE3C5" stroke="#1A2B3D" stroke-linecap="round" stroke-linejoin="round"/>
<path d="M49.5167 52.4928C50.9427 52.4928 52.0988 51.3367 52.0988 49.9107C52.0988 48.4846 50.9427 47.3286 49.5167 47.3286C48.0906 47.3286 46.9346 48.4846 46.9346 49.9107C46.9346 51.3367 48.0906 52.4928 49.5167 52.4928Z" fill="#FFE3C5" stroke="#1A2B3D" stroke-linecap="round" stroke-linejoin="round"/>
<path d="M13.7318 14.3725L7.01288 14.9426C6.43063 14.9921 5.99867 15.5041 6.04807 16.0864C6.09748 16.6686 6.60954 17.1006 7.1918 17.0512L13.9107 16.4811C14.4929 16.4317 14.9249 15.9196 14.8755 15.3374C14.8261 14.7551 14.314 14.3231 13.7318 14.3725Z" fill="#1882FF"/>
<path d="M33.6843 33.2126C33.8154 32.2121 34.2846 31.2864 35.0141 30.5892C35.7436 29.892 36.6895 29.4651 37.6949 29.3793C38.7003 29.2936 39.7049 29.5541 40.5419 30.1177C41.3789 30.6813 41.9981 31.5141 42.2968 32.478" stroke="#F27D00" stroke-width="2" stroke-linecap="round" stroke-linejoin="round"/>
<path d="M42.368 27.2972C42.7071 27.2972 42.982 27.0223 42.982 26.6832C42.982 26.3441 42.7071 26.0692 42.368 26.0692C42.0289 26.0692 41.754 26.3441 41.754 26.6832C41.754 27.0223 42.0289 27.2972 42.368 27.2972Z" stroke="#F27D00" stroke-width="2"/>
<path d="M32.6372 28.1195C32.9763 28.1195 33.2512 27.8446 33.2512 27.5055C33.2512 27.1664 32.9763 26.8915 32.6372 26.8915C32.2981 26.8915 32.0232 27.1664 32.0232 27.5055C32.0232 27.8446 32.2981 28.1195 32.6372 28.1195Z" stroke="#F27D00" stroke-width="2"/>
<g opacity="0.5">
<path d="M15.3411 50.673V53.0358M14.1625 51.8514H16.5198" stroke="#1882FF" stroke-linecap="round" stroke-linejoin="round"/>
<path d="M53.0089 6.75V9.10732M51.8303 7.92887H54.1876" stroke="#1882FF" stroke-linecap="round" stroke-linejoin="round"/>
<path d="M25.0993 13.7943V16.1517M23.915 14.9732H26.2778" stroke="#1882FF" stroke-linecap="round" stroke-linejoin="round"/>
<path d="M58.8912 22.4619C59.2 22.4619 59.4504 22.2115 59.4504 21.9027C59.4504 21.5939 59.2 21.3435 58.8912 21.3435C58.5824 21.3435 58.332 21.5939 58.332 21.9027C58.332 22.2115 58.5824 22.4619 58.8912 22.4619Z" fill="#1882FF"/>
<path d="M37.9933 17.4349C38.29 17.4349 38.5306 17.1943 38.5306 16.8976C38.5306 16.6009 38.29 16.3604 37.9933 16.3604C37.6966 16.3604 37.4561 16.6009 37.4561 16.8976C37.4561 17.1943 37.6966 17.4349 37.9933 17.4349Z" fill="#1882FF"/>
<path d="M41.6005 56.424C41.8972 56.424 42.1377 56.1834 42.1377 55.8867C42.1377 55.59 41.8972 55.3495 41.6005 55.3495C41.3038 55.3495 41.0632 55.59 41.0632 55.8867C41.0632 56.1834 41.3038 56.424 41.6005 56.424Z" fill="#1882FF"/>
</g>
</svg>
