<svg width="72" height="72" viewBox="0 0 72 72" fill="none" xmlns="http://www.w3.org/2000/svg">
<path d="M34.64 23.43V31.654C30.904 30.578 29.986 29.316 29.986 27.356C29.986 25.3 31.586 23.664 34.64 23.43Z" fill="#F99C1C"/>
<path d="M38.474 38.196C42.256 39.272 43.276 40.534 43.276 42.634C43.276 44.876 41.53 46.42 38.474 46.656V38.196Z" fill="#F99C1C"/>
<path fill-rule="evenodd" clip-rule="evenodd" d="M68 36C68 53.6731 53.6731 68 36 68C18.3269 68 4 53.6731 4 36C4 18.3269 18.3269 4 36 4C53.6731 4 68 18.3269 68 36ZM38.668 51.374C44.828 50.86 49 47.448 49 42.308C49 37.262 45.848 34.412 38.474 32.636V23.758C40.754 24.224 42.936 25.206 45.07 26.748L47.788 22.356C45.1108 20.3951 41.9662 19.1704 38.668 18.804V16H34.448V18.71C28.384 19.178 24.262 22.636 24.262 27.682C24.262 32.962 27.56 35.532 34.642 37.308V46.468C31.488 46 28.87 44.598 26.104 42.448L23 46.7C26.3226 49.2578 30.2814 50.8582 34.448 51.328V56H38.668V51.374Z" fill="#F99C1C"/>
</svg>
