<svg width="24" height="24" viewBox="0 0 24 24" fill="none" xmlns="http://www.w3.org/2000/svg">
<path fill-rule="evenodd" clip-rule="evenodd" d="M14.7748 11.0966C13.5735 11.5147 12.5385 11.8878 12.4749 11.9257C12.4112 11.9635 12.3192 12.0548 12.2705 12.1284L12.1818 12.2624L12.2082 16.6347L12.3294 17.0878C12.6304 18.2133 13.133 19.0648 14.0442 19.9928C14.7421 20.7037 15.7226 21.4133 16.6115 21.851C17.0168 22.0505 17.1696 22.0505 17.5749 21.851C19.0931 21.1035 20.5801 19.7732 21.2703 18.5451C21.4861 18.161 21.7025 17.6443 21.8079 17.2612C21.9864 16.6127 21.9997 16.4046 21.9998 14.2695L22 12.2555L21.9136 12.125C21.8661 12.0532 21.7745 11.9631 21.7101 11.9248C21.5206 11.8121 17.2093 10.3313 17.0785 10.3339C17.0128 10.3353 15.9761 10.6785 14.7748 11.0966ZM19.4508 13.7622C19.63 13.8469 19.8314 14.0515 19.8893 14.2077C19.9465 14.3622 19.9398 14.6821 19.8763 14.8309C19.8221 14.9578 17.5181 17.9578 17.404 18.0501C17.1608 18.2466 16.7979 18.2916 16.5478 18.1562C16.3559 18.0523 14.9028 16.7846 14.7947 16.6269C14.4345 16.1011 14.818 15.3701 15.4556 15.3671C15.7237 15.3659 15.8428 15.432 16.3226 15.8491C16.5606 16.0558 16.7703 16.2156 16.7887 16.204C16.8071 16.1925 17.2216 15.665 17.7098 15.0319C18.1981 14.3988 18.6343 13.8594 18.6792 13.8332C18.95 13.6751 19.2148 13.6507 19.4508 13.7622Z" fill="#9BA6B2"/>
<path fill-rule="evenodd" clip-rule="evenodd" d="M6.41194 2.29627C6.49953 2.20393 6.64042 2.10045 6.725 2.06635C6.84672 2.01726 8.38318 2.00391 10.9862 2.00245L14.2754 2.00061L14.5073 2.13677C14.9216 2.37994 15.0736 2.87896 14.8545 3.27649C14.7219 3.51706 14.3997 3.7324 14.1128 3.77226L13.8877 3.80348L13.8885 5.43703C13.889 6.38131 13.9097 7.10039 13.9375 7.14128C13.9773 7.19967 14.1931 7.21627 15.1723 7.23641C16.4595 7.26287 16.5236 7.27522 16.799 7.54975C16.8623 7.61291 16.9123 7.66042 16.9517 7.71579C17.0514 7.85598 17.0829 8.04654 17.0895 8.66899C17.0826 8.6678 17.0775 8.66722 17.0743 8.66728C16.9867 8.66899 15.6045 9.11022 14.0028 9.64785C12.401 10.1854 11.0211 10.6651 10.9362 10.7138C10.8513 10.7625 10.7287 10.8798 10.6637 10.9745L10.5455 11.1467L10.5807 16.7683L10.7422 17.3508C11.0488 18.456 11.5121 19.3557 12.2552 20.2506C11.8334 20.2517 11.4001 20.2524 11.0133 20.2524H7.72831L7.71119 20.7866C7.69544 21.2771 7.68255 21.3369 7.55349 21.5172C7.17032 22.0526 6.3614 22.1629 5.85238 21.7492C5.55186 21.505 5.46051 21.2834 5.43661 20.7407L5.41551 20.2622L5.04708 20.2449C4.57143 20.2227 4.32513 20.0832 4.13365 19.7275L4 19.4792L4.00031 13.7937C4.00046 9.90277 4.01778 8.05076 4.05508 7.92648C4.13299 7.66662 4.48176 7.35945 4.77698 7.29069C4.91888 7.25758 5.43034 7.23561 6.05777 7.23561C7.07942 7.23561 7.10408 7.2333 7.18163 7.13076C7.24966 7.04087 7.26097 6.79676 7.26097 5.41538V3.80484L7.05247 3.77395C6.2146 3.64996 5.87373 2.86363 6.41194 2.29627ZM12.2573 5.4401C12.2573 6.87472 12.2469 7.09695 12.1772 7.16151C12.1092 7.22438 11.9268 7.23561 10.9711 7.23561C9.99481 7.23561 9.01445 7.22523 8.93369 7.15755C8.84682 7.08478 8.8405 6.96829 8.8405 5.43614V3.79277H12.2573V5.4401Z" fill="#9BA6B2"/>
</svg>
