<svg width="24" height="24" viewBox="0 0 24 24" fill="none" xmlns="http://www.w3.org/2000/svg">
<path fill-rule="evenodd" clip-rule="evenodd" d="M14.0513 4.00061H4.82051C4.07247 4.00061 3.35506 4.29777 2.82611 4.82672C2.29716 5.35567 2 6.07308 2 6.82112V9.89805C2 10.3229 2.3444 10.6673 2.76923 10.6673C3.10925 10.6673 3.43535 10.8024 3.67578 11.0428C3.91621 11.2832 4.05128 11.6093 4.05128 11.9493C4.05128 12.2893 3.91621 12.6154 3.67578 12.8559C3.43535 13.0963 3.10925 13.2314 2.76923 13.2314C2.3444 13.2314 2 13.5758 2 14.0006V17.0775C2 17.8256 2.29716 18.543 2.82611 19.0719C3.35506 19.6009 4.07247 19.898 4.82051 19.898H14.0513V17.0775C14.0513 16.5111 14.5105 16.0519 15.0769 16.0519C15.6434 16.0519 16.1026 16.5111 16.1026 17.0775V19.898H19.1795C19.9275 19.898 20.6449 19.6009 21.1739 19.0719C21.7028 18.543 22 17.8256 22 17.0775V14.0006C22 13.5758 21.6556 13.2314 21.2308 13.2314C20.8907 13.2314 20.5647 13.0963 20.3242 12.8559C20.0838 12.6154 19.9487 12.2893 19.9487 11.9493C19.9487 11.6093 20.0838 11.2832 20.3242 11.0428C20.5647 10.8024 20.8907 10.6673 21.2308 10.6673C21.6556 10.6673 22 10.3229 22 9.89805V6.82112C22 6.07308 21.7028 5.35567 21.1739 4.82672C20.6449 4.29777 19.9275 4.00061 19.1795 4.00061H16.1026V6.82112C16.1026 7.38757 15.6434 7.84676 15.0769 7.84676C14.5105 7.84676 14.0513 7.38757 14.0513 6.82112V4.00061ZM16.1026 10.9237C16.1026 10.3572 15.6434 9.89805 15.0769 9.89805C14.5105 9.89805 14.0513 10.3572 14.0513 10.9237V12.975C14.0513 13.5414 14.5105 14.0006 15.0769 14.0006C15.6434 14.0006 16.1026 13.5414 16.1026 12.975V10.9237Z" fill="#9BA6B2"/>
</svg>
