<svg width="24" height="24" viewBox="0 0 24 24" fill="none" xmlns="http://www.w3.org/2000/svg">
<path fill-rule="evenodd" clip-rule="evenodd" d="M19.0265 4.88538C20.6746 6.51288 21.7066 8.66201 21.9463 10.9658C22.186 13.2696 21.6185 15.5851 20.3408 17.5171C19.0631 19.449 17.1544 20.8775 14.9406 21.5586C12.7267 22.2397 10.3451 22.1312 8.20244 21.2516C6.05973 20.372 4.28881 18.7758 3.19208 16.7357C2.09534 14.6956 1.74082 12.338 2.18904 10.0656C2.63726 7.79314 3.86043 5.74676 5.64968 4.27589C7.43892 2.80501 9.68329 2.00085 11.9995 2.00074C13.3034 1.99268 14.5959 2.24351 15.8022 2.73868C17.0084 3.23385 18.1043 3.96352 19.0265 4.88538ZM15.8891 9.52571C16.2796 9.13519 16.2796 8.50202 15.8891 8.1115C15.4986 7.72097 14.8654 7.72097 14.4749 8.1115L12 10.5864L9.52514 8.1115C9.13461 7.72097 8.50145 7.72097 8.11092 8.1115C7.7204 8.50202 7.7204 9.13519 8.11092 9.52571L10.5858 12.0006L8.11092 14.4755C7.72039 14.866 7.72039 15.4991 8.11092 15.8897C8.50144 16.2802 9.13461 16.2802 9.52513 15.8897L12 13.4148L14.4749 15.8897C14.8654 16.2802 15.4986 16.2802 15.8891 15.8897C16.2796 15.4991 16.2796 14.866 15.8891 14.4755L13.4142 12.0006L15.8891 9.52571Z" fill="#EF5550"/>
</svg>
