<svg width="24" height="24" viewBox="0 0 24 24" fill="none" xmlns="http://www.w3.org/2000/svg">
<path fill-rule="evenodd" clip-rule="evenodd" d="M19.0382 2.05818C18.7486 2.12104 18.3705 2.29255 18.1692 2.45237C18.0916 2.51402 17.207 3.43944 16.2034 4.5089C15.1998 5.57832 14.3364 6.48108 14.2846 6.51499C14.2329 6.5489 14.133 6.57648 14.0627 6.57629C13.9923 6.57609 11.6423 6.09088 8.84037 5.49804C6.03844 4.9052 3.65836 4.42014 3.55132 4.42014C3.28199 4.42014 3.09443 4.48401 2.8728 4.65118C2.62527 4.83788 2.44814 5.13718 2.38888 5.46874C2.30746 5.92442 2.46373 6.35122 2.82705 6.66524C2.92648 6.75119 4.43064 7.57055 6.48197 8.65618C8.39927 9.67087 10.0036 10.5334 10.0472 10.5728C10.1755 10.6889 10.2221 10.9032 10.1544 11.0654C10.0829 11.2365 5.95554 15.6843 5.89284 15.6578C5.86815 15.6474 5.36723 15.427 4.77974 15.1681C4.19225 14.9092 3.61613 14.6798 3.49948 14.6582C2.92132 14.5513 2.28719 14.909 2.0797 15.4589C1.90394 15.9249 2.02575 16.4776 2.37735 16.8089C2.45978 16.8866 3.09857 17.3683 3.79689 17.8792C4.49522 18.3902 5.11263 18.8508 5.16893 18.9027C5.22522 18.9546 5.70868 19.5957 6.24327 20.3274C6.94699 21.2906 7.26148 21.6897 7.3827 21.7733C7.89304 22.1253 8.5635 22.0634 9.00793 21.6233C9.3123 21.3219 9.46533 20.7523 9.34387 20.3728C9.31742 20.2903 9.087 19.7434 8.83178 19.1575C8.57655 18.5716 8.36774 18.0793 8.36774 18.0634C8.36774 18.0475 8.81478 17.6215 9.36114 17.1167L10.3546 16.1989L10.3573 14.1658C10.3604 11.9806 10.3654 11.9177 10.5712 11.4717C10.7691 11.0431 11.1753 10.6255 11.5937 10.4206C11.9049 10.2683 16.356 8.76334 16.6466 8.71224C16.993 8.65134 17.3798 8.69216 17.8499 8.83929L18.249 8.96415L18.807 8.43783C19.114 8.14835 19.8398 7.46565 20.4199 6.92078C21.0001 6.37591 21.5297 5.85394 21.597 5.76084C21.8687 5.38482 22.0008 4.90141 22.0008 4.2834C22.0008 3.77764 21.9239 3.42201 21.7292 3.02697C21.479 2.51925 21.1068 2.2418 20.4511 2.07408C20.0952 1.98306 19.4194 1.97544 19.0382 2.05818ZM14.6389 11.0851C13.4146 11.5036 12.3598 11.8771 12.295 11.915C12.2301 11.9529 12.1364 12.0442 12.0867 12.1179L11.9963 12.252L12.0098 14.4403L12.0232 16.6286L12.1467 17.0821C12.4535 18.2087 12.9657 19.061 13.8943 19.99C14.6056 20.7015 15.6048 21.4119 16.5107 21.8499C16.9237 22.0497 17.0795 22.0497 17.4924 21.8499C19.0397 21.1017 20.5551 19.7702 21.2585 18.5409C21.4785 18.1564 21.6989 17.6392 21.8064 17.2557C21.9882 16.6066 22.0018 16.3983 22.002 14.2611L22.0021 12.2451L21.9141 12.1145C21.8657 12.0426 21.7724 11.9525 21.7067 11.9141C21.5136 11.8013 17.1199 10.319 16.9866 10.3217C16.9196 10.323 15.8631 10.6665 14.6389 11.0851ZM19.4042 13.7533C19.5869 13.838 19.7921 14.0428 19.8511 14.1992C19.9094 14.3539 19.9026 14.6741 19.8379 14.823C19.7826 14.95 17.4346 17.953 17.3183 18.0453C17.0704 18.2421 16.7006 18.2871 16.4457 18.1515C16.2502 18.0476 14.7693 16.7786 14.6592 16.6207C14.2921 16.0945 14.6829 15.3627 15.3327 15.3598C15.6059 15.3585 15.7272 15.4247 16.2163 15.8422C16.4588 16.0492 16.6725 16.2091 16.6913 16.1975C16.71 16.1859 17.1324 15.658 17.63 15.0242C18.1276 14.3905 18.5721 13.8505 18.6179 13.8244C18.8939 13.6661 19.1638 13.6417 19.4042 13.7533Z" fill="#9BA6B2"/>
</svg>
