<svg width="24" height="24" viewBox="0 0 24 24" fill="none" xmlns="http://www.w3.org/2000/svg">
<path d="M7.98027 7.12759C7.31233 7.20473 6.56015 7.40916 5.87416 7.70618C5.43489 7.89903 5.14303 8.0649 5.08888 8.15747C5.05578 8.21148 5.04976 9.16034 5.04675 13.4226V18.6222L5.12197 18.7148C5.21825 18.842 5.29648 18.8343 5.56426 18.68C6.14796 18.3406 6.7828 18.0898 7.45374 17.9355C7.9923 17.816 9.0243 17.7696 9.56888 17.8468C10.3873 17.9587 11.1334 18.2094 11.9157 18.6337L12.027 18.6954V7.86047L11.5697 7.6676C10.4023 7.1816 9.17474 6.99645 7.98027 7.12759Z" fill="#BECAD6"/>
<path d="M15.0227 7.12472C14.3548 7.19803 13.6718 7.37936 12.9858 7.66485L12.5254 7.85775V18.6951L12.6398 18.6333C13.1212 18.3709 13.6538 18.151 14.1923 18.0045C15.1701 17.7305 16.4608 17.7382 17.4598 18.0238C17.887 18.1472 18.5911 18.4443 18.943 18.6526C19.253 18.8378 19.3312 18.8455 19.4305 18.7143L19.5057 18.6217V13.4211C19.5028 9.15792 19.4967 8.20884 19.4636 8.15483C19.3794 8.01208 18.6331 7.65328 17.9713 7.43337C17.0505 7.13244 15.9704 7.02056 15.0227 7.12472Z" fill="#BECAD6"/>
<path d="M7.08269 11.2103C8.79798 11.2103 10.1885 9.81983 10.1885 8.10454C10.1885 6.38926 8.79798 4.99874 7.08269 4.99874C5.36741 4.99874 3.97689 6.38926 3.97689 8.10454C3.97689 9.81983 5.36741 11.2103 7.08269 11.2103Z" fill="white"/>
<path fill-rule="evenodd" clip-rule="evenodd" d="M7.08269 5.27557C5.52029 5.27557 4.25371 6.54214 4.25371 8.10454C4.25371 9.66695 5.52029 10.9335 7.08269 10.9335C8.64509 10.9335 9.91167 9.66695 9.91167 8.10454C9.91167 6.54214 8.64509 5.27557 7.08269 5.27557ZM3.70007 8.10454C3.70007 6.23637 5.21452 4.72192 7.08269 4.72192C8.95086 4.72192 10.4653 6.23637 10.4653 8.10454C10.4653 9.97271 8.95086 11.4872 7.08269 11.4872C5.21452 11.4872 3.70007 9.97271 3.70007 8.10454Z" fill="white"/>
<path d="M4.38245 8.34216H5.86162C5.90783 9.19744 6.18044 10.0251 6.65157 10.7404C6.06145 10.6477 5.51868 10.3621 5.10812 9.92814C4.69757 9.49423 4.44238 8.9365 4.38245 8.34216ZM4.38245 7.80202C4.44238 7.20768 4.69757 6.64996 5.10812 6.21604C5.51868 5.78213 6.06145 5.4965 6.65157 5.40381C6.18044 6.11911 5.90783 6.94675 5.86162 7.80202H4.38245ZM9.75683 7.80202H8.27766C8.23145 6.94675 7.95883 6.11911 7.48771 5.40381C8.07783 5.4965 8.62059 5.78213 9.03115 6.21604C9.4417 6.64996 9.6969 7.20768 9.75683 7.80202ZM9.75683 8.34216C9.6969 8.9365 9.4417 9.49423 9.03115 9.92814C8.62059 10.3621 8.07783 10.6477 7.48771 10.7404C7.95883 10.0251 8.23145 9.19744 8.27766 8.34216H9.7571H9.75683ZM6.40257 8.34216H7.73671C7.69226 9.07121 7.46266 9.77689 7.06964 10.3925C6.6766 9.77689 6.44702 9.07121 6.40257 8.34216ZM6.40257 7.80202C6.44702 7.07298 6.6766 6.3673 7.06964 5.75166C7.46266 6.3673 7.69226 7.07298 7.73671 7.80202H6.40257Z" fill="#77818C"/>
<path d="M16.1507 10.685C16.0362 10.788 16.0248 10.8147 16.0133 11.0856C15.9867 11.6121 16.0897 11.8333 16.3682 11.8333C16.6658 11.8333 16.7688 11.677 16.7688 11.2229C16.7688 10.8681 16.7038 10.685 16.5552 10.6163C16.4025 10.5476 16.2804 10.5667 16.1507 10.685Z" fill="white"/>
<path d="M14.724 11.2457C14.5904 11.3106 14.5179 11.4365 14.5179 11.6043C14.5179 11.7378 14.9032 12.169 15.1093 12.2682C15.3572 12.3864 15.6244 12.2148 15.6244 11.94C15.6244 11.8066 15.5976 11.7569 15.3878 11.5395C15.178 11.322 14.9757 11.1808 14.8728 11.1846C14.8575 11.1846 14.7889 11.2114 14.724 11.2457Z" fill="white"/>
<path d="M17.7421 11.2382C17.6811 11.265 17.5208 11.4023 17.3911 11.5435C17.1851 11.7609 17.1508 11.8182 17.1508 11.9403C17.1508 12.1005 17.2462 12.234 17.4064 12.295C17.5705 12.3561 17.7345 12.2722 18.0054 11.9822C18.219 11.7609 18.2572 11.6961 18.2572 11.5816C18.2572 11.4099 18.1694 11.2764 18.0206 11.2268C17.8757 11.1772 17.8833 11.1772 17.7421 11.2382Z" fill="white"/>
<path d="M14.0065 12.81C13.8577 12.9625 13.8653 13.2029 14.0256 13.3364C14.1362 13.428 14.1668 13.4356 14.5368 13.4356C14.8916 13.4356 14.9451 13.428 15.0327 13.3479C15.1015 13.2907 15.1396 13.2105 15.1548 13.1037C15.1739 12.9625 15.1625 12.932 15.0594 12.8252C14.9451 12.7107 14.9412 12.7107 14.5253 12.7107C14.1247 12.7107 14.1056 12.7146 14.0065 12.81Z" fill="white"/>
<path d="M15.1093 13.8709C15.0483 13.8976 14.888 14.0349 14.7583 14.1761C14.5599 14.3859 14.5179 14.4546 14.5179 14.5614C14.5179 14.7522 14.6858 14.9315 14.8689 14.9315C15.052 14.9315 15.1169 14.8934 15.3878 14.5995C15.5862 14.3897 15.6244 14.3249 15.6244 14.2142C15.6244 14.0425 15.5366 13.909 15.3878 13.8594C15.2429 13.8098 15.2505 13.8098 15.1093 13.8709Z" fill="white"/>
<path d="M16.3045 13.403C16.226 13.0847 16.4863 12.8243 16.8046 12.9029L20.1048 13.7171C20.4663 13.8063 20.6272 14.2546 20.3847 14.4971L19.6854 15.1964L20.418 15.9286C20.6055 16.116 20.6222 16.4034 20.4553 16.5703L19.9718 17.0539C19.8049 17.2207 19.5177 17.2041 19.3302 17.0168L18.5974 16.2844L17.8988 16.9831C17.6563 17.2256 17.2079 17.0647 17.1187 16.7031L16.3045 13.403Z" fill="#77818C"/>
<path fill-rule="evenodd" clip-rule="evenodd" d="M16.0841 13.4328C15.9663 12.9553 16.3568 12.5648 16.8343 12.6826L20.1345 13.4968C20.6768 13.6306 20.9181 14.3031 20.5544 14.6669L20.0062 15.215L20.569 15.7775C20.8503 16.0586 20.8754 16.4896 20.625 16.7401L20.1414 17.2236C19.8911 17.4739 19.4604 17.449 19.1792 17.168L18.616 16.6052L18.0684 17.1528C17.7047 17.5166 17.0321 17.2752 16.8983 16.7329L16.0841 13.4328ZM16.7749 13.1232C16.6157 13.084 16.4855 13.2141 16.5248 13.3733L17.339 16.6734C17.3836 16.8542 17.6078 16.9346 17.729 16.8134L18.5787 15.9637L19.4813 16.8657C19.575 16.9593 19.7186 16.9676 19.802 16.8842L20.2855 16.4007C20.369 16.3172 20.3607 16.1735 20.2669 16.0798L19.3645 15.1779L20.2149 14.3275C20.3362 14.2062 20.2558 13.982 20.075 13.9374L16.7749 13.1232Z" fill="white"/>
<path fill-rule="evenodd" clip-rule="evenodd" d="M16.2007 12.7991C16.3561 12.6437 16.5912 12.5711 16.8464 12.634L20.1465 13.4482C20.4353 13.5195 20.6435 13.7341 20.7313 13.9787C20.8191 14.2234 20.788 14.504 20.5897 14.7022L20.077 15.215L20.6044 15.7421C20.9013 16.0388 20.934 16.5017 20.6603 16.7754L20.1768 17.259C19.9032 17.5325 19.4406 17.4999 19.1438 17.2034L18.6161 16.6759L18.1038 17.1882C17.9056 17.3864 17.625 17.4175 17.3803 17.3297C17.1356 17.2419 16.9211 17.0337 16.8498 16.7449L16.0356 13.4448C15.9727 13.1896 16.0453 12.9545 16.2007 12.7991ZM16.2714 12.8698C16.1416 12.9996 16.0778 13.1984 16.1327 13.4208L16.9469 16.7209C17.0094 16.9744 17.198 17.158 17.4141 17.2356C17.63 17.3131 17.8676 17.283 18.0331 17.1174L18.6161 16.5345L19.2145 17.1326C19.4802 17.3981 19.8791 17.4153 20.1061 17.1883L20.5896 16.7047C20.8168 16.4776 20.7994 16.0784 20.5337 15.8128L19.9355 15.215L20.519 14.6315C20.6846 14.466 20.7146 14.2284 20.6372 14.0125C20.5596 13.7964 20.376 13.6078 20.1225 13.5453L16.8224 12.7311C16.6 12.6763 16.4012 12.74 16.2714 12.8698ZM16.3704 12.9688C16.4783 12.8609 16.6411 12.811 16.8166 12.8543L20.1168 13.6685C20.3152 13.7175 20.4581 13.8649 20.5183 14.0327C20.5786 14.2006 20.5577 14.3949 20.4201 14.5325L19.7561 15.1964L20.4534 15.8932C20.6565 16.0962 20.6809 16.4155 20.4907 16.6057L20.0071 17.0892C19.817 17.2794 19.498 17.255 19.2949 17.0521L18.5975 16.3551L17.9341 17.0184C17.7965 17.156 17.6023 17.1769 17.4344 17.1167C17.2665 17.0564 17.1191 16.9136 17.0702 16.7151L16.256 13.415C16.2127 13.2394 16.2625 13.0766 16.3704 12.9688ZM16.4411 13.0395C16.3589 13.1217 16.3178 13.2482 16.3531 13.391L17.1673 16.6912C17.2075 16.8542 17.3289 16.9726 17.4682 17.0225C17.6073 17.0725 17.7585 17.0526 17.8634 16.9477L18.5974 16.2137L19.3656 16.9814C19.5375 17.1532 19.7928 17.1621 19.9364 17.0185L20.42 16.535C20.5636 16.3913 20.5547 16.1358 20.3827 15.964L19.6147 15.1964L20.3494 14.4618C20.4543 14.3569 20.4742 14.2057 20.4242 14.0665C20.3742 13.9272 20.2559 13.8058 20.0928 13.7656L16.7927 12.9514C16.6499 12.9162 16.5234 12.9572 16.4411 13.0395ZM16.6108 13.2092C16.5761 13.2439 16.5578 13.2981 16.5734 13.3613L17.3876 16.6615C17.4055 16.7341 17.4597 16.7872 17.5222 16.8096C17.5846 16.832 17.6494 16.8223 17.6937 16.778L18.5787 15.893L19.5166 16.8303C19.5948 16.9084 19.7065 16.909 19.7667 16.8488L20.2502 16.3653C20.3104 16.3051 20.3098 16.1933 20.2316 16.1152L19.2938 15.1779L20.1796 14.2921C20.2239 14.2478 20.2336 14.183 20.2112 14.1206C20.1888 14.0581 20.1357 14.0039 20.063 13.986L16.7629 13.1718C16.6997 13.1562 16.6455 13.1745 16.6108 13.2092ZM16.5401 13.1385C16.6004 13.0781 16.6909 13.051 16.7869 13.0747L20.087 13.8889C20.1951 13.9155 20.2726 13.9957 20.3053 14.0868C20.338 14.178 20.3273 14.2858 20.2503 14.3628L19.4352 15.1779L20.3023 16.0444C20.4116 16.1537 20.4277 16.3293 20.3209 16.436L19.8374 16.9196C19.7307 17.0263 19.5552 17.0102 19.4459 16.901L18.5788 16.0344L17.7644 16.8487C17.6874 16.9257 17.5796 16.9364 17.4884 16.9037C17.3973 16.871 17.3171 16.7935 17.2905 16.6854L16.4763 13.3853C16.4526 13.2893 16.4797 13.1988 16.5401 13.1385Z" fill="white"/>
</svg>
