<svg width="24" height="24" viewBox="0 0 24 24" fill="none" xmlns="http://www.w3.org/2000/svg">
<path d="M21.9998 9.34563C21.9998 9.34563 20.8945 8.21491 19.7265 7.05087L17.6015 4.92979H10.6914C3.16804 4.92979 3.61335 4.91808 3.13679 5.14855C2.83993 5.29307 2.39852 5.73838 2.23838 6.05088C1.98838 6.54696 2.00009 6.26963 2.00009 12.0001C2.00009 17.7304 1.98838 17.453 2.23838 17.9491C2.39852 18.2616 2.83993 18.707 3.13679 18.8516C3.61726 19.082 3.04695 19.0703 12.0001 19.0703C20.953 19.0703 20.3828 19.082 20.8632 18.8516C21.16 18.707 21.6014 18.2616 21.7616 17.9491C22.0078 17.461 22 17.5976 22 13.3087L21.9998 9.34563Z" fill="#0060BB"/>
<path d="M8.22379 9.89839H7.11442L6.99333 10.0021C6.84489 10.1297 6.80191 10.3212 6.88786 10.4927C7.00895 10.724 7.06754 10.736 8.25894 10.736H9.33314V12.0124V13.2886H8.25894C7.06754 13.2886 7.00895 13.3006 6.88786 13.532C6.80191 13.7035 6.84489 13.895 6.99333 14.0227L7.11442 14.1263H8.22379H9.33314V15.4027V16.6789H7.34098C5.46991 16.6789 5.3371 16.675 5.15351 16.6032C4.89569 16.5035 4.716 16.3598 4.56366 16.1365C4.34491 15.8134 4.33319 15.6977 4.33319 13.9986V12.451H5.77069C6.63395 12.451 7.26285 12.4351 7.34879 12.4112C7.75504 12.2955 7.75504 11.7291 7.34879 11.6134C7.26285 11.5895 6.63395 11.5736 5.77069 11.5736H4.33319V10.03C4.33319 8.3269 4.34491 8.21123 4.56366 7.88815C4.716 7.66479 4.89569 7.52121 5.15351 7.42149C5.3371 7.3497 5.46991 7.3457 7.34098 7.3457H9.33314V8.62205V9.89839H8.22379Z" fill="#FBB321"/>
<path d="M11.4424 9.89839H12.5517L12.6728 10.0021C12.8212 10.1297 12.8642 10.3212 12.7783 10.4927C12.6572 10.724 12.5986 10.736 11.4072 10.736H10.333V12.0124V13.2886H11.4072C12.5986 13.2886 12.6572 13.3006 12.7783 13.532C12.8642 13.7035 12.8212 13.895 12.6728 14.0227L12.5517 14.1263H11.4424H10.333V15.4027V16.6789H12.3252C14.1962 16.6789 14.329 16.675 14.5126 16.6032C14.7704 16.5035 14.9501 16.3598 15.1025 16.1365C15.3212 15.8134 15.3329 15.6977 15.3329 13.9986V12.451H13.8954C13.0322 12.451 12.4033 12.4351 12.3174 12.4112C11.9111 12.2955 11.9111 11.7291 12.3174 11.6134C12.4033 11.5895 13.0322 11.5736 13.8954 11.5736H15.3329V10.03C15.3329 8.3269 15.3212 8.21123 15.1025 7.88815C14.9501 7.66479 14.7704 7.52121 14.5126 7.42149C14.329 7.3497 14.1962 7.3457 12.3252 7.3457H10.333V8.62205V9.89839H11.4424Z" fill="white"/>
</svg>
