<svg width="24" height="24" viewBox="0 0 24 24" fill="none" xmlns="http://www.w3.org/2000/svg">
<path d="M13.2606 3.5238C11.7495 3.65859 10.2824 4.24482 9.02848 5.21035C8.41718 5.68058 7.62406 6.56461 7.16637 7.28563C6.96886 7.59599 6.58329 8.38598 6.44535 8.76216C6.29173 9.18223 6.12559 9.82802 6.04408 10.3265C5.9469 10.9378 5.9469 12.0976 6.04408 12.709C6.18515 13.5741 6.40772 14.2701 6.78705 15.0445C7.20084 15.8877 7.63032 16.4865 8.32 17.1792C9.0128 17.8689 9.61156 18.2985 10.4548 18.7122C11.2292 19.0916 11.9251 19.3141 12.7903 19.4552C13.4017 19.5523 14.5616 19.5523 15.1728 19.4552C15.6713 19.3737 16.3171 19.2075 16.7371 19.054C17.1133 18.916 17.9033 18.5305 18.2136 18.3329C19.22 17.6934 20.1573 16.756 20.7967 15.7498C20.9943 15.4394 21.3799 14.6494 21.5178 14.2733C22.0852 12.7278 22.1542 10.9879 21.7121 9.386C21.0476 6.97529 19.245 4.97524 16.897 4.04419C15.7936 3.60843 14.4611 3.41721 13.2606 3.5238ZM15.0036 5.18528C15.2073 5.21976 15.5208 5.29186 15.7026 5.34515C16.0098 5.43293 16.6024 5.65237 16.7058 5.71821C16.7684 5.75582 15.4613 7.79349 15.3923 7.76841C14.9095 7.58971 14.3044 7.49254 13.8249 7.51448C12.7621 7.56464 11.8342 7.98471 11.1038 8.74021C10.552 9.3139 10.2103 9.95968 10.041 10.7653C9.9658 11.1321 9.9658 11.9032 10.041 12.2701C10.2668 13.3423 10.8875 14.2733 11.7558 14.8469C12.4706 15.3171 13.1227 15.5115 13.9816 15.5115C14.5144 15.5115 14.7966 15.4677 15.2731 15.3109C17.0161 14.7278 18.1698 12.9315 17.9628 11.1259C17.941 10.9346 17.9221 10.7497 17.919 10.7089C17.9158 10.6431 18.0161 10.5898 18.9911 10.1509C19.5836 9.88445 20.082 9.66814 20.0977 9.66814C20.1635 9.66814 20.3329 10.524 20.3798 11.1008C20.5209 12.9127 19.8249 14.7403 18.4864 16.0726C16.7246 17.8251 14.0975 18.4019 11.7872 17.543C10.8969 17.2107 10.1131 16.709 9.45168 16.0476C7.67734 14.2733 7.09426 11.6431 7.95636 9.32331C8.28865 8.433 8.79023 7.64929 9.45168 6.98783C10.505 5.93451 11.8875 5.27932 13.386 5.12257C13.7809 5.08183 14.5772 5.11318 15.0036 5.18528ZM14.2606 9.13521C14.3892 9.15402 14.4988 9.17282 14.5083 9.18223C14.5176 9.1885 14.2449 9.62739 13.9032 10.1572C13.5646 10.6838 13.2637 11.1697 13.2386 11.2324C13.2104 11.2951 13.1885 11.4268 13.1885 11.524C13.1853 12.0068 13.621 12.3767 14.0975 12.3015C14.1853 12.2858 14.6995 12.0758 15.3014 11.8061C16.4989 11.2669 16.4173 11.2763 16.3797 11.7027C16.2857 12.734 15.596 13.5585 14.5897 13.8438C14.2418 13.941 13.7214 13.941 13.3734 13.8438C12.5144 13.5993 11.9 12.9848 11.6555 12.1259C11.5583 11.778 11.5583 11.2575 11.6555 10.9095C11.9251 9.95655 12.69 9.27627 13.6523 9.13521C13.8782 9.10072 13.9973 9.10072 14.2606 9.13521Z" fill="#0060BB"/>
<path d="M9.41565 15.8011L6.8704 19.8308H5.86297L7.13535 15.8011H4.43544L3.59626 17.3123H2.8407L3.34441 15.0455L2.8407 12.7789H3.59626L4.43596 14.29H7.13585L5.86297 10.2603H6.8704L9.41565 14.29H12.1594C12.3598 14.29 12.5519 14.3696 12.6936 14.5112C12.8353 14.6529 12.915 14.8451 12.915 15.0455C12.915 15.2459 12.8353 15.4381 12.6936 15.5798C12.5519 15.7215 12.3598 15.8011 12.1594 15.8011H9.41565Z" fill="#FBB321"/>
<path fill-rule="evenodd" clip-rule="evenodd" d="M6.87047 10.2604L9.41572 14.2901H12.1595C12.3598 14.2901 12.552 14.3697 12.6937 14.5113C12.8354 14.6531 12.915 14.8452 12.915 15.0456C12.915 15.246 12.8354 15.4382 12.6937 15.5799C12.552 15.7216 12.3598 15.8013 12.1595 15.8013H9.41572L6.87047 19.8309H5.86304L7.13542 15.8013H4.43551L3.59633 17.3124H2.84077L3.34448 15.0456L2.84077 12.779H3.59633L4.43603 14.2901H7.13592L5.86304 10.2604H6.87047ZM6.21561 13.6157L4.94272 9.58594H7.24218L9.78744 13.6157H12.1595C12.5388 13.6157 12.9023 13.7664 13.1704 14.0342L13.1706 14.0344C13.4387 14.3026 13.5895 14.6662 13.5895 15.0456C13.5895 15.425 13.4387 15.7886 13.1706 16.0568C12.9025 16.3249 12.5388 16.4757 12.1595 16.4757H9.78743L7.24218 20.5053H4.94282L6.21521 16.4757H4.83243L3.99325 17.9868H2.00001L2.65359 15.0456L2 12.1046H3.99313L4.83282 13.6157H6.21561Z" fill="white"/>
</svg>
