<svg width="24" height="24" viewBox="0 0 24 24" fill="none" xmlns="http://www.w3.org/2000/svg">
<path d="M6.97875 7.12896C6.82569 7.10491 6.67037 7.15549 6.56083 7.26505L5.07405 8.75186C4.82695 8.99895 4.91462 9.41839 5.24 9.54584L10.3611 11.5517C10.5404 11.6219 10.7444 11.5793 10.8806 11.4431L13.4057 8.91794C13.6859 8.63772 13.5297 8.15793 13.1382 8.09643L6.97875 7.12896Z" fill="url(#paint0_linear_2499_1853)"/>
<path d="M21.656 5.00296C21.2415 4.58847 20.5252 4.54772 19.5838 4.88506C18.9366 5.11712 18.2576 5.50602 17.9327 5.83084L9.39923 14.3644L6.14575 14.555L5.06832 15.6323C4.83236 15.8683 4.89987 16.2665 5.2004 16.4116L6.82496 17.1954C7.01059 17.285 7.23255 17.2474 7.3783 17.1016L8.34548 16.1344L9.76775 16.1599L8.11143 17.8162L8.11651 17.8186L7.26444 18.6707C7.18874 18.7464 7.18874 18.8692 7.26444 18.9449L7.71409 19.3946C7.78981 19.4702 7.91255 19.4702 7.98826 19.3946L8.839 18.5438L8.84373 18.5536L10.5026 16.8947V18.3423L9.55885 19.2861C9.41304 19.4319 9.37544 19.654 9.46516 19.8398L10.2475 21.4588C10.3926 21.7591 10.7907 21.8265 11.0266 21.5906L12.104 20.5131L12.2946 17.2597L20.8281 8.72617C21.1528 8.40137 21.5418 7.72241 21.7738 7.07506C22.1113 6.13394 22.0705 5.41739 21.656 5.00296Z" fill="#0060BB"/>
<path d="M18.605 13.5083C18.5436 13.1169 18.0638 12.9607 17.7836 13.2409L15.2634 15.761C15.1272 15.8972 15.0846 16.1011 15.1548 16.2805L17.151 21.377C17.2785 21.7024 17.6979 21.7901 17.9451 21.543L19.4318 20.0562C19.5414 19.9466 19.592 19.7913 19.5679 19.6383L18.605 13.5083Z" fill="url(#paint1_linear_2499_1853)"/>
<path d="M6.22944 2.69479L6.15838 2.67896L6.08733 2.69479L2.95578 3.39289L2.95548 3.39295C2.63202 3.46537 2.40186 3.75271 2.40186 4.08477V7.90323C2.40186 8.7785 2.8379 9.59653 3.56523 10.0828L5.97683 11.6957L6.15838 11.8172L6.33994 11.6957L8.7515 10.0828V10.0828C9.47846 9.59691 9.91491 8.77844 9.91491 7.90285V4.08477C9.91491 3.75271 9.68474 3.46537 9.36129 3.39295L9.36099 3.39289L6.22944 2.69479ZM5.7373 7.89714L5.96857 8.12913L6.19985 7.89717L7.85513 6.23702L7.93313 6.31522L5.96898 8.28556L4.81306 7.12601L4.89082 7.048L5.7373 7.89714Z" fill="#FBB321"/>
<path fill-rule="evenodd" clip-rule="evenodd" d="M6.1582 2.26733L9.44618 3.00029L9.44648 3.00035L9.44822 3.00074L9.44889 3.00088C9.95598 3.11442 10.3164 3.56475 10.3164 4.08468V7.90277C10.3164 8.91209 9.81336 9.85602 8.97455 10.4167L6.56313 12.0295L6.1582 12.3004L5.75335 12.0295L3.34181 10.4167C2.50268 9.85564 2 8.91217 2 7.90315V4.08468C2 3.56475 2.36045 3.11442 2.86754 3.00089L6.1582 2.26733ZM8.75133 10.0827L8.52811 9.74879C9.14323 9.33763 9.51306 8.64462 9.51306 7.90277V4.08468C9.51306 3.94082 9.41363 3.81672 9.27432 3.78506L9.27342 3.78487M9.27342 3.78487L6.15821 3.09041L3.04307 3.78485C3.04305 3.78485 3.04309 3.78484 3.04307 3.78485C2.90329 3.81618 2.80337 3.94052 2.80337 4.08468V7.90315C2.80337 8.64467 3.17278 9.33726 3.78832 9.74879L6.15821 11.3338L8.52811 9.74879L8.75133 10.0827M7.8549 5.66809L8.50023 6.31504L5.96881 8.85444L4.24572 7.12593L4.89065 6.47894L5.96843 7.56012L7.8549 5.66809Z" fill="white"/>
<defs>
<linearGradient id="paint0_linear_2499_1853" x1="13.6113" y1="4.53503" x2="13.6113" y2="22.0474" gradientUnits="userSpaceOnUse">
<stop stop-color="#1070CB"/>
<stop offset="1" stop-color="#025EB6"/>
</linearGradient>
<linearGradient id="paint1_linear_2499_1853" x1="17.3226" y1="12.5672" x2="17.3226" y2="22.0667" gradientUnits="userSpaceOnUse">
<stop stop-color="#1070CB"/>
<stop offset="1" stop-color="#025EB6"/>
</linearGradient>
</defs>
</svg>
