<svg width="24" height="24" viewBox="0 0 24 24" fill="none" xmlns="http://www.w3.org/2000/svg">
<path d="M16.0954 5.07349C16.5149 5.07349 16.8553 5.41394 16.8553 5.83343V9.34818H17.6152H19.1352H19.8951C20.3146 9.34818 20.655 9.68864 20.655 10.1081V18.4296C20.655 18.8491 20.3146 19.1895 19.8951 19.1895H19.1352V19.7975C19.1352 19.8814 19.067 19.9494 18.9831 19.9494H17.7672C17.6832 19.9494 17.6152 19.8814 17.6152 19.7975V19.1895H10.0157V19.7975C10.0157 19.8814 9.9477 19.9494 9.86376 19.9494H8.64784C8.5639 19.9494 8.49585 19.8814 8.49585 19.7975V19.1895H7.73591C7.31641 19.1895 6.97595 18.8491 6.97595 18.4296V10.1081C6.97595 9.68864 7.31641 9.34818 7.73591 9.34818H8.49585H10.0157H10.7757V5.83343C10.7757 5.41394 11.1162 5.07349 11.5356 5.07349H16.0954ZM11.5356 11.78C11.5356 11.6961 11.4676 11.628 11.3837 11.628H10.1677C10.0838 11.628 10.0157 11.6961 10.0157 11.78V16.7577C10.0157 16.8416 10.0838 16.9096 10.1677 16.9096H11.3837C11.4676 16.9096 11.5356 16.8416 11.5356 16.7577V11.78ZM17.6152 11.78C17.6152 11.6961 17.5472 11.628 17.4633 11.628H16.2473C16.1634 11.628 16.0954 11.6961 16.0954 11.78V16.7577C16.0954 16.8416 16.1634 16.9096 16.2473 16.9096H17.4633C17.5472 16.9096 17.6152 16.8416 17.6152 16.7577V11.78ZM15.3353 6.59338H12.2957V9.34818H15.3353V6.59338Z" fill="#0060BB"/>
<path d="M6.2193 4.74466L6.15561 4.73047L6.09194 4.74466L3.28538 5.37031L3.28511 5.37037C2.99522 5.43527 2.78894 5.69279 2.78894 5.99039V9.41258C2.78894 10.197 3.17973 10.9301 3.83158 11.366L5.99291 12.8115L6.15561 12.9204L6.31833 12.8115L8.47962 11.366C8.4796 11.366 8.47964 11.366 8.47962 11.366C9.13115 10.9305 9.5223 10.197 9.5223 9.41224V5.99039C9.5223 5.69279 9.31602 5.43527 9.02613 5.37037L9.02586 5.37031L6.2193 4.74466ZM5.77824 9.40712L5.98551 9.61503L6.19278 9.40714L7.67628 7.91928L7.74618 7.98936L5.98587 9.75523L4.94991 8.71601L5.01961 8.6461L5.77824 9.40712Z" fill="#FBB321"/>
<path fill-rule="evenodd" clip-rule="evenodd" d="M6.15562 4.36157L6.2976 4.39321L9.10242 5.01847L9.10269 5.01853L9.10421 5.01887L9.1048 5.01899C9.55927 5.12075 9.88231 5.52434 9.88231 5.99032V9.41217C9.88231 10.3167 9.43145 11.1627 8.67969 11.6652L6.15562 13.3534L5.79278 13.1107L3.63151 11.6652C3.63149 11.6651 3.63153 11.6652 3.63151 11.6652C2.87949 11.1624 2.42896 10.3168 2.42896 9.41251V5.99032C2.42896 5.52434 2.752 5.12075 3.20647 5.019L6.15562 4.36157ZM8.30226 11.1007C8.30225 11.1007 8.30227 11.1007 8.30226 11.1007ZM8.30226 11.1007L8.27958 11.0666C8.83087 10.6981 9.16231 10.077 9.16231 9.41217V5.99032C9.16231 5.86138 9.07319 5.75015 8.94832 5.72179L8.94755 5.72162M8.94755 5.72162L6.15563 5.09923L3.36378 5.7216C3.36376 5.72161 3.3638 5.7216 3.36378 5.7216C3.23851 5.74968 3.14896 5.86111 3.14896 5.99032V9.41251C3.14896 10.0771 3.48003 10.6978 4.03168 11.0666L6.15563 12.4871L8.27958 11.0666L8.30226 11.1007C8.30225 11.1007 8.30227 11.1007 8.30226 11.1007M7.67624 7.4094L8.25459 7.98922L5.98589 10.2651L4.44161 8.71595L5.01962 8.13611L5.98554 9.10507L7.67624 7.4094Z" fill="white"/>
</svg>
