<svg width="24" height="24" viewBox="0 0 24 24" fill="none" xmlns="http://www.w3.org/2000/svg">
<path fill-rule="evenodd" clip-rule="evenodd" d="M20.3333 14.8935V21.1639C20.3333 21.3856 20.2455 21.5983 20.0892 21.755C19.9329 21.9118 19.7209 21.9999 19.4999 21.9999H18.6667C18.4457 21.9999 18.2337 21.9118 18.0774 21.755C17.9211 21.5983 17.8333 21.3856 17.8333 21.1639V20.3278H6.16665V21.1639C6.16665 21.3856 6.07886 21.5983 5.92257 21.755C5.7663 21.9118 5.55434 21.9999 5.33332 21.9999H4.5C4.27898 21.9999 4.06702 21.9118 3.91075 21.755C3.75446 21.5983 3.66667 21.3856 3.66667 21.1639V14.8935L2.63084 14.6343C2.45063 14.5889 2.29067 14.4845 2.17638 14.3376C2.06209 14.1907 2 14.0097 2 13.8233V13.2213C2 13.1104 2.0439 13.0041 2.12204 12.9257C2.20018 12.8473 2.30616 12.8034 2.41666 12.8034H3.97916L4.18152 12.0444L5.76082 12.26L5.69916 12.5391C5.65746 12.6647 5.64608 12.7986 5.66599 12.9293C5.68588 13.0603 5.73649 13.1845 5.81362 13.292C5.89077 13.3995 5.99224 13.4869 6.10968 13.5473C6.22712 13.6077 6.35719 13.6392 6.48916 13.6393H17.5109C17.6428 13.6392 17.7728 13.6077 17.8903 13.5473C18.0078 13.4869 18.1092 13.3995 18.1864 13.292C18.2635 13.1845 18.3141 13.0603 18.334 12.9293C18.3538 12.7986 18.3425 12.6647 18.3008 12.5391L17 8.62304H11.0976L9.77886 6.95093L16.6783 6.95093C17.0177 6.95089 17.3489 7.05478 17.6278 7.2487C17.9068 7.44262 18.1201 7.71733 18.2391 8.03613L20.0208 12.8034H21.5832C21.6938 12.8034 21.7997 12.8473 21.8779 12.9257C21.956 13.0041 22 13.1104 22 13.2213V13.8233C22 14.0097 21.9378 14.1907 21.8235 14.3376C21.7092 14.4845 21.5493 14.5889 21.3691 14.6343L20.3333 14.8935ZM5.33332 17.8197V16.1476C7.26498 16.1476 8.56665 16.778 9.23749 18.0404C9.27144 18.104 9.2884 18.1754 9.2867 18.2476C9.285 18.3197 9.2647 18.3902 9.22779 18.4522C9.19087 18.5141 9.13857 18.5654 9.07602 18.6011C9.01346 18.6367 8.94277 18.6555 8.87081 18.6557H6.16665C5.94565 18.6557 5.73369 18.5675 5.5774 18.4109C5.42113 18.2541 5.33332 18.0414 5.33332 17.8197ZM14.7616 18.0404C15.4341 16.7788 16.7358 16.1476 18.6667 16.1476V17.8197C18.6667 18.0414 18.5788 18.2541 18.4225 18.4109C18.2662 18.5675 18.0543 18.6557 17.8333 18.6557H15.1291C15.0572 18.6557 14.9863 18.637 14.9236 18.6014C14.861 18.5658 14.8085 18.5145 14.7716 18.4525C14.7345 18.3905 14.7142 18.3199 14.7124 18.2478C14.7107 18.1756 14.7276 18.1041 14.7616 18.0404Z" fill="#BECAD6"/>
<path d="M8.54415 6.489V5.53357H6.18936C5.99726 5.53357 5.81209 5.61131 5.67486 5.75117C5.53747 5.8912 5.4595 6.08206 5.4595 6.28199C5.4595 6.48194 5.53747 6.67279 5.67486 6.81281C5.81209 6.95268 5.99726 7.03041 6.18936 7.03041H8.54415V6.489ZM9.01006 6.71145L8.61887 7.03041H9.03298C9.59505 7.03041 10.1332 7.25802 10.5292 7.66167C10.9251 8.06516 11.1467 8.61147 11.1467 9.18018C11.1467 9.74888 10.9251 10.2952 10.5292 10.6987C10.1332 11.1023 9.59505 11.3299 9.03298 11.3299H6.51155C6.38216 11.585 6.18378 11.7997 5.93722 11.9472C5.6307 12.1304 5.26993 12.1976 4.91888 12.1363C4.56788 12.0749 4.25042 11.8892 4.02209 11.6132C3.79386 11.3373 3.66919 10.9888 3.66919 10.6293C3.66919 10.2698 3.79386 9.92124 4.02209 9.64532C4.25042 9.36931 4.56788 9.18362 4.91888 9.12226C5.26993 9.0609 5.6307 9.1281 5.93722 9.3114C6.18378 9.45885 6.38214 9.67354 6.51155 9.9286H9.03298C9.22509 9.9286 9.41025 9.85087 9.54748 9.71099C9.68487 9.57098 9.76284 9.38011 9.76284 9.18018C9.76284 8.98024 9.68487 8.78939 9.54748 8.64936C9.41025 8.5095 9.22509 8.43177 9.03298 8.43177H6.18936C5.6273 8.43177 5.08919 8.20416 4.69314 7.80051C4.29724 7.397 4.07562 6.8507 4.07562 6.28199C4.07562 5.71328 4.29724 5.16698 4.69314 4.76348C5.08919 4.35983 5.6273 4.13222 6.18936 4.13222H8.54415V3.17679V2.57446L9.01006 2.95434L11.0412 4.61045L11.314 4.8329L11.0412 5.05535L9.01006 6.71145Z" fill="#77818C"/>
<path fill-rule="evenodd" clip-rule="evenodd" d="M8.27181 2L9.18198 2.7421L11.2131 4.39821L11.7461 4.83278L11.2131 5.26734L9.35844 6.77957C9.87344 6.85153 10.3536 7.09287 10.7235 7.4698C11.17 7.92487 11.4193 8.54024 11.4193 9.18006C11.4193 9.81987 11.17 10.4352 10.7235 10.8903C10.2767 11.3457 9.66881 11.6032 9.03308 11.6032H6.66954C6.52065 11.8383 6.31849 12.0373 6.0768 12.1818C5.71454 12.3984 5.28772 12.4781 4.87221 12.4054C4.45681 12.3328 4.08182 12.1132 3.81254 11.7877C3.54346 11.4623 3.39685 11.0519 3.39685 10.6292C3.39685 10.2064 3.54345 9.79597 3.81253 9.47065C4.08181 9.14515 4.45681 8.92549 4.87221 8.85287C5.28771 8.78024 5.71454 8.85986 6.0768 9.07648C6.31849 9.22102 6.52065 9.42002 6.66954 9.65515H9.03308C9.15155 9.65515 9.26696 9.60726 9.35342 9.51913C9.4402 9.4307 9.4905 9.30887 9.4905 9.18006C9.4905 9.05125 9.44022 8.92944 9.35343 8.84099C9.26696 8.75286 9.15156 8.70497 9.03308 8.70497H6.18946C5.55374 8.70497 4.94588 8.4475 4.49908 7.99213C4.05257 7.53705 3.80328 6.92169 3.80328 6.28187C3.80328 5.64204 4.05257 5.02669 4.49908 4.57161C4.94588 4.11624 5.55374 3.85876 6.18946 3.85876H8.27181V2ZM8.81669 6.51687L8.83833 6.49922L10.8822 4.83278L8.81669 3.14868V4.40542H6.18946C5.70106 4.40542 5.2327 4.60317 4.88739 4.9551C4.5421 5.30702 4.34816 5.78427 4.34816 6.28187C4.34816 6.77947 4.5421 7.25672 4.88739 7.60864C5.2327 7.96057 5.70106 8.15831 6.18946 8.15831H9.03308C9.29882 8.15831 9.55374 8.26589 9.74174 8.4575C9.92972 8.64909 10.0354 8.90899 10.0354 9.18006C10.0354 9.45112 9.92973 9.71104 9.74173 9.90262C9.55373 10.0942 9.29881 10.2018 9.03308 10.2018H6.34462L6.26885 10.0525C6.16245 9.84273 5.99961 9.66673 5.79783 9.54606C5.54707 9.39611 5.25234 9.34132 4.96574 9.39141C4.73238 9.43221 4.51669 9.54039 4.34345 9.70146L4.13633 9.95184C4.00986 10.1531 3.94173 10.388 3.94173 10.6292C3.94173 10.9253 4.04447 11.212 4.23183 11.4385C4.41922 11.6651 4.67916 11.8168 4.96574 11.8669C5.19286 11.9066 5.4251 11.8804 5.63651 11.7932L5.94588 11.6082C6.07985 11.4986 6.18989 11.3615 6.26884 11.2058L6.34461 11.0565H9.03308C9.52149 11.0565 9.98985 10.8587 10.3352 10.5068C10.6804 10.1549 10.8744 9.67765 10.8744 9.18006C10.8744 8.68246 10.6804 8.2052 10.3352 7.85329C9.98985 7.50136 9.52149 7.30362 9.03308 7.30362H6.18946C5.92373 7.30362 5.6688 7.19604 5.48081 7.00444C5.29282 6.81284 5.18716 6.55294 5.18716 6.28187C5.18716 6.01081 5.29282 5.7509 5.48081 5.5593C5.66881 5.3677 5.92373 5.26012 6.18946 5.26012H8.81669V6.51687ZM8.27181 6.75696V5.80678H6.18946C6.07099 5.80678 5.95559 5.85467 5.86912 5.94279C5.78233 6.03125 5.73204 6.15307 5.73204 6.28187C5.73204 6.41068 5.78233 6.53248 5.86912 6.62094C5.95558 6.70907 6.07099 6.75696 6.18946 6.75696H8.27181Z" fill="white"/>
</svg>
