<svg width="24" height="24" viewBox="0 0 24 24" fill="none" xmlns="http://www.w3.org/2000/svg">
<path d="M6.96354 8.49644C8.06383 8.5031 8.96146 7.65814 8.96845 6.60918C8.97543 5.56021 8.08913 4.70445 6.98884 4.69779C5.88854 4.69113 4.99092 5.53609 4.98393 6.58505C4.97694 7.63402 5.86324 8.48978 6.96354 8.49644Z" fill="#FBB321"/>
<path d="M7.76995 11.6546C7.15157 10.7674 7.40464 9.57031 8.33521 8.98078C9.26578 8.39124 10.5214 8.63251 11.1398 9.51967L12.97 12.1453L9.60011 14.2802L7.76995 11.6546Z" fill="#FBB321"/>
<path d="M15.0603 10.6484C15.6752 10.4953 16.304 10.8465 16.4646 11.4328C16.6252 12.0192 16.2569 12.6186 15.6418 12.7717L9.60422 14.2749L9.02259 12.1517L15.0603 10.6484Z" fill="#FBB321"/>
<path d="M21.6526 18.8809C22.0673 19.3181 22.0616 19.9854 21.6394 20.4162C21.1731 20.8917 20.3835 20.8962 19.9112 20.4261L18.0117 18.5355L19.0276 16.1138L21.6526 18.8809Z" fill="#FBB321"/>
<path fill-rule="evenodd" clip-rule="evenodd" d="M2.27691 6.99582C1.96141 7.36343 1.91089 7.8766 2.14914 8.29376L9.22267 20.6791C9.30862 20.868 9.50594 21 9.73562 21H15.7013C16.0965 21 16.4484 20.762 16.5791 20.4065L18.8144 14.3177C19.0329 13.7221 18.4756 13.1312 17.8313 13.2756L9.22325 15.2042L3.7322 7.07472C3.40095 6.5843 2.66434 6.54437 2.27691 6.99582Z" fill="#0060BB"/>
<path d="M18.2451 3.01722C17.1101 3.1733 16.1605 3.8333 15.6786 4.801C15.5461 5.06708 15.4588 5.33019 15.3965 5.65572C15.3575 5.85789 15.3575 6.46437 15.3965 6.66653C15.5322 7.36666 15.8315 7.92112 16.3335 8.39976C16.834 8.87692 17.4235 9.16679 18.1438 9.29165C18.3324 9.32435 18.8329 9.33624 19.0419 9.31394C19.9634 9.21287 20.7976 8.758 21.3433 8.05787C21.6661 7.64611 21.8625 7.20761 21.9638 6.67397C22.0044 6.46289 22.0122 6.01694 21.9795 5.77465C21.797 4.39816 20.7196 3.30411 19.2945 3.04546C19.1121 3.01276 19.0263 3.00532 18.7363 3.00087C18.5024 2.99789 18.3465 3.00235 18.2451 3.01722ZM18.8033 4.28222C18.8797 4.31194 18.9437 4.3714 18.9795 4.44424C19.006 4.49924 19.0091 4.55424 19.0091 5.23208V5.96046L19.6079 6.24585C20.1178 6.48963 20.2144 6.54167 20.2612 6.5937C20.4047 6.75275 20.3548 6.98315 20.1551 7.07531C20.0039 7.14667 20.0009 7.14667 19.2072 6.76909C18.7409 6.54761 18.4899 6.41977 18.4526 6.38559C18.3511 6.29193 18.3543 6.32464 18.3543 5.36586C18.3543 4.53788 18.3559 4.49181 18.384 4.43978C18.4665 4.28816 18.6475 4.21979 18.8033 4.28222Z" fill="#0060BB"/>
</svg>
