<svg width="24" height="24" viewBox="0 0 24 24" fill="none" xmlns="http://www.w3.org/2000/svg">
<path d="M16.4271 2.48101C16.4989 2.51395 16.49 2.52402 16.309 2.64274C14.6097 3.74887 13.0676 5.48634 12.1272 7.35945C12.0049 7.60249 11.9637 7.65344 11.848 7.70612C11.6019 7.81273 11.4911 7.78032 10.9384 7.45442C9.87887 6.82289 9.52666 6.5813 9.41399 6.4039C9.29038 6.20884 9.27817 6.14011 9.26871 5.66922C9.26261 5.21851 9.29924 5.01815 9.41386 4.85577C9.70555 4.44105 10.6189 3.64577 11.2242 3.27778C12.3187 2.61402 13.547 2.26448 14.8122 2.25416C15.1416 2.25302 16.2731 2.41322 16.4271 2.48101Z" fill="#0060BB"/>
<path d="M17.6352 3.66584C17.8657 4.80435 17.9303 5.9387 17.8305 7.09985C17.7804 7.71103 17.4684 9.21948 17.2779 9.78535C17.1205 10.25 17.0593 10.3268 16.7741 10.4191C16.5622 10.4869 16.3854 10.4425 15.7722 10.1673C15.4806 10.0362 15.2306 9.93599 15.2146 9.94449C15.2014 9.95734 14.5569 11.4 13.7835 13.1518C13.0058 14.9067 12.3691 16.3468 12.3614 16.3492C12.353 16.3554 11.8594 16.3492 11.8594 16.3492C11.8594 16.3492 10.9404 16.4305 11.0936 16.2759C11.1911 16.0796 14.0932 9.49403 14.1026 9.44218C14.1087 9.40884 14.1071 9.3779 14.0967 9.37594C14.0371 9.36482 13.0777 8.86033 12.968 8.78624C12.8081 8.66836 12.7039 8.46506 12.6884 8.23235C12.679 8.06588 12.6915 8.03755 12.9263 7.62553C13.9505 5.85151 15.3801 4.41742 17.1013 3.43222C17.3001 3.3161 17.4831 3.22765 17.5042 3.23157C17.5287 3.23614 17.5874 3.43095 17.6352 3.66584Z" fill="#0060BB"/>
<path d="M18.9389 3.72349C20.8549 5.28444 21.9085 7.79147 21.7123 10.3247C21.675 10.8131 21.6305 10.8939 21.2298 11.241C20.6799 11.7151 20.5521 11.7454 19.9362 11.5261C18.1921 10.9106 18.0017 10.817 17.9077 10.5209L17.8568 10.3526L18.0029 9.93871C18.2232 9.32184 18.3708 8.75724 18.5083 8.00496C18.7533 6.66508 18.7874 5.3633 18.6106 4.08025C18.5154 3.40457 18.5164 3.42021 18.5521 3.42689C18.5701 3.43024 18.7423 3.56296 18.9389 3.72349Z" fill="#0060BB"/>
<path d="M13.1797 17.0696C15.7221 17.2444 18.2517 18.0593 20.883 19.5498C21.6839 20.003 21.8915 20.2136 21.9805 20.6747C22.0949 21.251 21.6881 21.9188 21.222 21.9188C21.1754 21.9188 20.7686 21.7956 20.3195 21.6406C19.2517 21.2789 19.0186 21.2311 18.5102 21.2551C18.0822 21.2748 17.9254 21.3186 16.5822 21.7638L15.9466 21.9785L15.417 21.9745C14.8322 21.9745 14.9848 22.0103 13.434 21.5014C12.828 21.3027 12.6924 21.271 12.3323 21.2551C11.8153 21.2311 11.5992 21.2748 10.5187 21.6406C9.02297 22.1454 8.92975 22.1414 6.92978 21.4816C6.40436 21.3107 6.23912 21.271 5.91285 21.2551C5.3832 21.2272 5.16286 21.271 4.11626 21.6247C3.09508 21.9666 3.02729 21.9745 2.74763 21.736C2.52306 21.5451 2.39594 21.2311 2.39594 20.8655C2.3917 20.3329 2.59509 20.0745 3.37898 19.6174C5.79845 18.2103 8.26451 17.3677 10.7348 17.1093C11.2942 17.0537 12.6119 17.0297 13.1797 17.0696Z" fill="#0060BB"/>
<path d="M6.78971 2.47575L6.71373 2.4585L6.63776 2.47575L3.055 3.28903L3.05468 3.2891C2.69555 3.37099 2.44312 3.69467 2.44312 4.06515V8.51377C2.44312 9.52204 2.93636 10.4656 3.76091 11.0269L6.52003 12.9059L6.71373 13.0379L6.90742 12.9059L9.66646 11.027C10.4906 10.4661 10.9844 9.522 10.9844 8.51333V4.06515C10.9844 3.69467 10.7319 3.37099 10.3728 3.2891L10.3725 3.28903L6.78971 2.47575Z" fill="#FBB321"/>
<path fill-rule="evenodd" clip-rule="evenodd" d="M11.4273 4.06519C11.4273 3.4883 11.034 2.98127 10.4703 2.85274L10.4669 2.852L6.88673 2.03931L6.71361 2L2.9611 2.85182L2.96058 2.85193L2.95697 2.85275C2.39322 2.9813 2 3.48835 2 4.06519V8.51381C2 9.66941 2.56529 10.7526 3.5132 11.3979L6.2723 13.2769L6.71362 13.5777L10.065 11.2951L10.0665 11.2879C10.9219 10.6339 11.4273 9.60594 11.4273 8.51337V4.06519ZM6.71363 2.91707L3.15195 3.72555C3.06326 3.75115 2.88586 3.85492 2.88586 4.06519V8.51381C2.88586 9.37475 3.30707 10.1786 4.00831 10.6559L6.71362 12.4983L9.41223 10.6606C9.4153 10.6584 9.4184 10.6563 9.42153 10.6542C10.1208 10.177 10.5415 9.37368 10.5415 8.51337V6.28928V4.11764C10.5415 3.89631 10.4129 3.75347 10.2673 3.72406L6.71363 2.91707Z" fill="white"/>
<path d="M9.4075 6.66359L8.65477 5.89532L6.4965 8.09954L5.26341 6.83995L4.5112 7.60833L6.49692 9.63671L9.4075 6.66359Z" fill="white"/>
</svg>
