<svg width="24" height="24" viewBox="0 0 24 24" fill="none" xmlns="http://www.w3.org/2000/svg">
<path d="M11.9142 3.02577C11.8731 3.04223 11.8128 3.08925 11.7814 3.12688C11.7477 3.16451 11.2558 3.87941 10.6842 4.71658C9.97281 5.76307 9.6352 6.23574 9.61108 6.23104C9.5918 6.22634 9.03714 5.92062 8.3812 5.55377C7.20437 4.89531 7.18508 4.8859 7.05003 4.8859C6.90293 4.8859 6.82334 4.92588 6.73412 5.04346C6.63766 5.16811 6.6473 5.22454 7.0621 6.96709L7.40595 8.40851C7.43621 8.53539 7.55041 8.625 7.68184 8.625H12.0708H16.4598C16.5913 8.625 16.7055 8.53539 16.7358 8.40851L17.0797 6.96709C17.4944 5.22454 17.504 5.16811 17.4076 5.04346C17.316 4.92588 17.2387 4.8859 17.0892 4.8859H16.9493L15.9052 5.56317C14.9019 6.21693 14.861 6.24045 14.82 6.19811C14.7984 6.1746 14.2292 5.46441 13.5564 4.62252C12.8835 3.77828 12.3071 3.07045 12.2735 3.04693C12.1915 2.99519 12.0058 2.98343 11.9142 3.02577Z" fill="#77818C"/>
<path d="M16.324 9.04688H7.81825C7.66167 9.04688 7.53473 9.17279 7.53473 9.32812V9.75C7.53473 9.90533 7.66167 10.0312 7.81825 10.0312H16.324C16.4806 10.0312 16.6075 9.90533 16.6075 9.75V9.32812C16.6075 9.17279 16.4806 9.04688 16.324 9.04688Z" fill="#77818C"/>
<path d="M2 7.72998H3.45694V19.949H2V7.72998Z" fill="#BECAD6"/>
<path d="M21.9998 19.5547V20.4375C21.9998 20.7481 21.7459 20.9999 21.4328 20.9999H2.56704C2.25388 20.9999 2 20.7481 2 20.4375V19.5547H21.9998Z" fill="#BECAD6"/>
<path d="M20.5432 7.33569H21.4331C21.7462 7.33569 22.0002 7.58754 22.0002 7.8982V19.7106H20.5432V7.33569Z" fill="#BECAD6"/>
<path d="M18.5031 8.6496C18.3247 8.6496 18.1907 8.48822 18.2248 8.31458L18.3982 7.43182C18.424 7.29971 18.5407 7.20435 18.6765 7.20435H21.433C21.7461 7.20435 22 7.45619 22 7.76684V8.6496H18.5031Z" fill="#BECAD6"/>
<path d="M2 8.6496V7.76685C2 7.45619 2.25388 7.20435 2.56704 7.20435H5.4571C5.59287 7.20435 5.70959 7.29982 5.73544 7.43205L5.90802 8.3148C5.94196 8.48838 5.80793 8.6496 5.62968 8.6496H2Z" fill="#BECAD6"/>
<path d="M7.05152 17.9974C6.94869 17.9974 6.86703 17.9705 6.80656 17.9165C6.74607 17.8625 6.70372 17.7994 6.67954 17.7274L4.82869 11.9675C4.81659 11.9375 4.81055 11.9105 4.81055 11.8865C4.81055 11.8385 4.82869 11.7965 4.86498 11.7605C4.90731 11.7185 4.95571 11.6975 5.01015 11.6975H6.13517C6.23194 11.6975 6.30755 11.7245 6.36199 11.7785C6.41643 11.8325 6.44969 11.8835 6.46179 11.9315L7.74105 16.0894L9.02939 11.9315C9.04753 11.8835 9.08079 11.8325 9.12919 11.7785C9.18363 11.7245 9.25923 11.6975 9.35601 11.6975H10.481C10.5355 11.6975 10.5808 11.7185 10.6171 11.7605C10.6595 11.7965 10.6806 11.8385 10.6806 11.8865C10.6806 11.9105 10.6746 11.9375 10.6625 11.9675L8.81164 17.7274C8.78744 17.7994 8.7451 17.8625 8.68462 17.9165C8.63019 17.9705 8.54853 17.9974 8.43966 17.9974H7.05152Z" fill="#BECAD6"/>
<path d="M11.4708 17.9974C11.4043 17.9974 11.3499 17.9766 11.3075 17.9345C11.2652 17.8925 11.244 17.8385 11.244 17.7725V11.9225C11.244 11.8565 11.2652 11.8025 11.3075 11.7605C11.3499 11.7185 11.4043 11.6975 11.4708 11.6975H12.6866C12.7531 11.6975 12.8075 11.7185 12.8499 11.7605C12.8923 11.8025 12.9135 11.8565 12.9135 11.9225V17.7725C12.9135 17.8385 12.8923 17.8925 12.8499 17.9345C12.8075 17.9766 12.7531 17.9974 12.6866 17.9974H11.4708Z" fill="#BECAD6"/>
<path d="M14.129 17.9974C14.0625 17.9974 14.0081 17.9766 13.9657 17.9345C13.9235 17.8925 13.9023 17.8385 13.9023 17.7725V11.9225C13.9023 11.8565 13.9235 11.8025 13.9657 11.7605C14.0081 11.7185 14.0625 11.6975 14.129 11.6975H16.6694C17.1715 11.6975 17.607 11.7755 17.9759 11.9315C18.351 12.0815 18.6413 12.3095 18.8469 12.6154C19.0587 12.9214 19.1645 13.3085 19.1645 13.7765C19.1645 14.2385 19.0587 14.6195 18.8469 14.9194C18.6413 15.2195 18.351 15.4414 17.9759 15.5854C17.607 15.7294 17.1715 15.8014 16.6694 15.8014H15.5898V17.7725C15.5898 17.8385 15.5656 17.8925 15.5172 17.9345C15.4749 17.9766 15.4204 17.9974 15.3539 17.9974H14.129ZM15.5625 14.5594H16.6241C16.8842 14.5594 17.0898 14.4935 17.2411 14.3614C17.3983 14.2295 17.477 14.0285 17.477 13.7585C17.477 13.5306 17.4105 13.3385 17.2774 13.1825C17.1442 13.0266 16.9265 12.9485 16.6241 12.9485H15.5625V14.5594Z" fill="#BECAD6"/>
</svg>
