<svg width="24" height="24" viewBox="0 0 24 24" fill="none" xmlns="http://www.w3.org/2000/svg">
<path d="M9.5822 3.68063H10.7547V2H9.5822V3.68063Z" fill="#77818C"/>
<path d="M6.36486 3.01229C6.11081 3.16081 5.89585 3.28979 5.88412 3.30151C5.84895 3.33668 6.6619 4.7359 6.71271 4.72809C6.79479 4.70464 7.70154 4.17309 7.68982 4.15355C7.47876 3.76271 6.86905 2.74261 6.85341 2.74652C6.83778 2.74652 6.61891 2.86768 6.36486 3.01229Z" fill="#77818C"/>
<path d="M13.2326 3.12221C13.1114 3.33325 12.9238 3.65375 12.8183 3.83353C12.7127 4.01332 12.6345 4.16576 12.6384 4.16966C12.6463 4.17748 12.8691 4.30646 13.1348 4.4628C13.5334 4.69729 13.6234 4.73639 13.6663 4.69339C13.725 4.62304 14.4754 3.32153 14.4597 3.3098C14.4284 3.28245 13.4944 2.74309 13.4748 2.74309C13.4631 2.74309 13.3538 2.91506 13.2326 3.12221Z" fill="#77818C"/>
<path d="M9.59369 4.77879C7.75282 4.99375 6.17772 6.2757 5.56019 8.05795C5.2397 8.97643 5.2397 10.2037 5.55629 11.1534C5.75951 11.7592 6.12692 12.3885 6.5412 12.838L6.74835 13.0686L6.91251 12.838C7.69028 11.7632 9.01915 11.0674 10.2855 11.0674H10.6255L10.7701 10.8212C10.9968 10.4343 11.2704 10.0942 11.6222 9.7542C12.3882 9.01943 13.3028 8.57777 14.3737 8.42535C14.6316 8.39016 14.8427 8.35499 14.8505 8.35108C14.8817 8.32373 14.6395 7.69056 14.4753 7.37788C13.553 5.58783 11.5948 4.54427 9.59369 4.77879Z" fill="#77818C"/>
<path d="M3.56684 5.81501C3.4105 6.0847 3.28934 6.31139 3.29716 6.31529C3.39878 6.40127 4.70419 7.12043 4.72764 7.10479C4.77454 7.07743 5.28264 6.19804 5.28264 6.14722C5.28264 6.10815 3.95378 5.32255 3.89124 5.32255C3.8717 5.32255 3.72709 5.54533 3.56684 5.81501Z" fill="#77818C"/>
<path d="M15.7182 5.72087C15.3429 5.93582 15.0304 6.11953 15.0225 6.12344C14.9991 6.14298 15.5853 7.12009 15.6204 7.11617C15.6869 7.11617 16.9846 6.35013 17.0002 6.30323C17.0197 6.24851 16.492 5.32612 16.4413 5.3222C16.4217 5.3222 16.0934 5.50199 15.7182 5.72087Z" fill="#77818C"/>
<path d="M2.56642 10.1882L3.39891 10.1999L4.2275 10.2077V9.03517H2.54297L2.56642 10.1882Z" fill="#77818C"/>
<path d="M4.02039 12.4709C3.66081 12.682 3.34814 12.8696 3.3325 12.8892C3.29342 12.9282 3.80542 13.8507 3.87577 13.8741C3.92659 13.8937 5.24763 13.1354 5.27108 13.0767C5.29063 13.026 4.7669 12.1114 4.71218 12.0997C4.69263 12.0918 4.37997 12.2599 4.02039 12.4709Z" fill="#77818C"/>
<path d="M14.604 9.5667C13.1345 9.78557 12.0791 10.6063 11.5085 11.9782L11.3678 12.3261L11.1294 12.2909C10.9965 12.2752 10.6448 12.2596 10.3438 12.2635C9.85917 12.2675 9.75755 12.2792 9.46441 12.3729C8.37006 12.7286 7.65091 13.5142 7.33823 14.6946L7.24835 15.0345L6.84187 15.0581C6.61908 15.0737 6.35722 15.1127 6.25952 15.148C5.48955 15.4294 4.99318 16.2579 5.12216 17.0356C5.25114 17.8017 5.83739 18.3802 6.59173 18.4935C6.77542 18.521 8.88598 18.5327 13.1188 18.521C19.0166 18.5131 19.384 18.5053 19.6068 18.4388C20.5682 18.1496 21.2562 17.3757 21.4164 16.4104C21.4711 16.0664 21.4711 15.996 21.4164 15.652C21.3226 15.0971 21.1154 14.6984 20.705 14.292C20.236 13.8269 19.8647 13.6471 19.1573 13.5533L18.8251 13.5063L18.7821 13.0999C18.7118 12.4434 18.6219 12.1071 18.3756 11.6147C17.8871 10.6376 17.0076 9.93799 15.9211 9.6566C15.628 9.58233 14.8619 9.52761 14.604 9.5667Z" fill="#BECAD6"/>
<path d="M9.86778 19.7718C9.85216 19.8108 9.67628 20.2212 9.48085 20.6825C9.28153 21.1437 9.12911 21.5345 9.14473 21.5501C9.17601 21.5814 10.1805 22.0152 10.1883 21.9995C10.2156 21.9565 11.1458 19.7562 11.1458 19.7328C11.1458 19.7171 10.8644 19.7053 10.5205 19.7053C9.95768 19.7053 9.89125 19.7132 9.86778 19.7718Z" fill="#BECAD6"/>
<path d="M12.4239 20.5968C12.2168 21.0854 12.0447 21.5035 12.0447 21.5231C12.0447 21.5583 12.9007 21.9451 13.0531 21.9804C13.0844 21.9881 13.2759 21.5856 13.5885 20.8586C13.8582 20.2371 14.0771 19.7212 14.0771 19.7174C14.0771 19.7095 13.7919 19.7057 13.44 19.7057H12.8068L12.4239 20.5968Z" fill="#BECAD6"/>
<path d="M15.6908 19.7718C15.6752 19.8108 15.4993 20.2212 15.304 20.6825C15.1046 21.1437 14.9522 21.5345 14.9679 21.5501C14.999 21.5814 16.0035 22.0152 16.0114 21.9995C16.0152 21.9957 16.238 21.4759 16.5117 20.8466L17.0041 19.7053H16.3592C15.7807 19.7053 15.7144 19.7132 15.6908 19.7718Z" fill="#BECAD6"/>
</svg>
