<svg width="48" height="48" viewBox="0 0 48 48" fill="none" xmlns="http://www.w3.org/2000/svg">
<path d="M11.811 20.5818C12.446 22.6871 13.2146 24.6618 14.05 26.5666C15.487 29.9782 16.4561 31.7828 17.7959 34.0218C19.4333 36.6952 21.2409 39.7392 24.2151 41.7109C26.3872 43.1479 29.0303 43.883 31.57 43.883C35.1488 43.883 38.2232 42.3124 40.1979 40.4714C42.1361 38.6668 44.6455 35.1884 44.6455 28.4015C44.6455 26.0623 45.6814 24.0542 46.45 22.4501C46.45 22.4167 46.4834 22.3499 46.5503 22.2162C46.851 21.5478 47.2186 20.679 47.2186 19.8101C47.2186 19.1752 47.0515 18.44 46.6171 17.8051C45.9488 16.6689 44.7457 16.2678 43.6399 16.2678C41.0667 16.2678 39.2926 18.0724 38.3903 19.9134L38.0895 20.5149C37.7219 19.9803 37.3543 19.4122 37.0536 18.9109C36.1179 17.2734 35.5832 16.1706 35.1153 14.7641C34.7477 13.6613 34.447 12.3914 34.2465 11.3524C33.6784 8.07443 32.7427 7.00506 31.2024 6.60405C30.0662 6.30329 28.7295 6.53722 27.7574 7.17215C27.0921 5.66835 25.9559 5 24.449 5C22.3103 5 20.369 6.40354 20.369 8.77924C20.369 9.08 20.4024 9.38076 20.4359 9.74835C20.1685 9.68152 19.8677 9.6481 19.567 9.6481C17.2612 9.6481 15.5538 11.2522 15.5538 13.4273C15.5538 13.9286 15.6207 14.4967 15.7877 15.1651C15.5872 15.1316 15.3867 15.1316 15.1862 15.1316C14.05 15.1985 13.0141 15.6329 12.2758 16.5352C11.5437 17.4041 11.2429 18.7408 11.811 20.5818Z" fill="#1F1F1F"/>
<path d="M13.7157 19.9802C13.4149 19.0111 13.4484 18.2759 13.816 17.8081C14.1836 17.3736 14.6848 17.1731 15.2863 17.1397C16.3223 17.1063 16.7233 17.8415 17.3248 19.7463C17.6924 20.9493 18.4276 22.6901 18.862 23.6592C19.4301 24.8288 20.2322 26.3995 20.5998 26.9372C20.9005 27.405 21.1679 27.5387 21.4686 27.5387C22.0033 27.5387 22.4043 27.2379 22.4043 26.7033C22.4043 26.4025 22.1036 25.9012 21.9365 25.6005C21.6357 25.0324 21.0008 23.8962 20.5663 22.9271C20.0985 21.8577 19.5638 20.521 19.1294 19.3149C18.862 18.6131 18.5613 17.6106 18.2605 16.6081C17.7927 15.0709 17.5587 14.1352 17.5587 13.4304C17.5587 12.361 18.3608 11.6592 19.5638 11.6592C20.4327 11.6592 21.0008 12.0936 21.3684 13.6643C21.6691 15.1012 22.2038 17.4435 22.9724 19.2815C23.4737 20.4845 24.2089 22.0916 24.6433 22.8936C24.9106 23.3615 25.2114 23.7625 25.2114 23.9296C25.2114 24.1635 24.777 24.5311 24.4094 25.0324C24.1755 25.3331 24.0752 25.5336 24.0752 25.7676C24.0752 25.9681 24.2089 26.1686 24.4094 26.4359C24.6099 26.7033 24.8104 26.9706 25.0443 26.9706C25.2114 26.9706 25.3117 26.9038 25.4119 26.7701C26.4479 25.4668 27.5841 24.5645 28.8904 23.8263C30.4276 22.9574 32.0013 22.523 33.2377 22.2557C33.8393 22.122 34.0063 21.9883 34.0063 21.6542C34.0063 21.2531 33.7056 21.0192 33.3046 20.9858C33.0038 20.9524 32.7365 20.9858 32.2686 21.0192C31.9344 21.0526 31.7674 20.8855 31.5668 20.4511C30.9653 19.1812 29.7957 17.0395 29.0939 14.2992C28.7932 13.1296 28.5258 11.8931 28.3587 10.286C28.2585 9.55086 28.3922 9.28352 28.7598 8.94934C29.2276 8.54833 30.0631 8.38124 30.698 8.54833C31.4666 8.74884 31.8676 9.35035 32.2686 11.6926C32.4691 12.7954 32.8033 14.199 33.2043 15.405C33.7056 16.9423 34.3405 18.2152 35.3096 19.9195C35.8443 20.8552 36.5127 21.8243 37.2144 22.763C37.0808 23.164 36.8468 23.4314 36.0782 24.0663C35.3096 24.7012 34.541 25.3696 33.8393 26.6061C33.338 27.5083 33.1041 28.5109 33.1041 29.1792C33.1041 29.8141 33.2377 29.9478 33.6387 29.9478C34.3405 29.9478 34.9086 29.8142 34.942 29.5134C35.1091 28.3104 35.3096 27.5417 35.978 26.6364C36.379 26.1352 37.0808 25.5002 37.6489 24.999C38.7182 24.1301 39.0858 23.6288 39.4534 22.3924C39.6205 21.8243 39.821 21.2896 40.0884 20.7883C40.7233 19.6187 41.8595 18.282 43.6337 18.282C44.2018 18.282 44.6696 18.4491 44.9704 18.9169C45.1375 19.1843 45.2043 19.5519 45.2043 19.8192C45.2043 20.4207 44.7699 21.2562 44.5694 21.6572C43.8342 23.2278 42.6312 25.6369 42.6312 28.4106C42.6312 34.4623 40.4924 37.4729 38.8185 39.0101C37.181 40.5473 34.6048 41.8871 31.5638 41.8871C29.3917 41.8871 27.1496 41.2521 25.3117 40.0491C22.7385 38.3448 21.1314 35.6683 19.4939 32.9949C18.1906 30.8228 17.2884 29.1154 15.8818 25.8071C15.0889 23.8901 14.3506 22.0187 13.7157 19.9802Z" fill="#FFE450"/>
<path d="M22.3101 8.7792C22.3101 7.50932 23.4797 7.00806 24.4488 7.00806C25.4847 7.00806 25.8523 7.50932 26.1197 8.57869C26.3536 9.44755 26.4539 10.2496 26.5541 11.1853C26.6878 12.121 27.1556 14.2627 27.2893 14.7974C27.7906 16.6354 28.7931 18.8106 29.9961 21.4172C29.2944 21.6511 28.3587 22.0521 27.7237 22.3863C26.9217 22.8207 26.7546 22.8207 26.4204 22.1858C25.7187 20.8825 25.2174 19.9134 24.783 18.7741C24.4154 17.8384 24.0478 16.7691 23.747 15.5296C23.2458 13.4243 23.1789 12.8227 22.7779 11.8506C22.544 10.8511 22.3101 9.61464 22.3101 8.7792Z" fill="#FFE450"/>
<path d="M10.3406 31.1631C9.63271 31.6005 5.88081 33.5661 5.03321 33.879C4.42866 34.1038 3.77246 34.0491 3.38663 32.9069C2.91271 31.4942 3.57803 31.16 4.52587 30.7924C5.36435 30.4674 8.84283 29.2097 9.65094 28.9909C10.219 28.839 10.614 29.0304 10.8874 29.714C11.1882 30.4643 10.9816 30.7651 10.3406 31.1631Z" fill="#1F1F1F"/>
<path d="M7.24788 23.2005C6.23927 23.2278 2.04991 23.0486 1.09295 22.9544C0.26054 22.8724 -0.0766752 22.5048 0.014464 21.2987C0.111679 20.0045 0.615983 19.9256 1.4332 20.0045C2.38105 20.0957 6.77092 20.8096 7.46965 21.0253C8.19269 21.2501 8.29295 21.5782 8.20484 22.2101C8.09244 23.0304 7.72181 23.1853 7.24788 23.2005Z" fill="#1F1F1F"/>
<path d="M7.76729 14.7185C6.61286 14.354 3.18602 12.279 2.29286 11.7443C1.48475 11.2583 1.38146 10.8208 1.94349 9.75447C2.44172 8.8127 2.99463 8.64865 3.81488 9.07396C4.76577 9.56915 8.12273 12.1818 8.76374 12.6983C9.38349 13.1965 9.29842 13.4547 8.97336 14.0957C8.6483 14.7368 8.3445 14.9008 7.76729 14.7185Z" fill="#1F1F1F"/>
</svg>
