<svg width="48" height="48" viewBox="0 0 48 48" fill="none" xmlns="http://www.w3.org/2000/svg">
<g clip-path="url(#clip0_1992_242)">
<path d="M48 24C48 10.7453 37.2547 0 24 0C10.7453 0 0 10.7453 0 24C0 35.255 7.74912 44.6995 18.2026 47.2934V31.3344H13.2538V24H18.2026V20.8397C18.2026 12.671 21.8995 8.8848 29.9194 8.8848C31.44 8.8848 34.0637 9.18336 35.137 9.48096V16.129C34.5706 16.0694 33.5866 16.0397 32.3645 16.0397C28.4294 16.0397 26.9088 17.5306 26.9088 21.4061V24H34.7482L33.4013 31.3344H26.9088V47.8243C38.7926 46.3891 48.001 36.2707 48.001 24H48Z" fill="#0866FF"/>
<path d="M33.4002 31.3344L34.7471 24H26.9077V21.406C26.9077 17.5305 28.4284 16.0396 32.3634 16.0396C33.5855 16.0396 34.5695 16.0694 35.1359 16.1289V9.48093C34.0626 9.18237 31.4389 8.88477 29.9183 8.88477C21.8984 8.88477 18.2015 12.671 18.2015 20.8396V24H13.2527V31.3344H18.2015V47.2934C20.0581 47.7542 22.0002 48 23.9989 48C24.9829 48 25.9535 47.9395 26.9068 47.8243V31.3344H33.3992H33.4002Z" fill="white"/>
</g>
<defs>
<clipPath id="clip0_1992_242">
<rect width="48" height="48" fill="white"/>
</clipPath>
</defs>
</svg>
