<svg width="48" height="48" viewBox="0 0 48 48" fill="none" xmlns="http://www.w3.org/2000/svg">
<path fill-rule="evenodd" clip-rule="evenodd" d="M16.3201 0H31.6798C36.4494 0 40.3199 3.8705 40.3199 8.64006C40.3199 11.9825 38.4192 14.8832 35.6403 16.3199C38.4192 17.7567 40.3199 20.6576 40.3199 23.9999C40.3199 28.7695 36.4494 32.64 31.6798 32.64C28.9667 32.64 26.5445 31.3876 24.9602 29.4298V39.3599C24.9602 44.1295 21.0896 48 16.3201 48C11.5505 48 7.67993 44.1295 7.67993 39.3599C7.67993 36.0175 9.58071 33.1167 12.3596 31.6799C9.58071 30.2432 7.67993 27.3423 7.67993 23.9999C7.67993 20.6576 9.58069 17.7567 12.3596 16.3199C9.5807 14.8832 7.67993 11.9825 7.67993 8.64006C7.67993 3.8705 11.5505 0 16.3201 0ZM9.59993 8.64006C9.59993 4.9309 12.6108 1.92 16.3201 1.92H23.0397V15.3599H16.3201L16.2992 15.3599C12.5995 15.3487 9.59993 12.3422 9.59993 8.64006ZM23.0402 23.9086C23.0399 23.939 23.0397 23.9694 23.0397 23.9999C23.0397 24.0304 23.0399 24.0609 23.0402 24.0913V30.7198H16.32C12.6108 30.72 9.59993 27.7091 9.59993 23.9999C9.59993 20.2977 12.5997 17.2911 16.2994 17.2799L16.3201 17.2799H23.0397L23.0402 23.9086ZM24.9602 24.0804V23.9195C25.0032 20.2565 27.9826 17.2947 31.6523 17.2799H31.6798C31.6867 17.2799 31.6936 17.2799 31.7005 17.2799C35.4002 17.2911 38.3999 20.2977 38.3999 23.9999C38.3999 27.7091 35.389 30.72 31.6798 30.72C27.9975 30.72 25.0033 27.7526 24.9602 24.0804ZM26.2504 17.2799C25.7764 17.6635 25.3437 18.0961 24.9602 18.5701V17.2799H26.2504ZM31.7006 15.3599C31.6937 15.3599 31.6868 15.3599 31.6798 15.3599C31.6693 15.3599 31.6588 15.3599 31.6483 15.3599H24.9602V1.92H31.6798C35.389 1.92 38.3999 4.9309 38.3999 8.64006C38.3999 12.3422 35.4003 15.3487 31.7006 15.3599ZM16.3201 32.6399C12.6108 32.6399 9.59993 35.6508 9.59993 39.3599C9.59993 43.0691 12.6108 46.08 16.3201 46.08C20.0293 46.08 23.0402 43.0691 23.0402 39.3599V32.6399H16.3201Z" fill="white"/>
</svg>
