<svg width="48" height="48" viewBox="0 0 48 48" fill="none" xmlns="http://www.w3.org/2000/svg">
<g clip-path="url(#clip0_1992_118)">
<path d="M48 23.6554C48 30.0141 46.9344 35.1719 45.6194 35.1719C44.3045 35.1719 43.2393 30.0154 43.2393 23.6554C43.2393 17.2954 44.3049 12.1389 45.6194 12.1389C46.9339 12.1389 48 17.2949 48 23.6554Z" fill="white"/>
<path d="M41.9256 23.6554C41.9256 30.7541 38.8951 36.5109 35.1568 36.5109C31.4184 36.5109 28.3879 30.7541 28.3879 23.6554C28.3879 16.5568 31.418 10.7999 35.1563 10.7999C38.8947 10.7999 41.9252 16.555 41.9252 23.6554" fill="white"/>
<path d="M27.0749 23.6554C27.0749 31.1968 21.0139 37.3103 13.5377 37.3103C6.06146 37.3103 0 31.1955 0 23.6554C0 16.1153 6.061 10 13.5377 10C21.0143 10 27.0749 16.114 27.0749 23.6554Z" fill="white"/>
</g>
<defs>
<clipPath id="clip0_1992_118">
<rect width="48" height="48" fill="white"/>
</clipPath>
</defs>
</svg>
