<svg width="48" height="48" viewBox="0 0 48 48" fill="none" xmlns="http://www.w3.org/2000/svg">
<path d="M24 0C10.482 0 0 9.906 0 23.28C0 30.276 2.868 36.324 7.536 40.5C7.926 40.848 8.166 41.34 8.178 41.868L8.31 46.14C8.31961 46.4543 8.40628 46.7615 8.5624 47.0345C8.71852 47.3075 8.93929 47.5379 9.20533 47.7056C9.47137 47.8733 9.77453 47.9731 10.0882 47.9961C10.4018 48.0192 10.7163 47.9649 11.004 47.838L15.768 45.738C16.17 45.558 16.626 45.528 17.052 45.642C19.242 46.242 21.57 46.566 24 46.566C37.518 46.566 48 36.66 48 23.286C48 9.912 37.518 0 24 0Z" fill="url(#paint0_radial_1992_146)"/>
<path d="M9.58827 30.09L16.6383 18.906C16.9035 18.4849 17.2531 18.1234 17.6651 17.8443C18.0771 17.5652 18.5424 17.3745 19.0318 17.2843C19.5212 17.194 20.024 17.2063 20.5084 17.3202C20.9928 17.4341 21.4484 17.6472 21.8463 17.946L27.4563 22.152C27.7067 22.3395 28.0114 22.4403 28.3243 22.4393C28.6371 22.4382 28.9411 22.3352 29.1903 22.146L36.7623 16.398C37.7703 15.63 39.0903 16.842 38.4183 17.916L31.3623 29.094C31.0971 29.5151 30.7474 29.8766 30.3355 30.1557C29.9235 30.4349 29.4581 30.6255 28.9687 30.7158C28.4793 30.806 27.9766 30.7937 27.4921 30.6798C27.0077 30.5659 26.5522 30.3528 26.1543 30.054L20.5443 25.848C20.2938 25.6605 19.9891 25.5597 19.6763 25.5607C19.3634 25.5618 19.0594 25.6648 18.8103 25.854L11.2383 31.602C10.2303 32.37 8.91027 31.164 9.58827 30.09Z" fill="white"/>
<defs>
<radialGradient id="paint0_radial_1992_146" cx="0" cy="0" r="1" gradientUnits="userSpaceOnUse" gradientTransform="translate(8.04 48) scale(52.8 52.8)">
<stop stop-color="#0099FF"/>
<stop offset="0.6" stop-color="#A033FF"/>
<stop offset="0.9" stop-color="#FF5280"/>
<stop offset="1" stop-color="#FF7061"/>
</radialGradient>
</defs>
</svg>
