<svg width="48" height="48" viewBox="0 0 48 48" fill="none" xmlns="http://www.w3.org/2000/svg">
<g clip-path="url(#clip0_1992_180)">
<path d="M24 0C10.7456 0 0 10.7456 0 24C0 30.6281 2.68688 36.6281 7.02938 40.9706L2.45812 45.5419C1.55062 46.4494 2.19375 48 3.47625 48H24C37.2544 48 48 37.2544 48 24C48 10.7456 37.2544 0 24 0Z" fill="#FF4500"/>
<path d="M37.6049 28.7887C40.7001 28.7887 43.2092 26.2795 43.2092 23.1843C43.2092 20.0891 40.7001 17.58 37.6049 17.58C34.5097 17.58 32.0005 20.0891 32.0005 23.1843C32.0005 26.2795 34.5097 28.7887 37.6049 28.7887Z" fill="url(#paint0_radial_1992_180)"/>
<path d="M10.3949 28.7887C13.4901 28.7887 15.9993 26.2795 15.9993 23.1843C15.9993 20.0891 13.4901 17.58 10.3949 17.58C7.29969 17.58 4.79053 20.0891 4.79053 23.1843C4.79053 26.2795 7.29969 28.7887 10.3949 28.7887Z" fill="url(#paint1_radial_1992_180)"/>
<path d="M24.013 39.9994C32.8493 39.9994 40.0124 34.6268 40.0124 27.9994C40.0124 21.372 32.8493 15.9994 24.013 15.9994C15.1768 15.9994 8.01367 21.372 8.01367 27.9994C8.01367 34.6268 15.1768 39.9994 24.013 39.9994Z" fill="url(#paint2_radial_1992_180)"/>
<path d="M19.2825 26.8331C19.1888 28.8656 17.8388 29.6043 16.2694 29.6043C14.7 29.6043 13.5 28.5637 13.5938 26.5312C13.6875 24.4987 15.0375 23.1525 16.6069 23.1525C18.1763 23.1525 19.3763 24.8006 19.2825 26.8331Z" fill="#842123"/>
<path d="M34.4324 26.5294C34.5262 28.5619 33.328 29.6025 31.7568 29.6025C30.1855 29.6025 28.8355 28.8656 28.7437 26.8313C28.6499 24.7988 29.848 23.1506 31.4193 23.1506C32.9905 23.1506 34.3405 24.495 34.4324 26.5294Z" fill="#842123"/>
<path d="M28.7436 27.0094C28.8318 28.9125 30.0936 29.6025 31.5636 29.6025C33.0336 29.6025 34.1549 28.5694 34.0668 26.6663C33.9786 24.7631 32.7168 23.5181 31.2468 23.5181C29.7768 23.5181 28.6555 25.1063 28.7436 27.0094Z" fill="url(#paint3_radial_1992_180)"/>
<path d="M19.2843 27.0094C19.1962 28.9125 17.9343 29.6025 16.4643 29.6025C14.9943 29.6025 13.873 28.5694 13.9612 26.6663C14.0493 24.7631 15.3112 23.5181 16.7812 23.5181C18.2512 23.5181 19.3724 25.1063 19.2843 27.0094Z" fill="url(#paint4_radial_1992_180)"/>
<path d="M24.0132 30.96C22.0294 30.96 20.1282 31.0556 18.3694 31.23C18.0694 31.26 17.8782 31.5656 17.9944 31.8393C18.9788 34.1475 21.3019 35.7693 24.0132 35.7693C26.7244 35.7693 29.0457 34.1475 30.0319 31.8393C30.1482 31.5656 29.9588 31.26 29.6569 31.23C27.8982 31.0556 25.9969 30.96 24.0132 30.96Z" fill="#BBCFDA"/>
<path d="M24.0132 31.4006C22.035 31.4006 20.1394 31.4981 18.3863 31.6763C18.0863 31.7063 17.8969 32.0175 18.0132 32.295C18.9957 34.6406 21.3113 36.2869 24.0113 36.2869C26.7113 36.2869 29.0288 34.6388 30.0113 32.295C30.1275 32.0175 29.9382 31.7063 29.6382 31.6763C27.885 31.4981 25.9894 31.4006 24.0113 31.4006H24.0132Z" fill="white"/>
<path d="M24.0132 31.1719C22.067 31.1719 20.2013 31.2675 18.4745 31.4419C18.1801 31.4719 17.9926 31.7775 18.107 32.0513C19.0726 34.3594 21.3526 35.9812 24.0132 35.9812C26.6738 35.9812 28.952 34.3594 29.9195 32.0513C30.0338 31.7775 29.8463 31.4719 29.552 31.4419C27.827 31.2675 25.9613 31.1719 24.0132 31.1719Z" fill="url(#paint5_radial_1992_180)"/>
<path d="M32.7769 14.3682C34.9702 14.3682 36.7482 12.5902 36.7482 10.3969C36.7482 8.20365 34.9702 6.42566 32.7769 6.42566C30.5837 6.42566 28.8057 8.20365 28.8057 10.3969C28.8057 12.5902 30.5837 14.3682 32.7769 14.3682Z" fill="url(#paint6_radial_1992_180)"/>
<path d="M23.9568 16.5056C23.4806 16.5056 23.0962 16.3069 23.0962 15.9994C23.0962 12.4406 25.9912 9.54749 29.5481 9.54749C30.0243 9.54749 30.4087 9.93374 30.4087 10.4081C30.4087 10.8825 30.0224 11.2687 29.5481 11.2687C26.9399 11.2687 24.8174 13.3912 24.8174 15.9994C24.8174 16.3069 24.4312 16.5056 23.9568 16.5056Z" fill="url(#paint7_radial_1992_180)"/>
<path d="M18.238 27.9506C18.238 28.6875 17.4543 29.0175 16.4886 29.0175C15.523 29.0175 14.7393 28.6875 14.7393 27.9506C14.7393 27.2137 15.523 26.6175 16.4886 26.6175C17.4543 26.6175 18.238 27.2137 18.238 27.9506Z" fill="#FF6101"/>
<path d="M33.2888 27.9506C33.2888 28.6875 32.505 29.0175 31.5394 29.0175C30.5738 29.0175 29.79 28.6875 29.79 27.9506C29.79 27.2137 30.5738 26.6175 31.5394 26.6175C32.505 26.6175 33.2888 27.2137 33.2888 27.9506Z" fill="#FF6101"/>
<path d="M17.6962 25.9519C18.04 25.9519 18.3187 25.648 18.3187 25.2731C18.3187 24.8982 18.04 24.5944 17.6962 24.5944C17.3524 24.5944 17.0737 24.8982 17.0737 25.2731C17.0737 25.648 17.3524 25.9519 17.6962 25.9519Z" fill="#FFC49C"/>
<path d="M32.4919 25.9519C32.8357 25.9519 33.1144 25.648 33.1144 25.2731C33.1144 24.8982 32.8357 24.5944 32.4919 24.5944C32.1481 24.5944 31.8694 24.8982 31.8694 25.2731C31.8694 25.648 32.1481 25.9519 32.4919 25.9519Z" fill="#FFC49C"/>
</g>
<defs>
<radialGradient id="paint0_radial_1992_180" cx="0" cy="0" r="1" gradientUnits="userSpaceOnUse" gradientTransform="translate(37.6896 20.167) scale(11.2315 9.79772)">
<stop stop-color="#FEFFFF"/>
<stop offset="0.4" stop-color="#FEFFFF"/>
<stop offset="0.51" stop-color="#F9FCFC"/>
<stop offset="0.62" stop-color="#EDF3F5"/>
<stop offset="0.7" stop-color="#DEE9EC"/>
<stop offset="0.72" stop-color="#D8E4E8"/>
<stop offset="0.76" stop-color="#CCD8DF"/>
<stop offset="0.8" stop-color="#C8D5DD"/>
<stop offset="0.83" stop-color="#CCD6DE"/>
<stop offset="0.85" stop-color="#D8DBE2"/>
<stop offset="0.88" stop-color="#EDE3E9"/>
<stop offset="0.9" stop-color="#FFEBEF"/>
</radialGradient>
<radialGradient id="paint1_radial_1992_180" cx="0" cy="0" r="1" gradientUnits="userSpaceOnUse" gradientTransform="translate(10.4796 20.167) scale(11.2315 9.79772)">
<stop stop-color="#FEFFFF"/>
<stop offset="0.4" stop-color="#FEFFFF"/>
<stop offset="0.51" stop-color="#F9FCFC"/>
<stop offset="0.62" stop-color="#EDF3F5"/>
<stop offset="0.7" stop-color="#DEE9EC"/>
<stop offset="0.72" stop-color="#D8E4E8"/>
<stop offset="0.76" stop-color="#CCD8DF"/>
<stop offset="0.8" stop-color="#C8D5DD"/>
<stop offset="0.83" stop-color="#CCD6DE"/>
<stop offset="0.85" stop-color="#D8DBE2"/>
<stop offset="0.88" stop-color="#EDE3E9"/>
<stop offset="0.9" stop-color="#FFEBEF"/>
</radialGradient>
<radialGradient id="paint2_radial_1992_180" cx="0" cy="0" r="1" gradientUnits="userSpaceOnUse" gradientTransform="translate(24.44 18.5955) scale(33.8788 23.7872)">
<stop stop-color="#FEFFFF"/>
<stop offset="0.4" stop-color="#FEFFFF"/>
<stop offset="0.51" stop-color="#F9FCFC"/>
<stop offset="0.62" stop-color="#EDF3F5"/>
<stop offset="0.7" stop-color="#DEE9EC"/>
<stop offset="0.72" stop-color="#D8E4E8"/>
<stop offset="0.76" stop-color="#CCD8DF"/>
<stop offset="0.8" stop-color="#C8D5DD"/>
<stop offset="0.83" stop-color="#CCD6DE"/>
<stop offset="0.85" stop-color="#D8DBE2"/>
<stop offset="0.88" stop-color="#EDE3E9"/>
<stop offset="0.9" stop-color="#FFEBEF"/>
</radialGradient>
<radialGradient id="paint3_radial_1992_180" cx="0" cy="0" r="1" gradientUnits="userSpaceOnUse" gradientTransform="translate(30.9899 28.3071) rotate(180) scale(2.83057 4.15553)">
<stop stop-color="#FF6600"/>
<stop offset="0.5" stop-color="#FF4500"/>
<stop offset="0.7" stop-color="#FC4301"/>
<stop offset="0.82" stop-color="#F43F07"/>
<stop offset="0.92" stop-color="#E53812"/>
<stop offset="1" stop-color="#D4301F"/>
</radialGradient>
<radialGradient id="paint4_radial_1992_180" cx="0" cy="0" r="1" gradientUnits="userSpaceOnUse" gradientTransform="translate(16.9106 28.3071) scale(2.83057 4.15553)">
<stop stop-color="#FF6600"/>
<stop offset="0.5" stop-color="#FF4500"/>
<stop offset="0.7" stop-color="#FC4301"/>
<stop offset="0.82" stop-color="#F43F07"/>
<stop offset="0.92" stop-color="#E53812"/>
<stop offset="1" stop-color="#D4301F"/>
</radialGradient>
<radialGradient id="paint5_radial_1992_180" cx="0" cy="0" r="1" gradientUnits="userSpaceOnUse" gradientTransform="translate(24.0692 36.5452) scale(9.98104 6.58324)">
<stop stop-color="#172E35"/>
<stop offset="0.29" stop-color="#0E1C21"/>
<stop offset="0.73" stop-color="#030708"/>
<stop offset="1"/>
</radialGradient>
<radialGradient id="paint6_radial_1992_180" cx="0" cy="0" r="1" gradientUnits="userSpaceOnUse" gradientTransform="translate(32.8711 6.39493) scale(8.76139 8.76139)">
<stop stop-color="#FEFFFF"/>
<stop offset="0.4" stop-color="#FEFFFF"/>
<stop offset="0.51" stop-color="#F9FCFC"/>
<stop offset="0.62" stop-color="#EDF3F5"/>
<stop offset="0.7" stop-color="#DEE9EC"/>
<stop offset="0.72" stop-color="#D8E4E8"/>
<stop offset="0.76" stop-color="#CCD8DF"/>
<stop offset="0.8" stop-color="#C8D5DD"/>
<stop offset="0.83" stop-color="#CCD6DE"/>
<stop offset="0.85" stop-color="#D8DBE2"/>
<stop offset="0.88" stop-color="#EDE3E9"/>
<stop offset="0.9" stop-color="#FFEBEF"/>
</radialGradient>
<radialGradient id="paint7_radial_1992_180" cx="0" cy="0" r="1" gradientUnits="userSpaceOnUse" gradientTransform="translate(29.22 15.9461) scale(7.1813 7.18131)">
<stop offset="0.48" stop-color="#7A9299"/>
<stop offset="0.67" stop-color="#172E35"/>
<stop offset="0.75"/>
<stop offset="0.82" stop-color="#172E35"/>
</radialGradient>
<clipPath id="clip0_1992_180">
<rect width="48" height="48" fill="white"/>
</clipPath>
</defs>
</svg>
