<svg width="48" height="48" viewBox="0 0 48 48" fill="none" xmlns="http://www.w3.org/2000/svg">
<g clip-path="url(#clip0_1992_225)">
<path d="M47.044 12.3709C46.7726 11.3498 46.2378 10.4178 45.493 9.66825C44.7483 8.91872 43.8197 8.37794 42.8003 8.10003C39.0476 7.09094 24.0476 7.09094 24.0476 7.09094C24.0476 7.09094 9.04761 7.09094 5.29488 8.10003C4.27547 8.37794 3.34693 8.91872 2.60218 9.66825C1.85744 10.4178 1.32262 11.3498 1.05124 12.3709C0.0476075 16.14 0.0476074 24 0.0476074 24C0.0476074 24 0.0476075 31.86 1.05124 35.6291C1.32262 36.6503 1.85744 37.5823 2.60218 38.3318C3.34693 39.0813 4.27547 39.6221 5.29488 39.9C9.04761 40.9091 24.0476 40.9091 24.0476 40.9091C24.0476 40.9091 39.0476 40.9091 42.8003 39.9C43.8197 39.6221 44.7483 39.0813 45.493 38.3318C46.2378 37.5823 46.7726 36.6503 47.044 35.6291C48.0476 31.86 48.0476 24 48.0476 24C48.0476 24 48.0476 16.14 47.044 12.3709Z" fill="#FF0302"/>
<path d="M19.1387 31.1373V16.8628L31.6841 24.0001L19.1387 31.1373Z" fill="#FEFEFE"/>
</g>
<defs>
<clipPath id="clip0_1992_225">
<rect width="48" height="48" fill="white"/>
</clipPath>
</defs>
</svg>
