<svg width="24" height="24" viewBox="0 0 24 24" fill="none" xmlns="http://www.w3.org/2000/svg">
<path d="M14.1056 2.03321C14.0309 2.05454 13.8549 2.07588 13.7162 2.08121C13.1615 2.09188 11.3693 2.54527 10.7185 2.83331C10.6598 2.85998 10.4945 2.92932 10.3451 2.988C9.95573 3.13735 8.92627 3.62808 8.76624 3.74543C8.69157 3.79343 8.56889 3.85744 8.48887 3.87344C8.40886 3.89478 8.34486 3.93212 8.34486 3.95345C8.34486 3.97479 8.30218 4.00679 8.25418 4.02813C8.20084 4.04413 8.08882 4.10814 7.99814 4.16681C7.9128 4.22549 7.78478 4.29483 7.71544 4.32684C7.6461 4.35351 7.51275 4.43885 7.41673 4.51353C7.32072 4.5882 7.22471 4.64688 7.20871 4.64688C7.08603 4.64688 5.36847 5.89504 4.88307 6.33243C4.48835 6.68981 3.75759 7.46858 3.75759 7.53259C3.75759 7.54859 3.70958 7.62327 3.64558 7.69261C3.48556 7.87397 3.00549 8.6314 2.86681 8.9141C2.80813 9.04745 2.69079 9.28215 2.61611 9.44217C2.35474 9.97557 2.24806 10.557 2.27473 11.2344C2.30674 11.9012 2.45609 12.2479 2.90948 12.7066C3.38421 13.1813 3.89094 13.3893 4.69105 13.432C5.24045 13.4587 5.63517 13.416 6.18457 13.2613C6.3606 13.2133 6.59529 13.1547 6.70731 13.1226C6.81932 13.096 6.94734 13.0533 7.00068 13.0213C7.12336 12.9573 7.81145 12.6479 7.84346 12.6479C7.93947 12.6479 9.06495 11.9598 10.1051 11.2664C10.7932 10.8077 11.3959 10.4076 11.4493 10.381C11.4973 10.349 11.8226 10.1569 12.1694 9.9489C12.5161 9.74621 12.9428 9.50084 13.1188 9.41016C13.2948 9.31949 13.5455 9.18614 13.6789 9.11679C13.8122 9.05278 14.0629 8.93544 14.239 8.87143C14.415 8.80209 14.6337 8.71141 14.719 8.67407C14.8097 8.63673 14.9377 8.57806 15.0124 8.54605C15.2204 8.46071 15.6898 8.37536 16.1485 8.34336C17.1407 8.27935 17.8341 8.71674 18.1915 9.63419C18.2768 9.85289 18.2928 10.0342 18.2928 10.6743C18.2928 11.4531 18.2235 11.8798 18.0154 12.3812C17.9728 12.4826 17.9141 12.6266 17.8821 12.7013C17.6154 13.3413 17.066 14.2588 16.4366 15.0909C15.8392 15.891 14.5537 17.2192 13.7056 17.9179C13.4122 18.1633 13.0868 18.43 12.9855 18.5154C12.7614 18.702 12.5001 18.8887 12.212 19.0808C12.0947 19.1554 11.9027 19.2835 11.7853 19.3688C11.4546 19.5928 10.5745 20.0622 10.0784 20.2756C9.9344 20.3396 9.73704 20.4249 9.64103 20.4676C9.55035 20.5103 9.42766 20.5423 9.36899 20.5423C9.31565 20.5423 9.19297 20.569 9.09695 20.601C8.75024 20.7236 8.3982 20.4889 8.3982 20.1316C8.3982 19.6942 8.60622 19.4168 9.91839 18.1153C11.3372 16.7071 11.4919 16.4991 11.4919 15.9657C11.4919 15.4163 11.2306 15.0429 10.6438 14.7442C10.3878 14.6108 10.2918 14.5948 9.84372 14.5948C9.32098 14.5948 9.01694 14.6695 8.63823 14.8989C8.55288 14.9522 8.41953 15.0216 8.34486 15.0589C8.27018 15.0962 8.20084 15.1389 8.18484 15.1549C8.16883 15.1709 8.06215 15.2509 7.9448 15.3416C7.6621 15.555 7.16604 16.0617 6.88333 16.4297C6.68597 16.6858 6.54195 16.9258 6.20591 17.5552C5.92854 18.078 5.67784 19.0488 5.67784 19.6142C5.67784 20.761 6.27525 21.6784 7.19804 21.9398C7.47541 22.0198 8.60622 22.0198 8.99561 21.9451C9.37966 21.8651 10.3825 21.5557 10.4465 21.4971C10.4785 21.4704 10.5318 21.4491 10.5745 21.4491C10.7132 21.4491 12.2974 20.6436 12.8414 20.2916C12.9641 20.2116 13.1028 20.1209 13.1561 20.0889C13.2042 20.0622 13.4549 19.9075 13.7162 19.7475C13.9723 19.5875 14.1963 19.4381 14.2123 19.4221C14.2283 19.4008 14.4096 19.2674 14.6123 19.1288C14.8204 18.9847 15.0604 18.8194 15.1457 18.7607C15.2364 18.6967 15.4871 18.5047 15.7058 18.3287C17.0927 17.2245 18.3195 16.0457 19.0342 15.1282C19.1516 14.9842 19.2583 14.8509 19.2743 14.8349C19.317 14.8029 19.6797 14.2801 19.9304 13.8854C20.0424 13.7201 20.2131 13.4267 20.3091 13.2347C20.4104 13.0426 20.5491 12.7813 20.6185 12.6479C20.6878 12.5146 20.8372 12.1679 20.9545 11.8745C21.0665 11.5811 21.1785 11.2931 21.1999 11.2344C21.3492 10.8557 21.5786 9.87956 21.6799 9.1808C21.7919 8.39137 21.7066 7.0952 21.4879 6.38044C21.3972 6.08707 21.3759 6.03372 21.1785 5.607C20.7518 4.68955 20.069 3.85744 19.2849 3.31337C19.1783 3.2387 19.0449 3.13735 18.9862 3.07867C18.7942 2.90798 17.8181 2.47059 17.2473 2.30524C16.9433 2.21456 16.4899 2.11855 16.2392 2.08121C15.6631 2.00653 14.2816 1.9692 14.1056 2.03321Z" fill="#FF0000"/>
</svg>
