<svg width="24" height="24" viewBox="0 0 24 24" fill="none" xmlns="http://www.w3.org/2000/svg">
<path d="M20.4166 22.0005H3.58333C2.75 22.0005 2 21.3338 2 20.4171V3.58382C2 2.75049 2.66666 2.00049 3.58333 2.00049H20.4166C21.25 2.00049 22 2.66715 22 3.58382V20.4171C22 21.3338 21.3333 22.0005 20.4166 22.0005Z" fill="#F16522"/>
<path d="M14.8339 20.9167C17.5839 17.75 19.1672 14 19.9172 10C20.0006 9.50002 19.8339 8.91667 19.7506 8.41667C19.6672 8.41667 19.5839 8.41667 19.5006 8.41667C19.3339 8.66667 19.1672 8.83331 19.0006 9.08331C18.9172 9.16667 18.9172 9.25002 18.9172 9.41667C18.2506 11.75 17.2506 13.75 15.6672 15.6667C14.5839 16.9167 13.9172 18.5 13.2506 20.0833C12.7506 21.1667 12.6672 21.25 11.3339 21.0833C11.7506 20.25 12.0839 19.3333 12.5006 18.5833C13.7506 16.6667 15.0839 14.75 16.2506 12.8333C16.8339 11.9167 17.1672 10.9167 17.7506 10.0833C18.1672 9.33331 18.7506 8.75002 19.1672 8.00002C19.5839 7.33332 19.8339 6.58333 20.0839 5.75C20.3339 5.08333 20.4172 4.41667 20.5839 3.75C20.6672 3.75 20.7506 3.75 20.8339 3.83333C20.6672 4.58333 20.5006 5.33333 20.4172 6.08333C20.3339 6.91666 20.2506 7.75001 20.1672 8.58331C20.1672 9.00001 20.0006 9.50002 20.6672 9.75002C20.8339 9.75002 20.9172 10.4167 20.8339 10.6667C20.3339 12.4167 19.9172 14.25 19.3339 15.9167C18.9172 17 18.2506 17.9167 17.6672 18.8333C17.5006 19.1667 17.2506 19.5 17.0839 19.8333C16.4172 21.1667 16.4172 21.25 14.8339 20.9167Z" fill="black"/>
<path d="M13.8328 3.08366C14.1662 3.83366 13.7495 4.25033 13.4995 4.66699C12.4995 6.08366 11.3328 7.50032 10.4995 9.00032C9.74954 10.3337 9.08284 11.8337 8.58284 13.3337C8.08284 14.8337 7.41619 16.167 6.49953 17.3337C5.74953 18.3337 5.08287 19.3337 4.33287 20.3337C4.1662 20.5837 3.99953 20.8337 3.74953 21.0003C3.6662 21.0003 3.58287 20.917 3.49953 20.917C3.49953 20.667 3.4162 20.3337 3.58287 20.0837C3.9162 19.167 4.33287 18.167 4.74953 17.2503C5.49953 15.917 5.74953 14.5003 5.58287 13.0837C5.33287 11.0837 5.58287 9.08367 5.99953 7.16697C6.1662 6.58366 6.1662 5.91699 6.24953 5.16699C4.83287 5.66699 4.24953 7.00033 3.1662 7.91697C2.99953 7.08367 2.9162 6.50033 3.58287 6.00033C4.58287 5.16699 5.4162 4.25033 6.4162 3.41699C6.6662 3.16699 7.08284 3.16699 7.58284 2.91699C7.41619 3.58366 7.33284 3.91699 7.24954 4.33366C6.9162 6.00033 6.58286 7.58367 6.33286 9.25032C6.24953 10.0003 6.24953 10.8337 6.33286 11.5837C6.4162 12.667 6.49953 13.8337 6.6662 15.0003C7.41619 14.917 7.74954 14.417 7.99954 13.7503C8.58284 12.2503 9.16619 10.7503 9.83284 9.25032C10.6662 7.33367 11.4995 5.50033 13.0828 4.08366C13.3328 3.91699 13.4995 3.50033 13.8328 3.08366Z" fill="black"/>
<path d="M5.66803 20.9165C5.91803 20.4998 6.00136 20.0832 6.25136 19.7498C7.25136 18.3332 8.33471 16.9165 9.16801 15.4165C10.418 12.9998 12.168 10.9998 13.7514 8.83318C14.0014 8.58318 14.168 8.16648 14.2514 7.83318C14.5014 6.58317 15.0847 5.6665 15.918 4.74984C16.3347 4.33317 16.7514 3.83317 17.3347 3.4165C17.0847 3.83317 16.918 4.24984 16.668 4.58317C15.668 5.49984 15.168 6.58317 14.8347 7.91648C14.5014 8.99983 13.918 9.91648 13.418 10.9165C12.918 11.9998 12.418 13.0832 11.918 14.0832C10.7514 16.4998 9.41801 18.6665 7.33471 20.4998C6.83469 20.8332 6.41803 21.1665 5.66803 20.9165Z" fill="black"/>
<path d="M10.584 18.9164C11.2506 17.9164 12.1673 16.9998 12.584 15.8331C13.084 14.1664 14.0006 12.6664 14.334 10.9998C14.834 8.58314 16.084 6.91645 17.5006 5.16645C17.9173 4.66645 18.1673 4.08312 18.5006 3.58312C18.7506 3.16645 19.084 2.99979 19.4173 3.24979C19.5006 3.33312 19.5006 3.83312 19.334 4.08312C18.6673 5.08312 17.9173 5.99979 17.2506 7.08314C16.6673 7.99979 16.1673 8.99979 15.6673 9.99979C15.2506 10.8331 14.7506 11.6664 14.334 12.5831C13.834 13.5831 13.334 14.5831 13.084 15.5831C12.7506 16.9998 11.7506 18.0831 10.584 18.9164Z" fill="black"/>
<path d="M10.4994 3.16647C9.58272 4.33313 8.99937 5.4998 8.74937 6.91647C8.49937 8.41646 7.83272 9.83312 7.41602 11.3331C7.33272 11.3331 7.24937 11.3331 7.16602 11.2498C7.24937 10.8331 7.33272 10.3331 7.41602 9.91646C7.83272 8.08311 8.24937 6.2498 8.66602 4.4998C9.08272 3.2498 9.33272 3.08313 10.4994 3.16647Z" fill="black"/>
<path d="M20.8346 15.9165C21.2513 18.8332 20.5013 20.9999 18.9179 20.9999C19.5846 19.2499 20.2513 17.5832 20.8346 15.9165Z" fill="black"/>
<path d="M4.75036 7.66685C4.66703 7.91685 4.50036 8.16685 4.3337 8.3335C3.50036 9.3335 3.33369 10.4168 3.41703 11.6668C3.41703 12.5835 3.33369 13.5001 3.33369 14.4168C3.33369 14.5835 3.25036 14.6668 3.0837 14.8335C3.16703 12.3335 2.41703 9.66685 4.5837 7.5835C4.66703 7.66685 4.75036 7.66685 4.75036 7.66685Z" fill="black"/>
<path d="M15.3333 3.25033C14.5833 5.08366 14.1666 7.08367 12.7499 8.50032C13.4999 6.75033 14.3333 4.91699 15.1666 3.16699C15.1666 3.16699 15.2499 3.16699 15.3333 3.25033Z" fill="black"/>
<path d="M3.16587 4.58366C2.9992 3.50033 3.2492 3.16699 4.08253 3.16699C3.7492 3.58366 3.4992 4.00033 3.16587 4.58366Z" fill="black"/>
</svg>
