<svg width="24" height="24" viewBox="0 0 24 24" fill="none" xmlns="http://www.w3.org/2000/svg">
<path fill-rule="evenodd" clip-rule="evenodd" d="M12.1083 8.33105C12.3947 8.37618 12.4526 8.31674 12.4905 8.03883C12.5527 7.61484 12.7007 6.89995 13.0467 6.16715C13.4213 5.37694 14.0179 4.50866 14.8523 3.92728C15.5551 3.44395 16.7069 2.90862 17.5987 2.71444C18.3282 2.55338 19.0117 2.52264 19.5981 2.57834C20.8033 2.68948 21.47 3.04193 21.8046 3.49808C21.9287 3.66849 21.9966 3.87872 21.9994 4.01482C22.0089 4.24171 21.9124 4.5378 21.5946 4.82847C21.2855 5.10847 20.6259 5.46272 19.7265 5.77292C18.7929 6.09175 17.5171 6.42843 16.2454 6.72857C15.1806 6.98019 14.5747 7.19429 14.0688 7.37023C13.2273 7.66281 12.9737 8.52191 13.4981 8.78426C14.2559 9.16337 14.7299 9.55979 15.1339 9.89682C15.7398 10.4066 16.4435 11.0065 17.3171 12.0883C18.1087 13.0804 19.4035 14.9739 19.8695 16.8117C20.3853 18.8295 20.063 20.743 18.9503 21.2774C17.8594 21.8021 16.4056 21.0449 15.3851 19.9591C14.4142 18.9286 13.7365 17.7148 13.0993 15.8425C12.5467 14.2332 12.3227 11.8995 12.3236 10.6788C12.3236 10.2721 12.3172 10.1853 12.3333 9.81806C12.3703 9.49803 11.5294 9.23331 10.6255 9.83001C9.59698 10.509 8.58932 11.7395 7.99442 12.4542C7.73563 12.7661 7.38482 13.2245 7.01313 13.7053C6.52308 14.3359 5.98215 14.9927 5.48903 15.3598C4.74691 15.9149 3.55459 16.1443 2.71943 15.5331C2.25518 15.1926 2.00806 14.5497 2.0003 13.8961C1.99338 13.4359 2.10458 13.0196 2.3285 12.609C2.60826 12.1049 3.06887 11.5638 3.79907 10.9442C4.55415 10.3075 5.75951 9.58741 6.96744 9.08954C8.80991 8.32852 10.7937 8.08909 12.1083 8.33105Z" fill="#19AAF8"/>
</svg>
