<svg width="24" height="24" viewBox="0 0 24 24" fill="none" xmlns="http://www.w3.org/2000/svg">
<path d="M4.37823 18.6001L11.9997 23.0005V14.1997L4.37823 18.6001Z" fill="#F41C70"/>
<path d="M4.37823 1.00049V9.79999L11.9997 5.40024L4.37823 1.00049Z" fill="#FFB316"/>
<path d="M11.9997 5.40039L4.37894 9.80014L11.9997 14.1999V5.40039Z" fill="#FF8001"/>
<mask id="mask0_1_2451" style="mask-type:luminance" maskUnits="userSpaceOnUse" x="11" y="9" width="9" height="10">
<path d="M11.999 14.1996L19.6218 18.5993V9.7998L11.999 14.1996Z" fill="white"/>
</mask>
<g mask="url(#mask0_1_2451)">
<path d="M19.6222 9.7998H11.9995V18.5993H19.6222V9.7998Z" fill="url(#paint0_linear_1_2451)"/>
</g>
<mask id="mask1_1_2451" style="mask-type:luminance" maskUnits="userSpaceOnUse" x="11" y="5" width="9" height="10">
<path d="M11.999 14.1999L19.6211 9.79948L11.999 5.40039V14.1999Z" fill="white"/>
</mask>
<g mask="url(#mask1_1_2451)">
<path d="M19.6209 5.40039H11.9995V14.1999H19.6209V5.40039Z" fill="url(#paint1_linear_1_2451)"/>
</g>
<mask id="mask2_1_2451" style="mask-type:luminance" maskUnits="userSpaceOnUse" x="11" y="14" width="9" height="10">
<path d="M11.999 23.0005L19.6218 18.5995L11.999 14.1997V23.0005Z" fill="white"/>
</mask>
<g mask="url(#mask2_1_2451)">
<path d="M19.6222 14.2002H11.9995V23.0004H19.6222V14.2002Z" fill="url(#paint2_linear_1_2451)"/>
</g>
<defs>
<linearGradient id="paint0_linear_1_2451" x1="11.9598" y1="14.3652" x2="19.582" y2="14.3652" gradientUnits="userSpaceOnUse">
<stop stop-color="#0C014E"/>
<stop offset="0.08" stop-color="#250153"/>
<stop offset="0.2" stop-color="#44015A"/>
<stop offset="1" stop-color="#AF196E"/>
</linearGradient>
<linearGradient id="paint1_linear_1_2451" x1="15.9622" y1="5.43782" x2="15.9622" y2="14.2301" gradientUnits="userSpaceOnUse">
<stop stop-color="#FF2800"/>
<stop offset="0.1" stop-color="#FF2800"/>
<stop offset="0.3" stop-color="#FF3E00"/>
<stop offset="0.77" stop-color="#FF6E01"/>
<stop offset="1" stop-color="#FF8001"/>
</linearGradient>
<linearGradient id="paint2_linear_1_2451" x1="11.9598" y1="18.7664" x2="19.582" y2="18.7664" gradientUnits="userSpaceOnUse">
<stop stop-color="#A50020"/>
<stop offset="0.05" stop-color="#A50020"/>
<stop offset="0.31" stop-color="#C7012D"/>
<stop offset="0.58" stop-color="#E20137"/>
<stop offset="0.82" stop-color="#F2023E"/>
<stop offset="1" stop-color="#F80240"/>
</linearGradient>
</defs>
</svg>
