<svg width="24" height="24" viewBox="0 0 24 24" fill="none" xmlns="http://www.w3.org/2000/svg">
<path d="M19.318 18.0121C18.9468 18.4029 18.5106 18.7104 18.0565 18.9943C17.4632 19.3651 16.8199 19.6123 16.1442 19.7905C15.136 20.0565 14.1266 20.3166 13.1054 20.5278C12.4041 20.6728 11.7026 20.8215 10.9955 20.931C10.0602 21.0758 9.13417 20.9701 8.22308 20.7314C6.94776 20.3973 5.79111 19.8211 4.76874 18.9883C4.58752 18.8407 4.41249 18.6852 4.24606 18.5212C3.87923 18.1595 3.55395 17.7552 3.29301 17.3106C3.11879 17.0137 2.99451 16.7116 2.87103 16.3915L2.57093 15.2964C2.42748 14.6433 2.22988 13.9845 2.22968 13.3116C2.22948 12.7599 2.31239 12.2165 2.47443 11.6872C2.81629 10.5723 3.38792 9.58672 4.14676 8.7042C4.89561 7.83347 5.76734 7.12358 6.8089 6.62868C7.35975 6.36694 7.94996 6.22908 8.53377 6.07164C9.77133 5.73777 11.0227 5.46304 12.2812 5.22288C12.7338 5.13657 13.1863 5.03767 13.6501 5.01529C14.7008 4.96454 15.7152 5.14436 16.7006 5.49701C18.0211 5.96954 19.1891 6.68302 20.1508 7.71499C20.2045 7.77253 20.2718 7.82029 20.2998 7.89921C20.2205 7.89461 20.14 7.89781 20.0622 7.88422C19.7817 7.83547 19.4994 7.8105 19.2153 7.80051C18.6752 7.78133 18.1438 7.85785 17.6131 7.94217C17.4017 7.83887 17.1811 7.88602 16.9667 7.91619C16.9569 7.91759 16.9474 7.91899 16.9378 7.92059C16.7795 7.94636 16.6281 8.00211 16.4858 8.07523C16.4145 8.1118 16.3456 8.15275 16.2782 8.19611C16.2443 8.21789 16.2109 8.24047 16.1777 8.26344C16.1438 8.28702 16.1052 8.29042 16.0648 8.29861C15.7723 8.35855 15.4814 8.42608 15.1903 8.49321C14.8263 8.57713 14.4622 8.66125 14.0976 8.74177C13.8439 8.79791 13.5947 8.87843 13.3338 8.89961C13.3522 8.83148 13.3028 8.79611 13.2622 8.75975C12.5973 8.16274 11.8099 8.06544 11.0341 8.5058C10.9508 8.55315 10.9637 8.58792 11.0083 8.65186C11.095 8.77593 11.1727 8.9062 11.2566 9.03247C11.3581 9.18552 11.3587 9.18352 11.5266 9.11299C11.8327 8.98412 12.1388 8.93817 12.4429 9.11919C11.6397 9.3092 10.8866 9.61909 10.1903 10.0636C9.61569 10.4307 9.1018 10.8628 8.68482 11.4091C8.21909 12.0193 7.87123 12.6788 7.76254 13.4477C7.7078 13.8361 7.70021 14.2271 7.76634 14.6135C7.82368 14.9488 7.9056 15.28 7.98372 15.6113C8.06924 15.9743 8.16854 16.3346 8.34216 16.667C8.74096 17.4315 9.34017 17.9993 10.085 18.4219C11.0642 18.9775 12.1314 19.1763 13.2413 19.2077C13.3939 19.2121 13.5386 19.1603 13.692 19.1661C14.0197 19.1785 14.344 19.1192 14.6598 19.0497C15.9587 18.7635 17.2529 18.4549 18.5508 18.1637C18.8041 18.1068 19.0537 18.0203 19.318 18.0121Z" fill="#BC38A3"/>
<path d="M17.6129 7.94201C18.1438 7.85749 18.675 7.78117 19.2151 7.80035C19.4992 7.81034 19.7815 7.83551 20.062 7.88406C20.1398 7.89765 20.2203 7.89445 20.2996 7.89905C20.8551 8.51044 21.2377 9.21214 21.4113 10.0231C21.2758 9.87747 21.1508 9.72043 21.0033 9.58816C20.1737 8.8433 19.2063 8.55959 18.1058 8.753C16.4557 9.0431 15.1883 10.6305 15.5184 12.4267C15.7246 13.5494 16.3983 14.3288 17.4359 14.7987C17.6826 14.9104 17.9508 14.9492 18.2039 15.0385C18.1755 15.0527 18.1486 15.0719 18.1186 15.0805C17.4966 15.2621 16.8615 15.3782 16.2159 15.4173C15.4169 15.4659 14.6193 15.4379 13.8315 15.2791C13.4189 15.196 13.0055 15.1138 12.6143 14.951C12.6756 14.934 12.7364 14.9134 12.7985 14.9008C13.4061 14.778 13.9116 14.4827 14.3138 14.0105C15.1765 12.998 15.1274 11.5562 14.2603 10.6031C13.5222 9.79216 12.334 9.47407 11.2391 9.91184C10.2095 10.3236 9.57614 11.2495 9.56355 12.3376C9.55656 12.9396 9.75576 13.4827 10.1332 13.9498C10.3797 14.2549 10.6676 14.5202 11.0455 14.6639C11.0391 15.2789 11.072 15.8905 11.1863 16.4967C11.3288 17.2525 11.5584 17.9776 11.9134 18.6621C11.9719 18.775 12.0471 18.8237 12.1741 18.8295C12.3729 18.8385 12.5707 18.8675 12.7691 18.8863C13.5184 18.9572 14.2664 18.9664 15.0101 18.8269C15.5246 18.7304 15.9763 18.5236 16.3342 18.1214C16.6952 17.7154 17.0421 17.2988 17.3721 16.8679C17.8283 16.2725 18.2513 15.6535 18.6822 15.0401C18.905 15.0533 19.1248 15.0437 19.3452 14.9976C20.4537 14.7652 21.2593 14.1514 21.7288 13.114C21.8063 12.9426 21.8636 12.762 21.9304 12.5856C21.9725 13.3136 21.8201 14.0107 21.5753 14.6883C21.1346 15.9078 20.4163 16.9496 19.5036 17.8631C19.4473 17.9196 19.3897 17.9744 19.318 18.0117C19.0537 18.0197 18.8041 18.1064 18.55 18.1636C17.2521 18.4549 15.9582 18.7636 14.6591 19.0495C14.3432 19.119 14.0191 19.1784 13.6912 19.166C13.5378 19.1602 13.3931 19.2117 13.2405 19.2075C12.1306 19.1762 11.0634 18.9774 10.0842 18.4217C9.33937 17.9991 8.74017 17.4313 8.34137 16.6669C8.16794 16.3344 8.06864 15.9742 7.98293 15.6111C7.90481 15.2799 7.82289 14.9486 7.76555 14.6133C7.69961 14.2269 7.70701 13.8359 7.76175 13.4475C7.87024 12.6785 8.21829 12.0191 8.68403 11.4089C9.10101 10.8627 9.6149 10.4305 10.1895 10.0635C10.8858 9.61873 11.6389 9.30884 12.4421 9.11903C12.5198 9.1428 12.5943 9.18117 12.6449 9.24071C12.7396 9.3522 12.8069 9.30984 12.8978 9.23291C13.0371 9.11523 13.1719 8.98976 13.333 8.89945C13.5941 8.87847 13.8431 8.79775 14.0968 8.74161C14.2227 8.71383 14.3486 8.68546 14.4744 8.65709C14.6567 8.61573 14.8389 8.57377 15.0211 8.53182C15.2033 8.48986 15.3853 8.4477 15.5677 8.40614C15.699 8.37617 15.8303 8.3466 15.961 8.31503C16.0327 8.29785 16.1044 8.28067 16.1761 8.26328C16.154 8.28686 16.1318 8.31044 16.1096 8.33401C16.076 8.36978 16.0387 8.40235 16.0065 8.43891C15.8475 8.62033 15.7212 8.82153 15.6361 9.0475C15.5787 9.19995 15.5791 9.20195 15.7296 9.23851C15.8684 9.27248 16.0081 9.30384 16.148 9.33301C16.3268 9.37038 16.3294 9.36998 16.4045 9.21313C16.5402 8.92922 16.7592 8.7448 17.0642 8.67347C17.1713 8.6485 17.2862 8.6465 17.3969 8.6513C17.492 8.65529 17.5122 8.61733 17.5312 8.53202C17.5745 8.33721 17.5486 8.13341 17.6129 7.94201Z" fill="#2ABCC8"/>
<path d="M21.9304 12.5858C21.8636 12.7623 21.8063 12.9429 21.7288 13.1143C21.2592 14.1515 20.4538 14.7653 19.3452 14.9978C19.1248 15.044 18.9048 15.0536 18.6822 15.0404C18.6898 14.9954 18.7515 14.9569 18.72 14.9137C18.6956 14.8807 18.6488 14.9175 18.6121 14.9279C18.4764 14.9659 18.3487 15.0344 18.2041 15.0388C17.9511 14.9495 17.683 14.9107 17.4361 14.799C16.3985 14.3291 15.7248 13.5497 15.5186 12.427C15.1885 10.6306 16.4558 9.04318 18.1064 8.75327C19.2069 8.55986 20.1741 8.84358 21.0039 9.58843C21.1513 9.7207 21.2764 9.87774 21.4119 10.0234C21.5386 10.2692 21.6944 10.5001 21.7875 10.7629C21.9729 11.2863 22.0488 11.8204 21.9464 12.3726C21.933 12.4422 21.9352 12.5147 21.9304 12.5858ZM19.0564 11.5613C19.0566 11.5613 19.0566 11.5613 19.0568 11.5613C19.0568 11.7525 19.0516 11.9439 19.058 12.1349C19.0678 12.4206 19.2451 12.6284 19.5212 12.6975C19.6397 12.7271 19.7593 12.7273 19.8774 12.7135C20.1879 12.6771 20.4073 12.4548 20.4173 12.1421C20.4297 11.7521 20.4301 11.3611 20.4169 10.9711C20.4067 10.6648 20.1997 10.4522 19.8964 10.409C19.8027 10.3956 19.7048 10.3944 19.6105 10.4046C19.2752 10.4412 19.0646 10.6735 19.0568 11.0114C19.053 11.1946 19.0564 11.378 19.0564 11.5613Z" fill="white"/>
<path d="M20.0239 4.06065C20.2149 4.06805 20.3346 4.26485 20.2484 4.43688C20.2203 4.49302 20.1777 4.54237 20.1384 4.59192C19.936 4.84747 19.733 5.10281 19.5286 5.35676C19.489 5.40591 19.4464 5.45586 19.3959 5.49222C19.2926 5.56675 19.1603 5.55156 19.068 5.46465C18.9811 5.38273 18.9587 5.26845 19.0143 5.16115C19.0359 5.1194 19.0676 5.08243 19.0972 5.04507C19.3142 4.77074 19.532 4.49662 19.7493 4.22269C19.8201 4.13378 19.8954 4.05226 20.0239 4.06065Z" fill="#020303"/>
<path d="M21.8626 5.94863C21.8542 6.04134 21.8147 6.11726 21.7376 6.17041C21.4285 6.3836 21.1216 6.59998 20.8085 6.80698C20.6636 6.90288 20.519 6.87191 20.4275 6.74724C20.339 6.62656 20.3647 6.4817 20.5136 6.37541C20.8191 6.15723 21.1268 5.94164 21.4421 5.73804C21.6289 5.61756 21.8616 5.74264 21.8626 5.94863Z" fill="#020303"/>
<path d="M16.8511 4.0877C16.8529 4.03775 16.876 3.99559 16.9028 3.95563C17.085 3.6843 17.2683 3.41377 17.4503 3.14224C17.487 3.0875 17.5336 3.04634 17.5955 3.02296C17.7058 2.9812 17.7997 3.01237 17.8792 3.09149C17.9636 3.17541 17.9821 3.2837 17.9124 3.39779C17.7961 3.588 17.6681 3.77121 17.5436 3.95643C17.4681 4.06872 17.3973 4.1856 17.3106 4.2889C17.2259 4.38999 17.1152 4.40578 17.0083 4.35663C16.8974 4.30588 16.8381 4.20438 16.8511 4.0877Z" fill="#020303"/>
<path d="M13.3332 8.89939C13.1721 8.9895 13.0375 9.11498 12.898 9.23286C12.8071 9.30978 12.7396 9.35194 12.6451 9.24065C12.5945 9.18111 12.52 9.14295 12.4423 9.11897C12.138 8.93795 11.8319 8.98391 11.526 9.11278C11.3583 9.18331 11.3577 9.18531 11.256 9.03226C11.1721 8.90599 11.0944 8.77572 11.0077 8.65164C10.9631 8.5879 10.9501 8.55294 11.0335 8.50559C11.8093 8.06523 12.5967 8.16253 13.2616 8.75953C13.3022 8.7961 13.3517 8.83146 13.3332 8.89939Z" fill="#020303"/>
<path d="M17.6129 7.94218C17.5486 8.13359 17.5745 8.33738 17.5314 8.53259C17.5126 8.6179 17.4922 8.65587 17.3971 8.65187C17.2864 8.64727 17.1715 8.64907 17.0644 8.67405C16.7592 8.74518 16.5404 8.92979 16.4047 9.21371C16.3298 9.37055 16.3272 9.37095 16.1482 9.33359C16.0081 9.30442 15.8686 9.27285 15.7298 9.23908C15.5793 9.20232 15.5789 9.20032 15.6363 9.04807C15.6852 8.9178 15.7492 8.79333 15.8255 8.67685C15.8974 8.56715 15.9827 8.47025 16.067 8.37055C16.0894 8.34717 16.1118 8.324 16.1342 8.30062C16.1813 8.25167 16.2457 8.21591 16.3034 8.17954C16.3711 8.13678 16.4407 8.09683 16.5126 8.06146C16.6557 7.99073 16.8081 7.93838 16.9663 7.91621C17.1809 7.88624 17.4015 7.83888 17.6129 7.94218Z" fill="#020303"/>
<path d="M11.0457 14.6641C10.6676 14.5204 10.3799 14.2551 10.1334 13.95C9.75595 13.483 9.55675 12.9398 9.56375 12.3378C9.57633 11.2497 10.2097 10.3238 11.2393 9.91201C12.3342 9.47405 13.5224 9.79233 14.2604 10.6033C15.1276 11.5564 15.1767 12.9981 14.314 14.0107C13.9118 14.4828 13.4061 14.7781 12.7987 14.901C12.7364 14.9136 12.6758 14.9342 12.6145 14.9512C12.1891 14.8509 11.7983 14.6629 11.4079 14.4746C11.3086 14.4269 11.2113 14.3751 11.1132 14.3252C11.0357 14.4275 11.0784 14.5532 11.0457 14.6641ZM13.4892 12.4605C13.489 12.4605 13.489 12.4605 13.4888 12.4605C13.4888 12.2693 13.4946 12.0776 13.4874 11.8866C13.4758 11.5791 13.2581 11.3456 12.9536 11.309C12.8748 11.2996 12.7941 11.3012 12.7146 11.3052C12.3813 11.322 12.138 11.5448 12.1254 11.8778C12.1104 12.2679 12.1114 12.6591 12.1256 13.0491C12.1374 13.3717 12.3709 13.5913 12.6942 13.6165C12.7655 13.6221 12.8379 13.6221 12.9092 13.6169C13.2573 13.5911 13.4796 13.3592 13.4882 13.0103C13.493 12.8273 13.4892 12.6439 13.4892 12.4605Z" fill="white"/>
<path d="M11.0456 14.6639C11.0784 14.553 11.0357 14.4273 11.1126 14.3252C11.2109 14.3751 11.3082 14.4269 11.4073 14.4746C11.7979 14.6629 12.1885 14.8509 12.6139 14.9512C13.0051 15.114 13.4185 15.1963 13.8311 15.2792C14.6191 15.4379 15.4167 15.4659 16.2155 15.4175C16.861 15.3783 17.4962 15.2621 18.1182 15.0806C18.1481 15.0718 18.1751 15.0529 18.2035 15.0387C18.3483 15.0343 18.4758 14.966 18.6115 14.9278C18.6484 14.9174 18.6952 14.8806 18.7194 14.9136C18.7511 14.9566 18.6892 14.9953 18.6816 15.0403C18.2508 15.6537 17.8277 16.2728 17.3715 16.8681C17.0415 17.299 16.6946 17.7156 16.3336 18.1216C15.9757 18.5238 15.5242 18.7306 15.0095 18.8271C14.2658 18.9666 13.518 18.9574 12.7685 18.8864C12.5701 18.8677 12.3723 18.8387 12.1735 18.8297C12.0464 18.8239 11.9713 18.7751 11.9128 18.6623C11.5577 17.9777 11.3282 17.2527 11.1857 16.4968C11.0722 15.8904 11.0393 15.2788 11.0456 14.6639ZM15.112 16.4852C15.4419 16.493 15.8049 16.4469 16.1675 16.3861C16.2696 16.369 16.3182 16.3258 16.3459 16.2287C16.4097 16.0069 16.486 15.7889 16.5523 15.568C16.5905 15.4413 16.5823 15.4357 16.4518 15.4577C15.6494 15.5925 14.848 15.5717 14.0468 15.4443C13.5815 15.3701 13.1264 15.2567 12.6776 15.1146C12.6339 15.1008 12.5819 15.0603 12.5459 15.095C12.4982 15.1414 12.5489 15.1965 12.5657 15.2455C12.6307 15.4335 12.7132 15.6171 12.7591 15.8097C12.8059 16.0055 12.9216 16.0926 13.103 16.156C13.7424 16.3785 14.3971 16.4926 15.112 16.4852Z" fill="#020303"/>
<path d="M19.0564 11.5614C19.0564 11.3781 19.053 11.1947 19.0572 11.0115C19.065 10.6736 19.2756 10.4415 19.6109 10.4047C19.705 10.3945 19.8029 10.3957 19.8968 10.4091C20.2001 10.4521 20.4069 10.6649 20.4173 10.9712C20.4303 11.3612 20.4301 11.7522 20.4177 12.1422C20.4077 12.4549 20.1885 12.6772 19.8778 12.7136C19.7597 12.7274 19.6401 12.7272 19.5216 12.6976C19.2453 12.6285 19.0682 12.4207 19.0584 12.135C19.0518 11.944 19.0572 11.7526 19.0572 11.5614C19.0566 11.5614 19.0566 11.5614 19.0564 11.5614ZM19.7541 11.1506C19.7541 11.151 19.7541 11.1514 19.7541 11.1518C19.8095 11.1518 19.8654 11.1566 19.9202 11.1508C20.0662 11.1352 20.1617 11.0373 20.1631 10.9078C20.1645 10.7753 20.0732 10.6774 19.9236 10.6667C19.8135 10.6587 19.7018 10.6587 19.5917 10.6675C19.457 10.6782 19.3655 10.7735 19.3577 10.893C19.3497 11.0159 19.4495 11.1302 19.5885 11.1494C19.6425 11.1568 19.6988 11.1506 19.7541 11.1506Z" fill="#020303"/>
<path d="M13.4892 12.4602C13.4892 12.6434 13.493 12.8268 13.4884 13.01C13.4798 13.3589 13.2575 13.5908 12.9094 13.6166C12.8381 13.6218 12.7655 13.6218 12.6944 13.6162C12.3711 13.591 12.1376 13.3714 12.1258 13.0488C12.1116 12.6588 12.1106 12.2676 12.1256 11.8775C12.1384 11.5443 12.3815 11.3215 12.7148 11.3049C12.7943 11.3009 12.875 11.2993 12.9538 11.3087C13.2583 11.3453 13.476 11.5788 13.4876 11.8863C13.4948 12.0773 13.489 12.2688 13.4892 12.4602C13.489 12.4602 13.489 12.4602 13.4892 12.4602ZM12.8629 12.06C12.9034 12.056 12.9767 12.0572 13.0453 12.0398C13.1582 12.0112 13.2193 11.9283 13.2273 11.8138C13.2353 11.6987 13.1598 11.601 13.0351 11.5738C12.8938 11.5431 12.7486 11.5423 12.6075 11.5758C12.4938 11.6028 12.4317 11.6827 12.4287 11.801C12.4257 11.9191 12.486 11.9952 12.5947 12.038C12.6722 12.0684 12.7528 12.0524 12.8629 12.06Z" fill="#020303"/>
<path d="M15.112 16.4854C14.3971 16.4928 13.7424 16.3787 13.1032 16.1561C12.9218 16.093 12.8061 16.0057 12.7593 15.8099C12.7134 15.6175 12.6309 15.4339 12.5659 15.2456C12.5489 15.1965 12.4982 15.1413 12.5462 15.0952C12.5819 15.0606 12.6341 15.101 12.6778 15.1148C13.1264 15.257 13.5817 15.3705 14.0471 15.4444C14.8482 15.5719 15.6496 15.5927 16.452 15.4578C16.5825 15.4358 16.5907 15.4414 16.5525 15.5681C16.486 15.7891 16.4097 16.0071 16.3462 16.2289C16.3184 16.3258 16.2698 16.3691 16.1677 16.3863C15.8051 16.447 15.4419 16.4934 15.112 16.4854Z" fill="#F7F7F7"/>
<path d="M19.751 11.1505C19.6956 11.1505 19.6395 11.1567 19.5851 11.1493C19.4461 11.1302 19.3464 11.0159 19.3544 10.893C19.3622 10.7735 19.4539 10.6784 19.5883 10.6674C19.6984 10.6584 19.8101 10.6586 19.9202 10.6666C20.07 10.6774 20.1612 10.7753 20.1598 10.9078C20.1584 11.0372 20.0629 11.1353 19.9168 11.1507C19.8621 11.1565 19.8061 11.1517 19.7508 11.1517C19.751 11.1513 19.751 11.1509 19.751 11.1505Z" fill="#F7F7F7"/>
<path d="M6.14995 17.0698C6.14995 17.0698 4.91179 17.4452 4.34495 15.616L3.66803 15.7367C3.61368 16.1447 3.26403 16.4596 2.84146 16.4596C2.38092 16.4596 2.00769 16.0863 2.00769 15.6258C2.00769 15.1653 2.38092 14.7916 2.84146 14.7916C3.12657 14.7916 3.37812 14.9347 3.52857 15.1533L4.20589 15.033C3.91818 13.2827 5.16333 12.9902 5.16333 12.9902L6.14995 17.0698Z" fill="#60419E"/>
</svg>
