<svg width="24" height="24" viewBox="0 0 24 24" fill="none" xmlns="http://www.w3.org/2000/svg">
<path d="M5.2198 22.9704C5.20302 22.9257 5.27572 22.7132 5.30927 22.6517C5.60563 22.1037 6.47793 19.1457 6.65686 18.1113C6.72955 17.6807 6.87494 17.2166 6.93085 17.2166C6.95322 17.2166 7.07624 17.1159 7.20484 16.9929C7.33345 16.8699 7.59626 16.6407 7.78638 16.4841C7.9765 16.3275 8.23372 16.115 8.35673 16.0088C8.68105 15.7404 8.94386 15.5559 9.15075 15.444C9.2514 15.3937 9.32968 15.3322 9.32968 15.3098C9.32968 15.2651 10.4033 14.5326 10.4704 14.5326C10.4928 14.5326 10.5878 14.4711 10.6773 14.3984C11.0743 14.0629 13.4899 12.8495 13.926 12.7656C14.0267 12.7433 14.1609 12.6985 14.2224 12.6594C14.3957 12.5475 15.6147 12.212 16.2354 12.1002C17.1524 11.9381 18.4553 11.9884 18.6957 12.1953C18.7237 12.2232 18.7852 12.24 18.8299 12.24C18.925 12.24 19.4506 12.4972 19.568 12.6035C19.6128 12.6482 19.7749 12.788 19.9259 12.9222C20.7199 13.6156 21.0722 14.9016 20.9156 16.5456C20.8485 17.2557 20.6696 18.4188 20.569 18.7935C20.4851 19.101 20.3565 19.0619 20.1272 18.6537C19.5121 17.5745 18.4385 16.9314 17.2475 16.9314C16.7834 16.9314 15.7601 17.0824 15.1227 17.239C12.0864 18.005 8.93826 19.7329 6.32695 22.0702C6.16315 22.2181 5.91697 22.4285 5.69987 22.6092C5.66274 22.6576 5.59882 22.721 5.49379 22.8027C5.37077 22.9145 5.25335 23.0655 5.2198 22.9704Z" fill="#6AC537"/>
<path d="M7.13215 12.6314C7.14893 12.8942 7.17688 13.2185 7.19366 13.3472C7.21043 13.4758 7.22721 13.5932 7.24399 13.5932C7.26076 13.5932 7.61863 13.2856 8.03801 12.9166C9.5869 11.5522 11.5719 10.1655 12.8972 9.52804C13.1376 9.41061 13.3445 9.29878 13.3613 9.28201C13.3781 9.26523 13.4396 9.23727 13.5011 9.21491C13.5626 9.19254 13.8925 9.0807 14.228 8.95769C15.844 8.37615 17.2978 8.33701 18.3043 8.84585C18.7069 9.04716 19.199 9.42739 19.4842 9.7573C19.7582 10.0648 19.9539 10.3109 19.9203 10.104C19.8868 9.90827 18.9977 8.10775 18.8355 7.92882C18.7517 7.83376 18.679 7.72193 18.679 7.68838C18.679 7.57654 18.0471 6.76016 17.5942 6.27927C16.8673 5.50762 16.1571 5.0547 15.324 4.82544C14.8431 4.69124 13.708 4.69683 12.9755 4.83662C12.2877 4.96523 11.4769 5.24481 10.7276 5.61946C9.97832 5.9941 9.47507 6.31282 8.6475 6.94468C7.85907 7.54299 6.6289 8.71725 6.57858 8.91296C6.5618 8.98006 6.63449 9.46094 6.74074 9.98097C6.94763 11.0266 7.08183 11.9101 7.13215 12.6314Z" fill="#6AC537"/>
<path d="M3.9449 2.93545C4.50966 3.84689 5.16388 5.07147 5.2869 5.46848C5.30927 5.55236 5.37077 5.58591 5.47142 5.58591C5.59444 5.58591 5.70069 5.49644 5.98027 5.16653C6.17598 4.93727 6.4947 4.61854 6.67923 4.45639C6.86375 4.29423 7.07064 4.1153 7.13215 4.05938C7.40055 3.80775 8.68664 3.00255 9.03332 2.86835C9.12279 2.82921 9.41915 2.71178 9.68755 2.60554C10.1125 2.4322 10.8394 2.20294 11.3091 2.0967C11.4825 2.05756 11.516 1.92895 11.3651 1.86744C10.4928 1.50957 9.13957 1.20762 7.76961 1.05105C6.85816 0.950404 4.78365 1.00632 3.91135 1.16289C3.46961 1.24117 3.17884 1.31945 3.11733 1.38096C3.02227 1.47043 3.02227 1.48721 3.1341 1.69969C3.2012 1.82271 3.28508 1.95691 3.3354 1.99046C3.38573 2.02401 3.45842 2.13025 3.51434 2.22531C3.57025 2.32037 3.76037 2.63909 3.9449 2.93545Z" fill="#6AC537"/>
</svg>
