<svg width="24" height="24" viewBox="0 0 24 24" fill="none" xmlns="http://www.w3.org/2000/svg">
<path d="M10 11V9.04031C10 8.62106 10.485 8.38797 10.8123 8.64988L14.512 11.6096C14.7622 11.8097 14.7622 12.1903 14.512 12.3904L10.8123 15.3501C10.485 15.612 10 15.3789 10 14.9597V13H2C1.44772 13 1 12.5523 1 12V12C1 11.4477 1.44772 11 2 11H10ZM2.95396 16.2678C2.66547 15.6573 3.14495 15 3.82017 15H3.90876C4.31577 15 4.67695 15.2495 4.86121 15.6124C5.59448 17.0566 6.75171 18.2495 8.18512 19.0259C9.81652 19.9097 11.7043 20.1991 13.5255 19.8447C15.3468 19.4904 16.9883 18.5142 18.1693 17.0832C19.3503 15.6523 19.9975 13.8554 20 12C20.001 10.1427 19.3558 8.34283 18.1749 6.90922C16.994 5.47561 15.3511 4.49756 13.528 4.14281C11.7048 3.78807 9.81505 4.07874 8.18278 4.96498C6.74882 5.74354 5.59211 6.93911 4.86068 8.3858C4.67672 8.74965 4.31507 9 3.90736 9H3.82017C3.14495 9 2.66547 8.34272 2.95396 7.73222C4.555 4.34413 8.0035 2 12 2C17.523 2 22 6.477 22 12C22 17.523 17.523 22 12 22C8.0035 22 4.555 19.6559 2.95396 16.2678Z" fill="#9BA6B2"/>
</svg>
