<svg width="24" height="24" viewBox="0 0 24 24" fill="none" xmlns="http://www.w3.org/2000/svg">
<path fill-rule="evenodd" clip-rule="evenodd" d="M12 20.4001C16.6392 20.4001 20.4 16.6393 20.4 12.0001C20.4 7.36087 16.6392 3.60006 12 3.60006C7.36081 3.60006 3.6 7.36087 3.6 12.0001C3.6 16.6393 7.36081 20.4001 12 20.4001ZM12 22.0001C17.5228 22.0001 22 17.5229 22 12.0001C22 6.47721 17.5228 2.00006 12 2.00006C6.47715 2.00006 2 6.47721 2 12.0001C2 17.5229 6.47715 22.0001 12 22.0001Z" fill="#9BA6B2"/>
<path fill-rule="evenodd" clip-rule="evenodd" d="M12 7.00006C11.5582 7.00006 11.2 7.35823 11.2 7.80006V11.2001H7.80001C7.35818 11.2001 7.00001 11.5582 7.00001 12.0001C7.00001 12.4419 7.35818 12.8001 7.80001 12.8001H11.2V16.2001C11.2 16.6419 11.5582 17.0001 12 17.0001C12.4418 17.0001 12.8 16.6419 12.8 16.2001V12.8001H16.2C16.6418 12.8001 17 12.4419 17 12.0001C17 11.5582 16.6418 11.2001 16.2 11.2001H12.8V7.80006C12.8 7.35823 12.4418 7.00006 12 7.00006Z" fill="#9BA6B2"/>
</svg>
