<svg width="24" height="24" viewBox="0 0 24 24" fill="none" xmlns="http://www.w3.org/2000/svg">
<path fill-rule="evenodd" clip-rule="evenodd" d="M6.49569 14.861C6.81618 15.1623 7.3358 15.1623 7.65629 14.861L12 10.777L16.3437 14.861C16.6642 15.1623 17.1838 15.1623 17.5043 14.861C17.8248 14.5597 17.8248 14.0711 17.5043 13.7698L12.5803 9.14017C12.2598 8.83884 11.7402 8.83884 11.4197 9.14017L6.49569 13.7698C6.1752 14.0711 6.1752 14.5597 6.49569 14.861Z" fill="#9BA6B2"/>
<path fill-rule="evenodd" clip-rule="evenodd" d="M11.4197 9.14017C11.7402 8.83884 12.2598 8.83884 12.5803 9.14017L17.5043 13.7698C17.8248 14.0711 17.8248 14.5597 17.5043 14.861C17.1838 15.1623 16.6642 15.1623 16.3437 14.861L12 10.777L7.65629 14.861C7.3358 15.1623 6.81618 15.1623 6.49569 14.861C6.1752 14.5597 6.1752 14.0711 6.49569 13.7698L11.4197 9.14017ZM12 11.1214L7.83427 15.038C7.41468 15.4325 6.7373 15.4325 6.31771 15.038C5.8941 14.6398 5.8941 13.991 6.31771 13.5928L11.2417 8.96313C11.6613 8.56863 12.3387 8.56863 12.7583 8.96313L17.6823 13.5928C18.1059 13.991 18.1059 14.6398 17.6823 15.038C17.2627 15.4325 16.5853 15.4325 16.1657 15.038L12 11.1214Z" fill="#9BA6B2"/>
</svg>
