<svg width="24" height="24" viewBox="0 0 24 24" fill="none" xmlns="http://www.w3.org/2000/svg">
<path fill-rule="evenodd" clip-rule="evenodd" d="M14.8603 6.4963C15.1617 6.81679 15.1617 7.33641 14.8603 7.6569L10.7763 12.0006L14.8603 16.3443C15.1617 16.6648 15.1617 17.1844 14.8603 17.5049C14.559 17.8254 14.0705 17.8254 13.7691 17.5049L9.1395 12.5809C8.83817 12.2604 8.83817 11.7408 9.1395 11.4203L13.7691 6.4963C14.0705 6.17581 14.559 6.17581 14.8603 6.4963Z" fill="#9BA6B2"/>
<path fill-rule="evenodd" clip-rule="evenodd" d="M9.1395 11.4203C8.83817 11.7408 8.83817 12.2604 9.1395 12.5809L13.7691 17.5049C14.0705 17.8254 14.559 17.8254 14.8603 17.5049C15.1617 17.1844 15.1617 16.6648 14.8603 16.3443L10.7763 12.0006L14.8603 7.6569C15.1617 7.33641 15.1617 6.81679 14.8603 6.4963C14.559 6.17581 14.0705 6.17581 13.7691 6.4963L9.1395 11.4203ZM11.1207 12.0006L15.0374 7.83488C15.4319 7.41529 15.4319 6.73791 15.0374 6.31832C14.6391 5.89471 13.9904 5.89471 13.5921 6.31832L8.96246 11.2423C8.56796 11.6619 8.56796 12.3393 8.96246 12.7589L13.5921 17.6829C13.9904 18.1065 14.6391 18.1065 15.0374 17.6829C15.4319 17.2633 15.4319 16.5859 15.0374 16.1663L11.1207 12.0006Z" fill="#9BA6B2"/>
</svg>
