<svg width="24" height="24" viewBox="0 0 24 24" fill="none" xmlns="http://www.w3.org/2000/svg">
<path fill-rule="evenodd" clip-rule="evenodd" d="M9.13966 17.5049C8.83833 17.1844 8.83833 16.6648 9.13966 16.3443L13.2237 12.0006L9.13966 7.6569C8.83833 7.33641 8.83833 6.81679 9.13966 6.4963C9.44099 6.17581 9.92954 6.17581 10.2309 6.4963L14.8605 11.4203C15.1618 11.7408 15.1618 12.2604 14.8605 12.5809L10.2309 17.5049C9.92954 17.8254 9.44099 17.8254 9.13966 17.5049Z" fill="#9BA6B2"/>
<path fill-rule="evenodd" clip-rule="evenodd" d="M14.8605 12.5809C15.1618 12.2604 15.1618 11.7408 14.8605 11.4203L10.2309 6.4963C9.92954 6.17581 9.44099 6.17581 9.13966 6.4963C8.83833 6.81679 8.83833 7.33641 9.13966 7.6569L13.2237 12.0006L9.13966 16.3443C8.83833 16.6648 8.83833 17.1844 9.13966 17.5049C9.44099 17.8254 9.92954 17.8254 10.2309 17.5049L14.8605 12.5809ZM12.8793 12.0006L8.96262 16.1663C8.56812 16.5859 8.56812 17.2633 8.96262 17.6829C9.36091 18.1065 10.0096 18.1065 10.4079 17.6829L15.0375 12.7589C15.432 12.3393 15.432 11.6619 15.0375 11.2423L10.4079 6.31832C10.0096 5.89471 9.36091 5.89471 8.96262 6.31832C8.56812 6.73791 8.56812 7.41529 8.96262 7.83488L12.8793 12.0006Z" fill="#9BA6B2"/>
</svg>
