<svg width="24" height="24" viewBox="0 0 24 24" fill="none" xmlns="http://www.w3.org/2000/svg">
<path fill-rule="evenodd" clip-rule="evenodd" d="M6.49569 9.14021C6.81618 8.83888 7.3358 8.83888 7.65629 9.14021L12 13.2242L16.3437 9.14021C16.6642 8.83888 17.1838 8.83888 17.5043 9.14021C17.8248 9.44154 17.8248 9.93009 17.5043 10.2314L12.5803 14.8611C12.2598 15.1624 11.7402 15.1624 11.4197 14.8611L6.49569 10.2314C6.1752 9.93009 6.1752 9.44154 6.49569 9.14021Z" fill="#9BA6B2"/>
<path fill-rule="evenodd" clip-rule="evenodd" d="M11.4197 14.8611C11.7402 15.1624 12.2598 15.1624 12.5803 14.8611L17.5043 10.2314C17.8248 9.93009 17.8248 9.44154 17.5043 9.14021C17.1838 8.83888 16.6642 8.83888 16.3437 9.14021L12 13.2242L7.65629 9.14021C7.3358 8.83888 6.81618 8.83888 6.49569 9.14021C6.1752 9.44154 6.1752 9.93009 6.49569 10.2314L11.4197 14.8611ZM12 12.8799L7.83427 8.96317C7.41468 8.56867 6.7373 8.56867 6.31771 8.96317C5.8941 9.36146 5.8941 10.0102 6.31771 10.4085L11.2417 15.0381C11.6613 15.4326 12.3387 15.4326 12.7583 15.0381L17.6823 10.4085C18.1059 10.0102 18.1059 9.36146 17.6823 8.96317C17.2627 8.56867 16.5853 8.56867 16.1657 8.96317L12 12.8799Z" fill="#9BA6B2"/>
</svg>
