<svg width="24" height="24" viewBox="0 0 24 24" fill="none" xmlns="http://www.w3.org/2000/svg">
<path fill-rule="evenodd" clip-rule="evenodd" d="M20 12.0007C20 12.553 19.593 13.0007 19.0909 13.0007H4.90909C4.40701 13.0007 4 12.553 4 12.0007C4 11.4485 4.40701 11.0007 4.90909 11.0007H19.0909C19.593 11.0007 20 11.4485 20 12.0007Z" fill="#9BA6B2"/>
<path fill-rule="evenodd" clip-rule="evenodd" d="M10.8876 6.29641C11.2412 6.68854 11.2388 7.3217 10.8824 7.71062L6.19986 12.0012L10.8823 16.2905C11.2388 16.6794 11.2412 17.3126 10.8877 17.7047C10.5342 18.0969 9.95856 18.0996 9.60206 17.7107L4.26872 12.7113C4.09659 12.5236 4.00001 12.2674 4 12.0007C3.99999 11.7341 4.09656 11.479 4.26867 11.2913L9.602 6.2906C9.95848 5.90169 10.5341 5.90429 10.8876 6.29641Z" fill="#9BA6B2"/>
</svg>
