<svg width="24" height="24" viewBox="0 0 24 24" fill="none" xmlns="http://www.w3.org/2000/svg">
<path fill-rule="evenodd" clip-rule="evenodd" d="M12.0001 20.0006C12.5524 20.0006 13.0001 19.5936 13.0001 19.0915L13.0001 4.9097C13.0001 4.40762 12.5524 4.00061 12.0001 4.00061C11.4478 4.00061 11.0001 4.40762 11.0001 4.9097L11.0001 19.0915C11.0001 19.5936 11.4478 20.0006 12.0001 20.0006Z" fill="#9BA6B2"/>
<path fill-rule="evenodd" clip-rule="evenodd" d="M6.2958 10.8883C6.68793 11.2418 7.32109 11.2394 7.71001 10.883L12.0006 6.20048L16.2899 10.8829C16.6788 11.2394 17.312 11.2418 17.7041 10.8883C18.0963 10.5348 18.0989 9.95918 17.7101 9.60267L12.7107 4.26933C12.523 4.09721 12.2668 4.00062 12.0001 4.00061C11.7335 4.0006 11.4784 4.09717 11.2907 4.26928L6.28999 9.60261C5.90108 9.95909 5.90368 10.5347 6.2958 10.8883Z" fill="#9BA6B2"/>
</svg>
