<svg width="24" height="24" viewBox="0 0 24 24" fill="none" xmlns="http://www.w3.org/2000/svg">
<path fill-rule="evenodd" clip-rule="evenodd" d="M4 12.0007C4 12.553 4.40701 13.0007 4.90909 13.0007H19.0909C19.593 13.0007 20 12.553 20 12.0007C20 11.4485 19.593 11.0007 19.0909 11.0007H4.90909C4.40701 11.0007 4 11.4485 4 12.0007Z" fill="#9BA6B2"/>
<path fill-rule="evenodd" clip-rule="evenodd" d="M13.1124 6.29641C12.7588 6.68854 12.7612 7.3217 13.1176 7.71062L17.8001 12.0012L13.1177 16.2905C12.7612 16.6794 12.7588 17.3126 13.1123 17.7047C13.4658 18.0969 14.0414 18.0996 14.3979 17.7107L19.7313 12.7113C19.9034 12.5236 20 12.2674 20 12.0007C20 11.7341 19.9034 11.479 19.7313 11.2913L14.398 6.2906C14.0415 5.90169 13.4659 5.90429 13.1124 6.29641Z" fill="#9BA6B2"/>
</svg>
