<svg width="24" height="24" viewBox="0 0 24 24" fill="none" xmlns="http://www.w3.org/2000/svg">
<path fill-rule="evenodd" clip-rule="evenodd" d="M12.0001 4.00061C12.5524 4.00061 13.0001 4.40762 13.0001 4.9097L13.0001 19.0915C13.0001 19.5936 12.5524 20.0006 12.0001 20.0006C11.4478 20.0006 11.0001 19.5936 11.0001 19.0915L11.0001 4.9097C11.0001 4.40762 11.4478 4.00061 12.0001 4.00061Z" fill="#9BA6B2"/>
<path fill-rule="evenodd" clip-rule="evenodd" d="M6.2958 13.113C6.68793 12.7594 7.32109 12.7618 7.71001 13.1182L12.0006 17.8007L16.2899 13.1183C16.6788 12.7618 17.312 12.7594 17.7041 13.1129C18.0963 13.4664 18.0989 14.042 17.7101 14.3986L12.7107 19.7319C12.523 19.904 12.2668 20.0006 12.0001 20.0006C11.7335 20.0006 11.4784 19.9041 11.2907 19.7319L6.28999 14.3986C5.90108 14.0421 5.90368 13.4665 6.2958 13.113Z" fill="#9BA6B2"/>
</svg>
