<svg width="24" height="24" viewBox="0 0 24 24" fill="none" xmlns="http://www.w3.org/2000/svg">
<path fill-rule="evenodd" clip-rule="evenodd" d="M6.34333 17.6575C6.73386 18.048 7.33824 18.0768 7.69326 17.7217L17.7213 7.69368C18.0763 7.33866 18.0476 6.73427 17.657 6.34375C17.2665 5.95322 16.6621 5.92444 16.3071 6.27947L6.27905 16.3075C5.92403 16.6625 5.95281 17.2669 6.34333 17.6575Z" fill="#9BA6B2"/>
<path fill-rule="evenodd" clip-rule="evenodd" d="M8.75317 7.18048C8.78044 7.70776 9.22983 8.1538 9.7569 8.17673L16.1018 7.89962L15.8239 14.2436C15.8468 14.7707 16.2928 15.2201 16.82 15.2474C17.3473 15.2747 17.7562 14.8696 17.7333 14.3425L17.9695 7.03623C17.9584 6.78175 17.8456 6.53231 17.657 6.34375C17.4685 6.15519 17.2199 6.04313 16.9654 6.03205L9.65815 6.26728C9.13108 6.24435 8.7259 6.6532 8.75317 7.18048Z" fill="#9BA6B2"/>
</svg>
