<svg width="24" height="24" viewBox="0 0 24 24" fill="none" xmlns="http://www.w3.org/2000/svg">
<path d="M14.1215 7.05088C14.5121 7.44141 14.5121 8.07461 14.1215 8.46516L9.1718 13.4148C8.78127 13.8053 8.78127 14.4385 9.1718 14.829C9.56232 15.2196 10.1955 15.2196 10.586 14.829L16.2429 9.17222C17.4144 8.00065 17.4144 6.10116 16.2429 4.92958C15.0713 3.75801 13.1718 3.75801 12.0002 4.92958L6.34337 10.5864C4.39075 12.539 4.39075 15.7048 6.34337 17.6575C8.29599 19.6101 11.4618 19.6101 13.4144 17.6575L18.3642 12.7077C18.7547 12.3172 19.3879 12.3172 19.7784 12.7077C20.1689 13.0983 20.1689 13.7314 19.7784 14.1219L14.8287 19.0717C12.095 21.8053 7.66283 21.8053 4.92916 19.0717C2.19549 16.338 2.19549 11.9059 4.92916 9.17222L10.586 3.51537C12.5386 1.56275 15.7045 1.56275 17.6571 3.51537C19.6097 5.46799 19.6097 8.63381 17.6571 10.5864L12.0002 16.2433C10.8287 17.4148 8.92916 17.4148 7.75759 16.2433C6.58601 15.0717 6.58601 13.1722 7.75759 12.0006L12.7073 7.0509C13.0978 6.66038 13.731 6.66037 14.1215 7.05088Z" fill="#9BA6B2"/>
</svg>
