<svg width="24" height="24" viewBox="0 0 24 24" fill="none" xmlns="http://www.w3.org/2000/svg">
<path fill-rule="evenodd" clip-rule="evenodd" d="M7.75 2.25061C7.75 1.8364 8.08579 1.50061 8.5 1.50061H15.5C15.9142 1.50061 16.25 1.8364 16.25 2.25061C16.25 2.66482 15.9142 3.00061 15.5 3.00061H14.75V4.50061H15C17.0711 4.50061 18.75 6.17954 18.75 8.25061V17.2506C18.75 19.0648 17.4617 20.5781 15.75 20.9256V21.7506C15.75 22.1648 15.4142 22.5006 15 22.5006C14.5858 22.5006 14.25 22.1648 14.25 21.7506V21.0006H9.75V21.7506C9.75 22.1648 9.41421 22.5006 9 22.5006C8.58579 22.5006 8.25 22.1648 8.25 21.7506V20.9256C6.53832 20.5781 5.25 19.0648 5.25 17.2506V8.25061C5.25 6.17954 6.92893 4.50061 9 4.50061H9.25V3.00061H8.5C8.08579 3.00061 7.75 2.66482 7.75 2.25061ZM10.75 3.00061V4.50061H13.25V3.00061H10.75ZM9 6.00061C7.75736 6.00061 6.75 7.00797 6.75 8.25061V17.2506C6.75 18.4933 7.75736 19.5006 9 19.5006H15C16.2426 19.5006 17.25 18.4933 17.25 17.2506V8.25061C17.25 7.00797 16.2426 6.00061 15 6.00061H9ZM9 8.00061C9.41421 8.00061 9.75 8.3364 9.75 8.75061V16.7506C9.75 17.1648 9.41421 17.5006 9 17.5006C8.58579 17.5006 8.25 17.1648 8.25 16.7506V8.75061C8.25 8.3364 8.58579 8.00061 9 8.00061ZM12.0524 8.00061C12.4666 8.00061 12.8024 8.3364 12.8024 8.75061V16.7506C12.8024 17.1648 12.4666 17.5006 12.0524 17.5006C11.6382 17.5006 11.3024 17.1648 11.3024 16.7506V8.75061C11.3024 8.3364 11.6382 8.00061 12.0524 8.00061ZM15 8.00061C15.4142 8.00061 15.75 8.3364 15.75 8.75061V16.7506C15.75 17.1648 15.4142 17.5006 15 17.5006C14.5858 17.5006 14.25 17.1648 14.25 16.7506V8.75061C14.25 8.3364 14.5858 8.00061 15 8.00061Z" fill="#9BA6B2"/>
</svg>
