<svg width="24" height="24" viewBox="0 0 24 24" fill="none" xmlns="http://www.w3.org/2000/svg">
<path fill-rule="evenodd" clip-rule="evenodd" d="M8.14884 0.218811C8.07394 0.252627 7.9592 0.346244 7.89381 0.426799C7.56902 0.827117 7.76112 1.46646 8.24665 1.60116L8.44138 1.65518V3.11827L7.58162 3.11906C6.5617 3.12003 6.26402 3.17321 5.7198 3.45184C4.98157 3.82973 4.38755 4.62435 4.22033 5.45755C4.12288 5.94324 4.12288 19.5634 4.22033 20.0491C4.32305 20.561 4.61051 21.1039 4.98076 21.4851C5.5432 22.0643 6.13034 22.3361 6.90774 22.3773L7.36188 22.4013L7.37684 22.9012C7.39301 23.4412 7.43253 23.5455 7.69931 23.752C7.87224 23.8859 8.29591 23.8859 8.46885 23.752C8.73633 23.5449 8.77515 23.4418 8.79145 22.8947L8.80659 22.3884H15.2222L15.2374 22.8947C15.2537 23.4418 15.2925 23.5449 15.56 23.752C15.7329 23.8859 16.1566 23.8859 16.3295 23.752C16.597 23.5449 16.6358 23.4418 16.6521 22.8947L16.6673 22.3884L16.9871 22.3876C18.2485 22.3844 19.3725 21.5284 19.7537 20.2807L19.8528 19.9565V5.55019L19.7537 5.22594C19.5235 4.47227 18.9739 3.7961 18.3119 3.45211C17.7778 3.17455 17.4725 3.12003 16.4472 3.11906L15.5875 3.11827V1.65518L15.7822 1.60116C16.4134 1.42607 16.4736 0.478309 15.8701 0.216819C15.6578 0.124823 8.35277 0.126676 8.14884 0.218811ZM14.1582 3.11827H9.87059V1.63595H14.1582V3.11827ZM17.6777 4.78203C17.9903 4.95782 18.1249 5.10207 18.3032 5.45259L18.4235 5.68916V19.8175L18.2709 20.1094C18.1014 20.4336 17.9624 20.5732 17.6244 20.7581L17.3963 20.8829H6.63253L6.40444 20.7581C6.06647 20.5732 5.92739 20.4336 5.7579 20.1094L5.60528 19.8175V5.68916L5.71587 5.45755C5.90689 5.05751 6.27532 4.74544 6.67719 4.6432C6.75089 4.62449 9.19283 4.61244 12.1037 4.61643L17.3963 4.62375L17.6777 4.78203ZM8.14884 7.19243C7.96782 7.27762 7.78108 7.51414 7.74919 7.69864C7.73504 7.78072 7.72919 9.73913 7.73624 12.8773C7.74906 18.3797 7.74951 18.4059 7.8412 18.5332C8.01619 18.7763 8.15893 18.8521 8.44138 18.8521C8.72383 18.8521 8.86657 18.7763 9.04156 18.5332C9.13343 18.4056 9.13366 18.3913 9.13366 12.7533C9.13366 6.9375 9.13343 7.59956 9.04156 7.47194C8.99091 7.40158 8.89694 7.30333 8.83276 7.25362C8.68493 7.13916 8.32963 7.10738 8.14884 7.19243ZM11.7219 7.19243C11.5409 7.27762 11.3541 7.51414 11.3222 7.69864C11.3081 7.78072 11.3022 9.73913 11.3093 12.8773C11.3221 18.3797 11.3225 18.4059 11.4142 18.5332C11.5892 18.7763 11.732 18.8521 12.0144 18.8521C12.2969 18.8521 12.4396 18.7763 12.6146 18.5332C12.7065 18.4056 12.7067 18.3913 12.7067 12.7533C12.7067 6.9375 12.7065 7.59956 12.6146 7.47194C12.5639 7.40158 12.47 7.30333 12.4058 7.25362C12.258 7.13916 11.9027 7.10738 11.7219 7.19243Z" fill="#9BA6B2"/>
<path d="M14.8953 7.69829C14.9272 7.51379 15.1139 7.27726 15.2949 7.19208C15.4757 7.10703 15.831 7.13881 15.9789 7.25327C16.043 7.30297 16.137 7.40122 16.1877 7.47159C16.2795 7.5992 16.2797 6.93715 16.2797 12.753C16.2797 18.3909 16.2795 18.4052 16.1877 18.5329C16.0127 18.7759 15.8699 18.8518 15.5875 18.8518C15.305 18.8518 15.1623 18.776 14.9873 18.5329C14.8956 18.4055 14.8952 18.3794 14.8823 12.877C14.8753 9.73878 14.8811 7.78037 14.8953 7.69829Z" fill="#9BA6B2"/>
<path fill-rule="evenodd" clip-rule="evenodd" d="M15.8493 0.0616222C15.8664 0.0639183 15.9001 0.0685262 15.9284 0.0807508C16.2983 0.241069 16.4577 0.609886 16.4361 0.950839C16.4144 1.29183 16.2095 1.6363 15.8213 1.74398L15.7347 1.76801V2.97026L16.4473 2.97091C16.9601 2.97139 17.3043 2.98505 17.5895 3.036C17.8798 3.08785 18.104 3.17736 18.3795 3.32049C19.0786 3.68378 19.6532 4.39288 19.8944 5.18241L20 5.52794V19.9787L19.8944 20.3242C19.4951 21.6315 18.3159 22.5324 16.9875 22.5357L16.8102 22.5362L16.7993 22.8991C16.7913 23.1683 16.7781 23.3562 16.7227 23.5033C16.6627 23.6629 16.559 23.7613 16.4193 23.8694C16.2951 23.9656 16.1069 24.0006 15.9448 24.0006C15.7826 24.0006 15.5944 23.9656 15.4702 23.8694C15.3305 23.7613 15.2268 23.6629 15.1668 23.5033C15.1114 23.3562 15.0982 23.1683 15.0902 22.8991L15.0794 22.5365H8.94946L8.93862 22.8991C8.9306 23.1683 8.9174 23.3562 8.86204 23.5033C8.802 23.6629 8.69835 23.7613 8.55864 23.8694C8.4344 23.9656 8.24625 24.0006 8.08408 24.0006C7.9219 24.0006 7.73376 23.9656 7.60951 23.8694C7.47009 23.7615 7.36663 23.663 7.30652 23.5044C7.25098 23.3579 7.23763 23.1715 7.22967 22.9056L7.21878 22.5421L6.9 22.5252C6.08434 22.482 5.46276 22.1934 4.87545 21.5886C4.48578 21.1874 4.18447 20.6189 4.076 20.0784C4.06707 20.0339 4.06121 19.9383 4.05609 19.8168C4.0507 19.6888 4.04573 19.5161 4.04115 19.3058C4.03199 18.885 4.02437 18.3105 4.01828 17.6339C4.00609 16.2805 4 14.5168 4 12.7533C4 10.9898 4.00609 9.22612 4.01828 7.87274C4.02437 7.19613 4.03199 6.62161 4.04115 6.20081C4.04573 5.99051 4.0507 5.81789 4.05609 5.68985C4.06121 5.56832 4.06707 5.47274 4.076 5.42823C4.25192 4.55171 4.87378 3.71869 5.65303 3.31979C5.93295 3.17648 6.15763 3.0871 6.44657 3.03546C6.73052 2.98471 7.07149 2.97139 7.58148 2.97091L8.29414 2.97026V1.76801L8.20752 1.74399C7.61426 1.57939 7.39111 0.812129 7.77975 0.333113C7.82032 0.28313 7.87312 0.232544 7.92504 0.190195C7.97581 0.148778 8.03453 0.108039 8.08856 0.0836464C8.11745 0.0706051 8.15202 0.0658885 8.16842 0.0636507C8.19225 0.0603991 8.22185 0.0575107 8.25544 0.05489C8.32297 0.0496213 8.41418 0.0448358 8.52467 0.0404657C8.74604 0.0317101 9.05028 0.0244174 9.40908 0.0185648C10.127 0.00685491 11.0667 0.000858288 12.0063 0.000617882C12.9459 0.000377462 13.8861 0.00589307 14.6051 0.0172332C14.9644 0.0229011 15.2693 0.0300363 15.4914 0.0386754C15.6023 0.0429877 15.6939 0.0477238 15.7619 0.0529521C15.7957 0.0555536 15.8253 0.0584021 15.8493 0.0616222ZM8.11048 0.420361C8.14661 0.390889 8.17856 0.369696 8.20002 0.358441ZM8.20002 0.358441C8.20213 0.3581 8.2048 0.357695 8.20811 0.357243C8.2239 0.355089 8.24704 0.352731 8.27821 0.3503C8.34019 0.345464 8.42705 0.340852 8.53624 0.336533C8.75422 0.327912 9.05581 0.320662 9.41385 0.314822C10.1296 0.303147 11.0677 0.297154 12.0064 0.296914C12.9451 0.296674 13.8836 0.302186 14.6005 0.313493C14.959 0.319149 15.2613 0.326242 15.4801 0.334751C15.5896 0.339012 15.677 0.343579 15.7394 0.348386C15.7708 0.350802 15.7943 0.353154 15.8104 0.355317C15.815 0.35594 15.8185 0.356477 15.8209 0.356883C16.0482 0.460165 16.1574 0.693 16.1422 0.931938C16.1268 1.17398 15.986 1.39093 15.743 1.45835L15.4402 1.54234V3.26628L16.4471 3.2672C16.9596 3.26769 17.2807 3.28178 17.538 3.32773C17.7902 3.37277 17.9856 3.44931 18.2443 3.58374C18.8692 3.90843 19.3937 4.55167 19.613 5.26947L19.7055 5.57245V19.9342L19.613 20.2372C19.25 21.4252 18.1811 22.2364 16.9867 22.2395L16.5244 22.2406L16.505 22.8902C16.4967 23.1682 16.4823 23.3054 16.4473 23.3984C16.417 23.479 16.3675 23.5357 16.2397 23.6346C16.1911 23.6723 16.0809 23.7043 15.9448 23.7043C15.8086 23.7043 15.6985 23.6723 15.6498 23.6346C15.522 23.5357 15.4725 23.479 15.4422 23.3984C15.4072 23.3054 15.3928 23.1682 15.3846 22.8903L15.3651 22.2402H8.66371L8.64428 22.8902C8.63599 23.1682 8.62163 23.3054 8.58664 23.3984C8.55633 23.479 8.50683 23.5357 8.37905 23.6346C8.33037 23.6723 8.22021 23.7043 8.08408 23.7043C7.94795 23.7043 7.83779 23.6723 7.78911 23.6346C7.66176 23.536 7.61206 23.479 7.58167 23.3988C7.54671 23.3066 7.53222 23.1708 7.52401 22.8967L7.50497 22.2605L6.91549 22.2293C6.17634 22.1902 5.62364 21.9351 5.08607 21.3816C4.73523 21.0203 4.46164 20.5031 4.36466 20.0198C4.36466 20.0198 4.36437 20.0183 4.36388 20.0148L4.36224 20.0011C4.36101 19.9895 4.3597 19.9743 4.35834 19.9553C4.35563 19.9173 4.35294 19.8669 4.35031 19.8043C4.34504 19.6792 4.34012 19.5089 4.33556 19.2994C4.32644 18.8804 4.31883 18.3074 4.31275 17.6312C4.30057 16.279 4.29448 14.5163 4.29448 12.7533C4.29448 10.9904 4.30057 9.22761 4.31275 7.87542C4.31883 7.19926 4.32644 6.62621 4.33556 6.2073C4.34012 5.99775 4.34504 5.82746 4.35031 5.70239C4.35294 5.63979 4.35563 5.58935 4.35834 5.55137C4.3597 5.53237 4.36101 5.51719 4.36224 5.50556L4.36388 5.49187C4.36435 5.48849 4.36466 5.48687 4.36466 5.48687C4.52318 4.697 5.08935 3.94078 5.78656 3.58388C6.05087 3.44856 6.24713 3.37204 6.49807 3.32719C6.754 3.28145 7.07182 3.26769 7.58175 3.2672L8.58862 3.26628V1.54234L8.28579 1.45835C7.90799 1.35353 7.74694 0.842133 8.00785 0.520511M9.72336 1.4878H14.3055V3.26642H9.72336V1.4878ZM10.0178 1.7841V2.97012H14.011V1.7841H10.0178ZM6.70506 4.78896C6.3516 4.88186 6.02075 5.16116 5.84859 5.5217L5.75252 5.7229V19.7809L5.8882 20.0404C5.96932 20.1956 6.03835 20.2972 6.12196 20.3811C6.20598 20.4654 6.31148 20.5386 6.47476 20.6279L6.66999 20.7348H17.3588L17.554 20.6279C17.7173 20.5386 17.8229 20.4654 17.9069 20.3811C17.9905 20.2972 18.0595 20.1956 18.1406 20.0404L18.2763 19.7809V5.72488L18.1721 5.5201C18.0858 5.35031 18.0149 5.24048 17.9335 5.15318C17.8527 5.06654 17.755 4.99521 17.6059 4.91135L17.3578 4.77184L12.1035 4.76458C10.6483 4.76258 9.31041 4.7646 8.32723 4.76945C7.8356 4.77188 7.43293 4.77501 7.14874 4.7787C7.00655 4.78055 6.89453 4.78253 6.81602 4.78461C6.77665 4.78566 6.7465 4.78671 6.7255 4.78774C6.71631 4.7882 6.70962 4.78861 6.70506 4.78896ZM8.32579 4.47316C9.30974 4.4683 10.6483 4.46629 12.1039 4.46828L17.4348 4.47565L17.7496 4.65271C17.913 4.74464 18.039 4.83334 18.1482 4.9504C18.2568 5.0668 18.3424 5.20439 18.4343 5.38511L18.5708 5.65344V19.8541L18.4012 20.1783C18.3129 20.3474 18.2276 20.4777 18.1148 20.5909C18.0024 20.7036 17.8694 20.7927 17.6947 20.8882L17.4338 21.0311H6.59508L6.33411 20.8882C6.15944 20.7927 6.02641 20.7036 5.91402 20.5909C5.80123 20.4777 5.71596 20.3474 5.62759 20.1783L5.45804 19.8541V5.65542L5.58315 5.3934C5.7917 4.95666 6.1939 4.61334 6.6411 4.49957C6.65645 4.49567 6.67251 4.49435 6.67819 4.49388C6.68742 4.49311 6.69906 4.4924 6.7111 4.4918C6.73539 4.49061 6.7681 4.48949 6.80824 4.48842C6.88875 4.48628 7.00234 4.48428 7.14494 4.48243C7.4303 4.47872 7.83387 4.47558 8.32579 4.47316ZM15.6623 7.00029C15.8037 7.01294 15.9623 7.05354 16.0686 7.13586C16.1448 7.1948 16.2485 7.30354 16.3069 7.38468C16.3199 7.40281 16.3401 7.43084 16.3561 7.47435C16.3707 7.51419 16.38 7.56114 16.387 7.62108C16.401 7.73998 16.4096 7.943 16.4154 8.31508C16.4269 9.06309 16.427 9.84593 16.427 12.753C16.427 15.66 16.4269 16.9414 16.4154 17.6894C16.4096 18.0614 16.401 18.2645 16.387 18.3834C16.38 18.4433 16.3707 18.4903 16.3561 18.5301C16.3401 18.5736 16.3203 18.6012 16.3072 18.6193C16.2136 18.7493 16.118 18.85 15.9966 18.9145C15.8744 18.9794 15.7413 18.9999 15.5875 18.9999C15.4337 18.9999 15.3006 18.9795 15.1783 18.9145C15.057 18.85 14.9616 18.7498 14.868 18.6198C14.8546 18.6011 14.8349 18.5735 14.8189 18.53C14.8043 18.4903 14.795 18.4437 14.7878 18.3842C14.7737 18.2664 14.7646 18.0661 14.758 17.701C14.7448 16.967 14.7415 15.7166 14.7351 12.8773C14.7316 11.3081 14.7313 9.86458 14.7336 8.80307C14.7348 8.27236 14.7366 8.51329 14.7391 8.20528C14.7403 8.05134 14.7416 7.92887 14.7432 7.84212C14.7439 7.79883 14.7447 7.76387 14.7456 7.73813C14.7462 7.71869 14.7472 7.69071 14.7502 7.67296C14.7718 7.54791 14.8416 7.42005 14.9239 7.31579C15.0068 7.21084 15.1156 7.11291 15.2326 7.05788C15.356 6.99983 15.5195 6.98751 15.6623 7.00029ZM15.6362 7.29542C15.5192 7.28496 15.4147 7.29928 15.3573 7.32627C15.2932 7.35643 15.2182 7.41936 15.1545 7.50009C15.0915 7.57983 15.0523 7.66079 15.041 7.71995C15.041 7.71995 15.0406 7.72735 15.0399 7.74806C15.0391 7.77146 15.0383 7.80459 15.0376 7.84732C15.0361 7.93264 15.0347 8.05399 15.0335 8.20764C15.0311 8.51481 15.0293 8.27322 15.0281 8.80373C15.0257 9.86468 15.026 11.3077 15.0296 12.8766C15.036 15.7177 15.0393 16.9647 15.0525 17.6957C15.0591 18.063 15.0681 18.2482 15.0802 18.3486C15.0862 18.3982 15.092 18.4189 15.0951 18.4273C15.0966 18.4315 15.0972 18.433 15.1065 18.4459C15.1879 18.559 15.2515 18.6183 15.3158 18.6525C15.3793 18.6862 15.4588 18.7036 15.5875 18.7036C15.7161 18.7036 15.7956 18.6862 15.8591 18.6525C15.9235 18.6183 15.987 18.559 16.0684 18.446C16.0783 18.4322 16.0784 18.4315 16.0799 18.4274C16.0828 18.4193 16.0887 18.3988 16.0946 18.3486C16.1065 18.2472 16.1151 18.0592 16.1209 17.6848C16.1324 16.9397 16.1325 15.6618 16.1325 12.753C16.1325 9.84419 16.1324 9.0647 16.1209 8.31969C16.1151 7.94526 16.1065 7.75729 16.0946 7.65586C16.0887 7.60565 16.0828 7.58511 16.0799 7.57702C16.0784 7.57294 16.0783 7.57228 16.0684 7.55849C16.0255 7.49891 15.9413 7.41114 15.8891 7.37068M8.5162 7.00064C8.6576 7.01329 8.81623 7.05389 8.92256 7.13621C8.99867 7.19516 9.1024 7.3039 9.16081 7.38504C9.17386 7.40317 9.19404 7.43119 9.21001 7.4747C9.22464 7.51454 9.23389 7.56149 9.24093 7.62144C9.2549 7.74034 9.26353 7.94335 9.26928 8.31544C9.28084 9.06344 9.2809 9.84629 9.2809 12.7533C9.2809 15.6604 9.28084 16.9417 9.26928 17.6897C9.26353 18.0618 9.2549 18.2648 9.24093 18.3837C9.23389 18.4437 9.22464 18.4906 9.21001 18.5305C9.19404 18.574 9.17416 18.6016 9.16111 18.6197C9.06751 18.7497 8.97189 18.8503 8.85053 18.9148C8.72828 18.9798 8.59517 19.0003 8.44138 19.0003C8.2876 19.0003 8.15449 18.9798 8.03223 18.9148C7.91088 18.8504 7.81556 18.7501 7.72197 18.6201C7.70856 18.6015 7.68877 18.5739 7.67278 18.5303C7.65822 18.4907 7.64891 18.444 7.64175 18.3846C7.62756 18.2667 7.61849 18.0665 7.61193 17.7014C7.59872 16.9674 7.59541 15.7169 7.589 12.8777C7.58547 11.3084 7.58517 9.86494 7.58752 8.80343C7.5887 8.27271 7.59054 8.51364 7.59297 8.20564C7.59419 8.05169 7.59555 7.92922 7.59707 7.84248C7.59782 7.79918 7.59862 7.76422 7.59948 7.73848C7.60013 7.71904 7.60106 7.69106 7.60412 7.67331C7.62574 7.54826 7.69549 7.4204 7.7778 7.31614C7.86066 7.21119 7.96952 7.11326 8.08646 7.05823C8.20987 7.00018 8.37338 6.98787 8.5162 7.00064ZM8.21122 7.32663C8.14714 7.35678 8.07212 7.41971 8.00838 7.50044C7.94543 7.58018 7.90618 7.66115 7.89493 7.72031C7.89493 7.72031 7.89448 7.72789 7.89379 7.74841C7.89301 7.77181 7.89225 7.80494 7.8915 7.84768C7.89001 7.93299 7.88865 8.05435 7.88744 8.20799C7.88501 8.51516 7.88318 8.27358 7.882 8.80409C7.87965 9.86504 7.87995 11.3081 7.88348 12.877C7.88989 15.718 7.89321 16.965 7.90636 17.696C7.91297 18.0634 7.92201 18.2486 7.93409 18.3489C7.94007 18.3986 7.94593 18.4193 7.949 18.4276C7.95055 18.4318 7.9511 18.4333 7.96043 18.4463C8.04183 18.5594 8.10538 18.6186 8.16975 18.6528C8.23322 18.6866 8.31271 18.704 8.44138 18.704C8.57004 18.704 8.64953 18.6866 8.713 18.6528C8.77738 18.6186 8.84092 18.5594 8.92232 18.4463C8.93185 18.4331 8.93226 18.4319 8.93361 18.4282C8.93658 18.4202 8.94259 18.3992 8.94849 18.3489C8.9604 18.2475 8.96905 18.0595 8.97484 17.6851C8.98636 16.9401 8.98642 15.6621 8.98642 12.7533C8.98642 9.84454 8.98636 9.06506 8.97484 8.32004C8.96905 7.94562 8.9604 7.75764 8.94849 7.65622C8.94259 7.606 8.93675 7.58546 8.93378 7.57738C8.93243 7.57369 8.93185 7.57208 8.92232 7.55885M8.74295 7.37102C8.70144 7.33888 8.60851 7.30637 8.49012 7.29577C8.37315 7.28531 8.26861 7.29964 8.21122 7.32663M12.0892 7.00064C12.2306 7.01329 12.3893 7.05389 12.4956 7.13621C12.5717 7.19516 12.6754 7.3039 12.7338 7.38504C12.7469 7.40317 12.7671 7.4312 12.783 7.4747C12.7977 7.51454 12.8069 7.56149 12.814 7.62144C12.8279 7.74034 12.8366 7.94335 12.8423 8.31544C12.8539 9.06344 12.8539 9.84629 12.8539 12.7533C12.8539 15.6604 12.8539 16.9417 12.8423 17.6897C12.8366 18.0618 12.8279 18.2648 12.814 18.3837C12.8069 18.4437 12.7977 18.4906 12.783 18.5305C12.7671 18.574 12.7472 18.6016 12.7341 18.6197C12.6406 18.7497 12.5449 18.8503 12.4236 18.9148C12.3013 18.9798 12.1682 19.0003 12.0144 19.0003C11.8606 19.0003 11.7275 18.9798 11.6053 18.9148C11.4839 18.8504 11.3886 18.7501 11.295 18.6201C11.2816 18.6015 11.2618 18.5739 11.2458 18.5303C11.2313 18.4907 11.2219 18.444 11.2148 18.3846C11.2006 18.2667 11.1915 18.0665 11.185 17.7014C11.1718 16.9674 11.1684 15.7169 11.162 12.8777C11.1585 11.3084 11.1582 9.86494 11.1606 8.80343C11.1617 8.27271 11.1636 8.51364 11.166 8.20564C11.1672 8.05169 11.1686 7.92922 11.1701 7.84248C11.1709 7.79918 11.1717 7.76422 11.1725 7.73848C11.1732 7.71904 11.1741 7.69106 11.1772 7.67331C11.1988 7.54826 11.2685 7.4204 11.3508 7.31614C11.4337 7.21119 11.5426 7.11326 11.6595 7.05823C11.7829 7.00018 11.9464 6.98787 12.0892 7.00064ZM12.0632 7.29577C11.9462 7.28531 11.8416 7.29964 11.7843 7.32663C11.7202 7.35678 11.6452 7.41971 11.5814 7.50044C11.5185 7.58018 11.4792 7.66115 11.468 7.72031C11.468 7.72031 11.4675 7.72789 11.4668 7.74841C11.466 7.77181 11.4653 7.80494 11.4645 7.84768C11.463 7.93299 11.4617 8.05435 11.4605 8.20799C11.458 8.51516 11.4562 8.27358 11.455 8.80409C11.4527 9.86504 11.453 11.3081 11.4565 12.877C11.4629 15.718 11.4662 16.965 11.4794 17.696C11.486 18.0634 11.495 18.2486 11.5071 18.3489C11.5131 18.3986 11.519 18.4193 11.522 18.4276C11.5236 18.4318 11.5241 18.4333 11.5335 18.4463C11.6149 18.5594 11.6784 18.6186 11.7428 18.6528C11.8063 18.6866 11.8857 18.704 12.0144 18.704C12.1431 18.704 12.2226 18.6866 12.286 18.6528C12.3504 18.6186 12.414 18.5594 12.4954 18.4463C12.5053 18.4325 12.5053 18.4319 12.5068 18.4278C12.5098 18.4197 12.5156 18.3992 12.5215 18.3489C12.5334 18.2475 12.5421 18.0595 12.5479 17.6851C12.5594 16.9401 12.5595 15.6621 12.5595 12.7533C12.5595 9.84454 12.5594 9.06506 12.5479 8.32004C12.5421 7.94562 12.5334 7.75764 12.5215 7.65622C12.5156 7.606 12.5098 7.58546 12.5068 7.57738C12.5055 7.57369 12.5049 7.57208 12.4954 7.55885M12.0632 7.29577C12.1815 7.30637 12.2745 7.33888 12.316 7.37102Z" fill="#9BA6B2"/>
</svg>
