<svg width="24" height="24" viewBox="0 0 24 24" fill="none" xmlns="http://www.w3.org/2000/svg">
<path fill-rule="evenodd" clip-rule="evenodd" d="M5.18594 16.0615C5.18594 15.6428 5.52492 15.3035 5.94306 15.3035H7.96204C8.38018 15.3035 8.71916 15.6428 8.71916 16.0615C8.71916 16.4802 8.38018 16.8195 7.96204 16.8195H5.94306C5.52492 16.8195 5.18594 16.4802 5.18594 16.0615Z" fill="#9BA6B2"/>
<path fill-rule="evenodd" clip-rule="evenodd" d="M9.72865 16.0615C9.72865 15.6428 10.0676 15.3035 10.4858 15.3035H14.5237C14.9419 15.3035 15.2808 15.6428 15.2808 16.0615C15.2808 16.4802 14.9419 16.8195 14.5237 16.8195H10.4858C10.0676 16.8195 9.72865 16.4802 9.72865 16.0615Z" fill="#9BA6B2"/>
<path fill-rule="evenodd" clip-rule="evenodd" d="M2.16569 4.15003C3.12571 3.19964 4.60235 3 6.38724 3H17.6027C19.3922 3 20.8711 3.19955 21.8324 4.14943C22.7977 5.10324 23 6.57347 23 8.3427V15.6572C23 17.4265 22.7977 18.8962 21.8343 19.8499C20.8743 20.8003 19.3977 20.9999 17.6128 20.9999H6.3884C4.60427 21.0048 3.12712 20.8087 2.1663 19.8593C1.20215 18.9067 1 17.4362 1 15.6673V8.3427C1 6.57339 1.20232 5.10373 2.16569 4.15003ZM1.29596 9.62907V15.6673C1.29596 17.4376 1.50539 18.7909 2.37464 19.6497C3.24122 20.506 4.60163 20.7098 6.38758 20.7048H17.6128C19.3995 20.7048 20.7597 20.4979 21.6258 19.6405C22.4945 18.7805 22.704 17.4278 22.704 15.6572V9.62907C22.5433 9.7755 22.3297 9.86484 22.0949 9.86484H21.4858V15.6572C21.4858 17.4338 21.2462 18.3 20.7697 18.7718C20.2905 19.2462 19.4093 19.4838 17.6128 19.4838L6.38776 19.4838L6.38562 19.4838C4.58903 19.4889 3.70842 19.253 3.22993 18.7802C2.75389 18.3099 2.51424 17.4442 2.51424 15.6673V9.86484H1.9051C1.67035 9.86484 1.45668 9.7755 1.29596 9.62907ZM2.51424 9.56976H1.9051C1.56927 9.56976 1.29596 9.29701 1.29596 8.95925C1.29596 8.62149 1.56927 8.34874 1.9051 8.34874H2.51424V9.56976ZM2.8102 9.86484V15.6673C2.8102 17.4465 3.05741 18.1943 3.43826 18.5706C3.82219 18.95 4.58524 19.1938 6.38458 19.1887M6.38458 19.1887L6.38671 19.1887L17.6128 19.1887C19.4121 19.1887 20.1762 18.9435 20.5611 18.5624C20.9428 18.1846 21.1898 17.436 21.1898 15.6572V9.86484H2.8102M21.1898 9.56976H2.8102V8.34874H21.1898V9.56976ZM21.4858 9.56976H22.0949C22.4307 9.56976 22.704 9.29701 22.704 8.95925C22.704 8.62149 22.4307 8.34874 22.0949 8.34874H21.4858V9.56976ZM21.4835 8.05366H22.0949C22.3296 8.05366 22.5433 8.14298 22.704 8.28937C22.6998 6.54495 22.4858 5.21044 21.6241 4.35902C20.7567 3.50194 19.3941 3.29508 17.6027 3.29508H6.38724C4.60054 3.29508 3.24034 3.502 2.37423 4.35942C1.51425 5.21077 1.30025 6.5449 1.29603 8.28937C1.45673 8.14298 1.67038 8.05366 1.9051 8.05366H2.51647C2.54171 6.47064 2.78038 5.67357 3.23034 5.22812C3.70953 4.75375 4.59073 4.5161 6.38724 4.5161H17.6027C19.4045 4.5161 20.2884 4.75381 20.7688 5.22852C21.2195 5.6739 21.4583 6.47063 21.4835 8.05366ZM2.8125 8.05366H21.1875C21.1617 6.48128 20.9213 5.79467 20.5605 5.43811C20.1743 5.05651 19.4074 4.81118 17.6027 4.81118H6.38724C4.58795 4.81118 3.82385 5.05641 3.43887 5.43752C3.0786 5.79418 2.83827 6.48129 2.8125 8.05366ZM5.03796 16.0615C5.03796 15.5619 5.4426 15.1559 5.94306 15.1559H7.96204C8.4625 15.1559 8.86714 15.5619 8.86714 16.0615C8.86714 16.5611 8.4625 16.9671 7.96204 16.9671H5.94306C5.4426 16.9671 5.03796 16.5611 5.03796 16.0615ZM5.94306 15.451C5.60723 15.451 5.33392 15.7237 5.33392 16.0615C5.33392 16.3993 5.60723 16.672 5.94306 16.672H7.96204C8.29787 16.672 8.57118 16.3993 8.57118 16.0615C8.57118 15.7237 8.29787 15.451 7.96204 15.451H5.94306ZM9.58067 16.0615C9.58067 15.5619 9.98531 15.1559 10.4858 15.1559H14.5237C15.0242 15.1559 15.4288 15.5619 15.4288 16.0615C15.4288 16.5611 15.0242 16.9671 14.5237 16.9671H10.4858C9.98531 16.9671 9.58067 16.5611 9.58067 16.0615ZM10.4858 15.451C10.1499 15.451 9.87663 15.7237 9.87663 16.0615C9.87663 16.3993 10.1499 16.672 10.4858 16.672H14.5237C14.8596 16.672 15.1329 16.3993 15.1329 16.0615C15.1329 15.7237 14.8596 15.451 14.5237 15.451H10.4858Z" fill="#9BA6B2"/>
<path fill-rule="evenodd" clip-rule="evenodd" d="M2.66275 8.2012C2.67545 6.5218 2.91707 5.74617 3.33461 5.33282C3.76669 4.90508 4.58934 4.66364 6.38724 4.66364H17.6027C19.406 4.66364 20.2313 4.90516 20.6646 5.33332C21.0829 5.74658 21.3245 6.52176 21.3373 8.2012H2.66275ZM1.14798 8.95925V8.3427C1.14798 6.57274 1.35391 5.16158 2.26996 4.25472C3.18303 3.35082 4.60144 3.14754 6.38724 3.14754H17.6027C19.3932 3.14754 20.8139 3.35074 21.7283 4.25422C22.6461 5.16117 22.852 6.5728 22.852 8.3427V8.95925V15.6572C22.852 17.4272 22.6461 18.8383 21.73 19.7452C20.817 20.6491 19.3986 20.8524 17.6128 20.8524H6.38799C4.60295 20.8573 3.18417 20.6573 2.27047 19.7545C1.35377 18.8488 1.14798 17.4369 1.14798 15.6673V8.95925ZM21.3378 9.7173V15.6572C21.3378 17.4349 21.0945 18.2423 20.6654 18.6671C20.2333 19.0948 19.4107 19.3363 17.6128 19.3363L6.38724 19.3363L6.3851 19.3363C4.5871 19.3413 3.76531 19.1015 3.3341 18.6754C2.90565 18.2521 2.66222 17.4454 2.66222 15.6673V9.7173H21.3378ZM1.9051 9.56976H2.51424V8.34874H1.9051C1.56927 8.34874 1.29596 8.62149 1.29596 8.95925C1.29596 9.29701 1.56927 9.56976 1.9051 9.56976Z" fill="#9BA6B2"/>
<path d="M2.51424 9.56976H1.9051C1.56927 9.56976 1.29596 9.29701 1.29596 8.95925C1.29596 8.62149 1.56927 8.34874 1.9051 8.34874H2.51424V9.56976Z" fill="#9BA6B2"/>
</svg>
