<svg width="24" height="24" viewBox="0 0 24 24" fill="none" xmlns="http://www.w3.org/2000/svg">
<path d="M12.67 2.15955L21.17 6.92423C21.4195 7.04919 21.6294 7.24144 21.776 7.47941C21.9226 7.71738 22.0002 7.99164 22 8.27138V9.71584C22 10.408 21.44 10.9697 20.75 10.9697H20V18.9944H21C21.2652 18.9944 21.5196 19.1001 21.7071 19.2882C21.8946 19.4763 22 19.7315 22 19.9975C22 20.2636 21.8946 20.5187 21.7071 20.7068C21.5196 20.8949 21.2652 21.0006 21 21.0006H3C2.73478 21.0006 2.48043 20.8949 2.29289 20.7068C2.10536 20.5187 2 20.2636 2 19.9975C2 19.7315 2.10536 19.4763 2.29289 19.2882C2.48043 19.1001 2.73478 18.9944 3 18.9944H4V10.9697H3.25C2.56 10.9697 2 10.408 2 9.71584V8.27138C2 7.74777 2.27 7.26629 2.706 6.99345L11.329 2.15955C11.5373 2.05503 11.7671 2.00061 12 2.00061C12.2329 2.00061 12.4617 2.05503 12.67 2.15955ZM18 10.9697H6V18.9944H9V12.9759H11V18.9944H13V12.9759H15V18.9944H18V10.9697ZM12 4.06643L4 8.58034V8.96352H20V8.58034L12 4.06643ZM12 5.95424C12.2652 5.95424 12.5196 6.05993 12.7071 6.24804C12.8946 6.43616 13 6.6913 13 6.95733C13 7.22337 12.8946 7.47851 12.7071 7.66663C12.5196 7.85474 12.2652 7.96043 12 7.96043C11.7348 7.96043 11.4804 7.85474 11.2929 7.66663C11.1054 7.47851 11 7.22337 11 6.95733C11 6.6913 11.1054 6.43616 11.2929 6.24804C11.4804 6.05993 11.7348 5.95424 12 5.95424Z" fill="#9BA6B2"/>
</svg>
