<svg width="24" height="24" viewBox="0 0 24 24" fill="none" xmlns="http://www.w3.org/2000/svg">
<path fill-rule="evenodd" clip-rule="evenodd" d="M2.98359 3.2961C3.73222 2.45205 4.88042 2 6.41859 2H17.5813C17.9667 2 18.279 2.30412 18.279 2.67927C18.279 3.05442 17.9667 3.35854 17.5813 3.35854C16.9434 3.35854 16.4186 3.86955 16.4186 4.49066V19.8875C16.4186 21.1933 14.8869 21.931 13.8166 21.1574L13.8144 21.1558L12.2164 19.9912C12.1362 19.9311 12.008 19.9346 11.9259 20.0146L10.3631 21.5361C9.72782 22.1546 8.69074 22.1546 8.05549 21.5361L8.05401 21.5347L6.51131 20.0236C6.51113 20.0235 6.51148 20.0238 6.51131 20.0236C6.419 19.9342 6.28617 19.9298 6.19534 19.9961L4.60733 21.1535C4.60671 21.1539 4.60609 21.1544 4.60547 21.1548C3.5281 21.9473 2 21.1948 2 19.8875V6.30205C2 5.21262 2.25147 4.12153 2.98359 3.2961ZM15.3039 3.35854H6.41859C5.16607 3.35854 4.45381 3.71709 4.03966 4.18403C3.60899 4.66959 3.39534 5.38989 3.39534 6.30205V19.8875C3.39534 20.0829 3.61432 20.1815 3.76474 20.0706L3.76796 20.0682L5.35813 18.9093C6.01131 18.4323 6.92053 18.5008 7.49796 19.063L7.49945 19.0644L9.04215 20.5755C9.04231 20.5757 9.04198 20.5753 9.04215 20.5755C9.13254 20.663 9.28624 20.6633 9.37641 20.5755L10.9392 19.0539C11.507 18.5011 12.4179 18.4313 13.063 18.9112L14.6484 20.0666C14.6487 20.0668 14.6489 20.067 14.6492 20.0672C14.8067 20.1802 15.0232 20.0667 15.0232 19.8875V4.49066C15.0232 4.0835 15.1245 3.69856 15.3039 3.35854Z" fill="#9BA6B2"/>
<path fill-rule="evenodd" clip-rule="evenodd" d="M7.3992 7C7.61994 7 7.81219 7.02848 7.97597 7.08545C8.13974 7.14241 8.27859 7.23142 8.39252 7.35247C8.52782 7.48776 8.63106 7.6729 8.70227 7.90788C8.7806 8.14286 8.81976 8.47753 8.81976 8.91188V9.65955H12.4192V10.6422H8.81978V13.3231C8.81978 13.5866 8.85538 13.7717 8.92659 13.8785C8.99779 13.9853 9.15088 14.0387 9.38586 14.0387C9.571 14.0387 9.75614 14.0031 9.94127 13.9319C10.1264 13.8607 10.2937 13.7646 10.4433 13.6435C10.5928 13.5225 10.7139 13.3836 10.8064 13.227C10.899 13.0632 10.9453 12.8959 10.9453 12.725C10.9453 12.611 10.9061 12.5185 10.8278 12.4473C10.7566 12.3689 10.6249 12.3298 10.4326 12.3298C10.2759 12.3298 10.1335 12.3476 10.0054 12.3832L9.86651 11.4646C9.98756 11.429 10.1228 11.4041 10.2724 11.3899C10.4219 11.3685 10.575 11.3578 10.7317 11.3578C11.1375 11.3578 11.4615 11.4539 11.7036 11.6462C11.9528 11.8385 12.0775 12.1411 12.0775 12.5541C12.0775 12.9101 11.9956 13.2376 11.8318 13.5367C11.668 13.8358 11.4473 14.0957 11.1696 14.3164C10.8919 14.5372 10.5857 14.7081 10.251 14.8291C9.92347 14.943 9.59236 15 9.25769 15C8.97999 15 8.74501 14.968 8.55275 14.9039C8.36762 14.8327 8.21453 14.7437 8.09347 14.6368C8.02227 14.5585 7.95462 14.4731 7.89054 14.3805C7.82645 14.2879 7.77661 14.1598 7.741 13.996C7.7054 13.8251 7.6876 13.6008 7.6876 13.3231V10.6422H6.72632V9.65955H7.68758V8.95461C7.68758 8.74099 7.67334 8.56297 7.64486 8.42056C7.61638 8.27815 7.55229 8.17134 7.4526 8.10013C7.36004 8.02181 7.21762 7.98264 7.02537 7.98264C6.91144 7.98264 6.79395 8.00045 6.6729 8.03605C6.55897 8.06453 6.45216 8.09657 6.35247 8.13218L6 7.28838C6.24922 7.1887 6.48064 7.11749 6.69426 7.07477C6.90788 7.02492 7.14286 7 7.3992 7Z" fill="#9BA6B2"/>
<path fill-rule="evenodd" clip-rule="evenodd" d="M17.5972 3.35855C16.9468 3.36012 16.4188 3.87488 16.4188 4.49972V10.1513H18.9025C19.488 10.1513 19.8981 9.97377 20.1603 9.71848C20.4225 9.46319 20.6048 9.0639 20.6048 8.49383V6.30205C20.6048 5.49569 20.2669 4.75921 19.7191 4.21761C19.1777 3.69131 18.4236 3.3668 17.5972 3.35855ZM15.0234 4.49972C15.0234 3.11486 16.1868 2 17.6002 2H17.6066L17.6066 2.00003C18.8059 2.01074 19.9102 2.48241 20.7074 3.25861L20.7108 3.26193L20.7108 3.26194C21.5016 4.0425 22.0002 5.11672 22.0002 6.30205V8.49383C22.0002 9.35475 21.7173 10.1238 21.147 10.6791C20.5766 11.2344 19.7867 11.5098 18.9025 11.5098H15.7211C15.3358 11.5098 15.0234 11.2057 15.0234 10.8305V4.49972Z" fill="#9BA6B2"/>
</svg>
