<svg width="24" height="24" viewBox="0 0 24 24" fill="none" xmlns="http://www.w3.org/2000/svg">
<path fill-rule="evenodd" clip-rule="evenodd" d="M2.98359 3.2961C3.73222 2.45205 4.88042 2 6.41859 2H17.5813C17.9667 2 18.279 2.30412 18.279 2.67927C18.279 3.05442 17.9667 3.35854 17.5813 3.35854C16.9434 3.35854 16.4186 3.86955 16.4186 4.49066V19.8875C16.4186 21.1933 14.8869 21.931 13.8166 21.1574L13.8144 21.1558L12.2164 19.9912C12.1362 19.9311 12.008 19.9346 11.9259 20.0146L10.3631 21.5361C9.72782 22.1546 8.69074 22.1546 8.05549 21.5361L8.05401 21.5347L6.51131 20.0236C6.419 19.9342 6.28617 19.9298 6.19534 19.9961L4.60733 21.1535L4.60547 21.1548C3.5281 21.9473 2 21.1948 2 19.8875V6.30205C2 5.21262 2.25147 4.12153 2.98359 3.2961ZM15.3039 3.35854H6.41859C5.16607 3.35854 4.45381 3.71709 4.03966 4.18403C3.60899 4.66959 3.39534 5.38989 3.39534 6.30205V19.8875C3.39534 20.0829 3.61432 20.1815 3.76474 20.0706L3.76796 20.0682L5.35813 18.9093C6.01131 18.4323 6.92053 18.5008 7.49796 19.063L7.49945 19.0644L9.04215 20.5755C9.13254 20.663 9.28624 20.6633 9.37641 20.5755L10.9392 19.0539C11.507 18.5011 12.4179 18.4313 13.063 18.9112L14.6484 20.0666C14.806 20.1797 15.0232 20.0667 15.0232 19.8875V4.49066C15.0232 4.0835 15.1245 3.69856 15.3039 3.35854Z" fill="#9BA6B2"/>
<path fill-rule="evenodd" clip-rule="evenodd" d="M17.597 3.35855C16.9466 3.36012 16.4186 3.87488 16.4186 4.49972V10.1513H18.9023C19.4879 10.1513 19.898 9.97377 20.1602 9.71848C20.4224 9.46319 20.6047 9.0639 20.6047 8.49383V6.30205C20.6047 5.49569 20.2667 4.75921 19.719 4.21761C19.1775 3.69131 18.4234 3.3668 17.597 3.35855ZM15.0233 4.49972C15.0233 3.11486 16.1867 2 17.6 2H17.6064C18.8057 2.01071 19.9101 2.48241 20.7073 3.25861L20.7107 3.26193C21.5014 4.04249 22 5.11672 22 6.30205V8.49383C22 9.35475 21.7172 10.1238 21.1468 10.6791C20.5765 11.2344 19.7866 11.5098 18.9023 11.5098H15.721C15.3356 11.5098 15.0233 11.2057 15.0233 10.8305V4.49972Z" fill="#9BA6B2"/>
</svg>
