<svg width="24" height="24" viewBox="0 0 24 24" fill="none" xmlns="http://www.w3.org/2000/svg">
<path d="M12.6266 2.00061L12.6315 2.00142C12.7584 2.01846 12.8878 2.03395 13.0132 2.04944C13.2847 2.08238 13.5658 2.11709 13.84 2.16825C15.9438 2.56049 17.9107 3.66242 19.3787 5.27047C20.846 6.87819 21.7619 8.93427 21.9569 11.059C22.1332 12.9791 21.7693 14.8392 20.8753 16.588C20.8225 16.6915 20.7919 16.8193 20.7915 16.9379C20.7857 18.2193 20.7803 19.7076 20.7923 21.1583C20.7958 21.5882 20.6349 21.8542 20.2869 21.9949L20.2731 22.0006H14.1525L14.1354 21.9917C14.097 21.9711 14.0588 21.9457 14.0223 21.9209C13.9764 21.8892 13.9292 21.8569 13.8896 21.8427L13.853 21.8354H13.8481C13.5429 21.8602 13.2324 21.9064 12.9326 21.951C12.8194 21.9676 12.7065 21.9847 12.5933 22.0006H11.3726L11.3644 21.999C11.3477 21.9955 11.3302 21.991 11.3132 21.9868C11.2818 21.9787 11.2524 21.9708 11.2253 21.9689C10.3872 21.9115 9.64984 21.7669 8.97021 21.5278C7.10872 20.8724 5.59152 19.8886 4.46094 18.6022C3.32335 17.3072 2.5481 15.6729 2.15544 13.7446C2.10419 13.4923 2.07346 13.2328 2.04395 12.9821C2.03036 12.8667 2.01591 12.7475 2 12.6313V11.3724L2.00163 11.365C2.00548 11.3466 2.0096 11.3281 2.01383 11.3097C2.02238 11.2733 2.03104 11.2385 2.03337 11.2055C2.17087 9.45597 2.72517 7.85625 3.68213 6.45048C5.2349 4.16837 7.38308 2.73607 10.0664 2.19267C10.3619 2.13261 10.6656 2.09435 10.9591 2.05676C11.0939 2.03932 11.2338 2.0208 11.3701 2.00142L11.375 2.00061H12.6266ZM12.0049 3.3206C11.3125 3.32063 10.6143 3.40407 9.9305 3.56799C8.78686 3.84243 7.72936 4.3416 6.78841 5.05237C5.8816 5.73762 5.1251 6.58599 4.53906 7.57353C3.95188 8.56338 3.56961 9.63659 3.40299 10.7636C3.23018 11.9329 3.30027 13.1027 3.61051 14.2402C4.1216 16.1149 5.209 17.7304 6.75423 18.9106C8.25878 20.0594 10.1094 20.6928 11.965 20.6928C12.4958 20.6928 13.03 20.6414 13.5527 20.5406C13.656 20.5205 13.6638 20.5032 13.6634 20.4047C13.6584 19.1412 13.6598 17.8218 13.661 16.7614C13.6614 16.2924 13.9233 16.0325 14.3983 16.0306H14.8247C14.8247 15.814 14.8239 15.5996 14.8231 15.3868C14.8219 14.8442 14.8213 14.331 14.8263 13.8089C14.8342 12.9815 15.1908 12.3162 15.8859 11.8313C15.9642 11.7764 15.9828 11.7393 15.9754 11.6515C15.8659 10.3627 15.2776 9.34159 14.2274 8.61601C14.0452 8.49004 13.9259 8.31648 13.8921 8.12773C13.8623 7.96122 13.8998 7.79776 14.0003 7.65409C14.1246 7.47664 14.3082 7.3791 14.5171 7.37903C14.6713 7.37903 14.8326 7.43338 14.9818 7.53609C16.125 8.32173 16.8591 9.39802 17.1644 10.7343C17.2036 10.9062 17.2324 11.082 17.258 11.2373C17.2661 11.2865 17.2738 11.3348 17.2816 11.3805L18.2866 11.6409C18.2928 11.2918 18.2455 10.9113 18.1434 10.4821C17.8245 9.13925 17.1123 7.97092 16.0828 7.10396C15.0536 6.2373 13.776 5.72966 12.3898 5.63586C12.2528 5.62658 12.1134 5.62203 11.9756 5.62203C9.54948 5.62208 7.33565 7.04232 6.33512 9.24019C6.2202 9.49243 6.11284 9.75459 6.00879 10.0076C5.9226 10.2176 5.83379 10.4349 5.74023 10.6464C5.62412 10.9104 5.38872 11.0745 5.12581 11.0745C5.03424 11.0745 4.94294 11.0546 4.85563 11.0159C4.51424 10.8644 4.3801 10.4834 4.53662 10.111C4.57467 10.0207 4.61158 9.92741 4.6473 9.83752C4.71987 9.65549 4.79522 9.4671 4.8833 9.28739C4.96137 9.12848 5.03652 8.96245 5.10954 8.80237C5.30253 8.3788 5.50197 7.9404 5.77767 7.56295C7.35333 5.4064 9.40142 4.31266 11.8649 4.31262L12.2441 4.32157C12.6276 4.33879 13.0223 4.38211 13.4217 4.45015C15.3169 4.77341 16.9924 5.80791 18.1393 7.36438C19.3048 8.94611 19.8077 10.9222 19.5545 12.9283C19.5522 12.9466 19.5499 12.9651 19.5472 12.9837C19.5375 13.053 19.5287 13.1186 19.5326 13.1806C19.5423 13.3224 19.5547 13.4672 19.5675 13.6071C19.5893 13.8461 19.6122 14.0934 19.618 14.3378C19.6227 14.5378 19.5555 14.7182 19.4308 14.8465C19.3116 14.9689 19.1463 15.0369 18.9645 15.0377H18.9604C18.578 15.0377 18.3148 14.7519 18.3053 14.3265C18.3038 14.2633 18.3041 14.1992 18.3037 14.136C18.3029 13.9652 18.3022 13.7878 18.2785 13.6201C18.2128 13.1483 17.804 12.7849 17.3092 12.7412L17.2091 12.7371C17.1959 12.7371 17.1817 12.7375 17.1685 12.7379C16.635 12.7571 16.1708 13.1898 16.1553 13.6827C16.1374 14.2399 16.1416 14.7873 16.1455 15.3665C16.1471 15.5859 16.1484 15.8077 16.1488 16.0306C16.1488 16.0306 17.5742 16.0297 17.8325 16.0297C18.2989 16.0297 18.9142 16.0299 19.5382 16.0338C19.6515 16.0338 19.6953 16.0059 19.7458 15.9036C20.6033 14.168 20.8696 12.3477 20.536 10.4943C20.1693 8.45477 19.1003 6.61381 17.5273 5.31034C15.9781 4.02712 14.017 3.3206 12.0049 3.3206ZM14.9932 20.6692H19.4601V17.3603H14.9932V20.6692ZM11.9634 8.94967C12.0158 8.94967 12.0692 8.95145 12.1213 8.95455C13.5587 9.04137 14.6605 9.98348 14.9289 11.3536C15.0438 11.9396 14.9769 12.5444 14.7124 13.3133C14.2611 14.6251 13.5675 15.8781 12.5916 17.1438C12.1489 17.7182 11.6575 18.269 11.1829 18.8016C11.068 18.9306 10.9525 19.0603 10.8379 19.1897C10.6907 19.3567 10.5022 19.4485 10.3073 19.4485C10.1416 19.4484 9.98096 19.38 9.85482 19.2557C9.58 18.9847 9.59956 18.5802 9.90283 18.271C11.2481 16.8989 12.2593 15.5079 12.9953 14.0197C13.2811 13.4414 13.5582 12.8123 13.6463 12.1324C13.7537 11.302 13.2508 10.5442 12.4508 10.3307C12.3053 10.292 12.1563 10.2721 12.0081 10.2721C11.3359 10.2721 10.735 10.6752 10.4782 11.2991C10.4665 11.327 10.4565 11.3563 10.4465 11.3846C10.4329 11.4225 10.4187 11.4615 10.4017 11.5001C10.2929 11.7447 10.0539 11.903 9.79215 11.903C9.72033 11.9029 9.64971 11.8904 9.58138 11.8671C9.25358 11.7551 9.07246 11.3975 9.16878 11.0533C9.50483 9.85399 10.706 8.94981 11.9634 8.94967ZM12.013 11.2788C12.106 11.2788 12.1977 11.2993 12.2856 11.3398C12.5288 11.4518 12.6646 11.6791 12.6673 11.9795V11.9868L12.6657 11.9949C12.6645 11.9999 12.6632 12.0072 12.6616 12.0161C12.6566 12.051 12.6485 12.1092 12.6299 12.1658C11.8368 14.6042 10.4265 16.5138 8.43799 17.8413C8.30134 17.9327 8.15745 18.0148 8.03516 18.0838C7.91942 18.1489 7.79202 18.1839 7.66813 18.1839C7.43284 18.1839 7.22314 18.0608 7.10661 17.8543C6.92448 17.5307 7.03605 17.1497 7.37191 16.9485C8.93206 16.016 10.1285 14.6628 10.9274 12.9267C11.0544 12.6504 11.1602 12.3567 11.2635 12.073C11.3035 11.9626 11.344 11.8519 11.3856 11.7418C11.4917 11.4606 11.7381 11.2788 12.013 11.2788ZM8.98161 12.401C9.09807 12.401 9.21401 12.4342 9.31689 12.4954C9.47029 12.5869 9.58255 12.7362 9.62451 12.9056C9.66452 13.0672 9.63827 13.2345 9.55127 13.3767C8.65257 14.8449 7.63617 15.7781 6.35221 16.3138C6.29369 16.3381 6.23419 16.3572 6.17643 16.3715C6.14109 16.3801 6.10607 16.3809 6.08122 16.3813C6.07438 16.3813 6.06828 16.3809 6.06331 16.3813L6.06087 16.3821L6.0568 16.3813C5.74985 16.3773 5.47928 16.1705 5.4139 15.8898C5.33935 15.5697 5.48143 15.2569 5.75163 15.1468C6.78474 14.7255 7.63232 13.955 8.41764 12.7225C8.54581 12.5217 8.75638 12.401 8.98161 12.401ZM8.97998 7.74524C9.07427 7.74528 9.17145 7.76868 9.26807 7.8136C9.51608 7.92912 9.63335 8.13907 9.64811 8.49475L9.64893 8.51754L9.63753 8.53625C9.62821 8.55253 9.61698 8.57756 9.60417 8.60624C9.56534 8.69227 9.51219 8.80978 9.41943 8.89189C8.82884 9.41588 8.40231 10.1061 8.11572 11.0021C7.75724 12.1234 7.26406 12.9129 6.5638 13.4858C6.23057 13.7583 5.83543 13.9613 5.45947 14.1458C5.36043 14.195 5.25761 14.2198 5.1543 14.2198C4.88988 14.2198 4.65478 14.0505 4.55615 13.7893C4.423 13.4363 4.5998 13.0754 4.97689 12.9316C5.67515 12.6649 6.1834 12.149 6.57682 11.3064C6.72791 10.9824 6.84825 10.6386 6.96826 10.2859C7.2883 9.34531 7.81686 8.55144 8.53727 7.9259C8.67506 7.80633 8.82436 7.74524 8.97998 7.74524ZM12.0643 6.56685L12.0789 6.61894C12.1375 6.62435 12.1966 6.62894 12.2555 6.63359C12.4275 6.64753 12.6053 6.66262 12.7796 6.68974C13.1209 6.74321 13.3532 7.04928 13.3192 7.40263C13.2881 7.72472 13.0081 7.98694 12.6958 7.98694C12.6748 7.98694 12.6533 7.98519 12.6323 7.98287C12.4425 7.96195 12.2528 7.95113 12.0684 7.95113C11.6592 7.95115 11.2531 8.00402 10.8607 8.10819C10.8125 8.12099 10.7635 8.12773 10.7142 8.12773C10.4323 8.1277 10.1736 7.91881 10.099 7.63131C10.0528 7.45358 10.0783 7.26528 10.1698 7.11536C10.2548 6.97621 10.3906 6.87835 10.5514 6.84192C10.8868 6.76522 11.2315 6.7077 11.5646 6.6523C11.7079 6.62827 11.8514 6.60464 11.9943 6.57906L12.0643 6.56685Z" fill="#9BA6B2"/>
</svg>
