<svg width="24" height="24" viewBox="0 0 24 24" fill="none" xmlns="http://www.w3.org/2000/svg">
<path fill-rule="evenodd" clip-rule="evenodd" d="M6.44015 3.00061C4.22366 3.00061 2.48685 3.24862 1.37307 4.32992C0.25609 5.41433 0 7.10789 0 9.26197V9.80175C0 10.2787 0.394128 10.6654 0.880309 10.6654C1.93736 10.6654 2.77992 11.4963 2.77992 12.5006C2.77992 13.5049 1.93736 14.3358 0.880309 14.3358C0.394128 14.3358 0 14.7225 0 15.1995V15.7392C0 17.8933 0.25609 19.5869 1.37307 20.6713C2.48685 21.7526 4.22366 22.0006 6.44015 22.0006L10.7761 22.0006L17.5598 22.0006C19.7763 22.0006 21.5132 21.7526 22.6269 20.6713C23.7439 19.5869 24 17.8933 24 15.7392C24 15.2623 23.6059 14.8756 23.1197 14.8756C22.0626 14.8756 21.2201 14.0447 21.2201 13.0404C21.2201 12.0361 22.0626 11.2052 23.1197 11.2052C23.6059 11.2052 24 10.8185 24 10.3415V9.26197C24 7.10789 23.7439 5.41433 22.6269 4.32992C21.5132 3.24862 19.7763 3.00061 17.5598 3.00061L10.7761 3.00061L6.44015 3.00061ZM11.6564 4.72788V3.86425C11.6564 3.38727 11.2622 3.00061 10.7761 3.00061C10.2899 3.00061 9.89576 3.38727 9.89576 3.86425V4.72788H6.44015C4.20877 4.72788 3.16566 5.01964 2.61148 5.55766C2.0795 6.07414 1.78158 7.02916 1.76168 9.04237C3.35211 9.42587 4.54054 10.8234 4.54054 12.5006C4.54054 14.1779 3.35211 15.5754 1.76168 15.9588C1.78158 17.9721 2.0795 18.9271 2.61148 19.4436C3.16566 19.9816 4.20877 20.2733 6.44015 20.2733H9.89576V18.9779C9.89576 18.5009 10.2899 18.1142 10.7761 18.1142C11.2622 18.1142 11.6564 18.5009 11.6564 18.9779V20.2733H17.5598C19.7912 20.2733 20.8343 19.9816 21.3885 19.4436C21.8708 18.9753 22.1608 18.1465 22.2255 16.4955C20.6415 16.1076 19.4595 14.7131 19.4595 13.0404C19.4595 11.3628 20.6484 9.96501 22.2394 9.58189V9.26197C22.2394 7.09788 21.9395 6.09257 21.3885 5.55766C20.8343 5.01964 19.7912 4.72788 17.5598 4.72788H11.6564ZM11.6564 4.72788H9.89576V6.02334C9.89576 6.50031 10.2899 6.88697 10.7761 6.88697C11.2622 6.88697 11.6564 6.50031 11.6564 6.02334L11.6564 4.72788ZM11.6564 10.3415C11.6564 9.86455 11.2622 9.47788 10.7761 9.47788C10.2899 9.47788 9.89576 9.86455 9.89576 10.3415L9.89576 14.6597C9.89576 15.1367 10.2899 15.5233 10.7761 15.5233C11.2622 15.5233 11.6564 15.1367 11.6564 14.6597V10.3415Z" fill="#9BA6B2"/>
<path d="M11.6564 3.86425C11.6564 3.38727 11.2622 3.00061 10.7761 3.00061C10.2899 3.00061 9.89576 3.38727 9.89576 3.86425V4.72788H11.6564V3.86425Z" fill="#9BA6B2"/>
</svg>
