<svg width="24" height="24" viewBox="0 0 24 24" fill="none" xmlns="http://www.w3.org/2000/svg">
<path d="M7.26444 6.08847C6.90717 6.08847 6.6109 5.79885 6.6109 5.44961V2.89413C6.6109 2.54489 6.90717 2.25527 7.26444 2.25527C7.62171 2.25527 7.91798 2.54489 7.91798 2.89413V5.44961C7.91798 5.79885 7.62171 6.08847 7.26444 6.08847Z" fill="#9BA6B2"/>
<path d="M16.7356 6.08847C16.3783 6.08847 16.082 5.79885 16.082 5.44961V2.89413C16.082 2.54489 16.3783 2.25527 16.7356 2.25527C17.0928 2.25527 17.3891 2.54489 17.3891 2.89413V5.44961C17.3891 5.79885 17.0928 6.08847 16.7356 6.08847Z" fill="#9BA6B2"/>
<path d="M20.6568 9.5723H3.34319C2.98592 9.5723 2.68964 9.28268 2.68964 8.93343C2.68964 8.58419 2.98592 8.29456 3.34319 8.29456H20.6568C21.0141 8.29456 21.3104 8.58419 21.3104 8.93343C21.3104 9.28268 21.0141 9.5723 20.6568 9.5723Z" fill="#9BA6B2"/>
<path fill-rule="evenodd" clip-rule="evenodd" d="M8.04869 3.40219V2.89413C8.04869 2.46975 7.69098 2.12445 7.26444 2.12445C6.8379 2.12445 6.48019 2.46975 6.48019 2.89413V3.44031C5.22919 3.56612 4.21249 4.0017 3.47515 4.72248C2.58883 5.58889 2.12324 6.85071 2.12324 8.43099V16.848C2.12324 18.4282 2.58883 19.6901 3.47515 20.5565C4.36103 21.4225 5.65018 21.8768 7.26444 21.8768H16.7356C18.3498 21.8768 19.639 21.4225 20.5249 20.5565C21.4112 19.6901 21.8768 18.4282 21.8768 16.848V8.43099C21.8768 6.85071 21.4112 5.58889 20.5249 4.72248C19.7875 4.0017 18.7708 3.56612 17.5198 3.44031V2.89413C17.5198 2.46975 17.1621 2.12445 16.7356 2.12445C16.309 2.12445 15.9513 2.46975 15.9513 2.89413V3.40219H8.04869ZM8.04869 4.67992V3.66382H15.9513V4.67992H8.04869ZM6.48019 4.98653V5.44961C6.48019 5.87399 6.8379 6.21929 7.26444 6.21929C7.69098 6.21929 8.04869 5.87399 8.04869 5.44961V4.94155H15.9513V5.44961C15.9513 5.87399 16.309 6.21929 16.7356 6.21929C17.1621 6.21929 17.5198 5.87399 17.5198 5.44961V4.98653C18.3502 5.08833 18.9818 5.36222 19.4305 5.80086C19.9665 6.3248 20.2614 7.10321 20.3031 8.16375H3.69689C3.7386 7.10321 4.03353 6.3248 4.5695 5.80086C5.01823 5.36222 5.64976 5.08833 6.48019 4.98653ZM6.48019 4.72309V3.70326C5.2875 3.82774 4.33887 4.24388 3.65781 4.90964C2.83402 5.71493 2.38466 6.90211 2.38466 8.43099V16.848C2.38466 18.3768 2.83402 19.564 3.65781 20.3693C4.48203 21.175 5.69813 21.6151 7.26444 21.6151H16.7356C18.3019 21.6151 19.518 21.175 20.3422 20.3693C21.166 19.564 21.6153 18.3768 21.6153 16.848V8.43099C21.6153 6.90211 21.166 5.71493 20.3422 4.90964C19.6611 4.24388 18.7125 3.82774 17.5198 3.70326V4.72309C18.4059 4.82671 19.1064 5.11834 19.6132 5.6137C20.2143 6.20134 20.5228 7.05615 20.5647 8.16375H20.6568C21.0834 8.16375 21.4411 8.50905 21.4411 8.93343C21.4411 9.35781 21.0834 9.70312 20.6568 9.70312H20.5697V16.848C20.5697 18.0861 20.2618 19.0312 19.6132 19.6653C18.9651 20.2987 18.0001 20.599 16.7356 20.599H7.26444C5.99989 20.599 5.03488 20.2987 4.38684 19.6653C3.73821 19.0312 3.43032 18.0861 3.43032 16.848V9.70312H3.34319C2.91664 9.70312 2.55893 9.35781 2.55893 8.93343C2.55893 8.50905 2.91664 8.16375 3.34319 8.16375H3.43529C3.47724 7.05615 3.7857 6.20134 4.38684 5.6137C4.89358 5.11834 5.59414 4.82671 6.48019 4.72309ZM3.43033 8.42538H3.34319C3.05519 8.42538 2.82035 8.65932 2.82035 8.93343C2.82035 9.20755 3.05519 9.44148 3.34319 9.44148H3.43032L3.43033 8.42538ZM3.69174 9.70312V16.848C3.69174 18.0461 3.98948 18.9111 4.5695 19.4781C5.15012 20.0457 6.03682 20.3374 7.26444 20.3374H16.7356C17.9632 20.3374 18.8499 20.0457 19.4305 19.4781C20.0105 18.9111 20.3083 18.0461 20.3083 16.848V9.70312H3.69174ZM20.3083 9.44148H3.69174L3.69174 8.42538H20.3083V9.44148ZM20.5697 9.44148H20.6568C20.9448 9.44148 21.1796 9.20755 21.1796 8.93343C21.1796 8.65932 20.9448 8.42538 20.6568 8.42538H20.5697V9.44148ZM17.2584 4.69835V3.68092C17.0887 3.66956 16.9144 3.66382 16.7356 3.66382H16.2127V4.67992H16.7356C16.916 4.67992 17.0902 4.68603 17.2584 4.69835ZM16.2127 4.94155V5.44961C16.2127 5.72372 16.4476 5.95766 16.7356 5.95766C17.0236 5.95766 17.2584 5.72372 17.2584 5.44961V4.96068C17.0915 4.94794 16.9173 4.94155 16.7356 4.94155H16.2127ZM16.2127 3.40219H16.7356C16.9138 3.40219 17.0882 3.40773 17.2584 3.41875V2.89413C17.2584 2.62002 17.0236 2.38608 16.7356 2.38608C16.4476 2.38608 16.2127 2.62002 16.2127 2.89413V3.40219Z" fill="#9BA6B2"/>
<path d="M6.48019 3.70326V4.72309C5.59414 4.82671 4.89358 5.11834 4.38684 5.6137C3.7857 6.20134 3.47724 7.05615 3.43529 8.16375H3.34319C2.91664 8.16375 2.55893 8.50905 2.55893 8.93343C2.55893 9.35781 2.91664 9.70312 3.34319 9.70312H3.43032V16.848C3.43032 18.0861 3.73821 19.0312 4.38684 19.6653C5.03488 20.2987 5.99989 20.599 7.26444 20.599H16.7356C18.0001 20.599 18.9651 20.2987 19.6132 19.6653C20.2618 19.0312 20.5697 18.0861 20.5697 16.848V9.70312H20.6568C21.0834 9.70312 21.4411 9.35781 21.4411 8.93343C21.4411 8.50905 21.0834 8.16375 20.6568 8.16375H20.5647C20.5228 7.05615 20.2143 6.20134 19.6132 5.6137C19.1064 5.11834 18.4059 4.82671 17.5198 4.72309V3.70326C18.7125 3.82774 19.6611 4.24388 20.3422 4.90964C21.166 5.71493 21.6153 6.90211 21.6153 8.43099V16.848C21.6153 18.3768 21.166 19.564 20.3422 20.3693C19.518 21.175 18.3019 21.6151 16.7356 21.6151H7.26444C5.69813 21.6151 4.48203 21.175 3.65781 20.3693C2.83402 19.564 2.38466 18.3768 2.38466 16.848V8.43099C2.38466 6.90211 2.83402 5.71493 3.65781 4.90964C4.33887 4.24388 5.2875 3.82774 6.48019 3.70326Z" fill="#9BA6B2"/>
<path d="M8.04869 4.67992V3.66382H15.9513V4.67992H8.04869Z" fill="#9BA6B2"/>
<path fill-rule="evenodd" clip-rule="evenodd" d="M6.35695 2.89413C6.35695 2.39803 6.7732 2.00061 7.26444 2.00061C7.75568 2.00061 8.17193 2.39803 8.17193 2.89413V3.27835H15.8281V2.89413C15.8281 2.39803 16.2443 2.00061 16.7356 2.00061C17.2268 2.00061 17.6431 2.39803 17.6431 2.89413V3.32911C18.8655 3.47129 19.8717 3.91124 20.6108 4.63371C21.5267 5.52904 22 6.82626 22 8.43099V16.848C22 18.4527 21.5267 19.7499 20.6108 20.6452C19.6958 21.5397 18.3723 22.0006 16.7356 22.0006H7.26444C5.62772 22.0006 4.30419 21.5397 3.38921 20.6452C2.47332 19.7499 2 18.4527 2 16.848V8.43099C2 6.82626 2.47332 5.52904 3.38921 4.63371C4.12829 3.91124 5.13451 3.47129 6.35695 3.32911V2.89413ZM8.04122 3.5258V3.5402L8.04869 3.53998H15.9513L15.9588 3.5402V3.5258L15.9513 3.52602H8.04869L8.04122 3.5258ZM16.2053 3.5258V3.5402L16.2127 3.53998H16.6125L16.6123 3.533L16.6125 3.52602H16.2127L16.2053 3.5258ZM17.1352 3.41875C17.1763 3.42076 17.2173 3.42308 17.2579 3.42572L17.2659 3.42623V3.41875M17.2659 3.54236V3.55731ZM17.1352 4.56647V3.7977C17.0048 3.79102 16.8716 3.78766 16.7356 3.78766H16.336V4.55608H16.7356C16.872 4.55608 17.0052 4.55953 17.1352 4.56647ZM16.6125 4.80376H16.2127L16.2053 4.80354V4.81794L16.2127 4.81771H16.6125L16.6123 4.81074L16.6125 4.80376ZM15.9588 4.81794V4.80354L15.9513 4.80376H8.04869L8.04122 4.80354V4.81794L8.04869 4.81771H15.9513L15.9588 4.81794ZM6.48766 4.86292V4.84689C5.62358 4.94901 4.95353 5.2325 4.47277 5.70247C3.90163 6.26078 3.59964 7.08065 3.55844 8.16846L3.55833 8.17073H3.57384C3.57362 8.16679 3.57359 8.16283 3.57374 8.15886C3.61623 7.07844 3.91772 6.26524 4.48357 5.7121C4.9567 5.24959 5.61611 4.9677 6.46526 4.8636C6.47275 4.86269 6.48024 4.86247 6.48766 4.86292ZM17.6431 5.1283V5.44961C17.6431 5.94571 17.2268 6.34313 16.7356 6.34313C16.2443 6.34313 15.8281 5.94571 15.8281 5.44961V5.06539H8.17193V5.44961C8.17193 5.94571 7.75568 6.34313 7.26444 6.34313C6.7732 6.34313 6.35695 5.94571 6.35695 5.44961V5.1283C5.61448 5.24008 5.05532 5.49872 4.65544 5.88963C4.17046 6.36372 3.8854 7.06635 3.82644 8.03991H20.1736C20.1146 7.06635 19.8295 6.36372 19.3446 5.88963C18.9447 5.49873 18.3855 5.24008 17.6431 5.1283ZM17.6431 3.84205V4.61388C18.4975 4.73049 19.1891 5.02642 19.6991 5.52493C20.3079 6.12008 20.6225 6.96902 20.6823 8.04027C21.0407 8.05032 21.3555 8.27143 21.4921 8.5857V8.43099C21.4921 6.92659 21.0505 5.77481 20.2563 4.99841C19.6246 4.38096 18.7497 3.9808 17.6431 3.84205ZM21.4921 9.28116C21.3569 9.59233 21.0469 9.81217 20.6929 9.82624V16.848C20.6929 18.1051 20.3802 19.0882 19.6991 19.754C19.0193 20.4186 18.0174 20.7229 16.7356 20.7229H7.26444C5.98262 20.7229 4.98075 20.4186 4.3009 19.754C3.6198 19.0882 3.30708 18.1051 3.30708 16.848V9.82624C2.95311 9.81217 2.64313 9.59233 2.5079 9.28116V16.848C2.5079 18.3524 2.94951 19.5042 3.74374 20.2805C4.53888 21.0578 5.72061 21.4913 7.26444 21.4913H16.7356C18.2794 21.4913 19.4611 21.0578 20.2563 20.2805C21.0505 19.5042 21.4921 18.3524 21.4921 16.848V9.28116ZM2.5079 8.5857C2.64448 8.27143 2.95932 8.05031 3.3177 8.04027C3.37752 6.96902 3.69209 6.12008 4.30091 5.52493C4.81087 5.02642 5.50252 4.73049 6.35695 4.61388V3.84205C5.25034 3.9808 4.37538 4.38096 3.74374 4.99841C2.94951 5.77481 2.5079 6.92659 2.5079 8.43099V8.5857ZM6.48766 3.57965V3.56401C5.26048 3.68828 4.27351 4.11481 3.56108 4.81124C2.72717 5.62643 2.27116 6.81009 2.24745 8.30732L2.25395 8.30715C2.25679 8.30715 2.2596 8.30725 2.26239 8.30744C2.28608 6.8127 2.74128 5.63282 3.57188 4.82088C4.27671 4.13187 5.25319 3.70681 6.46746 3.58008C6.47422 3.57938 6.48097 3.57924 6.48766 3.57965ZM17.1352 3.28778C17.0042 3.2815 16.8709 3.27835 16.7356 3.27835H16.336V2.89413C16.336 2.6914 16.5126 2.50992 16.7356 2.50992C16.9585 2.50992 17.1352 2.6914 17.1352 2.89413V3.28778ZM7.79474 3.5258L7.78727 3.52602C7.71921 3.52602 7.66403 3.47058 7.66403 3.40219V2.89413C7.66403 2.6914 7.48739 2.50992 7.26444 2.50992C7.04149 2.50992 6.86485 2.6914 6.86485 2.89413V3.41875C6.86485 3.48715 6.80967 3.54259 6.74161 3.54259L6.73414 3.54237V3.55731L6.74161 3.55709C6.80967 3.55709 6.86485 3.61253 6.86485 3.68092V4.69835C6.86485 4.76674 6.80967 4.82219 6.74161 4.82219L6.73414 4.82196V4.83706L6.74161 4.83684C6.80967 4.83684 6.86485 4.89228 6.86485 4.96068V5.44961C6.86485 5.65234 7.04149 5.83382 7.26444 5.83382C7.48739 5.83382 7.66403 5.65234 7.66403 5.44961V4.94155C7.66403 4.87316 7.71921 4.81771 7.78727 4.81771L7.79474 4.81794V4.80354L7.78727 4.80376C7.71921 4.80376 7.66403 4.74832 7.66403 4.67992V3.66382C7.66403 3.59542 7.71921 3.53998 7.78727 3.53998L7.79474 3.5402V3.5258ZM8.17193 3.78766V4.55608H15.8281V3.78766H8.17193ZM16.336 5.06539V5.44961C16.336 5.65234 16.5126 5.83382 16.7356 5.83382C16.9585 5.83382 17.1352 5.65234 17.1352 5.44961V5.07654C17.0065 5.06912 16.8733 5.06539 16.7356 5.06539H16.336ZM3.30709 8.55082C3.10147 8.56911 2.94359 8.74177 2.94359 8.93343C2.94359 9.12509 3.10147 9.29776 3.30709 9.31605L3.30709 8.55082ZM3.81498 8.54922L3.81498 9.31765H20.185L20.185 8.54922H3.81498ZM20.6929 8.55082L20.6929 9.31605C20.8985 9.29776 21.0564 9.12509 21.0564 8.93343C21.0564 8.74177 20.8985 8.56911 20.6929 8.55082ZM3.81498 9.82696V16.848C3.81498 18.027 4.10785 18.854 4.65544 19.3893C5.20427 19.9258 6.05413 20.2136 7.26444 20.2136H16.7356C17.9459 20.2136 18.7957 19.9258 19.3446 19.3893C19.8921 18.854 20.185 18.027 20.185 16.848V9.82696H3.81498Z" fill="#9BA6B2"/>
</svg>
