<svg width="24" height="24" viewBox="0 0 24 24" fill="none" xmlns="http://www.w3.org/2000/svg">
<path fill-rule="evenodd" clip-rule="evenodd" d="M18.7103 18.7102C18.3243 19.0963 17.6984 19.0963 17.3123 18.7102L12 13.3979L6.68753 18.7104C6.63928 18.7587 6.58727 18.8009 6.53246 18.8371C6.14876 19.0904 5.62733 19.0482 5.28954 18.7104C4.90349 18.3244 4.90349 17.6985 5.28954 17.3124L10.602 11.9999L5.28953 6.68747C4.90349 6.30142 4.90349 5.67552 5.28953 5.28947C5.67558 4.90343 6.30149 4.90343 6.68753 5.28947L12 10.6019L17.3123 5.28964C17.6984 4.90359 18.3243 4.90359 18.7103 5.28964C19.0963 5.67568 19.0963 6.30159 18.7103 6.68763L13.398 11.9999L18.7103 17.3122C19.0963 17.6983 19.0963 18.3242 18.7103 18.7102Z" fill="#9BA6B2"/>
</svg>
