<svg width="24" height="24" viewBox="0 0 24 24" fill="none" xmlns="http://www.w3.org/2000/svg">
<path d="M5.68755 6.37079L3.3746 4.05785C3.01836 3.70161 3.01836 3.12403 3.3746 2.76779C3.73084 2.41155 4.30842 2.41155 4.66466 2.76779L6.9776 5.08073H19.9805C20.4843 5.08073 20.8927 5.48915 20.8927 5.99294C20.8927 6.08172 20.8798 6.17003 20.8543 6.25507L18.4711 13.5528C18.3554 13.9386 18.0002 14.2029 17.5973 14.2029H7.51197V16.0273H15.5395C16.0433 16.0273 16.4517 16.4357 16.4517 16.9395C16.4517 17.4433 16.0433 17.8517 15.5395 17.8517H6.59976C6.09595 17.8517 5.68755 17.4432 5.68755 16.9395V6.37079ZM7.51197 6.90515V12.3785H16.9186L18.7545 6.90515H7.51197ZM7.05586 21.5006C6.30016 21.5006 5.68755 20.8879 5.68755 20.1323C5.68755 19.3765 6.30016 18.7639 7.05586 18.7639C7.81157 18.7639 8.42418 19.3765 8.42418 20.1323C8.42418 20.8879 7.81157 21.5006 7.05586 21.5006Z" fill="#9BA6B2"/>
<path d="M13.5286 20.1323C13.5286 20.888 14.1411 21.5006 14.8969 21.5006C15.6526 21.5006 16.2652 20.888 16.2652 20.1323C16.2652 19.3765 15.6526 18.764 14.8969 18.764C14.1411 18.764 13.5286 19.3765 13.5286 20.1323Z" fill="#9BA6B2"/>
</svg>
