<svg width="24" height="24" viewBox="0 0 24 24" fill="none" xmlns="http://www.w3.org/2000/svg">
<path d="M20.9999 11.0006C20.7347 11.0006 20.4804 11.106 20.2928 11.2935C20.1053 11.481 19.9999 11.7354 19.9999 12.0006V14.5906L13.7099 8.29061C13.617 8.19688 13.5064 8.12249 13.3845 8.07172C13.2627 8.02095 13.132 7.99481 12.9999 7.99481C12.8679 7.99481 12.7372 8.02095 12.6154 8.07172C12.4935 8.12249 12.3829 8.19688 12.2899 8.29061L8.99994 11.5906L3.70994 6.29061C3.52164 6.10231 3.26624 5.99652 2.99994 5.99652C2.73364 5.99652 2.47824 6.10231 2.28994 6.29061C2.10164 6.47892 1.99585 6.73431 1.99585 7.00061C1.99585 7.26691 2.10164 7.52231 2.28994 7.71061L8.28994 13.7106C8.3829 13.8043 8.49351 13.8787 8.61536 13.9295C8.73722 13.9803 8.86793 14.0064 8.99994 14.0064C9.13195 14.0064 9.26266 13.9803 9.38452 13.9295C9.50638 13.8787 9.61698 13.8043 9.70994 13.7106L12.9999 10.4106L18.5899 16.0006H15.9999C15.7347 16.0006 15.4804 16.106 15.2928 16.2935C15.1053 16.481 14.9999 16.7354 14.9999 17.0006C14.9999 17.2658 15.1053 17.5202 15.2928 17.7077C15.4804 17.8953 15.7347 18.0006 15.9999 18.0006H20.9999C21.1306 17.999 21.2597 17.9719 21.3799 17.9206C21.6243 17.8191 21.8185 17.625 21.9199 17.3806C21.9712 17.2604 21.9984 17.1313 21.9999 17.0006V12.0006C21.9999 11.7354 21.8946 11.481 21.707 11.2935C21.5195 11.106 21.2652 11.0006 20.9999 11.0006Z" fill="#9BA6B2"/>
</svg>
