<svg width="24" height="24" viewBox="0 0 24 24" fill="none" xmlns="http://www.w3.org/2000/svg">
<path d="M20.9999 12.9966C20.7347 12.9966 20.4804 12.8912 20.2928 12.7037C20.1053 12.5161 19.9999 12.2618 19.9999 11.9966V9.40658L13.7099 15.7066C13.617 15.8003 13.5064 15.8747 13.3845 15.9255C13.2627 15.9762 13.132 16.0024 12.9999 16.0024C12.8679 16.0024 12.7372 15.9762 12.6154 15.9255C12.4935 15.8747 12.3829 15.8003 12.2899 15.7066L8.99994 12.4066L3.70994 17.7066C3.52164 17.8949 3.26624 18.0007 2.99994 18.0007C2.73364 18.0007 2.47824 17.8949 2.28994 17.7066C2.10164 17.5183 1.99585 17.2629 1.99585 16.9966C1.99585 16.7303 2.10164 16.4749 2.28994 16.2866L8.28994 10.2866C8.3829 10.1929 8.49351 10.1185 8.61536 10.0677C8.73722 10.0169 8.86793 9.99078 8.99994 9.99078C9.13195 9.99078 9.26266 10.0169 9.38452 10.0677C9.50638 10.1185 9.61698 10.1929 9.70994 10.2866L12.9999 13.5866L18.5899 7.99658H15.9999C15.7347 7.99658 15.4804 7.89122 15.2928 7.70369C15.1053 7.51615 14.9999 7.2618 14.9999 6.99658C14.9999 6.73136 15.1053 6.47701 15.2928 6.28947C15.4804 6.10194 15.7347 5.99658 15.9999 5.99658H20.9999C21.1306 5.99816 21.2597 6.02534 21.3799 6.07658C21.6243 6.17805 21.8185 6.37223 21.9199 6.61658C21.9712 6.7368 21.9984 6.8659 21.9999 6.99658V11.9966C21.9999 12.2618 21.8946 12.5161 21.707 12.7037C21.5195 12.8912 21.2652 12.9966 20.9999 12.9966Z" fill="#9BA6B2"/>
</svg>
