<svg width="24" height="24" viewBox="0 0 24 24" fill="none" xmlns="http://www.w3.org/2000/svg">
<path d="M5 11.0006H13V13.0006H5V16.0006L0 12.0006L5 8.00061V11.0006ZM3.99927 18.0006H6.70835C8.11862 19.2453 9.97111 20.0006 12 20.0006C16.4183 20.0006 20 16.4189 20 12.0006C20 7.58233 16.4183 4.00061 12 4.00061C9.97111 4.00061 8.11862 4.75588 6.70835 6.00061H3.99927C5.82368 3.57172 8.72836 2.00061 12 2.00061C17.5228 2.00061 22 6.47776 22 12.0006C22 17.5234 17.5228 22.0006 12 22.0006C8.72836 22.0006 5.82368 20.4295 3.99927 18.0006Z" fill="#9BA6B2"/>
</svg>
