<svg width="24" height="24" viewBox="0 0 24 24" fill="none" xmlns="http://www.w3.org/2000/svg">
<path d="M12.4957 2.00061C12.7505 2.00089 12.9955 2.09849 13.1808 2.27346C13.3661 2.44843 13.4776 2.68756 13.4925 2.94201C13.5074 3.19645 13.4247 3.44699 13.2611 3.64244C13.0976 3.8379 12.8656 3.96351 12.6126 3.99361L12.4957 4.00061H5.99787V20.0006H17.9938V12.5006C17.9941 12.2457 18.0916 12.0006 18.2666 11.8152C18.4415 11.6299 18.6805 11.5184 18.9349 11.5034C19.1892 11.4885 19.4397 11.5713 19.6351 11.7349C19.8305 11.8985 19.956 12.1305 19.9861 12.3836L19.9931 12.5006V20.0006H20.9928C21.2476 20.0009 21.4926 20.0985 21.6779 20.2735C21.8632 20.4484 21.9747 20.6876 21.9896 20.942C22.0045 21.1964 21.9218 21.447 21.7583 21.6424C21.5947 21.8379 21.3627 21.9635 21.1097 21.9936L20.9928 22.0006H3.99855C3.74376 22.0003 3.49869 21.9027 3.31342 21.7278C3.12814 21.5528 3.01665 21.3137 3.00172 21.0592C2.98679 20.8048 3.06954 20.5542 3.23308 20.3588C3.39661 20.1633 3.62858 20.0377 3.88159 20.0076L3.99855 20.0006V4.00061C3.99839 3.49603 4.18889 3.01004 4.53187 2.64006C4.87484 2.27008 5.34494 2.04345 5.84792 2.00561L5.99787 2.00061H12.4957ZM13.4953 12.0006C13.6922 12.0006 13.8872 12.0394 14.0692 12.1148C14.2511 12.1902 14.4164 12.3007 14.5556 12.4399C14.6949 12.5792 14.8053 12.7446 14.8807 12.9266C14.956 13.1086 14.9948 13.3036 14.9948 13.5006C14.9948 13.6976 14.956 13.8926 14.8807 14.0746C14.8053 14.2566 14.6949 14.422 14.5556 14.5613C14.4164 14.7006 14.2511 14.811 14.0692 14.8864C13.8872 14.9618 13.6922 15.0006 13.4953 15.0006C13.0976 15.0006 12.7162 14.8426 12.435 14.5613C12.1538 14.28 11.9958 13.8984 11.9958 13.5006C11.9958 13.1028 12.1538 12.7213 12.435 12.4399C12.7162 12.1586 13.0976 12.0006 13.4953 12.0006ZM15.7875 4.17261C15.9674 3.99326 16.2088 3.88914 16.4627 3.88138C16.7166 3.87363 16.9639 3.96283 17.1544 4.13086C17.3449 4.29889 17.4643 4.53316 17.4884 4.78609C17.5125 5.03901 17.4394 5.29162 17.284 5.49261L17.2011 5.58661L16.7882 5.99861H21.9924C22.2488 5.99658 22.4961 6.09315 22.6833 6.26835C22.8705 6.44355 22.9833 6.684 22.9983 6.94C23.0133 7.19601 22.9294 7.44799 22.764 7.6439C22.5986 7.8398 22.3642 7.96463 22.1094 7.99261L21.9924 7.99861H16.7862L17.2021 8.41561C17.381 8.59573 17.4848 8.83722 17.4922 9.09106C17.4997 9.3449 17.4104 9.59208 17.2424 9.78244C17.0743 9.97279 16.8402 10.0921 16.5875 10.1161C16.3347 10.1401 16.0823 10.067 15.8815 9.91161L15.7865 9.82861L13.6673 7.70561C13.4953 7.53329 13.3921 7.30413 13.377 7.0611C13.3619 6.81808 13.436 6.5779 13.5853 6.38561L13.6683 6.29161L15.7875 4.17261Z" fill="#9BA6B2"/>
</svg>
