<svg width="24" height="24" viewBox="0 0 24 24" fill="none" xmlns="http://www.w3.org/2000/svg">
<path d="M10 11.0006V8.00061L15 12.0006L10 16.0006V13.0006H1V11.0006H10ZM2.4578 15.0006H4.58152C5.76829 17.9324 8.64262 20.0006 12 20.0006C16.4183 20.0006 20 16.4189 20 12.0006C20 7.58233 16.4183 4.00061 12 4.00061C8.64262 4.00061 5.76829 6.06878 4.58152 9.00061H2.4578C3.73207 4.9435 7.52236 2.00061 12 2.00061C17.5228 2.00061 22 6.47776 22 12.0006C22 17.5234 17.5228 22.0006 12 22.0006C7.52236 22.0006 3.73207 19.0577 2.4578 15.0006Z" fill="#9BA6B2"/>
</svg>
