<svg width="24" height="24" viewBox="0 0 24 24" fill="none" xmlns="http://www.w3.org/2000/svg">
<path d="M13.1207 17.3041C12.7304 17.6944 12.0977 17.6946 11.7072 17.3046V17.3046C11.3163 16.9142 11.316 16.2808 11.7067 15.8901L15.5992 11.9976L11.7067 8.1051C11.3163 7.71468 11.3172 7.08142 11.7087 6.69211V6.69211C12.0987 6.30435 12.7288 6.30525 13.1177 6.6941L18.4242 12.0006L13.1207 17.3041ZM7.69572 17.3042C7.30547 17.6944 6.67284 17.6945 6.28247 17.3044V17.3044C5.8919 16.9141 5.89178 16.281 6.28223 15.8906L10.1752 11.9976L6.28303 8.11136C5.89219 7.72112 5.89195 7.08785 6.28249 6.6973V6.6973C6.6728 6.30699 7.30561 6.30697 7.69596 6.69724L13.0002 12.0006L7.69572 17.3042Z" fill="#9BA6B2"/>
</svg>
