<svg width="24" height="24" viewBox="0 0 24 24" fill="none" xmlns="http://www.w3.org/2000/svg">
<circle cx="12" cy="12" r="9.99997" fill="#D4E8FF"/>
<path d="M12 2.00006C10.0222 2.00006 8.08877 2.58655 6.44429 3.68536C4.7998 4.78417 3.51808 6.34595 2.76121 8.17321C2.00433 10.0005 1.8063 12.0111 2.19215 13.9509C2.578 15.8907 3.53041 17.6726 4.92893 19.0711C6.32745 20.4696 8.10927 21.422 10.0491 21.8079C11.9889 22.1937 13.9995 21.9957 15.8268 21.2388C17.6541 20.4819 19.2158 19.2002 20.3146 17.5557C21.4135 15.9112 21.9999 13.9778 21.9999 12C21.9999 10.6868 21.7413 9.38646 21.2387 8.17321C20.7362 6.95995 19.9996 5.85757 19.071 4.92898C18.1424 4.0004 17.04 3.26381 15.8268 2.76126C14.6135 2.25872 13.3132 2.00006 12 2.00006V2.00006ZM12 20C10.4177 20 8.87101 19.5308 7.55542 18.6518C6.23984 17.7727 5.21446 16.5233 4.60896 15.0615C4.00346 13.5997 3.84503 11.9912 4.15372 10.4393C4.4624 8.88747 5.22432 7.46201 6.34314 6.34319C7.46195 5.22438 8.88741 4.46245 10.4393 4.15377C11.9911 3.84509 13.5996 4.00352 15.0614 4.60902C16.5232 5.21452 17.7727 6.23989 18.6517 7.55548C19.5308 8.87107 19.9999 10.4178 19.9999 12C19.9999 14.1218 19.1571 16.1566 17.6568 17.6569C16.1565 19.1572 14.1217 20 12 20V20ZM15.1 12.63L13 11.42V7.00004C13 6.73483 12.8946 6.48048 12.7071 6.29294C12.5195 6.1054 12.2652 6.00005 12 6.00005C11.7348 6.00005 11.4804 6.1054 11.2929 6.29294C11.1053 6.48048 11 6.73483 11 7.00004V12C11 12 11 12.08 11 12.12C11.0059 12.1889 11.0228 12.2564 11.05 12.32C11.0706 12.3794 11.0974 12.4363 11.13 12.49C11.1573 12.5469 11.1909 12.6005 11.23 12.65L11.39 12.78L11.48 12.87L14.08 14.37C14.2324 14.4564 14.4048 14.5012 14.58 14.5C14.8014 14.5016 15.017 14.4296 15.1931 14.2954C15.3692 14.1611 15.4958 13.9723 15.553 13.7584C15.6102 13.5444 15.5948 13.3176 15.5092 13.1134C15.4236 12.9092 15.2726 12.7392 15.08 12.63H15.1Z" fill="url(#paint0_linear_2517_1170)"/>
<defs>
<linearGradient id="paint0_linear_2517_1170" x1="2" y1="2.00006" x2="23.4156" y2="3.6525" gradientUnits="userSpaceOnUse">
<stop stop-color="#5CA7FF"/>
<stop offset="1" stop-color="#126FDE"/>
</linearGradient>
</defs>
</svg>
