<svg width="24" height="24" viewBox="0 0 24 24" fill="none" xmlns="http://www.w3.org/2000/svg">
<path d="M6.69185 18.2896C6.05094 18.2944 5.41559 18.1586 4.82301 17.89C4.23042 17.6213 3.69252 17.2254 3.2408 16.7252C2.62984 16.0462 2.2209 15.1789 2.06818 14.2384V14.2309C2.03016 13.9985 2.00738 13.7634 2 13.5274C2.00436 12.8409 2.14557 12.1637 2.41366 11.5437C2.68176 10.9237 3.07023 10.3759 3.55168 9.93894C4.1701 9.37362 4.9068 8.98667 5.69525 8.81306C6.48369 8.63944 7.29904 8.68462 8.06763 8.94451C8.67258 9.11966 9.23665 9.43464 9.72225 9.86844C10.512 10.5244 11.0618 11.47 11.2719 12.5338V12.5525C11.3111 12.864 11.3339 13.1778 11.3401 13.4922C11.3335 13.9602 11.2754 14.4255 11.1669 14.8781C10.9158 15.7268 10.4496 16.479 9.82315 17.0462C8.94627 17.8557 7.83657 18.2963 6.69185 18.2896V18.2896ZM6.69185 11.1111C6.09838 11.0903 5.52161 11.3291 5.08799 11.7753C4.65437 12.2215 4.39928 12.8387 4.37865 13.4914C4.39929 14.1436 4.65388 14.7602 5.08674 15.2064C5.5196 15.6527 6.09548 15.8921 6.68844 15.8725C7.28151 15.8923 7.85757 15.6529 8.29058 15.2067C8.72358 14.7605 8.97827 14.1437 8.99891 13.4914C8.97862 12.8389 8.72409 12.2217 8.29104 11.7752C7.858 11.3286 7.28173 11.089 6.68844 11.1089L6.69185 11.1111Z" fill="#1882FF"/>
<path opacity="0.6" d="M17.4236 16.6537H17.2436C14.7893 16.6394 13.1728 16.1137 12.7944 15.4148V15.411V17.5431C12.7944 18.3605 14.8288 19.0002 17.3799 19.0002C19.9311 19.0002 22.0002 18.3605 22.0002 17.5431V15.1973C21.9988 15.9705 19.9058 16.6394 17.4236 16.6537Z" fill="#1882FF"/>
<path opacity="0.5" d="M17.3439 14.309C14.8964 14.309 13.0693 13.7405 12.7925 13.0303V15.4107C13.1715 16.1209 14.8268 16.6541 17.3439 16.6541C19.8609 16.6541 21.9989 15.9791 21.9989 15.1977V12.9238C21.8278 13.7045 19.7921 14.309 17.3439 14.309V14.309Z" fill="#1882FF"/>
<path d="M21.9975 12.9239C21.825 13.7054 19.7907 14.3098 17.3425 14.3098C14.8943 14.3098 13.0672 13.7414 12.7911 13.0312C12.7631 12.9773 12.7509 12.9152 12.7563 12.8534V12.6757C12.9977 11.9648 14.9284 11.3963 17.273 11.361H17.3411C18.5667 11.3527 19.7867 11.5443 20.9613 11.9295C21.6164 12.1785 21.9955 12.498 21.9955 12.8534V12.9247L21.9975 12.9239ZM17.2736 6.74063C16.8598 7.41558 14.8254 7.91279 12.5845 7.91279C10.3436 7.91279 8.13674 7.30909 7.99902 6.56289C7.98604 6.54939 7.97612 6.53271 7.97008 6.51421C7.96404 6.49571 7.96204 6.4759 7.96425 6.4564C7.96425 5.67495 10.0334 5 12.5845 5C14.55 5 16.343 5.39072 17.0323 5.95918C17.1193 6.00456 17.1938 6.07447 17.2483 6.1618C17.3028 6.24913 17.3353 6.35077 17.3425 6.4564C17.3496 6.50644 17.3471 6.55755 17.3353 6.60649C17.3234 6.65543 17.3024 6.70111 17.2736 6.74063V6.74063Z" fill="#1882FF"/>
<path opacity="0.4" d="M12.5836 7.91357C10.4484 7.91357 8.34515 7.36536 8.03223 6.66791V8.93275L8.067 8.944C8.67224 9.1189 9.23658 9.4339 9.7223 9.86793C9.74957 9.89118 9.77616 9.91518 9.80275 9.94292C10.7166 10.1608 11.6493 10.2679 12.5843 10.2624C15.0325 10.2624 17.1357 9.58745 17.2734 8.806V6.74515C16.8617 7.41635 14.8246 7.91357 12.5836 7.91357Z" fill="#1882FF"/>
<path opacity="0.5" d="M17.1842 9.0181C17.0006 9.25418 16.7663 9.43595 16.5025 9.54681C16.3235 9.63373 16.14 9.70886 15.953 9.7718C15.6758 9.86545 15.3943 9.94281 15.1096 10.0035C14.8642 10.0568 14.6044 10.1025 14.3324 10.1408C14.1961 10.1598 14.0572 10.1765 13.9159 10.191C13.4918 10.2345 13.0453 10.2585 12.5858 10.2585C11.6508 10.2641 10.718 10.1569 9.8042 9.93903C10.5515 10.5913 11.0712 11.5073 11.2754 12.5323L12.5858 12.6013L12.7582 12.6726C12.9996 11.9624 14.9303 11.3932 17.2749 11.3579V8.79987C17.2595 8.87903 17.2286 8.95352 17.1842 9.0181V9.0181Z" fill="#1882FF"/>
<path opacity="0.6" d="M12.7565 12.8517V12.6739L12.7708 12.6394C12.766 12.6507 12.7606 12.6619 12.7565 12.6739L12.584 12.6027L11.2744 12.5337C11.3141 12.8512 11.3369 13.171 11.3425 13.4914C11.3361 13.9593 11.2781 14.4246 11.1701 14.8773C11.1626 14.9026 11.1544 14.9276 11.1455 14.9523L12.5833 15.0168H12.7879V13.0272C12.7614 12.9735 12.7505 12.9123 12.7565 12.8517V12.8517Z" fill="#1882FF"/>
<path opacity="0.7" d="M12.585 15.0191L11.1472 14.9546C10.8963 15.7484 10.4571 16.4539 9.875 16.9982C10.756 17.1931 11.6523 17.2918 12.5509 17.2929H12.7922V15.0191H12.585Z" fill="#1882FF"/>
<path opacity="0.4" d="M6.68967 11.1115C7.11169 11.1418 7.51646 11.3071 7.85415 11.5872C8.19184 11.8673 8.44771 12.2498 8.59028 12.6878C8.73285 13.1258 8.75588 13.6001 8.65655 14.0523C8.55723 14.5045 8.33987 14.9149 8.03123 15.233C7.72259 15.551 7.33615 15.7629 6.91946 15.8425C6.50278 15.922 6.07404 15.8658 5.68601 15.6808C5.29798 15.4958 4.9676 15.19 4.73554 14.801C4.50347 14.4121 4.37985 13.957 4.37988 13.4918C4.39999 12.8395 4.65444 12.2226 5.08744 11.7764C5.52044 11.3302 6.09664 11.0911 6.68967 11.1115V11.1115Z" fill="#1882FF"/>
</svg>
