<svg width="24" height="24" viewBox="0 0 24 24" fill="none" xmlns="http://www.w3.org/2000/svg">
<path d="M16.1835 3.45144C16.1832 2.92623 15.7574 2.50061 15.2322 2.50061H4.85801C4.35869 2.51637 3.88416 2.72191 3.53111 3.07535C3.35671 3.24874 3.21968 3.456 3.12846 3.68438C3.03724 3.91275 2.99377 4.15739 3.00072 4.40321V14.9099C3.00072 15.423 3.4167 15.839 3.92984 15.839V15.839C4.44298 15.839 4.85896 15.423 4.85896 14.9099V4.40321H15.2322C15.7577 4.40321 16.1837 3.97701 16.1835 3.45144V3.45144Z" fill="#9BA6B2"/>
<path d="M19.0142 19.5989H8.66315V8.16313H19.0142V19.5989ZM19.0142 6.30583H8.66315C8.41419 6.30035 8.16663 6.34452 7.93492 6.43574C7.70321 6.52697 7.49199 6.66343 7.31359 6.83716C7.13353 7.00701 6.99124 7.21284 6.89595 7.44129C6.80067 7.66974 6.75454 7.91568 6.76055 8.16313V19.5989C6.75441 19.8466 6.80047 20.0927 6.89576 20.3213C6.99105 20.5499 7.13341 20.7559 7.31359 20.9259C7.67705 21.2775 8.15776 21.4822 8.66315 21.5006H19.0142C19.5196 21.4822 20.0003 21.2775 20.3637 20.9259C20.5439 20.7559 20.6863 20.5499 20.7816 20.3213C20.8768 20.0927 20.9229 19.8466 20.9168 19.5989V8.16313C20.9229 7.91552 20.8768 7.6694 20.7816 7.44078C20.6863 7.21216 20.5439 7.00617 20.3637 6.83622C20.1852 6.66266 19.974 6.52637 19.7423 6.4353C19.5106 6.34424 19.2631 6.30023 19.0142 6.30583Z" fill="#9BA6B2"/>
</svg>
