<svg width="24" height="24" viewBox="0 0 24 24" fill="none" xmlns="http://www.w3.org/2000/svg">
<path d="M15.5577 4.80131C15.5574 4.35903 15.1988 4.00061 14.7566 4.00061H6.02045C5.59997 4.01388 5.20037 4.18697 4.90306 4.4846C4.7562 4.63061 4.64081 4.80515 4.56399 4.99747C4.48717 5.18978 4.45056 5.39579 4.45642 5.6028V14.4505C4.45642 14.8827 4.80672 15.233 5.23883 15.233V15.233C5.67095 15.233 6.02125 14.8827 6.02125 14.4505V5.6028H14.7566C15.1992 5.6028 15.5579 5.24389 15.5577 4.80131V4.80131Z" fill="#9BA6B2"/>
<path d="M17.9414 18.3992H9.22471V8.76903H17.9414V18.3992ZM17.9414 7.20499H9.22471C9.01506 7.20038 8.80659 7.23756 8.61147 7.31439C8.41634 7.39121 8.23848 7.50612 8.08824 7.65243C7.93661 7.79545 7.81679 7.96879 7.73655 8.16116C7.65631 8.35354 7.61746 8.56065 7.62253 8.76903V18.3992C7.61735 18.6077 7.65615 18.815 7.73639 19.0075C7.81663 19.2 7.93651 19.3735 8.08824 19.5166C8.39431 19.8127 8.79912 19.9851 9.22471 20.0006H17.9414C18.3669 19.9851 18.7718 19.8127 19.0778 19.5166C19.2296 19.3735 19.3494 19.2 19.4297 19.0075C19.5099 18.815 19.5487 18.6077 19.5435 18.3992V8.76903C19.5487 8.56052 19.5099 8.35325 19.4297 8.16073C19.3494 7.96821 19.2296 7.79475 19.0778 7.65163C18.9275 7.50547 18.7496 7.3907 18.5545 7.31402C18.3594 7.23733 18.151 7.20027 17.9414 7.20499Z" fill="#9BA6B2"/>
</svg>
