<svg width="24" height="24" viewBox="0 0 24 24" fill="none" xmlns="http://www.w3.org/2000/svg">
<path fill-rule="evenodd" clip-rule="evenodd" d="M3.78647 9.39186C5.06639 9.71074 6.02203 10.8637 6.02203 12.2258C6.02203 13.5881 5.06613 14.7412 3.78596 15.0599C3.80253 16.704 4.04235 17.4864 4.46954 17.9093C4.91254 18.3479 5.74603 18.587 7.53557 18.587H16.4645C18.254 18.587 19.0875 18.3479 19.5305 17.9093C19.9185 17.5252 20.1519 16.8446 20.2039 15.4914C18.9311 15.1715 17.978 14.0302 17.978 12.6687C17.978 11.2969 18.9284 10.1574 20.2055 9.84291V9.57768C20.2055 7.80602 19.964 6.98087 19.521 6.5423C19.078 6.10374 18.2445 5.86464 16.455 5.86464H7.53557C5.74603 5.86464 4.9153 6.10376 4.47356 6.54186C4.04676 6.96514 3.80742 7.74786 3.78647 9.39186ZM3.46301 5.54318C4.35871 4.65486 5.75545 4.45105 7.53557 4.45105H16.455C18.2351 4.45105 19.6338 4.65488 20.5307 5.54274C21.4275 6.4306 21.6334 7.81536 21.6334 9.57768V10.4635C21.6334 10.8539 21.3137 11.1703 20.9194 11.1703C20.0838 11.1703 19.4059 11.8359 19.4059 12.6687C19.4059 13.4902 20.0913 14.1672 20.929 14.1672C21.3233 14.1672 21.6429 14.4836 21.6429 14.8739C21.6429 16.6363 21.437 18.021 20.5402 18.9089C19.6434 19.7968 18.2446 20.0006 16.4645 20.0006H7.53557C5.75546 20.0006 4.35671 19.7968 3.45989 18.9089C2.56307 18.021 2.35718 16.6363 2.35718 14.8739V14.4404C2.35718 14.0501 2.67682 13.7337 3.07111 13.7337C3.90478 13.7337 4.59417 13.0512 4.59417 12.2258C4.59417 11.4005 3.90478 10.718 3.07111 10.718C2.67682 10.718 2.35718 10.4015 2.35718 10.0112V9.57768L2.35718 9.5758C2.36192 7.8146 2.56831 6.43052 3.46301 5.54318Z" fill="#9BA6B2"/>
<path fill-rule="evenodd" clip-rule="evenodd" d="M13.1051 1.4142C12.5716 1.4142 11.9045 1.76712 10.7637 2.89643L9.1934 4.45108H15.2283C15.208 3.95952 15.327 3.46574 15.5799 3.02845L15.4465 2.89643C14.3058 1.76712 13.6387 1.4142 13.1051 1.4142ZM13.1051 0.000610352C14.2803 0.000610352 15.3218 0.773855 16.4562 1.89687L17.0273 2.46231C17.1612 2.59486 17.2364 2.77464 17.2364 2.96209C17.2364 3.14954 17.1612 3.32932 17.0273 3.46187C16.6408 3.84453 16.5535 4.40131 16.7694 4.85852C16.8728 5.07743 16.8561 5.33346 16.725 5.53733C16.594 5.74121 16.3668 5.86467 16.1227 5.86467H7.46981C7.18105 5.86467 6.92073 5.69246 6.81023 5.42835C6.69972 5.16424 6.7608 4.86023 6.96499 4.65809L9.75409 1.89687C10.8884 0.773855 11.93 0.000610352 13.1051 0.000610352Z" fill="#9BA6B2"/>
<path fill-rule="evenodd" clip-rule="evenodd" d="M15.951 8.68919C16.2298 8.96522 16.2298 9.41273 15.951 9.68876L10.2395 15.3431C9.9607 15.6192 9.50867 15.6192 9.22986 15.3431C8.95105 15.0671 8.95105 14.6196 9.22986 14.3436L14.9413 8.68919C15.2201 8.41317 15.6722 8.41317 15.951 8.68919Z" fill="#9BA6B2"/>
<path fill-rule="evenodd" clip-rule="evenodd" d="M14.4888 14.8434C14.4888 14.3229 14.915 13.901 15.4407 13.901H15.4492C15.975 13.901 16.4011 14.3229 16.4011 14.8434C16.4011 15.3639 15.975 15.7858 15.4492 15.7858H15.4407C14.915 15.7858 14.4888 15.3639 14.4888 14.8434Z" fill="#9BA6B2"/>
<path fill-rule="evenodd" clip-rule="evenodd" d="M8.77734 9.66017C8.77734 9.1397 9.20353 8.71777 9.72925 8.71777H9.7378C10.2635 8.71777 10.6897 9.1397 10.6897 9.66017C10.6897 10.1806 10.2635 10.6026 9.7378 10.6026H9.72925C9.20353 10.6026 8.77734 10.1806 8.77734 9.66017Z" fill="#9BA6B2"/>
</svg>
