<svg width="24" height="24" viewBox="0 0 24 24" fill="none" xmlns="http://www.w3.org/2000/svg">
<path fill-rule="evenodd" clip-rule="evenodd" d="M14.3101 3.59715L20.4076 9.6806C22.2963 11.5811 22.2981 13.2469 20.4064 15.1403L15.1447 20.4054L15.1434 20.4066C13.2446 22.2969 11.5815 22.2987 9.68979 20.4054L3.60229 14.3144C2.63699 13.3482 2.1196 12.0143 2.1805 10.6428L2.39127 6.2457C2.49609 4.15798 4.16339 2.48868 6.25971 2.39374L10.6492 2.18286C12.0144 2.11189 13.3458 2.63233 14.3101 3.59715ZM13.3795 4.53064C12.6752 3.82578 11.7046 3.44817 10.7165 3.49983L6.31998 3.71106C4.90357 3.77485 3.77835 4.90063 3.70719 6.3112L3.49652 10.7037C3.45235 11.7055 3.8306 12.6779 4.53393 13.3819L10.6214 19.4729C11.997 20.8497 12.8274 20.8517 14.2137 19.4722L19.4747 14.2078C20.8502 12.8312 20.8523 11.9992 19.4745 10.6116L13.3795 4.53064Z" fill="#9BA6B2"/>
<path fill-rule="evenodd" clip-rule="evenodd" d="M8.74977 7.21067C7.90084 7.21067 7.21264 7.89947 7.21264 8.74915C7.21264 9.59883 7.90084 10.2876 8.74977 10.2876C9.5987 10.2876 10.2869 9.59883 10.2869 8.74915C10.2869 7.89947 9.5987 7.21067 8.74977 7.21067ZM5.8951 8.74915C5.8951 7.17118 7.17318 5.89197 8.74977 5.89197C10.3264 5.89197 11.6044 7.17118 11.6044 8.74915C11.6044 10.3271 10.3264 11.6063 8.74977 11.6063C7.17318 11.6063 5.8951 10.3271 5.8951 8.74915Z" fill="#9BA6B2"/>
<path fill-rule="evenodd" clip-rule="evenodd" d="M10.6405 2.00725C12.0559 1.93377 13.4354 2.47337 14.4343 3.4728L20.5316 9.556C22.4882 11.5249 22.4911 13.3024 20.5306 15.2646L15.2689 20.5297L15.2675 20.5311C13.3003 22.4894 11.5261 22.4919 9.56557 20.5297L3.47807 14.4387C2.4778 13.4375 1.94192 12.0557 2.005 10.635L2.2158 6.23727C2.32514 4.05937 4.06463 2.31727 6.25152 2.2181L10.6405 2.00725ZM14.1859 3.72149C13.2563 2.79138 11.9731 2.2901 10.6583 2.35845L6.26813 2.56936C4.26255 2.6602 2.66711 4.25697 2.56673 6.25433L2.356 10.6506C2.29737 11.9729 2.79624 13.2589 3.72651 14.19L9.81401 20.281C11.6369 22.1055 13.1889 22.1042 15.0194 20.2821L20.2821 15.0159C22.1049 13.1916 22.1038 11.6371 20.2835 9.80499L14.1859 3.72149ZM13.2552 4.65496C12.5857 3.98481 11.6633 3.6264 10.7257 3.67542L6.3284 3.88668C5.00272 3.94639 3.94935 4.99968 3.88264 6.31987L3.67203 10.7115C3.63012 11.664 3.98982 12.5886 4.65815 13.2576L10.7457 19.3486C12.0524 20.6564 12.7715 20.659 14.0895 19.3479M14.0895 19.3479L19.3505 14.0835C20.6571 12.7758 20.6598 12.0551 19.3503 10.7359L13.2552 4.65496M13.5036 4.40622C12.7648 3.66681 11.7461 3.27005 10.7077 3.32423L6.31208 3.53541C4.80513 3.60341 3.60745 4.80156 3.53174 6.30233L3.32105 10.6953C3.27471 11.7462 3.67146 12.7673 4.40971 13.5062L10.4972 19.5972C11.9416 21.0428 12.8829 21.0444 14.3375 19.5969L19.5989 14.3321C21.0431 12.8867 21.0449 11.9437 19.5991 10.4877L13.5036 4.40622ZM5.71943 8.74915C5.71943 7.07407 7.07616 5.71615 8.74977 5.71615C10.4234 5.71615 11.7801 7.07407 11.7801 8.74915C11.7801 10.4242 10.4234 11.7822 8.74977 11.7822C7.07616 11.7822 5.71943 10.4242 5.71943 8.74915ZM8.74977 6.0678C7.2702 6.0678 6.07077 7.26828 6.07077 8.74915C6.07077 10.23 7.2702 11.4305 8.74977 11.4305C10.2293 11.4305 11.4288 10.23 11.4288 8.74915C11.4288 7.26828 10.2293 6.0678 8.74977 6.0678ZM8.74977 7.3865C7.99786 7.3865 7.38831 7.99658 7.38831 8.74915C7.38831 9.50173 7.99786 10.1118 8.74977 10.1118C9.50168 10.1118 10.1112 9.50173 10.1112 8.74915C10.1112 7.99658 9.50168 7.3865 8.74977 7.3865ZM7.03697 8.74915C7.03697 7.80237 7.80381 7.03485 8.74977 7.03485C9.69572 7.03485 10.4626 7.80237 10.4626 8.74915C10.4626 9.69594 9.69573 10.4635 8.74977 10.4635C7.80381 10.4635 7.03697 9.69594 7.03697 8.74915Z" fill="#9BA6B2"/>
</svg>
