<svg width="24" height="24" viewBox="0 0 24 24" fill="none" xmlns="http://www.w3.org/2000/svg">
<path fill-rule="evenodd" clip-rule="evenodd" d="M12 20.0006C16.4183 20.0006 20 16.4189 20 12.0006C20 7.58233 16.4183 4.00061 12 4.00061C7.58172 4.00061 4 7.58233 4 12.0006C4 16.4189 7.58172 20.0006 12 20.0006ZM12 22.0006C17.5228 22.0006 22 17.5235 22 12.0006C22 6.47776 17.5228 2.00061 12 2.00061C6.47715 2.00061 2 6.47776 2 12.0006C2 17.5235 6.47715 22.0006 12 22.0006Z" fill="#9BA6B2"/>
<path fill-rule="evenodd" clip-rule="evenodd" d="M16.1124 11.6534V10.2251H11.613V9.39049C11.613 8.84438 11.5641 8.4139 11.4615 8.10517C11.3692 7.80123 11.2336 7.55479 11.0508 7.37158C10.897 7.20859 10.7099 7.08908 10.4912 7.01299C10.2734 6.93727 10.0215 6.90063 9.73734 6.90063C9.41112 6.90063 9.11017 6.93228 8.83499 6.99635C8.56123 7.05122 8.26655 7.14213 7.9512 7.26827L7.85693 7.30597L8.37322 8.54194L8.46256 8.51003C8.58378 8.46674 8.71416 8.42769 8.85374 8.39279L8.85768 8.39163C9.0008 8.34954 9.13815 8.32894 9.27005 8.32894C9.49978 8.32894 9.64958 8.37649 9.73928 8.4524L9.74597 8.45717C9.84616 8.52874 9.91475 8.63793 9.94636 8.79595C9.98022 8.96526 9.99782 9.18069 9.99782 9.44389V10.2251H8.79622V11.6534H9.99782V14.9045C9.99782 15.255 10.0204 15.5438 10.0669 15.7669C10.1129 15.9787 10.179 16.1528 10.2693 16.2832C10.3517 16.4023 10.4386 16.513 10.5307 16.6144L10.539 16.6217C10.701 16.7646 10.9033 16.8816 11.1433 16.9739L11.1476 16.9753C11.4012 17.0598 11.7062 17.1006 12.0604 17.1006C12.4904 17.1006 12.9153 17.0274 13.3349 16.8815L13.3361 16.8811C13.7646 16.7261 14.1569 16.5071 14.5125 16.2244C14.8696 15.9406 15.1544 15.6055 15.3658 15.2196C15.5789 14.8303 15.6851 14.4043 15.6851 13.9432C15.6851 13.4068 15.5224 12.9945 15.1795 12.7296C14.8544 12.4717 14.4254 12.3479 13.9029 12.3479C13.7033 12.3479 13.508 12.3614 13.317 12.3886C13.1258 12.407 12.951 12.4391 12.7932 12.4855L12.7095 12.5101L12.913 13.8562L13.0218 13.826C13.1719 13.7843 13.3407 13.7629 13.5291 13.7629C13.7624 13.7629 13.8893 13.812 13.9487 13.8773L13.9558 13.8837C14.0311 13.9522 14.0699 14.0402 14.0699 14.1568C14.0699 14.3512 14.0175 14.5433 13.9098 14.7343C13.8005 14.9189 13.6574 15.0833 13.4795 15.2273C13.301 15.3718 13.101 15.4868 12.879 15.5722C12.6582 15.6571 12.4389 15.699 12.2207 15.699C11.9335 15.699 11.7891 15.6323 11.7298 15.5433C11.6583 15.4362 11.613 15.231 11.613 14.9045V11.6534H16.1124Z" fill="#9BA6B2"/>
</svg>
