<svg width="24" height="24" viewBox="0 0 24 24" fill="none" xmlns="http://www.w3.org/2000/svg">
<path d="M12 2.00061C17.5228 2.00061 22 6.47776 22 12.0006C22 17.5235 17.5228 22.0006 12 22.0006C6.47715 22.0006 2 17.5235 2 12.0006C2 6.47776 6.47715 2.00061 12 2.00061ZM12 4.00061C7.58172 4.00061 4 7.58233 4 12.0006C4 16.4189 7.58172 20.0006 12 20.0006C16.4183 20.0006 20 16.4189 20 12.0006C20 7.58233 16.4183 4.00061 12 4.00061Z" fill="#9BA6B2"/>
<path d="M13.0952 16.0476H11.3048C10.0381 16.0476 9 14.981 9 13.6667C9 13.2762 9.32381 12.9524 9.71429 12.9524C10.1048 12.9524 10.4286 13.2762 10.4286 13.6667C10.4286 14.1905 10.8191 14.6191 11.3048 14.6191H13.0952C13.4667 14.6191 13.7619 14.2857 13.7619 13.8762C13.7619 13.3619 13.6191 13.2857 13.2952 13.1714L10.4286 12.1714C9.81905 11.9524 9 11.5143 9 10.1143C9 8.92382 9.94287 7.94287 11.0952 7.94287H12.8857C14.1524 7.94287 15.1905 9.00954 15.1905 10.3238C15.1905 10.7143 14.8667 11.0381 14.4762 11.0381C14.0857 11.0381 13.7619 10.7143 13.7619 10.3238C13.7619 9.80001 13.3714 9.37144 12.8857 9.37144H11.0952C10.7238 9.37144 10.4286 9.70477 10.4286 10.1143C10.4286 10.6286 10.5714 10.7048 10.8952 10.8191L13.7619 11.8191C14.3714 12.0381 15.1905 12.4762 15.1905 13.8762C15.1905 15.0762 14.2476 16.0476 13.0952 16.0476Z" fill="#9BA6B2"/>
<path d="M12.0951 17C11.7047 17 11.3809 16.6762 11.3809 16.2857V7.71429C11.3809 7.32381 11.7047 7 12.0951 7C12.4856 7 12.8094 7.32381 12.8094 7.71429V16.2857C12.8094 16.6762 12.4856 17 12.0951 17Z" fill="#9BA6B2"/>
</svg>
