<svg width="24" height="24" viewBox="0 0 24 24" fill="none" xmlns="http://www.w3.org/2000/svg">
<path d="M13.5524 18.4762H10.6876C8.66097 18.4762 7 16.7696 7 14.6667C7 14.0419 7.5181 13.5238 8.14286 13.5238C8.76762 13.5238 9.28571 14.0419 9.28571 14.6667C9.28571 15.5048 9.9105 16.1905 10.6876 16.1905H13.5524C14.1466 16.1905 14.619 15.6572 14.619 15.0019C14.619 14.1791 14.3905 14.0572 13.8724 13.8743L9.28571 12.2743C8.31048 11.9238 7 11.2229 7 8.98289C7 7.07813 8.50859 5.50861 10.3524 5.50861H13.2171C15.2438 5.50861 16.9048 7.21527 16.9048 9.31813C16.9048 9.94289 16.3867 10.461 15.7619 10.461C15.1371 10.461 14.619 9.94289 14.619 9.31813C14.619 8.48003 13.9943 7.79432 13.2171 7.79432H10.3524C9.75811 7.79432 9.28571 8.32765 9.28571 8.98289C9.28571 9.80575 9.51427 9.92764 10.0324 10.1105L14.619 11.7105C15.5943 12.061 16.9048 12.7619 16.9048 15.0019C16.9048 16.9219 15.3962 18.4762 13.5524 18.4762Z" fill="#9BA6B2"/>
<path d="M11.9524 20C11.3277 20 10.8096 19.4819 10.8096 18.8571V5.14286C10.8096 4.5181 11.3277 4 11.9524 4C12.5772 4 13.0953 4.5181 13.0953 5.14286V18.8571C13.0953 19.4819 12.5772 20 11.9524 20Z" fill="#9BA6B2"/>
</svg>
