<svg width="24" height="24" viewBox="0 0 24 24" fill="none" xmlns="http://www.w3.org/2000/svg">
<path fill-rule="evenodd" clip-rule="evenodd" d="M11.998 2.00061C10.42 2.00061 9.02732 3.03011 8.0417 4.80418L2.22034 15.275C1.2808 16.9661 1.15844 18.6451 1.93488 19.9702L1.93559 19.9714C2.722 21.2959 4.24791 22.0006 6.17667 22.0006H17.8193C19.7479 22.0006 21.2735 21.2961 22.06 19.9818L22.0608 19.9803C22.8477 18.6448 22.7147 16.9748 21.7757 15.2846L15.9543 4.80425C14.9687 3.03013 13.576 2.00061 11.998 2.00061ZM3.90831 16.2189L9.7194 5.73971C10.405 4.51912 11.2256 3.92184 11.998 3.92184C12.7704 3.92184 13.591 4.51906 14.2766 5.73971L20.107 16.2191C20.7419 17.3678 20.8155 18.3347 20.4177 19.0059C20.0189 19.6789 19.1345 20.089 17.8289 20.089H6.18628C4.87896 20.089 3.9875 19.6781 3.5986 19.0078C3.2078 18.3343 3.27494 17.3552 3.90831 16.2189Z" fill="#9BA6B2"/>
<rect x="11" y="6.41119" width="2" height="8" rx="1" fill="#9BA6B2"/>
<rect x="10.6799" y="15.2712" width="2.64" height="2.64" rx="1.32" fill="#9BA6B2"/>
</svg>
