<svg width="24" height="24" viewBox="0 0 24 24" fill="none" xmlns="http://www.w3.org/2000/svg">
<path fill-rule="evenodd" clip-rule="evenodd" d="M12 6.02667C8.70099 6.02667 6.02664 8.70103 6.02664 12C6.02664 15.299 8.70099 17.9733 12 17.9733C15.299 17.9733 17.9733 15.299 17.9733 12C17.9733 8.70103 15.299 6.02667 12 6.02667ZM4.10664 12C4.10664 7.64064 7.64061 4.10667 12 4.10667C16.3593 4.10667 19.8933 7.64064 19.8933 12C19.8933 16.3594 16.3593 19.8933 12 19.8933C7.64061 19.8933 4.10664 16.3594 4.10664 12Z" fill="#9BA6B2"/>
<path fill-rule="evenodd" clip-rule="evenodd" d="M12 0C12.7364 0 13.3333 0.596954 13.3333 1.33333V1.41867C13.3333 2.15505 12.7364 2.752 12 2.752C11.2636 2.752 10.6667 2.15505 10.6667 1.41867V1.33333C10.6667 0.596954 11.2636 0 12 0ZM3.44119 3.44119C3.96189 2.92049 4.80611 2.92049 5.32681 3.44119L5.46548 3.57986C5.98617 4.10056 5.98617 4.94478 5.46548 5.46548C4.94478 5.98617 4.10056 5.98617 3.57986 5.46548L3.44119 5.32681C2.92049 4.80611 2.92049 3.96189 3.44119 3.44119ZM20.5588 3.44119C21.0795 3.96189 21.0795 4.80611 20.5588 5.32681L20.4201 5.46547C19.8994 5.98617 19.0552 5.98618 18.5345 5.46548C18.0138 4.94478 18.0138 4.10056 18.5345 3.57986L18.6732 3.44119C19.1939 2.92049 20.0381 2.92049 20.5588 3.44119ZM0 12C0 11.2636 0.596954 10.6667 1.33333 10.6667H1.41867C2.15505 10.6667 2.752 11.2636 2.752 12C2.752 12.7364 2.15505 13.3333 1.41867 13.3333H1.33333C0.596954 13.3333 0 12.7364 0 12ZM21.248 12C21.248 11.2636 21.845 10.6667 22.5813 10.6667H22.6667C23.403 10.6667 24 11.2636 24 12C24 12.7364 23.403 13.3333 22.6667 13.3333H22.5813C21.845 13.3333 21.248 12.7364 21.248 12ZM5.46548 18.5345C5.98618 19.0552 5.98617 19.8994 5.46547 20.4201L5.32681 20.5588C4.80611 21.0795 3.96189 21.0795 3.44119 20.5588C2.92049 20.0381 2.92049 19.1939 3.44119 18.6732L3.57986 18.5345C4.10056 18.0138 4.94478 18.0138 5.46548 18.5345ZM18.5345 18.5345C19.0552 18.0138 19.8994 18.0138 20.4201 18.5345L20.5588 18.6732C21.0795 19.1939 21.0795 20.0381 20.5588 20.5588C20.0381 21.0795 19.1939 21.0795 18.6732 20.5588L18.5345 20.4201C18.0138 19.8994 18.0138 19.0552 18.5345 18.5345ZM12 21.248C12.7364 21.248 13.3333 21.845 13.3333 22.5813V22.6667C13.3333 23.403 12.7364 24 12 24C11.2636 24 10.6667 23.403 10.6667 22.6667V22.5813C10.6667 21.845 11.2636 21.248 12 21.248Z" fill="#9BA6B2"/>
</svg>
