<svg width="24" height="24" viewBox="0 0 24 24" fill="none" xmlns="http://www.w3.org/2000/svg">
<g clip-path="url(#clip0_2517_1139)">
<path d="M7.79848 10.6034H3L5.39924 6.00006L7.79848 10.6011V10.6034Z" fill="#1882FF"/>
<path opacity="0.8" d="M7.80012 10.6033L5.40088 6H11.9988L7.80012 10.6018V10.6033Z" fill="#1882FF"/>
<path opacity="0.6" d="M11.9995 10.6033H7.80078L11.9995 6V10.6033Z" fill="#1882FF"/>
<path opacity="0.7" d="M16.1928 10.6033H11.9941V6L16.1928 10.6033Z" fill="#1882FF"/>
<path opacity="0.8" d="M16.1938 10.6033L11.9951 6H18.593L16.1938 10.6018V10.6033Z" fill="#1882FF"/>
<path d="M20.9923 10.6033H16.1938L18.5931 6L20.9923 10.6011V10.6033Z" fill="#1882FF"/>
<path opacity="0.7" d="M3 10.6038L11.9972 20.9999L7.79848 10.6038H3Z" fill="#1882FF"/>
<path opacity="0.8" d="M11.9995 20.9933L7.80078 10.6038H11.9995V20.9925V20.9933Z" fill="#1882FF"/>
<path d="M11.9951 20.994V10.6038H16.1938L11.9951 20.994Z" fill="#1882FF"/>
<path opacity="0.7" d="M12.0029 20.994L16.2016 10.6038H21.0001L12.0029 20.994Z" fill="#1882FF"/>
<path opacity="0.4" d="M12.6792 0.6675V2.01835C12.6792 2.19539 12.6077 2.36517 12.4803 2.49035C12.3529 2.61553 12.1801 2.68585 12 2.68585C11.8199 2.68585 11.6471 2.61553 11.5197 2.49035C11.3923 2.36517 11.3208 2.19539 11.3208 2.01835V0.6675C11.3208 0.490468 11.3923 0.320687 11.5197 0.195506C11.6471 0.0703258 11.8199 0 12 0C12.1801 0 12.3529 0.0703258 12.4803 0.195506C12.6077 0.320687 12.6792 0.490468 12.6792 0.6675V0.6675ZM8.63778 4C8.45832 4.00061 8.28577 3.93201 8.15723 3.80892L7.19696 2.89111C7.13462 2.83141 7.08508 2.76005 7.05125 2.68123C7.01743 2.60242 7 2.51774 7 2.4322C7 2.34667 7.01743 2.26199 7.05125 2.18318C7.08508 2.10436 7.13462 2.033 7.19696 1.9733C7.32571 1.8508 7.49789 1.78231 7.67709 1.78231C7.85629 1.78231 8.02848 1.8508 8.15723 1.9733L9.11749 2.89111C9.17983 2.95081 9.22937 3.02217 9.2632 3.10099C9.29702 3.17981 9.31445 3.26448 9.31445 3.35002C9.31445 3.43556 9.29702 3.52023 9.2632 3.59904C9.22937 3.67786 9.17983 3.74922 9.11749 3.80892C8.98916 3.9318 8.81696 4.00039 8.63778 4V4ZM15.3631 4C15.1836 4.00061 15.011 3.93201 14.8825 3.80892C14.8202 3.74922 14.7706 3.67786 14.7368 3.59904C14.703 3.52023 14.6856 3.43556 14.6856 3.35002C14.6856 3.26448 14.703 3.17981 14.7368 3.10099C14.7706 3.02217 14.8202 2.95081 14.8825 2.89111L15.8428 1.9733C15.9715 1.8508 16.1437 1.78231 16.3229 1.78231C16.5021 1.78231 16.6743 1.8508 16.803 1.9733C16.8654 2.033 16.9149 2.10436 16.9487 2.18318C16.9826 2.26199 17 2.34667 17 2.4322C17 2.51774 16.9826 2.60242 16.9487 2.68123C16.9149 2.76005 16.8654 2.83141 16.803 2.89111L15.8428 3.80892C15.7144 3.9318 15.5422 4.00039 15.3631 4V4Z" fill="#1882FF"/>
</g>
<defs>
<clipPath id="clip0_2517_1139">
<rect width="24" height="24" fill="white" transform="translate(0 0.000610352)"/>
</clipPath>
</defs>
</svg>
