<svg width="24" height="24" viewBox="0 0 24 24" fill="none" xmlns="http://www.w3.org/2000/svg">
<path fill-rule="evenodd" clip-rule="evenodd" d="M15.6959 8.28227C16.0864 8.6728 16.0864 9.30596 15.6959 9.69649L9.69588 15.6965C9.30535 16.087 8.67219 16.087 8.28166 15.6965C7.89114 15.306 7.89114 14.6728 8.28166 14.2823L14.2817 8.28227C14.6722 7.89175 15.3054 7.89175 15.6959 8.28227Z" fill="#9BA6B2"/>
<path d="M9.48877 9.98938C9.76491 9.98938 9.98877 9.76552 9.98877 9.48938C9.98877 9.21324 9.76491 8.98938 9.48877 8.98938C9.21263 8.98938 8.98877 9.21324 8.98877 9.48938C8.98877 9.76552 9.21263 9.98938 9.48877 9.98938Z" fill="#9BA6B2"/>
<path fill-rule="evenodd" clip-rule="evenodd" d="M9.48877 9.98938C9.76491 9.98938 9.98877 9.76552 9.98877 9.48938C9.98877 9.21324 9.76491 8.98938 9.48877 8.98938C9.21263 8.98938 8.98877 9.21324 8.98877 9.48938C8.98877 9.76552 9.21263 9.98938 9.48877 9.98938ZM7.98877 9.48938C7.98877 8.66095 8.66034 7.98938 9.48877 7.98938C10.3172 7.98938 10.9888 8.66095 10.9888 9.48938C10.9888 10.3178 10.3172 10.9894 9.48877 10.9894C8.66034 10.9894 7.98877 10.3178 7.98877 9.48938Z" fill="#9BA6B2"/>
<path d="M14.4888 14.9894C14.7649 14.9894 14.9888 14.7655 14.9888 14.4894C14.9888 14.2132 14.7649 13.9894 14.4888 13.9894C14.2126 13.9894 13.9888 14.2132 13.9888 14.4894C13.9888 14.7655 14.2126 14.9894 14.4888 14.9894Z" fill="#9BA6B2"/>
<path fill-rule="evenodd" clip-rule="evenodd" d="M14.4888 14.9894C14.7649 14.9894 14.9888 14.7655 14.9888 14.4894C14.9888 14.2132 14.7649 13.9894 14.4888 13.9894C14.2126 13.9894 13.9888 14.2132 13.9888 14.4894C13.9888 14.7655 14.2126 14.9894 14.4888 14.9894ZM12.9888 14.4894C12.9888 13.661 13.6603 12.9894 14.4888 12.9894C15.3172 12.9894 15.9888 13.661 15.9888 14.4894C15.9888 15.3178 15.3172 15.9894 14.4888 15.9894C13.6603 15.9894 12.9888 15.3178 12.9888 14.4894Z" fill="#9BA6B2"/>
<path fill-rule="evenodd" clip-rule="evenodd" d="M11.9987 4.00061C11.8406 4.00061 11.684 4.03187 11.538 4.0926C11.3919 4.15333 11.2593 4.24232 11.1478 4.35447L11.1458 4.35646L10.4458 5.05646L10.4439 5.05844C9.84472 5.65423 9.03426 5.98887 8.18931 5.98935L7.18874 5.98935C6.87048 5.98935 6.56526 6.11578 6.34021 6.34083C6.11517 6.56587 5.98874 6.87109 5.98874 7.18935V8.18935C5.98826 9.0343 5.65362 9.84533 5.05783 10.4445L5.05585 10.4465L4.35585 11.1465L4.35386 11.1484C4.24171 11.26 4.15272 11.3925 4.09199 11.5386C4.03126 11.6846 4 11.8412 4 11.9994C4 12.1575 4.03126 12.3141 4.09199 12.4601C4.15272 12.6062 4.24171 12.7387 4.35386 12.8503L4.35585 12.8522L5.05784 13.5542C5.65362 14.1534 5.98826 14.9638 5.98874 15.8088L5.98874 16.8094C5.98874 17.1276 6.11517 17.4328 6.34021 17.6579C6.56526 17.8829 6.87048 18.0094 7.18874 18.0094H8.18874C9.03369 18.0098 9.84472 18.3445 10.4439 18.9403L10.4459 18.9422L11.1478 19.6442C11.2593 19.7564 11.3919 19.8454 11.538 19.9061C11.684 19.9668 11.8406 19.9981 11.9987 19.9981C12.1569 19.9981 12.3135 19.9668 12.4595 19.9061C12.6056 19.8454 12.7381 19.7564 12.8497 19.6442L12.8516 19.6422L13.5516 18.9422L13.5536 18.9403C14.1528 18.3445 14.9632 18.0098 15.8082 18.0094H16.8087C17.127 18.0094 17.4322 17.8829 17.6573 17.6579C17.8823 17.4328 18.0087 17.1276 18.0087 16.8094V15.8094C18.0092 14.9644 18.3439 14.1534 18.9397 13.5542L18.9416 13.5522L19.6416 12.8522L19.6436 12.8503C19.7558 12.7387 19.8448 12.6062 19.9055 12.4601C19.9662 12.3141 19.9975 12.1575 19.9975 11.9994C19.9975 11.8412 19.9662 11.6846 19.9055 11.5386C19.8448 11.3925 19.7558 11.26 19.6436 11.1484L19.6416 11.1465L18.9416 10.4465L18.9397 10.4445C18.3439 9.84533 18.0092 9.03487 18.0087 8.18992V7.18935C18.0087 6.87109 17.8823 6.56587 17.6573 6.34083C17.4322 6.11578 17.127 5.98935 16.8087 5.98935H15.8087C14.9638 5.98887 14.1528 5.65423 13.5536 5.05844L13.5516 5.05646L12.8516 4.35646L12.8497 4.35447C12.7381 4.24232 12.6055 4.15333 12.4595 4.0926C12.3135 4.03187 12.1569 4.00061 11.9987 4.00061ZM10.77 2.24592C11.1594 2.08398 11.577 2.00061 11.9987 2.00061C12.4205 2.00061 12.8381 2.08398 13.2275 2.24592C13.6164 2.40767 13.9696 2.64462 14.2668 2.94317C14.2671 2.94353 14.2675 2.94388 14.2678 2.94424L14.9639 3.64026C14.9641 3.64055 14.9644 3.64084 14.9647 3.64112C15.1893 3.86394 15.4927 3.9891 15.8091 3.98935H16.8087C17.6574 3.98935 18.4714 4.32649 19.0715 4.92661C19.6716 5.52673 20.0087 6.34066 20.0087 7.18935V8.18878C20.0089 8.50532 20.1342 8.80895 20.3572 9.03356C20.3574 9.03379 20.3569 9.03334 20.3572 9.03356L21.0539 9.73026C21.0542 9.73063 21.0546 9.731 21.055 9.73137C21.3535 10.0285 21.5904 10.3817 21.7522 10.7706C21.9141 11.16 21.9975 11.5776 21.9975 11.9994C21.9975 12.4211 21.9141 12.8387 21.7522 13.2281C21.5905 13.6169 21.3536 13.97 21.0552 14.2671C21.0547 14.2676 21.0543 14.268 21.0539 14.2684L20.3578 14.9645C20.3575 14.9648 20.3573 14.965 20.357 14.9653C20.1341 15.1899 20.0089 15.4935 20.0087 15.8099V16.8094C20.0087 17.658 19.6716 18.472 19.0715 19.0721C18.4714 19.6722 17.6574 20.0094 16.8087 20.0094H15.8093C15.4929 20.0095 15.1893 20.1347 14.9647 20.3576C14.9644 20.3579 14.9641 20.3582 14.9639 20.3584L14.2678 21.0545C14.2674 21.0549 14.267 21.0554 14.2665 21.0558C13.9694 21.3542 13.6163 21.5911 13.2275 21.7528C12.8381 21.9147 12.4205 21.9981 11.9987 21.9981C11.577 21.9981 11.1594 21.9147 10.77 21.7528C10.3811 21.591 10.0279 21.3541 9.73076 21.0556C9.73039 21.0552 9.73002 21.0548 9.72965 21.0545L9.03363 20.3584C9.0334 20.3582 9.03385 20.3587 9.03363 20.3584C8.80901 20.1354 8.50471 20.0095 8.18817 20.0094H7.18874C6.34005 20.0094 5.52612 19.6722 4.926 19.0721C4.32588 18.472 3.98874 17.658 3.98874 16.8094V15.8097C3.98849 15.4933 3.86333 15.1899 3.64051 14.9653C3.64022 14.965 3.63994 14.9648 3.63965 14.9645L2.94363 14.2684C2.94327 14.2681 2.94292 14.2677 2.94256 14.2674C2.64401 13.9702 2.40706 13.617 2.24531 13.2281C2.08337 12.8387 2 12.4211 2 11.9994C2 11.5776 2.08337 11.16 2.24531 10.7706C2.40704 10.3817 2.64395 10.0286 2.94246 9.73142C2.94285 9.73103 2.94324 9.73065 2.94363 9.73026L3.63965 9.03424C3.63994 9.03395 3.64022 9.03366 3.64051 9.03337C3.86333 8.80884 3.98849 8.5054 3.98874 8.18904V7.18935C3.98874 6.34066 4.32588 5.52673 4.926 4.92661C5.52612 4.3265 6.34005 3.98935 7.18874 3.98935H8.18843C8.50479 3.9891 8.80823 3.86394 9.03276 3.64112C9.03305 3.64084 9.03334 3.64055 9.03363 3.64026L9.72965 2.94424C9.73004 2.94385 9.73042 2.94346 9.73081 2.94307C10.0279 2.64456 10.3811 2.40765 10.77 2.24592Z" fill="#9BA6B2"/>
</svg>
