<svg width="24" height="24" viewBox="0 0 24 24" fill="none" xmlns="http://www.w3.org/2000/svg">
<path fill-rule="evenodd" clip-rule="evenodd" d="M17.9578 3.02601C17.5494 3.07979 16.9574 3.29303 16.5745 3.52422C16.1281 3.79387 15.6059 4.32951 15.336 4.79487C14.9788 5.41064 14.7785 6.2448 14.8381 6.86818C14.9459 7.995 15.5942 9.25791 16.8438 10.7751C17.0902 11.0741 17.6076 11.6077 17.9834 11.988C18.2268 12.2342 18.619 12.2318 18.86 11.9832C19.3072 11.5219 19.9698 10.8291 20.2024 10.5359C20.9967 9.53494 21.6388 8.41327 21.8685 7.62564C22.0087 7.14449 22.0414 6.41315 21.9443 5.92607C21.7291 4.8459 20.9926 3.87432 20.0168 3.38333C19.4091 3.07756 18.6138 2.93954 17.9578 3.02601ZM18.0244 5.5105C17.6968 5.62915 17.4534 5.87333 17.3073 6.22985C17.2152 6.45457 17.2449 6.96506 17.3637 7.19871C17.6319 7.72662 18.2699 7.9763 18.844 7.77809C19.1071 7.68723 19.4515 7.33757 19.541 7.07038C19.6968 6.60523 19.5945 6.15219 19.2563 5.80878C19.1074 5.65757 18.9756 5.5652 18.844 5.51975C18.6129 5.43994 18.2311 5.43564 18.0244 5.5105ZM12.461 11.1338C11.4956 11.3315 10.7604 11.9793 10.3939 12.9551C10.2919 13.2267 10.2843 13.2878 10.2834 13.8447C10.2825 14.3948 10.2909 14.4662 10.3874 14.7352C10.5428 15.168 10.7166 15.4403 11.0681 15.8012C11.3264 16.0664 11.4499 16.1581 11.7552 16.3111C12.3451 16.6068 12.4107 16.614 14.5302 16.6148C15.7329 16.6152 16.4564 16.6309 16.5915 16.6596C17.0655 16.7603 17.4861 17.1005 17.7106 17.5646C17.8106 17.7713 17.8203 17.8305 17.8203 18.2308C17.8203 18.6464 17.8134 18.6845 17.692 18.9348C17.5295 19.27 17.1876 19.6012 16.8696 19.7316L16.6425 19.8247L8.51375 19.8446C8.19988 19.8453 7.94584 20.1039 7.94584 20.4226C7.94584 20.7419 8.20077 21.0007 8.51521 21.0006L12.2549 21C17.1023 20.9992 16.8526 21.0137 17.4828 20.6978C18.1215 20.3777 18.6101 19.8031 18.8493 19.091C18.9851 18.6867 19.0166 18.0686 18.9232 17.6422C18.7476 16.841 18.1923 16.123 17.4679 15.7604C16.9143 15.4833 16.943 15.4863 14.6401 15.4617L12.5592 15.4394L12.304 15.3125C11.9735 15.1482 11.6972 14.8686 11.5431 14.5424C11.4288 14.3007 11.4206 14.2538 11.4206 13.8447C11.4206 13.4524 11.4316 13.3822 11.5258 13.1783C11.7317 12.7322 12.1757 12.375 12.6494 12.2744C12.782 12.2462 13.4344 12.2302 14.4457 12.2302H15.4652C15.7793 12.2302 16.0339 11.9717 16.0339 11.6528C16.0339 11.3334 15.7785 11.0746 15.464 11.0753L14.3751 11.0778C13.1759 11.0805 12.6455 11.096 12.461 11.1338ZM5.13748 11.7933C3.89698 11.958 2.87306 12.7046 2.33234 13.8386C2.04121 14.4491 1.99892 14.6478 2.00002 15.3995C2.00088 15.9791 2.01078 16.0702 2.10842 16.3962C2.32684 17.1256 2.95202 18.2496 3.60507 19.0871C4.07408 19.6886 4.59307 20.2434 5.12445 20.7867C5.35898 21.0264 5.7385 21.0366 5.97792 20.8018C6.52367 20.2668 7.031 19.6942 7.50029 19.0871C8.7377 17.4863 9.267 16.1507 9.12493 15.0059C9.02081 14.1668 8.67349 13.4484 8.08197 12.8488C7.49554 12.2543 6.76542 11.891 5.96309 11.7945C5.57247 11.7475 5.48334 11.7474 5.13748 11.7933ZM5.11914 14.2906C4.87203 14.3825 4.52357 14.7447 4.43877 14.998C4.35478 15.2488 4.35478 15.5901 4.43877 15.8409C4.52825 16.1081 4.87262 16.4578 5.13575 16.5486C5.56791 16.6978 6.06725 16.592 6.3715 16.2867C6.62321 16.0341 6.69997 15.8542 6.72082 15.4684C6.73746 15.1604 6.73047 15.1218 6.61453 14.8827C6.48948 14.6247 6.32984 14.4628 6.06125 14.3216C5.86874 14.2204 5.35386 14.2035 5.11914 14.2906Z" fill="#9BA6B2"/>
</svg>
