<svg width="24" height="24" viewBox="0 0 24 24" fill="none" xmlns="http://www.w3.org/2000/svg">
<path fill-rule="evenodd" clip-rule="evenodd" d="M13.0001 3.9097C13.0001 3.40762 12.5523 3.00061 12.0001 3.00061C11.4478 3.00061 11.0001 3.40762 11.0001 3.9097L11.0001 12.8291L8.46443 10.2935C8.07391 9.90298 7.44074 9.90298 7.05022 10.2935C6.65969 10.684 6.65969 11.3172 7.05022 11.7077L10.5858 15.2433C11.3668 16.0243 12.6331 16.0243 13.4142 15.2433L16.9497 11.7077C17.3402 11.3172 17.3402 10.684 16.9497 10.2935C16.5592 9.90298 15.926 9.90298 15.5355 10.2935L13.0001 12.8289L13.0001 3.9097Z" fill="#9BA6B2"/>
<path fill-rule="evenodd" clip-rule="evenodd" d="M3 12.0006C3.55228 12.0006 4 12.4483 4 13.0006V18.0006C4 18.5529 4.44772 19.0006 5 19.0006H19C19.5523 19.0006 20 18.5529 20 18.0006V13.0006C20 12.4483 20.4477 12.0006 21 12.0006C21.5523 12.0006 22 12.4483 22 13.0006V18.0006C22 19.6575 20.6569 21.0006 19 21.0006H5C3.34315 21.0006 2 19.6575 2 18.0006V13.0006C2 12.4483 2.44772 12.0006 3 12.0006Z" fill="#9BA6B2"/>
</svg>
