<svg width="24" height="24" viewBox="0 0 24 24" fill="none" xmlns="http://www.w3.org/2000/svg">
<path d="M19.989 11.5726C19.907 9.99852 19.3596 8.48421 18.416 7.22161C18.1285 7.53124 17.8212 7.82185 17.496 8.09161C16.4969 8.92146 15.3805 9.5988 14.183 10.1016C14.35 10.4516 14.503 10.7906 14.638 11.1106V11.1136C14.6761 11.203 14.7128 11.293 14.748 11.3836C16.262 11.2136 17.858 11.2756 19.405 11.4846C19.611 11.5126 19.805 11.5426 19.989 11.5726V11.5726ZM10.604 4.12261C11.5785 5.49578 12.4772 6.92125 13.296 8.39261C14.519 7.91061 15.53 7.30261 16.344 6.62561C16.6266 6.39274 16.8925 6.14046 17.14 5.87061C15.701 4.66033 13.8803 3.99794 12 4.00061C11.532 4.00029 11.0649 4.04078 10.604 4.12161V4.12261ZM4.253 9.99761C4.93423 9.98042 5.61464 9.93939 6.293 9.87461C7.93264 9.72795 9.55828 9.45311 11.155 9.05261C10.3205 7.60282 9.41955 6.19232 8.455 4.82561C7.42472 5.33601 6.51626 6.06202 5.79124 6.9544C5.06623 7.84678 4.54162 8.88465 4.253 9.99761ZM5.783 17.0356C6.171 16.4686 6.681 15.8306 7.358 15.1366C8.812 13.6466 10.528 12.4866 12.514 11.8466L12.576 11.8286C12.411 11.4646 12.256 11.1396 12.1 10.8336C10.264 11.3686 8.33 11.7026 6.403 11.8756C5.463 11.9606 4.62 11.9976 4 12.0036C3.99823 13.8362 4.62829 15.6134 5.784 17.0356H5.783ZM15.005 19.4156C14.6194 17.4709 14.0735 15.5613 13.373 13.7066C11.371 14.4336 9.776 15.4966 8.543 16.7646C8.0454 17.267 7.60382 17.8219 7.226 18.4196C8.60481 19.4484 10.2797 20.0031 12 20.0006C13.0299 20.0021 14.0504 19.8041 15.005 19.4176V19.4156ZM16.878 18.3406C18.4393 17.1404 19.5028 15.4063 19.865 13.4706C19.525 13.3856 19.094 13.3006 18.62 13.2346C17.5661 13.0829 16.4968 13.0718 15.44 13.2016C16.0351 14.8804 16.5155 16.5977 16.878 18.3416V18.3406ZM12 22.0006C6.477 22.0006 2 17.5236 2 12.0006C2 6.47761 6.477 2.00061 12 2.00061C17.523 2.00061 22 6.47761 22 12.0006C22 17.5236 17.523 22.0006 12 22.0006Z" fill="#9BA6B2"/>
</svg>
