<svg width="24" height="24" viewBox="0 0 24 24" fill="none" xmlns="http://www.w3.org/2000/svg">
<path fill-rule="evenodd" clip-rule="evenodd" d="M13.2399 11.9924H10.2157V13.1804C10.2157 14.0296 10.8927 14.718 11.7278 14.718C12.5629 14.718 13.2399 14.0296 13.2399 13.1803V11.9924ZM8.2157 9.95861V13.1804C8.2157 15.1528 9.78812 16.7518 11.7278 16.7518C13.6675 16.7518 15.2399 15.1528 15.2399 13.1803V9.95861H8.2157Z" fill="#9BA6B2"/>
<path fill-rule="evenodd" clip-rule="evenodd" d="M9.1842 9.55353C9.18418 9.56201 9.18406 9.60597 9.24274 9.69699C9.26079 9.72499 9.28412 9.75671 9.31356 9.79126H14.142C14.1714 9.75671 14.1947 9.72499 14.2128 9.69699C14.2715 9.60597 14.2713 9.56244 14.2713 9.55396C14.2713 9.54526 14.2714 9.5048 14.22 9.42146C14.1627 9.32857 14.0431 9.18803 13.8224 9.03667C13.3726 8.72828 12.638 8.47168 11.7278 8.47168C10.8175 8.47168 10.0829 8.72828 9.63317 9.03667C9.41244 9.18803 9.29284 9.32857 9.23555 9.42146C9.18414 9.5048 9.18419 9.54483 9.1842 9.55353ZM14.8376 11.8251H8.61796C7.73543 11.2567 7.1842 10.4493 7.1842 9.55353C7.1842 7.8328 9.21842 6.43788 11.7278 6.43788C14.2371 6.43788 16.2713 7.8328 16.2713 9.55353C16.2713 10.4493 15.7201 11.2567 14.8376 11.8251Z" fill="#9BA6B2"/>
<path fill-rule="evenodd" clip-rule="evenodd" d="M20 19.9668V8.91553L12 4.03441L4 8.91553V19.9668H20ZM2.97101 7.17156C2.3686 7.53911 2 8.20113 2 8.91553V19.9668C2 21.09 2.89543 22.0006 4 22.0006H20C21.1046 22.0006 22 21.09 22 19.9668V8.91553C22 8.20113 21.6314 7.53911 21.029 7.17156L13.029 2.29044C12.3956 1.904 11.6044 1.904 10.971 2.29044L2.97101 7.17156Z" fill="#9BA6B2"/>
<path fill-rule="evenodd" clip-rule="evenodd" d="M7.2425 19.9666H16.2128V19.8025C16.2128 19.2409 15.7651 18.7856 15.2128 18.7856H8.2425C7.69021 18.7856 7.2425 19.2409 7.2425 19.8025V19.9666ZM18.2128 22.0004V19.8025C18.2128 18.1176 16.8696 16.7518 15.2128 16.7518H8.24249C6.58564 16.7518 5.2425 18.1176 5.2425 19.8025V22.0004H18.2128Z" fill="#9BA6B2"/>
</svg>
