<svg width="24" height="24" viewBox="0 0 24 24" fill="none" xmlns="http://www.w3.org/2000/svg">
<path fill-rule="evenodd" clip-rule="evenodd" d="M14.473 3.91387L4.57109 13.8696C4.3824 14.0589 4.26611 14.3089 4.24281 14.5754L3.0043 19.774C2.99065 19.9306 3.00958 20.0883 3.05988 20.2369C3.11017 20.3855 3.19073 20.5218 3.29643 20.6372C3.40213 20.7525 3.53066 20.8444 3.67383 20.9069C3.817 20.9694 3.97168 21.0012 4.12803 21.0003L4.19844 21.0001L9.46071 19.8415C9.73465 19.824 9.99328 19.7066 10.188 19.5114L20.0871 9.5585C20.3756 9.2686 20.6047 8.92465 20.7613 8.5463C20.918 8.16795 20.9991 7.76262 21 7.35347C21.0009 6.94431 20.9217 6.53935 20.7667 6.16171C20.6118 5.78407 20.3843 5.44117 20.0971 5.15257L18.8467 3.90388C18.2673 3.32336 17.4817 2.99844 16.6619 3.00031C15.8421 3.00218 15.055 3.33069 14.473 3.91387ZM18.8746 8.35851L18.0726 9.16488L14.8645 5.93938L15.6665 5.133C16.2202 4.57631 17.1179 4.57631 17.6716 5.133L18.8746 6.34257C19.4283 6.89925 19.4283 7.80182 18.8746 8.35851ZM4.77585 19.3036L6.00816 14.8438L13.6615 7.14894L16.8696 10.3744L9.21624 18.0693L4.77585 19.3036Z" fill="#9BA6B2"/>
</svg>
