<svg width="24" height="24" viewBox="0 0 24 24" fill="none" xmlns="http://www.w3.org/2000/svg">
<path d="M6.16667 10.334C7.08714 10.334 7.83333 11.0802 7.83333 12.0006C7.83333 12.9211 7.08714 13.6673 6.16667 13.6673C5.24619 13.6673 4.5 12.9211 4.5 12.0006C4.5 11.0802 5.24619 10.334 6.16667 10.334Z" fill="#9BA6B2"/>
<path d="M12 10.334C12.9205 10.334 13.6667 11.0802 13.6667 12.0006C13.6667 12.9211 12.9205 13.6673 12 13.6673C11.0795 13.6673 10.3333 12.9211 10.3333 12.0006C10.3333 11.0802 11.0795 10.334 12 10.334Z" fill="#9BA6B2"/>
<path d="M17.8333 10.334C18.7538 10.334 19.5 11.0802 19.5 12.0006C19.5 12.9211 18.7538 13.6673 17.8333 13.6673C16.9129 13.6673 16.1667 12.9211 16.1667 12.0006C16.1667 11.0802 16.9129 10.334 17.8333 10.334Z" fill="#9BA6B2"/>
</svg>
