<svg width="24" height="24" viewBox="0 0 24 24" fill="none" xmlns="http://www.w3.org/2000/svg">
<path d="M13.6666 6.16728C13.6666 7.08775 12.9204 7.83394 11.9999 7.83394C11.0794 7.83394 10.3333 7.08775 10.3333 6.16728C10.3333 5.2468 11.0794 4.50061 11.9999 4.50061C12.9204 4.50061 13.6666 5.2468 13.6666 6.16728Z" fill="#9BA6B2"/>
<path d="M13.6666 12.0006C13.6666 12.9211 12.9204 13.6673 11.9999 13.6673C11.0794 13.6673 10.3333 12.9211 10.3333 12.0006C10.3333 11.0801 11.0794 10.3339 11.9999 10.3339C12.9204 10.3339 13.6666 11.0801 13.6666 12.0006Z" fill="#9BA6B2"/>
<path d="M13.6666 17.8339C13.6666 18.7544 12.9204 19.5006 11.9999 19.5006C11.0794 19.5006 10.3333 18.7544 10.3333 17.8339C10.3333 16.9135 11.0794 16.1673 11.9999 16.1673C12.9204 16.1673 13.6666 16.9135 13.6666 17.8339Z" fill="#9BA6B2"/>
</svg>
