<svg width="24" height="24" viewBox="0 0 24 24" fill="none" xmlns="http://www.w3.org/2000/svg">
<path d="M12 2.50061H12.0029C13.0857 2.49396 14.1601 2.67555 15.1787 3.03577L15.6123 3.20081C16.6142 3.61208 17.5357 4.19436 18.3369 4.91956L18.6729 5.23889L18.6748 5.24084C20.2404 6.78688 21.2214 8.82875 21.4492 11.0172C21.6769 13.2057 21.1375 15.4056 19.9238 17.2408C18.7859 18.9614 17.121 20.2618 15.1846 20.9508L14.7939 21.0807C12.8222 21.6873 10.7099 21.6347 8.77637 20.9371L8.39258 20.7887C6.48409 20.0052 4.88574 18.6238 3.83496 16.8571L3.63281 16.4987C2.65609 14.6817 2.29837 12.5999 2.6084 10.568L2.67969 10.1627C3.07891 8.13867 4.12528 6.30319 5.65527 4.9303L5.9668 4.66174C7.56036 3.35173 9.53432 2.59852 11.5879 2.5094L12 2.50061Z" stroke="#EF4444"/>
<path d="M9.08385 8.72021C9.37676 8.42746 9.85156 8.42736 10.1444 8.72021L12.1132 10.6899L14.0233 8.78075C14.3162 8.48812 14.791 8.48795 15.0839 8.78075C15.3765 9.07357 15.3764 9.54843 15.0839 9.8413L13.1737 11.7505L15.4471 14.0239C15.74 14.3168 15.74 14.7916 15.4471 15.0845C15.1542 15.377 14.6794 15.3772 14.3866 15.0845L12.1132 12.811L9.78014 15.145C9.48729 15.4377 9.01245 15.4377 8.7196 15.145C8.42675 14.8522 8.42685 14.3774 8.7196 14.0845L11.0526 11.7505L9.08385 9.78075C8.79096 9.48786 8.79096 9.0131 9.08385 8.72021Z" fill="#EF4444"/>
</svg>
