<svg width="24" height="24" viewBox="0 0 24 24" fill="none" xmlns="http://www.w3.org/2000/svg">
<path d="M9.64532 15.0504C9.46855 15.0504 9.29179 14.9853 9.15224 14.8457C8.38936 14.0829 7.9707 13.0688 7.9707 11.9989C7.9707 9.77538 9.77556 7.97052 11.9991 7.97052C13.069 7.97052 14.083 8.38917 14.8459 9.15205C14.9762 9.2823 15.0506 9.45907 15.0506 9.64513C15.0506 9.8312 14.9762 10.008 14.8459 10.1382L10.1384 14.8457C9.99885 14.9853 9.82208 15.0504 9.64532 15.0504ZM11.9991 9.36603C10.5477 9.36603 9.36621 10.5476 9.36621 11.9989C9.36621 12.4641 9.48716 12.9106 9.71044 13.3014L13.3016 9.71026C12.9108 9.48698 12.4642 9.36603 11.9991 9.36603Z" fill="#9BA6B2"/>
<path d="M6.04471 18.0554C5.88655 18.0554 5.71909 17.9996 5.58885 17.888C4.59338 17.0414 3.70025 15.9994 2.93737 14.7899C1.95121 13.2549 1.95121 10.7523 2.93737 9.20789C5.20741 5.65399 8.51012 3.60724 11.9989 3.60724C14.0456 3.60724 16.0645 4.3143 17.8321 5.64468C18.1391 5.87727 18.2043 6.31453 17.9717 6.62154C17.7391 6.92855 17.3018 6.99368 16.9948 6.76109C15.4691 5.60747 13.7386 5.00275 11.9989 5.00275C8.99389 5.00275 6.11914 6.80761 4.1096 9.96147C3.41185 11.05 3.41185 12.9479 4.1096 14.0364C4.80736 15.1249 5.60745 16.0645 6.49128 16.8274C6.77968 17.0786 6.8169 17.5158 6.5657 17.8135C6.43546 17.9717 6.24008 18.0554 6.04471 18.0554Z" fill="#9BA6B2"/>
<path d="M11.9986 20.3906C10.7613 20.3906 9.55183 20.1394 8.38891 19.6464C8.03538 19.4975 7.86792 19.0882 8.01677 18.7346C8.16563 18.3811 8.57498 18.2136 8.92851 18.3625C9.91467 18.7812 10.9473 18.9951 11.9893 18.9951C14.9943 18.9951 17.8691 17.1903 19.8786 14.0364C20.5764 12.9479 20.5764 11.05 19.8786 9.96152C19.5902 9.50566 19.2739 9.0684 18.939 8.65905C18.6971 8.36134 18.7436 7.92408 19.0413 7.67289C19.339 7.431 19.7763 7.46821 20.0275 7.77522C20.3903 8.22179 20.7438 8.70556 21.0601 9.20795C22.0463 10.743 22.0463 13.2456 21.0601 14.79C18.7901 18.3439 15.4874 20.3906 11.9986 20.3906Z" fill="#9BA6B2"/>
<path d="M12.641 15.9715C12.3154 15.9715 12.0176 15.7389 11.9525 15.404C11.8781 15.0225 12.1293 14.6597 12.5107 14.5946C13.5341 14.4085 14.39 13.5526 14.5761 12.5292C14.6505 12.1478 15.0133 11.9059 15.3948 11.971C15.7762 12.0454 16.0274 12.4083 15.953 12.7897C15.6553 14.3992 14.3714 15.6738 12.7712 15.9715C12.7247 15.9622 12.6875 15.9715 12.641 15.9715Z" fill="#9BA6B2"/>
<path d="M2.69543 22.0001C2.51866 22.0001 2.3419 21.9349 2.20235 21.7954C1.93255 21.5256 1.93255 21.079 2.20235 20.8092L9.15199 13.8596C9.42179 13.5898 9.86836 13.5898 10.1382 13.8596C10.408 14.1294 10.408 14.5759 10.1382 14.8457L3.18851 21.7954C3.04896 21.9349 2.87219 22.0001 2.69543 22.0001Z" fill="#9BA6B2"/>
<path d="M14.3527 10.3429C14.1759 10.3429 13.9991 10.2778 13.8596 10.1382C13.5898 9.86842 13.5898 9.42185 13.8596 9.15205L20.8092 2.20241C21.079 1.93261 21.5256 1.93261 21.7954 2.20241C22.0652 2.47221 22.0652 2.91877 21.7954 3.18857L14.8457 10.1382C14.7062 10.2778 14.5294 10.3429 14.3527 10.3429Z" fill="#9BA6B2"/>
</svg>
