<svg width="24" height="24" viewBox="0 0 24 24" fill="none" xmlns="http://www.w3.org/2000/svg">
<path d="M12.0046 15.666C9.73709 15.666 7.89648 13.8254 7.89648 11.5578C7.89648 9.29025 9.73709 7.44965 12.0046 7.44965C14.2722 7.44965 16.1128 9.29025 16.1128 11.5578C16.1128 13.8254 14.2722 15.666 12.0046 15.666ZM12.0046 8.8728C10.5246 8.8728 9.31963 10.0777 9.31963 11.5578C9.31963 13.0379 10.5246 14.2428 12.0046 14.2428C13.4847 14.2428 14.6897 13.0379 14.6897 11.5578C14.6897 10.0777 13.4847 8.8728 12.0046 8.8728Z" fill="#9BA6B2"/>
<path d="M12.0047 20.1158C8.43738 20.1158 5.06926 18.0285 2.75427 14.4042C1.74858 12.8387 1.74858 10.2865 2.75427 8.71158C5.07875 5.08729 8.44687 3 12.0047 3C15.5626 3 18.9307 5.08729 21.2457 8.71158C22.2514 10.277 22.2514 12.8292 21.2457 14.4042C18.9307 18.0285 15.5626 20.1158 12.0047 20.1158ZM12.0047 4.42315C8.94023 4.42315 6.00854 6.26376 3.9592 9.48008C3.24763 10.5901 3.24763 12.5256 3.9592 13.6357C6.00854 16.852 8.94023 18.6926 12.0047 18.6926C15.0693 18.6926 18.0009 16.852 20.0503 13.6357C20.7619 12.5256 20.7619 10.5901 20.0503 9.48008C18.0009 6.26376 15.0693 4.42315 12.0047 4.42315Z" fill="#9BA6B2"/>
</svg>
