<svg width="24" height="24" viewBox="0 0 24 24" fill="none" xmlns="http://www.w3.org/2000/svg">
<path fill-rule="evenodd" clip-rule="evenodd" d="M1.8999 12.0009C1.8999 17.57 6.43059 22.1006 12.0002 22.1006C17.5692 22.1006 22.1005 17.5705 22.1005 12.0009C22.1005 6.43132 17.5698 1.90063 12.0002 1.90063C6.43058 1.90063 1.8999 6.43187 1.8999 12.0009ZM3.64563 12.0009C3.64563 7.39413 7.3934 3.64636 12.0002 3.64636C16.6064 3.64636 20.3547 7.39413 20.3547 12.0009C20.3547 16.6077 16.6064 20.3555 12.0002 20.3555C7.3934 20.3555 3.64563 16.6077 3.64563 12.0009ZM2.1499 13.7322C2.05132 13.1697 1.9999 12.5912 1.9999 12.0009C1.9999 6.4871 6.48581 2.00063 12.0002 2.00063C12.6895 2.00063 13.3627 2.07073 14.0131 2.20416C13.3627 2.07073 12.6895 2.00064 12.0002 2.00064C6.48582 2.00064 1.99991 6.4871 1.99991 12.0009C1.99991 12.5912 2.05132 13.1697 2.1499 13.7322Z" fill="#9BA6B2"/>
<path fill-rule="evenodd" clip-rule="evenodd" d="M10.8258 6.80066L7.79004 16.8007H9.71312L10.415 14.1358H13.5854L14.2873 16.8007H16.2104L13.1747 6.80066H10.8258ZM13.2056 12.6935L12.5291 10.1248L12.0071 8.32538H11.9933L11.4714 10.1248L10.7948 12.6935H13.2056Z" fill="#9BA6B2"/>
</svg>
