<svg width="24" height="24" viewBox="0 0 24 24" fill="none" xmlns="http://www.w3.org/2000/svg">
<path d="M9.11637 21C9.01888 20.9993 8.92284 20.9768 8.83559 20.9342C8.74834 20.8916 8.67218 20.8301 8.61293 20.7543C8.55705 20.6816 8.51959 20.5969 8.50365 20.5073C8.4877 20.4176 8.49372 20.3255 8.52121 20.2386L10.1584 14.5842C10.2019 14.4369 10.2085 14.2816 10.1777 14.1313C10.1486 13.9878 10.0867 13.8526 9.99683 13.7358C9.90692 13.6189 9.79126 13.5234 9.65844 13.4563C9.51911 13.3864 9.36466 13.3503 9.2081 13.351H5.98882C5.90272 13.3512 5.81696 13.3405 5.73365 13.3193C5.65445 13.2988 5.57822 13.2687 5.50676 13.2295C5.36766 13.1527 5.24946 13.0443 5.16209 12.9134C5.07472 12.7826 5.02074 12.6331 5.00469 12.4776C4.99664 12.3977 4.99896 12.3172 5.01159 12.2379C5.02501 12.1547 5.04935 12.0735 5.084 11.9963L8.78396 3.74249C8.88236 3.52198 9.04428 3.33431 9.24993 3.20244C9.45557 3.07057 9.69603 3.00022 9.94188 3H12.6363L9.4543 10.327C9.40929 10.4302 9.378 10.5387 9.3612 10.6497C9.34543 10.7554 9.34334 10.8627 9.35499 10.969C9.37809 11.1758 9.45135 11.3743 9.56867 11.5478C9.68599 11.7213 9.84398 11.8649 10.0295 11.9666C10.1249 12.0185 10.2266 12.0584 10.3322 12.0854C10.443 12.1137 10.557 12.128 10.6715 12.1279C10.8828 12.1276 11.0931 12.156 11.2963 12.2123C11.488 12.2657 11.6713 12.3445 11.8412 12.4465C12.1705 12.6461 12.4421 12.9249 12.6302 13.2563C12.8183 13.5877 12.9166 13.9607 12.9156 14.3399C12.9141 14.5349 12.8853 14.7289 12.8301 14.9163C12.7713 15.115 12.6844 15.3047 12.5722 15.4799L9.05499 20.9946H9.11568C9.19694 20.995 9.27734 20.9784 9.35154 20.946C9.3826 20.9324 9.41237 20.9161 9.44051 20.8974C9.34489 20.9615 9.2316 20.9957 9.11568 20.9953L9.11637 21Z" fill="#1882FF"/>
<path opacity="0.6" d="M9.58645 20.7678L15.8202 12.9548C15.9811 12.7533 16.081 12.5116 16.1084 12.2573C16.1357 12.003 16.0895 11.7462 15.975 11.5164C15.8604 11.2865 15.6822 11.0928 15.4605 10.9574C15.2389 10.8219 14.9829 10.7501 14.7216 10.7503C14.5163 10.7504 14.3142 10.7004 14.1336 10.6048C13.953 10.5093 13.7996 10.3711 13.6873 10.2029C13.575 10.0347 13.5074 9.84172 13.4905 9.64146C13.4736 9.44121 13.508 9.23999 13.5905 9.05602L15.5264 4.73608C15.611 4.54765 15.6463 4.34155 15.629 4.13641C15.6118 3.93128 15.5426 3.73359 15.4276 3.56124C15.3127 3.38888 15.1556 3.2473 14.9707 3.14931C14.7857 3.05131 14.5788 3 14.3685 3H12.6368L9.45473 10.327C9.36928 10.5239 9.33499 10.7384 9.35492 10.9514C9.37485 11.1644 9.44839 11.3692 9.56896 11.5476C9.68953 11.726 9.85337 11.8723 10.0458 11.9736C10.2383 12.0749 10.4534 12.1279 10.672 12.1279C11.0718 12.128 11.4643 12.2327 11.8088 12.4313C12.1533 12.6299 12.4372 12.9151 12.6312 13.2573C12.8251 13.5995 12.9219 13.9862 12.9116 14.3774C12.9013 14.7686 12.7843 15.15 12.5726 15.4819L9.05542 20.9966C9.15662 21.007 9.25884 20.9913 9.35197 20.9512C9.4451 20.9111 9.52592 20.8479 9.58645 20.7678V20.7678Z" fill="#1882FF"/>
<g opacity="0.2">
<path d="M16.6278 13.8931C16.6015 13.8854 16.576 13.875 16.5519 13.8621C16.5118 13.8408 16.476 13.8124 16.4464 13.7784C16.4146 13.7413 16.391 13.6982 16.3771 13.6517C16.3632 13.6052 16.3593 13.5564 16.3657 13.5084L16.6168 11.2701C16.6373 11.0877 16.5862 10.9045 16.4737 10.7577C16.3612 10.6109 16.1959 10.5115 16.0113 10.4797L14.9968 10.2995C14.8956 10.2822 14.8007 10.24 14.7209 10.1766C14.6455 10.1168 14.5856 10.0404 14.5462 9.95357C14.5067 9.86675 14.4889 9.77201 14.494 9.67713C14.501 9.57654 14.5342 9.47939 14.5906 9.39499L16.4444 6.55192C16.4782 6.49838 16.5258 6.4544 16.5823 6.42435C16.6338 6.39793 16.6911 6.38426 16.7492 6.38453C16.8256 6.38483 16.9002 6.40713 16.9637 6.44865C17.008 6.47741 17.0452 6.51545 17.0726 6.56002C17.0593 6.5384 17.0435 6.51826 17.0257 6.49995C16.9922 6.4655 16.9522 6.43776 16.9078 6.41827L16.0644 8.97784C15.997 9.18181 16.011 9.40316 16.1035 9.59747C16.196 9.79177 16.3601 9.94465 16.563 10.0254L17.0457 10.2178C17.2524 10.2998 17.4188 10.4566 17.5105 10.6556C17.6022 10.8545 17.6121 11.0804 17.5381 11.2863L16.6085 13.8864L16.6278 13.8925V13.8931Z" fill="#1882FF"/>
<path opacity="0.88" d="M18.508 9.97897L17.466 9.78053C17.2843 9.74588 17.1225 9.64567 17.0128 9.49976C16.9031 9.35385 16.8534 9.1729 16.8736 8.99281L17.1211 6.78559C17.1312 6.71021 17.1159 6.63369 17.0775 6.56758C17.0392 6.50146 16.98 6.44934 16.9087 6.41907L16.0653 8.97796C15.998 9.1821 16.0122 9.40358 16.105 9.59791C16.1977 9.79224 16.3622 9.94502 16.5653 10.0255L17.048 10.2179C17.2547 10.3 17.4211 10.4567 17.5128 10.6557C17.6045 10.8546 17.6144 11.0805 17.5405 11.2864L16.6074 13.8878C16.6857 13.9168 16.7719 13.9181 16.8511 13.8915C16.9303 13.8649 16.9975 13.812 17.0411 13.7421L18.9032 10.8862C18.9569 10.8043 18.9894 10.7109 18.9977 10.614C19.0061 10.517 18.9901 10.4196 18.9511 10.3301C18.9121 10.2406 18.8514 10.1619 18.7742 10.1007C18.6969 10.0395 18.6056 9.99767 18.508 9.97897V9.97897Z" fill="#1882FF"/>
</g>
</svg>
