<svg width="24" height="24" viewBox="0 0 24 24" fill="none" xmlns="http://www.w3.org/2000/svg">
<g clip-path="url(#clip0_2521_1684)">
<path fill-rule="evenodd" clip-rule="evenodd" d="M5.78251 0.923584C4.12565 0.923584 2.78251 2.26673 2.78251 3.92358V20.0497C2.78251 21.7066 4.12565 23.0497 5.78251 23.0497H13.6336L21.2243 16.5497V3.92358C21.2243 2.26673 19.8811 0.923584 18.2243 0.923584H5.78251ZM16.9816 17.5497L14.6336 19.5603V17.5497H16.9816ZM19.2243 15.5497V3.92358C19.2243 3.3713 18.7766 2.92358 18.2243 2.92358H5.78251C5.23022 2.92358 4.78251 3.3713 4.78251 3.92358V20.0497C4.78251 20.602 5.23022 21.0497 5.78251 21.0497H12.6336V17.5497C12.6336 16.4452 13.529 15.5497 14.6336 15.5497H19.2243Z" fill="#9BA6B2"/>
<path fill-rule="evenodd" clip-rule="evenodd" d="M7.96987 6.83839C7.96987 6.32859 8.38315 5.91531 8.89295 5.91531H14.7995C15.3093 5.91531 15.7226 6.32859 15.7226 6.83839C15.7226 7.34819 15.3093 7.76146 14.7995 7.76146H8.89295C8.38315 7.76146 7.96987 7.34819 7.96987 6.83839Z" fill="#9BA6B2"/>
<path fill-rule="evenodd" clip-rule="evenodd" d="M7.96987 11.7247C7.96987 11.2149 8.38315 10.8016 8.89295 10.8016H14.7995C15.3093 10.8016 15.7226 11.2149 15.7226 11.7247C15.7226 12.2345 15.3093 12.6477 14.7995 12.6477H8.89295C8.38315 12.6477 7.96987 12.2345 7.96987 11.7247Z" fill="#9BA6B2"/>
</g>
<defs>
<clipPath id="clip0_2521_1684">
<rect width="24" height="24" fill="white" transform="translate(0 0.000488281)"/>
</clipPath>
</defs>
</svg>
