<svg width="24" height="24" viewBox="0 0 24 24" fill="none" xmlns="http://www.w3.org/2000/svg">
<path d="M6.17071 18.0006C6.58254 16.8354 7.69378 16.0006 9 16.0006C10.3062 16.0006 11.4175 16.8354 11.8293 18.0006H22V20.0006H11.8293C11.4175 21.1658 10.3062 22.0006 9 22.0006C7.69378 22.0006 6.58254 21.1658 6.17071 20.0006H2V18.0006H6.17071ZM12.1707 11.0006C12.5825 9.83542 13.6938 9.00061 15 9.00061C16.3062 9.00061 17.4175 9.83542 17.8293 11.0006H22V13.0006H17.8293C17.4175 14.1658 16.3062 15.0006 15 15.0006C13.6938 15.0006 12.5825 14.1658 12.1707 13.0006H2V11.0006H12.1707ZM6.17071 4.00061C6.58254 2.83542 7.69378 2.00061 9 2.00061C10.3062 2.00061 11.4175 2.83542 11.8293 4.00061H22V6.00061H11.8293C11.4175 7.1658 10.3062 8.00061 9 8.00061C7.69378 8.00061 6.58254 7.1658 6.17071 6.00061H2V4.00061H6.17071ZM9 6.00061C9.55228 6.00061 10 5.55289 10 5.00061C10 4.44833 9.55228 4.00061 9 4.00061C8.44772 4.00061 8 4.44833 8 5.00061C8 5.55289 8.44772 6.00061 9 6.00061ZM15 13.0006C15.5523 13.0006 16 12.5529 16 12.0006C16 11.4483 15.5523 11.0006 15 11.0006C14.4477 11.0006 14 11.4483 14 12.0006C14 12.5529 14.4477 13.0006 15 13.0006ZM9 20.0006C9.55228 20.0006 10 19.5529 10 19.0006C10 18.4483 9.55228 18.0006 9 18.0006C8.44772 18.0006 8 18.4483 8 19.0006C8 19.5529 8.44772 20.0006 9 20.0006Z" fill="#9BA6B2"/>
</svg>
