<svg width="24" height="24" viewBox="0 0 24 24" fill="none" xmlns="http://www.w3.org/2000/svg">
<path fill-rule="evenodd" clip-rule="evenodd" d="M15.937 3.03571C14.6884 3.2086 13.4609 3.97133 12.7674 5.00516C12.564 5.30848 12.2638 5.94907 12.2129 6.18849L12.1765 6.35932L10.2514 6.37331L3.82628 6.38736L3.61506 6.50105C3.20803 6.72009 3.00779 7.0571 3.00779 7.52311C3.00779 7.966 3.28518 8.37392 3.70578 8.54961C3.87962 8.62222 4.63411 8.63162 10.2875 8.63162H12.1728L12.2061 8.8092C12.2244 8.90684 12.3423 9.19796 12.468 9.45608C13.7352 12.0575 17.0061 12.8097 19.3174 11.0312C19.9812 10.5204 20.5992 9.59221 20.8461 8.73517C21.1025 7.84491 21.0336 6.65028 20.6764 5.79118C20.3358 4.97226 19.5713 4.07535 18.857 3.65671C17.979 3.14211 16.8707 2.90639 15.937 3.03571ZM17.0596 5.33098C17.5046 5.44688 17.7677 5.59881 18.1 5.93191C18.9638 6.79766 18.9846 8.14195 18.1479 9.0266C17.6836 9.51759 17.17 9.74054 16.5034 9.74054C15.8624 9.74054 15.3186 9.49763 14.8608 9.00675C14.0778 8.16729 14.0722 6.86584 14.8478 6.00758C15.4101 5.38542 16.2648 5.12398 17.0596 5.33098ZM6.67781 12.0906C5.93298 12.2313 5.28948 12.5265 4.69114 13.0021C2.87282 14.447 2.46304 17.0405 3.74396 18.9969C4.13852 19.5996 4.7911 20.1785 5.44468 20.5057C6.20789 20.8877 6.6729 20.9997 7.4963 20.9997C8.31189 20.9997 8.77658 20.8892 9.53794 20.5139C10.4073 20.0853 11.171 19.2935 11.5841 18.3923C11.6819 18.1791 11.7781 17.9278 11.7981 17.8339L11.8344 17.6631L13.7595 17.6491L20.1847 17.635L20.42 17.503C20.7737 17.3046 20.9671 16.9953 20.9931 16.5867C21.017 16.2111 20.9161 15.9483 20.6516 15.6972C20.3098 15.3728 20.7162 15.3908 13.7235 15.3908H11.8382L11.8048 15.2132C11.7463 14.9011 11.3245 14.1099 10.9976 13.6988C9.97977 12.419 8.283 11.7873 6.67781 12.0906ZM8.13356 14.3668C8.53616 14.4861 8.81275 14.6607 9.12959 14.9958C9.96994 15.8844 9.9456 17.2246 9.07325 18.0989C8.18626 18.9879 6.80459 18.9828 5.90858 18.0873C5.2361 17.4152 5.06464 16.4441 5.46311 15.5641C5.60268 15.2559 5.99677 14.8063 6.29053 14.6201C6.7981 14.2983 7.55254 14.1947 8.13356 14.3668Z" fill="#9BA6B2"/>
</svg>
