<svg width="24" height="24" viewBox="0 0 24 24" fill="none" xmlns="http://www.w3.org/2000/svg">
<path d="M18.8999 7.01758C19.8044 8.51694 20.1908 10.2715 19.9999 12.0115V13.0103C19.9987 14.0619 20.2746 15.0953 20.7999 16.0067" stroke="#9BA6B2" stroke-width="2" stroke-linecap="round" stroke-linejoin="round"/>
<path d="M8 11.0127C8 9.95315 8.42143 8.93697 9.17157 8.18773C9.92172 7.4385 10.9391 7.01758 12 7.01758C13.0609 7.01758 14.0783 7.4385 14.8284 8.18773C15.5786 8.93697 16 9.95315 16 11.0127V12.0115C16 14.1726 16.7018 16.2754 18 18.0043" stroke="#9BA6B2" stroke-width="2" stroke-linecap="round" stroke-linejoin="round"/>
<path d="M12 11.0127V13.0103C11.9968 15.8662 12.8693 18.6546 14.5 21.0006" stroke="#9BA6B2" stroke-width="2" stroke-linecap="round" stroke-linejoin="round"/>
<path d="M8 15.0079C8.2447 17.0952 8.85393 19.1235 9.8 21.0007" stroke="#9BA6B2" stroke-width="2" stroke-linecap="round" stroke-linejoin="round"/>
<path d="M4.89994 19.003C4.22518 16.7361 3.92127 14.3752 3.99994 12.0115V11.0127C3.9961 9.60827 4.36296 8.22764 5.06354 7.00992C5.76412 5.7922 6.77368 4.78043 7.99048 4.07655C9.20728 3.37268 10.5883 3.00157 11.9945 3.00061C13.4006 2.99966 14.7822 3.3689 15.9999 4.07113" stroke="#9BA6B2" stroke-width="2" stroke-linecap="round" stroke-linejoin="round"/>
</svg>
