<svg width="24" height="24" viewBox="0 0 24 24" fill="none" xmlns="http://www.w3.org/2000/svg">
<g clip-path="url(#clip0_2517_1144)">
<path d="M12 22.0006C6.477 22.0006 2 17.5236 2 12.0006C2 6.47761 6.477 2.00061 12 2.00061C17.523 2.00061 22 6.47761 22 12.0006C22 17.5236 17.523 22.0006 12 22.0006ZM9.71 19.6676C8.72341 17.5749 8.15187 15.3108 8.027 13.0006H4.062C4.25659 14.5395 4.89392 15.9888 5.89657 17.1723C6.89922 18.3559 8.22401 19.2227 9.71 19.6676V19.6676ZM10.03 13.0006C10.181 15.4396 10.878 17.7306 12 19.7526C13.1523 17.6772 13.8254 15.3701 13.97 13.0006H10.03V13.0006ZM19.938 13.0006H15.973C15.8481 15.3108 15.2766 17.5749 14.29 19.6676C15.776 19.2227 17.1008 18.3559 18.1034 17.1723C19.1061 15.9888 19.7434 14.5395 19.938 13.0006V13.0006ZM4.062 11.0006H8.027C8.15187 8.6904 8.72341 6.4263 9.71 4.33361C8.22401 4.77849 6.89922 5.64536 5.89657 6.82891C4.89392 8.01245 4.25659 9.46171 4.062 11.0006V11.0006ZM10.031 11.0006H13.969C13.8248 8.63121 13.152 6.32414 12 4.24861C10.8477 6.32406 10.1746 8.63113 10.03 11.0006H10.031ZM14.29 4.33361C15.2766 6.4263 15.8481 8.6904 15.973 11.0006H19.938C19.7434 9.46171 19.1061 8.01245 18.1034 6.82891C17.1008 5.64536 15.776 4.77849 14.29 4.33361V4.33361Z" fill="#9BA6B2"/>
</g>
<defs>
<clipPath id="clip0_2517_1144">
<rect width="24" height="24" fill="white" transform="translate(0 0.000610352)"/>
</clipPath>
</defs>
</svg>
