<svg width="24" height="24" viewBox="0 0 24 24" fill="none" xmlns="http://www.w3.org/2000/svg">
<path d="M21.6 12.2228C21.6 11.4006 21.5333 10.8006 21.3889 10.1784H12V13.8895H17.5111C17.4 14.8117 16.8 16.2006 15.4666 17.1339L15.4479 17.2581L18.4165 19.5579L18.6222 19.5784C20.5111 17.8339 21.6 15.2673 21.6 12.2228Z" fill="#4285F4"/>
<path d="M12 22.0006C14.7 22.0006 16.9666 21.1117 18.6222 19.5784L15.4666 17.1339C14.6222 17.7228 13.4889 18.1339 12 18.1339C9.35558 18.1339 7.11115 16.3895 6.31108 13.9784L6.1938 13.9884L3.10702 16.3772L3.06665 16.4895C4.71108 19.7561 8.08886 22.0006 12 22.0006Z" fill="#34A853"/>
<path d="M6.31107 13.9784C6.09996 13.3562 5.97779 12.6894 5.97779 12.0006C5.97779 11.3117 6.09996 10.645 6.29996 10.0228L6.29437 9.89028L3.1689 7.46301L3.06664 7.51165C2.38889 8.86723 2 10.3895 2 12.0006C2 13.6117 2.38889 15.1339 3.06664 16.4894L6.31107 13.9784Z" fill="#FBBC05"/>
<path d="M12 5.86725C13.8778 5.86725 15.1444 6.67836 15.8666 7.35618L18.6889 4.60061C16.9556 2.9895 14.7 2.00061 12 2.00061C8.08886 2.00061 4.71108 4.24504 3.06665 7.51168L6.29997 10.0228C7.11115 7.61172 9.35558 5.86725 12 5.86725Z" fill="#EB4335"/>
</svg>
