<svg width="24" height="24" viewBox="0 0 24 24" fill="none" xmlns="http://www.w3.org/2000/svg">
<path fill-rule="evenodd" clip-rule="evenodd" d="M21.4072 9.71016C21.1954 9.14839 20.8495 8.59742 20.3878 8.2212L13.9695 2.98702C12.7624 2.00587 11.0452 2.1979 9.84488 3.1717L3.61711 8.21941C3.15016 8.59547 2.80114 9.14685 2.58878 9.71016C2.37656 10.2731 2.27398 10.9193 2.37539 11.5141L2.37577 11.5163L3.57073 18.7544C3.84124 20.3741 5.34441 21.6607 6.96789 21.6607H17.0348C18.65 21.6607 20.1612 20.3645 20.4319 18.7551L21.6277 11.5122L21.6281 11.5097C21.7237 10.9167 21.619 10.2721 21.4072 9.71016ZM13.9073 3.06385C12.7448 2.11893 11.0803 2.29708 9.90755 3.24859L3.67974 8.29632C3.22988 8.65862 2.88953 9.19379 2.68171 9.74509C2.47403 10.296 2.37551 10.9241 2.47327 11.4974L2.47365 11.4996L3.66867 18.738C3.93135 20.311 5.39396 21.5617 6.96817 21.5617H17.0351C18.6008 21.5617 20.0715 20.3016 20.3345 18.739L21.5302 11.4962L21.5306 11.4939C21.6228 10.922 21.5222 10.2952 21.3148 9.74509C21.1075 9.19506 20.7703 8.66038 20.3256 8.29795L13.9073 3.06385Z" fill="#9BA6B2"/>
<path fill-rule="evenodd" clip-rule="evenodd" d="M9.63433 2.90741C10.9277 1.85808 12.8229 1.61913 14.1808 2.72293L20.5995 7.95737C21.1188 8.38057 21.4949 8.98736 21.7219 9.58964C21.9491 10.1923 22.0673 10.9011 21.9599 11.567L20.7643 18.8088C20.4664 20.5799 18.8158 22 17.0351 22H6.96818C5.17953 22 3.53694 20.5929 3.23932 18.8107L2.04453 11.5737L2.04431 11.5723C1.93027 10.9035 2.0468 10.1941 2.27465 9.58964C2.5026 8.98497 2.88213 8.37761 3.40711 7.95466L9.63433 2.90741ZM10.9139 12.0888C10.9139 11.4873 11.4015 10.9997 12.003 10.9997C12.6046 10.9997 13.0922 11.4873 13.0922 12.0888V15.9109C13.0922 16.5124 12.6046 17 12.003 17C11.4015 17 10.9139 16.5124 10.9139 15.9109V12.0888ZM3.84172 11.2645L3.84076 11.2588C3.79537 10.994 3.83518 10.6258 3.97788 10.2473C4.12051 9.86891 4.33416 9.56574 4.54361 9.39718L10.7747 4.34677C11.0982 4.08428 11.5432 3.94788 11.9968 3.94867C12.4504 3.94945 12.899 4.08775 13.2284 4.35568L19.457 9.395C19.6633 9.56358 19.8754 9.86717 20.0187 10.2473C20.1619 10.6272 20.2041 10.9981 20.1614 11.2657L18.9667 18.5022C18.8925 18.9413 18.6347 19.3559 18.2779 19.6613C17.921 19.9668 17.4749 20.1551 17.0351 20.1551H6.96818C6.51614 20.1551 6.07108 19.9635 5.72183 19.6647C5.37254 19.3657 5.11223 18.9536 5.0368 18.5032L3.84172 11.2645ZM21.4072 9.71016C21.1954 9.14839 20.8495 8.59742 20.3878 8.2212L13.9695 2.98702C12.7624 2.00587 11.0452 2.1979 9.84488 3.1717L3.61711 8.21941C3.15016 8.59547 2.80114 9.14685 2.58878 9.71016C2.37656 10.2731 2.27398 10.9193 2.37539 11.5141L2.37577 11.5163L3.57073 18.7544C3.84124 20.3741 5.34441 21.6607 6.96789 21.6607H17.0348C18.65 21.6607 20.1612 20.3645 20.4319 18.7551L21.6277 11.5122L21.6281 11.5097C21.7237 10.9167 21.619 10.2721 21.4072 9.71016ZM13.9073 3.06385C12.7448 2.11893 11.0803 2.29708 9.90755 3.24859L3.67974 8.29632C3.22988 8.65862 2.88953 9.19379 2.68171 9.74509C2.47403 10.296 2.37551 10.9241 2.47327 11.4974L2.47365 11.4996L3.66867 18.738C3.93135 20.311 5.39396 21.5617 6.96817 21.5617H17.0351C18.6008 21.5617 20.0715 20.3016 20.3345 18.739L21.5302 11.4962L21.5306 11.4939C21.6228 10.922 21.5222 10.2952 21.3148 9.74509C21.1075 9.19506 20.7703 8.66038 20.3256 8.29795L13.9073 3.06385ZM12.9929 15.9109V12.0888C12.9929 11.542 12.5496 11.0987 12.0028 11.0987C11.4559 11.0987 11.0126 11.542 11.0126 12.0888V15.9109C11.0126 16.4577 11.4559 16.901 12.0028 16.901C12.5496 16.901 12.9929 16.4577 12.9929 15.9109ZM11.1119 12.0888C11.1119 11.5967 11.5109 11.1977 12.003 11.1977C12.4952 11.1977 12.8941 11.5967 12.8941 12.0888V15.9109C12.8941 16.403 12.4952 16.802 12.003 16.802C11.5109 16.802 11.1119 16.403 11.1119 15.9109V12.0888Z" fill="#9BA6B2"/>
<path fill-rule="evenodd" clip-rule="evenodd" d="M12.9929 12.0888V15.9109C12.9929 16.4577 12.5496 16.901 12.0028 16.901C11.4559 16.901 11.0126 16.4577 11.0126 15.9109V12.0888C11.0126 11.542 11.4559 11.0987 12.0028 11.0987C12.5496 11.0987 12.9929 11.542 12.9929 12.0888ZM12.003 11.1977C11.5109 11.1977 11.1119 11.5967 11.1119 12.0888V15.9109C11.1119 16.403 11.5109 16.802 12.003 16.802C12.4952 16.802 12.8941 16.403 12.8941 15.9109V12.0888C12.8941 11.5967 12.4952 11.1977 12.003 11.1977Z" fill="#9BA6B2"/>
<path fill-rule="evenodd" clip-rule="evenodd" d="M20.9587 9.8189C20.757 9.28388 20.4276 8.75914 19.9879 8.40083L13.8753 3.41591C12.7258 2.48148 11.0904 2.66436 9.94729 3.59179L4.01625 8.39913C3.57155 8.75728 3.23916 9.28241 3.03692 9.8189C2.83481 10.355 2.73711 10.9704 2.83369 11.5369L2.83406 11.5391L3.97208 18.4324C4.2297 19.9751 5.66125 21.2004 7.20738 21.2004H16.7947C18.3328 21.2004 19.7721 19.9659 20.0298 18.4332L21.1687 11.5351L21.169 11.5327C21.2601 10.9679 21.1605 10.3541 20.9587 9.8189ZM13.8161 3.48908C12.7091 2.58915 11.1239 2.75882 10.007 3.66502L4.07589 8.47238C3.64747 8.81743 3.32334 9.32711 3.12542 9.85216C2.92763 10.3768 2.83381 10.975 2.92691 11.521L2.92727 11.5232L4.06535 18.4169C4.31552 19.9149 5.70844 21.1061 7.20764 21.1061H16.7949C18.286 21.1061 19.6867 19.906 19.9371 18.4178L21.0758 11.5199L21.0762 11.5177C21.1641 10.9731 21.0682 10.3761 20.8707 9.85216C20.6733 9.32832 20.3522 8.81911 19.9286 8.47393L13.8161 3.48908Z" fill="#9BA6B2"/>
<path fill-rule="evenodd" clip-rule="evenodd" d="M9.74677 3.34008C10.9785 2.34072 12.7835 2.11315 14.0767 3.16439L20.1895 8.14957C20.6841 8.55262 21.0422 9.13051 21.2584 9.70411C21.4748 10.2781 21.5874 10.9531 21.4851 11.5873L20.3464 18.4843C20.0628 20.171 18.4908 21.5235 16.7949 21.5235H7.20765C5.50423 21.5235 3.9399 20.1834 3.65646 18.4861L2.5186 11.5937L2.51838 11.5924C2.40978 10.9554 2.52076 10.2798 2.73776 9.70411C2.95484 9.12824 3.31629 8.5498 3.81626 8.14699L9.74677 3.34008ZM10.9654 12.0367C10.9654 11.4638 11.4302 10.9997 12.003 10.9997C12.5759 10.9997 13.0399 11.4638 13.0399 12.0367V15.7027C13.0399 16.2756 12.5755 16.74 12.0026 16.74C11.4298 16.74 10.9654 16.2756 10.9654 15.7027V12.0367ZM4.23016 11.2992L4.22924 11.2938C4.18601 11.0416 4.22393 10.691 4.35983 10.3304C4.49567 9.97009 4.69914 9.68135 4.89861 9.52082L10.8328 4.7109C11.1409 4.46091 11.5647 4.33101 11.9967 4.33176C12.4287 4.33251 12.8559 4.46422 13.1695 4.71939L19.1014 9.51874C19.2979 9.6793 19.4999 9.96843 19.6363 10.3304C19.7727 10.6922 19.813 11.0455 19.7723 11.3004L18.6345 18.1922C18.5638 18.6105 18.3183 19.0053 17.9785 19.2962C17.6386 19.5871 17.2138 19.7664 16.7949 19.7664H7.20765C6.77715 19.7664 6.35329 19.584 6.02069 19.2994C5.68804 19.0147 5.44013 18.6222 5.3683 18.1932L4.23016 11.2992ZM20.9587 9.8189C20.757 9.28388 20.4276 8.75914 19.9879 8.40083L13.8753 3.41591C12.7258 2.48148 11.0904 2.66436 9.94729 3.59179L4.01625 8.39913C3.57155 8.75728 3.23916 9.28241 3.03692 9.8189C2.83481 10.355 2.73711 10.9704 2.83369 11.5369L2.83406 11.5391L3.97208 18.4324C4.2297 19.9751 5.66125 21.2004 7.20738 21.2004H16.7947C18.3328 21.2004 19.7721 19.9659 20.0298 18.4332L21.1687 11.5351L21.169 11.5327C21.2601 10.9679 21.1605 10.3541 20.9587 9.8189ZM13.8161 3.48908C12.7091 2.58915 11.1239 2.75882 10.007 3.66502L4.07589 8.47238C3.64747 8.81743 3.32334 9.32711 3.12542 9.85216C2.92763 10.3768 2.83381 10.975 2.92691 11.521L2.92727 11.5232L4.06535 18.4169C4.31552 19.9149 5.70844 21.1061 7.20764 21.1061H16.7949C18.286 21.1061 19.6867 19.906 19.9371 18.4178L21.0758 11.5199L21.0762 11.5177C21.1641 10.9731 21.0682 10.3761 20.8707 9.85216C20.6733 9.32832 20.3522 8.81911 19.9286 8.47393L13.8161 3.48908ZM12.9453 15.7027V12.0367C12.9453 11.5159 12.5231 11.0937 12.0024 11.0937C11.4816 11.0937 11.0594 11.5159 11.0594 12.0367V15.7027C11.0594 16.2235 11.4816 16.6457 12.0024 16.6457C12.5231 16.6457 12.9453 16.2235 12.9453 15.7027ZM11.154 12.0367C11.154 11.568 11.5339 11.188 12.0026 11.188C12.4713 11.188 12.8513 11.568 12.8513 12.0367V15.7027C12.8513 16.1714 12.4713 16.5514 12.0026 16.5514C11.5339 16.5514 11.154 16.1714 11.154 15.7027V12.0367Z" fill="#9BA6B2"/>
<path fill-rule="evenodd" clip-rule="evenodd" d="M12.9453 12.0367V15.7027C12.9453 16.2235 12.5231 16.6457 12.0024 16.6457C11.4816 16.6457 11.0594 16.2235 11.0594 15.7027V12.0367C11.0594 11.5159 11.4816 11.0937 12.0024 11.0937C12.5231 11.0937 12.9453 11.5159 12.9453 12.0367ZM12.0026 11.188C11.5339 11.188 11.154 11.568 11.154 12.0367V15.7027C11.154 16.1714 11.5339 16.5514 12.0026 16.5514C12.4713 16.5514 12.8513 16.1714 12.8513 15.7027V12.0367C12.8513 11.568 12.4713 11.188 12.0026 11.188Z" fill="#9BA6B2"/>
</svg>
