<svg width="24" height="24" viewBox="0 0 24 24" fill="none" xmlns="http://www.w3.org/2000/svg">
<path d="M22 21.0006H2V19.0006H3V4.00061C3 3.73539 3.10536 3.48104 3.29289 3.2935C3.48043 3.10597 3.73478 3.00061 4 3.00061H18C18.2652 3.00061 18.5196 3.10597 18.7071 3.2935C18.8946 3.48104 19 3.73539 19 4.00061V9.00061H21V19.0006H22V21.0006ZM17 19.0006H19V11.0006H13V19.0006H15V13.0006H17V19.0006ZM17 9.00061V5.00061H5V19.0006H11V9.00061H17ZM7 11.0006H9V13.0006H7V11.0006ZM7 15.0006H9V17.0006H7V15.0006ZM7 7.00061H9V9.00061H7V7.00061Z" fill="#9BA6B2"/>
</svg>
