<svg width="24" height="24" viewBox="0 0 24 24" fill="none" xmlns="http://www.w3.org/2000/svg">
<path fill-rule="evenodd" clip-rule="evenodd" d="M21.991 9.26463V13.6081C22.003 13.6913 22.0031 13.7762 21.991 13.86V14.7366C21.991 17.2351 21.4583 19.0649 20.2575 20.2662C19.0567 21.4676 17.2277 22.0006 14.7302 22.0006H9.26079C6.76334 22.0006 4.93439 21.4676 3.73356 20.2662C2.53275 19.0649 2 17.2351 2 14.7366V9.26463C2 6.76608 2.53275 4.93636 3.73356 3.735C4.93439 2.53362 6.76334 2.00061 9.26079 2.00061H14.7302C17.2277 2.00061 19.0567 2.53362 20.2575 3.735C21.4583 4.93636 21.991 6.76608 21.991 9.26463ZM20.2315 9.26463V11.8075L20.2083 11.7875C19.16 10.8956 17.5296 10.8948 16.4895 11.7881L13.2441 14.5744L12.6973 15.0439L12.6957 15.0453C12.514 15.2048 12.2572 15.2907 11.9898 15.2907C11.8764 15.2907 11.7642 15.2752 11.6584 15.2451C11.5153 15.2044 11.3838 15.1369 11.2764 15.0447L11.2757 15.044L10.9764 14.7809L10.9737 14.7786C10.0137 13.9651 8.5587 13.8773 7.50102 14.5925L3.95871 16.9718C3.82365 16.3421 3.75952 15.6021 3.75952 14.7366V9.26463C3.75952 7.17631 4.13285 5.81911 4.97491 4.97666C5.81694 4.13425 7.17346 3.76076 9.26079 3.76076H14.7302C16.8176 3.76076 18.1741 4.13425 19.0161 4.97666C19.8582 5.81911 20.2315 7.17631 20.2315 9.26463ZM20.2315 14.7366V14.1318L19.06 13.1251C18.6777 12.7962 18.0115 12.7964 17.6292 13.1253L13.837 16.3811C12.7969 17.2744 11.1665 17.2736 10.1182 16.3816L10.1158 16.3796L9.81638 16.1163C9.79152 16.0953 9.76544 16.0756 9.73829 16.0572C9.38192 15.8164 8.84293 15.8063 8.47845 16.0565L8.4768 16.0576L6.33333 17.4974L4.64333 18.6326C4.74453 18.7741 4.85497 18.9046 4.97491 19.0246C5.81694 19.867 7.17346 20.2405 9.26079 20.2405H14.7302C16.8176 20.2405 18.1741 19.867 19.0161 19.0246C19.8582 18.1821 20.2315 16.8249 20.2315 14.7366ZM9.26082 5.64858C7.76684 5.64858 6.5579 6.8582 6.5579 8.35264C6.5579 9.84707 7.76684 11.0567 9.26082 11.0567C10.7548 11.0567 11.9637 9.84707 11.9637 8.35264C11.9637 6.8582 10.7548 5.64858 9.26082 5.64858ZM8.31742 8.35264C8.31742 7.83157 8.7402 7.40873 9.26082 7.40873C9.78143 7.40873 10.2042 7.83157 10.2042 8.35264C10.2042 8.87371 9.78143 9.29655 9.26082 9.29655C8.7402 9.29655 8.31742 8.87371 8.31742 8.35264Z" fill="#9BA6B2"/>
</svg>
