<svg width="24" height="24" viewBox="0 0 24 24" fill="none" xmlns="http://www.w3.org/2000/svg">
<path d="M9.26027 10.8584C7.87215 10.8584 6.74886 9.73516 6.74886 8.34703C6.74886 6.9589 7.87215 5.83562 9.26027 5.83562C10.6484 5.83562 11.7717 6.9589 11.7717 8.34703C11.7717 9.73516 10.6484 10.8584 9.26027 10.8584ZM9.26027 7.20548C8.63014 7.20548 8.11872 7.71689 8.11872 8.34703C8.11872 8.97717 8.63014 9.48858 9.26027 9.48858C9.89041 9.48858 10.4018 8.97717 10.4018 8.34703C10.4018 7.71689 9.89041 7.20548 9.26027 7.20548Z" fill="#9BA6B2"/>
<path fill-rule="evenodd" clip-rule="evenodd" d="M9.26027 6.01826C7.97302 6.01826 6.93151 7.05978 6.93151 8.34703C6.93151 9.63428 7.97302 10.6758 9.26027 10.6758C10.5475 10.6758 11.589 9.63428 11.589 8.34703C11.589 7.05978 10.5475 6.01826 9.26027 6.01826ZM6.56621 8.34703C6.56621 6.85803 7.77127 5.65297 9.26027 5.65297C10.7493 5.65297 11.9543 6.85803 11.9543 8.34703C11.9543 9.83603 10.7493 11.0411 9.26027 11.0411C7.77127 11.0411 6.56621 9.83603 6.56621 8.34703ZM7.93607 8.34703C7.93607 7.61602 8.52926 7.02283 9.26027 7.02283C9.99128 7.02283 10.5845 7.61602 10.5845 8.34703C10.5845 9.07804 9.99128 9.67123 9.26027 9.67123C8.52926 9.67123 7.93607 9.07804 7.93607 8.34703ZM9.26027 7.38813C8.73101 7.38813 8.30137 7.81777 8.30137 8.34703C8.30137 8.87629 8.73101 9.30594 9.26027 9.30594C9.78954 9.30594 10.2192 8.87629 10.2192 8.34703C10.2192 7.81777 9.78954 7.38813 9.26027 7.38813Z" fill="#9BA6B2"/>
<path d="M14.7397 21.8174H9.26027C4.30137 21.8174 2.18265 19.6986 2.18265 14.7397V9.26027C2.18265 4.30137 4.30137 2.18265 9.26027 2.18265H12.9132C13.2877 2.18265 13.5982 2.49315 13.5982 2.86758C13.5982 3.24201 13.2877 3.55251 12.9132 3.55251H9.26027C5.05023 3.55251 3.55251 5.05023 3.55251 9.26027V14.7397C3.55251 18.9498 5.05023 20.4475 9.26027 20.4475H14.7397C18.9498 20.4475 20.4475 18.9498 20.4475 14.7397V10.1735C20.4475 9.79909 20.758 9.48858 21.1324 9.48858C21.5068 9.48858 21.8174 9.79909 21.8174 10.1735V14.7397C21.8174 19.6986 19.6986 21.8174 14.7397 21.8174Z" fill="#9BA6B2"/>
<path fill-rule="evenodd" clip-rule="evenodd" d="M3.99102 3.99102C2.89121 5.09084 2.3653 6.80179 2.3653 9.26027V14.7397C2.3653 17.1982 2.89121 18.9092 3.99102 20.009C5.09084 21.1088 6.80179 21.6347 9.26027 21.6347H14.7397C17.1982 21.6347 18.9092 21.1088 20.009 20.009C21.1088 18.9092 21.6347 17.1982 21.6347 14.7397V10.1735C21.6347 9.89996 21.406 9.67123 21.1324 9.67123C20.8589 9.67123 20.6301 9.89996 20.6301 10.1735V14.7397C20.6301 16.8576 20.2553 18.3477 19.3015 19.3015C18.3477 20.2553 16.8576 20.6301 14.7397 20.6301H9.26027C7.14236 20.6301 5.65226 20.2553 4.69847 19.3015C3.74468 18.3477 3.36986 16.8576 3.36986 14.7397V9.26027C3.36986 7.14236 3.74468 5.65226 4.69847 4.69847C5.65226 3.74468 7.14236 3.36986 9.26027 3.36986H12.9132C13.1868 3.36986 13.4155 3.14114 13.4155 2.86758C13.4155 2.59402 13.1868 2.3653 12.9132 2.3653H9.26027C6.80179 2.3653 5.09084 2.89121 3.99102 3.99102ZM3.73272 3.73272C4.93199 2.53345 6.75986 2 9.26027 2H12.9132C13.3885 2 13.7808 2.39228 13.7808 2.86758C13.7808 3.34288 13.3885 3.73516 12.9132 3.73516H9.26027C7.16814 3.73516 5.80436 4.1092 4.95678 4.95678C4.1092 5.80436 3.73516 7.16814 3.73516 9.26027V14.7397C3.73516 16.8319 4.1092 18.1956 4.95678 19.0432C5.80436 19.8908 7.16814 20.2648 9.26027 20.2648H14.7397C16.8319 20.2648 18.1956 19.8908 19.0432 19.0432C19.8908 18.1956 20.2648 16.8319 20.2648 14.7397V10.1735C20.2648 9.69821 20.6571 9.30594 21.1324 9.30594C21.6077 9.30594 22 9.69821 22 10.1735V14.7397C22 17.2401 21.4665 19.068 20.2673 20.2673C19.068 21.4665 17.2401 22 14.7397 22H9.26027C6.75986 22 4.93199 21.4665 3.73272 20.2673C2.53345 19.068 2 17.2401 2 14.7397V9.26027C2 6.75986 2.53345 4.93199 3.73272 3.73272Z" fill="#9BA6B2"/>
<path d="M16.1644 8.06393C15.9909 8.06393 15.8174 8 15.6804 7.86301C15.4155 7.59817 15.4155 7.15982 15.6804 6.89498L19.2329 3.34247C19.4977 3.07763 19.9361 3.07763 20.2009 3.34247C20.4658 3.60731 20.4658 4.04566 20.2009 4.3105L16.6484 7.86301C16.5114 8 16.3379 8.06393 16.1644 8.06393Z" fill="#9BA6B2"/>
<path fill-rule="evenodd" clip-rule="evenodd" d="M20.0718 3.47162C19.8782 3.27811 19.5555 3.27811 19.362 3.47162L15.8095 7.02413C15.616 7.21764 15.616 7.54035 15.8095 7.73386C15.9104 7.83479 16.0367 7.88128 16.1644 7.88128C16.2921 7.88128 16.4183 7.83479 16.5192 7.73386L20.0718 4.18135C20.2653 3.98784 20.2653 3.66513 20.0718 3.47162ZM19.1037 3.21331C19.4399 2.87714 19.9939 2.87714 20.3301 3.21331C20.6662 3.54948 20.6662 4.10349 20.3301 4.43965L16.7776 7.99217C16.6045 8.16521 16.3837 8.24657 16.1644 8.24657C15.945 8.24657 15.7243 8.16521 15.5512 7.99217C15.215 7.656 15.215 7.10199 15.5512 6.76582L19.1037 3.21331Z" fill="#9BA6B2"/>
<path d="M19.7078 8.06393C19.5342 8.06393 19.3607 8 19.2237 7.86301L15.6712 4.3105C15.4064 4.04566 15.4064 3.60731 15.6712 3.34247C15.9361 3.07763 16.3744 3.07763 16.6393 3.34247L20.1918 6.89498C20.4566 7.15982 20.4566 7.59817 20.1918 7.86301C20.0639 8 19.8904 8.06393 19.7078 8.06393Z" fill="#9BA6B2"/>
<path fill-rule="evenodd" clip-rule="evenodd" d="M16.5101 3.47162C16.3166 3.27811 15.9939 3.27811 15.8004 3.47162C15.6069 3.66513 15.6069 3.98784 15.8004 4.18135L19.3529 7.73386C19.4538 7.83479 19.5801 7.88128 19.7078 7.88128C19.8472 7.88128 19.9697 7.83328 20.0583 7.73839L20.0625 7.73378C20.2561 7.54027 20.2561 7.21764 20.0626 7.02413L16.5101 3.47162ZM15.5421 3.21331C15.8782 2.87714 16.4323 2.87714 16.7684 3.21331L20.3209 6.76582C20.6564 7.10125 20.6571 7.65356 20.3231 7.98994C20.1562 8.1674 19.9327 8.24657 19.7078 8.24657C19.4884 8.24657 19.2676 8.16521 19.0946 7.99217L15.5421 4.43965C15.2059 4.10349 15.2059 3.54948 15.5421 3.21331Z" fill="#9BA6B2"/>
<path d="M3.47945 19.032C3.26027 19.032 3.0411 18.9224 2.91324 18.7306C2.7032 18.4201 2.78539 17.9909 3.09589 17.7808L7.59817 14.758C8.58447 14.1005 9.9452 14.1735 10.8402 14.9315L11.1416 15.1963C11.5982 15.589 12.3744 15.589 12.8219 15.1963L16.621 11.9361C17.589 11.105 19.1142 11.105 20.0913 11.9361L21.5799 13.2146C21.863 13.4612 21.8995 13.8904 21.653 14.1826C21.4064 14.4658 20.9772 14.5023 20.6849 14.2557L19.1963 12.9772C18.7397 12.5845 17.9635 12.5845 17.516 12.9772L13.7169 16.2374C12.7489 17.0685 11.2237 17.0685 10.2466 16.2374L9.9452 15.9726C9.52511 15.6164 8.83105 15.5799 8.3653 15.8995L3.87215 18.9224C3.74429 18.9954 3.60731 19.032 3.47945 19.032Z" fill="#9BA6B2"/>
<path fill-rule="evenodd" clip-rule="evenodd" d="M19.9727 12.075C19.0634 11.3019 17.6392 11.3027 16.74 12.0747L12.9424 15.3336C12.9421 15.3339 12.9419 15.3341 12.9416 15.3343C12.6792 15.5642 12.3284 15.6735 11.9852 15.6735C11.6415 15.6735 11.2889 15.564 11.0225 15.3348L11.021 15.3336L10.7209 15.0698C9.88899 14.3663 8.61879 14.2973 7.69975 14.9098C7.69966 14.9098 7.69984 14.9097 7.69975 14.9098L3.19823 17.9321C3.19814 17.9322 3.19832 17.932 3.19823 17.9321C2.97177 18.0855 2.91089 18.4011 3.06453 18.6283L3.06522 18.6293C3.15778 18.7681 3.31875 18.8493 3.47945 18.8493C3.57148 18.8493 3.67536 18.8233 3.77605 18.7669L8.26195 15.7489C8.26219 15.7488 8.26171 15.7491 8.26195 15.7489C8.79491 15.3837 9.57998 15.4235 10.0633 15.8333L10.0658 15.8354L10.366 16.0993C11.2753 16.8716 12.699 16.8706 13.5979 16.0989L17.3955 12.8399C17.3958 12.8397 17.396 12.8394 17.3963 12.8392C17.6587 12.6093 18.0095 12.5 18.3527 12.5C18.6963 12.5 19.0489 12.6095 19.3154 12.8386C19.3154 12.8386 19.3153 12.8386 19.3154 12.8386L20.8027 14.1161C20.8029 14.1163 20.8025 14.116 20.8027 14.1161C21.0179 14.2972 21.3329 14.2709 21.5143 14.0638C21.695 13.8484 21.6679 13.534 21.4605 13.3528C21.4603 13.3526 21.4606 13.3529 21.4605 13.3528L19.9727 12.075C19.9726 12.0749 19.9728 12.075 19.9727 12.075ZM16.5021 11.7975C17.5388 10.9074 19.1646 10.9082 20.2097 11.7969L21.6999 13.0769C22.0578 13.3886 22.1038 13.9315 21.7926 14.3004L21.7907 14.3026C21.479 14.6605 20.936 14.7066 20.5671 14.3953L20.5659 14.3943L19.0773 13.1157C18.8872 12.9522 18.6233 12.8653 18.3527 12.8653C18.0821 12.8653 17.8214 12.9522 17.6365 13.1145L17.6349 13.1158L13.8359 16.376C13.8359 16.376 13.8359 16.376 13.8359 16.376C12.7991 17.2661 11.1733 17.2654 10.1282 16.3766L10.126 16.3747L9.82589 16.1109C9.46912 15.8095 8.86673 15.7769 8.46865 16.0501L8.46726 16.0511L3.96856 19.0776L3.96276 19.081C3.80945 19.1686 3.64147 19.2146 3.47945 19.2146C3.2018 19.2146 2.92441 19.0766 2.76127 18.8319L2.91324 18.7306L2.76196 18.8329C2.49556 18.4391 2.59924 17.8963 2.99355 17.6295L7.49636 14.6063C8.54944 13.9043 10.0002 13.9808 10.9582 14.7921L10.9608 14.7943L11.2606 15.0579C11.2609 15.0581 11.2611 15.0583 11.2613 15.0585C11.4514 15.2216 11.715 15.3082 11.9852 15.3082C12.2558 15.3082 12.5165 15.2214 12.7014 15.0591L12.703 15.0577L16.5021 11.7975C16.5021 11.7975 16.502 11.7975 16.5021 11.7975Z" fill="#9BA6B2"/>
</svg>
