<svg width="24" height="24" viewBox="0 0 24 24" fill="none" xmlns="http://www.w3.org/2000/svg">
<circle cx="12" cy="12" r="10" fill="#EBF0F5"/>
<path d="M12 17.0006C12.2833 17.0006 12.521 16.9046 12.713 16.7126C12.9043 16.5213 13 16.2839 13 16.0006V11.9756C13 11.6923 12.9043 11.4589 12.713 11.2756C12.521 11.0923 12.2833 11.0006 12 11.0006C11.7167 11.0006 11.4793 11.0963 11.288 11.2876C11.096 11.4796 11 11.7173 11 12.0006V16.0256C11 16.3089 11.096 16.5423 11.288 16.7256C11.4793 16.9089 11.7167 17.0006 12 17.0006V17.0006ZM12 9.00061C12.2833 9.00061 12.521 8.90461 12.713 8.71261C12.9043 8.52128 13 8.28394 13 8.00061C13 7.71728 12.9043 7.47961 12.713 7.28761C12.521 7.09628 12.2833 7.00061 12 7.00061C11.7167 7.00061 11.4793 7.09628 11.288 7.28761C11.096 7.47961 11 7.71728 11 8.00061C11 8.28394 11.096 8.52128 11.288 8.71261C11.4793 8.90461 11.7167 9.00061 12 9.00061ZM12 22.0006C10.6167 22.0006 9.31667 21.7379 8.1 21.2126C6.88333 20.6879 5.825 19.9756 4.925 19.0756C4.025 18.1756 3.31267 17.1173 2.788 15.9006C2.26267 14.6839 2 13.3839 2 12.0006C2 10.6173 2.26267 9.31728 2.788 8.10061C3.31267 6.88394 4.025 5.82561 4.925 4.92561C5.825 4.02561 6.88333 3.31294 8.1 2.78761C9.31667 2.26294 10.6167 2.00061 12 2.00061C13.3833 2.00061 14.6833 2.26294 15.9 2.78761C17.1167 3.31294 18.175 4.02561 19.075 4.92561C19.975 5.82561 20.6873 6.88394 21.212 8.10061C21.7373 9.31728 22 10.6173 22 12.0006C22 13.3839 21.7373 14.6839 21.212 15.9006C20.6873 17.1173 19.975 18.1756 19.075 19.0756C18.175 19.9756 17.1167 20.6879 15.9 21.2126C14.6833 21.7379 13.3833 22.0006 12 22.0006ZM12 20.0006C14.2167 20.0006 16.1043 19.2216 17.663 17.6636C19.221 16.1049 20 14.2173 20 12.0006C20 9.78394 19.221 7.89628 17.663 6.33761C16.1043 4.77961 14.2167 4.00061 12 4.00061C9.78333 4.00061 7.896 4.77961 6.338 6.33761C4.77933 7.89628 4 9.78394 4 12.0006C4 14.2173 4.77933 16.1049 6.338 17.6636C7.896 19.2216 9.78333 20.0006 12 20.0006Z" fill="#9BA6B2"/>
</svg>
