<svg width="24" height="24" viewBox="0 0 24 24" fill="none" xmlns="http://www.w3.org/2000/svg">
<path d="M12 9.00061C11.2044 9.00061 10.4413 9.31668 9.87868 9.87929C9.31607 10.4419 9 11.205 9 12.0006C9 12.7963 9.31607 13.5593 9.87868 14.1219C10.4413 14.6845 11.2044 15.0006 12 15.0006C12.7956 15.0006 13.5587 14.6845 14.1213 14.1219C14.6839 13.5593 15 12.7963 15 12.0006C15 11.205 14.6839 10.4419 14.1213 9.87929C13.5587 9.31668 12.7956 9.00061 12 9.00061ZM12 7.00061C13.3261 7.00061 14.5979 7.52739 15.5355 8.46508C16.4732 9.40276 17 10.6745 17 12.0006C17 13.3267 16.4732 14.5985 15.5355 15.5361C14.5979 16.4738 13.3261 17.0006 12 17.0006C10.6739 17.0006 9.40215 16.4738 8.46447 15.5361C7.52678 14.5985 7 13.3267 7 12.0006C7 10.6745 7.52678 9.40276 8.46447 8.46508C9.40215 7.52739 10.6739 7.00061 12 7.00061V7.00061ZM18.5 6.75061C18.5 7.08213 18.3683 7.40007 18.1339 7.63449C17.8995 7.86891 17.5815 8.00061 17.25 8.00061C16.9185 8.00061 16.6005 7.86891 16.3661 7.63449C16.1317 7.40007 16 7.08213 16 6.75061C16 6.41909 16.1317 6.10115 16.3661 5.86673C16.6005 5.63231 16.9185 5.50061 17.25 5.50061C17.5815 5.50061 17.8995 5.63231 18.1339 5.86673C18.3683 6.10115 18.5 6.41909 18.5 6.75061V6.75061ZM12 4.00061C9.526 4.00061 9.122 4.00761 7.971 4.05861C7.187 4.09561 6.661 4.20061 6.173 4.39061C5.739 4.55861 5.426 4.75961 5.093 5.09361C4.78001 5.39601 4.53935 5.76519 4.389 6.17361C4.199 6.66361 4.094 7.18861 4.058 7.97161C4.006 9.07561 4 9.46161 4 12.0006C4 14.4746 4.007 14.8786 4.058 16.0296C4.095 16.8126 4.2 17.3396 4.389 17.8266C4.559 18.2616 4.759 18.5746 5.091 18.9066C5.428 19.2426 5.741 19.4436 6.171 19.6096C6.665 19.8006 7.191 19.9066 7.971 19.9426C9.075 19.9946 9.461 20.0006 12 20.0006C14.474 20.0006 14.878 19.9936 16.029 19.9426C16.811 19.9056 17.338 19.8006 17.826 19.6116C18.259 19.4426 18.574 19.2416 18.906 18.9096C19.243 18.5726 19.444 18.2596 19.61 17.8296C19.8 17.3366 19.906 16.8096 19.942 16.0296C19.994 14.9256 20 14.5396 20 12.0006C20 9.52661 19.993 9.12261 19.942 7.97161C19.905 7.18961 19.8 6.66161 19.61 6.17361C19.4593 5.76561 19.2191 5.39657 18.907 5.09361C18.6047 4.78046 18.2355 4.53978 17.827 4.38961C17.337 4.19961 16.811 4.09461 16.029 4.05861C14.925 4.00661 14.539 4.00061 12 4.00061ZM12 2.00061C14.717 2.00061 15.056 2.01061 16.122 2.06061C17.187 2.11061 17.912 2.27761 18.55 2.52561C19.21 2.77961 19.766 3.12361 20.322 3.67861C20.8305 4.17851 21.224 4.7832 21.475 5.45061C21.722 6.08761 21.89 6.81361 21.94 7.87861C21.987 8.94461 22 9.28361 22 12.0006C22 14.7176 21.99 15.0566 21.94 16.1226C21.89 17.1876 21.722 17.9126 21.475 18.5506C21.2247 19.2184 20.8311 19.8232 20.322 20.3226C19.822 20.8309 19.2173 21.2244 18.55 21.4756C17.913 21.7226 17.187 21.8906 16.122 21.9406C15.056 21.9876 14.717 22.0006 12 22.0006C9.283 22.0006 8.944 21.9906 7.878 21.9406C6.813 21.8906 6.088 21.7226 5.45 21.4756C4.78233 21.2251 4.17753 20.8316 3.678 20.3226C3.16941 19.8228 2.77593 19.2181 2.525 18.5506C2.277 17.9136 2.11 17.1876 2.06 16.1226C2.013 15.0566 2 14.7176 2 12.0006C2 9.28361 2.01 8.94461 2.06 7.87861C2.11 6.81261 2.277 6.08861 2.525 5.45061C2.77524 4.78279 3.1688 4.17793 3.678 3.67861C4.17767 3.16984 4.78243 2.77634 5.45 2.52561C6.088 2.27761 6.812 2.11061 7.878 2.06061C8.944 2.01361 9.283 2.00061 12 2.00061Z" fill="#9BA6B2"/>
</svg>
