<svg width="24" height="24" viewBox="0 0 24 24" fill="none" xmlns="http://www.w3.org/2000/svg">
<path d="M20.0003 8.50058L15.4 5.05105C15.2352 4.92747 15 5.04506 15 5.25106V7.25113L8.25 7.25113C7.55964 7.25113 7 7.81077 7 8.50113C7 9.19148 7.55964 9.75113 8.25 9.75113L15 9.75113L15 11.7511C15 11.9571 15.2352 12.0747 15.4 11.9511L20.0003 8.50058Z" fill="#1A2B3D"/>
<path d="M4.00018 15.5019L8.60051 18.9514C8.76532 19.075 9.00049 18.9574 9.00049 18.7514V16.7513L15.7505 16.7513C16.4408 16.7513 17.0005 16.1917 17.0005 15.5013C17.0005 14.811 16.4408 14.2513 15.7505 14.2513L9.00049 14.2513L9.00049 12.2513C9.00049 12.0453 8.76529 11.9277 8.60048 12.0513L4.00018 15.5019Z" fill="#9BA6B2"/>
</svg>
