<svg width="24" height="24" viewBox="0 0 24 24" fill="none" xmlns="http://www.w3.org/2000/svg">
<path d="M8.50052 4.00092L11.95 8.60124C12.0736 8.76605 11.956 9.00122 11.75 9.00122H9.74997L9.74997 15.7512C9.74997 16.4416 9.19033 17.0012 8.49997 17.0012C7.80962 17.0012 7.24997 16.4416 7.24997 15.7512L7.24997 9.00122H5.25C5.04398 9.00122 4.92639 8.76602 5.05 8.60121L8.50052 4.00092Z" fill="#9BA6B2"/>
<path d="M15.4995 20.0013L12.05 15.401C11.9264 15.2361 12.044 15.001 12.25 15.001H14.25L14.25 8.25098C14.25 7.56062 14.8097 7.00098 15.5 7.00098C16.1904 7.00098 16.75 7.56062 16.75 8.25098L16.75 15.001L18.75 15.001C18.956 15.001 19.0736 15.2362 18.95 15.401L15.4995 20.0013Z" fill="#1A2B3D"/>
</svg>
