<svg width="24" height="24" viewBox="0 0 24 24" fill="none" xmlns="http://www.w3.org/2000/svg">
<path d="M17 17.0006H14V15.0006H17C18.6569 15.0006 20 13.6575 20 12.0006C20 10.3438 18.6569 9.00061 17 9.00061H14V7.00061H17C19.7614 7.00061 22 9.23919 22 12.0006C22 14.762 19.7614 17.0006 17 17.0006ZM10 17.0006H7C4.23858 17.0006 2 14.762 2 12.0006C2 9.23919 4.23858 7.00061 7 7.00061H10V9.00061H7C5.34315 9.00061 4 10.3438 4 12.0006C4 13.6575 5.34315 15.0006 7 15.0006H10V17.0006ZM17 13.0006H7V11.0006H17V13.0006Z" fill="#9BA6B2"/>
</svg>
