<svg width="24" height="24" viewBox="0 0 24 24" fill="none" xmlns="http://www.w3.org/2000/svg">
<path d="M8.46492 20.5357C6.44276 20.5357 4.6197 19.3175 3.84572 17.4494C3.07175 15.5812 3.49925 13.4307 4.92892 12.0006L7.05092 9.87863L8.46492 11.2926L6.34392 13.4136C5.58598 14.1716 5.28997 15.2763 5.5674 16.3117C5.84482 17.347 6.65354 18.1557 7.6889 18.4332C8.72426 18.7106 9.82898 18.4146 10.5869 17.6566L12.7079 15.5356L14.1219 16.9506L12.0009 19.0716C11.065 20.0122 9.79178 20.5393 8.46492 20.5357ZM9.17192 16.2426L7.75792 14.8286L14.8289 7.75763L16.2429 9.17163L9.17292 16.2416L9.17192 16.2426ZM16.9509 14.1216L15.5359 12.7076L17.6569 10.5866C18.4252 9.83096 18.7291 8.7213 18.4532 7.67961C18.1772 6.63793 17.3637 5.82428 16.3221 5.54808C15.2805 5.27187 14.1708 5.57555 13.4149 6.34363L11.2929 8.46463L9.87892 7.05063L12.0009 4.92863C13.956 2.9906 17.1099 2.9975 19.0565 4.94408C21.0031 6.89066 21.01 10.0445 19.0719 11.9996L16.9509 14.1206V14.1216Z" fill="#9BA6B2"/>
</svg>
