<svg width="24" height="24" viewBox="0 0 24 24" fill="none" xmlns="http://www.w3.org/2000/svg">
<path d="M7.20769 5.93491C7.20746 6.39459 7.02463 6.83536 6.69942 7.16024C6.37421 7.48512 5.93326 7.66751 5.47358 7.66728C5.0139 7.66705 4.57313 7.48422 4.24825 7.15901C3.92337 6.83381 3.74098 6.39286 3.74121 5.93318C3.74144 5.47349 3.92427 5.03273 4.24948 4.70785C4.57468 4.38296 5.01563 4.20058 5.47531 4.20081C5.935 4.20104 6.37576 4.38386 6.70064 4.70907C7.02553 5.03428 7.20792 5.47523 7.20769 5.93491V5.93491ZM7.25968 8.95074H3.79321V19.8008H7.25968V8.95074ZM12.7367 8.95074H9.28757V19.8008H12.702V14.1071C12.702 10.9353 16.8358 10.6406 16.8358 14.1071V19.8008H20.259V12.9285C20.259 7.58148 14.1406 7.78081 12.702 10.4067L12.7367 8.95074V8.95074Z" fill="#9BA6B2"/>
</svg>
