<svg width="24" height="24" viewBox="0 0 24 24" fill="none" xmlns="http://www.w3.org/2000/svg">
<g clip-path="url(#clip0_2517_1211)">
<path fill-rule="evenodd" clip-rule="evenodd" d="M2.5 9.40369C2.5 8.02297 3.61929 6.90369 5 6.90369H19C20.3807 6.90369 21.5 8.02297 21.5 9.40369V19.4879C21.5 20.8686 20.3807 21.9879 19 21.9879H5C3.61929 21.9879 2.5 20.8686 2.5 19.4879V9.40369ZM5 8.90369C4.72386 8.90369 4.5 9.12754 4.5 9.40369V19.4879C4.5 19.764 4.72386 19.9879 5 19.9879H19C19.2761 19.9879 19.5 19.764 19.5 19.4879V9.40369C19.5 9.12754 19.2761 8.90369 19 8.90369H5Z" fill="#9BA6B2"/>
<path fill-rule="evenodd" clip-rule="evenodd" d="M16.75 6.9108V6.01624C16.75 3.8071 14.9591 2.01624 12.75 2.01624H11.25C9.04086 2.01624 7.25 3.8071 7.25 6.01624V6.9108H16.75ZM11.25 0.0162354C7.93629 0.0162354 5.25 2.70253 5.25 6.01624V8.9108H18.75V6.01624C18.75 2.70253 16.0637 0.0162354 12.75 0.0162354H11.25Z" fill="#9BA6B2"/>
<path fill-rule="evenodd" clip-rule="evenodd" d="M12 12.0764C12.5523 12.0764 13 12.5241 13 13.0764V16.0764C13 16.6287 12.5523 17.0764 12 17.0764C11.4477 17.0764 11 16.6287 11 16.0764V13.0764C11 12.5241 11.4477 12.0764 12 12.0764Z" fill="#9BA6B2"/>
</g>
<defs>
<clipPath id="clip0_2517_1211">
<rect width="24" height="24" fill="white" transform="translate(0 0.000610352)"/>
</clipPath>
</defs>
</svg>
