<svg width="24" height="24" viewBox="0 0 24 24" fill="none" xmlns="http://www.w3.org/2000/svg">
<g clip-path="url(#clip0_2517_1190)">
<path d="M4.05842 12.2031C4.07206 15.8295 6.75781 18.8561 10.357 19.2787C11.8566 19.456 13.2745 19.1833 14.6106 18.4607C14.7605 18.3789 14.9241 18.2971 15.0877 18.2562C15.5922 18.1608 16.0557 18.4335 16.2329 18.897C16.4102 19.3742 16.2329 19.865 15.783 20.1376C15.0059 20.6012 14.1607 20.9284 13.2881 21.1192C8.36653 22.2372 3.52672 19.2787 2.2861 14.3708C1.03184 9.42189 4.18112 4.32304 9.1709 3.21875C11.4749 2.70069 13.6699 3.04152 15.7285 4.17308C16.1239 4.39121 16.3284 4.71841 16.3011 5.16831C16.2738 5.60457 16.0284 5.9045 15.6058 6.05447C15.2786 6.1908 14.9787 6.12264 14.6787 5.95904C13.5199 5.30464 12.2793 5.01834 10.9432 5.04561C7.8621 5.14104 5.10818 7.2951 4.31745 10.2671C4.15385 10.8943 4.09932 11.5487 3.99026 12.1894C4.00389 12.2031 4.03116 12.2031 4.05842 12.2031Z" fill="#9BA6B2"/>
<path d="M18.9187 13.2119C18.7688 13.2119 18.6733 13.2119 18.5915 13.2119C16.1512 13.2119 13.7108 13.2119 11.2705 13.2119C10.5888 13.2119 10.1389 12.7484 10.1798 12.1076C10.2071 11.6168 10.6025 11.2215 11.0933 11.1806C11.2023 11.1669 11.2977 11.1806 11.4068 11.1806C13.8063 11.1806 16.2057 11.1806 18.6052 11.1806C18.687 11.1806 18.7824 11.1806 18.9187 11.1806C18.8506 11.0988 18.8097 11.0442 18.7688 11.0033C18.4007 10.6353 18.0326 10.2672 17.6645 9.89905C17.2146 9.44916 17.201 8.82203 17.6236 8.41303C18.0326 8.00403 18.6597 8.0313 19.096 8.45393C19.8049 9.16286 20.5138 9.87179 21.2228 10.5807C21.5227 10.8806 21.7954 11.2078 21.9044 11.6305C22.0817 12.2849 21.9726 12.8711 21.5636 13.4164C21.4545 13.5664 21.3318 13.7027 21.1955 13.8254C20.5002 14.5207 19.8049 15.2297 19.096 15.925C18.6461 16.3749 18.0189 16.3885 17.6099 15.9795C17.1873 15.5569 17.201 14.9434 17.6508 14.4935C18.0053 14.139 18.3598 13.7845 18.7142 13.4301C18.7824 13.3619 18.8369 13.3074 18.9187 13.2119Z" fill="#9BA6B2"/>
</g>
<defs>
<clipPath id="clip0_2517_1190">
<rect width="20" height="18.3776" fill="white" transform="translate(2 3.00061)"/>
</clipPath>
</defs>
</svg>
