<svg width="24" height="24" viewBox="0 0 24 24" fill="none" xmlns="http://www.w3.org/2000/svg">
<path d="M16.7617 11.6481C17.159 11.653 17.5533 11.5778 17.9213 11.427C18.2893 11.2761 18.6236 11.0526 18.9043 10.7696L21.7115 7.94446C21.8963 7.75742 22 7.50441 22 7.24067C22 6.97694 21.8963 6.72393 21.7115 6.53689C21.6193 6.44332 21.5096 6.36905 21.3887 6.31837C21.2679 6.26769 21.1382 6.2416 21.0073 6.2416C20.8763 6.2416 20.7467 6.26769 20.6258 6.31837C20.5049 6.36905 20.3952 6.44332 20.303 6.53689L17.466 9.35204C17.3738 9.4456 17.2641 9.51987 17.1432 9.57055C17.0223 9.62123 16.8927 9.64733 16.7617 9.64733C16.6308 9.64733 16.5011 9.62123 16.3802 9.57055C16.2594 9.51987 16.1496 9.4456 16.0574 9.35204V9.35204L19.5689 5.82811C19.6614 5.73503 19.7348 5.62453 19.7848 5.50292C19.8349 5.38131 19.8607 5.25096 19.8607 5.11933C19.8607 4.9877 19.8349 4.85735 19.7848 4.73574C19.7348 4.61413 19.6614 4.50363 19.5689 4.41055C19.4764 4.31747 19.3666 4.24364 19.2458 4.19326C19.125 4.14289 18.9954 4.11696 18.8646 4.11696C18.7338 4.11696 18.6043 4.14289 18.4835 4.19326C18.3627 4.24364 18.2529 4.31747 18.1604 4.41055L14.6588 7.94446C14.474 7.75742 14.3703 7.50441 14.3703 7.24067C14.3703 6.97694 14.474 6.72393 14.6588 6.53689L17.466 3.71175C17.5585 3.61868 17.6319 3.50818 17.6819 3.38656C17.732 3.26495 17.7577 3.13461 17.7577 3.00298C17.7577 2.87134 17.732 2.741 17.6819 2.61939C17.6319 2.49777 17.5585 2.38727 17.466 2.2942C17.3735 2.20112 17.2637 2.12728 17.1429 2.07691C17.022 2.02654 16.8925 2.00061 16.7617 2.00061C16.6309 2.00061 16.5014 2.02654 16.3806 2.07691C16.2597 2.12728 16.1499 2.20112 16.0574 2.2942L13.2502 5.11933C12.6929 5.68086 12.3799 6.44205 12.3799 7.23568C12.3799 8.02932 12.6929 8.7905 13.2502 9.35204V9.35204L11.9607 10.6398L3.75723 2.35409L3.65804 2.2942C3.60733 2.24967 3.55054 2.21269 3.48941 2.18439L3.31085 2.11451L3.19182 2.03464H3.12238H2.92399C2.86485 2.02513 2.80458 2.02513 2.74544 2.03464C2.68539 2.05664 2.62865 2.08687 2.57681 2.12449L2.4181 2.22432H2.34866L2.28915 2.32414C2.24716 2.37685 2.2106 2.43371 2.18003 2.49385C2.15098 2.55473 2.12773 2.61823 2.11059 2.68353C2.11059 2.68353 2.11059 2.75341 2.11059 2.79334C1.86988 4.48184 2.02335 6.20356 2.55883 7.82199C3.09432 9.44042 3.99708 10.911 5.19556 12.1173L7.81431 14.7427L2.44786 20.1335C2.35488 20.2263 2.28109 20.3367 2.23073 20.4583C2.18037 20.58 2.15444 20.7105 2.15444 20.8422C2.15444 20.974 2.18037 21.1045 2.23073 21.2262C2.28109 21.3478 2.35488 21.4582 2.44786 21.551C2.54055 21.6435 2.65047 21.7167 2.77133 21.7664C2.89218 21.8161 3.0216 21.8413 3.15214 21.8405C3.28269 21.8413 3.4121 21.8161 3.53296 21.7664C3.65382 21.7167 3.76374 21.6435 3.85643 21.551L9.87757 15.5813L12.6848 12.7562L14.6687 10.7596C15.2222 11.3226 15.9748 11.6421 16.7617 11.6481V11.6481ZM9.17329 13.465L6.56445 10.8295C5.13451 9.37074 4.23917 7.46655 4.02506 5.4288L10.5819 12.0174L9.17329 13.465ZM15.3631 14.034C15.1763 13.8447 14.9224 13.7378 14.6573 13.7369C14.3922 13.7359 14.1376 13.841 13.9495 14.029C13.7614 14.217 13.6552 14.4724 13.6543 14.7392C13.6534 15.006 13.7578 15.2622 13.9446 15.4515L20.1939 21.7407C20.3833 21.9142 20.6322 22.0072 20.8882 22.0002C21.0188 22.001 21.1482 21.9758 21.269 21.9261C21.3899 21.8765 21.4998 21.8033 21.5925 21.7107C21.6855 21.6179 21.7593 21.5075 21.8096 21.3859C21.86 21.2642 21.8859 21.1338 21.8859 21.002C21.8859 20.8702 21.86 20.7397 21.8096 20.6181C21.7593 20.4964 21.6855 20.386 21.5925 20.2932L15.3631 14.034Z" fill="#9BA6B2"/>
</svg>
