<svg width="24" height="24" viewBox="0 0 24 24" fill="none" xmlns="http://www.w3.org/2000/svg">
<path d="M3 7.00061C3 6.47018 3.21071 5.96147 3.58579 5.5864C3.96086 5.21132 4.46957 5.00061 5 5.00061H19C19.5304 5.00061 20.0391 5.21132 20.4142 5.5864C20.7893 5.96147 21 6.47018 21 7.00061V17.0006C21 17.531 20.7893 18.0398 20.4142 18.4148C20.0391 18.7899 19.5304 19.0006 19 19.0006H5C4.46957 19.0006 3.96086 18.7899 3.58579 18.4148C3.21071 18.0398 3 17.531 3 17.0006V7.00061Z" stroke="#9BA6B2" stroke-width="1.9" stroke-linecap="round" stroke-linejoin="round"/>
<path d="M3 7L12 13L21 7" stroke="#9BA6B2" stroke-width="1.9" stroke-linecap="round" stroke-linejoin="round"/>
</svg>
