<svg width="24" height="24" viewBox="0 0 24 24" fill="none" xmlns="http://www.w3.org/2000/svg">
<path d="M7.764 19.2256C8.354 18.9656 9.014 18.9166 9.632 19.0866C10.402 19.2966 11.197 19.4026 12 19.4006C16.585 19.4006 20 16.1136 20 11.7006C20 7.28761 16.585 4.00061 12 4.00061C7.415 4.00061 4 7.28761 4 11.7006C4 13.9706 4.896 15.9726 6.466 17.3766C6.75126 17.6293 6.98194 17.9375 7.14391 18.2824C7.30589 18.6274 7.39575 19.0017 7.408 19.3826L7.764 19.2256V19.2256ZM12 2.00061C17.634 2.00061 22 6.12761 22 11.7006C22 17.2736 17.634 21.4006 12 21.4006C11.0221 21.4031 10.0484 21.274 9.105 21.0166C8.9278 20.9679 8.73924 20.9817 8.571 21.0556L6.587 21.9316C6.46713 21.9846 6.33608 22.0073 6.20537 21.9978C6.07467 21.9882 5.94831 21.9467 5.8374 21.8769C5.72649 21.8071 5.63444 21.7111 5.56933 21.5973C5.50422 21.4836 5.46805 21.3556 5.464 21.2246L5.409 19.4446C5.4054 19.3364 5.37977 19.23 5.3337 19.132C5.28762 19.034 5.22205 18.9464 5.141 18.8746C3.195 17.1356 2 14.6176 2 11.7006C2 6.12761 6.367 2.00061 12 2.00061ZM5.995 14.5376L8.932 9.87761C9.0425 9.70216 9.18818 9.55153 9.35984 9.43523C9.53149 9.31892 9.7254 9.23947 9.92931 9.20188C10.1332 9.16429 10.3427 9.16939 10.5445 9.21685C10.7464 9.26431 10.9362 9.3531 11.102 9.47761L13.438 11.2276C13.5421 11.3062 13.669 11.3487 13.7995 11.3487C13.93 11.3487 14.0569 11.3062 14.161 11.2276L17.316 8.83161C17.737 8.51261 18.287 9.01661 18.005 9.46461L15.068 14.1246C14.9575 14.3001 14.8118 14.4507 14.6402 14.567C14.4685 14.6833 14.2746 14.7628 14.0707 14.8003C13.8668 14.8379 13.6573 14.8328 13.4555 14.7854C13.2536 14.7379 13.0638 14.6491 12.898 14.5246L10.562 12.7746C10.4579 12.696 10.331 12.6535 10.2005 12.6535C10.07 12.6535 9.94313 12.696 9.839 12.7746L6.684 15.1696C6.263 15.4886 5.713 14.9846 5.995 14.5366V14.5376Z" fill="#9BA6B2"/>
</svg>
