<svg width="24" height="24" viewBox="0 0 24 24" fill="none" xmlns="http://www.w3.org/2000/svg">
<path d="M13.9583 6.00061H10.625C10.2833 6.00061 10 5.71728 10 5.37561C10 5.03394 10.2833 4.75061 10.625 4.75061H13.9583C14.3 4.75061 14.5833 5.03394 14.5833 5.37561C14.5833 5.71728 14.3 6.00061 13.9583 6.00061Z" fill="#9BA6B2"/>
<path d="M12.2917 19.3422C11.2333 19.3422 10.375 18.4839 10.375 17.4256C10.375 16.3672 11.2333 15.5089 12.2917 15.5089C13.35 15.5089 14.2083 16.3672 14.2083 17.4256C14.2083 18.4839 13.35 19.3422 12.2917 19.3422ZM12.2917 16.7506C11.925 16.7506 11.625 17.0506 11.625 17.4172C11.625 17.7839 11.925 18.0839 12.2917 18.0839C12.6583 18.0839 12.9583 17.7839 12.9583 17.4172C12.9583 17.0506 12.6583 16.7506 12.2917 16.7506Z" fill="#9BA6B2"/>
<path d="M14.9302 22.0006H9.34884C5.24651 22.0006 4 20.7541 4 16.6518V7.34945C4 3.24712 5.24651 2.00061 9.34884 2.00061H14.9302C19.0326 2.00061 20.2791 3.24712 20.2791 7.34945V16.6518C20.2791 20.7541 19.0326 22.0006 14.9302 22.0006ZM9.34884 3.39596C6.0186 3.39596 5.39535 4.02852 5.39535 7.34945V16.6518C5.39535 19.9727 6.0186 20.6053 9.34884 20.6053H14.9302C18.2605 20.6053 18.8837 19.9727 18.8837 16.6518V7.34945C18.8837 4.02852 18.2605 3.39596 14.9302 3.39596H9.34884Z" fill="#9BA6B2"/>
</svg>
