<svg width="24" height="24" viewBox="0 0 24 24" fill="none" xmlns="http://www.w3.org/2000/svg">
<path fill-rule="evenodd" clip-rule="evenodd" d="M8.16146 1.00073H15.8385C16.3657 1.00072 16.8205 1.0007 17.195 1.0313C17.5904 1.0636 17.9836 1.13492 18.362 1.32771C18.9265 1.61533 19.3854 2.07428 19.673 2.63876C19.8658 3.01714 19.9371 3.41036 19.9694 3.80571C20 4.18028 20 4.63505 20 5.16221V18.8393C20 19.3664 20 19.8212 19.9694 20.1958C19.9371 20.5911 19.8658 20.9843 19.673 21.3627C19.3854 21.9272 18.9265 22.3861 18.362 22.6738C17.9836 22.8665 17.5904 22.9379 17.195 22.9702C16.8205 23.0008 16.3657 23.0008 15.8386 23.0007H8.16144C7.6343 23.0008 7.17954 23.0008 6.80497 22.9702C6.40963 22.9379 6.01641 22.8665 5.63803 22.6738C5.07355 22.3861 4.6146 21.9272 4.32698 21.3627C4.13419 20.9843 4.06287 20.5911 4.03057 20.1958C3.99997 19.8212 3.99998 19.3664 4 18.8393V5.16219C3.99998 4.63504 3.99997 4.18028 4.03057 3.80571C4.06287 3.41036 4.13419 3.01714 4.32698 2.63876C4.6146 2.07428 5.07354 1.61533 5.63803 1.32771C6.01641 1.13492 6.40963 1.0636 6.80497 1.0313C7.17955 1.0007 7.63431 1.00072 8.16146 1.00073ZM6.96784 3.02466C6.69617 3.04686 6.59546 3.08453 6.54601 3.10973C6.35785 3.2056 6.20487 3.35858 6.109 3.54674C6.0838 3.59619 6.04612 3.69691 6.02393 3.96857C6.00078 4.25191 6 4.62418 6 5.20073V18.8007C6 19.3773 6.00078 19.7496 6.02393 20.0329C6.04612 20.3046 6.0838 20.4053 6.109 20.4547C6.20487 20.6429 6.35785 20.7959 6.54601 20.8917C6.59546 20.9169 6.69617 20.9546 6.96784 20.9768C7.25117 21 7.62345 21.0007 8.2 21.0007H15.8C16.3766 21.0007 16.7488 21 17.0322 20.9768C17.3038 20.9546 17.4045 20.9169 17.454 20.8917C17.6422 20.7959 17.7951 20.6429 17.891 20.4547C17.9162 20.4053 17.9539 20.3046 17.9761 20.0329C17.9992 19.7496 18 19.3773 18 18.8007V5.20073C18 4.62418 17.9992 4.25191 17.9761 3.96857C17.9539 3.69691 17.9162 3.59619 17.891 3.54674C17.7951 3.35858 17.6422 3.2056 17.454 3.10973C17.4045 3.08453 17.3038 3.04686 17.0322 3.02466C16.7488 3.00151 16.3766 3.00073 15.8 3.00073H8.2C7.62345 3.00073 7.25117 3.00151 6.96784 3.02466ZM10.5 17.5007C10.5 16.6723 11.1716 16.0007 12 16.0007C12.8284 16.0007 13.5 16.6723 13.5 17.5007C13.5 18.3292 12.8284 19.0007 12 19.0007C11.1716 19.0007 10.5 18.3292 10.5 17.5007Z" fill="#9BA6B2"/>
</svg>
