<svg width="24" height="24" viewBox="0 0 24 24" fill="none" xmlns="http://www.w3.org/2000/svg">
<path d="M14.6234 7.00061H11.29C10.9484 7.00061 10.665 6.71728 10.665 6.37561C10.665 6.03394 10.9484 5.75061 11.29 5.75061H14.6234C14.965 5.75061 15.2484 6.03394 15.2484 6.37561C15.2484 6.71728 14.965 7.00061 14.6234 7.00061Z" fill="#9BA6B2"/>
<path d="M12.9567 18.3422C11.8984 18.3422 11.04 17.4839 11.04 16.4256C11.04 15.3672 11.8984 14.5089 12.9567 14.5089C14.015 14.5089 14.8734 15.3672 14.8734 16.4256C14.8734 17.4839 14.015 18.3422 12.9567 18.3422ZM12.9567 15.7506C12.59 15.7506 12.29 16.0506 12.29 16.4172C12.29 16.7839 12.59 17.0839 12.9567 17.0839C13.3234 17.0839 13.6234 16.7839 13.6234 16.4172C13.6234 16.0506 13.3234 15.7506 12.9567 15.7506Z" fill="#9BA6B2"/>
<path d="M14.9292 2.00061C17.7533 2.00067 19.2235 2.59167 19.8657 4.29846C19.7853 4.29591 19.7046 4.2926 19.6235 4.2926C19.1973 4.2926 18.7794 4.32877 18.3726 4.39709C17.8481 3.60253 16.8299 3.39615 14.9292 3.39612H9.34717C6.01718 3.39614 5.39407 4.02856 5.39404 7.34924V16.652C5.39407 19.9727 6.01718 20.6051 9.34717 20.6051H14.9292C17.108 20.6051 18.127 20.334 18.5718 19.2164C18.9156 19.2647 19.2664 19.2926 19.6235 19.2926C19.7496 19.2926 19.875 19.289 19.9995 19.2828C19.443 21.3135 17.9733 22.0005 14.9292 22.0006H9.34717C5.24507 22.0006 3.99858 20.7541 3.99854 16.652V7.34924C3.99858 3.24715 5.24507 2.00065 9.34717 2.00061H14.9292Z" fill="#9BA6B2"/>
<path d="M22.4824 10.9438V11.7688H20.0224V13.4788C20.0224 13.6188 20.0424 13.7238 20.0824 13.7938C20.1224 13.8588 20.2124 13.8913 20.3524 13.8913C20.4674 13.8913 20.5799 13.8738 20.6899 13.8388C20.7999 13.7988 20.8999 13.7488 20.9899 13.6888C21.0799 13.6238 21.1524 13.5488 21.2074 13.4638C21.2624 13.3788 21.2899 13.2913 21.2899 13.2013C21.2899 13.1563 21.2699 13.1138 21.2299 13.0738C21.1899 13.0338 21.1124 13.0138 20.9974 13.0138C20.9074 13.0138 20.8274 13.0213 20.7574 13.0363L20.6374 12.2713C20.7274 12.2463 20.8274 12.2288 20.9374 12.2188C21.0524 12.2088 21.1699 12.2038 21.2899 12.2038C21.5849 12.2038 21.8224 12.2713 22.0024 12.4063C22.1824 12.5413 22.2724 12.7513 22.2724 13.0363C22.2724 13.3063 22.2099 13.5463 22.0849 13.7563C21.9599 13.9663 21.7949 14.1413 21.5899 14.2813C21.3849 14.4213 21.1599 14.5288 20.9149 14.6038C20.6749 14.6738 20.4399 14.7088 20.2099 14.7088C19.9999 14.7088 19.8224 14.6838 19.6774 14.6338C19.5374 14.5838 19.4249 14.5188 19.3399 14.4388C19.2849 14.3838 19.2324 14.3213 19.1824 14.2513C19.1374 14.1813 19.0999 14.0838 19.0699 13.9588C19.0449 13.8338 19.0324 13.6663 19.0324 13.4563V11.7688H18.4024V10.9438H22.4824ZM18.9574 9.09131C19.1224 9.09131 19.2674 9.11131 19.3924 9.15131C19.5174 9.19131 19.6224 9.25381 19.7074 9.33881C19.8074 9.43381 19.8849 9.56631 19.9399 9.73631C19.9949 9.90631 20.0224 10.1463 20.0224 10.4563V10.9738H19.0324V10.4938C19.0324 10.3688 19.0224 10.2638 19.0024 10.1788C18.9824 10.0938 18.9424 10.0313 18.8824 9.99131C18.8224 9.94631 18.7324 9.92381 18.6124 9.92381C18.5474 9.92381 18.4774 9.93131 18.4024 9.94631C18.3324 9.96131 18.2599 9.98381 18.1849 10.0138L17.8999 9.29381C18.0949 9.22381 18.2699 9.17381 18.4249 9.14381C18.5799 9.10881 18.7574 9.09131 18.9574 9.09131Z" fill="#9BA6B2"/>
</svg>
