<svg width="24" height="24" viewBox="0 0 24 24" fill="none" xmlns="http://www.w3.org/2000/svg">
<path d="M6.94676 23C6.40277 23 5.94231 22.8167 5.56539 22.45C5.18846 22.0833 5 21.6354 5 21.1062V2.89379C5 2.3646 5.18846 1.91667 5.56539 1.55C5.94231 1.18333 6.40277 1 6.94676 1H17.0532C17.5972 1 18.0577 1.18333 18.4346 1.55C18.8115 1.91667 19 2.3646 19 2.89379V21.1062C19 21.6354 18.8115 22.0833 18.4346 22.45C18.0577 22.8167 17.5972 23 17.0532 23H6.94676ZM6.61536 18.044V21.1062C6.61536 21.1868 6.64988 21.2607 6.71891 21.3279C6.78796 21.395 6.86391 21.4286 6.94676 21.4286H17.0532C17.1361 21.4286 17.212 21.395 17.2811 21.3279C17.3501 21.2607 17.3846 21.1868 17.3846 21.1062V18.044H6.61536ZM12 20.663C12.2637 20.663 12.4884 20.5727 12.6741 20.392C12.8598 20.2114 12.9526 19.9928 12.9526 19.7363C12.9526 19.4797 12.8598 19.2612 12.6741 19.0805C12.4884 18.8999 12.2637 18.8095 12 18.8095C11.7363 18.8095 11.5116 18.8999 11.3259 19.0805C11.1402 19.2612 11.0473 19.4797 11.0473 19.7363C11.0473 19.9928 11.1402 20.2114 11.3259 20.392C11.5116 20.5727 11.7363 20.663 12 20.663ZM6.61536 16.4726H17.3846V5.45234H6.61536V16.4726ZM6.61536 3.88096H17.3846V2.89379C17.3846 2.81319 17.3501 2.73931 17.2811 2.67213C17.212 2.60498 17.1361 2.57141 17.0532 2.57141H6.94676C6.86391 2.57141 6.78796 2.60498 6.71891 2.67213C6.64988 2.73931 6.61536 2.81319 6.61536 2.89379V3.88096Z" fill="#9BA6B2"/>
</svg>
