<svg width="24" height="24" viewBox="0 0 24 24" fill="none" xmlns="http://www.w3.org/2000/svg">
<path fill-rule="evenodd" clip-rule="evenodd" d="M5.63604 2.29247C6.02656 2.68161 6.02656 3.31253 5.63604 3.70167C2.12132 7.20395 2.12132 12.8823 5.63604 16.3845C6.02656 16.7737 6.02656 17.4046 5.63604 17.7938C5.24551 18.1829 4.61235 18.1829 4.22183 17.7938C-0.0739417 13.5132 -0.0739417 6.57303 4.22183 2.29247C4.61235 1.90332 5.24551 1.90332 5.63604 2.29247ZM18.3644 2.29247C18.7549 1.90332 19.3881 1.90332 19.7786 2.29247C24.0744 6.57303 24.0744 13.5132 19.7786 17.7938C19.3881 18.1829 18.7549 18.1829 18.3644 17.7938C17.9739 17.4046 17.9739 16.7737 18.3644 16.3845C21.8791 12.8823 21.8791 7.20395 18.3644 3.70167C17.9739 3.31253 17.9739 2.68161 18.3644 2.29247ZM8.46469 5.11082C8.85521 5.49997 8.85521 6.13089 8.46469 6.52003C6.51207 8.46574 6.51207 11.6204 8.46469 13.5661C8.85521 13.9552 8.85521 14.5861 8.46469 14.9753C8.07416 15.3644 7.441 15.3644 7.05047 14.9753C4.3168 12.2513 4.3168 7.83482 7.05047 5.11082C7.441 4.72168 8.07416 4.72168 8.46469 5.11082ZM15.5358 5.11082C15.9263 4.72168 16.5595 4.72168 16.95 5.11082C19.6837 7.83482 19.6837 12.2513 16.95 14.9753C16.5595 15.3644 15.9263 15.3644 15.5358 14.9753C15.1453 14.5861 15.1453 13.9552 15.5358 13.5661C17.4884 11.6204 17.4884 8.46574 15.5358 6.52003C15.1453 6.13089 15.1453 5.49997 15.5358 5.11082ZM12.0002 9.04663C11.4479 9.04663 11.0002 9.49276 11.0002 10.0431C11.0002 10.5934 11.4479 11.0395 12.0002 11.0395C12.5525 11.0395 13.0002 10.5934 13.0002 10.0431C13.0002 9.49276 12.5525 9.04663 12.0002 9.04663ZM9.00022 10.0431C9.00022 8.3921 10.3434 7.05371 12.0002 7.05371C13.6571 7.05371 15.0002 8.3921 15.0002 10.0431C15.0002 11.3447 14.1654 12.452 13.0002 12.8624V21.0041C13.0002 21.5545 12.5525 22.0006 12.0002 22.0006C11.4479 22.0006 11.0002 21.5545 11.0002 21.0041V12.8624C9.83503 12.452 9.00022 11.3447 9.00022 10.0431Z" fill="#9BA6B2"/>
</svg>
