<svg width="24" height="24" viewBox="0 0 24 24" fill="none" xmlns="http://www.w3.org/2000/svg">
<path fill-rule="evenodd" clip-rule="evenodd" d="M9.8813 2.33134C10.6176 2.91924 10.5122 3.88794 10.2852 4.55455L10.2847 4.55603C9.96041 5.50325 9.82316 6.52314 9.91812 7.58246L9.91841 7.58572C10.2567 11.5165 13.7984 14.6117 17.8143 14.4466C18.4078 14.4226 18.9699 14.335 19.5103 14.1916C19.8946 14.0883 20.2878 14.0409 20.658 14.0959C21.0367 14.1522 21.4417 14.3271 21.7173 14.7056C21.9916 15.0823 22.0351 15.5197 21.9781 15.8941C21.9221 16.2618 21.7646 16.6224 21.5572 16.9586C19.7906 19.8505 16.62 21.8492 12.9128 21.9925C7.64939 22.1928 2.91402 18.352 2.12398 13.1766C1.41419 8.59102 3.81801 4.35177 7.64647 2.34963C8.26397 2.02555 9.17576 1.76803 9.8813 2.33134ZM8.54656 3.95716C8.53096 3.96486 8.51491 3.97304 8.49841 3.98171L8.49683 3.98253C5.32044 5.64367 3.35865 9.13909 3.94041 12.8951L3.94073 12.8972C4.58542 17.1235 8.48783 20.3174 12.8419 20.152C15.9194 20.033 18.5365 18.3768 19.9906 15.9952L19.9932 15.9911C19.9987 15.9821 20.0041 15.9733 20.0093 15.9646C20.0015 15.9666 19.9936 15.9687 19.9856 15.9709L19.9827 15.9716C19.314 16.1493 18.6193 16.2574 17.8897 16.2869C12.9156 16.4915 8.51295 12.6802 8.08733 7.74563C7.96875 6.42023 8.14115 5.1417 8.54587 3.95919L8.54656 3.95716Z" fill="#9BA6B2"/>
</svg>
