<svg width="24" height="24" viewBox="0 0 24 24" fill="none" xmlns="http://www.w3.org/2000/svg">
<circle cx="12" cy="12.0006" r="9" fill="#FCECEB"/>
<path fill-rule="evenodd" clip-rule="evenodd" d="M12 4.00061C7.58172 4.00061 4 7.58233 4 12.0006C4 16.4189 7.58172 20.0006 12 20.0006C16.4183 20.0006 20 16.4189 20 12.0006C20 11.4483 20.4477 11.0006 21 11.0006C21.5523 11.0006 22 11.4483 22 12.0006C22 17.5235 17.5228 22.0006 12 22.0006C6.47715 22.0006 2 17.5235 2 12.0006C2 6.47776 6.47715 2.00061 12 2.00061C12.5523 2.00061 13 2.44833 13 3.00061C13 3.5529 12.5523 4.00061 12 4.00061Z" fill="#EF5550"/>
<path d="M10.3167 9.96846L10.3167 9.44387C10.3167 9.18639 10.2995 8.98161 10.2682 8.82534C10.2426 8.69731 10.1913 8.62461 10.1277 8.57921L10.1194 8.57325L10.1115 8.56662C10.0608 8.52372 9.95283 8.47891 9.73898 8.47891C9.62286 8.47891 9.49977 8.49703 9.36893 8.53551C9.04835 8.6298 8.66805 8.51286 8.52054 8.15663L8.47211 8.03968C8.31376 7.65729 8.45844 7.18383 8.85876 6.99637C8.98705 6.93629 9.1309 6.87851 9.27199 6.84975C9.55942 6.78302 9.87128 6.75061 10.2063 6.75061C10.5029 6.75061 10.7721 6.78879 11.0094 6.87129C11.2492 6.95472 11.4567 7.0866 11.6274 7.26711C11.8306 7.47138 11.9762 7.7403 12.0734 8.0597C12.1831 8.39087 12.232 8.83951 12.232 9.39046L12.232 9.96846H15.0167C15.494 9.96846 15.8809 10.3554 15.8809 10.8326C15.8809 11.3099 15.494 11.6968 15.0167 11.6968H12.2319L12.2319 14.9045C12.2319 15.2268 12.2784 15.3925 12.3234 15.4601C12.3383 15.4823 12.4122 15.549 12.6895 15.549C12.8881 15.549 13.0892 15.5109 13.294 15.4322C13.5018 15.3523 13.688 15.245 13.854 15.1107C14.0191 14.9771 14.1503 14.8259 14.25 14.6571C14.3024 14.5684 14.3243 14.4971 14.3463 14.3849C14.3455 14.3358 14.3418 14.3152 14.3383 14.3037C14.3362 14.2968 14.332 14.2843 14.3069 14.2567C14.292 14.2402 14.2208 14.1916 13.9979 14.1916C13.9724 14.1916 13.9473 14.1921 13.9226 14.1929C13.5884 14.2042 13.2085 13.9916 13.1485 13.5947L13.1203 13.4084C13.0595 13.0058 13.3055 12.5663 13.7676 12.5185C13.965 12.4906 14.1664 12.4767 14.3717 12.4767C14.9171 12.4767 15.382 12.606 15.7408 12.8903C16.1308 13.192 16.304 13.6552 16.304 14.222V14.2331L16.303 14.2441C16.2835 14.4646 16.2554 14.6301 16.2001 14.7942C16.1459 14.9552 16.0687 15.1044 15.9662 15.2916C15.7448 15.6958 15.4468 16.0461 15.0747 16.3418C14.7063 16.6347 14.2997 16.8616 13.856 17.0221L13.8531 17.0231C13.4182 17.1744 12.9766 17.2506 12.5293 17.2506C12.1645 17.2506 11.8423 17.2087 11.569 17.1176L11.5583 17.114C11.3052 17.0167 11.0866 16.8912 10.9086 16.7341L10.8983 16.725L10.889 16.7148C10.7921 16.6083 10.7008 16.4928 10.6148 16.3685C10.5093 16.2161 10.4375 16.0212 10.3891 15.7987L10.3887 15.7966C10.3392 15.5594 10.3167 15.26 10.3167 14.9045L10.3167 11.6968H9.97921C9.50195 11.6968 9.11506 11.3099 9.11506 10.8326C9.11506 10.3554 9.50195 9.96846 9.97921 9.96846H10.3167Z" fill="#EF5550"/>
<path fill-rule="evenodd" clip-rule="evenodd" d="M21.2071 2.7935C21.5976 3.18403 21.5976 3.81719 21.2071 4.20772L19.9152 5.49967L21.209 6.7935C21.5995 7.18403 21.5995 7.81719 21.209 8.20772C20.8185 8.59824 20.1853 8.59824 19.7948 8.20772L18.5009 6.91389L17.2071 8.20772C16.8166 8.59824 16.1834 8.59824 15.7929 8.20772C15.4024 7.81719 15.4024 7.18403 15.7929 6.7935L17.0867 5.49967L15.7948 4.20772C15.4042 3.81719 15.4042 3.18403 15.7948 2.7935C16.1853 2.40298 16.8185 2.40298 17.209 2.7935L18.5009 4.08546L19.7929 2.7935C20.1834 2.40298 20.8166 2.40298 21.2071 2.7935Z" fill="#EF5550"/>
</svg>
