<svg width="24" height="24" viewBox="0 0 24 24" fill="none" xmlns="http://www.w3.org/2000/svg">
<path d="M11.3375 2.953C11.2207 3.15553 11.1153 3.36706 11.0224 3.58702C10.611 4.56097 10.4886 5.59522 10.6246 6.58579C9.80304 6.75148 9.05906 7.2153 8.54764 7.90538C7.95483 8.84306 7.66396 9.94003 7.71431 11.0482V17.2387H15.3334V11.4453C15.6467 11.4981 15.9653 11.5248 16.286 11.5244C16.6104 11.5244 16.9285 11.4974 17.2381 11.4455V16.2863L19.1429 17.2387V19.1435H3.90479V17.2387L5.80955 16.2863V11.0482C5.80955 7.7511 7.16288 5.613 9.61907 5.02919V2.953H11.3375Z" fill="#1882FF"/>
<path d="M9.61907 20.0959C9.61907 21.1478 10.4719 22.0006 11.5238 22.0006C12.5758 22.0006 13.4286 21.1478 13.4286 20.0959H9.61907Z" fill="#1882FF"/>
<path d="M15.3332 2.95299C15.3332 2.42701 15.7596 2.00061 16.2856 2.00061C16.8116 2.00061 17.238 2.42701 17.238 2.95299V8.66728C17.238 9.19326 16.8116 9.61966 16.2856 9.61966C15.7596 9.61966 15.3332 9.19326 15.3332 8.66728V2.95299Z" fill="#F27D00"/>
<path d="M13.4285 6.76252C12.9025 6.76252 12.4761 6.33612 12.4761 5.81013C12.4761 5.28415 12.9025 4.85775 13.4285 4.85775H19.1427C19.6687 4.85775 20.0951 5.28415 20.0951 5.81013C20.0951 6.33612 19.6687 6.76252 19.1427 6.76252H13.4285Z" fill="#F27D00"/>
</svg>
