<svg width="24" height="24" viewBox="0 0 24 24" fill="none" xmlns="http://www.w3.org/2000/svg">
<path d="M11.5238 22.0006C10.4719 22.0006 9.61907 21.1478 9.61907 20.0959H13.4286C13.4286 21.1478 12.5758 22.0006 11.5238 22.0006ZM19.1429 19.1435H3.90479V17.2387L5.80955 16.2863V11.0482C5.80955 7.7511 7.16288 5.613 9.61907 5.02919V2.953H13.4286V5.02919C15.8848 5.61205 17.2381 7.74919 17.2381 11.0482V16.2863L19.1429 17.2387V19.1435ZM11.5238 6.52443C10.3616 6.44939 9.24077 6.96946 8.54764 7.90538C7.95483 8.84306 7.66396 9.94003 7.71431 11.0482V17.2387H15.3334V11.0482C15.3836 9.94004 15.0928 8.84308 14.5 7.90538C13.8069 6.96946 12.6861 6.44939 11.5238 6.52443Z" fill="#1882FF"/>
</svg>
