<svg width="24" height="24" viewBox="0 0 24 24" fill="none" xmlns="http://www.w3.org/2000/svg">
<path d="M11.3044 2.00061C11.1818 2.21326 11.0711 2.43537 10.9735 2.66633C10.5415 3.68898 10.413 4.77494 10.5558 5.81504C9.69317 5.98901 8.91199 6.47602 8.375 7.20061C7.75255 8.18517 7.44714 9.33699 7.5 10.5006V17.0006H15.5V10.9176C15.829 10.973 16.1636 11.001 16.5003 11.0006C16.8409 11.0006 17.1749 10.9722 17.5 10.9177V16.0006L19.5 17.0006V19.0006H3.5V17.0006L5.5 16.0006V10.5006C5.5 7.03861 6.921 4.79361 9.5 4.18061V2.00061H11.3044Z" fill="#1882FF"/>
<path d="M9.5 20.0006C9.5 21.1052 10.3954 22.0006 11.5 22.0006C12.6046 22.0006 13.5 21.1052 13.5 20.0006H9.5Z" fill="#1882FF"/>
<path d="M13.5 8.00061C12.9477 8.00061 12.5 7.5529 12.5 7.00061C12.5 6.44833 12.9477 6.00061 13.5 6.00061H19.5C20.0523 6.00061 20.5 6.44833 20.5 7.00061C20.5 7.5529 20.0523 8.00061 19.5 8.00061H13.5Z" fill="#F27D00"/>
</svg>
