<svg width="24" height="24" viewBox="0 0 24 24" fill="none" xmlns="http://www.w3.org/2000/svg">
<path d="M11.3375 2.953C11.2207 3.15553 11.1153 3.36706 11.0224 3.58702C10.611 4.56097 10.4886 5.59522 10.6246 6.58579C9.80304 6.75148 9.05906 7.2153 8.54764 7.90538C7.95483 8.84306 7.66396 9.94003 7.71431 11.0482V17.2387H15.3334V11.4453C15.6467 11.4981 15.9653 11.5248 16.286 11.5244C16.6104 11.5244 16.9285 11.4974 17.2381 11.4455V16.2863L19.1429 17.2387V19.1435H3.90479V17.2387L5.80955 16.2863V11.0482C5.80955 7.7511 7.16288 5.613 9.61907 5.02919V2.953H11.3375Z" fill="#1882FF"/>
<path d="M9.61907 20.0959C9.61907 21.1478 10.4719 22.0006 11.5238 22.0006C12.5758 22.0006 13.4286 21.1478 13.4286 20.0959H9.61907Z" fill="#1882FF"/>
<path d="M14.4051 8.56235C14.959 8.94168 15.6148 9.14428 16.2861 9.14347C18.127 9.14347 19.6193 7.65107 19.6193 5.8101C19.6191 4.22431 18.5018 2.85818 16.9477 2.54345C15.3935 2.22872 13.8328 3.05252 13.2157 4.51332C12.5986 5.97411 13.096 7.66743 14.4051 8.56235Z" fill="#F27D00"/>
</svg>
