<svg width="24" height="24" viewBox="0 0 24 24" fill="none" xmlns="http://www.w3.org/2000/svg">
<path fill-rule="evenodd" clip-rule="evenodd" d="M5.5 4L3.5 8H20.5L18.5 4H5.5ZM21 10H16V15.5867C16 16.4786 14.9105 17.0106 14.1694 16.5159L12 15.0676L9.83059 16.5159C9.08947 17.0106 8 16.4786 8 15.5867V10H3V19C3 19.3645 3.63605 20 4 20H20C20.3639 20 21 19.3645 21 19V10ZM10 10V14.2L11.2408 13.5002C11.7005 13.1932 12.2995 13.1932 12.7592 13.5002L14 14.2V10H10ZM3.85224 3.03823C4.16995 2.40193 4.81939 2 5.5298 2H18.4702C19.1806 2 19.8301 2.40193 20.1478 3.03823L23 8.7506V19.6142C23 20.9319 21.9333 22 20.6175 22H3.38249C2.06668 22 1 20.9319 1 19.6142V8.7506L3.85224 3.03823Z" fill="#9BA6B2"/>
</svg>
