<svg width="24" height="24" viewBox="0 0 24 24" fill="none" xmlns="http://www.w3.org/2000/svg">
<g clip-path="url(#clip0_2517_1203)">
<circle cx="12" cy="12.0006" r="9" fill="#FFEEDB"/>
<path fill-rule="evenodd" clip-rule="evenodd" d="M14.4306 0.383158C14.7894 0.80303 14.7398 1.43426 14.32 1.79304L13.8657 2.1812C18.4966 3.06901 22 7.12426 22 12.0005C22 17.5235 17.5018 22.0276 11.951 22.0005C6.42823 21.9735 2 17.4954 2 12.0005C2 11.4482 2.44772 11.0005 3 11.0005C3.55229 11.0005 4 11.4482 4 12.0005C4 16.3983 7.54233 19.9789 11.9607 20.0005C16.3997 20.0221 20 16.4186 20 12.0005C20 8.18516 17.3122 4.98803 13.7106 4.19139L14.1658 4.72339C14.5248 5.14305 14.4756 5.7743 14.056 6.13333C13.6363 6.49236 13.0051 6.44321 12.646 6.02355L10.6125 3.64656C10.44 3.44496 10.3547 3.18307 10.3754 2.91856C10.396 2.65405 10.521 2.40859 10.7227 2.23623L13.0207 0.27255C13.4406 -0.0862346 14.0718 -0.0367135 14.4306 0.383158Z" fill="#F27D00"/>
<path d="M9.96006 9.96846L9.96006 9.44387C9.96006 9.18639 9.94276 8.98161 9.91151 8.82534C9.8859 8.69731 9.83458 8.62461 9.77102 8.57921L9.76268 8.57325L9.75485 8.56662C9.70415 8.52372 9.59614 8.47891 9.38229 8.47891C9.26617 8.47891 9.14308 8.49703 9.01224 8.53551C8.69166 8.6298 8.31137 8.51286 8.16385 8.15663L8.11542 8.03968C7.95707 7.65729 8.10175 7.18383 8.50207 6.99637C8.63036 6.93629 8.77421 6.87851 8.9153 6.84975C9.20273 6.78302 9.51459 6.75061 9.84958 6.75061C10.1462 6.75061 10.4155 6.78879 10.6527 6.87129C10.8925 6.95472 11.1 7.0866 11.2707 7.26711C11.4739 7.47138 11.6195 7.7403 11.7167 8.0597C11.8264 8.39087 11.8753 8.83951 11.8753 9.39046L11.8753 9.96846H14.66C15.1373 9.96846 15.5242 10.3554 15.5242 10.8326C15.5242 11.3099 15.1373 11.6968 14.66 11.6968H11.8752L11.8752 14.9045C11.8752 15.2268 11.9217 15.3925 11.9667 15.4601C11.9816 15.4823 12.0555 15.549 12.3328 15.549C12.5314 15.549 12.7325 15.5109 12.9373 15.4322C13.1451 15.3523 13.3313 15.245 13.4973 15.1107C13.6624 14.9771 13.7936 14.8259 13.8933 14.6571C13.9457 14.5684 13.9676 14.4971 13.9896 14.3849C13.9888 14.3358 13.9851 14.3152 13.9816 14.3037C13.9795 14.2968 13.9753 14.2843 13.9502 14.2567C13.9353 14.2402 13.8641 14.1916 13.6412 14.1916C13.6157 14.1916 13.5906 14.1921 13.5659 14.1929C13.2317 14.2042 12.8518 13.9916 12.7918 13.5947L12.7636 13.4084C12.7028 13.0058 12.9489 12.5663 13.4109 12.5185C13.6083 12.4906 13.8097 12.4767 14.015 12.4767C14.5604 12.4767 15.0253 12.606 15.3841 12.8903C15.7742 13.192 15.9473 13.6552 15.9473 14.222V14.2331L15.9463 14.2441C15.9268 14.4646 15.8987 14.6301 15.8435 14.7942C15.7892 14.9552 15.712 15.1044 15.6095 15.2916C15.3881 15.6958 15.0901 16.0461 14.718 16.3418C14.3496 16.6347 13.943 16.8616 13.4993 17.0221L13.4964 17.0231C13.0615 17.1744 12.6199 17.2506 12.1726 17.2506C11.8078 17.2506 11.4857 17.2087 11.2124 17.1176L11.2016 17.114C10.9485 17.0167 10.73 16.8912 10.5519 16.7341L10.5416 16.725L10.5323 16.7148C10.4355 16.6083 10.3441 16.4928 10.2581 16.3685C10.1526 16.2161 10.0808 16.0212 10.0324 15.7987L10.032 15.7966C9.98255 15.5594 9.95997 15.26 9.95997 14.9045L9.95997 11.6968H9.62252C9.14526 11.6968 8.75837 11.3099 8.75837 10.8326C8.75837 10.3554 9.14526 9.96846 9.62252 9.96846H9.96006Z" fill="#F27D00"/>
</g>
<defs>
<clipPath id="clip0_2517_1203">
<rect width="24" height="24" fill="white" transform="translate(0 0.000610352)"/>
</clipPath>
</defs>
</svg>
