<svg width="24" height="24" viewBox="0 0 24 24" fill="none" xmlns="http://www.w3.org/2000/svg">
<path d="M15.0943 14.3712C15.2924 14.3712 15.4534 14.3712 15.6205 14.3712C16.7102 14.3774 17.7998 14.4022 18.8895 14.3898C19.5767 14.3836 20.0472 14.6932 20.4063 15.2504C21.1988 16.47 20.8954 18.5008 19.8553 19.5161C19.1495 20.2033 18.3013 20.6367 17.3912 20.9587C16.1158 21.4106 14.7971 21.6335 13.4598 21.7821C11.8068 21.9678 10.1475 22.0112 8.48827 21.9988C6.46375 21.9802 5.00263 21.0639 4.13587 19.2375C3.89441 18.7236 3.70867 18.1788 3.56628 17.6278C3.15766 16.049 3.10813 14.4331 3.16385 12.811C3.25053 10.3655 3.622 7.95715 4.14206 5.57354C4.32779 4.71297 4.55687 3.86477 4.76737 3.01039C4.84166 2.71321 4.92834 2.64511 5.23171 2.62653C6.71759 2.53986 8.19729 2.46556 9.68317 2.38508C11.9987 2.26125 14.308 2.13743 16.6235 2.00741C16.6854 2.00741 16.7411 2.00122 16.803 2.00122C17.1745 1.98884 17.3479 2.21172 17.255 2.57081C17.0074 3.52426 16.7535 4.4777 16.5306 5.44353C15.9487 7.90143 15.4781 10.3779 15.2181 12.8977C15.1686 13.3744 15.1376 13.8512 15.0943 14.3712ZM16.3573 2.82465C16.2582 2.83084 16.1901 2.83084 16.122 2.83703C14.3699 2.9299 12.6178 3.02277 10.8719 3.11564C9.16311 3.20851 7.46673 3.30137 5.76415 3.38186C5.54746 3.39424 5.45459 3.46234 5.41125 3.67904C5.0955 5.23303 4.72403 6.77463 4.44543 8.341C4.04919 10.6008 3.8325 12.873 3.98728 15.1699C4.06776 16.3586 4.2535 17.5225 4.72403 18.6246C5.38649 20.1786 6.50709 21.1382 8.24682 21.1815C10.4323 21.2373 12.6178 21.1568 14.7847 20.7853C15.1624 20.7234 15.5339 20.6367 15.9672 20.55C15.181 20.0238 14.8219 19.2932 14.6237 18.476C14.4937 17.9621 14.4071 17.4297 14.3513 16.9034C14.1904 15.3061 14.308 13.715 14.4937 12.13C14.8095 9.43684 15.3605 6.79321 16.0168 4.16814C16.1158 3.73476 16.2335 3.29518 16.3573 2.82465ZM15.1995 17.4482C15.311 18.154 15.4719 18.8041 15.862 19.3799C16.3325 20.0733 17.2488 20.2467 17.8741 19.9C18.128 19.7638 18.388 19.6337 18.6294 19.479C19.4529 18.9589 19.9544 18.2345 20.0534 17.2501C20.1153 16.6186 20.0163 16.0243 19.6262 15.5104C19.4529 15.2875 19.2362 15.1389 18.9328 15.207C18.3137 15.3494 17.8555 16.2224 18.0908 16.8106C18.2518 17.2068 18.0908 17.4482 17.6698 17.4482C16.9331 17.4482 16.1963 17.4482 15.4596 17.4482C15.3791 17.4482 15.2986 17.4482 15.1995 17.4482ZM17.6574 15.1823C16.7721 15.1823 15.9301 15.1823 15.1005 15.1823C15.1005 15.6714 15.1005 16.1543 15.1005 16.6372C15.8248 16.6372 16.5182 16.6372 17.2179 16.6372C17.1931 16.0986 17.3479 15.6404 17.6574 15.1823Z" fill="#9BA6B2"/>
<path d="M9.89373 8.18639C8.83504 8.24211 7.77634 8.30402 6.71765 8.35355C6.42666 8.36594 6.2595 8.24211 6.23474 8.00685C6.20997 7.7592 6.35856 7.58585 6.63097 7.57346C7.26867 7.53013 7.90017 7.49298 8.53167 7.46202C10.0547 7.38154 11.5839 7.30105 13.107 7.21438C13.3918 7.20199 13.5775 7.34439 13.5899 7.58585C13.6023 7.8273 13.4289 7.98827 13.1441 8.00685C12.0668 8.06876 10.9772 8.12448 9.89373 8.18639Z" fill="#9BA6B2"/>
<path d="M10.4448 4.92355C11.4787 4.86783 12.5188 4.81211 13.5527 4.76258C13.5837 4.76258 13.6085 4.75639 13.6394 4.75639C13.918 4.7502 14.0914 4.89259 14.1038 5.12786C14.1161 5.36313 13.9428 5.5241 13.6766 5.54267C13.0451 5.57982 12.4074 5.61696 11.7759 5.64792C10.259 5.72841 8.73599 5.80889 7.21915 5.88938C7.13247 5.89557 7.03961 5.88938 6.96531 5.85842C6.78577 5.77794 6.70528 5.62316 6.74243 5.43123C6.78577 5.22073 6.92197 5.12167 7.13867 5.10929C8.14783 5.05357 9.15699 4.99784 10.16 4.94212C10.2528 4.93593 10.3457 4.94212 10.4386 4.94212C10.4448 4.93593 10.4448 4.92974 10.4448 4.92355Z" fill="#9BA6B2"/>
<path d="M9.59659 19.2686C8.80412 19.3119 8.01165 19.3615 7.21918 19.3924C7.10154 19.3986 6.94676 19.38 6.87866 19.3057C6.79198 19.2067 6.73007 19.0395 6.74246 18.9095C6.75484 18.7299 6.90343 18.6247 7.08916 18.6185C7.764 18.5814 8.44503 18.538 9.11987 18.5009C10.0795 18.4513 11.0391 18.4018 11.9926 18.3461C12.2898 18.3275 12.4879 18.4699 12.5003 18.7176C12.5126 18.9528 12.3331 19.12 12.0545 19.1386C11.2373 19.1819 10.4138 19.2252 9.59659 19.2686Z" fill="#9BA6B2"/>
<path d="M9.52846 17.6837C9.38606 16.6188 9.24986 15.5044 9.11984 14.3342C8.43881 14.5447 7.76397 14.8729 7.07675 15.3434C6.95912 13.8142 7.08913 12.4955 7.42965 10.4895C8.14163 10.279 8.85362 10.2357 9.5718 10.3595C9.39225 11.2015 9.20652 12.0992 9.0084 13.096C9.66467 12.9165 10.29 12.8669 10.9153 12.9474C10.2095 14.52 9.93708 15.6158 9.54084 17.6837C9.54084 17.6775 9.53465 17.6837 9.52846 17.6837Z" fill="#9BA6B2"/>
<path d="M15.0943 14.3712C15.2924 14.3712 15.4534 14.3712 15.6205 14.3712C16.7102 14.3774 17.7998 14.4022 18.8895 14.3898C19.5767 14.3836 20.0472 14.6932 20.4063 15.2504C21.1988 16.47 20.8954 18.5008 19.8553 19.5161C19.1495 20.2033 18.3013 20.6367 17.3912 20.9587C16.1158 21.4106 14.7971 21.6335 13.4598 21.7821C11.8068 21.9678 10.1475 22.0112 8.48827 21.9988C6.46375 21.9802 5.00263 21.0639 4.13587 19.2375C3.89441 18.7236 3.70867 18.1788 3.56628 17.6278C3.15766 16.049 3.10813 14.4331 3.16385 12.811C3.25053 10.3655 3.622 7.95715 4.14206 5.57354C4.32779 4.71297 4.55687 3.86477 4.76737 3.01039C4.84166 2.71321 4.92834 2.64511 5.23171 2.62653C6.71759 2.53986 8.19729 2.46556 9.68317 2.38508C11.9987 2.26125 14.308 2.13743 16.6235 2.00741C16.6854 2.00741 16.7411 2.00122 16.803 2.00122C17.1745 1.98884 17.3479 2.21172 17.255 2.57081C17.0074 3.52426 16.7535 4.4777 16.5306 5.44353C15.9487 7.90143 15.4781 10.3779 15.2181 12.8977C15.1686 13.3744 15.1376 13.8512 15.0943 14.3712ZM16.3573 2.82465C16.2582 2.83084 16.1901 2.83084 16.122 2.83703C14.3699 2.9299 12.6178 3.02277 10.8719 3.11564C9.16311 3.20851 7.46673 3.30137 5.76415 3.38186C5.54746 3.39424 5.45459 3.46234 5.41125 3.67904C5.0955 5.23303 4.72403 6.77463 4.44543 8.341C4.04919 10.6008 3.8325 12.873 3.98728 15.1699C4.06776 16.3586 4.2535 17.5225 4.72403 18.6246C5.38649 20.1786 6.50709 21.1382 8.24682 21.1815C10.4323 21.2373 12.6178 21.1568 14.7847 20.7853C15.1624 20.7234 15.5339 20.6367 15.9672 20.55C15.181 20.0238 14.8219 19.2932 14.6237 18.476C14.4937 17.9621 14.4071 17.4297 14.3513 16.9034C14.1904 15.3061 14.308 13.715 14.4937 12.13C14.8095 9.43684 15.3605 6.79321 16.0168 4.16814C16.1158 3.73476 16.2335 3.29518 16.3573 2.82465ZM15.1995 17.4482C15.311 18.154 15.4719 18.8041 15.862 19.3799C16.3325 20.0733 17.2488 20.2467 17.8741 19.9C18.128 19.7638 18.388 19.6337 18.6294 19.479C19.4529 18.9589 19.9544 18.2345 20.0534 17.2501C20.1153 16.6186 20.0163 16.0243 19.6262 15.5104C19.4529 15.2875 19.2362 15.1389 18.9328 15.207C18.3137 15.3494 17.8555 16.2224 18.0908 16.8106C18.2518 17.2068 18.0908 17.4482 17.6698 17.4482C16.9331 17.4482 16.1963 17.4482 15.4596 17.4482C15.3791 17.4482 15.2986 17.4482 15.1995 17.4482ZM17.6574 15.1823C16.7721 15.1823 15.9301 15.1823 15.1005 15.1823C15.1005 15.6714 15.1005 16.1543 15.1005 16.6372C15.8248 16.6372 16.5182 16.6372 17.2179 16.6372C17.1931 16.0986 17.3479 15.6404 17.6574 15.1823Z" stroke="#9BA6B2" stroke-width="0.3"/>
<path d="M9.89373 8.18639C8.83504 8.24211 7.77634 8.30402 6.71765 8.35355C6.42666 8.36594 6.2595 8.24211 6.23474 8.00685C6.20997 7.7592 6.35856 7.58585 6.63097 7.57346C7.26867 7.53013 7.90017 7.49298 8.53167 7.46202C10.0547 7.38154 11.5839 7.30105 13.107 7.21438C13.3918 7.20199 13.5775 7.34439 13.5899 7.58585C13.6023 7.8273 13.4289 7.98827 13.1441 8.00685C12.0668 8.06876 10.9772 8.12448 9.89373 8.18639Z" stroke="#9BA6B2" stroke-width="0.3"/>
<path d="M10.4448 4.92355C11.4787 4.86783 12.5188 4.81211 13.5527 4.76258C13.5837 4.76258 13.6085 4.75639 13.6394 4.75639C13.918 4.7502 14.0914 4.89259 14.1038 5.12786C14.1161 5.36313 13.9428 5.5241 13.6766 5.54267C13.0451 5.57982 12.4074 5.61696 11.7759 5.64792C10.259 5.72841 8.73599 5.80889 7.21915 5.88938C7.13247 5.89557 7.03961 5.88938 6.96531 5.85842C6.78577 5.77794 6.70528 5.62316 6.74243 5.43123C6.78577 5.22073 6.92197 5.12167 7.13867 5.10929C8.14783 5.05357 9.15699 4.99784 10.16 4.94212C10.2528 4.93593 10.3457 4.94212 10.4386 4.94212C10.4448 4.93593 10.4448 4.92974 10.4448 4.92355Z" stroke="#9BA6B2" stroke-width="0.3"/>
<path d="M9.59659 19.2686C8.80412 19.3119 8.01165 19.3615 7.21918 19.3924C7.10154 19.3986 6.94676 19.38 6.87866 19.3057C6.79198 19.2067 6.73007 19.0395 6.74246 18.9095C6.75484 18.7299 6.90343 18.6247 7.08916 18.6185C7.764 18.5814 8.44503 18.538 9.11987 18.5009C10.0795 18.4513 11.0391 18.4018 11.9926 18.3461C12.2898 18.3275 12.4879 18.4699 12.5003 18.7176C12.5126 18.9528 12.3331 19.12 12.0545 19.1386C11.2373 19.1819 10.4138 19.2252 9.59659 19.2686Z" stroke="#9BA6B2" stroke-width="0.3"/>
<path d="M9.52846 17.6837C9.38606 16.6188 9.24986 15.5044 9.11984 14.3342C8.43881 14.5447 7.76397 14.8729 7.07675 15.3434C6.95912 13.8142 7.08913 12.4955 7.42965 10.4895C8.14163 10.279 8.85362 10.2357 9.5718 10.3595C9.39225 11.2015 9.20652 12.0992 9.0084 13.096C9.66467 12.9165 10.29 12.8669 10.9153 12.9474C10.2095 14.52 9.93708 15.6158 9.54084 17.6837C9.54084 17.6775 9.53465 17.6837 9.52846 17.6837Z" stroke="#9BA6B2" stroke-width="0.3"/>
</svg>
