<svg width="24" height="24" viewBox="0 0 24 24" fill="none" xmlns="http://www.w3.org/2000/svg">
<path fill-rule="evenodd" clip-rule="evenodd" d="M3.05975 4.8643C3.93249 4.00003 5.27487 3.81848 6.89749 3.81848H16.2943C16.7492 3.81848 17.1171 4.18769 17.1171 4.64209C17.1171 5.09649 16.7492 5.46569 16.2943 5.46569H6.89749C5.26176 5.46569 4.56711 5.6887 4.21713 6.03528C3.88964 6.35959 3.67116 6.98439 3.64773 8.41422H16.2943C16.7492 8.41422 17.1171 8.78343 17.1171 9.23783C17.1171 9.69223 16.7492 10.0614 16.2943 10.0614H3.64564V15.3235C3.64564 16.9411 3.87022 17.6218 4.21713 17.9653C4.56711 18.3119 5.26176 18.5349 6.89749 18.5349H17.1025C18.7382 18.5349 19.4329 18.3119 19.7829 17.9653C20.1298 17.6218 20.3544 16.9411 20.3544 15.3235V13.4116C20.3544 12.9572 20.7223 12.588 21.1772 12.588C21.6321 12.588 22 12.9572 22 13.4116V15.3235C22 16.9325 21.8161 18.269 20.9403 19.1363C20.0675 20.0006 18.7251 20.1821 17.1025 20.1821H6.89749C5.27487 20.1821 3.93249 20.0006 3.05975 19.1363C2.18393 18.269 2 16.9325 2 15.3235V8.67715C2 7.06814 2.18393 5.73161 3.05975 4.8643ZM3.64564 9.79294H16.2943C16.5997 9.79294 16.8481 9.54488 16.8481 9.23783C16.8481 8.93078 16.5997 8.68271 16.2943 8.68271H3.64564V9.79294ZM5.67087 15.6819C5.67087 15.2275 6.03879 14.8583 6.49369 14.8583H8.32913C8.78402 14.8583 9.15194 15.2275 9.15194 15.6819C9.15194 16.1363 8.78402 16.5055 8.32913 16.5055H6.49369C6.03879 16.5055 5.67087 16.1363 5.67087 15.6819ZM6.49369 15.1268C6.18832 15.1268 5.93993 15.3749 5.93993 15.6819C5.93993 15.989 6.18832 16.237 6.49369 16.237H8.32913C8.63449 16.237 8.88289 15.989 8.88289 15.6819C8.88289 15.3749 8.63449 15.1268 8.32913 15.1268H6.49369ZM9.8006 15.6819C9.8006 15.2275 10.1685 14.8583 10.6234 14.8583H14.2943C14.7492 14.8583 15.1171 15.2275 15.1171 15.6819C15.1171 16.1363 14.7492 16.5055 14.2943 16.5055H10.6234C10.1685 16.5055 9.8006 16.1363 9.8006 15.6819ZM10.6234 15.1268C10.3181 15.1268 10.0697 15.3749 10.0697 15.6819C10.0697 15.989 10.3181 16.237 10.6234 16.237H14.2943C14.5997 16.237 14.8481 15.989 14.8481 15.6819C14.8481 15.3749 14.5997 15.1268 14.2943 15.1268H10.6234Z" fill="#9BA6B2"/>
<path fill-rule="evenodd" clip-rule="evenodd" d="M4.12237 5.93999C3.74279 6.31589 3.52314 7.02124 3.51159 8.54847H16.2943C16.6744 8.54847 16.9826 8.8571 16.9826 9.23783C16.9826 9.61855 16.6744 9.92719 16.2943 9.92719H3.51111V15.3235C3.51111 16.9401 3.73228 17.6743 4.12237 18.0606C4.51517 18.4496 5.26303 18.6692 6.89749 18.6692H17.1025C18.737 18.6692 19.4848 18.4496 19.8776 18.0606C20.2677 17.6743 20.4889 16.9401 20.4889 15.3235V13.4116C20.4889 13.0309 20.7971 12.7223 21.1772 12.7223C21.5573 12.7223 21.8655 13.0309 21.8655 13.4116V15.3235C21.8655 16.933 21.6783 18.2163 20.8455 19.041C20.0154 19.863 18.726 20.0479 17.1025 20.0479H6.89749C5.27404 20.0479 3.98457 19.863 3.15451 19.041C2.32174 18.2163 2.13453 16.933 2.13453 15.3235V9.23783V8.67715C2.13453 7.06756 2.32174 5.78426 3.15451 4.95958C3.98457 4.13759 5.27404 3.95273 6.89749 3.95273H16.2943C16.6744 3.95273 16.9826 4.26136 16.9826 4.64209C16.9826 5.02281 16.6744 5.33145 16.2943 5.33145H6.89749C5.26303 5.33145 4.51517 5.55101 4.12237 5.93999ZM3.64564 9.79294H16.2943C16.5997 9.79294 16.8481 9.54488 16.8481 9.23783C16.8481 8.93078 16.5997 8.68271 16.2943 8.68271H3.64564V9.79294Z" fill="#9BA6B2"/>
<path fill-rule="evenodd" clip-rule="evenodd" d="M6.49369 14.9926C6.11356 14.9926 5.8054 15.3012 5.8054 15.6819C5.8054 16.0626 6.11356 16.3713 6.49369 16.3713H8.32913C8.70926 16.3713 9.01742 16.0626 9.01742 15.6819C9.01742 15.3012 8.70926 14.9926 8.32913 14.9926H6.49369ZM6.49369 15.1268C6.18832 15.1268 5.93993 15.3749 5.93993 15.6819C5.93993 15.989 6.18832 16.237 6.49369 16.237H8.32913C8.63449 16.237 8.88289 15.989 8.88289 15.6819C8.88289 15.3749 8.63449 15.1268 8.32913 15.1268H6.49369Z" fill="#9BA6B2"/>
<path fill-rule="evenodd" clip-rule="evenodd" d="M10.6234 14.9926C10.2433 14.9926 9.93513 15.3012 9.93513 15.6819C9.93513 16.0626 10.2433 16.3713 10.6234 16.3713H14.2943C14.6744 16.3713 14.9826 16.0626 14.9826 15.6819C14.9826 15.3012 14.6744 14.9926 14.2943 14.9926H10.6234ZM10.6234 15.1268C10.3181 15.1268 10.0697 15.3749 10.0697 15.6819C10.0697 15.989 10.3181 16.237 10.6234 16.237H14.2943C14.5997 16.237 14.8481 15.989 14.8481 15.6819C14.8481 15.3749 14.5997 15.1268 14.2943 15.1268H10.6234Z" fill="#9BA6B2"/>
<path d="M16.2943 9.79294H3.64564V8.68271H16.2943C16.5997 8.68271 16.8481 8.93078 16.8481 9.23783C16.8481 9.54488 16.5997 9.79294 16.2943 9.79294Z" fill="#9BA6B2"/>
<path d="M5.93993 15.6819C5.93993 15.3749 6.18832 15.1268 6.49369 15.1268H8.32913C8.63449 15.1268 8.88289 15.3749 8.88289 15.6819C8.88289 15.989 8.63449 16.237 8.32913 16.237H6.49369C6.18832 16.237 5.93993 15.989 5.93993 15.6819Z" fill="#9BA6B2"/>
<path d="M10.0697 15.6819C10.0697 15.3749 10.3181 15.1268 10.6234 15.1268H14.2943C14.5997 15.1268 14.8481 15.3749 14.8481 15.6819C14.8481 15.989 14.5997 16.237 14.2943 16.237H10.6234C10.3181 16.237 10.0697 15.989 10.0697 15.6819Z" fill="#9BA6B2"/>
<path fill-rule="evenodd" clip-rule="evenodd" d="M22.0301 10.157C22.0301 10.5377 21.722 10.8463 21.3418 10.8463C20.9617 10.8463 20.6536 10.5377 20.6536 10.157V6.30636L19.9931 6.96785C19.7243 7.23706 19.2885 7.23706 19.0197 6.96785C18.7509 6.69863 18.7509 6.26215 19.0197 5.99294L20.8516 4.15817C20.8639 4.14569 20.8767 4.13366 20.8899 4.12211C20.9955 4.02989 21.1225 3.97533 21.2534 3.95843C21.2983 3.95259 21.3435 3.95125 21.3883 3.9543C21.5487 3.9651 21.706 4.03188 21.8285 4.15465L23.664 5.99294C23.9328 6.26215 23.9328 6.69863 23.664 6.96785C23.3952 7.23706 22.9594 7.23706 22.6906 6.96785L22.0301 6.30636V10.157ZM20.7881 4.6421C20.7881 4.49299 20.8476 4.35377 20.948 4.25189L20.9505 4.2494C20.9585 4.24132 20.9668 4.23354 20.9752 4.22606C21.0203 4.18607 21.0724 4.15309 21.1301 4.12917C21.3368 4.04341 21.5748 4.09075 21.7332 4.2494C21.9497 4.46622 21.9497 4.81797 21.7332 5.0348L20.7881 5.98142V4.6421ZM19.8978 6.8731L20.519 6.2509V4.68149L19.115 6.08769C18.8985 6.30452 18.8985 6.65627 19.115 6.8731C19.3312 7.08965 19.6816 7.08965 19.8978 6.8731ZM21.9238 5.2243C22.0746 5.0733 22.1546 4.87829 22.1638 4.6806L23.5687 6.08769C23.7852 6.30452 23.7852 6.65627 23.5687 6.8731C23.3525 7.08965 23.0021 7.08965 22.7859 6.8731L22.1254 6.21161C22.087 6.17312 22.0291 6.16154 21.9788 6.18229C21.9284 6.20304 21.8956 6.25202 21.8956 6.30636V10.157C21.8956 10.464 21.6472 10.7121 21.3418 10.7121C21.0365 10.7121 20.7881 10.464 20.7881 10.157V6.36182L21.9238 5.2243Z" fill="#9BA6B2"/>
<path d="M19.8978 6.8731L20.519 6.2509V4.68149L19.115 6.08769C18.8985 6.30452 18.8985 6.65627 19.115 6.8731C19.3312 7.08965 19.6816 7.08965 19.8978 6.8731Z" fill="#9BA6B2"/>
<path d="M20.948 4.25189C20.8476 4.35377 20.7881 4.49299 20.7881 4.6421V5.98142L21.7332 5.0348C21.9497 4.81797 21.9497 4.46622 21.7332 4.2494C21.5748 4.09075 21.3368 4.04341 21.1301 4.12917C21.0724 4.15309 21.0203 4.18607 20.9752 4.22606C20.9668 4.23354 20.9585 4.24132 20.9505 4.2494L20.948 4.25189Z" fill="#9BA6B2"/>
<path d="M22.1638 4.6806C22.1546 4.87829 22.0746 5.0733 21.9238 5.2243L20.7881 6.36182V10.157C20.7881 10.464 21.0365 10.7121 21.3418 10.7121C21.6472 10.7121 21.8956 10.464 21.8956 10.157V6.30636C21.8956 6.25202 21.9284 6.20304 21.9788 6.18229C22.0291 6.16154 22.087 6.17312 22.1254 6.21161L22.7859 6.8731C23.0021 7.08965 23.3525 7.08965 23.5687 6.8731C23.7852 6.65627 23.7852 6.30452 23.5687 6.08769L22.1638 4.6806Z" fill="#9BA6B2"/>
</svg>
