<svg width="24" height="24" viewBox="0 0 24 24" fill="none" xmlns="http://www.w3.org/2000/svg">
<path d="M19.33 17.7806C19.37 18.7206 18.65 19.7606 17.79 20.1506C16 20.9706 13.88 19.2706 11.89 19.2706C9.90004 19.2706 7.76004 21.0406 6.00004 20.1506C5.00004 19.6606 4.31004 18.3606 4.44004 17.2806C4.62004 15.7906 6.41004 14.9906 7.47004 13.9006C8.88004 12.4906 9.88004 9.84058 11.89 9.84058C13.89 9.84058 14.95 12.4506 16.3 13.9006C17.41 15.1206 19.26 16.1506 19.33 17.7806Z" stroke="#9BA6B2" stroke-width="1.8"/>
<path d="M9.97269 6.0734C10.3103 5.73584 10.4999 5.278 10.4999 4.80061C10.4999 4.32322 10.3103 3.86538 9.97269 3.52782C9.63513 3.19025 9.17729 3.00061 8.6999 3.00061C8.22251 3.00061 7.76468 3.19025 7.42711 3.52782C7.08954 3.86538 6.8999 4.32322 6.8999 4.80061C6.8999 5.278 7.08954 5.73584 7.42711 6.0734C7.76468 6.41097 8.22251 6.60061 8.6999 6.60061C9.17729 6.60061 9.63513 6.41097 9.97269 6.0734Z" stroke="#9BA6B2" stroke-width="1.5" stroke-linecap="round" stroke-linejoin="round"/>
<path d="M16.5728 6.0734C16.9104 5.73584 17.1 5.278 17.1 4.80061C17.1 4.32322 16.9104 3.86538 16.5728 3.52782C16.2352 3.19025 15.7774 3.00061 15.3 3.00061C14.8226 3.00061 14.3648 3.19025 14.0272 3.52782C13.6896 3.86538 13.5 4.32322 13.5 4.80061C13.5 5.278 13.6896 5.73584 14.0272 6.0734C14.3648 6.41097 14.8226 6.60061 15.3 6.60061C15.7774 6.60061 16.2352 6.41097 16.5728 6.0734Z" stroke="#9BA6B2" stroke-width="1.5" stroke-linecap="round" stroke-linejoin="round"/>
<path d="M21.463 10.8895C21.5534 10.6711 21.6 10.437 21.6 10.2006C21.6 9.72325 21.4104 9.26541 21.0728 8.92784C20.7352 8.59028 20.2774 8.40063 19.8 8.40063C19.3226 8.40063 18.8648 8.59028 18.5272 8.92784C18.1896 9.26541 18 9.72325 18 10.2006C18 10.437 18.0466 10.6711 18.137 10.8895C18.2275 11.1079 18.3601 11.3063 18.5272 11.4734C18.6944 11.6406 18.8928 11.7732 19.1112 11.8636C19.3296 11.9541 19.5636 12.0006 19.8 12.0006C20.0364 12.0006 20.2704 11.9541 20.4888 11.8636C20.7072 11.7732 20.9056 11.6406 21.0728 11.4734C21.2399 11.3063 21.3725 11.1079 21.463 10.8895Z" stroke="#9BA6B2" stroke-width="1.5" stroke-linecap="round" stroke-linejoin="round"/>
<path d="M5.86289 10.8895C5.95334 10.6711 5.9999 10.437 5.9999 10.2006C5.9999 9.72325 5.81026 9.26541 5.47269 8.92784C5.13513 8.59028 4.67729 8.40063 4.1999 8.40063C3.72251 8.40063 3.26468 8.59028 2.92711 8.92784C2.58954 9.26541 2.3999 9.72325 2.3999 10.2006C2.3999 10.437 2.44646 10.6711 2.53692 10.8895C2.62738 11.1079 2.75996 11.3063 2.92711 11.4734C3.09426 11.6406 3.29269 11.7732 3.51107 11.8636C3.72946 11.9541 3.96352 12.0006 4.1999 12.0006C4.43628 12.0006 4.67035 11.9541 4.88873 11.8636C5.10712 11.7732 5.30555 11.6406 5.47269 11.4734C5.63984 11.3063 5.77243 11.1079 5.86289 10.8895Z" stroke="#9BA6B2" stroke-width="1.5" stroke-linecap="round" stroke-linejoin="round"/>
</svg>
