<svg width="24" height="24" viewBox="0 0 24 24" fill="none" xmlns="http://www.w3.org/2000/svg">
<path fill-rule="evenodd" clip-rule="evenodd" d="M13.2997 9.29661V4.35323C13.3058 4.17388 13.276 3.99516 13.2121 3.82805C13.1482 3.66095 13.0516 3.50898 12.9282 3.3815C12.8069 3.25652 12.662 3.15829 12.5022 3.09287C12.3425 3.02745 12.1713 2.99622 11.9993 3.00111C11.8273 2.99622 11.6562 3.02745 11.4964 3.09287C11.3367 3.15829 11.1917 3.25652 11.0705 3.3815C10.8198 3.64175 10.6727 3.98809 10.6575 4.35323L10.6584 9.29661L3.64307 13.8181V15.593L10.6584 13.353V18.2964L8.92483 19.6485V21.0006L11.9791 20.1136L15.0747 21.0006V19.6485L13.2997 18.2964V13.353L20.3574 15.5921V13.8181L13.2997 9.29661Z" fill="#9BA6B2"/>
</svg>
