<svg width="24" height="24" viewBox="0 0 24 24" fill="none" xmlns="http://www.w3.org/2000/svg">
<path d="M18.8747 6.00061H15.9283V3.00061C15.9283 2.73539 15.8248 2.48104 15.6406 2.2935C15.4564 2.10597 15.2066 2.00061 14.9461 2.00061C14.6857 2.00061 14.4359 2.10597 14.2517 2.2935C14.0675 2.48104 13.964 2.73539 13.964 3.00061V6.00061H10.0354V3.00061C10.0354 2.73539 9.93196 2.48104 9.74777 2.2935C9.56358 2.10597 9.31377 2.00061 9.05329 2.00061C8.79281 2.00061 8.543 2.10597 8.35881 2.2935C8.17463 2.48104 8.07115 2.73539 8.07115 3.00061V6.00061H5.12472C4.86424 6.00061 4.61443 6.10597 4.43024 6.2935C4.24605 6.48104 4.14258 6.73539 4.14258 7.00061C4.14258 7.26583 4.24605 7.52018 4.43024 7.70772C4.61443 7.89525 4.86424 8.00061 5.12472 8.00061H6.10686V13.0006C6.10612 13.1322 6.13089 13.2627 6.17977 13.3845C6.22864 13.5064 6.30066 13.6172 6.39169 13.7106L9.05329 16.4106V21.0006C9.05329 21.2658 9.15677 21.5202 9.34096 21.7077C9.52514 21.8953 9.77495 22.0006 10.0354 22.0006C10.2959 22.0006 10.5457 21.8953 10.7299 21.7077C10.9141 21.5202 11.0176 21.2658 11.0176 21.0006V17.0006H12.9819V21.0006C12.9819 21.2658 13.0853 21.5202 13.2695 21.7077C13.4537 21.8953 13.7035 22.0006 13.964 22.0006C14.2245 22.0006 14.4743 21.8953 14.6585 21.7077C14.8427 21.5202 14.9461 21.2658 14.9461 21.0006V16.4106L17.6078 13.7106C17.6988 13.6172 17.7708 13.5064 17.8197 13.3845C17.8686 13.2627 17.8933 13.1322 17.8926 13.0006V8.00061H18.8747C19.1352 8.00061 19.385 7.89525 19.5692 7.70772C19.7534 7.52018 19.8569 7.26583 19.8569 7.00061C19.8569 6.73539 19.7534 6.48104 19.5692 6.2935C19.385 6.10597 19.1352 6.00061 18.8747 6.00061ZM15.9283 12.5906L13.5613 15.0006H10.4381L8.07115 12.5906V8.00061H15.9283V12.5906ZM11.0176 13.0006H12.9819C13.2423 13.0006 13.4922 12.8953 13.6763 12.7077C13.8605 12.5202 13.964 12.2658 13.964 12.0006C13.964 11.7354 13.8605 11.481 13.6763 11.2935C13.4922 11.106 13.2423 11.0006 12.9819 11.0006H11.0176C10.7571 11.0006 10.5073 11.106 10.3231 11.2935C10.1389 11.481 10.0354 11.7354 10.0354 12.0006C10.0354 12.2658 10.1389 12.5202 10.3231 12.7077C10.5073 12.8953 10.7571 13.0006 11.0176 13.0006V13.0006Z" fill="#9BA6B2"/>
</svg>
