<svg width="24" height="24" viewBox="0 0 24 24" fill="none" xmlns="http://www.w3.org/2000/svg">
<path fill-rule="evenodd" clip-rule="evenodd" d="M11.9999 3.90027C11.4538 3.90027 11.011 4.34301 11.011 4.88916V11.0114H4.88879C4.34264 11.0114 3.8999 11.4541 3.8999 12.0003C3.8999 12.5464 4.34264 12.9892 4.88879 12.9892H11.011V19.1114C11.011 19.6575 11.4538 20.1003 11.9999 20.1003C12.5461 20.1003 12.9888 19.6575 12.9888 19.1114V12.9892H19.111C19.6572 12.9892 20.0999 12.5464 20.0999 12.0003C20.0999 11.4541 19.6572 11.0114 19.111 11.0114H12.9888V4.88916C12.9888 4.34301 12.5461 3.90027 11.9999 3.90027Z" fill="#9BA6B2"/>
</svg>
