<svg width="24" height="24" viewBox="0 0 24 24" fill="none" xmlns="http://www.w3.org/2000/svg">
<path fill-rule="evenodd" clip-rule="evenodd" d="M4.99974 5.00023C6.85635 3.14362 9.37445 2.10059 12.0001 2.10059C14.6257 2.10059 17.1438 3.14362 19.0005 5.00023C20.8571 6.85684 21.9001 9.37494 21.9001 12.0006C21.9001 13.3007 21.644 14.588 21.1465 15.7892C20.649 16.9903 19.9198 18.0816 19.0005 19.0009C18.0812 19.9202 16.9898 20.6495 15.7887 21.147C14.5875 21.6445 13.3002 21.9006 12.0001 21.9006C10.7 21.9006 9.41266 21.6445 8.21153 21.147C7.01041 20.6495 5.91904 19.9202 4.99974 19.0009C4.08044 18.0816 3.35121 16.9903 2.85369 15.7892C2.35617 14.588 2.1001 13.3007 2.1001 12.0006C2.1001 9.37494 3.14313 6.85684 4.99974 5.00023ZM12.0001 3.90059C9.85184 3.90059 7.79158 4.75398 6.27253 6.27302C4.75349 7.79207 3.9001 9.85233 3.9001 12.0006C3.9001 13.0643 4.10961 14.1176 4.51667 15.1003C4.92374 16.0831 5.52038 16.976 6.27253 17.7281C7.02469 18.4803 7.91763 19.0769 8.90036 19.484C9.8831 19.8911 10.9364 20.1006 12.0001 20.1006C13.0638 20.1006 14.1171 19.8911 15.0998 19.484C16.0826 19.0769 16.9755 18.4803 17.7277 17.7281C18.4798 16.976 19.0765 16.0831 19.4835 15.1003C19.8906 14.1176 20.1001 13.0643 20.1001 12.0006C20.1001 9.85233 19.2467 7.79207 17.7277 6.27302C16.2086 4.75398 14.1484 3.90059 12.0001 3.90059ZM12.0001 8.10059C12.4972 8.10059 12.9001 8.50353 12.9001 9.00059V11.1006H15.0001C15.4972 11.1006 15.9001 11.5035 15.9001 12.0006C15.9001 12.4976 15.4972 12.9006 15.0001 12.9006H12.9001V15.0006C12.9001 15.4976 12.4972 15.9006 12.0001 15.9006C11.503 15.9006 11.1001 15.4976 11.1001 15.0006V12.9006H9.0001C8.50304 12.9006 8.1001 12.4976 8.1001 12.0006C8.1001 11.5035 8.50304 11.1006 9.0001 11.1006H11.1001V9.00059C11.1001 8.50353 11.503 8.10059 12.0001 8.10059Z" fill="#9BA6B2"/>
</svg>
