<svg width="24" height="24" viewBox="0 0 24 24" fill="none" xmlns="http://www.w3.org/2000/svg">
<path fill-rule="evenodd" clip-rule="evenodd" d="M11.9998 4.66675C7.92139 4.66675 4.6665 7.94976 4.6665 12.0001C4.6665 12.5524 4.21879 13.0001 3.6665 13.0001C3.11422 13.0001 2.6665 12.5524 2.6665 12.0001C2.6665 6.85041 6.81161 2.66675 11.9998 2.66675C15.0759 2.66675 17.3781 3.95309 18.8915 5.21552C19.0467 5.345 19.1939 5.47446 19.3332 5.60257V4.13341C19.3332 3.58113 19.7809 3.13341 20.3332 3.13341C20.8855 3.13341 21.3332 3.58113 21.3332 4.13341V8.30008C21.3332 8.85237 20.8855 9.30008 20.3332 9.30008H16.6332C16.0809 9.30008 15.6332 8.85237 15.6332 8.30008C15.6332 7.7478 16.0809 7.30008 16.6332 7.30008H18.2167C18.034 7.12098 17.8318 6.93612 17.6103 6.75131C16.3466 5.69708 14.4821 4.66675 11.9998 4.66675ZM20.3332 11.0001C20.8855 11.0001 21.3332 11.4478 21.3332 12.0001C21.3332 17.1524 17.1521 21.3334 11.9998 21.3334C9.35256 21.3334 7.2704 20.0015 5.89884 18.7575C5.79266 18.6611 5.6902 18.5649 5.5915 18.4692V19.8667C5.5915 20.419 5.14379 20.8667 4.5915 20.8667C4.03922 20.8667 3.5915 20.419 3.5915 19.8667V15.7001C3.5915 15.1478 4.03922 14.7001 4.5915 14.7001H8.35817C8.91046 14.7001 9.35817 15.1478 9.35817 15.7001C9.35817 16.2524 8.91046 16.7001 8.35817 16.7001H6.65396C6.83227 16.888 7.02873 17.0822 7.2425 17.276C8.4251 18.3487 10.0471 19.3334 11.9998 19.3334C16.0476 19.3334 19.3332 16.0478 19.3332 12.0001C19.3332 11.4478 19.7809 11.0001 20.3332 11.0001Z" fill="#9BA6B2"/>
</svg>
