<svg width="24" height="24" viewBox="0 0 24 24" fill="none" xmlns="http://www.w3.org/2000/svg">
<path d="M9.90757 10.2179L9.90757 9.69326C9.90757 9.43578 9.89027 9.231 9.85902 9.07473C9.83341 8.9467 9.78209 8.874 9.71853 8.8286L9.71019 8.82264L9.70236 8.81601C9.65166 8.77311 9.54365 8.7283 9.3298 8.7283C9.21368 8.7283 9.09059 8.74642 8.95975 8.7849C8.63917 8.87919 8.25887 8.76225 8.11136 8.40602L8.06293 8.28907C7.90458 7.90668 8.04926 7.43322 8.44958 7.24576C8.57787 7.18568 8.72172 7.1279 8.86281 7.09914C9.15024 7.03241 9.4621 7 9.79709 7C10.0937 7 10.363 7.03818 10.6002 7.12068C10.84 7.20411 11.0475 7.33599 11.2182 7.5165C11.4214 7.72077 11.567 7.98969 11.6642 8.30909C11.7739 8.64026 11.8228 9.0889 11.8228 9.63985L11.8228 10.2179H14.6075C15.0848 10.2179 15.4717 10.6047 15.4717 11.082C15.4717 11.5593 15.0848 11.9462 14.6075 11.9462H11.8227L11.8227 15.1539C11.8227 15.4762 11.8692 15.6419 11.9142 15.7095C11.9291 15.7317 12.003 15.7984 12.2803 15.7984C12.4789 15.7984 12.68 15.7603 12.8848 15.6815C13.0926 15.6016 13.2788 15.4944 13.4448 15.3601C13.6099 15.2264 13.7411 15.0753 13.8408 14.9065C13.8932 14.8178 13.9151 14.7465 13.9371 14.6343C13.9363 14.5852 13.9326 14.5646 13.9291 14.5531C13.927 14.5461 13.9229 14.5337 13.8977 14.5061C13.8828 14.4896 13.8116 14.441 13.5887 14.441C13.5632 14.441 13.5381 14.4414 13.5135 14.4423C13.1792 14.4535 12.7993 14.241 12.7393 13.8441L12.7111 13.6578C12.6503 13.2552 12.8964 12.8156 13.3584 12.7679C13.5558 12.74 13.7572 12.7261 13.9626 12.7261C14.5079 12.7261 14.9728 12.8554 15.3316 13.1397C15.7217 13.4414 15.8948 13.9046 15.8948 14.4714V14.4825L15.8938 14.4935C15.8743 14.714 15.8463 14.8795 15.791 15.0436C15.7367 15.2046 15.6595 15.3538 15.557 15.541C15.3356 15.9452 15.0376 16.2954 14.6655 16.5912C14.2971 16.8841 13.8905 17.111 13.4468 17.2715L13.4439 17.2725C13.009 17.4238 12.5674 17.5 12.1201 17.5C11.7553 17.5 11.4332 17.4581 11.1599 17.367L11.1491 17.3634C10.896 17.2661 10.6775 17.1406 10.4994 16.9835L10.4891 16.9744L10.4798 16.9642C10.383 16.8577 10.2916 16.7421 10.2056 16.6179C10.1001 16.4655 10.0283 16.2706 9.97994 16.0481L9.97948 16.046C9.93006 15.8088 9.90748 15.5094 9.90748 15.1539L9.90748 11.9462H9.57003C9.09277 11.9462 8.70588 11.5593 8.70588 11.082C8.70588 10.6047 9.09277 10.2179 9.57003 10.2179H9.90757Z" fill="#9BA6B2"/>
<path fill-rule="evenodd" clip-rule="evenodd" d="M12 3.99939C7.58172 3.99939 4 7.58111 4 11.9994C4 16.4177 7.58172 19.9994 12 19.9994C16.4183 19.9994 20 16.4177 20 11.9994C20 11.4471 20.4477 10.9994 21 10.9994C21.5523 10.9994 22 11.4471 22 11.9994C22 17.5222 17.5228 21.9994 12 21.9994C6.47715 21.9994 2 17.5222 2 11.9994C2 6.47654 6.47715 1.99939 12 1.99939C12.5523 1.99939 13 2.4471 13 2.99939C13 3.55167 12.5523 3.99939 12 3.99939Z" fill="#9BA6B2"/>
<path d="M16.2528 8.6732C15.7488 8.62185 15.3559 8.19568 15.3558 7.67814L15.3551 2.67798C15.3551 2.12584 15.8029 1.67832 16.355 1.67809C16.9073 1.67809 17.3549 2.1257 17.3549 2.67798L17.3549 5.19291L20.802 1.74576C21.1925 1.35561 21.8258 1.35546 22.2162 1.74576C22.6067 2.13618 22.6064 2.76943 22.2162 3.15998L18.698 6.67825L21.3552 6.67825C21.9074 6.67825 22.355 7.12586 22.355 7.67814C22.3549 8.2303 21.9073 8.67803 21.3552 8.67803L16.3557 8.67803L16.2528 8.6732Z" fill="#9BA6B2"/>
</svg>
