<svg width="24" height="24" viewBox="0 0 24 24" fill="none" xmlns="http://www.w3.org/2000/svg">
<path fill-rule="evenodd" clip-rule="evenodd" d="M5.0708 19.9724V13.1975H3.0708V22H20.9291V13.1975H18.9291V19.9724H5.0708Z" fill="#9BA6B2"/>
<path fill-rule="evenodd" clip-rule="evenodd" d="M1 13.9005C1 13.3406 1.44772 12.8867 2 12.8867H22C22.5523 12.8867 23 13.3406 23 13.9005C23 14.4604 22.5523 14.9142 22 14.9142H2C1.44772 14.9142 1 14.4604 1 13.9005Z" fill="#9BA6B2"/>
<path fill-rule="evenodd" clip-rule="evenodd" d="M9.58002 4.02755C8.89168 4.02755 8.33368 4.59324 8.33368 5.29106C8.33368 5.98887 8.89168 6.55456 9.58002 6.55456C10.2684 6.55456 10.8264 5.98887 10.8264 5.29106C10.8264 4.59324 10.2684 4.02755 9.58002 4.02755ZM6.33368 5.29106C6.33368 3.47346 7.78711 2 9.58002 2C11.3729 2 12.8264 3.47346 12.8264 5.29106C12.8264 7.10866 11.3729 8.58211 9.58002 8.58211C7.78711 8.58211 6.33368 7.10866 6.33368 5.29106Z" fill="#9BA6B2"/>
<path fill-rule="evenodd" clip-rule="evenodd" d="M7.02271 12.8904H12.1373C11.9533 11.3381 10.7957 10.2843 9.57999 10.2843C8.36427 10.2843 7.20664 11.3381 7.02271 12.8904ZM4.99738 13.3242C4.99738 10.6331 6.9486 8.25671 9.57999 8.25671C12.2114 8.25671 14.1626 10.6331 14.1626 13.3242V14.918H4.99738V13.3242Z" fill="#9BA6B2"/>
<path d="M21.0044 12.8918C19.9981 12.8918 18.0517 12.8918 15.8958 12.8918C15.8958 11.6213 17.0394 10.5914 18.4501 10.5914C19.8608 10.5914 21.0044 11.6213 21.0044 12.8918Z" fill="#9BA6B2"/>
</svg>
