<svg width="24" height="24" viewBox="0 0 24 24" fill="none" xmlns="http://www.w3.org/2000/svg">
<g clip-path="url(#clip0_2517_1204)">
<circle cx="11.9998" cy="12.0006" r="9" fill="#DCFAE4"/>
<path fill-rule="evenodd" clip-rule="evenodd" d="M14.4303 0.383219C14.7891 0.803091 14.7396 1.43432 14.3197 1.7931L13.8655 2.18126C18.4964 3.06907 21.9998 7.12432 21.9998 12.0006C21.9998 17.5236 17.5015 22.0276 11.9507 22.0005C6.42799 21.9736 1.99975 17.4955 1.99976 12.0006C1.99976 9.43595 2.96023 7.08408 4.55022 5.30739C4.91852 4.89585 5.55072 4.86079 5.96227 5.22909C6.37381 5.59739 6.40887 6.22959 6.04057 6.64114C4.76875 8.06229 3.99976 9.94292 3.99976 12.0006C3.99975 16.3983 7.54208 19.979 11.9605 20.0005C16.3994 20.0222 19.9998 16.4187 19.9998 12.0006C19.9998 8.18522 17.3119 4.98809 13.7104 4.19145L14.1655 4.72345C14.5245 5.14311 14.4754 5.77436 14.0557 6.13339C13.6361 6.49242 13.0048 6.44327 12.6458 6.02361L10.6122 3.64662C10.4397 3.44502 10.3544 3.18313 10.3751 2.91862C10.3958 2.65411 10.5207 2.40865 10.7224 2.23629L13.0205 0.272611C13.4403 -0.0861735 14.0716 -0.0366524 14.4303 0.383219Z" fill="#03A629"/>
<path d="M9.95981 9.96853L9.95981 9.44393C9.95981 9.18645 9.94252 8.98167 9.91127 8.8254C9.88566 8.69738 9.83434 8.62467 9.77078 8.57927L9.76243 8.57331L9.7546 8.56668C9.7039 8.52378 9.5959 8.47898 9.38204 8.47898C9.26592 8.47898 9.14284 8.49709 9.012 8.53557C8.69141 8.62986 8.31112 8.51292 8.16361 8.15669L8.11518 8.03974C7.95683 7.65735 8.1015 7.18389 8.50182 6.99643C8.63012 6.93635 8.77397 6.87857 8.91506 6.84981C9.20249 6.78308 9.51434 6.75067 9.84933 6.75067C10.1459 6.75067 10.4152 6.78885 10.6524 6.87136C10.8923 6.95478 11.0997 7.08666 11.2704 7.26717C11.4736 7.47144 11.6192 7.74036 11.7164 8.05976C11.8262 8.39093 11.875 8.83957 11.875 9.39052L11.875 9.96853H14.6598C15.137 9.96853 15.5239 10.3554 15.5239 10.8327C15.5239 11.3099 15.137 11.6968 14.6598 11.6968H11.8749L11.8749 14.9045C11.8749 15.2269 11.9215 15.3926 11.9665 15.4601C11.9813 15.4824 12.0552 15.5491 12.3326 15.5491C12.5312 15.5491 12.7322 15.511 12.9371 15.4322C13.1448 15.3523 13.3311 15.2451 13.497 15.1108C13.6621 14.9771 13.7933 14.8259 13.893 14.6572C13.9455 14.5684 13.9674 14.4972 13.9894 14.3849C13.9885 14.3359 13.9848 14.3153 13.9813 14.3037C13.9792 14.2968 13.9751 14.2844 13.95 14.2567C13.935 14.2403 13.8639 14.1917 13.641 14.1917C13.6154 14.1917 13.5903 14.1921 13.5657 14.1929C13.2314 14.2042 12.8515 13.9917 12.7916 13.5948L12.7634 13.4085C12.7025 13.0059 12.9486 12.5663 13.4107 12.5186C13.608 12.4906 13.8094 12.4767 14.0148 12.4767C14.5601 12.4767 15.025 12.606 15.3838 12.8904C15.7739 13.192 15.947 13.6553 15.947 14.2221V14.2331L15.9461 14.2441C15.9265 14.4646 15.8985 14.6302 15.8432 14.7943C15.789 14.9553 15.7117 15.1045 15.6092 15.2916C15.3879 15.6959 15.0899 16.0461 14.7178 16.3419C14.3493 16.6347 13.9428 16.8616 13.499 17.0221L13.4961 17.0232C13.0613 17.1745 12.6196 17.2507 12.1723 17.2507C11.8076 17.2507 11.4854 17.2088 11.2121 17.1177L11.2013 17.1141C10.9483 17.0168 10.7297 16.8913 10.5517 16.7342L10.5413 16.7251L10.5321 16.7149C10.4352 16.6083 10.3438 16.4928 10.2579 16.3686C10.1523 16.2162 10.0806 16.0213 10.0322 15.7988L10.0317 15.7967C9.98231 15.5594 9.95973 15.26 9.95973 14.9045L9.95973 11.6968H9.62228C9.14502 11.6968 8.75813 11.3099 8.75813 10.8327C8.75813 10.3554 9.14502 9.96853 9.62228 9.96853H9.95981Z" fill="#03A629"/>
</g>
<defs>
<clipPath id="clip0_2517_1204">
<rect width="24" height="24" fill="white" transform="translate(0 0.000610352)"/>
</clipPath>
</defs>
</svg>
