<svg width="24" height="24" viewBox="0 0 24 24" fill="none" xmlns="http://www.w3.org/2000/svg">
<path fill-rule="evenodd" clip-rule="evenodd" d="M3.05975 4.8643C3.93249 4.00003 5.27487 3.81848 6.89749 3.81848H14.2943C14.7492 3.81848 15.1171 4.18769 15.1171 4.64209C15.1171 5.09648 14.7492 5.46569 14.2943 5.46569H6.89749C5.26176 5.46569 4.56711 5.6887 4.21713 6.03528C3.88964 6.35959 3.67116 6.98439 3.64773 8.41422H14.2943C14.7492 8.41422 15.1171 8.78343 15.1171 9.23783C15.1171 9.69223 14.7492 10.0614 14.2943 10.0614H3.64564V15.3235C3.64564 16.9411 3.87022 17.6218 4.21713 17.9653C4.56711 18.3119 5.26176 18.5349 6.89749 18.5349H17.1025C18.7382 18.5349 19.4329 18.3119 19.7829 17.9653C20.1298 17.6218 20.3544 16.9411 20.3544 15.3235V13.4116C20.3544 12.9572 20.7223 12.588 21.1772 12.588C21.6321 12.588 22 12.9572 22 13.4116V15.3235C22 16.9325 21.8161 18.269 20.9403 19.1363C20.0675 20.0006 18.7251 20.1821 17.1025 20.1821H6.89749C5.27487 20.1821 3.93249 20.0006 3.05975 19.1363C2.18393 18.269 2 16.9325 2 15.3235V8.67715C2 7.06814 2.18393 5.73161 3.05975 4.8643ZM3.64564 9.79294H14.2943C14.5997 9.79294 14.8481 9.54488 14.8481 9.23783C14.8481 8.93078 14.5997 8.68271 14.2943 8.68271H3.64564V9.79294ZM18.5189 4.64209C18.5189 4.18769 18.8869 3.81848 19.3417 3.81848C19.7966 3.81848 20.1646 4.18769 20.1646 4.64209V8.16777L20.5952 7.73648C20.9166 7.41461 21.4378 7.41461 21.7592 7.73648C22.0803 8.05807 22.0803 8.57928 21.7592 8.90088L19.9237 10.7392C19.7778 10.8853 19.5906 10.9651 19.3997 10.9785C19.3454 10.9824 19.2905 10.9809 19.2359 10.9738C19.0822 10.9539 18.9331 10.8907 18.8082 10.784C18.7897 10.7683 18.772 10.7518 18.7551 10.7345L16.9243 8.90088C16.6032 8.57928 16.6032 8.05807 16.9243 7.73648C17.2457 7.41461 17.7669 7.41461 18.0883 7.73648L18.5189 8.16777V4.64209ZM18.5189 8.54817L17.8977 7.92598C17.6815 7.70942 17.3311 7.70942 17.1149 7.92598C16.8984 8.1428 16.8984 8.49455 17.1149 8.71138L18.5189 10.1176V8.54817ZM18.9479 10.5472C18.8475 10.4453 18.788 10.3061 18.788 10.157V8.81765L19.7331 9.76427C19.9496 9.9811 19.9496 10.3328 19.7331 10.5497C19.5747 10.7083 19.3367 10.7557 19.13 10.6699C19.0723 10.646 19.0202 10.613 18.9751 10.573C18.9667 10.5655 18.9584 10.5578 18.9504 10.5497M20.1637 10.1185C20.1545 9.92078 20.0745 9.72577 19.9237 9.57477L18.788 8.43725V4.64209C18.788 4.33504 19.0364 4.08697 19.3417 4.08697C19.6471 4.08697 19.8955 4.33504 19.8955 4.64209V8.49271C19.8955 8.54705 19.9283 8.59603 19.9787 8.61678C20.029 8.63753 20.0869 8.62596 20.1253 8.58746L20.7858 7.92598C21.002 7.70942 21.3524 7.70942 21.5686 7.92598C21.7851 8.1428 21.7851 8.49455 21.5686 8.71138L20.1637 10.1185ZM5.67087 15.6819C5.67087 15.2275 6.0388 14.8583 6.49369 14.8583H8.32913C8.78402 14.8583 9.15195 15.2275 9.15195 15.6819C9.15195 16.1363 8.78402 16.5055 8.32913 16.5055H6.49369C6.0388 16.5055 5.67087 16.1363 5.67087 15.6819ZM6.49369 15.1268C6.18832 15.1268 5.93993 15.3749 5.93993 15.6819C5.93993 15.989 6.18832 16.237 6.49369 16.237H8.32913C8.63449 16.237 8.88289 15.989 8.88289 15.6819C8.88289 15.3749 8.63449 15.1268 8.32913 15.1268H6.49369ZM9.8006 15.6819C9.8006 15.2275 10.1685 14.8583 10.6234 14.8583H14.2943C14.7492 14.8583 15.1171 15.2275 15.1171 15.6819C15.1171 16.1363 14.7492 16.5055 14.2943 16.5055H10.6234C10.1685 16.5055 9.8006 16.1363 9.8006 15.6819ZM10.6234 15.1268C10.3181 15.1268 10.0697 15.3749 10.0697 15.6819C10.0697 15.989 10.3181 16.237 10.6234 16.237H14.2943C14.5997 16.237 14.8481 15.989 14.8481 15.6819C14.8481 15.3749 14.5997 15.1268 14.2943 15.1268H10.6234Z" fill="#9BA6B2"/>
<path fill-rule="evenodd" clip-rule="evenodd" d="M20.03 4.64209C20.03 4.26136 19.7219 3.95273 19.3417 3.95273C18.9616 3.95273 18.6535 4.26136 18.6535 4.64209V8.49271L17.993 7.83123C17.7242 7.56201 17.2884 7.56201 17.0196 7.83123C16.7508 8.10044 16.7508 8.53692 17.0196 8.80613L18.8515 10.6409C18.8638 10.6534 18.8766 10.6654 18.8898 10.677C18.9954 10.7692 19.1224 10.8237 19.2533 10.8406C19.2982 10.8465 19.3434 10.8478 19.3882 10.8448C19.5486 10.834 19.7059 10.7672 19.8284 10.6444L21.6639 8.80613C21.9327 8.53692 21.9327 8.10044 21.6639 7.83123C21.3951 7.56201 20.9593 7.56201 20.6905 7.83123L20.03 8.49271V4.64209ZM18.788 10.157C18.788 10.3061 18.8475 10.4453 18.9479 10.5472L18.9504 10.5497C18.9584 10.5578 18.9667 10.5655 18.9751 10.573C19.0202 10.613 19.0723 10.646 19.13 10.6699C19.3367 10.7557 19.5747 10.7083 19.7331 10.5497C19.9496 10.3328 19.9496 9.9811 19.7331 9.76427L18.788 8.81765V10.157ZM17.8977 7.92598L18.5189 8.54817V10.1176L17.1149 8.71138C16.8984 8.49455 16.8984 8.1428 17.1149 7.92598C17.3311 7.70942 17.6815 7.70942 17.8977 7.92598ZM19.9237 9.57477C20.0745 9.72577 20.1545 9.92078 20.1637 10.1185L21.5686 8.71138C21.7851 8.49455 21.7851 8.1428 21.5686 7.92598C21.3524 7.70942 21.002 7.70942 20.7858 7.92598L20.1253 8.58746C20.0869 8.62596 20.029 8.63753 19.9787 8.61678C19.9283 8.59603 19.8955 8.54705 19.8955 8.49271V4.64209C19.8955 4.33504 19.6471 4.08697 19.3417 4.08697C19.0364 4.08697 18.788 4.33504 18.788 4.64209V8.43725L19.9237 9.57477Z" fill="#9BA6B2"/>
<path fill-rule="evenodd" clip-rule="evenodd" d="M4.12237 5.93999C3.74279 6.31589 3.52314 7.02124 3.51159 8.54847H14.2943C14.6744 8.54847 14.9826 8.8571 14.9826 9.23783C14.9826 9.61855 14.6744 9.92719 14.2943 9.92719H3.51111V15.3235C3.51111 16.9401 3.73228 17.6743 4.12237 18.0606C4.51517 18.4496 5.26303 18.6692 6.89749 18.6692H17.1025C18.737 18.6692 19.4848 18.4496 19.8776 18.0606C20.2677 17.6743 20.4889 16.9401 20.4889 15.3235V13.4116C20.4889 13.0309 20.7971 12.7223 21.1772 12.7223C21.5573 12.7223 21.8655 13.0309 21.8655 13.4116V15.3235C21.8655 16.933 21.6783 18.2163 20.8455 19.041C20.0154 19.863 18.726 20.0479 17.1025 20.0479H6.89749C5.27404 20.0479 3.98457 19.863 3.15451 19.041C2.32174 18.2163 2.13453 16.933 2.13453 15.3235V9.23783V8.67715C2.13453 7.06756 2.32174 5.78426 3.15451 4.95958C3.98457 4.13759 5.27404 3.95273 6.89749 3.95273H14.2943C14.6744 3.95273 14.9826 4.26136 14.9826 4.64209C14.9826 5.02281 14.6744 5.33145 14.2943 5.33145H6.89749C5.26303 5.33145 4.51517 5.55101 4.12237 5.93999ZM3.64564 9.79294H14.2943C14.5997 9.79294 14.8481 9.54488 14.8481 9.23783C14.8481 8.93078 14.5997 8.68271 14.2943 8.68271H3.64564V9.79294Z" fill="#9BA6B2"/>
<path fill-rule="evenodd" clip-rule="evenodd" d="M6.49369 14.9926C6.11356 14.9926 5.8054 15.3012 5.8054 15.6819C5.8054 16.0626 6.11356 16.3713 6.49369 16.3713H8.32913C8.70926 16.3713 9.01742 16.0626 9.01742 15.6819C9.01742 15.3012 8.70926 14.9926 8.32913 14.9926H6.49369ZM6.49369 15.1268C6.18832 15.1268 5.93993 15.3749 5.93993 15.6819C5.93993 15.989 6.18832 16.237 6.49369 16.237H8.32913C8.63449 16.237 8.88289 15.989 8.88289 15.6819C8.88289 15.3749 8.63449 15.1268 8.32913 15.1268H6.49369Z" fill="#9BA6B2"/>
<path fill-rule="evenodd" clip-rule="evenodd" d="M10.6234 14.9926C10.2433 14.9926 9.93513 15.3012 9.93513 15.6819C9.93513 16.0626 10.2433 16.3713 10.6234 16.3713H14.2943C14.6744 16.3713 14.9826 16.0626 14.9826 15.6819C14.9826 15.3012 14.6744 14.9926 14.2943 14.9926H10.6234ZM10.6234 15.1268C10.3181 15.1268 10.0697 15.3749 10.0697 15.6819C10.0697 15.989 10.3181 16.237 10.6234 16.237H14.2943C14.5997 16.237 14.8481 15.989 14.8481 15.6819C14.8481 15.3749 14.5997 15.1268 14.2943 15.1268H10.6234Z" fill="#9BA6B2"/>
<path d="M14.2943 9.79294H3.64564V8.68271H14.2943C14.5997 8.68271 14.8481 8.93078 14.8481 9.23783C14.8481 9.54488 14.5997 9.79294 14.2943 9.79294Z" fill="#9BA6B2"/>
<path d="M5.93993 15.6819C5.93993 15.3749 6.18832 15.1268 6.49369 15.1268H8.32913C8.63449 15.1268 8.88289 15.3749 8.88289 15.6819C8.88289 15.989 8.63449 16.237 8.32913 16.237H6.49369C6.18832 16.237 5.93993 15.989 5.93993 15.6819Z" fill="#9BA6B2"/>
<path d="M10.0697 15.6819C10.0697 15.3749 10.3181 15.1268 10.6234 15.1268H14.2943C14.5997 15.1268 14.8481 15.3749 14.8481 15.6819C14.8481 15.989 14.5997 16.237 14.2943 16.237H10.6234C10.3181 16.237 10.0697 15.989 10.0697 15.6819Z" fill="#9BA6B2"/>
<path d="M17.8977 7.92598L18.5189 8.54817V10.1176L17.1149 8.71138C16.8984 8.49455 16.8984 8.1428 17.1149 7.92598C17.3311 7.70942 17.6815 7.70942 17.8977 7.92598Z" fill="#9BA6B2"/>
<path d="M18.9479 10.5472C18.8475 10.4453 18.788 10.3061 18.788 10.157V8.81765L19.7331 9.76427C19.9496 9.9811 19.9496 10.3328 19.7331 10.5497C19.5747 10.7083 19.3367 10.7557 19.13 10.6699C19.0723 10.646 19.0202 10.613 18.9751 10.573C18.9667 10.5655 18.9584 10.5578 18.9504 10.5497L18.9479 10.5472Z" fill="#9BA6B2"/>
<path d="M20.1637 10.1185C20.1545 9.92078 20.0745 9.72577 19.9237 9.57477L18.788 8.43725V4.64209C18.788 4.33504 19.0364 4.08697 19.3417 4.08697C19.6471 4.08697 19.8955 4.33504 19.8955 4.64209V8.49271C19.8955 8.54705 19.9283 8.59603 19.9787 8.61678C20.029 8.63753 20.0869 8.62596 20.1253 8.58746L20.7858 7.92598C21.002 7.70942 21.3524 7.70942 21.5686 7.92598C21.7851 8.1428 21.7851 8.49455 21.5686 8.71138L20.1637 10.1185Z" fill="#9BA6B2"/>
</svg>
