<svg width="24" height="24" viewBox="0 0 24 24" fill="none" xmlns="http://www.w3.org/2000/svg">
<path fill-rule="evenodd" clip-rule="evenodd" d="M17.772 8.00068C16.1428 5.63548 13.1619 4.47732 10.2568 5.22224C9.02629 5.53883 7.90511 6.1844 7.01353 7.08971C6.12187 7.99511 5.49349 9.12616 5.19579 10.3615C4.89808 11.5969 4.94228 12.89 5.32364 14.1022C5.705 15.3144 6.40914 16.3999 7.36053 17.2423C8.31193 18.0847 9.4747 18.6522 10.7241 18.884C11.9736 19.1158 13.2625 19.0031 14.4528 18.5581C15.643 18.113 16.6897 17.3523 17.4804 16.3575C18.2712 15.3628 18.7763 14.1716 18.9416 12.9117C19.0134 12.3641 19.5155 11.9784 20.0631 12.0502C20.6107 12.122 20.9964 12.6241 20.9246 13.1717C20.7121 14.7917 20.0627 16.3232 19.046 17.6021C18.0293 18.8811 16.6836 19.8591 15.1533 20.4314C13.623 21.0036 11.9657 21.1485 10.3593 20.8505C8.7529 20.5525 7.25792 19.8228 6.03469 18.7397C4.81147 17.6566 3.90615 16.2609 3.41583 14.7024C2.92551 13.1439 2.86868 11.4813 3.25145 9.89299C3.63421 8.30464 4.44212 6.85044 5.58854 5.68636C6.73496 4.52227 8.17664 3.69221 9.75895 3.2852C13.242 2.39188 16.8326 3.63546 19.0001 6.30512V5.00068C19.0001 4.44839 19.4478 4.00068 20.0001 4.00068C20.5523 4.00068 21.0001 4.44839 21.0001 5.00068V9.00068C21.0001 9.55296 20.5523 10.0007 20.0001 10.0007H19.4563C19.441 10.001 19.4257 10.001 19.4104 10.0007H16.0001C15.4478 10.0007 15.0001 9.55296 15.0001 9.00068C15.0001 8.44839 15.4478 8.00068 16.0001 8.00068H17.772Z" fill="#9BA6B2"/>
</svg>
