<svg width="24" height="24" viewBox="0 0 24 24" fill="none" xmlns="http://www.w3.org/2000/svg">
<g clip-path="url(#clip0_2517_1212)">
<path d="M13.3672 22C13.3225 21.9765 13.2777 21.952 13.2323 21.9296C12.8027 21.7171 12.6896 21.1765 13.0261 20.8307C13.6886 20.1494 14.3626 19.4786 15.0412 18.814C15.3339 18.5276 15.7725 18.5609 16.0469 18.8776C16.298 19.1671 16.5355 19.4687 16.8089 19.802C17.1839 19.5416 17.5761 19.3088 17.924 19.0218C19.6178 17.6234 20.5256 15.8276 20.5995 13.6229C20.6183 13.0666 21.0188 12.725 21.4995 12.8625C21.7615 12.9369 21.8964 13.1375 22.0006 13.3677C22.0006 13.589 22.0006 13.8104 22.0006 14.0317C21.9506 14.364 21.9084 14.6979 21.849 15.0286C21.2475 18.3599 18.5688 21.1161 15.2589 21.8046C14.8537 21.889 14.4412 21.9359 14.0318 22.0005C13.81 22 13.5886 22 13.3672 22Z" fill="#9BA6B2"/>
<path d="M10.6328 2C10.6781 2.02344 10.7224 2.0474 10.7682 2.06979C11.1963 2.28073 11.3109 2.8224 10.9744 3.16927C10.3125 3.85104 9.63903 4.52135 8.95934 5.18542C8.66455 5.47344 8.22705 5.43906 7.95361 5.12292C7.70257 4.83281 7.46507 4.53125 7.21351 4.225C6.56976 4.56042 5.99632 4.98281 5.49372 5.49583C4.16716 6.85104 3.45257 8.47188 3.40049 10.375C3.38538 10.9328 2.98382 11.2734 2.50205 11.1375C2.24007 11.0635 2.10361 10.8646 2.00049 10.6323C2.00049 10.4109 2.00049 10.1896 2.00049 9.96823C2.01195 9.91823 2.03018 9.86875 2.03434 9.81771C2.16872 8.21719 2.71455 6.76823 3.67549 5.48542C5.01143 3.70104 6.77549 2.57813 8.97132 2.15208C9.30101 2.08802 9.63591 2.05 9.96872 2C10.1901 2 10.4114 2 10.6328 2Z" fill="#9BA6B2"/>
<path d="M14.7028 2.83179C15.1486 2.84429 15.5486 2.97866 15.8689 3.29845C17.4772 4.90314 19.0882 6.50575 20.6871 8.11981C21.309 8.74741 21.3288 9.73804 20.7637 10.5203C20.6653 10.6568 20.5496 10.7828 20.4304 10.9021C17.2554 14.0797 14.0778 17.2552 10.9033 20.4333C10.3877 20.95 9.78974 21.236 9.04547 21.1438C8.68401 21.099 8.37411 20.9432 8.11682 20.6875C7.62724 20.2011 7.14026 19.712 6.65224 19.224C5.58401 18.1557 4.53766 17.0656 3.4413 16.0271C2.57568 15.2073 2.73505 14.0235 3.38141 13.2943C3.44599 13.2214 3.51526 13.1516 3.58401 13.0828C6.75068 9.91512 9.91891 6.74897 13.0824 3.57814C13.5345 3.12606 14.0538 2.84429 14.7028 2.83179ZM17.7517 9.16564C17.6074 9.08908 17.4351 9.04116 17.3231 8.93179C16.5642 8.19012 15.8179 7.43595 15.0679 6.68543C14.8533 6.47085 14.8252 6.2146 14.9366 5.94741C14.9851 5.83075 15.0762 5.73022 15.1569 5.6297C15.3653 5.37137 15.409 5.05835 15.2647 4.81252C15.0548 4.45522 14.6986 4.2297 14.3903 4.3172C14.2069 4.36929 14.022 4.487 13.8856 4.62293C10.7913 7.70627 7.7038 10.7964 4.61526 13.8854C4.55536 13.9453 4.49443 14.0047 4.44443 14.0729C4.23349 14.361 4.24495 14.7224 4.48661 14.9646C5.99911 16.4813 7.5137 17.9953 9.02984 19.5083C9.25641 19.7344 9.57307 19.7688 9.85432 19.5985C9.95849 19.5354 10.0507 19.4485 10.1371 19.3615C11.9934 17.5073 13.8481 15.6521 15.7033 13.7969C16.9324 12.5677 18.1611 11.338 19.3913 10.1104C19.5522 9.95002 19.6819 9.77762 19.6976 9.54064C19.7252 9.13022 19.4397 8.91616 19.1543 8.72554C18.9189 8.56825 18.6022 8.6396 18.3476 8.8672C18.1819 9.0146 18.0048 9.12502 17.7517 9.16564Z" fill="#9BA6B2"/>
</g>
<defs>
<clipPath id="clip0_2517_1212">
<rect width="20" height="20" fill="white" transform="translate(2 2)"/>
</clipPath>
</defs>
</svg>
