<svg width="24" height="24" viewBox="0 0 24 24" fill="none" xmlns="http://www.w3.org/2000/svg">
<path fill-rule="evenodd" clip-rule="evenodd" d="M11.1 4.80037C7.62061 4.80037 4.8 7.62097 4.8 11.1004C4.8 14.5798 7.62061 17.4004 11.1 17.4004C14.5794 17.4004 17.4 14.5798 17.4 11.1004C17.4 7.62097 14.5794 4.80037 11.1 4.80037ZM3 11.1004C3 6.62686 6.62649 3.00037 11.1 3.00037C15.5735 3.00037 19.2 6.62686 19.2 11.1004C19.2 15.5739 15.5735 19.2004 11.1 19.2004C6.62649 19.2004 3 15.5739 3 11.1004Z" fill="#9BA6B2"/>
<path fill-rule="evenodd" clip-rule="evenodd" d="M15.5485 15.549C15.9 15.1975 16.4698 15.1975 16.8213 15.549L20.7363 19.464C21.0878 19.8154 21.0878 20.3853 20.7363 20.7368C20.3848 21.0882 19.815 21.0882 19.4635 20.7368L15.5485 16.8218C15.197 16.4703 15.197 15.9004 15.5485 15.549Z" fill="#9BA6B2"/>
</svg>
