<svg width="24" height="24" viewBox="0 0 24 24" fill="none" xmlns="http://www.w3.org/2000/svg">
<path opacity="0.2" d="M20.125 2.625V7.9375L18.25 8.875V17H5.75V9.5L3.875 7.625V2.625L20.125 2.625Z" fill="#9BA6B2"/>
<path opacity="0.5" d="M21.375 8.25H18.25V17H5.75V8.25H2.625V20.125L4.5 21.375H20.125L21.375 19.5V8.25Z" fill="#9BA6B2"/>
<path fill-rule="evenodd" clip-rule="evenodd" d="M4.77778 22C3.24365 22 2 20.7563 2 19.2222V9.77778C2 8.95524 2.44689 8.23708 3.11111 7.85285V4.22222C3.11111 2.99492 4.10603 2 5.33333 2L18.6667 2C19.894 2 20.8889 2.99492 20.8889 4.22222V7.85285C21.5531 8.23708 22 8.95524 22 9.77778V19.2222C22 20.7563 20.7563 22 19.2222 22H4.77778ZM20.8889 9.77778V19.2222C20.8889 20.1427 20.1427 20.8889 19.2222 20.8889H4.77778C3.8573 20.8889 3.11111 20.1427 3.11111 19.2222V9.77778C3.11111 9.16413 3.60857 8.66667 4.22222 8.66667C4.83587 8.66667 5.33333 9.16413 5.33333 9.77778V17.5556H18.6667V9.77778C18.6667 9.16413 19.1641 8.66667 19.7778 8.66667C20.3914 8.66667 20.8889 9.16413 20.8889 9.77778ZM17.5556 16.4444H6.44444V9.77778C6.44444 8.55048 5.44952 7.55556 4.22222 7.55556V4.22222C4.22222 3.60857 4.71968 3.11111 5.33333 3.11111L18.6667 3.11111C19.2803 3.11111 19.7778 3.60857 19.7778 4.22222V7.55556C18.5505 7.55556 17.5556 8.55048 17.5556 9.77778V16.4444Z" fill="#9BA6B2"/>
<path fill-rule="evenodd" clip-rule="evenodd" d="M20.2639 20.5635L17.881 17.5556L18.6667 16.7699L21.0496 19.7778L20.2639 20.5635Z" fill="#9BA6B2"/>
<path fill-rule="evenodd" clip-rule="evenodd" d="M6.11901 17.5556L3.73611 20.5635L2.95044 19.7778L5.33333 16.7699L6.11901 17.5556Z" fill="#9BA6B2"/>
</svg>
