<svg width="24" height="24" viewBox="0 0 24 24" fill="none" xmlns="http://www.w3.org/2000/svg">
<g clip-path="url(#clip0_2517_1153)">
<path d="M18.71 0.00241544C17.065 -0.0543033 15.687 1.2326 15.6307 2.87763C15.5736 4.52262 16.8609 5.9014 18.5055 5.95817C20.1501 6.01493 21.5288 4.72718 21.5852 3.08257C21.6424 1.43796 20.3546 0.0591811 18.71 0.00241544Z" fill="#9BA6B2"/>
<path d="M17.9175 7.1892C16.7916 6.74436 15.518 7.29603 15.074 8.42314V8.42187L12.6946 14.3651L8.04837 12.998C7.04224 12.6149 5.91719 13.0961 5.50033 14.0892L2.53207 21.884C2.20572 22.6602 2.57088 23.5549 3.34826 23.8812C4.12572 24.2075 5.01996 23.842 5.3463 23.0654L8.42974 17.4097L12.0035 18.8239C14.1209 19.6961 15.6161 18.8239 16.4878 16.7062L19.1518 10.0335C19.5963 8.90726 19.0446 7.63404 17.9175 7.1892Z" fill="#9BA6B2"/>
<path d="M6.3857 11.1627L11.0557 8.14061L6.3857 5.11896V6.8591H2.72266V9.4226H6.3857V11.1627Z" fill="#9BA6B2"/>
</g>
<defs>
<clipPath id="clip0_2517_1153">
<rect width="24" height="24" fill="white" transform="translate(0 0.000610352)"/>
</clipPath>
</defs>
</svg>
