<svg width="24" height="24" viewBox="0 0 24 24" fill="none" xmlns="http://www.w3.org/2000/svg">
<path d="M8.7595 11.4228L8.7595 10.9073C8.7595 10.6543 8.74253 10.4531 8.71186 10.2995C8.68674 10.1737 8.63638 10.1023 8.57401 10.0577L8.56582 10.0518L8.55814 10.0453C8.50839 10.0031 8.40241 9.95912 8.19256 9.95912C8.07862 9.95912 7.95784 9.97692 7.82945 10.0147C7.51488 10.1074 7.14172 9.99247 6.99697 9.64243L6.94945 9.52752C6.79407 9.15178 6.93603 8.68655 7.32884 8.50235C7.45473 8.44331 7.59589 8.38654 7.73433 8.35828C8.01637 8.29271 8.32238 8.26086 8.65109 8.26086C8.94214 8.26086 9.20636 8.29838 9.43913 8.37945C9.67447 8.46142 9.87804 8.59101 10.0456 8.76838C10.2449 8.9691 10.3878 9.23334 10.4832 9.54719C10.5909 9.87261 10.6388 10.3134 10.6388 10.8548L10.6388 11.4228H13.3713C13.8397 11.4228 14.2193 11.8029 14.2193 12.2719C14.2193 12.7409 13.8397 13.121 13.3713 13.121H10.6387L10.6387 16.273C10.6387 16.5897 10.6844 16.7525 10.7285 16.8189C10.7431 16.8408 10.8156 16.9063 11.0878 16.9063C11.2826 16.9063 11.4799 16.8689 11.6809 16.7915C11.8848 16.7129 12.0676 16.6076 12.2304 16.4756C12.3924 16.3443 12.5211 16.1957 12.619 16.0299C12.6704 15.9427 12.6919 15.8727 12.7135 15.7624C12.7127 15.7142 12.7091 15.694 12.7056 15.6826C12.7036 15.6758 12.6995 15.6636 12.6749 15.6364C12.6602 15.6203 12.5904 15.5725 12.3716 15.5725C12.3466 15.5725 12.322 15.5729 12.2978 15.5737C11.9698 15.5848 11.597 15.376 11.5381 14.986L11.5105 14.8029C11.4508 14.4073 11.6923 13.9754 12.1457 13.9285C12.3393 13.901 12.537 13.8874 12.7385 13.8874C13.2736 13.8874 13.7298 14.0144 14.0818 14.2938C14.4646 14.5902 14.6345 15.0454 14.6345 15.6024V15.6132L14.6335 15.624C14.6144 15.8407 14.5869 16.0034 14.5326 16.1646C14.4794 16.3228 14.4036 16.4694 14.303 16.6533C14.0858 17.0505 13.7934 17.3947 13.4282 17.6853C13.0667 17.9731 12.6678 18.196 12.2324 18.3537L12.2295 18.3548C11.8028 18.5034 11.3695 18.5783 10.9305 18.5783C10.5726 18.5783 10.2565 18.5371 9.98832 18.4476L9.97774 18.4441C9.72945 18.3485 9.51497 18.2252 9.34025 18.0708L9.33013 18.0618L9.32104 18.0518C9.22598 17.9471 9.13633 17.8336 9.05195 17.7116C8.94841 17.5618 8.87798 17.3703 8.83052 17.1516L8.83007 17.1496C8.78157 16.9165 8.75941 16.6223 8.75941 16.273L8.75941 13.121H8.42829C7.95998 13.121 7.58034 12.7409 7.58034 12.2719C7.58034 11.8029 7.95998 11.4228 8.42829 11.4228H8.7595Z" fill="#9BA6B2"/>
<path fill-rule="evenodd" clip-rule="evenodd" d="M10.8125 5.313C6.47708 5.313 2.9625 8.83244 2.9625 13.1739C2.9625 17.5153 6.47708 21.0348 10.8125 21.0348C15.148 21.0348 18.6625 17.5153 18.6625 13.1739C18.6625 12.6312 19.1019 12.1913 19.6438 12.1913C20.1857 12.1913 20.625 12.6312 20.625 13.1739C20.625 18.6007 16.2318 23 10.8125 23C5.39321 23 1 18.6007 1 13.1739C1 7.74708 5.39321 3.34778 10.8125 3.34778C11.3544 3.34778 11.7938 3.78771 11.7938 4.33039C11.7938 4.87307 11.3544 5.313 10.8125 5.313Z" fill="#9BA6B2"/>
<path d="M21.2599 1.86848C21.7543 1.91896 22.14 2.33725 22.1404 2.84557L22.1397 7.75935C22.1397 8.30201 21.701 8.74127 21.1591 8.74128C20.6172 8.74128 20.1772 8.30201 20.1772 7.75935L20.1772 5.28968L16.7966 8.67495C16.4134 9.05868 15.7914 9.05868 15.4082 8.67495C15.025 8.29121 15.0257 7.66905 15.4089 7.28532L18.8605 3.82888H16.2521C15.7105 3.82849 15.2716 3.38801 15.2716 2.84557C15.2719 2.30343 15.7108 1.86403 16.2521 1.86364L21.1591 1.86295L21.2599 1.86848Z" fill="#9BA6B2"/>
</svg>
