<svg width="24" height="24" viewBox="0 0 24 24" fill="none" xmlns="http://www.w3.org/2000/svg">
<path fill-rule="evenodd" clip-rule="evenodd" d="M13.7778 6.15061C13.7778 4.41091 15.1707 3.00061 16.8889 3.00061C18.6071 3.00061 20 4.41091 20 6.15061C20 7.8903 18.6071 9.30061 16.8889 9.30061C16.0203 9.30061 15.2349 8.94022 14.6705 8.35907L10.1094 11.157C10.1829 11.4255 10.2222 11.7084 10.2222 12.0006C10.2222 12.2631 10.1905 12.5181 10.1308 12.7619L14.7743 15.5401C15.3293 15.0191 16.0724 14.7006 16.8889 14.7006C18.6071 14.7006 20 16.1109 20 17.8506C20 19.5903 18.6071 21.0006 16.8889 21.0006C15.1707 21.0006 13.7778 19.5903 13.7778 17.8506C13.7778 17.5881 13.8095 17.3332 13.8692 17.0894L9.22568 14.3112C8.67066 14.8321 7.92762 15.1506 7.11111 15.1506C5.3929 15.1506 4 13.7403 4 12.0006C4 10.2609 5.3929 8.85061 7.11111 8.85061C7.89732 8.85061 8.61541 9.14589 9.16311 9.63289L13.8371 6.76572C13.7982 6.56678 13.7778 6.36111 13.7778 6.15061ZM16.8889 4.80061C16.1525 4.80061 15.5556 5.40503 15.5556 6.15061C15.5556 6.89618 16.1525 7.50061 16.8889 7.50061C17.6253 7.50061 18.2222 6.89618 18.2222 6.15061C18.2222 5.40503 17.6253 4.80061 16.8889 4.80061ZM7.11111 10.6506C6.37474 10.6506 5.77778 11.255 5.77778 12.0006C5.77778 12.7462 6.37474 13.3506 7.11111 13.3506C7.84748 13.3506 8.44444 12.7462 8.44444 12.0006C8.44444 11.255 7.84748 10.6506 7.11111 10.6506ZM16.8889 16.5006C16.1525 16.5006 15.5556 17.105 15.5556 17.8506C15.5556 18.5962 16.1525 19.2006 16.8889 19.2006C17.6253 19.2006 18.2222 18.5962 18.2222 17.8506C18.2222 17.105 17.6253 16.5006 16.8889 16.5006Z" fill="#1882FF"/>
</svg>
