<svg width="24" height="24" viewBox="0 0 24 24" fill="none" xmlns="http://www.w3.org/2000/svg">
<path d="M17.9016 21.8523C17.082 21.8523 16.3852 21.5649 15.8115 20.9902C15.2377 20.4155 14.9508 19.7176 14.9508 18.8966C14.9508 18.7817 14.959 18.6625 14.9754 18.539C14.9918 18.4155 15.0164 18.3048 15.0492 18.207L8.11475 14.1675C7.83607 14.4139 7.52459 14.607 7.18033 14.7469C6.83607 14.8868 6.47541 14.9564 6.09836 14.9557C5.27869 14.9557 4.58197 14.6684 4.0082 14.0937C3.43443 13.5189 3.14754 12.8211 3.14754 12.0001C3.14754 11.179 3.43443 10.4812 4.0082 9.90646C4.58197 9.33175 5.27869 9.0444 6.09836 9.0444C6.47541 9.0444 6.83607 9.11435 7.18033 9.25425C7.52459 9.39415 7.83607 9.58693 8.11475 9.83257L15.0492 5.79316C15.0164 5.69464 14.9918 5.58397 14.9754 5.46114C14.959 5.33832 14.9508 5.21911 14.9508 5.10351C14.9508 4.28249 15.2377 3.58463 15.8115 3.00991C16.3852 2.4352 17.082 2.14784 17.9016 2.14784C18.7213 2.14784 19.418 2.4352 19.9918 3.00991C20.5656 3.58463 20.8525 4.28249 20.8525 5.10351C20.8525 5.92453 20.5656 6.62239 19.9918 7.19711C19.418 7.77182 18.7213 8.05917 17.9016 8.05917C17.5246 8.05917 17.1639 7.98955 16.8197 7.85031C16.4754 7.71106 16.1639 7.51796 15.8852 7.271L8.95082 11.3104C8.98361 11.4089 9.0082 11.5199 9.02459 11.6434C9.04098 11.7669 9.04918 11.8858 9.04918 12.0001C9.04918 12.115 9.04098 12.2342 9.02459 12.3577C9.0082 12.4812 8.98361 12.5919 8.95082 12.6897L15.8852 16.7291C16.1639 16.4828 16.4754 16.29 16.8197 16.1508C17.1639 16.0116 17.5246 15.9416 17.9016 15.9409C18.7213 15.9409 19.418 16.2283 19.9918 16.803C20.5656 17.3777 20.8525 18.0756 20.8525 18.8966C20.8525 19.7176 20.5656 20.4155 19.9918 20.9902C19.418 21.5649 18.7213 21.8523 17.9016 21.8523ZM17.9016 6.08873C18.1803 6.08873 18.4141 5.99415 18.603 5.80499C18.7918 5.61582 18.8859 5.382 18.8852 5.10351C18.8852 5.0489 18.8816 4.99569 18.8744 4.94452C18.8446 4.73428 18.7538 4.55312 18.602 4.40105C18.4501 4.2489 18.2693 4.15815 18.0597 4.1288C18.0087 4.12166 17.956 4.11816 17.9016 4.11829C17.8471 4.11829 17.7943 4.12191 17.7433 4.12914C17.5332 4.15891 17.3522 4.24987 17.2003 4.40203C17.0484 4.55419 16.9578 4.73526 16.9285 4.94522C16.9214 4.99627 16.9179 5.04904 16.918 5.10351C16.918 5.38266 17.0125 5.61681 17.2013 5.80597C17.3902 5.99513 17.6236 6.08939 17.9016 6.08873ZM6.09836 12.9853C6.37705 12.9853 6.61082 12.8907 6.79967 12.7015C6.98852 12.5124 7.08262 12.2786 7.08197 12.0001C7.08197 11.7209 6.98754 11.4868 6.79869 11.2976C6.60984 11.1084 6.37639 11.0142 6.09836 11.0148C5.81967 11.0148 5.5859 11.1094 5.39705 11.2986C5.2082 11.4877 5.1141 11.7216 5.11475 12.0001C5.11475 12.2792 5.20918 12.5134 5.39803 12.7025C5.58689 12.8917 5.82033 12.9859 6.09836 12.9853ZM17.9016 19.8818C17.9563 19.8818 18.0091 19.8782 18.0603 19.8709C18.2702 19.8411 18.4511 19.7502 18.603 19.5981C18.7549 19.4459 18.8455 19.2647 18.8748 19.0546C18.8819 19.0036 18.8854 18.951 18.8852 18.8966C18.8852 18.8419 18.8816 18.7889 18.8744 18.7376C18.8446 18.5274 18.7538 18.3462 18.602 18.1942C18.4501 18.042 18.2693 17.9513 18.0597 17.9219C18.0087 17.9148 17.956 17.9113 17.9016 17.9114C17.8471 17.9114 17.7943 17.915 17.7433 17.9222C17.5332 17.952 17.3522 18.043 17.2003 18.1951C17.0484 18.3473 16.9578 18.5284 16.9285 18.7383C16.9214 18.7894 16.9179 18.8421 16.918 18.8966C16.918 19.1758 17.0125 19.4099 17.2013 19.5991C17.3902 19.7882 17.6236 19.8825 17.9016 19.8818Z" fill="#9BA6B2"/>
<path d="M6.09836 14.9557C5.27869 14.9557 4.58197 14.6684 4.0082 14.0937C3.43443 13.5189 3.14754 12.8211 3.14754 12.0001C3.14754 11.179 3.43443 10.4812 4.0082 9.90646C4.58197 9.33175 5.27869 9.0444 6.09836 9.0444C6.47541 9.0444 6.83607 9.11435 7.18033 9.25425C7.52459 9.39415 7.83607 9.58693 8.11475 9.83257L8.04058 9.70482L8.13096 9.65217C7.86085 9.42837 7.56231 9.25 7.2358 9.11731C6.87365 8.97014 6.49413 8.89661 6.09836 8.89661C5.24 8.89661 4.50562 9.19922 3.90387 9.80197C3.30212 10.4047 3 11.1403 3 12.0001C3 12.8598 3.30212 13.5954 3.90387 14.1982C4.50556 14.8008 5.23986 15.1034 6.0981 15.1035L6.09836 14.9557Z" fill="#9BA6B2"/>
<path d="M8.13096 9.65217L8.04058 9.70482L8.11475 9.83257L8.21222 9.72163C8.18543 9.69801 8.15834 9.67486 8.13096 9.65217Z" fill="#9BA6B2"/>
<path d="M8.11475 9.83257L15.0492 5.79316L14.9092 5.8399C14.8967 5.80242 14.8854 5.76362 14.8752 5.72353L8.13096 9.65217C8.15834 9.67486 8.18543 9.69801 8.21222 9.72163L8.11475 9.83257Z" fill="#9BA6B2"/>
<path d="M17.9016 21.8523C17.082 21.8523 16.3852 21.5649 15.8115 20.9902C15.2377 20.4155 14.9508 19.7176 14.9508 18.8966C14.9508 18.7817 14.959 18.6625 14.9754 18.539C14.9918 18.4155 15.0164 18.3048 15.0492 18.207L8.11475 14.1675C7.83607 14.4139 7.52459 14.607 7.18033 14.7469C6.83607 14.8868 6.47541 14.9564 6.09836 14.9557L6.0981 15.1035C6.49396 15.1042 6.87357 15.031 7.2358 14.8838C7.56237 14.7511 7.86095 14.5724 8.13108 14.348L14.8751 18.2765C14.8558 18.3527 14.8405 18.4338 14.8292 18.5195C14.812 18.6489 14.8033 18.7746 14.8033 18.8966C14.8033 19.7564 15.1054 20.492 15.7071 21.0947C16.3089 21.6975 17.0433 22.0001 17.9016 22.0001C18.76 22.0001 19.4944 21.6975 20.0961 21.0947C20.6979 20.492 21 19.7564 21 18.8966C21 18.0368 20.6979 17.3013 20.0961 16.6985C19.4944 16.0958 18.7597 15.7932 17.9014 15.7932C17.5058 15.7939 17.1264 15.8673 16.7644 16.0138C16.4378 16.1459 16.1391 16.3243 15.8689 16.5487L9.12485 12.6201C9.14421 12.544 9.15946 12.4629 9.17084 12.3772C9.18802 12.2478 9.19672 12.122 9.19672 12.0001C9.19672 11.8787 9.18802 11.7533 9.17084 11.6239C9.15944 11.538 9.14414 11.4566 9.12473 11.3801L15.8688 7.45153C16.139 7.67648 16.4377 7.85519 16.7644 7.98734C17.1265 8.1338 17.506 8.20696 17.9016 8.20696C18.76 8.20696 19.4944 7.90435 20.0961 7.3016C20.6979 6.69886 21 5.96327 21 5.10351C21 4.24374 20.6979 3.50816 20.0961 2.90541C19.4944 2.30267 18.76 2.00006 17.9016 2.00006C17.0433 2.00006 16.3089 2.30267 15.7071 2.90541C15.1054 3.50816 14.8033 4.24374 14.8033 5.10351C14.8033 5.22611 14.812 5.35187 14.8292 5.48073C14.8406 5.56619 14.8559 5.64719 14.8752 5.72353L14.975 5.66541L15.0492 5.79316C15.0164 5.69464 14.9918 5.58397 14.9754 5.46114C14.959 5.33832 14.9508 5.21911 14.9508 5.10351C14.9508 4.28249 15.2377 3.58463 15.8115 3.00991C16.3852 2.4352 17.082 2.14784 17.9016 2.14784C18.7213 2.14784 19.418 2.4352 19.9918 3.00991C20.5656 3.58463 20.8525 4.28249 20.8525 5.10351C20.8525 5.92453 20.5656 6.62239 19.9918 7.19711C19.418 7.77182 18.7213 8.05917 17.9016 8.05917C17.5246 8.05917 17.1639 7.98955 16.8197 7.85031C16.4754 7.71106 16.1639 7.51796 15.8852 7.271L8.95082 11.3104C8.98361 11.4089 9.0082 11.5199 9.02459 11.6434C9.04098 11.7669 9.04918 11.8858 9.04918 12.0001C9.04918 12.115 9.04098 12.2342 9.02459 12.3577C9.0082 12.4812 8.98361 12.5919 8.95082 12.6897L15.8852 16.7291C16.1639 16.4828 16.4754 16.29 16.8197 16.1508C17.1639 16.0116 17.5246 15.9416 17.9016 15.9409C18.7213 15.9409 19.418 16.2283 19.9918 16.803C20.5656 17.3777 20.8525 18.0756 20.8525 18.8966C20.8525 19.7176 20.5656 20.4155 19.9918 20.9902C19.418 21.5649 18.7213 21.8523 17.9016 21.8523Z" fill="#9BA6B2"/>
<path d="M14.8752 5.72353C14.8854 5.76362 14.8967 5.80242 14.9092 5.8399L15.0492 5.79316L14.975 5.66541L14.8752 5.72353Z" fill="#9BA6B2"/>
</svg>
