<svg width="24" height="24" viewBox="0 0 24 24" fill="none" xmlns="http://www.w3.org/2000/svg">
<path opacity="0.2" d="M6 21.0006H18C19.1046 21.0006 20 20.1052 20 19.0006V12.1959H4V19.0006C4 20.1052 4.89543 21.0006 6 21.0006Z" fill="#77818C"/>
<path d="M4 12.1959V19.0006C4 20.1052 4.89543 21.0006 6 21.0006H18C19.1046 21.0006 20 20.1052 20 19.0006V12.1959" stroke="#77818C" stroke-width="1.5" stroke-linecap="round"/>
<path d="M10.1934 17.8073C10.1934 16.8095 11.0022 16.0006 12.0001 16.0006V16.0006C12.9979 16.0006 13.8068 16.8095 13.8068 17.8073V21.0006H10.1934V17.8073Z" stroke="#77818C" stroke-width="1.5"/>
<path opacity="0.5" d="M4.71763 4.25339C5.02252 3.49642 5.75674 3.00061 6.5728 3.00061H9.77778H14.2222H17.4272C18.2433 3.00061 18.9775 3.49642 19.2824 4.25339L20.9464 8.38474C21.5365 9.84993 20.8737 11.5205 19.4395 12.1824V12.1824C18.3639 12.6788 17.0959 12.4869 16.2154 11.6944L15.4444 11.0006C15.4444 11.0006 13.9405 13.0006 12 13.0006C10.0595 13.0006 8.55556 11.0006 8.55556 11.0006L7.78463 11.6944C6.90408 12.4869 5.63614 12.6788 4.56052 12.1824V12.1824C3.12634 11.5205 2.46347 9.84993 3.05361 8.38474L4.71763 4.25339Z" fill="#77818C"/>
<path d="M8.55556 11.0006C8.55556 11.0006 10.0595 13.0006 12 13.0006C13.9405 13.0006 15.4444 11.0006 15.4444 11.0006M8.55556 11.0006L7.78463 11.6944C6.90408 12.4869 5.63614 12.6788 4.56052 12.1824V12.1824C3.12634 11.5205 2.46347 9.84993 3.05361 8.38474L4.71763 4.25339C5.02252 3.49642 5.75674 3.00061 6.5728 3.00061H9.77778M8.55556 11.0006L9.77778 3.00061M15.4444 11.0006L16.2154 11.6944C17.0959 12.4869 18.3639 12.6788 19.4395 12.1824V12.1824C20.8737 11.5205 21.5365 9.84993 20.9464 8.38474L19.2824 4.25339C18.9775 3.49642 18.2433 3.00061 17.4272 3.00061H14.2222M15.4444 11.0006L14.2222 3.00061M9.77778 3.00061H14.2222" stroke="#77818C" stroke-width="1.5"/>
</svg>
