<svg width="24" height="24" viewBox="0 0 24 24" fill="none" xmlns="http://www.w3.org/2000/svg">
<path fill-rule="evenodd" clip-rule="evenodd" d="M21.0496 8.00618H11.9492C11.6973 8.00618 11.4557 7.90088 11.2776 7.71346C11.0994 7.52603 10.9994 7.27182 10.9994 7.00676C10.9994 6.7417 11.0994 6.4875 11.2776 6.30007C11.4557 6.11265 11.6973 6.00735 11.9492 6.00735H21.0496C21.3015 6.00735 21.5431 6.11265 21.7212 6.30007C21.8993 6.4875 21.9994 6.7417 21.9994 7.00676C21.9994 7.27182 21.8993 7.52603 21.7212 7.71346C21.5431 7.90088 21.3015 8.00618 21.0496 8.00618ZM11.9492 16.0015H21.0496C21.3015 16.0015 21.5431 16.1068 21.7212 16.2942C21.8993 16.4816 21.9994 16.7358 21.9994 17.0009C21.9994 17.266 21.8993 17.5202 21.7212 17.7076C21.5431 17.895 21.3015 18.0003 21.0496 18.0003H11.9492C11.6973 18.0003 11.4557 17.895 11.2776 17.7076C11.0994 17.5202 10.9994 17.266 10.9994 17.0009C10.9994 16.7358 11.0994 16.4816 11.2776 16.2942C11.4557 16.1068 11.6973 16.0015 11.9492 16.0015Z" fill="#1882FF"/>
<path d="M21.0496 11.0044H13.9492C13.6973 11.0044 13.4557 11.1097 13.2776 11.2971C13.0994 11.4846 12.9994 11.7388 12.9994 12.0038C12.9994 12.2689 13.0994 12.5231 13.2776 12.7105C13.4557 12.8979 13.6973 13.0032 13.9492 13.0032H21.0496C21.3015 13.0032 21.5431 12.8979 21.7212 12.7105C21.8993 12.5231 21.9994 12.2689 21.9994 12.0038C21.9994 11.7388 21.8993 11.4846 21.7212 11.2971C21.5431 11.1097 21.3015 11.0044 21.0496 11.0044Z" fill="#1882FF"/>
<path d="M7.00049 6.99974C7.00049 6.50002 6.52996 6.00031 5.98916 6.00031C5.44836 6.00031 5.00049 6.50002 5.00049 6.99974V14.0887L3.99994 12.4963C3.68154 12.071 3.30518 11.9969 3.00049 11.9969C2.4482 11.9969 2.00049 12.4444 2.00049 12.9963C2.00049 13.2277 2.07913 13.4406 2.21115 13.61L2.21401 13.6137L5.48631 17.7921C5.6194 17.9211 5.80017 17.9935 5.98916 17.9935C6.17816 17.9935 6.35973 17.9211 6.49281 17.7921L9.77588 13.6272C9.9163 13.4551 10.0005 13.2354 10.0005 12.996C10.0005 12.6896 9.86254 12.4154 9.64529 12.2321C9.4712 12.0851 9.2462 11.9966 9.00051 11.9966C8.67184 11.9966 8.38021 12.155 8.19793 12.3997L7.00049 14.0887V6.99974Z" fill="#1882FF"/>
</svg>
