<svg width="24" height="24" viewBox="0 0 24 24" fill="none" xmlns="http://www.w3.org/2000/svg">
<path opacity="0.24" d="M12.0001 20.6462C17.0541 20.6462 21.1511 16.5523 21.1511 11.5022C21.1511 6.45206 17.0541 2.35815 12.0001 2.35815C6.94616 2.35815 2.84912 6.45206 2.84912 11.5022C2.84912 16.5523 6.94616 20.6462 12.0001 20.6462Z" fill="#1882FF"/>
<path opacity="0.72" d="M12.0001 20.6461C10.9368 20.6481 9.88146 20.4633 8.88212 20.1001L7.93311 22.0001H16.0671L15.1181 20.1001C14.1187 20.4633 13.0634 20.6481 12.0001 20.6461Z" fill="#1882FF"/>
<g opacity="0.7">
<path opacity="0.4" d="M4.79909 8.52209C4.01098 10.431 4.01098 12.5743 4.79909 14.4831L11.9991 11.5021L4.79909 8.52209Z" fill="#1882FF"/>
<path opacity="0.4" d="M19.201 8.52209L12.001 11.5031L19.201 14.4841C19.5933 13.5394 19.7953 12.5265 19.7953 11.5036C19.7953 10.4807 19.5933 9.4678 19.201 8.5231V8.52209Z" fill="#1882FF"/>
</g>
<g opacity="0.9">
<path opacity="0.6" d="M9.01834 4.30505C7.10845 5.09598 5.59063 6.61272 4.79834 8.52205L11.9983 11.5051L9.01834 4.30505Z" fill="#1882FF"/>
<path opacity="0.6" d="M19.2005 8.52205C18.4084 6.61291 16.891 5.0962 14.9815 4.30505L12.0005 11.5051L19.2005 8.52205Z" fill="#1882FF"/>
<path opacity="0.6" d="M9.01855 18.7021C10.9289 19.4895 13.0731 19.4895 14.9835 18.7021L12.0015 11.5021L9.01855 18.7021Z" fill="#1882FF"/>
</g>
<g opacity="0.6">
<path opacity="0.2" d="M14.9835 4.30512C13.0731 3.51776 10.9289 3.51776 9.01855 4.30512L12.0015 11.5051L14.9835 4.30512Z" fill="#1882FF"/>
<path opacity="0.2" d="M14.9835 18.7021C16.8928 17.9112 18.4102 16.3949 19.2025 14.4861L12.0005 11.5021L14.9835 18.7021Z" fill="#1882FF"/>
<path opacity="0.2" d="M4.79834 14.4831C5.59063 16.3924 7.10845 17.9092 9.01834 18.7001L12.0013 11.5001L4.79834 14.4831Z" fill="#1882FF"/>
</g>
<path d="M14.2611 2.0011H9.51611L11.8881 5.7261L14.2611 2.0011Z" fill="#1882FF"/>
</svg>
