<svg width="24" height="24" viewBox="0 0 24 24" fill="none" xmlns="http://www.w3.org/2000/svg">
<path d="M22 9.67063C21.9368 9.48772 21.822 9.32706 21.6693 9.20814C21.5167 9.08921 21.3328 9.01713 21.14 9.00063L15.45 8.17063L12.9 3.00063C12.8181 2.83156 12.6902 2.68898 12.5311 2.58921C12.3719 2.48944 12.1878 2.43652 12 2.43652C11.8121 2.43652 11.6281 2.48944 11.4689 2.58921C11.3097 2.68898 11.1819 2.83156 11.1 3.00063L8.54998 8.16063L2.85998 9.00063C2.6749 9.02694 2.5009 9.1046 2.35773 9.22479C2.21455 9.34499 2.10794 9.50291 2.04998 9.68063C1.99692 9.85431 1.99216 10.0392 2.03621 10.2153C2.08025 10.3915 2.17144 10.5524 2.29998 10.6806L6.42998 14.6806L5.42998 20.3606C5.3896 20.5491 5.40453 20.7451 5.47296 20.9253C5.54139 21.1054 5.66041 21.2619 5.81571 21.376C5.971 21.4901 6.15595 21.5569 6.34831 21.5684C6.54066 21.5798 6.73224 21.5355 6.89998 21.4406L12 18.7706L17.1 21.4406C17.2403 21.5198 17.3988 21.5612 17.56 21.5606C17.7718 21.5614 17.9784 21.4949 18.15 21.3706C18.3051 21.2595 18.4252 21.1063 18.4961 20.9291C18.567 20.7519 18.5857 20.5581 18.55 20.3706L17.55 14.6906L21.68 10.6906C21.8244 10.5683 21.9311 10.4075 21.9877 10.227C22.0444 10.0464 22.0486 9.85351 22 9.67063ZM15.85 13.6706C15.7342 13.783 15.6474 13.9218 15.5969 14.075C15.5464 14.2283 15.5337 14.3914 15.56 14.5506L16.28 18.7506L12.52 16.7506C12.3738 16.6783 12.213 16.6407 12.05 16.6407C11.8869 16.6407 11.7261 16.6783 11.58 16.7506L7.81998 18.7506L8.53998 14.5506C8.56622 14.3914 8.55355 14.2283 8.50305 14.075C8.45255 13.9218 8.36572 13.783 8.24998 13.6706L5.24998 10.6706L9.45998 10.0606C9.62198 10.0381 9.77598 9.97617 9.90848 9.88029C10.041 9.7844 10.1479 9.65747 10.22 9.51063L12 5.70063L13.88 9.52063C13.952 9.66747 14.059 9.7944 14.1915 9.89029C14.324 9.98617 14.478 10.0481 14.64 10.0706L18.85 10.6806L15.85 13.6706Z" fill="#F27D00"/>
</svg>
