<svg width="24" height="24" viewBox="0 0 24 24" fill="none" xmlns="http://www.w3.org/2000/svg">
<path d="M4 10.4362V16.5114C4 17.0135 4.16453 17.4406 4.49359 17.7929C4.82265 18.1451 5.23789 18.3369 5.73932 18.3682C6.74217 18.5249 7.71368 18.7835 8.65385 19.1439C9.59402 19.5043 10.4715 19.9822 11.2863 20.5776C11.4581 20.718 11.642 20.8236 11.8382 20.8945C12.0344 20.9653 12.2422 21.0007 12.4615 21.0007C12.6803 21.0001 12.8877 20.9646 13.0839 20.8945C13.2801 20.8243 13.4644 20.7186 13.6368 20.5776C14.4516 19.9822 15.3291 19.5043 16.2692 19.1439C17.2094 18.7835 18.1809 18.5249 19.1838 18.3682C19.6852 18.3375 20.1004 18.1457 20.4295 17.7929C20.7585 17.44 20.9231 17.0128 20.9231 16.5114V10.4362C20.9237 9.93479 20.7397 9.51172 20.3712 9.16699C20.0026 8.82226 19.5677 8.66557 19.0662 8.69691C17.829 8.88432 16.65 9.24847 15.5293 9.78938C14.4086 10.3303 13.386 11.0316 12.4615 11.8935C11.5377 11.0323 10.5154 10.3312 9.3947 9.79032C8.27402 9.24941 7.09473 8.88494 5.85684 8.69691C5.35604 8.66557 4.92137 8.82226 4.55282 9.16699C4.18427 9.51172 4 9.93479 4 10.4362Z" fill="#FFE1C2"/>
<path fill-rule="evenodd" clip-rule="evenodd" d="M4 16.5114V10.4362C4 9.93479 4.18427 9.51172 4.55282 9.16699C4.92137 8.82226 5.35604 8.66557 5.85684 8.69691C7.09473 8.88494 8.27402 9.24941 9.3947 9.79032C10.5154 10.3312 11.5377 11.0323 12.4615 11.8935C13.386 11.0316 14.4086 10.3303 15.5293 9.78938C16.65 9.24847 17.829 8.88432 19.0662 8.69691C19.5677 8.66557 20.0026 8.82226 20.3712 9.16699C20.7397 9.51172 20.9237 9.93479 20.9231 10.4362V16.5114C20.9231 17.0128 20.7585 17.44 20.4295 17.7929C20.1004 18.1457 19.6852 18.3375 19.1838 18.3682C18.1809 18.5249 17.2094 18.7835 16.2692 19.1439C15.3291 19.5043 14.4516 19.9822 13.6368 20.5776C13.4644 20.7186 13.2801 20.8243 13.0839 20.8945C12.8877 20.9646 12.6803 21.0001 12.4615 21.0007C12.2422 21.0007 12.0344 20.9653 11.8382 20.8945C11.642 20.8236 11.4581 20.718 11.2863 20.5776C10.4715 19.9822 9.59402 19.5043 8.65385 19.1439C7.71367 18.7835 6.74216 18.5249 5.73932 18.3682C5.23789 18.3369 4.82265 18.1451 4.49359 17.7929C4.16453 17.4406 4 17.0135 4 16.5114ZM15.6111 17.3341C14.4986 17.7728 13.4487 18.3604 12.4615 19.0969C11.4744 18.3604 10.4245 17.7728 9.31196 17.3341C8.19943 16.8953 7.05556 16.6054 5.88034 16.4644V10.6242C7.02359 10.8273 8.14772 11.2385 9.25273 11.8577C10.3577 12.477 11.4274 13.3037 12.4615 14.3379C13.4951 13.3043 14.5644 12.4779 15.6694 11.8587C16.7744 11.2394 17.8989 10.8279 19.0427 10.6242V16.4644C17.8675 16.6054 16.7236 16.8953 15.6111 17.3341Z" fill="#F27D00"/>
<path fill-rule="evenodd" clip-rule="evenodd" d="M12.5473 6.76984C13.6094 6.76984 14.4704 5.90885 14.4704 4.84676C14.4704 3.78468 13.6094 2.92369 12.5473 2.92369C11.4852 2.92369 10.6242 3.78468 10.6242 4.84676C10.6242 5.90885 11.4852 6.76984 12.5473 6.76984ZM12.5473 8.69292C14.6715 8.69292 16.3935 6.97094 16.3935 4.84676C16.3935 2.72259 14.6715 1.00061 12.5473 1.00061C10.4232 1.00061 8.70117 2.72259 8.70117 4.84676C8.70117 6.97094 10.4232 8.69292 12.5473 8.69292Z" fill="#F27D00"/>
</svg>
