<svg width="24" height="24" viewBox="0 0 24 24" fill="none" xmlns="http://www.w3.org/2000/svg">
<path d="M7 12.5048C7.59334 12.5048 8.17336 12.3274 8.66671 11.995C9.16006 11.6626 9.54458 11.1901 9.77164 10.6374C9.9987 10.0846 10.0581 9.47642 9.94236 8.88963C9.8266 8.30284 9.54088 7.76383 9.12132 7.34078C8.70176 6.91773 8.16721 6.62962 7.58527 6.5129C7.00333 6.39618 6.40013 6.45609 5.85195 6.68504C5.30377 6.914 4.83524 7.30172 4.50559 7.79918C4.17595 8.29664 4 8.88149 4 9.47978C4 10.2821 4.31607 11.0515 4.87868 11.6188C5.44129 12.1861 6.20435 12.5048 7 12.5048V12.5048ZM7 8.47144C7.19778 8.47144 7.39112 8.53058 7.55557 8.64138C7.72002 8.75218 7.84819 8.90966 7.92388 9.0939C7.99957 9.27815 8.01937 9.4809 7.98079 9.67649C7.9422 9.87209 7.84696 10.0518 7.70711 10.1928C7.56725 10.3338 7.38907 10.4298 7.19509 10.4687C7.00111 10.5076 6.80004 10.4877 6.61732 10.4114C6.43459 10.335 6.27841 10.2058 6.16853 10.04C6.05865 9.87416 6 9.67921 6 9.47978C6 9.21235 6.10536 8.95588 6.29289 8.76678C6.48043 8.57768 6.73478 8.47144 7 8.47144ZM20 6.45478H12C11.7348 6.45478 11.4804 6.56101 11.2929 6.75011C11.1054 6.93921 11 7.19568 11 7.46311V13.5131H3V5.44644C3 5.17902 2.89464 4.92254 2.70711 4.73344C2.51957 4.54435 2.26522 4.43811 2 4.43811C1.73478 4.43811 1.48043 4.54435 1.29289 4.73344C1.10536 4.92254 1 5.17902 1 5.44644V18.5548C1 18.8222 1.10536 19.0787 1.29289 19.2678C1.48043 19.4569 1.73478 19.5631 2 19.5631C2.26522 19.5631 2.51957 19.4569 2.70711 19.2678C2.89464 19.0787 3 18.8222 3 18.5548V15.5298H21V18.5548C21 18.8222 21.1054 19.0787 21.2929 19.2678C21.4804 19.4569 21.7348 19.5631 22 19.5631C22.2652 19.5631 22.5196 19.4569 22.7071 19.2678C22.8946 19.0787 23 18.8222 23 18.5548V9.47978C23 8.6775 22.6839 7.90808 22.1213 7.34078C21.5587 6.77348 20.7956 6.45478 20 6.45478ZM21 13.5131H13V8.47144H20C20.2652 8.47144 20.5196 8.57768 20.7071 8.76678C20.8946 8.95588 21 9.21235 21 9.47978V13.5131Z" fill="#9BA6B2"/>
</svg>
