<svg width="24" height="24" viewBox="0 0 24 24" fill="none" xmlns="http://www.w3.org/2000/svg">
<g clip-path="url(#clip0_2517_1189)">
<path d="M11.9223 20.6655C10.5738 20.6655 9.24415 20.3414 7.97076 19.7019C7.90379 19.8087 7.83938 19.912 7.77293 20.0142C7.60832 20.2673 7.36295 20.4124 7.09968 20.4124C6.94684 20.4124 6.79041 20.3634 6.64728 20.2698C4.21245 18.68 2.70289 16.4343 2.16 13.5956C2.11042 13.3375 2.07821 13.0747 2.04703 12.8207C2.03272 12.7036 2.0184 12.5865 2.00204 12.47L2 12.4562V11.2395L2.00204 11.2252C2.02096 11.0908 2.03834 10.9553 2.05572 10.8204C2.09559 10.5101 2.137 10.189 2.19834 9.87414C2.27656 9.4703 2.39158 9.07668 2.5025 8.70759C2.6073 8.35896 2.88897 8.14221 3.2376 8.14221C3.32757 8.14221 3.42061 8.15653 3.51365 8.18515C3.63276 8.22145 3.7488 8.2603 3.86126 8.29762C3.91187 8.20202 3.96146 8.10592 4.01002 8.01237C4.17053 7.70207 4.33718 7.38155 4.53195 7.08353C6.02311 4.80053 8.14661 3.452 10.8437 3.07524C11.1933 3.02617 11.545 3.01186 11.8753 3.00163C11.8891 3.00061 11.9024 3.00061 11.9151 3.00061C12.4238 3.00061 12.7397 3.32624 12.7397 3.84971C12.7402 5.58777 12.7402 7.32583 12.7402 9.0639V11.0489H19.8831C20.1766 11.0489 20.402 11.1266 20.5533 11.2799C20.7036 11.4323 20.7782 11.6567 20.7742 11.946C20.7471 13.9601 20.0288 15.9195 18.7524 17.4633C17.4739 19.0092 15.6816 20.0812 13.7059 20.4825C13.1088 20.6041 12.5086 20.6655 11.9223 20.6655ZM8.80452 18.3625C9.72569 18.8415 10.8391 19.1038 11.9652 19.1038C11.9652 19.1038 11.9652 19.1038 11.9658 19.1038C13.349 19.1038 14.6863 18.7117 15.8329 17.9705C17.752 16.7298 18.8771 14.9268 19.1787 12.609H17.8711C16.0804 12.609 14.2283 12.609 12.4069 12.6049L12.4064 12.4005V12.6049C12.4023 12.6049 12.3992 12.6049 12.3967 12.6055C12.3875 12.6167 12.3716 12.6412 12.364 12.654C11.8195 13.5287 11.2746 14.4023 10.7292 15.2765L8.80452 18.3625ZM3.77436 9.91606C3.37869 11.7073 3.51416 13.385 4.1874 15.0367C4.75125 16.4205 5.65198 17.5932 6.86658 18.5261L10.7782 12.2553L3.77436 9.91606ZM11.1698 10.7406V4.60985C8.69564 4.8312 6.36254 6.51968 5.37235 8.80421L11.1698 10.7406Z" fill="#9BA6B2"/>
<path d="M17.7306 10.3082C16.5881 10.3082 15.4451 10.3077 14.3025 10.3071C13.8322 10.3066 13.4862 9.98356 13.4805 9.5383C13.478 9.33076 13.5531 9.13753 13.6932 8.99439C13.8455 8.83848 14.0633 8.75158 14.3051 8.74902C14.368 8.74851 14.4308 8.74851 14.4947 8.74851H14.6271V8.32268C14.6271 7.97763 14.6266 7.63257 14.6277 7.287C14.6292 6.80392 14.9543 6.45171 15.4006 6.44864H15.4057C15.8545 6.44864 16.1812 6.7983 16.1832 7.27984C16.1848 7.66426 16.1842 8.04868 16.1842 8.43719V8.73522H16.9229C16.9229 8.73522 16.9229 8.22095 16.9224 7.96433C16.9219 7.35601 16.9214 6.72724 16.9239 6.10818C16.926 5.65322 17.2639 5.29692 17.6933 5.29692C17.8104 5.29692 17.9254 5.32401 18.0353 5.37769C18.3267 5.5198 18.4805 5.77693 18.48 6.12045C18.4795 6.74104 18.4795 7.36112 18.4795 7.98172V8.73777H19.2187V7.6796C19.2182 6.77632 19.2182 5.87252 19.2197 4.96924C19.2207 4.50814 19.5581 4.14673 19.9886 4.14673C20.1092 4.14673 20.2278 4.17536 20.3408 4.23261C20.6311 4.37881 20.7778 4.63594 20.7768 4.99787C20.7748 5.91035 20.7753 6.82232 20.7753 7.73481V8.748L20.9578 8.74749C21.034 8.74749 21.1086 8.74749 21.1837 8.74851C21.6545 8.75362 21.9976 9.07976 21.9991 9.5245C22.0001 9.73358 21.9219 9.92784 21.7788 10.0715C21.628 10.2228 21.4179 10.3061 21.1863 10.3066C20.0351 10.3077 18.8828 10.3082 17.7306 10.3082Z" fill="#9BA6B2"/>
</g>
<defs>
<clipPath id="clip0_2517_1189">
<rect width="20" height="17.6649" fill="white" transform="translate(2 3.00061)"/>
</clipPath>
</defs>
</svg>
