<svg width="24" height="24" viewBox="0 0 24 24" fill="none" xmlns="http://www.w3.org/2000/svg">
<path fill-rule="evenodd" clip-rule="evenodd" d="M4.93553 12.7021C4.93553 8.45082 8.3221 5.00473 12.5 5.00473C16.6779 5.00473 20.0644 8.45082 20.0644 12.7021C20.0644 13.2192 19.6525 13.6383 19.1444 13.6383C18.6363 13.6383 18.2244 13.2192 18.2244 12.7021C18.2244 9.48489 15.6617 6.87707 12.5 6.87707C9.3383 6.87707 6.77553 9.48489 6.77553 12.7021C6.77553 13.2192 6.36363 13.6383 5.85553 13.6383C5.34743 13.6383 4.93553 13.2192 4.93553 12.7021Z" fill="#9BA6B2"/>
<path fill-rule="evenodd" clip-rule="evenodd" d="M12.5 1C13.2057 1 13.7778 1.58214 13.7778 2.30024V2.38344C13.7778 3.10154 13.2057 3.68367 12.5 3.68367C11.7943 3.68367 11.2222 3.10154 11.2222 2.38344V2.30024C11.2222 1.58214 11.7943 1 12.5 1ZM4.29779 4.35576C4.7968 3.84798 5.60584 3.84798 6.10484 4.35576L6.23774 4.49099C6.73674 4.99876 6.73674 5.82202 6.23774 6.3298C5.73873 6.83757 4.92969 6.83757 4.43069 6.3298L4.29779 6.19457C3.79879 5.68679 3.79879 4.86353 4.29779 4.35576ZM20.7022 4.35576C21.2012 4.86353 21.2012 5.68679 20.7022 6.19457L20.5693 6.3298C20.0703 6.83757 19.2613 6.83757 18.7623 6.3298C18.2633 5.82202 18.2633 4.99876 18.7623 4.49099L18.8952 4.35576C19.3942 3.84798 20.2032 3.84798 20.7022 4.35576ZM1 12.7021C1 11.984 1.57208 11.4019 2.27778 11.4019H2.35957C3.06527 11.4019 3.63735 11.984 3.63735 12.7021C3.63735 13.4202 3.06527 14.0024 2.35957 14.0024H2.27778C1.57208 14.0024 1 13.4202 1 12.7021ZM21.3627 12.7021C21.3627 11.984 21.9347 11.4019 22.6404 11.4019H22.7222C23.4279 11.4019 24 11.984 24 12.7021C24 13.4202 23.4279 14.0024 22.7222 14.0024H22.6404C21.9347 14.0024 21.3627 13.4202 21.3627 12.7021Z" fill="#9BA6B2"/>
<path fill-rule="evenodd" clip-rule="evenodd" d="M3.4022 15.8227C3.4022 15.3057 3.8141 14.8865 4.3222 14.8865H20.6778C21.1859 14.8865 21.5978 15.3057 21.5978 15.8227C21.5978 16.3397 21.1859 16.7589 20.6778 16.7589H4.3222C3.8141 16.7589 3.4022 16.3397 3.4022 15.8227Z" fill="#9BA6B2"/>
<path fill-rule="evenodd" clip-rule="evenodd" d="M5.44664 18.9433C5.44664 18.4262 5.85854 18.0071 6.36664 18.0071H18.6333C19.1414 18.0071 19.5533 18.4262 19.5533 18.9433C19.5533 19.4603 19.1414 19.8794 18.6333 19.8794H6.36664C5.85854 19.8794 5.44664 19.4603 5.44664 18.9433Z" fill="#9BA6B2"/>
<path fill-rule="evenodd" clip-rule="evenodd" d="M8.51331 22.0638C8.51331 21.5468 8.92521 21.1277 9.43331 21.1277H15.5666C16.0747 21.1277 16.4866 21.5468 16.4866 22.0638C16.4866 22.5809 16.0747 23 15.5666 23H9.43331C8.92521 23 8.51331 22.5809 8.51331 22.0638Z" fill="#9BA6B2"/>
</svg>
