<svg width="24" height="24" viewBox="0 0 24 24" fill="none" xmlns="http://www.w3.org/2000/svg">
<path fill-rule="evenodd" clip-rule="evenodd" d="M8.37945 4.00061C8.82093 4.00061 9.20544 4.05757 9.53299 4.1715C9.86054 4.28543 10.1382 4.46345 10.3661 4.70555C10.6367 4.97613 10.8432 5.3464 10.9856 5.81636C11.1422 6.28632 11.2206 6.95566 11.2206 7.82437V9.3197H18.4195V11.285H11.2206V16.6468C11.2206 17.1737 11.2918 17.544 11.4342 17.7576C11.5766 17.9712 11.8828 18.078 12.3528 18.078C12.7231 18.078 13.0933 18.0068 13.4636 17.8644C13.8339 17.722 14.1685 17.5298 14.4676 17.2877C14.7667 17.0456 15.0088 16.7679 15.1939 16.4545C15.379 16.127 15.4716 15.7923 15.4716 15.4505C15.4716 15.2227 15.3933 15.0375 15.2366 14.8951C15.0942 14.7385 14.8308 14.6602 14.4462 14.6602C14.1329 14.6602 13.8481 14.6958 13.5918 14.767L13.3141 12.9298C13.5562 12.8586 13.8267 12.8088 14.1258 12.7803C14.4249 12.7376 14.7311 12.7162 15.0444 12.7162C15.8561 12.7162 16.5041 12.9085 16.9883 13.293C17.4867 13.6775 17.736 14.2828 17.736 15.1088C17.736 15.8208 17.5722 16.4759 17.2446 17.074C16.9171 17.6722 16.4756 18.192 15.9202 18.6335C15.3648 19.0749 14.7524 19.4167 14.0831 19.6588C13.428 19.8867 12.7658 20.0006 12.0964 20.0006C11.541 20.0006 11.0711 19.9365 10.6866 19.8084C10.3163 19.6659 10.0101 19.4879 9.768 19.2743C9.62559 19.1177 9.4903 18.9468 9.36213 18.7616C9.23396 18.5765 9.13427 18.3201 9.06306 17.9926C8.99186 17.6508 8.95625 17.2022 8.95625 16.6468V11.285H7.03369V9.3197H8.95622V7.90982C8.95622 7.48259 8.92774 7.12656 8.87077 6.84173C8.81381 6.55691 8.68564 6.34329 8.48626 6.20088C8.30113 6.04422 8.0163 5.9659 7.63179 5.9659C7.40393 5.9659 7.16895 6.0015 6.92685 6.07271C6.69899 6.12967 6.48537 6.19376 6.28599 6.26496L5.58105 4.57738C6.0795 4.378 6.54234 4.23559 6.96957 4.15014C7.39681 4.05045 7.86677 4.00061 8.37945 4.00061Z" fill="#9BA6B2"/>
</svg>
