<svg width="24" height="24" viewBox="0 0 24 24" fill="none" xmlns="http://www.w3.org/2000/svg">
<path d="M17.6169 9.65482V11.3744H11.3179V16.066C11.3179 16.5271 11.3802 16.8511 11.5048 17.038C11.6294 17.2249 11.8973 17.3184 12.3085 17.3184C12.6325 17.3184 12.9565 17.2561 13.2805 17.1315C13.6045 17.0068 13.8973 16.8386 14.159 16.6268C14.4207 16.4149 14.6325 16.172 14.7945 15.8978C14.9565 15.6112 15.0375 15.3184 15.0375 15.0193C15.0375 14.8199 14.969 14.6579 14.8319 14.5333C14.7073 14.3962 14.4768 14.3277 14.1403 14.3277C13.8662 14.3277 13.6169 14.3589 13.3926 14.4212L13.1497 12.8137C13.3615 12.7514 13.5983 12.7078 13.8599 12.6829C14.1216 12.6455 14.3895 12.6268 14.6637 12.6268C15.374 12.6268 15.9409 12.795 16.3646 13.1315C16.8007 13.4679 17.0188 13.9975 17.0188 14.7202C17.0188 15.3433 16.8755 15.9165 16.5889 16.4399C16.3023 16.9632 15.916 17.4181 15.43 17.8043C14.944 18.1906 14.4082 18.4897 13.8226 18.7015C13.2493 18.9009 12.6699 19.0006 12.0842 19.0006C11.5983 19.0006 11.187 18.9445 10.8506 18.8324C10.5266 18.7078 10.2587 18.552 10.0469 18.3651C9.92224 18.228 9.80386 18.0785 9.69171 17.9165C9.57956 17.7545 9.49234 17.5302 9.43003 17.2436C9.36772 16.9445 9.33657 16.552 9.33657 16.066V11.3744H7.65433V9.65482H17.6169ZM8.8319 5.00061C9.21819 5.00061 9.55464 5.05045 9.84124 5.15014C10.1278 5.24983 10.3708 5.40559 10.5702 5.61743C10.807 5.85419 10.9877 6.17818 11.1123 6.5894C11.2493 7.00061 11.3179 7.58628 11.3179 8.3464V9.76697H9.33657V8.42117C9.33657 8.04734 9.31165 7.73581 9.26181 7.48659C9.21196 7.23737 9.09981 7.05045 8.92536 6.92584C8.76336 6.78877 8.51414 6.72024 8.17769 6.72024C7.97832 6.72024 7.77271 6.75139 7.56087 6.81369C7.36149 6.86354 7.17458 6.91961 7.00012 6.98192L6.3833 5.50528C6.81944 5.33083 7.22442 5.20622 7.59825 5.13145C7.97209 5.04422 8.3833 5.00061 8.8319 5.00061Z" fill="#9BA6B2"/>
</svg>
