<svg width="24" height="24" viewBox="0 0 24 24" fill="none" xmlns="http://www.w3.org/2000/svg">
<path d="M18.6318 8.40423L19.5897 7.45788C19.7879 7.25988 19.8992 6.99134 19.8992 6.71132C19.8992 6.43131 19.7879 6.16276 19.5897 5.96476C19.3914 5.76676 19.1226 5.65552 18.8423 5.65552C18.562 5.65552 18.2931 5.76676 18.0949 5.96476L17.1476 6.92162C15.6723 5.78164 13.86 5.16313 11.9949 5.16313C10.1298 5.16313 8.31749 5.78164 6.84229 6.92162L5.88439 5.95424C5.68478 5.75624 5.41461 5.64556 5.1333 5.64655C4.852 5.64753 4.58261 5.7601 4.38439 5.9595C4.18618 6.1589 4.07538 6.42878 4.07636 6.70978C4.07735 6.99078 4.19005 7.25988 4.38966 7.45788L5.35808 8.41475C4.20336 9.88426 3.5768 11.6989 3.57913 13.5671C3.57569 14.9082 3.8933 16.2307 4.50547 17.4243C5.11764 18.6178 6.00662 19.6479 7.09828 20.4286C8.18993 21.2092 9.45262 21.7178 10.781 21.912C12.1094 22.1061 13.4651 21.9802 14.7349 21.5447C16.0047 21.1092 17.1518 20.3767 18.0806 19.4083C19.0095 18.44 19.693 17.2638 20.0744 15.9779C20.4557 14.6921 20.5237 13.3338 20.2728 12.0163C20.0218 10.6988 19.4592 9.46036 18.6318 8.40423V8.40423ZM12.0002 19.8761C10.751 19.8761 9.52994 19.5061 8.49132 18.8128C7.45269 18.1196 6.64318 17.1342 6.16515 15.9814C5.68713 14.8286 5.56205 13.5601 5.80575 12.3363C6.04944 11.1124 6.65097 9.98829 7.53424 9.10596C8.41752 8.22363 9.54289 7.62276 10.768 7.37933C11.9932 7.13589 13.2631 7.26083 14.4171 7.73834C15.5712 8.21586 16.5576 9.02449 17.2516 10.062C17.9456 11.0995 18.316 12.3193 18.316 13.5671C18.316 15.2403 17.6506 16.8451 16.4661 18.0282C15.2817 19.2114 13.6752 19.8761 12.0002 19.8761ZM9.89492 4.10361H14.1054C14.3846 4.10361 14.6524 3.99282 14.8498 3.79563C15.0472 3.59844 15.1581 3.33098 15.1581 3.05211C15.1581 2.77323 15.0472 2.50578 14.8498 2.30859C14.6524 2.11139 14.3846 2.00061 14.1054 2.00061H9.89492C9.61574 2.00061 9.348 2.11139 9.1506 2.30859C8.95319 2.50578 8.84229 2.77323 8.84229 3.05211C8.84229 3.33098 8.95319 3.59844 9.1506 3.79563C9.348 3.99282 9.61574 4.10361 9.89492 4.10361V4.10361ZM13.0528 10.4126C13.0528 10.1337 12.9419 9.86627 12.7445 9.66907C12.5471 9.47188 12.2794 9.3611 12.0002 9.3611C11.721 9.3611 11.4533 9.47188 11.2559 9.66907C11.0585 9.86627 10.9476 10.1337 10.9476 10.4126V12.3999C10.7092 12.6129 10.5412 12.8931 10.4658 13.2035C10.3904 13.5139 10.4111 13.8399 10.5252 14.1383C10.6393 14.4367 10.8414 14.6935 11.1048 14.8746C11.3682 15.0558 11.6804 15.1528 12.0002 15.1528C12.32 15.1528 12.6322 15.0558 12.8956 14.8746C13.159 14.6935 13.3611 14.4367 13.4752 14.1383C13.5893 13.8399 13.61 13.5139 13.5346 13.2035C13.4592 12.8931 13.2912 12.6129 13.0528 12.3999V10.4126Z" fill="#1882FF"/>
</svg>
