<svg width="24" height="24" viewBox="0 0 24 24" fill="none" xmlns="http://www.w3.org/2000/svg">
<path d="M22.3 8.58405L23.21 7.68502C23.3983 7.49692 23.5041 7.2418 23.5041 6.97578C23.5041 6.70977 23.3983 6.45465 23.21 6.26655C23.0217 6.07845 22.7663 5.97277 22.5 5.97277C22.2337 5.97277 21.9783 6.07845 21.79 6.26655L20.89 7.17557C19.4886 6.09259 17.7669 5.50501 15.995 5.50501C14.2232 5.50501 12.5015 6.09259 11.1 7.17557L10.19 6.25656C10.0004 6.06846 9.74373 5.96331 9.47649 5.96425C9.20925 5.96519 8.95333 6.07213 8.76503 6.26155C8.57672 6.45098 8.47146 6.70737 8.4724 6.97432C8.47334 7.24127 8.5804 7.49692 8.77003 7.68502L9.69003 8.59404C8.59304 9.99008 7.99782 11.714 8.00003 13.4888C7.99676 14.7628 8.29849 16.0192 8.88005 17.1531C9.46161 18.287 10.3061 19.2655 11.3432 20.0072C12.3803 20.7488 13.5798 21.232 14.8418 21.4164C16.1038 21.6009 17.3917 21.4812 18.598 21.0675C19.8043 20.6537 20.8941 19.9579 21.7764 19.0379C22.6588 18.118 23.3082 17.0006 23.6705 15.7791C24.0328 14.5575 24.0974 13.2671 23.859 12.0155C23.6206 10.7639 23.0861 9.58737 22.3 8.58405ZM16 19.4823C14.8133 19.4823 13.6533 19.1308 12.6666 18.4722C11.6799 17.8136 10.9109 16.8776 10.4567 15.7824C10.0026 14.6872 9.8838 13.4821 10.1153 12.3195C10.3468 11.1568 10.9183 10.0889 11.7574 9.25069C12.5965 8.41248 13.6656 7.84165 14.8295 7.61039C15.9934 7.37913 17.1998 7.49782 18.2961 7.95146C19.3925 8.40509 20.3296 9.1733 20.9888 10.1589C21.6481 11.1446 22 12.3034 22 13.4888C22 15.0783 21.3679 16.6028 20.2427 17.7268C19.1174 18.8508 17.5913 19.4823 16 19.4823ZM14 4.49846H18C18.2652 4.49846 18.5196 4.39321 18.7071 4.20588C18.8947 4.01854 19 3.76446 19 3.49953C19 3.2346 18.8947 2.98052 18.7071 2.79319C18.5196 2.60585 18.2652 2.50061 18 2.50061H14C13.7348 2.50061 13.4805 2.60585 13.2929 2.79319C13.1054 2.98052 13 3.2346 13 3.49953C13 3.76446 13.1054 4.01854 13.2929 4.20588C13.4805 4.39321 13.7348 4.49846 14 4.49846ZM17 10.492C17 10.2271 16.8947 9.97298 16.7071 9.78565C16.5196 9.59831 16.2652 9.49307 16 9.49307C15.7348 9.49307 15.4805 9.59831 15.2929 9.78565C15.1054 9.97298 15 10.2271 15 10.492V12.38C14.7736 12.5823 14.614 12.8485 14.5423 13.1434C14.4707 13.4383 14.4904 13.748 14.5988 14.0314C14.7072 14.3149 14.8992 14.5589 15.1494 14.7309C15.3996 14.903 15.6962 14.9952 16 14.9952C16.3038 14.9952 16.6004 14.903 16.8507 14.7309C17.1009 14.5589 17.2929 14.3149 17.4013 14.0314C17.5097 13.748 17.5294 13.4383 17.4577 13.1434C17.3861 12.8485 17.2265 12.5823 17 12.38V10.492Z" fill="#1882FF"/>
<path d="M2 10.0006C2 9.44832 2.44772 9.00061 3 9.00061H6C6.55228 9.00061 7 9.44832 7 10.0006C7 10.5529 6.55228 11.0006 6 11.0006H3C2.44772 11.0006 2 10.5529 2 10.0006Z" fill="#1882FF"/>
<path d="M0 14.0006C0 13.4483 0.447715 13.0006 1 13.0006H5C5.55228 13.0006 6 13.4483 6 14.0006C6 14.5529 5.55228 15.0006 5 15.0006H1C0.447715 15.0006 0 14.5529 0 14.0006Z" fill="#1882FF"/>
<path d="M2 18.0006C2 17.4483 2.44772 17.0006 3 17.0006H6C6.55228 17.0006 7 17.4483 7 18.0006C7 18.5529 6.55228 19.0006 6 19.0006H3C2.44772 19.0006 2 18.5529 2 18.0006Z" fill="#1882FF"/>
</svg>
