<svg width="24" height="24" viewBox="0 0 24 24" fill="none" xmlns="http://www.w3.org/2000/svg">
<path d="M12.0012 16.463C10.5896 16.463 9.17859 16.463 7.76701 16.4625C7.31378 16.4625 7.07365 16.2218 7.07309 15.7669C7.07199 14.8715 7.07199 13.9755 7.07309 13.0796C7.07365 12.6109 7.3044 12.3829 7.77861 12.3823C8.01874 12.3823 8.25888 12.3818 8.49958 12.3818H9.95035V11.9264C9.95035 11.6823 9.94979 11.4499 9.9509 11.217C9.952 10.7985 10.2026 10.5473 10.6211 10.5451C10.8717 10.544 11.1223 10.5435 11.3735 10.5435C11.4939 10.5435 12.8287 10.544 12.8287 10.544V9.62985C12.8287 9.16779 12.8287 8.70794 12.8293 8.24808C12.8298 7.77001 13.0644 7.53705 13.5458 7.53705C14.0018 7.53705 14.4578 7.5365 14.9143 7.5365C15.3521 7.5365 15.7899 7.5365 16.2282 7.53705C16.6996 7.5376 16.9287 7.76781 16.9287 8.24146C16.9293 10.7488 16.9293 13.2557 16.9287 15.7631C16.9287 16.2196 16.6897 16.4608 16.237 16.4608C14.8238 16.463 13.4122 16.463 12.0012 16.463ZM12.8149 15.2298V11.779H11.182V15.2298H12.8149ZM9.93931 15.2248V13.6117H8.29532V15.2248H9.93931ZM15.7026 15.2248V8.76921H14.062V15.2243H15.7026V15.2248Z" fill="#9BA6B2"/>
<path d="M12.0003 22.0006C6.48591 22.0006 2 17.5147 2 12.0009C2 6.48707 6.48591 2.00061 12.0003 2.00061C17.5146 2.00061 22.0006 6.48652 22.0006 12.0009C22.0006 17.5153 17.5141 22.0006 12.0003 22.0006ZM12.0003 3.54633C7.33826 3.54633 3.54572 7.33888 3.54572 12.0009C3.54572 16.6629 7.33826 20.4554 12.0003 20.4554C16.6617 20.4554 20.4548 16.6629 20.4548 12.0009C20.4548 7.33888 16.6617 3.54633 12.0003 3.54633Z" fill="#9BA6B2"/>
</svg>
