<svg width="24" height="24" viewBox="0 0 24 24" fill="none" xmlns="http://www.w3.org/2000/svg">
<path fill-rule="evenodd" clip-rule="evenodd" d="M0.75 11.75C0.75 11.3358 1.08579 11 1.5 11H22.5C22.9142 11 23.25 11.3358 23.25 11.75C23.25 12.1642 22.9142 12.5 22.5 12.5H1.5C1.08579 12.5 0.75 12.1642 0.75 11.75Z" fill="#9BA6B2"/>
<path fill-rule="evenodd" clip-rule="evenodd" d="M3 17C3.41421 17 3.75 17.3358 3.75 17.75V20H6V17.75C6 17.3358 6.33579 17 6.75 17C7.16421 17 7.5 17.3358 7.5 17.75V20C7.5 20.3978 7.34196 20.7794 7.06066 21.0607C6.77935 21.342 6.39782 21.5 6 21.5H3.75C3.35218 21.5 2.97065 21.342 2.68934 21.0607C2.40804 20.7794 2.25 20.3978 2.25 20V17.75C2.25 17.3358 2.58579 17 3 17ZM17.25 17C17.6642 17 18 17.3358 18 17.75L18 20L20.25 20V17.75C20.25 17.3358 20.5858 17 21 17C21.4142 17 21.75 17.3358 21.75 17.75V20C21.75 20.3978 21.592 20.7794 21.3107 21.0607C21.0294 21.342 20.6478 21.5 20.25 21.5H18C17.6022 21.5 17.2206 21.342 16.9393 21.0607C16.658 20.7794 16.5 20.3978 16.5 20V17.75C16.5 17.3358 16.8358 17 17.25 17Z" fill="#9BA6B2"/>
<path d="M18 14.9202C18 15.6105 17.4404 16.1702 16.75 16.1702C16.0596 16.1702 15.5 15.6105 15.5 14.9202C15.5 14.2298 16.0596 13.6702 16.75 13.6702C17.4404 13.6702 18 14.2298 18 14.9202Z" fill="#9BA6B2"/>
<path d="M8.5 14.9202C8.5 15.6105 7.94036 16.1702 7.25 16.1702C6.55964 16.1702 6 15.6105 6 14.9202C6 14.2298 6.55964 13.6702 7.25 13.6702C7.94036 13.6702 8.5 14.2298 8.5 14.9202Z" fill="#9BA6B2"/>
<path fill-rule="evenodd" clip-rule="evenodd" d="M5.67004 4.49226C5.91333 4.33415 6.19725 4.25 6.48741 4.25H17.5126C17.8027 4.25 18.0867 4.33415 18.33 4.49226C18.5733 4.65037 18.7655 4.87565 18.8833 5.14079L21.6854 11.4454C21.728 11.5413 21.75 11.6451 21.75 11.75V17.75C21.75 18.1642 21.4142 18.5 21 18.5H3C2.58579 18.5 2.25 18.1642 2.25 17.75V11.75C2.25 11.6451 2.27202 11.5413 2.31464 11.4454L5.11669 5.14079C5.23453 4.87565 5.42674 4.65037 5.67004 4.49226ZM17.5126 5.75L6.48741 5.75L3.75 11.9092V17H20.25V11.9092L17.5126 5.75Z" fill="#9BA6B2"/>
</svg>
