<svg width="24" height="24" viewBox="0 0 24 24" fill="none" xmlns="http://www.w3.org/2000/svg">
<path fill-rule="evenodd" clip-rule="evenodd" d="M9.34562 7.05297C8.46136 7.05297 7.66888 7.5477 7.45436 8.47201C7.18728 9.62044 7.90216 10.6911 8.74076 11.4858C9.08633 11.8111 9.61623 11.8055 9.94695 11.4891L9.94967 11.4865C10.7844 10.6957 11.4968 9.623 11.2364 8.4701C11.0213 7.54702 10.2293 7.05297 9.34562 7.05297ZM9.34562 5.48615C10.8024 5.48615 12.3509 6.34165 12.7631 8.1178L12.764 8.12167C13.2211 10.1376 11.9443 11.7548 11.0285 12.6228C10.0875 13.5215 8.60961 13.5156 7.66534 12.6253L7.66398 12.624C6.75182 11.7598 5.45817 10.1393 5.92811 8.1178M9.34562 5.48615C7.88894 5.48615 6.34043 6.34186 5.92811 8.1178Z" fill="#9BA6B2"/>
<path fill-rule="evenodd" clip-rule="evenodd" d="M8.53881 8.95848C8.53881 8.52581 8.88955 8.17507 9.32222 8.17507H9.3305C9.76316 8.17507 10.1139 8.52581 10.1139 8.95848C10.1139 9.39115 9.76316 9.74189 9.3305 9.74189H9.32222C8.88955 9.74189 8.53881 9.39115 8.53881 8.95848Z" fill="#9BA6B2"/>
<path fill-rule="evenodd" clip-rule="evenodd" d="M22 14.765V9.23504C22 8.23368 21.9136 7.3447 21.7322 6.54744L21.7316 6.54487L21.7314 6.54385C21.3773 4.99916 20.6393 3.81704 19.413 3.04731C18.2188 2.29769 16.656 2 14.765 2H9.23502C6.85361 2 4.98282 2.47149 3.72715 3.72715C2.47149 4.98282 2 6.85361 2 9.23502V14.765C2 16.6559 2.29768 18.2188 3.0473 19.413C3.81673 20.6388 4.99825 21.3767 6.54207 21.7309L6.54384 21.7313L6.54485 21.7316L6.54742 21.7322C7.34467 21.9136 8.23366 22 9.23502 22H14.765C17.1452 22 19.0125 21.529 20.2719 20.283L20.275 20.2799L20.2788 20.2761L20.2799 20.275C21.5282 19.0156 22 17.1472 22 14.765ZM4.83506 4.83506C4.01699 5.65313 3.56682 7.00814 3.56682 9.23502V14.765C3.56682 16.5238 3.84978 17.7443 4.37435 18.58C4.82021 19.2904 5.48571 19.7936 6.4832 20.0955L13.2894 13.2894L20.0955 6.48321C19.7936 5.48572 19.2904 4.82022 18.5801 4.37436C17.7443 3.84978 16.5238 3.56682 14.765 3.56682H9.23502C7.00814 3.56682 5.65313 4.01699 4.83506 4.83506ZM9.23502 20.4332C8.93708 20.4332 8.65457 20.4248 8.3863 20.4082L13.8433 14.9512L18.5452 19.6531C17.707 20.16 16.4998 20.4332 14.765 20.4332H9.23502ZM14.9512 13.8433L19.6531 18.5452C20.16 17.7071 20.4332 16.4998 20.4332 14.765V9.23504C20.4332 8.9371 20.4248 8.6546 20.4082 8.38633L14.9512 13.8433Z" fill="#9BA6B2"/>
</svg>
