<svg width="24" height="24" viewBox="0 0 24 24" fill="none" xmlns="http://www.w3.org/2000/svg">
<path d="M13.3463 3.01099H12.1128C14.3207 3.13189 16.4005 4.12479 17.9266 5.78642C19.4527 7.44805 20.3095 9.65272 20.3216 11.9491C20.3338 14.2454 19.5003 16.4597 17.9919 18.1387C16.4835 19.8176 14.4143 20.8342 12.2078 20.9803H13.3495C15.6437 20.9803 17.844 20.0337 19.4662 18.3487C21.0885 16.6638 21.9998 14.3785 21.9998 11.9956C21.9998 9.61275 21.0885 7.32747 19.4662 5.64253C17.844 3.95758 15.6437 3.01099 13.3495 3.01099H13.3463Z" fill="#E1AA00"/>
<path d="M16.2591 4.37332H17.9045C17.6107 4.18144 17.306 4.00818 16.9921 3.85449H15.3467C15.6605 4.00848 15.9652 4.18173 16.2591 4.37332V4.37332Z" fill="#B88700"/>
<path d="M20.004 9.56271H21.6283C21.5808 9.38721 21.528 9.2139 21.4709 9.04388H19.8467C19.9048 9.2139 19.9565 9.38721 20.004 9.56271Z" fill="#B88700"/>
<path d="M18.8413 6.9653H20.4772C20.3621 6.78761 20.2406 6.6132 20.1139 6.44647H18.478C18.6069 6.61868 18.7294 6.79748 18.8413 6.9653Z" fill="#B88700"/>
<path d="M15.7407 19.9394H17.3724C17.6557 19.7825 17.9304 19.6093 18.1951 19.4205H16.5613C16.2972 19.609 16.0232 19.7822 15.7407 19.9394Z" fill="#B88700"/>
<path d="M21.9548 11.637H20.3306C20.3306 11.7576 20.3401 11.8794 20.3401 12V12.1558H21.9643V11.9957C21.9548 11.8761 21.9548 11.7565 21.9548 11.637Z" fill="#B88700"/>
<path d="M19.9141 14.751H21.5383C21.5911 14.581 21.6439 14.4077 21.682 14.2322H20.0588C20.0165 14.4077 19.9669 14.581 19.9141 14.751Z" fill="#B88700"/>
<path d="M18.6309 17.344H20.2678C20.3871 17.1751 20.5022 17.0018 20.61 16.8252H18.9794C18.8643 17.004 18.7513 17.1773 18.6309 17.344Z" fill="#B88700"/>
<path d="M11.7643 20.5678C16.3744 20.5678 20.1116 16.6862 20.1116 11.898C20.1116 7.10977 16.3744 3.22815 11.7643 3.22815C7.1542 3.22815 3.41699 7.10977 3.41699 11.898C3.41699 16.6862 7.1542 20.5678 11.7643 20.5678Z" fill="url(#paint0_linear_2517_1095)"/>
<path opacity="0.3" d="M11.5796 3.52541C13.379 3.52711 15.1261 4.1541 16.5428 5.30652C17.9594 6.45895 18.9641 8.07054 19.3968 9.88467C19.8295 11.6988 19.6653 13.6111 18.9305 15.3171C18.1956 17.0232 16.9323 18.4248 15.3418 19.2987C13.7512 20.1727 11.9248 20.4688 10.1535 20.1399C8.38214 19.8109 6.76768 18.8759 5.56722 17.4836C4.36675 16.0914 3.6493 14.322 3.52912 12.4572C3.40895 10.5924 3.89295 8.73943 4.90405 7.19342C5.64379 6.06234 6.63898 5.13664 7.80265 4.49723C8.96633 3.85782 10.2631 3.52416 11.5796 3.52541ZM11.5796 3.22815C9.58168 3.22714 7.64978 3.97081 6.1351 5.32394C4.62042 6.67707 3.62353 8.54982 3.32568 10.6017C3.02783 12.6536 3.44878 14.7484 4.51202 16.5052C5.57526 18.262 7.21017 19.5642 9.11953 20.1751C11.0289 20.7859 13.0859 20.6649 14.9166 19.8339C16.7473 19.0029 18.2301 17.5172 19.0954 15.6468C19.9607 13.7765 20.1511 11.6457 19.632 9.64191C19.1128 7.63811 17.9186 5.89433 16.2665 4.7276C14.8841 3.75138 13.2512 3.22899 11.5796 3.22815Z" fill="url(#paint1_linear_2517_1095)"/>
<path d="M11.6652 21C9.95136 21 8.27604 20.4722 6.85106 19.4832C5.42608 18.4943 4.31545 17.0887 3.6596 15.4442C3.00375 13.7996 2.83216 11.99 3.1665 10.2442C3.50085 8.49836 4.32613 6.89471 5.53797 5.63604C6.74982 4.37737 8.2938 3.5202 9.97468 3.17294C11.6556 2.82567 13.3978 3.0039 14.9812 3.68509C16.5645 4.36628 17.9179 5.51983 18.87 6.99987C19.8221 8.47991 20.3303 10.22 20.3303 12C20.3303 14.3869 19.4174 16.6761 17.7924 18.364C16.1673 20.0518 13.9633 21 11.6652 21V21ZM11.6652 3.45521C10.038 3.45521 8.44746 3.95636 7.09455 4.89527C5.74165 5.83418 4.68719 7.1687 4.06451 8.73005C3.44184 10.2914 3.27892 12.0095 3.59636 13.667C3.91379 15.3245 4.69733 16.8471 5.84788 18.0421C6.99843 19.2371 8.46432 20.0509 10.0602 20.3806C11.656 20.7103 13.3102 20.5411 14.8135 19.8944C16.3167 19.2476 17.6016 18.1524 18.5056 16.7472C19.4096 15.342 19.8921 13.69 19.8921 12C19.8921 10.8779 19.6793 9.76675 19.2658 8.73005C18.8524 7.69335 18.2464 6.75138 17.4825 5.95792C16.7185 5.16447 15.8116 4.53506 14.8135 4.10565C13.8153 3.67623 12.7455 3.45521 11.6652 3.45521V3.45521Z" fill="url(#paint2_linear_2517_1095)"/>
<path d="M13.1892 16.0694C13.1303 16.1296 13.0511 16.1634 12.9685 16.1638C12.8698 16.1643 12.7719 16.1447 12.6805 16.1058C12.5891 16.067 12.506 16.0099 12.436 15.9376C12.3659 15.8653 12.3103 15.7794 12.2723 15.6848C12.2343 15.5901 12.2146 15.4886 12.2145 15.3861V13.0617H13.4945C13.6967 13.0617 13.8906 12.9783 14.0336 12.8298C14.1766 12.6813 14.2569 12.4798 14.2569 12.2698C14.2569 12.0598 14.1766 11.8583 14.0336 11.7098C13.8906 11.5613 13.6967 11.4778 13.4945 11.4778H12.2134V9.86431H13.4945C13.6967 9.86431 13.8906 9.78087 14.0336 9.63235C14.1766 9.48383 14.2569 9.28239 14.2569 9.07235C14.2569 8.86231 14.1766 8.66088 14.0336 8.51236C13.8906 8.36384 13.6967 8.2804 13.4945 8.2804H12.2134V6.7963C12.2134 6.58815 12.1338 6.38853 11.9921 6.24135C11.8504 6.09416 11.6582 6.01147 11.4578 6.01147C11.2574 6.01147 11.0652 6.09416 10.9235 6.24135C10.7818 6.38853 10.7022 6.58815 10.7022 6.7963V8.28259H9.4412C9.23898 8.28259 9.04504 8.36603 8.90204 8.51455C8.75905 8.66307 8.67871 8.86451 8.67871 9.07455C8.67871 9.28459 8.75905 9.48602 8.90204 9.63454C9.04504 9.78306 9.23898 9.8665 9.4412 9.8665H10.7032V11.4745H9.4412C9.23898 11.4745 9.04504 11.558 8.90204 11.7065C8.75905 11.855 8.67871 12.0565 8.67871 12.2665C8.67871 12.4765 8.75905 12.678 8.90204 12.8265C9.04504 12.975 9.23898 13.0585 9.4412 13.0585H10.7032V15.3718C10.7032 15.9987 10.9426 16.6001 11.3688 17.044C11.795 17.488 12.3734 17.7382 12.977 17.74C13.2181 17.7399 13.4567 17.6901 13.6792 17.5935C13.9016 17.4969 14.1034 17.3554 14.2728 17.1773C14.3444 17.1037 14.4012 17.016 14.44 16.9194C14.4788 16.8228 14.4988 16.7192 14.4988 16.6145C14.4988 16.5099 14.4789 16.4063 14.4401 16.3097C14.4013 16.2131 14.3444 16.1254 14.2728 16.0518C14.2012 15.9781 14.1163 15.92 14.0229 15.8806C13.9295 15.8413 13.8296 15.8216 13.7288 15.8226C13.6281 15.8236 13.5285 15.8454 13.4359 15.8866C13.3433 15.9279 13.2594 15.9878 13.1892 16.0628V16.0694Z" fill="#704B00"/>
<defs>
<linearGradient id="paint0_linear_2517_1095" x1="11.7643" y1="20.5678" x2="11.7643" y2="3.22815" gradientUnits="userSpaceOnUse">
<stop offset="0.02" stop-color="#FCB900"/>
<stop offset="1" stop-color="#FCCA04"/>
</linearGradient>
<linearGradient id="paint1_linear_2517_1095" x1="6.88669" y1="19.0513" x2="16.7574" y2="5.06662" gradientUnits="userSpaceOnUse">
<stop offset="0.02" stop-color="#603813"/>
<stop offset="0.58" stop-color="#C69C6D"/>
<stop offset="1" stop-color="#C69C6D" stop-opacity="0"/>
</linearGradient>
<linearGradient id="paint2_linear_2517_1095" x1="9.41222" y1="48.396" x2="26.7426" y2="48.396" gradientUnits="userSpaceOnUse">
<stop stop-color="#FCD847"/>
<stop offset="1" stop-color="#A47E1B"/>
</linearGradient>
</defs>
</svg>
