<svg width="24" height="24" viewBox="0 0 24 24" fill="none" xmlns="http://www.w3.org/2000/svg">
<path fill-rule="evenodd" clip-rule="evenodd" d="M9.70611 8.46591C9.9626 8.31208 10.2791 8.31049 10.537 8.46172L15.3285 11.271C15.589 11.4237 15.7498 11.7089 15.7498 12.0178C15.7498 12.3267 15.589 12.6119 15.3285 12.7646L10.537 15.5739C10.2791 15.7251 9.9626 15.7235 9.70611 15.5697C9.44961 15.4159 9.29181 15.133 9.29181 14.8271V9.20851C9.29181 8.90258 9.44961 8.61974 9.70611 8.46591ZM10.9584 10.6854V13.3502L13.2309 12.0178L10.9584 10.6854Z" fill="#9BA6B2"/>
<path fill-rule="evenodd" clip-rule="evenodd" d="M12.2527 4.50132L12.0664 4.5007L11.9999 4.50061L11.9334 4.50071L11.747 4.50139C11.586 4.50217 11.3547 4.50373 11.0729 4.50683C10.5096 4.51305 9.74264 4.52548 8.92957 4.55039C8.11784 4.57526 7.25348 4.61276 6.49746 4.66961C5.76474 4.72471 5.06307 4.80236 4.61839 4.92497L4.60683 4.92825C4.07345 5.08382 3.58933 5.38177 3.20338 5.79197C2.81743 6.20218 2.54332 6.71014 2.40873 7.26452C2.40422 7.28309 2.40032 7.30181 2.39702 7.32065C2.12594 8.8704 1.9932 10.4425 2.00046 12.0172C1.99109 13.6038 2.12384 15.1879 2.39703 16.7493C2.40191 16.7772 2.40813 16.8049 2.41566 16.8321C2.56404 17.3693 2.8443 17.8579 3.22935 18.2508C3.6144 18.6437 4.09122 18.9276 4.61376 19.075L4.61839 19.0763C5.06307 19.1989 5.76474 19.2765 6.49746 19.3316C7.25348 19.3885 8.11784 19.426 8.92957 19.4508C9.74264 19.4757 10.5096 19.4882 11.0729 19.4944C11.3547 19.4975 11.586 19.4991 11.747 19.4998L11.9334 19.5005L12.0004 19.5006L12.0666 19.5005L12.2531 19.4998C12.4141 19.4991 12.6453 19.4975 12.9271 19.4944C13.4904 19.4882 14.2574 19.4757 15.0705 19.4508C15.8822 19.426 16.7466 19.3885 17.5026 19.3316C18.2353 19.2765 18.937 19.1989 19.3816 19.0763L19.3932 19.073C19.9266 18.9174 20.4107 18.6195 20.7967 18.2092C21.1826 17.799 21.4567 17.2911 21.5913 16.7367C21.5958 16.7181 21.5997 16.6994 21.603 16.6805C21.872 15.1423 22.0048 13.582 21.9996 12.0189C22.009 10.4322 21.8645 8.79177 21.5913 7.23016C21.4567 6.67577 21.1826 6.16782 20.7967 5.75761C20.4107 5.3474 19.9266 5.04946 19.3932 4.89388C19.3835 4.89106 19.3738 4.88842 19.364 4.88596C18.9259 4.77567 18.2303 4.70506 17.4973 4.65473C16.7428 4.60292 15.8796 4.56872 15.0683 4.54603C14.2558 4.5233 13.4893 4.51196 12.9263 4.50629C12.6447 4.50345 12.4136 4.50203 12.2527 4.50132ZM11.9371 6.21892L11.7548 6.21959C11.5967 6.22035 11.3688 6.22188 11.0907 6.22495C10.5343 6.23109 9.77843 6.24335 8.97907 6.26784C8.17838 6.29237 7.34073 6.32897 6.6187 6.38327C5.87864 6.43892 5.32876 6.50886 5.0548 6.58325C4.80589 6.65697 4.58001 6.7966 4.39965 6.98829C4.22371 7.17529 4.09713 7.40541 4.03172 7.65675C3.78212 9.09457 3.66006 10.5529 3.66706 12.0135L3.6671 12.0232C3.65817 13.4899 3.77932 14.9543 4.02911 16.3981C4.1013 16.6367 4.22915 16.8535 4.40168 17.0296C4.58243 17.214 4.80613 17.3474 5.05128 17.417C5.32404 17.4918 5.87546 17.5621 6.6187 17.618C7.34073 17.6722 8.17838 17.7088 8.97907 17.7334C9.77843 17.7579 10.5343 17.7701 11.0907 17.7763C11.3688 17.7793 11.5967 17.7809 11.7548 17.7816L11.9371 17.7823H12.0629L12.2452 17.7816C12.4034 17.7809 12.6312 17.7793 12.9093 17.7763C13.4657 17.7701 14.2216 17.7579 15.021 17.7334C15.8217 17.7088 16.6593 17.6722 17.3813 17.618C18.1214 17.5623 18.6713 17.4924 18.9452 17.418C19.1941 17.3443 19.42 17.2046 19.6004 17.0129C19.7763 16.8259 19.9029 16.5958 19.9683 16.3445C20.216 14.9176 20.338 13.4705 20.333 12.0209L20.3329 12.0124C20.3419 10.5406 20.2199 9.07113 19.9683 7.6224C19.9029 7.37106 19.7763 7.14093 19.6004 6.95393C19.4221 6.76443 19.1993 6.62581 18.9538 6.55145C18.6705 6.48274 18.1186 6.41941 17.3866 6.36915C16.6631 6.31947 15.8243 6.28602 15.0231 6.26361C14.2232 6.24123 13.4668 6.23003 12.9101 6.22442C12.6318 6.22162 12.4038 6.22022 12.2456 6.21952L12.0631 6.21891L12 6.21882L11.9371 6.21892Z" fill="#9BA6B2"/>
</svg>
