<svg width="24" height="24" viewBox="0 0 24 24" fill="none" xmlns="http://www.w3.org/2000/svg">
<path d="M5.33324 22.0006C4.80725 22.0006 4.37462 21.5721 4.43957 21.0501C4.90739 17.2908 8.1139 14.3816 11.9999 14.3816C15.8859 14.3816 19.0924 17.2908 19.5602 21.0501C19.6252 21.5721 19.1926 22.0006 18.6666 22.0006V22.0006C18.1406 22.0006 17.7225 21.571 17.6359 21.0522C17.1841 18.3477 14.8327 16.2863 11.9999 16.2863C9.16709 16.2863 6.81573 18.3477 6.36396 21.0522C6.2773 21.571 5.85923 22.0006 5.33324 22.0006V22.0006ZM11.9999 13.4292C8.84276 13.4292 6.28562 10.872 6.28562 7.7149C6.28562 4.55775 8.84276 2.00061 11.9999 2.00061C15.157 2.00061 17.7142 4.55775 17.7142 7.7149C17.7142 10.872 15.157 13.4292 11.9999 13.4292ZM11.9999 11.5244C14.1047 11.5244 15.8094 9.81966 15.8094 7.7149C15.8094 5.61013 14.1047 3.90537 11.9999 3.90537C9.89515 3.90537 8.19038 5.61013 8.19038 7.7149C8.19038 9.81966 9.89515 11.5244 11.9999 11.5244Z" fill="#9BA6B2"/>
</svg>
