<svg width="24" height="24" viewBox="0 0 24 24" fill="none" xmlns="http://www.w3.org/2000/svg">
<path d="M17.059 15.5216C17.5268 15.2022 18.0755 15.0217 18.6415 15.001C19.2076 14.9804 19.768 15.1205 20.2578 15.405C20.7476 15.6896 21.1468 16.107 21.4093 16.609C21.6718 17.111 21.7868 17.677 21.741 18.2416C20.5412 18.6609 19.2668 18.8241 18 18.7206C17.9961 17.5872 17.6697 16.4774 17.059 15.5226C16.5169 14.6724 15.7691 13.9726 14.8848 13.4881C14.0005 13.0036 13.0083 12.7499 12 12.7506C10.9918 12.7501 9.99981 13.0038 9.11571 13.4884C8.23162 13.9729 7.48399 14.6725 6.94199 15.5226M17.999 18.7196L18 18.7506C18 18.9756 17.988 19.1976 17.963 19.4166C16.1483 20.4577 14.0921 21.004 12 21.0006C9.82998 21.0006 7.79299 20.4246 6.03699 19.4166C6.01128 19.1852 5.99892 18.9525 5.99999 18.7196M5.99999 18.7196C4.73361 18.8269 3.45989 18.6643 2.26099 18.2426C2.21534 17.6782 2.33038 17.1123 2.59281 16.6105C2.85525 16.1087 3.25435 15.6914 3.74399 15.4069C4.23362 15.1224 4.79378 14.9823 5.3597 15.0027C5.92563 15.0232 6.4742 15.2035 6.94199 15.5226M5.99999 18.7196C6.00358 17.5863 6.33161 16.4775 6.94199 15.5226M15 6.75061C15 7.54626 14.6839 8.30932 14.1213 8.87193C13.5587 9.43454 12.7956 9.75061 12 9.75061C11.2043 9.75061 10.4413 9.43454 9.87866 8.87193C9.31606 8.30932 8.99999 7.54626 8.99999 6.75061C8.99999 5.95496 9.31606 5.1919 9.87866 4.62929C10.4413 4.06668 11.2043 3.75061 12 3.75061C12.7956 3.75061 13.5587 4.06668 14.1213 4.62929C14.6839 5.1919 15 5.95496 15 6.75061ZM21 9.75061C21 10.0461 20.9418 10.3387 20.8287 10.6116C20.7156 10.8846 20.5499 11.1327 20.341 11.3416C20.132 11.5505 19.884 11.7163 19.611 11.8293C19.338 11.9424 19.0455 12.0006 18.75 12.0006C18.4545 12.0006 18.1619 11.9424 17.8889 11.8293C17.616 11.7163 17.3679 11.5505 17.159 11.3416C16.9501 11.1327 16.7843 10.8846 16.6713 10.6116C16.5582 10.3387 16.5 10.0461 16.5 9.75061C16.5 9.15387 16.737 8.58158 17.159 8.15962C17.581 7.73766 18.1532 7.50061 18.75 7.50061C19.3467 7.50061 19.919 7.73766 20.341 8.15962C20.7629 8.58158 21 9.15387 21 9.75061ZM7.49999 9.75061C7.49999 10.0461 7.44179 10.3387 7.32871 10.6116C7.21564 10.8846 7.04991 11.1327 6.84098 11.3416C6.63204 11.5505 6.38401 11.7163 6.11102 11.8293C5.83804 11.9424 5.54546 12.0006 5.24999 12.0006C4.95451 12.0006 4.66193 11.9424 4.38895 11.8293C4.11596 11.7163 3.86793 11.5505 3.65899 11.3416C3.45006 11.1327 3.28433 10.8846 3.17126 10.6116C3.05818 10.3387 2.99999 10.0461 2.99999 9.75061C2.99999 9.15387 3.23704 8.58158 3.65899 8.15962C4.08095 7.73766 4.65325 7.50061 5.24999 7.50061C5.84672 7.50061 6.41902 7.73766 6.84098 8.15962C7.26293 8.58158 7.49999 9.15387 7.49999 9.75061Z" stroke="#9BA6B2" stroke-width="1.5" stroke-linecap="round" stroke-linejoin="round"/>
</svg>
