<svg width="24" height="24" viewBox="0 0 24 24" fill="none" xmlns="http://www.w3.org/2000/svg">
<path d="M6.54 18.89C5.47 18.89 4.67 18.39 4.23 17.46C4.09 17.16 4.01 16.8 4.01 16.46C4 13.45 4 10.45 4 7.45C4 6.11 5.09 5.01 6.42 5.01C7.83 5 9.24 5 10.64 5C11.98 5 13.31 5 14.65 5.01C16.04 5.01 17.09 6.08 17.1 7.49V8.02C17.1 8.02 17.33 8.05 17.38 8.06C18.51 8.28 19.34 9.27 19.34 10.42C19.35 12.44 19.35 14.45 19.34 16.47C19.34 17.8 18.27 18.86 16.91 18.89H16.62H6.54ZM5.87 16.36C5.87 16.8 6.09 17.02 6.52 17.02H16.82C17.25 17.02 17.47 16.8 17.47 16.37V10.53C17.47 10.46 17.47 10.41 17.46 10.36C17.4 10.05 17.19 9.9 16.83 9.9H6.67C6.46 9.9 6.24 9.89 6.01 9.85L5.87 9.82V16.36ZM6.4 6.88C6.09 6.92 5.87 7.16 5.88 7.45C5.88 7.78 6.14 8.01 6.52 8.01H15.23V7.6C15.23 7.34 15.17 7.15 15.07 7.04C14.96 6.93 14.78 6.88 14.52 6.88H6.51H6.4Z" fill="#9BA6B2"/>
<path d="M15.4199 14.7C14.7399 14.7 14.1799 14.14 14.1699 13.46C14.1699 13.13 14.2999 12.81 14.5299 12.57C14.7599 12.33 15.0899 12.2 15.4099 12.2C16.1099 12.21 16.6599 12.77 16.6599 13.46C16.6599 14.14 16.1099 14.7 15.4199 14.7Z" fill="#9BA6B2"/>
</svg>
