<svg width="24" height="24" viewBox="0 0 24 24" fill="none" xmlns="http://www.w3.org/2000/svg">
<path d="M11.9992 14.6693C11.4551 14.6693 10.9232 14.8256 10.4708 15.1185C10.0184 15.4114 9.6658 15.8278 9.45758 16.3148C9.24936 16.8019 9.19488 17.3379 9.30103 17.855C9.40718 18.3721 9.66919 18.8471 10.0539 19.2199C10.4387 19.5927 10.9289 19.8465 11.4625 19.9494C11.9962 20.0522 12.5493 19.9995 13.052 19.7977C13.5547 19.5959 13.9843 19.2543 14.2866 18.8159C14.5889 18.3775 14.7503 17.8622 14.7503 17.3349C14.7503 16.628 14.4604 15.9499 13.9445 15.45C13.4286 14.9501 12.7288 14.6693 11.9992 14.6693ZM11.9992 18.2235C11.8178 18.2235 11.6406 18.1714 11.4898 18.0738C11.3389 17.9761 11.2214 17.8373 11.152 17.675C11.0826 17.5126 11.0644 17.334 11.0998 17.1616C11.1352 16.9892 11.2225 16.8309 11.3508 16.7066C11.479 16.5824 11.6424 16.4978 11.8203 16.4635C11.9982 16.4292 12.1826 16.4468 12.3501 16.514C12.5177 16.5813 12.6609 16.6952 12.7617 16.8413C12.8625 16.9874 12.9162 17.1592 12.9162 17.3349C12.9162 17.5706 12.8196 17.7966 12.6476 17.9632C12.4757 18.1299 12.2424 18.2235 11.9992 18.2235ZM11.9992 11.1151C10.2979 11.1208 8.66729 11.7751 7.45999 12.9366C7.2892 13.1031 7.19333 13.3283 7.19333 13.563C7.19333 13.7978 7.2892 14.023 7.45999 14.1895C7.63181 14.355 7.86423 14.4479 8.10649 14.4479C8.34875 14.4479 8.58117 14.355 8.75298 14.1895C9.1789 13.7757 9.68487 13.4475 10.2419 13.2235C10.799 12.9995 11.3961 12.8842 11.9992 12.8842C12.6023 12.8842 13.1995 12.9995 13.7565 13.2235C14.3136 13.4475 14.8195 13.7757 15.2455 14.1895C15.4148 14.3569 15.6455 14.4527 15.8874 14.456C16.0734 14.4664 16.2583 14.4216 16.4174 14.3276C16.5766 14.2336 16.7024 14.0948 16.778 13.9298C16.8537 13.7648 16.8757 13.5814 16.8411 13.4039C16.8065 13.2265 16.7169 13.0635 16.5843 12.9366C15.9809 12.3561 15.2655 11.8965 14.4787 11.5839C13.692 11.2714 12.8495 11.1121 11.9992 11.1151ZM11.9992 7.56086C9.32519 7.56775 6.76176 8.59578 4.86484 10.422C4.77934 10.5049 4.71152 10.6032 4.66524 10.7115C4.61897 10.8197 4.59515 10.9357 4.59515 11.0529C4.59515 11.2895 4.69216 11.5164 4.86484 11.6837C5.03752 11.8511 5.27172 11.9451 5.51592 11.9451C5.76012 11.9451 5.99432 11.8511 6.167 11.6837C7.71447 10.1862 9.81213 9.34501 11.9992 9.34501C14.1863 9.34501 16.284 10.1862 17.8314 11.6837C17.9171 11.7661 18.0187 11.8313 18.1305 11.8755C18.2422 11.9197 18.3618 11.9421 18.4825 11.9414C18.6032 11.9421 18.7228 11.9197 18.8346 11.8755C18.9463 11.8313 19.0479 11.7661 19.1336 11.6837C19.2195 11.6011 19.2878 11.5029 19.3343 11.3946C19.3809 11.2863 19.4048 11.1702 19.4048 11.0529C19.4048 10.9356 19.3809 10.8194 19.3343 10.7112C19.2878 10.6029 19.2195 10.5046 19.1336 10.422C17.2367 8.59578 14.6732 7.56775 11.9992 7.56086ZM21.7287 7.9074C20.4513 6.66885 18.9346 5.68633 17.2652 5.01598C15.5957 4.34564 13.8063 4.00061 11.9992 4.00061C10.1921 4.00061 8.40272 4.34564 6.73328 5.01598C5.06385 5.68633 3.54709 6.66885 2.26969 7.9074C2.09701 8.07472 2 8.30165 2 8.53827C2 8.77489 2.09701 9.00183 2.26969 9.16914C2.44236 9.33646 2.67656 9.43046 2.92077 9.43046C3.16497 9.43046 3.39917 9.33646 3.57185 9.16914C5.80733 7.00417 8.83859 5.788 11.9992 5.788C15.1598 5.788 18.1911 7.00417 20.4266 9.16914C20.5118 9.25243 20.6133 9.31853 20.725 9.36364C20.8368 9.40875 20.9566 9.43198 21.0777 9.43198C21.1987 9.43198 21.3186 9.40875 21.4303 9.36364C21.5421 9.31853 21.6435 9.25243 21.7287 9.16914C21.8147 9.08654 21.8829 8.98827 21.9295 8.87999C21.976 8.77171 22 8.65557 22 8.53827C22 8.42097 21.976 8.30483 21.9295 8.19655C21.8829 8.08828 21.8147 7.99 21.7287 7.9074Z" fill="#9BA6B2"/>
</svg>
