<svg width="24" height="24" viewBox="0 0 24 24" fill="none" xmlns="http://www.w3.org/2000/svg">
<path d="M19.606 6.99561C19.53 6.69761 19.314 6.47261 19.067 6.40361C18.63 6.28061 16.5 6.00061 12 6.00061C7.5 6.00061 5.372 6.28061 4.931 6.40361C4.687 6.47161 4.471 6.69661 4.394 6.99561C4.285 7.41961 4 9.19661 4 12.0006C4 14.8046 4.285 16.5806 4.394 17.0066C4.47 17.3036 4.686 17.5286 4.932 17.5966C5.372 17.7206 7.5 18.0006 12 18.0006C16.5 18.0006 18.629 17.7206 19.069 17.5976C19.313 17.5296 19.529 17.3046 19.606 17.0056C19.715 16.5816 20 14.8006 20 12.0006C20 9.20061 19.715 7.42061 19.606 6.99561ZM21.543 6.49861C22 8.28061 22 12.0006 22 12.0006C22 12.0006 22 15.7206 21.543 17.5026C21.289 18.4876 20.546 19.2626 19.605 19.5246C17.896 20.0006 12 20.0006 12 20.0006C12 20.0006 6.107 20.0006 4.395 19.5246C3.45 19.2586 2.708 18.4846 2.457 17.5026C2 15.7206 2 12.0006 2 12.0006C2 12.0006 2 8.28061 2.457 6.49861C2.711 5.51361 3.454 4.73861 4.395 4.47661C6.107 4.00061 12 4.00061 12 4.00061C12 4.00061 17.896 4.00061 19.605 4.47661C20.55 4.74261 21.292 5.51661 21.543 6.49861V6.49861ZM10 15.5006V8.50061L16 12.0006L10 15.5006Z" fill="#9BA6B2"/>
</svg>
