<svg width="120" height="120" viewBox="0 0 120 120" fill="none" xmlns="http://www.w3.org/2000/svg">
<path d="M19.7086 82.4631C17.6764 82.8522 16.5174 83.1777 15.8347 83.4635C12.1116 76.4602 10 68.4802 10 60.0079C10 32.3996 32.3783 10 59.996 10C80.2786 10 97.7272 22.0851 105.57 39.4267L104.515 39.5458L74.2534 33.9558C74.047 33.9082 73.8406 33.9955 73.6898 34.1543C73.5469 34.3132 73.4913 34.5196 73.5548 34.726L75.1504 40.3398C75.2219 40.6098 75.468 40.7766 75.7379 40.7924L93.0436 40.8877L89.8762 41.253C89.8603 41.253 89.8523 41.2689 89.8523 41.2689L74.8488 43.7383C65.3148 45.7075 59.1942 46.7794 56.6063 46.9144C56.8524 46.5253 57.035 46.168 57.1938 45.8266C57.6066 45.509 58.1305 45.1675 58.7735 44.7705C60.7105 44.2941 61.0042 43.0395 61.0042 42.3329V41.9914C61.0042 41.515 60.8058 41.0306 60.4406 40.5622L60.3215 40.4192C60.2104 40.2763 60.0278 40.189 59.8452 40.189H59.6467C58.9561 40.189 58.2099 40.3081 57.3129 40.6019C57.0191 40.7369 56.7492 40.8718 56.4873 41.0068C55.9236 40.2287 54.59 39.7126 52.1529 39.3235C52.1053 39.3076 51.9941 39.3076 51.9465 39.3235C49.1125 39.6252 47.1517 40.0381 46.08 40.5383C43.7144 41.0703 40.3088 42.4599 35.9347 44.6673C28.3853 49.1218 24.7178 53.1793 24.7178 57.0621C24.7178 58.0705 25.0671 59.1663 25.7736 60.2858C26.8056 62.0168 28.9648 63.3429 32.4101 64.3433C35.4267 64.9309 38.4591 65.4391 41.3487 65.8679C44.5717 66.5745 46.3658 67.7418 46.6833 69.3298C46.6436 69.4013 46.6198 69.4887 46.6198 69.5839V69.9889C46.6198 70.235 46.4849 70.9496 45.2941 72.2995C43.6112 73.9431 41.9441 75.1262 40.3167 75.7932L36.3078 77.7307C31.9576 79.4775 26.3531 81.0577 19.7086 82.4631ZM106.642 41.9994C106.11 42.4361 104.888 42.9045 102.244 43.6589C102.22 43.6589 102.133 43.6827 102.109 43.6827C100.22 43.9368 98.3226 44.2068 96.4253 44.5006L77.9051 49.892C75.9443 54.1639 74.2613 58.007 72.9118 61.3181L72.8007 61.5166C72.6895 61.6833 72.1815 62.6838 69.3633 69.6395C68.5219 71.3784 67.8868 72.8712 67.4422 74.0702C67.347 74.3481 66.9818 75.2136 65.2513 79.1361L62.4649 85.5995C62.4411 85.6392 62.4172 85.6868 62.3934 85.7186C61.155 87.3543 60.52 87.6401 60.0199 87.7037C59.9802 87.7116 59.9246 87.7116 59.8769 87.7116C59.7817 87.7116 59.6785 87.7037 59.6229 87.6719C58.7973 87.3543 58.4163 86.9255 58.4163 86.3538C58.4163 84.6625 59.7896 80.7638 62.7268 74.0861C65.5847 67.2892 68.9267 59.206 72.6419 50.0349C72.6578 50.0111 72.6895 49.9396 72.7054 49.9158C72.9515 49.4791 73.1817 49.0027 73.396 48.5025C65.8387 49.9158 61.29 50.7099 59.869 50.8528L57.4557 51.1942C57.2573 51.1942 57.0906 51.1704 56.9556 51.1228L55.9792 51.1942C54.9472 51.1942 54.1534 51.0116 53.4945 50.7178C52.4069 51.8533 51.1209 53.0681 49.5888 54.4338C47.1914 56.1966 46.3102 56.4269 45.7625 56.4269H45.5323C43.9287 56.2442 43.0158 55.3311 43.0158 53.9892C43.0158 53.346 43.381 52.9173 45.691 51.5198C48.6282 49.0821 50.2715 47.4305 51.1923 46.3189C51.4225 45.366 51.9068 44.4926 52.653 43.6748C52.5577 43.6509 52.4466 43.6509 52.3514 43.6112C49.3586 43.8018 45.3973 45.0484 40.6025 47.3035C39.2292 47.8117 36.8635 49.2727 33.5294 51.6547C31.3622 53.6001 29.9413 55.3946 29.3538 56.9668C29.2347 57.4512 29.195 57.6497 29.1871 57.7211C29.1871 59.1186 31.9259 60.3017 36.6968 60.9211C44.2224 62.0883 46.0324 63.0252 46.7389 63.6208C48.6521 64.7165 50.073 66.4713 50.9145 68.7502L50.9621 68.9963L50.978 70.9417C50.978 76.7778 42.214 81.5102 23.3841 85.8218L18.7719 86.7111C18.7322 86.727 18.6608 86.727 18.629 86.727C18.4941 86.727 18.3591 86.7032 18.2401 86.6635L17.8114 86.7111H17.7399C26.6071 100.702 42.214 110 60.004 110C73.8088 110 86.3039 104.394 95.3616 95.3502C104.395 86.2982 110 73.7923 110 59.9841C109.992 53.6557 108.809 47.5814 106.642 41.9994Z" fill="#1A2B3D"/>
</svg>
