<svg width="1080" height="312" viewBox="0 0 1080 312" fill="none" xmlns="http://www.w3.org/2000/svg">
<path fill-rule="evenodd" clip-rule="evenodd" d="M1052.14 125.324C1064.32 125.324 1074.19 115.479 1074.19 103.336C1074.19 91.1929 1064.32 81.3488 1052.14 81.3488C1039.97 81.3488 1030.09 91.1929 1030.09 103.336C1030.09 115.479 1039.97 125.324 1052.14 125.324ZM1052.14 129.873C1066.84 129.873 1078.75 117.992 1078.75 103.336C1078.75 88.6805 1066.84 76.7997 1052.14 76.7997C1037.45 76.7997 1025.53 88.6805 1025.53 103.336C1025.53 117.992 1037.45 129.873 1052.14 129.873Z" fill="#1882FF"/>
<path d="M1064.41 116.664H1059.01L1055.45 109.547C1054.75 108.175 1053.85 107.14 1051.51 107.14H1047.8V116.664H1042.95V90.0068H1053.07C1059.24 90.0068 1063.16 92.6726 1063.16 98.3147C1063.16 102.197 1061.06 104.707 1058.23 106.001C1059.14 106.493 1059.71 107.373 1060.23 108.356L1064.41 116.664ZM1052.96 102.947C1056.13 102.947 1058.31 101.679 1058.31 98.4441C1058.31 95.4419 1056.21 94.2254 1052.96 94.2254H1047.85V102.947H1052.96Z" fill="#1882FF"/>
<path d="M496.481 176.002C496.544 183.603 495.725 191.141 494.927 198.699C493.562 210.32 491.777 221.899 490.959 233.583C490.497 240.032 468.66 238.462 469.143 232.013C470.025 220.099 471.747 208.268 473.175 196.396C473.909 189.465 474.644 182.514 474.602 175.541C468.639 183.624 463.432 192.208 458.477 200.94C452.031 212.749 446.299 224.873 440.609 237.059C434.814 245.728 436.137 246.942 418.604 239.174C416.736 238.357 417.618 235.195 417.492 233.164C417.408 231.803 417.723 230.421 417.953 229.06C418.499 225.836 419.822 220.79 420.557 217.754C425.428 199.265 430.089 180.734 434.289 162.099C439.055 140.113 445.669 110.632 449.028 88.4156C450.645 77.9673 452.073 67.4979 453.816 57.0705C455.222 50.747 476.576 55.4791 475.169 61.8026C473.615 71.7694 472.188 81.7571 470.655 91.7449C467.4 113.312 460.933 142.165 456.356 163.481C457.742 161.575 459.128 159.67 460.577 157.806C465.343 152.069 471.516 145.871 479.851 146.876C482.56 147.19 485.289 148.216 487.515 149.787C489.762 151.378 491.043 153.995 492.806 156.089C493.583 158.162 494.57 160.172 495.137 162.329C496.229 166.6 496.439 171.605 496.481 176.002Z" fill="#1882FF"/>
<path d="M607.532 142.438C603.92 151.001 601.632 160.089 599.175 169.03C594.43 187.581 590.903 206.363 588.089 225.292C586.451 237.897 587.165 231.636 585.926 244.116C585.275 250.565 563.523 248.408 564.153 241.959C565.476 228.705 564.72 235.342 566.442 222.109C567.029 218.131 567.68 214.152 568.331 210.174C560.919 217.105 552.71 223.721 543.429 227.386C541.141 228.286 538.705 228.747 536.353 229.417C534.212 229.5 532.049 229.835 529.907 229.668C522.79 229.165 515.798 225.334 511.85 219.387C510.822 217.838 510.108 216.1 509.247 214.445C508.827 212.854 508.281 211.305 508.008 209.692C506.538 201.087 509.415 192.544 512.396 184.587C513.32 182.556 514.139 180.483 515.126 178.473C520.9 166.957 529.047 156.739 538.726 148.237C540.742 146.625 542.673 144.908 544.773 143.422C552.752 137.747 561.045 134.565 570.872 135.423C572.279 135.653 573.706 135.779 575.092 136.093C578.62 136.889 581.874 138.438 584.855 140.406C585.8 137.789 586.808 135.214 587.942 132.68C590.882 126.901 610.45 136.658 607.532 142.438ZM577.906 164.004C577.297 163.627 576.814 163.146 576.604 162.476C576.058 161.324 575.176 160.424 574.21 159.607C572.51 157.932 570.41 157.116 568.037 157.053C561.675 156.906 557.14 161.345 552.542 165.177C543.471 173.134 537.172 182.388 532.427 193.381C531.251 197.548 527.871 203.83 530.222 208.143C530.348 208.122 530.474 208.101 530.6 208.101C530.81 208.227 530.978 208.457 531.23 208.457C531.356 208.457 531.293 208.164 531.419 208.143C531.692 208.08 531.965 208.227 532.238 208.227C533.351 208.206 533.33 208.101 534.422 207.703C544.038 203.453 551.723 196.166 559.051 188.838C564.636 183.017 569.297 176.4 572.929 169.197C573.601 167.878 575.176 167.417 577.108 167.501C577.339 166.329 577.612 165.156 577.906 164.004Z" fill="#1882FF"/>
<path d="M685.471 157.451L683.875 165.324C683.308 168.172 681.166 170.412 678.353 171.208C653.703 178.264 635.226 210.782 630.795 237.583C629.746 243.969 608.224 240.954 609.127 234.526C610.681 223.596 626.008 144.26 629.473 134.042C632.328 128.221 651.981 137.79 649.125 143.611C647.32 151.4 646.417 156.299 644.926 164.214C650.847 154.499 667.288 149.18 677.219 148.196C682.363 147.694 686.499 152.384 685.471 157.451Z" fill="#1882FF"/>
<path d="M756.082 225.564C751.526 228.726 746.907 231.762 741.825 234.045C729.227 239.719 716.021 244.577 701.974 244.325C695.738 243.572 692.924 243.739 687.129 240.912C679.99 237.458 674.636 231.302 672.453 223.659C671.76 221.209 671.76 218.592 671.403 216.058C671.634 213.776 671.676 211.473 672.075 209.211C673.755 199.412 678.038 189.969 683.119 181.258C683.056 180.337 682.972 179.437 682.993 178.515C682.993 176.631 684.799 175.27 687.339 174.432C687.759 173.783 688.179 173.113 688.599 172.485C690.531 169.972 692.358 167.376 694.415 164.968C702.226 155.734 711.779 147.254 722.971 142.333C725.553 141.203 728.283 140.491 730.928 139.549C733.847 139.234 736.765 138.376 739.705 138.585C749.237 139.255 756.271 145.139 759.463 153.85C760.093 155.546 760.344 157.367 760.785 159.147C760.869 160.801 761.079 162.434 761.037 164.089C760.743 172.506 757.048 180.19 752.324 186.995C746.004 195.015 739.075 201.527 729.857 206.196C720.85 210.3 712.199 213.043 702.352 209.986C700.798 209.295 699.181 208.73 697.691 207.892C697.229 207.641 696.83 207.348 696.389 207.076C695.549 209.567 694.898 212.101 694.541 214.635C694.373 215.681 694.478 216.77 694.457 217.838C694.688 218.362 694.835 218.927 695.15 219.388C696.641 221.565 702.016 221.377 704.179 221.44C714.068 220.937 723.411 217.168 732.314 213.127C736.03 211.389 739.453 209.232 742.749 206.824C748.313 202.825 761.667 221.607 756.082 225.564ZM711.443 180.484C710.037 182.18 708.777 183.98 707.475 185.739C707.769 186.66 710.436 189.676 710.562 188.44C713.879 188.419 717.112 186.744 720.052 185.32C725.7 182.326 730.235 177.992 734.036 172.925C736.324 169.344 738.697 165.345 737.773 160.99C737.542 160.676 735.925 158.917 736.156 160.362C736.219 160.717 736.702 161.094 736.492 161.387C736.156 161.89 735.443 161.953 734.918 162.225C725.511 165.91 717.826 172.799 711.443 180.484Z" fill="#1882FF"/>
<path d="M873.957 91.2845C873.894 91.2007 873.852 91.1379 873.789 91.0541C867.511 89.1906 860.813 89.8816 854.347 89.5675C842.378 89.6931 830.389 89.9862 818.463 91.0541C817.959 97.0425 817.225 103.031 816.469 108.999C814.054 128.283 810.695 147.442 807.293 166.601C804.228 183.477 801.078 200.354 798.034 217.251C796.921 223.344 795.955 229.459 795.094 235.614C794.212 242.022 772.523 239.027 773.426 232.62C774.329 226.192 775.315 219.785 776.491 213.399C779.536 196.522 782.685 179.666 785.73 162.79C789.068 144.008 792.365 125.205 794.737 106.256C795.283 101.984 795.829 97.7126 796.27 93.4202C787.01 94.509 777.772 95.7653 768.659 97.6498C761.353 99.1573 753.962 100.539 747.033 103.387C740.944 105.669 733.259 85.2332 739.348 82.9509C747.327 79.6844 755.83 78.0093 764.25 76.2714C779.431 73.1306 794.884 71.5603 810.275 69.8852C824.825 68.1891 839.481 67.8751 854.116 67.7285C862.598 67.6657 871.039 67.896 879.311 69.9061C880.445 70.3458 881.579 70.8065 882.713 71.2462C888.676 73.8635 879.92 93.8599 873.957 91.2845Z" fill="#1882FF"/>
<path d="M892.77 157.451L891.174 165.324C890.607 168.172 888.465 170.412 885.652 171.208C861.002 178.264 842.525 210.782 838.095 237.583C837.045 243.969 815.523 240.954 816.426 234.526C817.98 223.596 833.307 144.26 836.772 134.042C839.627 128.221 859.28 137.79 856.425 143.611C854.619 151.4 853.716 156.299 852.225 164.214C858.146 154.499 874.587 149.18 884.518 148.196C889.662 147.694 893.799 152.384 892.77 157.451Z" fill="#1882FF"/>
<path d="M926.428 140.847C925.777 149.159 924.349 157.388 922.816 165.575C920.486 178.243 918.008 190.869 915.32 203.453C913.935 210.405 912.024 217.315 911.751 224.413C911.394 230.883 889.537 229.669 889.915 223.199C890.02 221.565 890.061 219.932 890.229 218.32C890.922 211.787 892.686 205.38 893.925 198.931C896.57 186.514 899.006 174.076 901.295 161.597C902.575 154.708 903.688 147.798 904.528 140.847C904.549 134.377 926.428 134.377 926.428 140.847ZM938.585 67.9804C938.375 75.3926 937.241 82.784 936.065 90.1125C934.952 97.1479 933.609 104.162 932.286 111.177C931.089 117.542 909.588 113.522 910.785 107.157C912.066 100.331 913.368 93.5045 914.46 86.6576C915.467 80.4807 916.433 74.241 916.706 68.0013C916.706 61.4894 938.585 61.4894 938.585 67.9804Z" fill="#1882FF"/>
<path d="M1021.96 170.474C1020.83 172.736 1019.46 174.892 1018.22 177.112C1009.13 191.266 996.808 201.212 983.076 210.572C973.733 216.1 963.822 222.172 953.198 224.977C952.211 225.229 951.203 225.438 950.196 225.627C947.382 243.634 944.694 261.683 942.889 279.837C942.217 286.977 941.881 294.138 941.545 301.278C941.251 307.748 919.394 306.785 919.688 300.315C920.024 292.756 920.401 285.197 921.115 277.659C923.236 256.511 926.427 235.51 929.766 214.529C933.356 193.842 937.073 173.196 941.02 152.572C942.931 142.898 944.862 133.224 947.529 123.718C949.398 117.52 970.352 123.781 968.484 129.979C966.972 135.423 965.733 140.909 964.578 146.437C967.644 141.139 971.108 136.114 975.161 131.445C980.788 125.938 987.548 121.206 995.401 119.531C997.06 119.175 998.74 119.091 1000.42 118.881C1009.09 118.714 1018.01 121.457 1023.18 128.953C1024.52 130.879 1025.32 133.12 1026.41 135.193C1026.92 137.475 1027.67 139.715 1027.95 142.061C1029.12 151.881 1026.31 161.764 1021.96 170.474ZM1006.32 143.84C1006.99 141.516 1004.39 140.658 1002.54 140.616C998.299 140.448 994.666 143.212 991.601 145.871C986.478 151.525 982.782 158.183 979.486 165.03C975.076 174.683 971.045 184.503 967.392 194.47C968.505 193.821 969.638 193.151 970.751 192.523C981.522 185.257 991.916 177.216 999.223 166.286C1003.25 159.377 1007.12 152.111 1006.32 143.84Z" fill="#1882FF"/>
<path d="M419.507 161.492L418.919 160.424C414.279 152.133 407.686 146.249 399.287 142.92C395.34 140.742 387.067 138.69 360.255 138.774H360.066C340.602 139.381 335.08 135.989 334.429 134.377C334.45 134.042 334.492 133.414 334.597 132.283C335.773 126.944 339.594 120.285 345.935 112.475C358.743 99.828 364.853 95.2425 367.751 93.6302L368.254 93.3161C382.049 83.9356 393.933 77.6959 403.634 74.7226L403.613 74.7854C402.416 78.2194 398.175 85.506 384.863 100.687C378.249 106.319 375.12 109.313 375.855 113.878C376.674 118.966 380.621 124.305 389.251 123.907L390.889 123.698C393.912 123.216 397.503 121.311 405.103 113.648L405.523 113.166C428.41 85.3385 430.215 74.8064 429.229 68.7551L428.62 64.9442L428.095 63.9392C427.192 62.2223 425.722 59.4583 423.496 57.5739C419.444 51.8995 409.135 51.8995 403.739 51.8995H402.815L401.912 52.1508C391.897 54.8937 384.905 57.532 380.6 60.254C372.097 63.7717 360.885 70.5767 346.376 81.0251L345.998 81.3183C320.361 102.529 309.086 120.243 311.543 135.445C312.236 139.695 314.419 143.946 318.031 148.071C323.322 154.331 332.476 158.205 346.04 159.88L346.691 159.922C357.924 160.257 369.136 160.362 380.013 160.215C389.755 160.801 395.718 162.979 397.776 166.664L398.196 169.261C398.196 169.281 398.322 171.145 395.193 176.149C390.364 182.64 385.409 187.456 380.475 190.492L366.764 200.019C352.213 208.646 333.169 217.482 310.262 226.256C297.769 230.841 294.095 233.354 292.247 235.908L290.567 238.232L291.596 244.556L293.801 246.231C296.677 248.409 299.869 249.539 303.123 249.539C303.879 249.539 304.656 249.476 305.412 249.351L307.07 249.079L308.813 248.618C309.359 248.639 309.926 248.618 310.472 248.534L311.102 248.43L327.836 242.357C394.941 215.242 424.483 192 420.809 169.261L419.507 161.492Z" fill="#1882FF"/>
<path d="M26.5728 215.807C21.0105 216.869 17.8383 217.757 15.9698 218.537C5.77955 199.422 0 177.641 0 154.516C0 79.1598 61.25 18.0209 136.84 18.0209C192.354 18.0209 240.111 51.0068 261.578 98.3401L258.688 98.6652L175.863 83.4076C175.298 83.2775 174.733 83.5159 174.32 83.9494C173.929 84.3829 173.777 84.9464 173.951 85.5098L178.318 100.833C178.514 101.569 179.187 102.025 179.926 102.068L227.292 102.328L218.623 103.325C218.579 103.325 218.558 103.368 218.558 103.368L177.492 110.108C151.398 115.483 134.646 118.409 127.562 118.778C128.236 117.716 128.736 116.74 129.17 115.808C130.3 114.941 131.734 114.01 133.494 112.926C138.796 111.626 139.6 108.201 139.6 106.272V105.34C139.6 104.04 139.056 102.718 138.057 101.439L137.731 101.049C137.427 100.659 136.927 100.421 136.427 100.421H135.884C133.994 100.421 131.951 100.746 129.496 101.548C128.692 101.916 127.954 102.285 127.237 102.653C125.694 100.529 122.044 99.1204 115.373 98.0584C115.243 98.015 114.939 98.015 114.808 98.0584C107.052 98.882 101.685 100.009 98.7517 101.374C92.2769 102.826 82.9558 106.619 70.9839 112.644C50.321 124.803 40.2829 135.877 40.2829 146.475C40.2829 149.228 41.2389 152.219 43.1727 155.274C45.9972 159.999 51.9071 163.619 61.3369 166.349C69.5933 167.953 77.8933 169.34 85.8021 170.51C94.6235 172.439 99.5339 175.625 100.403 179.96C100.294 180.155 100.229 180.393 100.229 180.653V181.759C100.229 182.43 99.8599 184.381 96.6007 188.065C91.9945 192.552 87.4317 195.781 82.9776 197.601L72.0051 202.89C60.0984 207.658 44.7587 211.971 26.5728 215.807ZM264.511 105.362C263.056 106.554 259.71 107.833 252.474 109.892C252.409 109.892 252.17 109.957 252.105 109.957C246.934 110.65 241.741 111.387 236.548 112.189L185.858 126.905C180.491 138.565 175.885 149.054 172.191 158.092L171.887 158.634C171.583 159.089 170.192 161.82 162.479 180.805C160.176 185.551 158.437 189.626 157.221 192.898C156.96 193.657 155.96 196.019 151.224 206.726L143.597 224.367C143.532 224.476 143.467 224.606 143.402 224.692C140.012 229.157 138.274 229.937 136.905 230.111C136.797 230.132 136.645 230.132 136.514 230.132C136.254 230.132 135.971 230.111 135.819 230.024C133.559 229.157 132.516 227.987 132.516 226.426C132.516 221.81 136.275 211.169 144.314 192.942C152.136 174.39 161.284 152.327 171.452 127.295C171.496 127.23 171.583 127.035 171.626 126.97C172.3 125.778 172.93 124.477 173.516 123.112C152.832 126.97 140.382 129.137 136.493 129.527L129.887 130.459C129.344 130.459 128.888 130.394 128.519 130.264L125.846 130.459C123.021 130.459 120.849 129.961 119.045 129.159C116.069 132.258 112.549 135.574 108.355 139.302C101.794 144.113 99.3818 144.742 97.8826 144.742H97.2526C92.8636 144.243 90.3649 141.751 90.3649 138.088C90.3649 136.333 91.3644 135.162 97.6871 131.348C105.726 124.694 110.224 120.186 112.744 117.152C113.374 114.551 114.7 112.167 116.742 109.935C116.481 109.87 116.177 109.87 115.917 109.762C107.725 110.282 96.8832 113.685 83.7597 119.84C80.0009 121.227 73.526 125.214 64.4005 131.716C58.4688 137.026 54.5796 141.924 52.9718 146.215C52.6459 147.537 52.5372 148.079 52.5155 148.274C52.5155 152.089 60.0115 155.318 73.0698 157.008C93.6675 160.194 98.6214 162.752 100.555 164.377C105.792 167.368 109.681 172.158 111.984 178.378L112.114 179.05L112.158 184.359C112.158 200.289 88.1704 213.206 36.6326 224.974L24.0089 227.401C23.9003 227.445 23.7048 227.445 23.6178 227.445C23.2485 227.445 22.8791 227.38 22.5532 227.271L21.3799 227.401H21.1844C45.4541 265.589 88.1704 290.968 136.862 290.968C174.646 290.968 208.845 275.667 233.636 250.981C258.362 226.274 273.702 192.14 273.702 154.451C273.68 137.178 270.443 120.598 264.511 105.362Z" fill="#1882FF"/>
</svg>
