<svg width="512" height="512" viewBox="0 0 512 512" fill="none" xmlns="http://www.w3.org/2000/svg">
<rect width="512" height="512" fill="white"/>
<g clip-path="url(#clip0_2499_2187)">
<rect x="56" y="56" width="400" height="400" rx="200" fill="white"/>
<path d="M94.821 345.837C86.679 347.401 82.0544 348.704 79.3187 349.844C64.4351 321.831 56 289.909 56 256C56 145.577 145.529 56 255.967 56C337.094 56 406.887 104.306 438.283 173.687L434.049 174.176L313.027 151.831C312.212 151.635 311.366 151.961 310.779 152.612C310.193 153.231 309.998 154.078 310.258 154.893L316.642 177.335C316.935 178.41 317.912 179.094 318.986 179.127L388.193 179.518L375.525 180.984C375.492 180.984 375.427 181.049 375.427 181.049L315.437 190.951C277.299 198.834 252.808 203.134 242.484 203.655C243.461 202.091 244.178 200.691 244.829 199.322C246.49 198.052 248.574 196.684 251.147 195.088C258.899 193.199 260.071 188.182 260.071 185.349V183.98C260.071 182.091 259.289 180.137 257.824 178.28L257.335 177.694C256.912 177.107 256.163 176.782 255.446 176.782H254.665C251.896 176.782 248.933 177.27 245.318 178.443C244.145 178.964 243.071 179.518 241.996 180.039C239.749 176.912 234.407 174.86 224.67 173.329C224.474 173.264 224.051 173.264 223.855 173.329C212.522 174.534 204.673 176.195 200.374 178.215C190.929 180.365 177.283 185.902 159.794 194.73C129.604 212.547 114.948 228.769 114.948 244.306C114.948 248.345 116.348 252.743 119.182 257.205C123.318 264.111 131.949 269.42 145.725 273.427C157.808 275.772 169.923 277.824 181.484 279.518C194.381 282.352 201.546 287.01 202.816 293.362C202.686 293.655 202.588 293.98 202.588 294.371V295.967C202.588 296.945 202.067 299.811 197.28 305.218C190.571 311.798 183.894 316.521 177.348 319.192L161.325 326.945C143.803 333.915 121.397 340.235 94.821 345.837ZM442.582 184.013C440.432 185.772 435.58 187.629 424.995 190.625C424.898 190.625 424.572 190.723 424.474 190.723C416.918 191.733 409.33 192.808 401.742 193.98L327.617 215.577C319.768 232.678 313.059 248.02 307.653 261.277L307.229 262.059C306.806 262.743 304.754 266.749 293.486 294.534C290.131 301.505 287.591 307.433 285.8 312.254C285.409 313.362 283.943 316.847 277.039 332.515L265.901 358.378C265.803 358.508 265.705 358.704 265.608 358.866C260.625 365.381 258.117 366.554 256.098 366.814C255.967 366.847 255.707 366.847 255.511 366.847C255.121 366.847 254.73 366.814 254.502 366.717C251.18 365.446 249.682 363.752 249.682 361.44C249.682 354.664 255.186 339.094 266.91 312.384C278.342 285.218 291.695 252.873 306.546 216.163C306.578 216.065 306.741 215.772 306.773 215.674C307.751 213.915 308.662 212.026 309.542 210.039C279.286 215.674 261.146 218.866 255.446 219.453L245.806 220.821C245.025 220.821 244.341 220.723 243.82 220.528L239.911 220.821C235.775 220.821 232.616 220.104 229.978 218.932C225.647 223.459 220.468 228.345 214.346 233.785C204.738 240.853 201.253 241.765 199.039 241.765H198.127C191.711 241.049 188.031 237.368 188.031 232.026C188.031 229.453 189.496 227.726 198.745 222.124C210.47 212.384 217.049 205.772 220.761 201.309C221.673 197.498 223.627 194.013 226.591 190.723C226.2 190.625 225.777 190.625 225.386 190.495C213.401 191.277 197.573 196.228 178.39 205.251C172.886 207.303 163.442 213.134 150.089 222.645C141.426 230.43 135.726 237.596 133.382 243.883C132.893 245.837 132.763 246.619 132.698 246.912C132.698 252.515 143.64 257.238 162.758 259.713C192.851 264.404 200.113 268.15 202.947 270.528C210.6 274.925 216.3 281.928 219.654 291.049L219.85 292.026L219.882 299.811C219.882 323.134 184.806 342.091 109.509 359.322L91.0432 362.873C90.9129 362.938 90.6198 362.938 90.4569 362.938C89.9358 362.938 89.3822 362.84 88.8937 362.678L87.2001 362.873H86.9396C122.406 418.834 184.839 456 256 456C311.235 456 361.195 433.59 397.443 397.401C433.593 361.212 456 311.179 456 255.935C455.967 230.625 451.245 206.326 442.582 184.013Z" fill="#073E67"/>
<path d="M295.776 350.093C295.269 350.093 294.932 349.924 294.678 349.587C294.425 349.249 294.34 348.911 294.425 348.404L304.392 301.524C304.477 301.017 304.73 300.595 305.068 300.257C305.406 299.919 305.828 299.75 306.335 299.75H324.073C326.776 299.75 329.226 300.088 331.253 300.679C333.28 301.27 335.054 302.284 336.321 303.551C337.588 304.818 338.517 306.423 338.94 308.366C339.362 310.309 339.362 312.505 338.855 315.039C337.757 320.107 335.477 323.908 332.013 326.527C328.55 329.061 324.158 330.328 318.752 330.328H305.49L301.689 348.319C301.605 348.826 301.351 349.164 301.013 349.502C300.675 349.84 300.253 350.009 299.662 350.009H295.776V350.093ZM306.673 324.499H318.667C322.046 324.499 324.833 323.739 327.199 322.134C329.564 320.529 331.084 318.249 331.76 315.208C332.182 313.181 332.182 311.491 332.013 310.14C331.76 308.788 331 307.69 329.648 307.014C328.297 306.254 326.269 305.916 323.482 305.916H310.727L306.673 324.499Z" fill="white"/>
<path d="M353.131 350.853C350.512 350.853 348.316 350.346 346.627 349.417C344.937 348.488 343.586 347.221 342.657 345.616C341.727 344.011 341.221 342.153 340.967 340.126C340.714 338.098 340.798 335.902 341.136 333.622C341.305 332.861 341.39 332.101 341.558 331.51C341.727 330.834 341.896 330.158 342.065 329.314C342.657 327.033 343.417 324.921 344.346 322.894C345.275 320.867 346.542 319.008 347.978 317.404C349.414 315.714 351.188 314.447 353.3 313.518C355.411 312.589 357.776 312.082 360.564 312.082C363.605 312.082 365.97 312.589 367.49 313.602C369.011 314.616 370.278 315.883 371.122 317.404L371.714 314.447C371.798 313.94 372.052 313.602 372.39 313.265C372.727 312.927 373.15 312.758 373.741 312.758H376.951C377.458 312.758 377.796 312.927 378.049 313.265C378.302 313.602 378.387 313.94 378.302 314.447L371.038 348.488C370.954 348.995 370.7 349.333 370.362 349.671C370.024 350.008 369.602 350.177 369.095 350.177H365.801C365.294 350.177 364.956 350.008 364.703 349.671C364.449 349.333 364.365 348.995 364.449 348.488L365.125 345.447C363.605 346.968 362 348.235 360.31 349.248C358.621 350.346 356.172 350.853 353.131 350.853ZM354.651 345.025C357.016 345.025 359.128 344.434 360.902 343.335C362.676 342.237 364.112 340.801 365.21 339.112C366.308 337.423 367.068 335.649 367.49 333.875C367.659 333.115 367.913 332.186 368.082 331.087C368.251 329.989 368.504 329.06 368.588 328.3C369.011 326.611 369.011 325.006 368.673 323.316C368.335 321.711 367.659 320.36 366.477 319.262C365.294 318.248 363.52 317.657 361.24 317.657C358.959 317.657 357.101 318.164 355.496 319.262C353.891 320.36 352.539 321.711 351.526 323.485C350.512 325.259 349.667 327.117 349.076 329.145C348.907 329.905 348.738 330.581 348.569 331.256C348.4 331.932 348.316 332.608 348.231 333.368C347.978 335.395 347.894 337.254 347.978 339.028C348.147 340.801 348.738 342.153 349.752 343.251C350.766 344.434 352.37 345.025 354.651 345.025Z" fill="white"/>
<path d="M384.977 363.777C384.385 363.777 384.047 363.524 383.794 363.017C383.625 362.51 383.71 362.004 384.132 361.328L393.001 347.559L385.99 314.701C385.906 314.194 385.99 313.772 386.244 313.35C386.497 312.927 386.919 312.758 387.68 312.758H390.805C391.312 312.758 391.734 312.843 391.987 313.096C392.241 313.35 392.41 313.603 392.41 314.025L397.9 340.211L414.71 314.025C414.878 313.687 415.132 313.434 415.47 313.181C415.808 312.927 416.23 312.843 416.737 312.843H420.453C420.876 312.843 421.214 313.012 421.551 313.434C421.889 313.856 421.805 314.279 421.467 314.954L390.636 362.595C390.383 362.933 390.129 363.186 389.791 363.439C389.453 363.693 389.031 363.777 388.524 363.777H384.977Z" fill="white"/>
<path d="M428.645 310.31H426.956V315.969H425.942V310.31H424.337V309.381H428.73V310.31H428.645Z" fill="white"/>
<path d="M435.319 315.969H434.305V311.83L432.869 315.463H432.109L430.673 311.746V315.969H429.659V309.381H430.673L432.447 313.942L434.22 309.381H435.234V315.969H435.319Z" fill="white"/>
</g>
<rect x="46" y="46" width="420" height="420" rx="210" stroke="white" stroke-width="20"/>
<defs>
<clipPath id="clip0_2499_2187">
<rect x="56" y="56" width="400" height="400" rx="200" fill="white"/>
</clipPath>
</defs>
</svg>
