<svg width="24" height="24" viewBox="0 0 24 24" fill="none" xmlns="http://www.w3.org/2000/svg">
<path opacity="0.3" d="M3.06738 7.19293C3.06738 7.74522 3.5151 8.19293 4.06738 8.19293H19.9034C20.4557 8.19293 20.9034 7.74522 20.9034 7.19293V4.56567C20.9034 4.01339 20.4557 3.56567 19.9034 3.56567H4.06738C3.5151 3.56567 3.06738 4.01339 3.06738 4.56567V7.19293Z" fill="#F27D00"/>
<path opacity="0.6" fill-rule="evenodd" clip-rule="evenodd" d="M4.06738 8.15057C3.5151 8.15057 3.06738 8.59829 3.06738 9.15057V19.6384C3.06738 20.1907 3.5151 20.6384 4.06738 20.6384H19.9034C20.4557 20.6384 20.9034 20.1907 20.9034 19.6384V9.15057C20.9034 8.59829 20.4557 8.15057 19.9034 8.15057H4.06738ZM11.1175 13.5782C11.1175 14.7456 10.1593 15.692 8.97738 15.692C7.79543 15.692 6.83728 14.7456 6.83728 13.5782C6.83728 12.4108 7.79543 11.4644 8.97738 11.4644C10.1593 11.4644 11.1175 12.4108 11.1175 13.5782Z" fill="#F27D00"/>
<path opacity="0.3" d="M8.97725 15.692C10.1592 15.692 11.1174 14.7456 11.1174 13.5782C11.1174 12.4108 10.1592 11.4644 8.97725 11.4644C7.79531 11.4644 6.83716 12.4108 6.83716 13.5782C6.83716 14.7456 7.79531 15.692 8.97725 15.692Z" fill="#F27D00"/>
<path fill-rule="evenodd" clip-rule="evenodd" d="M2 5.36145C2 3.84267 3.23122 2.61145 4.75 2.61145H19.25C20.7688 2.61145 22 3.84267 22 5.36145V18.6234C22 20.1422 20.7688 21.3734 19.25 21.3734H4.75C3.23122 21.3734 2 20.1422 2 18.6234V5.36145ZM3.5 8.96884V18.6234C3.5 19.3138 4.05964 19.8734 4.75 19.8734H19.25C19.9404 19.8734 20.5 19.3138 20.5 18.6234V8.96884H3.5ZM20.5 7.46884H3.5V5.36145C3.5 4.67109 4.05964 4.11145 4.75 4.11145H19.25C19.9404 4.11145 20.5 4.67109 20.5 5.36145V7.46884Z" fill="#1A2B3D"/>
<path fill-rule="evenodd" clip-rule="evenodd" d="M8.97737 12.2144C8.20087 12.2144 7.58728 12.8337 7.58728 13.5782C7.58728 14.3227 8.20087 14.942 8.97737 14.942C9.75388 14.942 10.3675 14.3227 10.3675 13.5782C10.3675 12.8337 9.75388 12.2144 8.97737 12.2144ZM6.08728 13.5782C6.08728 11.9879 7.38999 10.7144 8.97737 10.7144C10.5648 10.7144 11.8675 11.9879 11.8675 13.5782C11.8675 15.1685 10.5648 16.442 8.97737 16.442C7.38999 16.442 6.08728 15.1685 6.08728 13.5782Z" fill="#1A2B3D"/>
<path fill-rule="evenodd" clip-rule="evenodd" d="M10.6205 13.5785C10.6205 13.1643 10.9563 12.8285 11.3705 12.8285H16.4071C17.2299 12.8285 17.9126 13.4897 17.9126 14.3247V15.3196C17.9126 15.7338 17.5768 16.0696 17.1626 16.0696C16.7484 16.0696 16.4126 15.7338 16.4126 15.3196V14.3294C16.4124 14.3293 16.4128 14.3295 16.4126 14.3294C16.4123 14.3293 16.4105 14.3285 16.4071 14.3285H15.6461V14.9465C15.6461 15.3607 15.3104 15.6965 14.8961 15.6965C14.4819 15.6965 14.1461 15.3607 14.1461 14.9465V14.3285H11.3705C10.9563 14.3285 10.6205 13.9927 10.6205 13.5785Z" fill="#1A2B3D"/>
<path d="M5.08179 6.26512C5.35013 6.26512 5.56767 6.0501 5.56767 5.78487C5.56767 5.51964 5.35013 5.30462 5.08179 5.30462C4.81345 5.30462 4.59592 5.51964 4.59592 5.78487C4.59592 6.0501 4.81345 6.26512 5.08179 6.26512Z" fill="#1A2B3D"/>
<path d="M6.78549 6.26512C7.05383 6.26512 7.27136 6.0501 7.27136 5.78487C7.27136 5.51964 7.05383 5.30462 6.78549 5.30462C6.51715 5.30462 6.29962 5.51964 6.29962 5.78487C6.29962 6.0501 6.51715 6.26512 6.78549 6.26512Z" fill="#1A2B3D"/>
<path d="M8.48943 6.26512C8.75777 6.26512 8.9753 6.0501 8.9753 5.78487C8.9753 5.51964 8.75777 5.30462 8.48943 5.30462C8.22109 5.30462 8.00355 5.51964 8.00355 5.78487C8.00355 6.0501 8.22109 6.26512 8.48943 6.26512Z" fill="#1A2B3D"/>
</svg>
