<svg width="24" height="24" viewBox="0 0 24 24" fill="none" xmlns="http://www.w3.org/2000/svg">
<path opacity="0.6" d="M18.5844 7.26654C18.5872 7.31086 18.5872 7.35751 18.5844 7.40633V19.1185C18.5844 19.6248 18.1739 20.0353 17.6676 20.0353H6.19315C5.68682 20.0353 5.27637 19.6248 5.27637 19.1185V15.429C5.27637 14.9226 5.68819 14.5143 6.19408 14.4933C14.4489 14.1509 18.4799 9.24071 18.5844 7.40633V7.26654Z" fill="#F27D00"/>
<path fill-rule="evenodd" clip-rule="evenodd" d="M7.98109 2.9711C7.98109 1.88249 8.86359 1 9.95219 1H14.0478C15.1364 1 16.0188 1.88249 16.0188 2.9711V4.72068H17.5513C18.6399 4.72068 19.5224 5.60317 19.5224 6.69178V19.1938C19.5224 20.2824 18.6399 21.1649 17.5513 21.1649H6.44863C5.36003 21.1649 4.47754 20.2824 4.47754 19.1938V6.69178C4.47754 5.60317 5.36003 4.72068 6.44863 4.72068H7.98109V2.9711ZM9.35628 4.72068H14.6437V2.9711C14.6437 2.64198 14.3769 2.37518 14.0478 2.37518H9.95219C9.62308 2.37518 9.35628 2.64198 9.35628 2.9711V4.72068ZM6.44863 6.09587C6.11952 6.09587 5.85272 6.36267 5.85272 6.69178V19.1938C5.85272 19.5229 6.11952 19.7897 6.44863 19.7897H17.5513C17.8804 19.7897 18.1472 19.5229 18.1472 19.1938V6.69178C18.1472 6.36267 17.8804 6.09587 17.5513 6.09587H6.44863Z" fill="#1A2B3D"/>
<path d="M10.9978 21.3956C10.9978 22.2817 10.2795 23 9.39344 23C8.50737 23 7.78906 22.2817 7.78906 21.3956C7.78906 20.5096 8.50737 19.7913 9.39344 19.7913C10.2795 19.7913 10.9978 20.5096 10.9978 21.3956Z" fill="#1A2B3D"/>
<path d="M16.1455 21.3956C16.1455 22.2817 15.4272 23 14.5411 23C13.6551 23 12.9368 22.2817 12.9368 21.3956C12.9368 20.5096 13.6551 19.7913 14.5411 19.7913C15.4272 19.7913 16.1455 20.5096 16.1455 21.3956Z" fill="#1A2B3D"/>
<circle cx="12" cy="13" r="5.5" fill="#F7B166" stroke="white"/>
<rect x="11.25" y="10" width="1.5" height="6" rx="0.75" fill="#1A2B3D"/>
<rect x="9" y="13.75" width="1.5" height="6" rx="0.75" transform="rotate(-90 9 13.75)" fill="#1A2B3D"/>
</svg>
