<svg width="24" height="24" viewBox="0 0 24 24" fill="none" xmlns="http://www.w3.org/2000/svg">
<path opacity="0.6" d="M3.92932 19.6127C3.92932 20.555 4.40119 21.3189 4.98326 21.3189H10.4728H12.8728L19.3551 17.3267V8.81922L15.0852 2.60382H12.3508C11.1377 8.54058 6.23103 10.8384 3.92932 11.2452V17.3267V19.6127Z" fill="#F27D00"/>
<path d="M15.848 3.91688L18.6087 8.15984C18.8266 8.49476 18.5863 8.93789 18.1867 8.93789H15.426C15.1479 8.93789 14.9225 8.71248 14.9225 8.43442V4.19146C14.9225 3.69041 15.5747 3.4969 15.848 3.91688Z" fill="white"/>
<path opacity="0.3" d="M15.8478 3.91688L18.6086 8.15984C18.8265 8.49476 18.5862 8.93789 18.1866 8.93789H15.4258C15.1478 8.93789 14.9224 8.71248 14.9224 8.43442V4.19146C14.9224 3.69041 15.5746 3.4969 15.8478 3.91688Z" fill="#F27D00"/>
<path fill-rule="evenodd" clip-rule="evenodd" d="M7.42554 11.6914C7.42554 11.2743 7.76365 10.9362 8.18074 10.9362H14.6192C15.0363 10.9362 15.3744 11.2743 15.3744 11.6914C15.3744 12.1085 15.0363 12.4466 14.6192 12.4466H8.18074C7.76365 12.4466 7.42554 12.1085 7.42554 11.6914ZM7.42554 14.5937C7.42554 14.1766 7.76365 13.8385 8.18074 13.8385H10.5368C10.9539 13.8385 11.292 14.1766 11.292 14.5937C11.292 15.0108 10.9539 15.3489 10.5368 15.3489H8.18074C7.76365 15.3489 7.42554 15.0108 7.42554 14.5937Z" fill="#1A2B3D"/>
<path fill-rule="evenodd" clip-rule="evenodd" d="M19.3445 15.609C19.7616 15.609 20.0997 15.2709 20.0997 14.8538L20.0997 8.75589L15.2131 1.99998L5.08457 1.99998C3.96489 1.99998 3 2.8768 3 4.02744L3 19.3624C3 20.8918 4.23976 22.1315 5.76909 22.1315L9.45987 22.1315C9.87696 22.1315 10.2151 21.7934 10.2151 21.3763C10.2151 20.9592 9.87696 20.6211 9.45987 20.6211L5.76909 20.6211C5.07395 20.6211 4.51041 20.0576 4.51042 19.3624L4.51042 4.02744C4.51042 3.7728 4.73588 3.5104 5.08457 3.5104L14.0721 3.5104L14.0721 6.9865C14.0721 8.51583 15.3119 9.75559 16.8412 9.75559L18.5893 9.75559L18.5893 14.8538C18.5893 15.2709 18.9274 15.609 19.3445 15.609ZM17.8662 8.24518L15.5825 5.08789L15.5825 6.9865C15.5825 7.68165 16.1461 8.24518 16.8412 8.24518L17.8662 8.24518Z" fill="#1A2B3D"/>
<path fill-rule="evenodd" clip-rule="evenodd" d="M13.0091 15.085C13.2273 14.7789 13.6374 14.6799 13.9712 14.8528L18.9855 17.4494L21.0619 16.2507C21.4231 16.0421 21.8849 16.1659 22.0935 16.5271C22.302 16.8883 22.1783 17.3502 21.8171 17.5587L13.9226 22.1166C13.4458 22.3919 12.8453 22.3253 12.4404 21.9523L11.1309 20.7458C10.8579 20.4943 10.8082 20.0815 11.0137 19.7723C11.2193 19.4631 11.6192 19.3492 11.9568 19.5037L13.8932 20.3895L16.2245 19.0435L13.1031 16.0703C12.8309 15.811 12.7908 15.391 13.0091 15.085Z" fill="#1A2B3D"/>
</svg>
