<svg width="24" height="24" viewBox="0 0 24 24" fill="none" xmlns="http://www.w3.org/2000/svg">
<path opacity="0.3" d="M5.43794 21.3617H19.3478C20.1392 21.3617 20.4561 20.6105 19.7726 20.2115C18.1457 19.2619 15.3386 18.2749 11.9476 18.1517C7.48572 17.9896 5.53055 19.2128 4.73597 20.2994C4.37257 20.7964 4.82226 21.3617 5.43794 21.3617Z" fill="#F27D00"/>
<path opacity="0.6" d="M4.87824 12.8716L7.33655 13.2088C7.96964 13.2956 8.5958 13.0549 8.84676 12.4673C8.98984 12.1322 9.14542 11.687 9.28763 11.1077C9.70253 9.41775 11.144 8.32213 11.144 8.32213C7.75634 6.98674 5.04655 9.01106 3.75005 10.835C3.1172 11.7253 3.79608 12.7232 4.87824 12.8716Z" fill="#F27D00"/>
<path opacity="0.6" d="M19.9126 5.37081L18.297 7.3527C18.0988 7.59579 17.8464 7.79382 17.5403 7.85507C17.0606 7.95106 16.2548 7.99475 15.3839 7.53853C13.9953 6.81111 11.9716 7.16928 11.9716 7.16928C13.2864 2.93051 16.7084 2.29311 19.2359 2.79866C20.4182 3.03514 20.678 4.43181 19.9126 5.37081Z" fill="#F27D00"/>
<path d="M5.43794 21.3617H19.3478C20.1392 21.3617 20.4561 20.6105 19.7726 20.2115C18.1457 19.2619 15.3386 18.2749 11.9476 18.1517C7.48572 17.9896 5.53055 19.2128 4.73597 20.2994C4.37257 20.7964 4.82226 21.3617 5.43794 21.3617Z" stroke="#1A2B3D" stroke-width="1.5" stroke-linecap="round"/>
<path d="M15.4872 6.35975C15.0901 6.24187 14.6727 6.46821 14.5548 6.8653C14.4369 7.26238 14.6632 7.67984 15.0603 7.79773L15.4872 6.35975ZM18.3517 7.4251L17.8024 6.91441L18.3517 7.4251ZM17.3488 7.69476L17.5622 6.97577L17.3488 7.69476ZM21.0561 4.04461L21.7138 4.40493L21.0561 4.04461ZM21.0561 4.04461L20.3983 3.6843C19.934 4.53178 18.7054 5.94318 17.8024 6.91441L18.3517 7.4251L18.9009 7.9358C19.7786 6.99183 21.1441 5.44507 21.7138 4.40493L21.0561 4.04461ZM17.3488 7.69476L17.5622 6.97577L15.4872 6.35975L15.2738 7.07874L15.0603 7.79773L17.1353 8.41374L17.3488 7.69476ZM12.0068 7.46558L12.7336 7.65097C13.0276 6.49843 13.5418 5.23872 14.6172 4.42979C15.661 3.6447 17.3993 3.16481 20.4167 3.92759L20.6005 3.20047L20.7843 2.47334C17.4873 1.63989 15.2363 2.0872 13.7156 3.23104C12.2265 4.35105 11.6011 6.02201 11.2801 7.28019L12.0068 7.46558ZM18.3517 7.4251L17.8024 6.91441C17.7459 6.97521 17.6546 7.00319 17.5622 6.97577L17.3488 7.69476L17.1353 8.41374C17.7612 8.59954 18.4473 8.42368 18.9009 7.9358L18.3517 7.4251ZM21.0561 4.04461L21.7138 4.40493C21.9423 3.98789 21.9253 3.52333 21.7065 3.14619C21.5013 2.79247 21.1522 2.56634 20.7843 2.47334L20.6005 3.20047L20.4167 3.92759C20.458 3.93802 20.438 3.9489 20.409 3.89888C20.393 3.87131 20.3787 3.83051 20.378 3.78164C20.3773 3.73176 20.3911 3.69738 20.3983 3.6843L21.0561 4.04461Z" fill="#1A2B3D"/>
<path d="M11.9718 8.67539L11.6017 9.32772L11.6083 9.33145L11.615 9.33506L11.9718 8.67539ZM3.19605 11.4896L3.84575 11.8643L3.19605 11.4896ZM4.20379 13.0164L4.24729 12.2676L4.20379 13.0164ZM7.42079 13.3759L7.34058 14.1216L7.42079 13.3759ZM9.6739 11.0999C9.7869 10.7014 9.55546 10.2867 9.15696 10.1737C8.75845 10.0607 8.3438 10.2922 8.2308 10.6907L9.6739 11.0999ZM8.42922 12.7401L9.15077 12.9447L8.42922 12.7401ZM8.35893 12.9103L7.72056 12.5166L8.35893 12.9103ZM11.9718 8.67539L12.3419 8.02306C11.2579 7.40805 9.52154 6.97698 7.69933 7.29633C5.84109 7.622 3.92543 8.7237 2.54636 11.1149L3.19605 11.4896L3.84575 11.8643C5.00018 9.86259 6.53214 9.02375 7.95827 8.77381C9.42045 8.51756 10.8052 8.87582 11.6017 9.32772L11.9718 8.67539ZM4.20379 13.0164L4.16028 13.7651C5.05319 13.817 5.97423 13.9746 7.34058 14.1216L7.42079 13.3759L7.50099 12.6302C6.262 12.4969 5.17768 12.3217 4.24729 12.2676L4.20379 13.0164ZM8.42922 12.7401L9.15077 12.9447L9.6739 11.0999L8.95235 10.8953L8.2308 10.6907L7.70767 12.5355L8.42922 12.7401ZM7.42079 13.3759L7.34058 14.1216C8.01566 14.1942 8.65292 13.8624 8.99729 13.304L8.35893 12.9103L7.72056 12.5166C7.66901 12.6002 7.58163 12.6388 7.50099 12.6302L7.42079 13.3759ZM3.19605 11.4896L2.54636 11.1149C2.17892 11.752 2.30918 12.4368 2.64725 12.9202C2.97614 13.3905 3.5318 13.7286 4.16028 13.7651L4.20379 13.0164L4.24729 12.2676C4.09879 12.259 3.95498 12.1728 3.87646 12.0606C3.84014 12.0086 3.82849 11.9662 3.82619 11.9407C3.82437 11.9204 3.82642 11.8978 3.84575 11.8643L3.19605 11.4896ZM11.9718 8.67539L11.615 9.33506L12.0155 9.5517L12.3723 8.89203L12.7292 8.23236L12.3287 8.01572L11.9718 8.67539ZM8.42922 12.7401L7.70767 12.5355C7.70386 12.5489 7.70238 12.5521 7.70347 12.5494C7.7047 12.5463 7.70982 12.534 7.72056 12.5166L8.35893 12.9103L8.99729 13.304C9.08189 13.1668 9.12566 13.0332 9.15077 12.9447L8.42922 12.7401Z" fill="#1A2B3D"/>
<path d="M14.9012 8.84646C14.7082 8.47994 14.2547 8.33925 13.8881 8.53222C13.5216 8.72519 13.3809 9.17875 13.5739 9.54526L14.9012 8.84646ZM14.2375 9.19586L13.5739 9.54526C14.1814 10.6991 14.4909 12.2175 14.4919 13.7812C14.4929 15.3432 14.1858 16.8827 13.6266 18.0664L14.3047 18.3867L14.9829 18.7071C15.655 17.2844 15.993 15.5175 15.9919 13.7802C15.9908 12.0447 15.6511 10.2708 14.9012 8.84646L14.2375 9.19586Z" fill="#1A2B3D"/>
<path d="M11.9444 15.8903C14.4797 5.68305 8.7304 1.4979 4.43942 3.17101C4.12133 3.29504 4.06878 3.70454 4.31917 3.93663L6.67998 6.12488" stroke="#1A2B3D" stroke-width="1.5" stroke-linecap="round"/>
</svg>
