<svg width="24" height="24" viewBox="0 0 24 24" fill="none" xmlns="http://www.w3.org/2000/svg">
<path opacity="0.6" d="M3.92932 19.6127C3.92932 20.555 4.40119 21.3189 4.98326 21.3189H13C18 21.3189 19.3551 20 19.3551 16V8.81922L15.0852 2.60382H12.3508C11.1377 8.54058 6.23103 10.8384 3.92932 11.2452V17.3267V19.6127Z" fill="#F27D00"/>
<path d="M15.848 3.91688L18.6087 8.15984C18.8266 8.49476 18.5863 8.93789 18.1867 8.93789H15.426C15.1479 8.93789 14.9225 8.71248 14.9225 8.43442V4.19146C14.9225 3.69041 15.5747 3.4969 15.848 3.91688Z" fill="white"/>
<path opacity="0.3" d="M15.8478 3.91688L18.6086 8.15984C18.8265 8.49476 18.5862 8.93789 18.1866 8.93789H15.4258C15.1478 8.93789 14.9224 8.71248 14.9224 8.43442V4.19146C14.9224 3.69041 15.5746 3.4969 15.8478 3.91688Z" fill="#F27D00"/>
<path fill-rule="evenodd" clip-rule="evenodd" d="M7.42554 11.6914C7.42554 11.2743 7.76365 10.9362 8.18074 10.9362H14.6192C15.0363 10.9362 15.3744 11.2743 15.3744 11.6914C15.3744 12.1085 15.0363 12.4466 14.6192 12.4466H8.18074C7.76365 12.4466 7.42554 12.1085 7.42554 11.6914ZM7.42554 14.5937C7.42554 14.1766 7.76365 13.8385 8.18074 13.8385H10.5368C10.9539 13.8385 11.292 14.1766 11.292 14.5937C11.292 15.0108 10.9539 15.3489 10.5368 15.3489H8.18074C7.76365 15.3489 7.42554 15.0108 7.42554 14.5937Z" fill="#1A2B3D"/>
<path fill-rule="evenodd" clip-rule="evenodd" d="M19.3445 15.609C19.7616 15.609 20.0997 15.2709 20.0997 14.8538L20.0997 8.75589L15.2131 1.99998L5.08457 1.99998C3.96489 1.99998 3 2.8768 3 4.02744L3 19.3624C3 20.8918 4.23976 22.1315 5.76909 22.1315L9.45987 22.1315C9.87696 22.1315 10.2151 21.7934 10.2151 21.3763C10.2151 20.9592 9.87696 20.6211 9.45987 20.6211L5.76909 20.6211C5.07395 20.6211 4.51041 20.0576 4.51042 19.3624L4.51042 4.02744C4.51042 3.7728 4.73588 3.5104 5.08457 3.5104L14.0721 3.5104L14.0721 6.9865C14.0721 8.51583 15.3119 9.75559 16.8412 9.75559L18.5893 9.75559L18.5893 14.8538C18.5893 15.2709 18.9274 15.609 19.3445 15.609ZM17.8662 8.24518L15.5825 5.08789L15.5825 6.9865C15.5825 7.68165 16.1461 8.24518 16.8412 8.24518L17.8662 8.24518Z" fill="#1A2B3D"/>
<path fill-rule="evenodd" clip-rule="evenodd" d="M12.35 21.7006C12.35 21.5077 12.507 21.3513 12.7 21.3513H19.25C19.4429 21.3513 19.6 21.5077 19.6 21.7006C19.6 21.8936 19.4429 22.05 19.25 22.05H12.7C12.507 22.05 12.35 21.8936 12.35 21.7006Z" fill="#1A2B3D"/>
<path fill-rule="evenodd" clip-rule="evenodd" d="M13.6047 15H16.8827C17.2639 15 17.5729 15.3228 17.5729 15.721V21.9875H16.0201V19.6776C16.0201 19.2297 15.6725 18.8666 15.2437 18.8666C14.8149 18.8666 14.4673 19.2297 14.4673 19.6776V21.9875H12.9146V15.721C12.9146 15.3228 13.2235 15 13.6047 15ZM14.2733 16.4935C14.108 16.4935 13.974 16.6335 13.974 16.8062C13.974 16.9789 14.108 17.1189 14.2733 17.1189H16.2142C16.3795 17.1189 16.5135 16.9789 16.5135 16.8062C16.5135 16.6335 16.3795 16.4935 16.2142 16.4935H14.2733ZM14.2733 17.8181C14.108 17.8181 13.974 17.9581 13.974 18.1308C13.974 18.3035 14.108 18.4435 14.2733 18.4435H16.2142C16.3795 18.4435 16.5135 18.3035 16.5135 18.1308C16.5135 17.9581 16.3795 17.8181 16.2142 17.8181H14.2733Z" fill="#1A2B3D"/>
<path d="M13.974 16.8062C13.974 16.6335 14.108 16.4935 14.2733 16.4935H16.2142C16.3795 16.4935 16.5135 16.6335 16.5135 16.8062C16.5135 16.9789 16.3795 17.1189 16.2142 17.1189H14.2733C14.108 17.1189 13.974 16.9789 13.974 16.8062Z" fill="#1A2B3D"/>
<path d="M13.974 18.1308C13.974 17.9581 14.108 17.8181 14.2733 17.8181H16.2142C16.3795 17.8181 16.5135 17.9581 16.5135 18.1308C16.5135 18.3035 16.3795 18.4435 16.2142 18.4435H14.2733C14.108 18.4435 13.974 18.3035 13.974 18.1308Z" fill="#1A2B3D"/>
<path fill-rule="evenodd" clip-rule="evenodd" d="M16.9906 16.9798H18.2898C18.7347 16.9798 19.0954 17.3405 19.0954 17.7854V21.9473H16.9906V19.2781H17.7536C17.9466 19.2781 18.103 19.1217 18.103 18.9287C18.103 18.7358 17.9466 18.5794 17.7536 18.5794H16.9906V16.9798ZM17.7537 20.1191H16.9906V20.8178H17.7537C17.9466 20.8178 18.103 20.6614 18.103 20.4685C18.103 20.2755 17.9466 20.1191 17.7537 20.1191Z" fill="#1A2B3D"/>
</svg>
