<svg width="24" height="24" viewBox="0 0 24 24" fill="none" xmlns="http://www.w3.org/2000/svg">
<path opacity="0.6" d="M4.52927 4.29415C4.52927 3.35791 4.99812 2.59894 5.57647 2.59894H8.41532C11.3548 8.95622 16.115 10.2571 19.8564 10.2571V19.4991C19.8564 20.4353 19.3876 21.1943 18.8092 21.1943H5.57647C4.99812 21.1943 4.52927 20.4353 4.52927 19.4991V4.29415Z" fill="#F27D00"/>
<path fill-rule="evenodd" clip-rule="evenodd" d="M10.0354 17.5019C10.0354 17.0877 10.3712 16.7519 10.7854 16.7519H15.7717C16.1859 16.7519 16.5217 17.0877 16.5217 17.5019C16.5217 17.9161 16.1859 18.2519 15.7717 18.2519H10.7854C10.3712 18.2519 10.0354 17.9161 10.0354 17.5019Z" fill="#1A2B3D"/>
<path d="M9.39954 17.5019C9.39954 17.909 9.06952 18.239 8.66241 18.239C8.25531 18.239 7.92529 17.909 7.92529 17.5019C7.92529 17.0948 8.25531 16.7647 8.66241 16.7647C9.06952 16.7647 9.39954 17.0948 9.39954 17.5019Z" fill="#1A2B3D"/>
<path fill-rule="evenodd" clip-rule="evenodd" d="M10.0354 14.8294C10.0354 14.4152 10.3712 14.0794 10.7854 14.0794L13.4832 14.0794C13.8974 14.0794 14.2332 14.4152 14.2332 14.8294C14.2332 15.2437 13.8974 15.5794 13.4832 15.5794L10.7854 15.5794C10.3712 15.5794 10.0354 15.2437 10.0354 14.8294Z" fill="#1A2B3D"/>
<path d="M9.39954 14.8294C9.39954 15.2365 9.06952 15.5666 8.66241 15.5666C8.25531 15.5666 7.92529 15.2365 7.92529 14.8294C7.92529 14.4223 8.25531 14.0923 8.66241 14.0923C9.06952 14.0923 9.39954 14.4223 9.39954 14.8294Z" fill="#1A2B3D"/>
<path fill-rule="evenodd" clip-rule="evenodd" d="M6.448 22.0013C4.92922 22.0013 3.698 20.77 3.698 19.2513L3.698 4.74908C3.698 3.2303 4.92922 1.99909 6.448 1.99908L17.9377 1.99908C19.4565 1.99908 20.6877 3.2303 20.6877 4.74908V19.2513C20.6877 20.77 19.4565 22.0013 17.9377 22.0013H6.448ZM5.198 19.2513C5.198 19.9416 5.75764 20.5013 6.448 20.5013H17.9377C18.6281 20.5013 19.1877 19.9416 19.1877 19.2513V4.74908C19.1877 4.05873 18.6281 3.49908 17.9377 3.49908L6.448 3.49908C5.75764 3.49908 5.198 4.05873 5.198 4.74908V19.2513Z" fill="#1A2B3D"/>
<path fill-rule="evenodd" clip-rule="evenodd" d="M9.5 11.7026C9.5 11.5384 9.63366 11.4053 9.79787 11.4053H15.3723C15.5365 11.4053 15.6702 11.5384 15.6702 11.7026C15.6702 11.8668 15.5365 11.9999 15.3723 11.9999H9.79787C9.63366 11.9999 9.5 11.8668 9.5 11.7026Z" fill="#1A2B3D"/>
<path fill-rule="evenodd" clip-rule="evenodd" d="M10.5678 6H13.3576C13.682 6 13.945 6.27471 13.945 6.61359V11.9467H12.6235V9.98096C12.6235 9.59972 12.3276 9.29067 11.9627 9.29067C11.5978 9.29067 11.302 9.59972 11.302 9.98096V11.9467H9.98047V6.61359C9.98047 6.27471 10.2434 6 10.5678 6ZM11.1368 7.27105C10.9961 7.27105 10.8821 7.3902 10.8821 7.53717C10.8821 7.68414 10.9961 7.80328 11.1368 7.80328H12.7887C12.9294 7.80328 13.0434 7.68414 13.0434 7.53717C13.0434 7.3902 12.9294 7.27105 12.7887 7.27105H11.1368ZM11.1368 8.39837C10.9961 8.39837 10.8821 8.51752 10.8821 8.66449C10.8821 8.81146 10.9961 8.9306 11.1368 8.9306H12.7887C12.9294 8.9306 13.0434 8.81146 13.0434 8.66449C13.0434 8.51752 12.9294 8.39837 12.7887 8.39837H11.1368Z" fill="#1A2B3D"/>
<path d="M10.8821 7.53717C10.8821 7.3902 10.9961 7.27105 11.1368 7.27105H12.7887C12.9294 7.27105 13.0434 7.3902 13.0434 7.53717C13.0434 7.68414 12.9294 7.80328 12.7887 7.80328H11.1368C10.9961 7.80328 10.8821 7.68414 10.8821 7.53717Z" fill="#1A2B3D"/>
<path d="M10.8821 8.66449C10.8821 8.51752 10.9961 8.39837 11.1368 8.39837H12.7887C12.9294 8.39837 13.0434 8.51752 13.0434 8.66449C13.0434 8.81146 12.9294 8.9306 12.7887 8.9306H11.1368C10.9961 8.9306 10.8821 8.81146 10.8821 8.66449Z" fill="#1A2B3D"/>
<path fill-rule="evenodd" clip-rule="evenodd" d="M13.4495 7.68494H14.5551C14.9338 7.68494 15.2407 7.99188 15.2407 8.37052V11.9125H13.4495V9.64093H14.0989C14.2631 9.64093 14.3962 9.50781 14.3962 9.34359C14.3962 9.17938 14.2631 9.04626 14.0989 9.04626H13.4495V7.68494ZM14.0989 10.3567H13.4495V10.9513H14.0989C14.2631 10.9513 14.3962 10.8182 14.3962 10.654C14.3962 10.4898 14.2631 10.3567 14.0989 10.3567Z" fill="#1A2B3D"/>
</svg>
