<svg width="24" height="24" viewBox="0 0 24 24" fill="none" xmlns="http://www.w3.org/2000/svg">
<path opacity="0.6" fill-rule="evenodd" clip-rule="evenodd" d="M2.7738 12.038C2.7738 6.94258 6.90449 2.81189 12 2.81189C17.0954 2.81189 21.2261 6.94258 21.2261 12.038C21.2261 15.3146 19.5181 18.1922 16.9439 19.8291L15.7257 16.513L12 14.6696L8.02675 16.513L6.65081 19.5561C4.3041 17.8835 2.7738 15.1395 2.7738 12.038ZM12 11.984C13.5099 11.984 14.734 10.7599 14.734 9.24994C14.734 7.73998 13.5099 6.51591 12 6.51591C10.49 6.51591 9.26593 7.73998 9.26593 9.24994C9.26593 10.7599 10.49 11.984 12 11.984Z" fill="#F27D00"/>
<path fill-rule="evenodd" clip-rule="evenodd" d="M3.50046 12C3.50046 7.3058 7.30583 3.50043 12 3.50043C16.6942 3.50043 20.4995 7.3058 20.4995 12C20.4995 14.5823 19.348 16.8956 17.5304 18.4544C16.9766 15.9096 14.7109 14.0038 12.0001 14.0038C9.28924 14.0038 7.02354 15.9097 6.46978 18.4545C4.65209 16.8957 3.50046 14.5823 3.50046 12ZM7.84796 19.4181C9.07579 20.1068 10.492 20.4995 12 20.4995C13.508 20.4995 14.9243 20.1068 16.1522 19.418C16.0251 17.2352 14.2148 15.5043 12.0001 15.5043C9.78538 15.5043 7.97497 17.2352 7.84796 19.4181ZM12 1.99997C6.47715 1.99997 2 6.47712 2 12C2 17.5228 6.47715 22 12 22C17.5228 22 22 17.5228 22 12C22 6.47712 17.5228 1.99997 12 1.99997Z" fill="#1A2B3D"/>
<path opacity="0.3" d="M14.5887 9.29903C14.5887 10.7287 13.4297 11.8877 12 11.8877C10.5704 11.8877 9.41138 10.7287 9.41138 9.29903C9.41138 7.86936 10.5704 6.71039 12 6.71039C13.4297 6.71039 14.5887 7.86936 14.5887 9.29903Z" fill="#F27D00"/>
<path fill-rule="evenodd" clip-rule="evenodd" d="M12 7.26356C10.8758 7.26356 9.96443 8.17491 9.96443 9.29911C9.96443 10.4233 10.8758 11.3347 12 11.3347C13.1242 11.3347 14.0355 10.4233 14.0355 9.29911C14.0355 8.17491 13.1242 7.26356 12 7.26356ZM8.4989 9.29911C8.4989 7.36552 10.0664 5.79803 12 5.79803C13.9336 5.79803 15.5011 7.36552 15.5011 9.29911C15.5011 11.2327 13.9336 12.8002 12 12.8002C10.0664 12.8002 8.4989 11.2327 8.4989 9.29911Z" fill="#1A2B3D"/>
</svg>
