<svg width="24" height="24" viewBox="0 0 24 24" fill="none" xmlns="http://www.w3.org/2000/svg">
<path opacity="0.3" d="M8.56851 6.30737C8.32916 6.30737 8.13513 5.85966 8.13513 5.30737V3.99374L11.0227 1.68011H13.2271L15.8649 3.99374V5.30737C15.8649 5.85966 15.6708 6.30737 15.4315 6.30737H8.56851Z" fill="#F27D00"/>
<path opacity="0.6" d="M19.6584 19.5426V7.86346C14.0371 14.4968 9.31777 15.0368 4.34167 15.0368V19.5426C4.34167 20.3547 4.8102 21.013 5.38816 21.013H18.612C19.1899 21.013 19.6584 20.3547 19.6584 19.5426Z" fill="#F27D00"/>
<path fill-rule="evenodd" clip-rule="evenodd" d="M12.1034 1.87628C11.5795 1.87628 11.1547 2.301 11.1547 2.82493C11.1547 3.23914 10.819 3.57493 10.4047 3.57493H9.22205C9.08397 3.57493 8.97205 3.68685 8.97205 3.82493V4.89696C8.97205 5.03503 9.08397 5.14696 9.22205 5.14696H14.952C15.09 5.14696 15.202 5.03503 15.202 4.89696V3.82493C15.202 3.68686 15.09 3.57493 14.952 3.57493H13.802C13.3878 3.57493 13.052 3.23914 13.052 2.82493C13.052 2.301 12.6273 1.87628 12.1034 1.87628ZM9.77174 2.07493C10.0885 1.08945 11.0127 0.376282 12.1034 0.376282C13.1941 0.376282 14.1183 1.08945 14.435 2.07493H14.952C15.8511 2.07493 16.5919 2.75306 16.6908 3.62579H17.5869C19.1057 3.62579 20.3369 4.85701 20.3369 6.37579V19.4556C20.3369 20.9743 19.1057 22.2056 17.5869 22.2056H6.58691C5.06813 22.2056 3.83691 20.9743 3.83691 19.4556V6.37579C3.83691 4.85701 5.06813 3.62579 6.58691 3.62579H7.48325C7.5821 2.75306 8.32288 2.07493 9.22205 2.07493H9.77174ZM7.48687 5.12579H6.58691C5.89656 5.12579 5.33691 5.68544 5.33691 6.37579V19.4556C5.33691 20.1459 5.89656 20.7056 6.58691 20.7056H17.5869C18.2773 20.7056 18.8369 20.1459 18.8369 19.4556V6.37579C18.8369 5.68544 18.2773 5.12579 17.5869 5.12579H16.6871C16.575 5.98416 15.8409 6.64696 14.952 6.64696H9.22205C8.33311 6.64696 7.59897 5.98416 7.48687 5.12579ZM6.5979 10.6762C6.5979 10.262 6.93369 9.92621 7.3479 9.92621H9.03634C9.39464 9.92621 9.7029 10.1796 9.77219 10.5312L10.6386 14.927H14.6177L14.9734 13.1226H11.5776C11.1634 13.1226 10.8276 12.7868 10.8276 12.3726C10.8276 11.9584 11.1634 11.6226 11.5776 11.6226H15.8856C16.1099 11.6226 16.3225 11.723 16.465 11.8963C16.6074 12.0696 16.6648 12.2976 16.6215 12.5177L15.9702 15.822C15.9009 16.1735 15.5926 16.427 15.2343 16.427H10.022C9.66373 16.427 9.35547 16.1735 9.28618 15.822L8.41974 11.4262H7.3479C6.93369 11.4262 6.5979 11.0904 6.5979 10.6762Z" fill="#1A2B3D"/>
<path fill-rule="evenodd" clip-rule="evenodd" d="M10.9768 18.8658C11.4511 18.8658 11.8356 18.4813 11.8356 18.007C11.8356 17.5327 11.4511 17.1482 10.9768 17.1482C10.5025 17.1482 10.118 17.5327 10.118 18.007C10.118 18.4813 10.5025 18.8658 10.9768 18.8658ZM14.2979 18.8658C14.7722 18.8658 15.1567 18.4813 15.1567 18.007C15.1567 17.5327 14.7722 17.1482 14.2979 17.1482C13.8236 17.1482 13.4391 17.5327 13.4391 18.007C13.4391 18.4813 13.8236 18.8658 14.2979 18.8658Z" fill="#1A2B3D"/>
</svg>
