<svg width="24" height="24" viewBox="0 0 24 24" fill="none" xmlns="http://www.w3.org/2000/svg">
<path opacity="0.6" d="M5.00366 15.1122C13.4581 15.1122 19 8.9507 19 4V20.0031C19 21.1059 18.1059 22 17.0031 22C15.9002 22 15.0061 21.1059 15.0061 20.0031V18.7861C15.0061 18.2338 14.5584 17.7861 14.0061 17.7861H6.00366C5.45138 17.7861 5.00366 17.3384 5.00366 16.7861V15.1122Z" fill="#F27D00"/>
<path d="M10.0037 9H14.0037" stroke="#1A2B3D" stroke-width="1.5" stroke-linecap="round"/>
<path d="M10.0037 12.5H14.0037" stroke="#1A2B3D" stroke-width="1.5" stroke-linecap="round"/>
<path opacity="0.3" d="M14.531 17.759H3.2C3.08954 17.759 3 17.8486 3 17.959V19.5C3 20.6046 3.89543 21.5 5 21.5H13.031C14.1356 21.5 15.031 20.6046 15.031 19.5V18.259C15.031 17.9829 14.8072 17.759 14.531 17.759Z" fill="#F27D00"/>
<path d="M5.00366 17.7716V4.22318C5.00366 3.45536 5.83314 2.97399 6.4998 3.35494L7.51138 3.93298C8.12625 4.28434 8.88107 4.28434 9.49594 3.93298L11.0114 3.06702C11.6262 2.71566 12.3811 2.71566 12.9959 3.06702L14.5114 3.93298C15.1262 4.28434 15.8811 4.28434 16.4959 3.93298L17.5075 3.35494C18.1742 2.97399 19.0037 3.45536 19.0037 4.22318V19.5C19.0037 20.6046 18.1082 21.5 17.0037 21.5H15.5037" stroke="#1A2B3D" stroke-width="1.5"/>
<path d="M19 18.9344V19.8768C19 20.769 18.2799 21.494 17.3877 21.5V21.5M17.3877 21.5H5C3.89543 21.5 3 20.6046 3 19.5V17.959C3 17.8486 3.08954 17.759 3.2 17.759H14.531C14.8072 17.759 15.031 17.9829 15.031 18.259V19.5C15.031 20.6046 15.9265 21.5 17.031 21.5H17.3877Z" stroke="#1A2B3D" stroke-width="1.5" stroke-linecap="round"/>
</svg>
