<svg width="24" height="24" viewBox="0 0 24 24" fill="none" xmlns="http://www.w3.org/2000/svg">
<path opacity="0.6" d="M2.69629 9.75549C2.69629 9.20321 3.144 8.75549 3.69629 8.75549H20.2132C20.7655 8.75549 21.2132 9.20321 21.2132 9.75549V15.8997C21.2132 16.452 19.0638 18.6261 18.5115 18.6261H5.02221C4.46993 18.6261 2.69629 16.452 2.69629 15.8997V9.75549Z" fill="#F27D00"/>
<path opacity="0.3" d="M2.69629 7.75549C2.69629 8.30778 3.144 8.75549 3.69629 8.75549H20.2132C20.7655 8.75549 21.2132 8.30778 21.2132 7.75549V5.73388C21.2132 5.1816 20.7655 4.73388 20.2132 4.73388H3.69629C3.144 4.73388 2.69629 5.1816 2.69629 5.73388V7.75549Z" fill="#F27D00"/>
<path fill-rule="evenodd" clip-rule="evenodd" d="M1.9834 7.83411C1.9834 5.76304 3.66233 4.08411 5.7334 4.08411H18.2474C20.3185 4.08411 21.9974 5.76304 21.9974 7.83411V15.5893C21.9974 17.6604 20.3185 19.3393 18.2474 19.3393H15.9611C15.5469 19.3393 15.2111 19.0036 15.2111 18.5893C15.2111 18.1751 15.5469 17.8393 15.9611 17.8393H18.2474C19.4901 17.8393 20.4974 16.832 20.4974 15.5893V9.50845H3.4834V15.5893C3.4834 16.832 4.49076 17.8393 5.7334 17.8393H8.0197C8.43392 17.8393 8.7697 18.1751 8.7697 18.5893C8.7697 19.0036 8.43392 19.3393 8.0197 19.3393H5.7334C3.66233 19.3393 1.9834 17.6604 1.9834 15.5893V7.83411ZM3.4834 8.00845H20.4974V7.83411C20.4974 6.59147 19.4901 5.58411 18.2474 5.58411H5.7334C4.49076 5.58411 3.4834 6.59147 3.4834 7.83411V8.00845Z" fill="#1A2B3D"/>
<path fill-rule="evenodd" clip-rule="evenodd" d="M15.0486 20.2056C15.3415 20.4985 15.3415 20.9733 15.0486 21.2662L12.5413 23.7736C12.4007 23.9142 12.2099 23.9932 12.011 23.9932C11.8121 23.9932 11.6213 23.9142 11.4807 23.7736L8.97331 21.2662C8.68042 20.9733 8.68042 20.4985 8.97331 20.2056C9.26621 19.9127 9.74108 19.9127 10.034 20.2056L11.261 21.4326V15.6519C11.261 15.2376 11.5968 14.9019 12.011 14.9019C12.4252 14.9019 12.761 15.2376 12.761 15.6519V21.4326L13.988 20.2056C14.2809 19.9127 14.7557 19.9127 15.0486 20.2056Z" fill="#1A2B3D"/>
</svg>
