<svg width="24" height="24" viewBox="0 0 24 24" fill="none" xmlns="http://www.w3.org/2000/svg">
<path opacity="0.6" d="M4.34167 19.5689V2.84863C9.96302 10.4911 14.6824 11.1132 19.6584 11.1132V19.5689C19.6584 20.5045 19.1899 21.263 18.612 21.263H5.38816C4.8102 21.263 4.34167 20.5045 4.34167 19.5689Z" fill="#F27D00"/>
<path fill-rule="evenodd" clip-rule="evenodd" d="M9.44206 7.04036C9.84438 6.94182 10.2504 7.18808 10.349 7.5904L11.1758 10.9663C11.2032 11.0782 11.3035 11.1569 11.4187 11.1569H12.6833C13.0975 11.1569 13.4333 11.4926 13.4333 11.9069C13.4333 12.3211 13.0975 12.6569 12.6833 12.6569H11.4187C10.6125 12.6569 9.91068 12.1062 9.7189 11.3232L8.89202 7.94726C8.79348 7.54494 9.03974 7.13891 9.44206 7.04036Z" fill="#1A2B3D"/>
<path fill-rule="evenodd" clip-rule="evenodd" d="M11.6054 7.024C12.006 6.91871 12.4161 7.15811 12.5214 7.55872L12.95 9.18939H14.3453C15.0356 9.18939 15.5953 9.74904 15.5953 10.4394V12.4645C15.5953 12.8787 15.2595 13.2145 14.8453 13.2145C14.4311 13.2145 14.0953 12.8787 14.0953 12.4645V10.6894H12.603C12.1259 10.6894 11.7087 10.3677 11.5875 9.9063L11.0707 7.94002C10.9654 7.53941 11.2048 7.1293 11.6054 7.024Z" fill="#1A2B3D"/>
<path d="M12.1277 5.85215C12.1277 6.35226 11.7223 6.75767 11.2222 6.75767C10.7221 6.75767 10.3167 6.35226 10.3167 5.85215C10.3167 5.35205 10.7221 4.94663 11.2222 4.94663C11.7223 4.94663 12.1277 5.35205 12.1277 5.85215Z" fill="#1A2B3D"/>
<path fill-rule="evenodd" clip-rule="evenodd" d="M6.29639 21.9026C4.77761 21.9026 3.54639 20.6714 3.54639 19.1526L3.54639 4.65039C3.54639 3.13161 4.7776 1.90039 6.29639 1.90039L17.7861 1.90039C19.3049 1.90039 20.5361 3.13161 20.5361 4.65039V19.1526C20.5361 20.6714 19.3049 21.9026 17.7861 21.9026H6.29639ZM5.04639 19.1526C5.04639 19.8429 5.60603 20.4026 6.29639 20.4026H17.7861C18.4765 20.4026 19.0361 19.8429 19.0361 19.1526V4.65039C19.0361 3.96004 18.4765 3.40039 17.7861 3.40039L6.29639 3.40039C5.60603 3.40039 5.04639 3.96003 5.04639 4.65039V19.1526Z" fill="#1A2B3D"/>
<path fill-rule="evenodd" clip-rule="evenodd" d="M8.0404 15.6853C8.0404 15.2711 8.37619 14.9353 8.7904 14.9353H15.2095C15.6237 14.9353 15.9595 15.2711 15.9595 15.6853C15.9595 16.0995 15.6237 16.4353 15.2095 16.4353H8.7904C8.37619 16.4353 8.0404 16.0995 8.0404 15.6853ZM8.0404 18.235C8.0404 17.8208 8.37619 17.485 8.7904 17.485H15.2095C15.6237 17.485 15.9595 17.8208 15.9595 18.235C15.9595 18.6493 15.6237 18.985 15.2095 18.985H8.7904C8.37619 18.985 8.0404 18.6493 8.0404 18.235Z" fill="#1A2B3D"/>
</svg>
