<svg width="24" height="24" viewBox="0 0 24 24" fill="none" xmlns="http://www.w3.org/2000/svg">
<g opacity="0.6">
<path d="M11.9979 10C14.0678 10 15.7458 8.32107 15.7458 6.25C15.7458 4.17893 14.0678 2.5 11.9979 2.5C9.92798 2.5 8.25 4.17893 8.25 6.25C8.25 8.32107 9.92798 10 11.9979 10Z" fill="#F27D00"/>
<path d="M3.80908 20.1542V19.6731C3.80908 15.9877 7.17223 13 11.3209 13H12.7308C16.8794 13 20.2426 15.9877 20.2426 19.6731V20.1542C20.2426 20.9444 19.5215 21.585 18.6319 21.585H5.41974C4.5302 21.585 3.80908 20.9444 3.80908 20.1542Z" fill="#F27D00"/>
</g>
<path fill-rule="evenodd" clip-rule="evenodd" d="M12.0021 3.25C10.3468 3.25 9.00419 4.59275 9.00419 6.25C9.00419 7.90725 10.3468 9.25 12.0021 9.25C13.6573 9.25 14.9999 7.90725 14.9999 6.25C14.9999 4.59275 13.6573 3.25 12.0021 3.25ZM7.50419 6.25C7.50419 3.76512 9.51755 1.75 12.0021 1.75C14.4866 1.75 16.4999 3.76512 16.4999 6.25C16.4999 8.73488 14.4866 10.75 12.0021 10.75C9.51755 10.75 7.50419 8.73488 7.50419 6.25Z" fill="#1A2B3D"/>
<path fill-rule="evenodd" clip-rule="evenodd" d="M11.0754 12.25C6.70954 12.25 3.05908 15.5146 3.05908 19.6731V20.1542C3.05908 21.4174 4.15383 22.335 5.36711 22.335H18.6419C19.8552 22.335 20.95 21.4174 20.95 20.1542V19.6731C20.95 15.5146 17.2995 12.25 12.9336 12.25H11.0754ZM11.0754 13.75C7.41515 13.75 4.55908 16.4607 4.55908 19.6731V20.1542C4.55908 20.4713 4.85944 20.835 5.36711 20.835H18.6419C19.1496 20.835 19.45 20.4713 19.45 20.1542V19.6731C19.45 16.4607 16.5939 13.75 12.9336 13.75H11.0754Z" fill="#1A2B3D"/>
</svg>
