<svg width="24" height="24" viewBox="0 0 24 24" fill="none" xmlns="http://www.w3.org/2000/svg">
<path opacity="0.6" d="M5.00171 17.1122C14.2549 15.3146 18.9981 10.9507 18.9981 5.99997V20C18.9981 21.1045 18.1026 22 16.9981 22H7.00171C5.89714 22 5.00171 21.1045 5.00171 20V17.1122Z" fill="#F27D00"/>
<path d="M5 20V7.00339C5 5.89882 5.89543 5.00339 7 5.00339H17C18.1046 5.00339 19 5.89882 19 7.00339V20C19 21.1046 18.1046 22 17 22H7C5.89543 22 5 21.1046 5 20Z" stroke="#1A2B3D" stroke-width="1.5" stroke-linecap="round"/>
<path d="M5 6.99997V3.99997C5 2.8954 5.89543 1.99997 7 1.99997H15.1162C15.6792 1.99997 16.216 2.23719 16.595 2.6534L18.4788 4.72209C18.8141 5.09038 19 5.57055 19 6.06866V6.99997" stroke="#1A2B3D" stroke-width="1.5" stroke-linecap="round"/>
<ellipse opacity="0.3" cx="12" cy="11.4983" rx="2" ry="2" fill="#F27D00"/>
<path d="M14 11.4983C14 12.6029 13.1046 13.4983 12 13.4983C10.8954 13.4983 10 12.6029 10 11.4983C10 10.3937 10.8954 9.49829 12 9.49829C13.1046 9.49829 14 10.3937 14 11.4983Z" stroke="#1A2B3D" stroke-width="1.5"/>
<path d="M9.5 17.4983H14.5" stroke="#1A2B3D" stroke-width="1.5" stroke-linecap="round"/>
</svg>
