<svg width="24" height="24" viewBox="0 0 24 24" fill="none" xmlns="http://www.w3.org/2000/svg">
<path fill-rule="evenodd" clip-rule="evenodd" d="M9.58002 4C8.90597 4 8.33368 4.55902 8.33368 5.28076C8.33368 6.0025 8.90597 6.56153 9.58002 6.56153C10.2541 6.56153 10.8264 6.0025 10.8264 5.28076C10.8264 4.55902 10.2541 4 9.58002 4ZM6.33368 5.28076C6.33368 3.48324 7.77283 2 9.58002 2C11.3872 2 12.8264 3.48324 12.8264 5.28076C12.8264 6.71828 11.9059 7.95479 10.613 8.39243C12.5853 8.88593 13.9823 10.7636 14.1464 12.9033H15.8958C15.8958 11.6309 17.0393 10.5994 18.45 10.5994C19.8607 10.5994 21.0043 11.6309 21.0043 12.9033L22 12.9033C22.5523 12.9033 23 13.351 23 13.9033C23 14.4556 22.5523 14.9033 22 14.9033H20.9291V22H3.0708V14.9033H2C1.44772 14.9033 1 14.4556 1 13.9033C1 13.351 1.44772 12.9033 2 12.9033H5.0135C5.17756 10.7635 6.57463 8.88587 8.547 8.3924C7.25405 7.95474 6.33368 6.71825 6.33368 5.28076ZM14.1625 14.907H5.0708V20H18.9291V14.9033H14.1625V14.907ZM9.57993 10.2662C10.7876 10.2662 11.9594 11.3235 12.1389 12.9033H7.02099C7.20045 11.3235 8.37227 10.2662 9.57993 10.2662Z" fill="#0D151F"/>
</svg>
