<svg width="24" height="24" viewBox="0 0 24 24" fill="none" xmlns="http://www.w3.org/2000/svg">
<path d="M9 21C9 21.5523 9.44772 22 10 22H16C16.5523 22 17 21.5523 17 21V19.5C19.41 17.87 21 15.12 21 12V4C21 3.46957 20.7893 2.96086 20.4142 2.58579C20.0391 2.21071 19.5304 2 19 2H15C14.4696 2 13.9609 2.21071 13.5858 2.58579C13.2107 2.96086 13 3.46957 13 4V12H4C3.44772 12 2.99242 12.45 3.07048 12.9968C3.45701 15.7042 5.43351 18.1626 9 19.5V21ZM5.29 14H18.71C18.4291 14.9412 17.9537 15.8129 17.3146 16.5588C16.6756 17.3047 15.887 17.9081 15 18.33V20H11V18.33C9 18 5.86 15.91 5.29 14ZM15 4H19V12H15V4ZM16 5V8H18V5H16Z" fill="#0D151F"/>
</svg>
