<svg width="24" height="24" viewBox="0 0 24 24" fill="none" xmlns="http://www.w3.org/2000/svg">
<path d="M12 6C11.45 6 10.979 5.804 10.587 5.412C10.195 5.02 9.99933 4.54934 10 4C10 3.45 10.196 2.979 10.588 2.587C10.98 2.195 11.4507 1.99934 12 2C12.55 2 13.021 2.196 13.413 2.588C13.805 2.98 14.0007 3.45067 14 4C14 4.55 13.804 5.021 13.412 5.413C13.02 5.805 12.5493 6.00067 12 6ZM17 22V17H12C11.45 17 10.979 16.804 10.587 16.412C10.195 16.02 9.99933 15.5493 10 15V9C10 8.45 10.196 7.979 10.588 7.587C10.98 7.195 11.4507 6.99934 12 7C12.4 7 12.746 7.08767 13.038 7.263C13.33 7.43834 13.6423 7.71734 13.975 8.1C14.8917 9.2 15.721 9.95434 16.463 10.363C17.205 10.7717 18.0507 10.984 19 11V13C18.1167 13 17.225 12.8083 16.325 12.425C15.425 12.0417 14.65 11.5833 14 11.05V14.5H17C17.55 14.5 18.021 14.696 18.413 15.088C18.805 15.48 19.0007 15.9507 19 16.5V22H17ZM10 22C8.61667 22 7.43733 21.5123 6.462 20.537C5.48667 19.5617 4.99933 18.3827 5 17C5 15.8 5.379 14.7417 6.137 13.825C6.895 12.9083 7.84933 12.3333 9 12.1V14.15C8.41667 14.3833 7.93733 14.7543 7.562 15.263C7.18667 15.7717 6.99933 16.3507 7 17C7 17.8333 7.29167 18.5417 7.875 19.125C8.45833 19.7083 9.16667 20 10 20C10.65 20 11.2293 19.8123 11.738 19.437C12.2467 19.0617 12.6173 18.5827 12.85 18H14.9C14.6667 19.15 14.0917 20.1043 13.175 20.863C12.2583 21.6217 11.2 22.0007 10 22Z" fill="#0D151F"/>
</svg>
