<svg width="24" height="24" viewBox="0 0 24 24" fill="none" xmlns="http://www.w3.org/2000/svg">
<path fill-rule="evenodd" clip-rule="evenodd" d="M4.69946 16.3188C4.69946 15.7666 5.14718 15.3188 5.69946 15.3188H10.9593C11.5116 15.3188 11.9593 15.7666 11.9593 16.3188C11.9593 16.8711 11.5116 17.3188 10.9593 17.3188H5.69946C5.14718 17.3188 4.69946 16.8711 4.69946 16.3188Z" fill="#0D151F"/>
<path fill-rule="evenodd" clip-rule="evenodd" d="M4.907 3.35767C5.45929 3.35767 5.907 3.80538 5.907 4.35767V5.22463H6.77397C7.32625 5.22463 7.77397 5.67235 7.77397 6.22463C7.77397 6.77692 7.32625 7.22463 6.77397 7.22463H5.907V8.0916C5.907 8.64388 5.45929 9.0916 4.907 9.0916C4.35472 9.0916 3.907 8.64388 3.907 8.0916V7.22463H3.04004C2.48775 7.22463 2.04004 6.77692 2.04004 6.22463C2.04004 5.67235 2.48775 5.22463 3.04004 5.22463H3.907V4.35767C3.907 3.80538 4.35472 3.35767 4.907 3.35767Z" fill="#0D151F"/>
<path fill-rule="evenodd" clip-rule="evenodd" d="M9.24306 5.65918C9.24306 5.10689 9.69077 4.65918 10.2431 4.65918H20.177C21.7003 4.65918 22.9351 5.89405 22.9351 7.41733V17.8841C22.9351 19.4073 21.7003 20.6422 20.177 20.6422H3.82285C2.29956 20.6422 1.0647 19.4073 1.0647 17.8841V11.107C1.0647 10.5548 1.51241 10.107 2.0647 10.107C2.61698 10.107 3.0647 10.5548 3.0647 11.107V17.8841C3.0647 18.3028 3.40413 18.6422 3.82285 18.6422H20.177C20.5957 18.6422 20.9351 18.3028 20.9351 17.8841V11.6079H8.34199C7.7897 11.6079 7.34199 11.1601 7.34199 10.6079C7.34199 10.0556 7.7897 9.60786 8.34199 9.60786H20.9351V7.41733C20.9351 6.99862 20.5957 6.65918 20.177 6.65918H10.2431C9.69077 6.65918 9.24306 6.21146 9.24306 5.65918Z" fill="#0D151F"/>
</svg>
