<svg width="24" height="24" viewBox="0 0 24 24" fill="none" xmlns="http://www.w3.org/2000/svg">
<path fill-rule="evenodd" clip-rule="evenodd" d="M11.9351 3.43359C7.19065 3.43359 3.34448 7.27976 3.34448 12.0243C3.34448 16.7687 7.19065 20.6149 11.9351 20.6149C15.1189 20.6149 17.8995 18.8834 19.3846 16.306C19.6603 15.8275 20.2717 15.663 20.7503 15.9387C21.2288 16.2145 21.3932 16.8259 21.1175 17.3044C19.2901 20.4761 15.863 22.6149 11.9351 22.6149C6.08608 22.6149 1.34448 17.8733 1.34448 12.0243C1.34448 6.17519 6.08608 1.43359 11.9351 1.43359C15.863 1.43359 19.2901 3.57237 21.1175 6.74406C21.3932 7.2226 21.2288 7.83405 20.7503 8.10976C20.2717 8.38548 19.6603 8.22106 19.3846 7.74252C17.8995 5.16506 15.1189 3.43359 11.9351 3.43359ZM13.8058 9.37084C13.1717 9.37084 12.8325 9.81426 12.8325 10.1561C12.8325 10.4471 13.1139 10.8683 13.8058 10.8683C14.4977 10.8683 14.7791 10.4471 14.7791 10.1561C14.7791 9.81426 14.4399 9.37084 13.8058 9.37084ZM16.2124 11.7755C16.5627 11.3445 16.7791 10.7976 16.7791 10.1561C16.7791 8.52599 15.3513 7.37084 13.8058 7.37084C12.2602 7.37084 10.8325 8.52599 10.8325 10.1561C10.8325 10.7976 11.0489 11.3445 11.3992 11.7755C10.9127 12.2545 10.61 12.9074 10.61 13.671C10.61 15.4144 12.1276 16.6775 13.8058 16.6775C15.484 16.6775 17.0016 15.4144 17.0016 13.671C17.0016 12.9074 16.6988 12.2545 16.2124 11.7755ZM13.8058 12.8683C13.381 12.8683 13.0614 12.9908 12.8709 13.1405C12.6989 13.2756 12.61 13.4436 12.61 13.671C12.61 14.1439 13.0586 14.6775 13.8058 14.6775C14.553 14.6775 15.0016 14.1439 15.0016 13.671C15.0016 13.4436 14.9127 13.2756 14.7407 13.1405C14.5502 12.9908 14.2305 12.8683 13.8058 12.8683ZM8.38107 7.76394C8.94384 7.76394 9.4 8.22017 9.4 8.78287V15.5516C9.4 16.1039 8.95228 16.5516 8.4 16.5516C7.84771 16.5516 7.4 16.1039 7.4 15.5516V10.583L7.04046 10.8148C6.57632 11.1142 5.95742 10.9806 5.65809 10.5164C5.35877 10.0523 5.49237 9.43338 5.95651 9.13405L7.82883 7.92658C7.82883 7.92657 7.82883 7.92657 7.82883 7.92657C7.99346 7.8204 8.18519 7.76394 8.38107 7.76394ZM20.6362 9.41593C21.1885 9.41593 21.6362 9.86365 21.6362 10.4159V10.9983H22.2185C22.7708 10.9983 23.2185 11.446 23.2185 11.9983C23.2185 12.5506 22.7708 12.9983 22.2185 12.9983H21.6362V13.5805C21.6362 14.1328 21.1885 14.5805 20.6362 14.5805C20.0839 14.5805 19.6362 14.1328 19.6362 13.5805V12.9983H19.0539C18.5016 12.9983 18.0539 12.5506 18.0539 11.9983C18.0539 11.446 18.5016 10.9983 19.0539 10.9983H19.6362V10.4159C19.6362 9.86365 20.0839 9.41593 20.6362 9.41593Z" fill="#0D151F"/>
</svg>
