<svg width="24" height="24" viewBox="0 0 24 24" fill="none" xmlns="http://www.w3.org/2000/svg">
<path fill-rule="evenodd" clip-rule="evenodd" d="M0.5 5.5C0.5 3.84315 1.84315 2.5 3.5 2.5H20.5C22.1569 2.5 23.5 3.84315 23.5 5.5V9.96823C23.5 11.6251 22.1569 12.9682 20.5 12.9682H19.75C19.1977 12.9682 18.75 12.5205 18.75 11.9682C18.75 11.4159 19.1977 10.9682 19.75 10.9682H20.5C21.0523 10.9682 21.5 10.5205 21.5 9.96823V5.5C21.5 4.94772 21.0523 4.5 20.5 4.5H3.5C2.94772 4.5 2.5 4.94772 2.5 5.5V9.96823C2.5 10.5205 2.94772 10.9682 3.5 10.9682H4.25C4.80228 10.9682 5.25 11.4159 5.25 11.9682C5.25 12.5205 4.80228 12.9682 4.25 12.9682H3.5C1.84315 12.9682 0.5 11.6251 0.5 9.96823V5.5Z" fill="#0D151F"/>
<path fill-rule="evenodd" clip-rule="evenodd" d="M12 11.5103C12.5523 11.5103 13 11.958 13 12.5103V20.5C13 21.0523 12.5523 21.5 12 21.5C11.4477 21.5 11 21.0523 11 20.5V12.5103C11 11.958 11.4477 11.5103 12 11.5103Z" fill="#0D151F"/>
<path fill-rule="evenodd" clip-rule="evenodd" d="M16.1885 11.5103C16.7408 11.5103 17.1885 11.958 17.1885 12.5103V16.3093C17.1885 16.9433 17.3894 17.5611 17.7624 18.0739L19.0992 19.9118C19.4241 20.3585 19.3253 20.9839 18.8787 21.3087C18.4321 21.6336 17.8067 21.5349 17.4818 21.0883L16.145 19.2504C15.5233 18.3957 15.1885 17.3661 15.1885 16.3093V12.5103C15.1885 11.958 15.6362 11.5103 16.1885 11.5103Z" fill="#0D151F"/>
<path fill-rule="evenodd" clip-rule="evenodd" d="M7.81152 11.5103C7.25924 11.5103 6.81152 11.958 6.81152 12.5103V16.3093C6.81152 16.9433 6.61061 17.5611 6.23763 18.0739L4.90081 19.9118C4.57594 20.3585 4.67466 20.9839 5.12129 21.3087C5.56793 21.6336 6.19335 21.5349 6.51821 21.0883L7.85503 19.2504C8.47667 18.3957 8.81152 17.3661 8.81152 16.3093V12.5103C8.81152 11.958 8.36381 11.5103 7.81152 11.5103Z" fill="#0D151F"/>
<path fill-rule="evenodd" clip-rule="evenodd" d="M5.46826 8.15088C5.46826 7.59859 5.91598 7.15088 6.46826 7.15088H17.5314C18.0837 7.15088 18.5314 7.59859 18.5314 8.15088C18.5314 8.70316 18.0837 9.15088 17.5314 9.15088H6.46826C5.91598 9.15088 5.46826 8.70316 5.46826 8.15088Z" fill="#0D151F"/>
</svg>
