<svg width="24" height="24" viewBox="0 0 24 24" fill="none" xmlns="http://www.w3.org/2000/svg">
<path d="M22 10.9994H17.83L21.07 7.75939L19.66 6.33939L15 10.9994H13V8.99939L17.66 4.33939L16.24 2.92939L13 6.16939V1.99939H11V6.16939L7.76 2.92939L6.34 4.33939L11 8.99939V10.9994H9L4.34 6.33939L2.93 7.75939L6.17 10.9994H2V12.9994H6.17L2.93 16.2394L4.34 17.6594L9 12.9994H11V14.9994L6.34 19.6594L7.76 21.0694L11 17.8294V21.9994H13V17.8294L16.24 21.0694L17.66 19.6594L13 14.9994V12.9994H15L19.66 17.6594L21.07 16.2394L17.83 12.9994H22V10.9994Z" fill="#0D151F"/>
</svg>
