<svg width="24" height="24" viewBox="0 0 24 24" fill="none" xmlns="http://www.w3.org/2000/svg">
<g clip-path="url(#clip0_2499_914)">
<path fill-rule="evenodd" clip-rule="evenodd" d="M15.3082 13.4958C15.3082 12.9436 15.7559 12.4958 16.3082 12.4958H16.3191C16.8713 12.4958 17.3191 12.9436 17.3191 13.4958C17.3191 14.0481 16.8713 14.4958 16.3191 14.4958H16.3082C15.7559 14.4958 15.3082 14.0481 15.3082 13.4958Z" fill="#0D151F"/>
<path fill-rule="evenodd" clip-rule="evenodd" d="M12.1783 8.88655C12.1783 7.78171 13.074 6.88606 14.1788 6.88606C15.2836 6.88606 16.1793 7.78171 16.1793 8.88655C16.1793 9.99139 15.2836 10.887 14.1788 10.887C13.074 10.887 12.1783 9.99139 12.1783 8.88655Z" fill="#0D151F"/>
<path fill-rule="evenodd" clip-rule="evenodd" d="M14.201 4.32329C13.9056 3.89865 13.2749 3.906 12.9894 4.33742L12.8977 4.47593C12.0481 5.75978 10.2713 6.02036 9.08887 5.03453C8.7709 4.76944 8.28568 4.91056 8.15948 5.30483L7.96773 5.90392C7.79936 6.42992 7.23647 6.71984 6.71048 6.55148C6.18448 6.38311 5.89456 5.82023 6.06292 5.29423L6.25468 4.69514C6.81344 2.94948 8.96177 2.32467 10.3696 3.49838C10.6367 3.72104 11.038 3.66218 11.2298 3.37221L11.3215 3.2337C12.3868 1.62389 14.7402 1.59646 15.8427 3.18099L16.4639 4.07376C16.7142 4.43345 17.1119 4.66277 17.5486 4.69921L17.7551 4.71645C18.4474 4.77422 19.2994 4.95008 20.0441 5.3084C20.7694 5.65735 21.5839 6.27829 21.8069 7.31489C21.8544 7.53571 21.8782 7.77062 21.8782 8.02134C21.8782 8.96297 21.2146 9.67038 20.7727 10.0887C20.3948 10.4465 20.2333 10.8321 20.2129 11.1874C20.1923 11.545 20.31 11.957 20.6439 12.3698L21.2538 13.1239C22.0215 14.0731 22.1744 15.3794 21.6466 16.4802C21.1786 17.4562 20.244 18.1251 19.1693 18.2532L15.6438 18.6736C15.0954 18.739 14.5978 18.3475 14.5324 17.7991C14.467 17.2507 14.8586 16.7531 15.407 16.6877L18.9324 16.2673C19.3275 16.2202 19.6711 15.9743 19.8432 15.6155C20.0372 15.2108 19.981 14.7306 19.6988 14.3816L19.0889 13.6275C18.4806 12.8755 18.1638 11.9844 18.2162 11.0726C18.2687 10.1585 18.6877 9.30841 19.3978 8.63625C19.5947 8.44988 19.7267 8.29819 19.8061 8.174C19.8695 8.07472 19.8774 8.02744 19.8782 8.02035C19.8781 7.89692 19.8664 7.80435 19.8516 7.73553C19.8178 7.57841 19.662 7.344 19.177 7.11065C18.7115 6.88668 18.1132 6.75329 17.5887 6.70952L17.3822 6.69228C16.3515 6.60627 15.4129 6.06503 14.8222 5.21606L14.201 4.32329ZM5.7568 7.66548C5.88159 8.20349 5.54661 8.74078 5.00861 8.86557L4.80145 8.91361C4.36835 9.01407 4.04567 9.37673 3.99626 9.81858C3.96197 10.1252 4.06444 10.4313 4.27638 10.6555L5.22726 11.6613C6.08408 12.5676 6.31587 13.8985 5.81589 15.0411C5.47968 15.8094 6.08687 16.658 6.92259 16.5877L7.01216 16.5802C8.39587 16.4639 9.69341 17.2644 10.2102 18.5533L10.5721 19.4557C10.7039 19.7846 11.0226 20.0001 11.3769 20.0001H12.0411C12.3258 19.7536 12.7383 19.679 13.1047 19.8428C13.6089 20.0683 13.8349 20.6598 13.6094 21.1639C13.3819 21.6726 12.8768 22.0001 12.3195 22.0001H11.3769C10.2054 22.0001 9.15173 21.2874 8.71573 20.2001L8.35388 19.2976C8.16413 18.8244 7.68773 18.5305 7.17968 18.5732L7.09012 18.5807C4.74425 18.7779 3.03991 16.3961 3.98362 14.2394C4.16174 13.8323 4.07917 13.3582 3.77392 13.0353L2.82305 12.0295C2.20687 11.3777 1.90897 10.4877 2.00865 9.59631C2.1523 8.31174 3.09041 7.25739 4.34957 6.96533L4.55672 6.91729C5.09472 6.7925 5.63202 7.12748 5.7568 7.66548Z" fill="#0D151F"/>
<path fill-rule="evenodd" clip-rule="evenodd" d="M4.87269 2.76483C5.3239 2.44692 5.94774 2.5554 6.26609 3.00711L18.5618 20.454C18.8801 20.9057 18.7724 21.5296 18.3212 21.8475C17.87 22.1654 17.2461 22.057 16.9278 21.6052L4.63213 4.15834C4.31378 3.70663 4.42149 3.08273 4.87269 2.76483Z" fill="#0D151F"/>
<path fill-rule="evenodd" clip-rule="evenodd" d="M8.46151 13.16C8.01093 13.4791 7.90437 14.1031 8.2235 14.5537C8.54263 15.0043 9.1666 15.1108 9.61719 14.7917L8.46151 13.16Z" fill="#0D151F"/>
</g>
<defs>
<clipPath id="clip0_2499_914">
<rect width="20" height="20" fill="white" transform="translate(2 2)"/>
</clipPath>
</defs>
</svg>
