<svg width="24" height="24" viewBox="0 0 24 24" fill="none" xmlns="http://www.w3.org/2000/svg">
<path fill-rule="evenodd" clip-rule="evenodd" d="M1.83325 4.83325C1.83325 3.1764 3.1764 1.83325 4.83325 1.83325H19.1666C20.8234 1.83325 22.1666 3.1764 22.1666 4.83325V19.1666C22.1666 20.8234 20.8234 22.1666 19.1666 22.1666H4.83325C3.1764 22.1666 1.83325 20.8234 1.83325 19.1666V4.83325ZM4.83325 3.83325C4.28097 3.83325 3.83325 4.28097 3.83325 4.83325V19.1666C3.83325 19.7189 4.28097 20.1666 4.83325 20.1666H19.1666C19.7189 20.1666 20.1666 19.7189 20.1666 19.1666V4.83325C20.1666 4.28097 19.7189 3.83325 19.1666 3.83325H4.83325ZM8.1688 8.4022C8.56805 7.38429 10.0095 7.38711 10.4048 8.40656L13.0963 15.3484C13.296 15.8633 13.0404 16.4426 12.5255 16.6423C12.0105 16.8419 11.4312 16.5863 11.2316 16.0714L10.564 14.3495H7.98449L7.30769 16.075C7.10603 16.5892 6.52575 16.8425 6.0116 16.6408C5.49745 16.4392 5.24413 15.8589 5.44579 15.3448L8.1688 8.4022ZM8.76893 12.3495H9.7885L9.28165 11.0423L8.76893 12.3495ZM14.2188 10.2932C14.2188 9.74091 14.6666 9.29319 15.2188 9.29319C15.6631 9.29319 16.0398 9.58296 16.1701 9.98382C16.1855 9.97985 16.2005 9.97609 16.2152 9.97254C16.4668 9.91148 16.7352 9.87792 16.9663 9.87792C17.1364 9.87792 17.308 9.89017 17.4767 9.92037C17.6424 9.94944 17.8044 9.99417 17.9621 10.051C18.4817 10.2383 18.7511 10.8113 18.5638 11.3309C18.3765 11.8504 17.8035 12.1198 17.2839 11.9325C17.2219 11.9102 17.171 11.8972 17.1304 11.8902L17.1248 11.8892C17.0939 11.8836 17.0426 11.8779 16.9663 11.8779C16.9099 11.8779 16.8001 11.8886 16.6869 11.9161C16.6333 11.9291 16.5928 11.9426 16.5668 11.9532C16.5642 11.9543 16.5619 11.9552 16.5599 11.9561C16.4853 12.0166 16.4062 12.1111 16.334 12.2693L16.3321 12.2734C16.2644 12.4198 16.2188 12.6093 16.2188 12.8621V15.7099C16.2188 16.2621 15.7711 16.7099 15.2188 16.7099C14.6666 16.7099 14.2188 16.2621 14.2188 15.7099V10.2932ZM16.5491 11.9611C16.5491 11.9611 16.5494 11.9609 16.5502 11.9605Z" fill="#0D151F"/>
</svg>
