<svg width="24" height="24" viewBox="0 0 24 24" fill="none" xmlns="http://www.w3.org/2000/svg">
<path fill-rule="evenodd" clip-rule="evenodd" d="M2 3.94737C2 3.42415 2.41594 3 2.92902 3H21.071C21.5841 3 22 3.42415 22 3.94737V11.3631C22 11.8863 21.5841 12.3105 21.071 12.3105H19.5493C19.0363 12.3105 18.6203 11.8863 18.6203 11.3631C18.6203 10.8399 19.0363 10.4158 19.5493 10.4158H20.142V4.89474H3.85804V10.4158H4.45066C4.96375 10.4158 5.37968 10.8399 5.37968 11.3631C5.37968 11.8863 4.96375 12.3105 4.45066 12.3105H2.92902C2.41594 12.3105 2 11.8863 2 11.3631V3.94737ZM15.3175 7.21484C16.3394 7.21484 17.197 7.98526 17.3061 9.00136L18.3565 18.7865C18.4835 19.9687 17.557 21 16.368 21H7.63208C6.44303 21 5.51659 19.9687 5.64351 18.7865L6.69399 9.00136C6.80307 7.98527 7.66062 7.21484 8.68256 7.21484H15.3175ZM7.47843 19.1052H9.00195L9.72553 9.10958H8.55151L7.47843 19.1052ZM10.865 19.1052L11.5886 9.10958H15.4486L16.5216 19.1052H10.865ZM14.8918 15.5018C14.8918 14.9786 14.4758 14.5544 13.9627 14.5544C13.4497 14.5544 13.0337 14.9786 13.0337 15.5018V16.7369C13.0337 17.2601 13.4497 17.6843 13.9627 17.6843C14.4758 17.6843 14.8918 17.2601 14.8918 16.7369V15.5018Z" fill="#0D151F"/>
</svg>
