<svg width="24" height="24" viewBox="0 0 24 24" fill="none" xmlns="http://www.w3.org/2000/svg">
<path fill-rule="evenodd" clip-rule="evenodd" d="M4.10857 6.48827C4.10857 4.01904 6.11027 2.01733 8.5795 2.01733H10.2951C11.0193 2.01733 11.6063 2.60438 11.6063 3.32853V5.48827H16.809C18.4659 5.48827 19.809 6.83141 19.809 8.48827V8.831C19.809 11.6365 18.1586 14.0565 15.7758 15.1731V19.4495C17.8126 18.8407 19.6234 17.7525 21.0634 16.3273C21.456 15.9388 22.0891 15.9421 22.4776 16.3346C22.8661 16.7272 22.8628 17.3603 22.4703 17.7488C20.4767 19.7219 17.8809 21.1303 14.9703 21.7075C14.0105 21.8978 13.0169 21.9977 12.0001 21.9977C10.9832 21.9977 9.98965 21.8978 9.02985 21.7075C6.11926 21.1303 3.52346 19.7219 1.52984 17.7488C1.1373 17.3603 1.13402 16.7272 1.52252 16.3346C1.91101 15.9421 2.54417 15.9388 2.93671 16.3273C4.37677 17.7525 6.18754 18.8407 8.22436 19.4495V15.2111C5.79716 14.1121 4.10857 11.6687 4.10857 8.831V6.48827ZM10.2244 15.7757V19.8795C10.804 19.9573 11.3968 19.9977 12.0001 19.9977C12.6033 19.9977 13.1961 19.9573 13.7758 19.8795V15.7648C13.4598 15.8084 13.137 15.831 12.809 15.831H11.1086C10.8091 15.831 10.514 15.8122 10.2244 15.7757ZM8.5795 4.01733C7.21484 4.01733 6.10857 5.12361 6.10857 6.48827V8.831C6.10857 11.5924 8.34715 13.831 11.1086 13.831H12.809C15.5704 13.831 17.809 11.5924 17.809 8.831V8.48827C17.809 7.93598 17.3613 7.48827 16.809 7.48827H10.6632C10.0795 7.48827 9.6063 7.01506 9.6063 6.43137V4.01733H8.5795Z" fill="#0D151F"/>
</svg>
