<svg width="24" height="24" viewBox="0 0 24 24" fill="none" xmlns="http://www.w3.org/2000/svg">
<path fill-rule="evenodd" clip-rule="evenodd" d="M3.35501 11.1755C1.54833 12.9961 1.54833 15.909 3.35501 17.7295L6.24571 20.6424C7.98013 22.3901 10.9431 22.4629 12.7498 20.788L16.9413 16.5644C17.8808 15.6177 18.3866 14.3797 18.3144 13.1417C18.748 13.1417 19.1816 12.8505 19.4706 12.5592L20.4101 11.6125C21.5664 10.4473 21.6387 8.77243 20.7715 7.46164L21.1328 7.09753C22.2891 5.93238 22.2891 4.03901 21.1328 2.87386C19.9765 1.70871 18.0976 1.70871 16.9413 2.87386L16.5799 3.23797C15.2791 2.36411 13.5447 2.50975 12.4607 3.60208L11.5935 4.47594C11.2322 4.84005 11.0154 5.20416 11.0154 5.64109C9.78681 5.56827 8.486 6.0052 7.54652 6.95188L3.35501 11.1755ZM8.99187 8.40832C10.0036 7.38881 11.5935 7.38881 12.6052 8.40832L15.4959 11.3212C16.2186 12.0494 16.3631 13.2146 16.0018 14.1612L14.7733 12.9233C14.3397 12.4863 13.7615 12.4863 13.3279 12.9233C12.8943 13.3602 12.8943 13.9428 13.3279 14.3797L14.6287 15.6905L14.0506 16.2731L12.7498 14.9623C12.3162 14.5254 11.738 14.5254 11.3044 14.9623C10.8708 15.3992 10.8708 15.9818 11.3044 16.4187L12.6052 17.7295L12.0994 18.2393L10.7986 16.9285C10.365 16.4915 9.78681 16.4915 9.35321 16.9285C8.9196 17.3654 8.9196 17.948 9.35321 18.3849L10.654 19.6957C9.64228 20.1326 8.486 19.987 7.69106 19.1859L4.80036 16.2731C3.78862 15.2536 3.78862 13.6515 4.80036 12.632L8.99187 8.40832ZM17.0858 10.0104L16.9413 9.86476L13.0388 5.93238L13.9061 5.05852C14.4119 4.54876 15.1346 4.54876 15.4959 5.05852C16.0741 5.64109 16.9413 5.64109 17.5194 5.05852L18.3144 4.25748C18.6757 3.89337 19.2538 3.89337 19.6152 4.25748C19.9765 4.62159 19.9765 5.20416 19.6152 5.56827L18.8202 6.36931C18.2421 6.95188 18.2421 7.82575 18.8202 8.40832C19.2538 8.84525 19.2538 9.57347 18.8202 10.0104L17.953 10.8843L17.0858 10.0104Z" fill="#9BA6B2"/>
</svg>
