<svg width="24" height="24" viewBox="0 0 24 24" fill="none" xmlns="http://www.w3.org/2000/svg">
<path fill-rule="evenodd" clip-rule="evenodd" d="M20.1043 2.28189C19.8521 2.02963 19.4756 1.9339 19.1311 2.0471L14.6678 3.22039L12.4303 2.10229C12.16 1.96671 11.8412 1.96699 11.5707 2.10219L9.33307 3.22039L4.86888 2.04687C4.77228 2.01568 4.67252 2.00052 4.57492 2.00052C4.32409 2.00052 4.07839 2.09936 3.89586 2.28189C3.63837 2.53939 3.54903 2.91992 3.6643 3.26477L3.66865 3.27779L7.81133 12.8153V14.7591C7.39193 15.4843 7.16567 16.3115 7.16567 17.1656C7.16567 19.831 9.33463 22 12.0001 22C14.6656 22 16.8345 19.831 16.8345 17.1656C16.8345 16.3121 16.6083 15.4844 16.1888 14.7591L16.1888 12.8153L20.3315 3.27779L20.3359 3.26477C20.4512 2.91968 20.361 2.53856 20.1043 2.28189ZM10.4662 4.80226L12.0001 4.03475L13.534 4.80168L12.9418 8.94732L14.8434 9.21911L15.4469 4.99537L17.8535 4.43308L14.5601 11.6855H9.4394L6.14603 4.4337L8.55323 4.99603L9.15681 9.21976L11.0584 8.94796L10.4662 4.80226ZM9.7322 14.2681V13.6064H14.268V14.2681H9.7322ZM9.08653 17.1656C9.08653 16.8303 9.15038 16.5021 9.26617 16.189L14.7344 16.189C14.8498 16.5022 14.9136 16.8304 14.9136 17.1656C14.9136 18.7718 13.6063 20.0791 12.0001 20.0791C10.3938 20.0791 9.08654 18.7718 9.08653 17.1656Z" fill="#0D151F"/>
</svg>
