<svg width="24" height="24" viewBox="0 0 24 24" fill="none" xmlns="http://www.w3.org/2000/svg">
<path fill-rule="evenodd" clip-rule="evenodd" d="M5.66989 2C5.17951 2 4.78034 2.4036 4.78034 2.89943V12.4007H3.88955C3.39917 12.4007 3 12.8043 3 13.3001V21.1006C3 21.5964 3.39917 22 3.88955 22H20.1104C20.6008 22 21 21.5964 21 21.1006V13.3001C21 12.8043 20.6008 12.4007 20.1104 12.4007H19.2197V2.89943C19.2197 2.4036 18.8205 2 18.3301 2H5.66989ZM6.75726 8.72515V3.99887H8.2113C8.23566 5.17811 7.95284 7.00106 6.75726 8.72515ZM7.92794 10.4632C9.76278 8.19402 10.2152 5.67785 10.1999 3.99887H13.8937C13.8647 5.68005 14.3192 8.19095 16.1631 10.4557C15.8705 11.1052 15.6474 11.8271 15.5048 12.4007H8.57289C8.42623 11.8237 8.19713 11.1048 7.92794 10.4632ZM17.2427 8.62025C16.0966 6.92738 15.8244 5.15412 15.8481 3.99887H17.2427V8.62025ZM4.97691 20.0011V14.3995H6.26396V20.0011H4.97691ZM8.24088 20.0011V14.3995H9.42902V20.0011H8.24088ZM11.4059 20.0011V14.3995H12.5941V20.0011H11.4059ZM14.571 20.0011V14.3995H15.7591V20.0011H14.571ZM17.736 20.0011V14.3995H19.0231V20.0011H17.736Z" fill="#0D151F"/>
</svg>
