<svg width="24" height="24" viewBox="0 0 24 24" fill="none" xmlns="http://www.w3.org/2000/svg">
<path fill-rule="evenodd" clip-rule="evenodd" d="M2 3.54541C2 2.71698 2.67157 2.04541 3.5 2.04541H20.5C21.3284 2.04541 22 2.71698 22 3.54541V4.16391C22 4.53851 21.8598 4.89955 21.6071 5.17602L13 14.5908V19.9547H16.8129C17.3652 19.9547 17.8129 20.4024 17.8129 20.9547C17.8129 21.507 17.3652 21.9547 16.8129 21.9547H7.18711C6.63483 21.9547 6.18711 21.507 6.18711 20.9547C6.18711 20.4024 6.63483 19.9547 7.18711 19.9547H11V14.5908L2.39292 5.17602C2.14016 4.89954 2 4.5385 2 4.16391V3.54541ZM12 12.7205L19.9309 4.04541H4.06912L12 12.7205ZM8.80252 6.07692C8.96029 5.70894 9.32215 5.47036 9.72253 5.47036H14.2774C14.678 5.47036 15.0398 5.70907 15.1975 6.07709C15.3552 6.44499 15.2787 6.87184 15.0029 7.16177L12.7255 9.55574C12.5366 9.75437 12.2744 9.86681 12.0003 9.86681C11.7262 9.86681 11.4634 9.75439 11.2744 9.55574L8.99707 7.16177C8.72119 6.87176 8.6448 6.4448 8.80252 6.07692Z" fill="#0D151F"/>
</svg>
