<svg width="24" height="24" viewBox="0 0 24 24" fill="none" xmlns="http://www.w3.org/2000/svg">
<path d="M10.487 4.0402C11.1888 4.15565 11.8267 4.51665 12.287 5.05881C12.7472 5.60096 13 6.28901 13 7.0002V9.0002H7V7.0002C7 5.9612 7.528 5.0452 8.33 4.5072C8.04198 4.25074 7.68596 4.08303 7.30482 4.02425C6.92368 3.96547 6.53367 4.01814 6.18178 4.17592C5.82988 4.33369 5.5311 4.58983 5.32143 4.9135C5.11176 5.23717 5.00013 5.61455 5 6.0002V12.0002H21C21.2652 12.0002 21.5196 12.1056 21.7071 12.2931C21.8946 12.4806 22 12.735 22 13.0002C22 13.2654 21.8946 13.5198 21.7071 13.7073C21.5196 13.8948 21.2652 14.0002 21 14.0002V15.0002C21.0002 16.2413 20.6156 17.4519 19.8992 18.4653C19.1829 19.4788 18.17 20.2452 17 20.6592V21.0002C17 21.2654 16.8946 21.5198 16.7071 21.7073C16.5196 21.8948 16.2652 22.0002 16 22.0002C15.7348 22.0002 15.4804 21.8948 15.2929 21.7073C15.1054 21.5198 15 21.2654 15 21.0002H9C9 21.2654 8.89464 21.5198 8.70711 21.7073C8.51957 21.8948 8.26522 22.0002 8 22.0002C7.73478 22.0002 7.48043 21.8948 7.29289 21.7073C7.10536 21.5198 7 21.2654 7 21.0002V20.6592C5.83001 20.2452 4.81712 19.4788 4.10077 18.4653C3.38442 17.4519 2.99985 16.2413 3 15.0002V14.0002C2.73478 14.0002 2.48043 13.8948 2.29289 13.7073C2.10536 13.5198 2 13.2654 2 13.0002C2 12.735 2.10536 12.4806 2.29289 12.2931C2.48043 12.1056 2.73478 12.0002 3 12.0002V6.0002C2.99996 5.11568 3.29309 4.2561 3.83355 3.55591C4.37401 2.85571 5.13131 2.35441 5.98699 2.1304C6.84267 1.9064 7.74846 1.97233 8.56269 2.31788C9.37691 2.66344 10.0536 3.26912 10.487 4.0402ZM19 14.0002H5V15.0002C5 16.0611 5.42143 17.0785 6.17157 17.8286C6.92172 18.5788 7.93913 19.0002 9 19.0002H15C16.0609 19.0002 17.0783 18.5788 17.8284 17.8286C18.5786 17.0785 19 16.0611 19 15.0002V14.0002ZM10 6.0002C9.73478 6.0002 9.48043 6.10555 9.29289 6.29309C9.10536 6.48063 9 6.73498 9 7.0002H11C11 6.73498 10.8946 6.48063 10.7071 6.29309C10.5196 6.10555 10.2652 6.0002 10 6.0002Z" fill="#0D151F"/>
</svg>
