<svg width="24" height="24" viewBox="0 0 24 24" fill="none" xmlns="http://www.w3.org/2000/svg">
<path fill-rule="evenodd" clip-rule="evenodd" d="M7.47319 1.99536C7.25318 1.99536 7.01513 2.05177 6.79717 2.19379C6.58469 2.33223 6.44811 2.51483 6.36307 2.68107L6.35089 2.70486L2.16742 12.0901L2.1616 12.1043C2.07347 12.3196 2.02185 12.6089 2.11053 12.9209C2.20355 13.2482 2.42107 13.4933 2.67712 13.6435L2.6964 13.6548L4.51854 14.6174L4.57189 14.6383C5.01621 14.812 5.64834 14.7657 6.04818 14.2446L6.05292 14.2384L7.1043 12.8233C6.96814 15.0772 6.6432 17.9115 6.28773 20.5972C6.15697 21.4521 6.8894 21.9954 7.52053 21.9954H16.587C17.2182 21.9954 17.9506 21.4521 17.8198 20.5972C17.4633 17.9031 17.1374 15.0596 17.002 12.8023L18.0762 14.2355L18.0831 14.2446C18.2913 14.5159 18.5756 14.6531 18.8242 14.7043C19.0682 14.7545 19.3598 14.7395 19.635 14.605L19.6493 14.5981L21.4805 13.6307L21.5401 13.587C21.9312 13.3003 22.2228 12.7228 21.9696 12.1043L21.9638 12.0901L17.7804 2.70486L17.7682 2.68107C17.6831 2.51484 17.5466 2.33223 17.3341 2.19379C17.1161 2.05177 16.8781 1.99536 16.6581 1.99536H16.0426H14.3026H9.83714H8.6095V1.99538L8.60944 1.99538L7.47319 1.99536ZM10.6733 3.99591L12.0334 7.25009L13.4387 3.99591H10.6733ZM15.629 3.99591L13.082 9.89404L13.8398 12.6377H14.9771C14.9232 11.6385 14.9067 10.744 14.942 10.0167C14.9584 9.47649 15.3494 9.06391 15.8336 8.96928C16.2689 8.8842 16.7023 9.06176 16.9611 9.39907L16.9681 9.40811L19.2986 12.5178L19.8283 12.2379L16.1544 3.99591L16.0426 3.99591L15.629 3.99591ZM7.97688 3.99591L4.30298 12.2379L4.83019 12.5165L7.10844 9.45002C7.40002 8.99794 7.91295 8.90468 8.25339 8.96706C8.65221 9.04015 9.14851 9.38837 9.16562 10.0183C9.20087 10.7453 9.18434 11.6393 9.13042 12.6377H11.7526L11.0646 10.1468L8.49375 3.99591H7.97688ZM8.39585 19.9948C8.62517 18.2069 8.83992 16.3449 8.98719 14.6382H12.0183V19.9948H8.39585ZM14.0311 19.9948V14.6382H15.1204C15.2677 16.3449 15.4824 18.2069 15.7117 19.9948H14.0311Z" fill="#0D151F"/>
</svg>
