<svg width="24" height="24" viewBox="0 0 24 24" fill="none" xmlns="http://www.w3.org/2000/svg">
<path fill-rule="evenodd" clip-rule="evenodd" d="M5.05104 8.33997C4.77228 8.33997 4.50495 8.44602 4.30784 8.63479C4.11073 8.82357 4 9.0796 4 9.34656L4 11.41C4.00243 12.6594 4.44068 13.8722 5.24516 14.8558C5.99918 15.7777 7.0344 16.4487 8.20374 16.7775L5.88708 20.4746C5.81596 20.588 5.76886 20.7136 5.74846 20.8444C5.72806 20.9752 5.73477 21.1086 5.7682 21.2369C5.80163 21.3652 5.86112 21.4859 5.94329 21.5922C6.02543 21.6984 6.12863 21.7881 6.24698 21.8562C6.36532 21.9243 6.49652 21.9694 6.63308 21.9889C6.76963 22.0085 6.90887 22.002 7.04283 21.97C7.1768 21.938 7.30286 21.881 7.41382 21.8023C7.52479 21.7236 7.61847 21.6248 7.68952 21.5114L8.43267 20.3258C8.45816 20.3299 8.48383 20.333 8.50962 20.3352L8.51755 20.3359H15.5752L16.3105 21.5114C16.3816 21.6248 16.4753 21.7236 16.5862 21.8023C16.6972 21.8809 16.8232 21.9379 16.9572 21.9699C17.0911 22.0019 17.2304 22.0084 17.3669 21.9889C17.5034 21.9693 17.6346 21.9243 17.753 21.8562C17.8713 21.7881 17.9745 21.6984 18.0567 21.5921C18.1388 21.4858 18.1983 21.3651 18.2317 21.2368C18.2651 21.1085 18.2719 20.9752 18.2515 20.8444C18.2311 20.7137 18.184 20.588 18.1129 20.4747L15.7963 16.7775C16.9656 16.4487 18.0008 15.7777 18.7548 14.8558C19.5593 13.8722 19.9976 12.6591 20 11.4097V9.34656C20 9.0796 19.8893 8.82357 19.6922 8.63479C19.4951 8.44602 19.2277 8.33997 18.949 8.33997H5.05104ZM6.10207 10.3532V11.4095C6.1032 12.3601 6.498 13.2716 7.19986 13.9437C7.90175 14.616 8.8534 14.9941 9.84602 14.9951H14.154C15.1466 14.9941 16.0982 14.6159 16.8001 13.9437C17.502 13.2715 17.8968 12.3601 17.8979 11.4095V10.3532H6.10207ZM10.5094 17.0083L9.68592 18.3227H14.3141L13.4906 17.0083H10.5094Z" fill="#0D151F"/>
<path fill-rule="evenodd" clip-rule="evenodd" d="M7.03052 2C6.89244 2 6.7557 2.02605 6.62812 2.07666C6.50055 2.12727 6.38463 2.20145 6.28699 2.29496C6.18934 2.38848 6.11189 2.49949 6.05905 2.62167C6.0062 2.74386 5.979 2.87481 5.979 3.00706C5.979 3.27415 6.08979 3.5303 6.28699 3.71916L6.54122 3.96264C6.63848 4.05556 6.71564 4.16594 6.76829 4.28747C6.82094 4.40899 6.84804 4.53927 6.84804 4.67085C6.84804 4.80242 6.82094 4.9327 6.76829 5.05422C6.71564 5.17575 6.63832 5.28628 6.54106 5.3792L6.28699 5.62253C6.08979 5.81139 5.979 6.06754 5.979 6.33463C5.979 6.60172 6.08979 6.85787 6.28699 7.04673C6.48419 7.23559 6.75164 7.34169 7.03052 7.34169C7.3094 7.34169 7.57686 7.23559 7.77406 7.04673L8.02813 6.8034C8.32058 6.52337 8.55257 6.19091 8.71084 5.82501C8.86912 5.4591 8.95058 5.06691 8.95058 4.67085C8.95058 4.27478 8.86912 3.88259 8.71084 3.51669C8.55257 3.15078 8.32057 2.81831 8.02812 2.53828L7.77406 2.29496C7.67642 2.20145 7.5605 2.12727 7.43292 2.07666C7.30535 2.02605 7.16861 2 7.03052 2Z" fill="#0D151F"/>
<path fill-rule="evenodd" clip-rule="evenodd" d="M11.5657 2C11.4276 2 11.2909 2.02605 11.1633 2.07666C11.0357 2.12727 10.9198 2.20145 10.8222 2.29496C10.7245 2.38848 10.6471 2.49949 10.5942 2.62167C10.5414 2.74386 10.5142 2.87481 10.5142 3.00706C10.5142 3.27415 10.625 3.5303 10.8222 3.71916L11.0764 3.96264C11.1736 4.05556 11.2508 4.16594 11.3035 4.28747C11.3561 4.40899 11.3832 4.53927 11.3832 4.67085C11.3832 4.80242 11.3561 4.9327 11.3035 5.05422C11.2508 5.17575 11.1735 5.28628 11.0762 5.3792L10.8222 5.62253C10.625 5.81139 10.5142 6.06754 10.5142 6.33463C10.5142 6.60172 10.625 6.85787 10.8222 7.04673C11.0194 7.23559 11.2868 7.34169 11.5657 7.34169C11.8446 7.34169 12.112 7.23559 12.3092 7.04673L12.5633 6.8034C12.8557 6.52337 13.0877 6.19091 13.246 5.82501C13.4043 5.4591 13.4857 5.06691 13.4857 4.67085C13.4857 4.27478 13.4043 3.88259 13.246 3.51669C13.0877 3.15078 12.8557 2.81831 12.5633 2.53828L12.3092 2.29496C12.2116 2.20145 12.0957 2.12727 11.9681 2.07666C11.8405 2.02605 11.7038 2 11.5657 2Z" fill="#0D151F"/>
<path fill-rule="evenodd" clip-rule="evenodd" d="M16.1008 2C15.9627 2 15.826 2.02605 15.6984 2.07666C15.5709 2.12727 15.4549 2.20145 15.3573 2.29496C15.2597 2.38848 15.1822 2.49949 15.1294 2.62167C15.0765 2.74386 15.0493 2.87481 15.0493 3.00706C15.0493 3.27415 15.1601 3.5303 15.3573 3.71916L15.6115 3.96264C15.7088 4.05556 15.7859 4.16594 15.8386 4.28747C15.8912 4.40899 15.9184 4.53927 15.9184 4.67085C15.9184 4.80242 15.8912 4.9327 15.8386 5.05422C15.7859 5.17575 15.7086 5.28628 15.6114 5.3792L15.3573 5.62253C15.1601 5.81139 15.0493 6.06754 15.0493 6.33463C15.0493 6.60172 15.1601 6.85787 15.3573 7.04673C15.5545 7.23559 15.822 7.34169 16.1008 7.34169C16.3797 7.34169 16.6472 7.23559 16.8444 7.04673L17.0984 6.8034C17.3909 6.52337 17.6229 6.19091 17.7811 5.82501C17.9394 5.4591 18.0209 5.06691 18.0209 4.67085C18.0209 4.27478 17.9394 3.88259 17.7811 3.51669C17.6229 3.15078 17.3909 2.81831 17.0984 2.53828L16.8444 2.29496C16.7467 2.20145 16.6308 2.12727 16.5032 2.07666C16.3757 2.02605 16.2389 2 16.1008 2Z" fill="#0D151F"/>
</svg>
