<svg width="24" height="24" viewBox="0 0 24 24" fill="none" xmlns="http://www.w3.org/2000/svg">
<path fill-rule="evenodd" clip-rule="evenodd" d="M4.00161 5.50161V18.4987H19.9984V5.50161H4.00161ZM2 5.25074C2 4.28383 2.78383 3.5 3.75074 3.5H20.2493C21.2162 3.5 22 4.28383 22 5.25074V18.7495C22 19.7164 21.2162 20.5003 20.2493 20.5003H3.75074C2.78383 20.5003 2 19.7164 2 18.7495V5.25074Z" fill="#0D151F"/>
<path fill-rule="evenodd" clip-rule="evenodd" d="M8.26455 12.2256L3.75667 16.7335C3.36614 17.124 2.73298 17.124 2.34245 16.7335C1.95193 16.343 1.95193 15.7098 2.34245 15.3193L7.03065 10.6311C7.19269 10.4691 7.38505 10.3405 7.59677 10.2528C7.80848 10.1651 8.0354 10.12 8.26455 10.12C8.49371 10.12 8.72062 10.1651 8.93234 10.2528C9.14405 10.3405 9.33642 10.4691 9.49845 10.6311L13.4796 14.6122L15.2257 12.8661C15.3877 12.7041 15.5801 12.5755 15.7918 12.4878C16.0035 12.4001 16.2304 12.355 16.4596 12.355C16.6887 12.355 16.9156 12.4001 17.1273 12.4878C17.3391 12.5755 17.5314 12.7041 17.6935 12.8661L21.6367 16.8093C22.0272 17.1998 22.0272 17.833 21.6367 18.2235C21.2461 18.614 20.613 18.614 20.2225 18.2235L16.4596 14.4606L14.7135 16.2067C14.5514 16.3688 14.3591 16.4973 14.1473 16.585C13.9356 16.6727 13.7087 16.7178 13.4796 16.7178C13.2504 16.7178 13.0235 16.6727 12.8118 16.585C12.6001 16.4973 12.4077 16.3688 12.2457 16.2067L8.26455 12.2256Z" fill="#0D151F"/>
<path d="M14.5064 11.535C15.3293 11.535 15.9964 10.8679 15.9964 10.045C15.9964 9.22207 15.3293 8.55497 14.5064 8.55497C13.6835 8.55497 13.0164 9.22207 13.0164 10.045C13.0164 10.8679 13.6835 11.535 14.5064 11.535Z" fill="#0D151F"/>
</svg>
