<svg width="24" height="24" viewBox="0 0 24 24" fill="none" xmlns="http://www.w3.org/2000/svg">
<path fill-rule="evenodd" clip-rule="evenodd" d="M20.8721 1.93799C20.8721 1.3857 21.3198 0.937988 21.8721 0.937988H21.8833C22.4356 0.937988 22.8833 1.3857 22.8833 1.93799C22.8833 2.49027 22.4356 2.93799 21.8833 2.93799H21.8721C21.3198 2.93799 20.8721 2.49027 20.8721 1.93799ZM8.05873 2.39355C8.05873 1.84127 8.50645 1.39355 9.05873 1.39355H13.1429C13.6952 1.39355 14.1429 1.84127 14.1429 2.39355V6.02523C17.4818 7.26288 19.8608 10.479 19.8608 14.2503C19.8608 19.0919 15.9398 23.0185 11.1008 23.0185C6.2618 23.0185 2.34082 19.0919 2.34082 14.2503C2.34082 10.479 4.71988 7.26284 8.05873 6.02521V2.39355ZM10.0587 5.54348C10.4004 5.50295 10.7482 5.4821 11.1008 5.4821C11.4534 5.4821 11.8012 5.50295 12.1429 5.54349V3.39355H10.0587V5.54348ZM18.3983 3.29518C18.3983 2.7429 18.846 2.29518 19.3983 2.29518H19.4095C19.9618 2.29518 20.4095 2.7429 20.4095 3.29518C20.4095 3.84747 19.9618 4.29518 19.4095 4.29518H19.3983C18.846 4.29518 18.3983 3.84747 18.3983 3.29518ZM15.9244 4.65271C15.9244 4.10043 16.3721 3.65271 16.9244 3.65271H16.9356C17.4879 3.65271 17.9356 4.10043 17.9356 4.65271C17.9356 5.20499 17.4879 5.65271 16.9356 5.65271H16.9244C16.3721 5.65271 15.9244 5.20499 15.9244 4.65271ZM20.8721 4.65271C20.8721 4.10043 21.3199 3.65271 21.8721 3.65271H21.8834C22.4356 3.65271 22.8834 4.10043 22.8834 4.65271C22.8834 5.20499 22.4356 5.65271 21.8834 5.65271H21.8721C21.3199 5.65271 20.8721 5.20499 20.8721 4.65271ZM18.3983 6.00978C18.3983 5.4575 18.8461 5.00978 19.3983 5.00978H19.4096C19.9618 5.00978 20.4096 5.4575 20.4096 6.00978C20.4096 6.56207 19.9618 7.00978 19.4096 7.00978H19.3983C18.8461 7.00978 18.3983 6.56207 18.3983 6.00978ZM11.1008 7.4821C7.36837 7.4821 4.34082 10.5113 4.34082 14.2503C4.34082 17.9893 7.36837 21.0185 11.1008 21.0185C14.8332 21.0185 17.8608 17.9893 17.8608 14.2503C17.8608 10.5113 14.8332 7.4821 11.1008 7.4821ZM20.8721 7.36723C20.8721 6.81495 21.3199 6.36723 21.8721 6.36723H21.8834C22.4356 6.36723 22.8834 6.81495 22.8834 7.36723C22.8834 7.91951 22.4356 8.36723 21.8834 8.36723H21.8721C21.3199 8.36723 20.8721 7.91951 20.8721 7.36723ZM6.42497 13.1603C6.42497 11.5951 7.72994 10.3883 9.26286 10.3883C9.94354 10.3883 10.5928 10.6341 11.1008 11.0348C11.6087 10.6341 12.258 10.3883 12.9386 10.3883C14.4716 10.3883 15.7765 11.5951 15.7765 13.1603C15.7765 15.0306 14.6806 16.4701 13.7025 17.3771C13.2017 17.8415 12.695 18.2017 12.2932 18.4487C12.0923 18.5721 11.9095 18.6723 11.7585 18.7454C11.6842 18.7813 11.6068 18.8159 11.5322 18.8441C11.4954 18.858 11.4477 18.8748 11.394 18.8894C11.3591 18.8989 11.2447 18.93 11.1007 18.93C10.9568 18.93 10.8424 18.8989 10.8075 18.8894C10.7538 18.8748 10.7061 18.858 10.6693 18.8441C10.5947 18.8159 10.5173 18.7813 10.443 18.7454C10.292 18.6723 10.1092 18.5721 9.90834 18.4487C9.50649 18.2017 8.9998 17.8415 8.49898 17.3771C7.52092 16.4701 6.42497 15.0306 6.42497 13.1603ZM9.26286 12.3883C8.76511 12.3883 8.42497 12.7678 8.42497 13.1603C8.42497 14.2198 9.05499 15.1651 9.85888 15.9106C10.249 16.2723 10.6473 16.5553 10.9556 16.7448C11.0076 16.7768 11.0562 16.8055 11.1007 16.8311C11.1453 16.8055 11.1939 16.7768 11.2459 16.7448C11.5542 16.5553 11.9525 16.2723 12.3426 15.9106C13.1465 15.1651 13.7765 14.2198 13.7765 13.1603C13.7765 12.7678 13.4364 12.3883 12.9386 12.3883C12.7288 12.3883 12.5193 12.4657 12.3503 12.5966C12.1747 12.7327 12.0972 12.8824 12.0787 12.9692C11.9802 13.4306 11.5726 13.7604 11.1007 13.7604C10.6289 13.7604 10.2213 13.4306 10.1228 12.9692C10.1043 12.8824 10.0268 12.7327 9.8512 12.5966C9.68218 12.4657 9.47274 12.3883 9.26286 12.3883Z" fill="#0D151F"/>
</svg>
