<svg width="24" height="24" viewBox="0 0 24 24" fill="none" xmlns="http://www.w3.org/2000/svg">
<path fill-rule="evenodd" clip-rule="evenodd" d="M17.3127 3.57175C17.3127 3.1128 16.9995 2.71093 16.5521 2.60873C12.7045 1.72988 10.3677 1.87055 7.44484 2.59782C7.00657 2.70687 6.70374 3.1044 6.70374 3.55603V8.81257C6.68809 8.9881 6.68006 9.16856 6.68006 9.35391C6.68006 12.026 7.80684 13.8476 9.34589 14.788C9.33754 15.0595 9.29972 15.2931 9.1816 15.4989C9.0522 15.7244 8.8127 15.9395 8.34781 16.1221L5.83656 17.1152C4.42451 17.6736 3.60851 18.0768 3.16975 18.7744C2.9495 19.1245 2.83088 19.5373 2.76609 20.0554C2.70152 20.5718 2.68921 21.2047 2.68921 22H4.68206C4.68206 21.3511 4.68219 20.875 4.71092 20.5086C4.73966 20.1421 4.79597 19.9056 4.89579 19.7279C4.99328 19.5544 5.1419 19.4203 5.3912 19.2788C5.64082 19.1372 5.97539 18.9968 6.43757 18.8029L6.45994 18.7935L8.90423 17.7567C9.43965 17.5325 10.0412 17.2735 10.5082 16.8993C10.8461 16.6286 11.1192 16.293 11.2499 15.8636V21.9926H12.7499V15.8637C12.8806 16.293 13.1538 16.6286 13.4916 16.8993C13.9587 17.2735 14.5599 17.5324 15.0954 17.7566L17.5393 18.7932C18.0128 18.992 18.3547 19.1358 18.6082 19.2806C18.8573 19.4231 19.0062 19.5585 19.1039 19.7332C19.2039 19.9119 19.2602 20.149 19.2889 20.5148C19.3176 20.8805 19.3178 21.3548 19.3178 22H21.3106C21.3106 21.2047 21.2983 20.5718 21.2337 20.0554C21.169 19.5373 21.0503 19.1245 20.8301 18.7744C20.3913 18.0768 19.5753 17.6736 18.1633 17.1152L15.6524 16.1222C15.1875 15.9396 14.9476 15.7244 14.8182 15.4989C14.7001 15.2931 14.6623 15.0595 14.6539 14.788C16.193 13.8476 17.3198 12.026 17.3198 9.35391C17.3198 9.25269 17.3174 9.15293 17.3127 9.05464V3.57175ZM8.70374 4.35769V6.79584C9.8804 6.50899 11.0101 6.34883 12.1489 6.34301C13.2222 6.33752 14.2601 6.4691 15.3127 6.72568V4.38786C12.5875 3.84149 10.7775 3.91036 8.70374 4.35769ZM15.2823 8.78497C13.0593 8.16244 11.1162 8.2059 8.70374 8.86118L8.70173 8.86172C8.68279 9.01894 8.67292 9.18299 8.67292 9.35391C8.67292 12.2395 10.3636 13.6321 12.0003 13.6355C13.6361 13.6389 15.3269 12.2544 15.3269 9.35391C15.3269 9.15436 15.3106 8.96427 15.2823 8.78497Z" fill="#0D151F"/>
<path d="M17.1259 20.3317C17.1259 20.8936 16.6704 21.3492 16.1085 21.3492C15.5465 21.3492 15.091 20.8936 15.091 20.3317C15.091 19.7698 15.5465 19.3142 16.1085 19.3142C16.6704 19.3142 17.1259 19.7698 17.1259 20.3317Z" fill="#0D151F"/>
</svg>
