<svg width="24" height="24" viewBox="0 0 24 24" fill="none" xmlns="http://www.w3.org/2000/svg">
<path fill-rule="evenodd" clip-rule="evenodd" d="M11.9524 4.69202C11.9524 3.21065 13.1533 2.00977 14.6346 2.00977C15.0066 2.00977 15.3633 2.08606 15.6879 2.22473L17.9159 3.08734C18.8508 3.44931 18.8537 4.77107 17.9204 5.13717L17.2188 5.4124C17.1096 5.8045 16.9137 6.16074 16.6535 6.45802C16.1633 7.01809 15.44 7.37427 14.6346 7.37427C13.1533 7.37427 11.9524 6.17338 11.9524 4.69202ZM14.6346 4.00977C14.2578 4.00977 13.9524 4.31522 13.9524 4.69202C13.9524 5.06881 14.2578 5.37427 14.6346 5.37427C14.8393 5.37427 15.022 5.28542 15.1485 5.14084C15.254 5.02027 15.3169 4.86472 15.3169 4.69202C15.3169 4.41402 15.1505 4.17267 14.9077 4.06634C14.8254 4.03028 14.7337 4.00977 14.6346 4.00977ZM9.19473 6.58137C9.7055 6.09871 10.4829 6.03535 11.0651 6.42894L15.9536 9.73389H17.8678C18.4753 9.73389 18.9678 10.2264 18.9678 10.8339V13.8183C20.7089 14.263 21.9962 15.842 21.9962 17.7216C21.9962 19.9465 20.1926 21.7501 17.9678 21.7501C15.7429 21.7501 13.9393 19.9465 13.9393 17.7216C13.9393 15.842 15.2267 14.263 16.9678 13.8183V11.7339H15.8122C15.5728 11.7699 15.3199 11.7196 15.1036 11.5734L10.277 8.31034L8.16644 10.3048C10.813 11.1014 13.0605 13.3295 13.0605 16.0232V18.4389C13.0605 18.9912 12.6128 19.4389 12.0605 19.4389C11.5082 19.4389 11.0605 18.9912 11.0605 18.4389V16.0232C11.0605 14.3479 9.40028 12.5445 7.05067 12.0862C6.43035 11.9653 6.01096 11.5082 5.8417 11.0298C5.66949 10.543 5.70873 9.87555 6.21946 9.39292L9.19473 6.58137ZM2.11364 11.3697C2.35877 10.8748 2.95868 10.6723 3.45359 10.9174L5.92588 12.142C6.57211 12.462 6.9932 13.1034 7.0348 13.8174C8.77763 14.261 10.0666 15.8408 10.0666 17.7217C10.0666 19.9465 8.26305 21.7501 6.0382 21.7501C3.81334 21.7501 2.00974 19.9465 2.00974 17.7217C2.00974 15.8965 3.22357 14.3548 4.88802 13.8598L2.5659 12.7096C2.071 12.4645 1.86851 11.8646 2.11364 11.3697ZM17.9678 15.6932C16.8475 15.6932 15.9393 16.6014 15.9393 17.7216C15.9393 18.8419 16.8475 19.7501 17.9678 19.7501C19.088 19.7501 19.9962 18.8419 19.9962 17.7216C19.9962 16.6014 19.088 15.6932 17.9678 15.6932ZM6.0382 15.6932C4.91791 15.6932 4.00974 16.6014 4.00974 17.7217C4.00974 18.8419 4.91791 19.7501 6.0382 19.7501C7.15848 19.7501 8.06665 18.8419 8.06665 17.7217C8.06665 16.6014 7.15848 15.6932 6.0382 15.6932Z" fill="#0D151F"/>
</svg>
