<svg width="24" height="24" viewBox="0 0 24 24" fill="none" xmlns="http://www.w3.org/2000/svg">
<path fill-rule="evenodd" clip-rule="evenodd" d="M11.6624 3.63184C11.6624 3.07955 12.1101 2.63184 12.6624 2.63184H14.4071C15.2606 2.63184 16.02 3.17342 16.2981 3.98034L17.5736 7.68235L18.8322 11.1727C18.8893 11.1706 18.9466 11.1695 19.0041 11.1695C21.5446 11.1695 23.6041 13.229 23.6041 15.7695C23.6041 18.31 21.5446 20.3695 19.0041 20.3695C16.4636 20.3695 14.4041 18.31 14.4041 15.7695C14.4041 13.9912 15.4133 12.4485 16.8902 11.6829L16.0728 9.4163L13.3473 15.6573C13.0291 16.3859 12.3096 16.8569 11.5145 16.8569H9.47482C8.98628 18.8726 7.17 20.3695 5.00409 20.3695C2.46358 20.3695 0.404094 18.31 0.404094 15.7695C0.404094 13.229 2.46358 11.1695 5.00409 11.1695C7.23214 11.1695 9.09022 12.7536 9.51357 14.8569H11.5145L14.0657 9.01494L12.1352 9.01494L10.3494 10.5415C9.80604 11.006 9.05605 11.1451 8.3822 10.9065L0.956223 8.27645C0.435624 8.09208 0.163062 7.52058 0.347439 6.99998C0.531816 6.47938 1.10331 6.20682 1.62391 6.3912L9.04989 9.0212L10.8357 7.49468C11.1979 7.18506 11.6587 7.01494 12.1352 7.01494H15.2282L14.4071 4.63184H12.6624C12.1101 4.63184 11.6624 4.18412 11.6624 3.63184ZM7.43941 14.8569C7.06984 13.8711 6.1189 13.1695 5.00409 13.1695C3.56815 13.1695 2.40409 14.3336 2.40409 15.7695C2.40409 17.2055 3.56815 18.3695 5.00409 18.3695C6.05183 18.3695 6.95481 17.7498 7.36648 16.8569H5.2841C4.73182 16.8569 4.2841 16.4092 4.2841 15.8569C4.2841 15.3046 4.73182 14.8569 5.2841 14.8569H7.43941ZM17.5794 13.5942C16.8715 14.0588 16.4041 14.8596 16.4041 15.7695C16.4041 17.2055 17.5682 18.3695 19.0041 18.3695C20.44 18.3695 21.6041 17.2055 21.6041 15.7695C21.6041 14.5297 20.7363 13.4926 19.575 13.2324L20.4721 15.7201C20.6595 16.2396 20.3902 16.8127 19.8707 17C19.3511 17.1874 18.7781 16.9181 18.5907 16.3986L17.5794 13.5942ZM19.4415 5.60012C19.9811 5.71743 20.3235 6.25002 20.2062 6.7897C20.1722 6.94641 20.1826 7.11374 20.2472 7.27585C20.3118 7.43795 20.4194 7.56651 20.552 7.65678C21.0085 7.96766 21.1265 8.58973 20.8156 9.04621C20.5047 9.50269 19.8827 9.62071 19.4262 9.30983C18.9746 9.00226 18.6063 8.56044 18.3894 8.01664C18.1726 7.47284 18.1358 6.89884 18.2519 6.3649C18.3692 5.82521 18.9018 5.48281 19.4415 5.60012Z" fill="#0D151F"/>
</svg>
