<svg width="24" height="24" viewBox="0 0 24 24" fill="none" xmlns="http://www.w3.org/2000/svg">
<path fill-rule="evenodd" clip-rule="evenodd" d="M12 20C16.4183 20 20 16.4183 20 12C20 7.58172 16.4183 4 12 4C7.58172 4 4 7.58172 4 12C4 16.4183 7.58172 20 12 20ZM12 22C17.5228 22 22 17.5228 22 12C22 6.47715 17.5228 2 12 2C6.47715 2 2 6.47715 2 12C2 17.5228 6.47715 22 12 22Z" fill="#0D151F"/>
<path d="M10.7358 16.7181C10.1164 16.5522 9.58661 16.2822 9.14629 15.9082C8.70834 15.5253 8.39467 15.0856 8.20527 14.5892C8.01586 14.0927 7.98873 13.5923 8.12387 13.088C8.21159 12.7606 8.33082 12.4749 8.48158 12.2308C8.64118 11.989 8.83349 11.7845 9.0585 11.6172C9.29235 11.4523 9.55449 11.3234 9.84491 11.2305C10.1353 11.1376 10.4596 11.0775 10.8178 11.0502L10.5606 11.4792C10.339 11.3155 10.1486 11.1412 9.9895 10.9563C9.83278 10.7626 9.70734 10.5583 9.61319 10.3434C9.52789 10.1309 9.47269 9.91218 9.44758 9.68735C9.4337 9.45603 9.45758 9.22535 9.51922 8.9953C9.64724 8.51752 9.89937 8.12514 10.2756 7.81817C10.6518 7.51121 11.0996 7.30877 11.619 7.21085C12.1407 7.10409 12.6891 7.12775 13.2642 7.28186C13.8305 7.43359 14.3129 7.68611 14.7113 8.03944C15.1121 8.38392 15.3987 8.78314 15.5711 9.23709C15.7434 9.69105 15.7656 10.1569 15.6375 10.6347C15.5759 10.8647 15.4812 11.0765 15.3536 11.2698C15.2283 11.4544 15.0767 11.6129 14.8989 11.7455C14.7212 11.878 14.5116 11.9878 14.2702 12.0749C14.0376 12.1643 13.7743 12.2265 13.4804 12.2615L13.5111 11.8288C13.7793 11.9955 14.0116 12.1905 14.2078 12.4138C14.4152 12.6306 14.5734 12.8721 14.6822 13.1383C14.8023 13.3981 14.8754 13.6737 14.9016 13.9652C14.9278 14.2568 14.8982 14.5618 14.8129 14.8803C14.6754 15.3935 14.4005 15.8177 13.9882 16.1529C13.576 16.4882 13.0857 16.7077 12.5173 16.8114C11.949 16.9152 11.3552 16.8841 10.7358 16.7181ZM11.1732 15.0857C11.4387 15.1568 11.6962 15.1689 11.9458 15.122C12.1955 15.0751 12.406 14.9798 12.5772 14.836C12.7509 14.6834 12.8697 14.4877 12.9337 14.2488C13.0001 14.001 12.9963 13.7677 12.9222 13.5487C12.8505 13.3208 12.7194 13.1197 12.5291 12.9455C12.3475 12.7735 12.1196 12.6508 11.8453 12.5773C11.571 12.5038 11.3079 12.495 11.0559 12.5507C10.8127 12.6088 10.6031 12.7186 10.4271 12.8801C10.2534 13.0327 10.1334 13.2329 10.067 13.4806C10.0054 13.7107 10.0116 13.9352 10.0857 14.1542C10.1621 14.3643 10.2911 14.5554 10.4727 14.7273C10.6654 14.8927 10.8989 15.0122 11.1732 15.0857ZM12.2792 10.9582C12.5181 11.0222 12.7423 11.0348 12.9518 10.9961C13.1637 10.9486 13.3429 10.8638 13.4893 10.7419C13.647 10.6134 13.7543 10.443 13.8112 10.2307C13.8658 10.0272 13.8569 9.8304 13.7845 9.64032C13.7234 9.44376 13.6129 9.27192 13.4532 9.12481C13.2935 8.97769 13.0942 8.87213 12.8553 8.80812C12.6164 8.74411 12.3866 8.73469 12.1658 8.77986C11.954 8.8274 11.768 8.91981 11.6079 9.0571C11.4591 9.18792 11.3574 9.35507 11.3029 9.55857C11.246 9.77092 11.2493 9.97095 11.3128 10.1587C11.3875 10.3399 11.5047 10.5041 11.6644 10.6512C11.8354 10.7918 12.0403 10.8942 12.2792 10.9582Z" fill="#0D151F"/>
<path fill-rule="evenodd" clip-rule="evenodd" d="M13.1348 7.76482C12.6258 7.62841 12.1563 7.61125 11.7192 7.7007L11.7116 7.70225C11.2668 7.78611 10.8977 7.95595 10.5917 8.20559C10.2984 8.44488 10.1036 8.74628 10.0022 9.12471C9.95521 9.30001 9.93699 9.47273 9.94598 9.64474C9.96635 9.8171 10.0089 9.98515 10.0743 10.1499C10.1429 10.3047 10.2329 10.4553 10.3464 10.6016C10.4869 10.5796 10.6314 10.563 10.7798 10.5517L10.9425 10.5393C10.9082 10.4781 10.8775 10.4147 10.8505 10.3492L10.8443 10.3343L10.8391 10.3189C10.7406 10.0276 10.7403 9.72603 10.8199 9.42916C10.8983 9.13665 11.0501 8.8817 11.2779 8.68153L11.2824 8.67755C11.5064 8.4854 11.7672 8.35688 12.0564 8.29199L12.0656 8.28992C12.3696 8.22771 12.6783 8.24305 12.9847 8.32516C13.2907 8.40715 13.565 8.54798 13.792 8.75703C14.0089 8.95687 14.1677 9.19814 14.2573 9.47719C14.3633 9.7647 14.3735 10.064 14.2942 10.3601C14.2127 10.6644 14.0519 10.9278 13.8072 11.1278C13.7363 11.1867 13.6611 11.2388 13.5822 11.2843L13.775 11.4041C13.8803 11.4696 13.9814 11.5392 14.078 11.613C14.0822 11.6114 14.0865 11.6098 14.0907 11.6081L14.1005 11.6044C14.3028 11.5315 14.4674 11.4436 14.6001 11.3446C14.732 11.2462 14.8443 11.1292 14.9381 10.9916C15.0345 10.8451 15.1068 10.6838 15.1546 10.5053C15.256 10.1269 15.238 9.76843 15.1036 9.41455C14.9635 9.04538 14.7287 8.71367 14.3854 8.41864L14.3795 8.41359C14.0448 8.11679 13.6338 7.89852 13.1348 7.76482ZM13.809 12.7177C13.8168 12.7264 13.8245 12.7351 13.8322 12.7438L13.8392 12.7518L13.8465 12.7594C14.0125 12.9329 14.1353 13.1218 14.2194 13.3275L14.2236 13.3379L14.2283 13.3481C14.3238 13.5546 14.3824 13.7743 14.4036 14.01C14.4239 14.2361 14.402 14.482 14.3299 14.7509C14.2197 15.1624 14.0034 15.4962 13.6728 15.765C13.3314 16.0426 12.9205 16.2296 12.4275 16.3196C11.9397 16.4086 11.421 16.3841 10.8652 16.2352C10.3108 16.0866 9.85018 15.8493 9.47273 15.5294C9.09179 15.1957 8.82964 14.823 8.67243 14.4109C8.51982 14.0109 8.49945 13.6182 8.60683 13.2174C8.68333 12.9319 8.78372 12.6947 8.90303 12.4999C9.02958 12.3098 9.17905 12.1516 9.35184 12.0222C9.54022 11.8901 9.75431 11.7844 9.99722 11.7067C10.008 11.7033 10.0189 11.6999 10.0298 11.6965C10.1046 11.7599 10.1825 11.8215 10.2636 11.8814L10.6414 12.1604C10.4402 12.2434 10.2563 12.3591 10.093 12.5081C9.83943 12.7324 9.67262 13.0207 9.58406 13.3512C9.49769 13.6736 9.50534 13.999 9.61205 14.3144L9.61582 14.3251C9.7218 14.6165 9.89768 14.8714 10.1288 15.0903L10.1377 15.0987L10.147 15.1067C10.403 15.3264 10.7058 15.4781 11.0438 15.5687C11.3756 15.6576 11.709 15.6753 12.0382 15.6134C12.3606 15.5529 12.6531 15.4251 12.8987 15.219L12.9073 15.2116C13.1604 14.9892 13.329 14.7054 13.4167 14.3782C13.5053 14.0477 13.505 13.7146 13.3975 13.3935C13.3296 13.1797 13.2245 12.9856 13.0867 12.812L13.5397 12.758C13.6312 12.7471 13.721 12.7337 13.809 12.7177ZM12.9511 12.6584L13.0338 11.4894C12.7431 11.5416 12.446 11.5205 12.1498 11.4411C11.8679 11.3656 11.6113 11.2439 11.3885 11.0707L10.7622 12.1153C10.8201 12.0958 10.8793 12.0788 10.9396 12.0644L10.9479 12.0624C11.2859 11.9877 11.6308 12.0022 11.9747 12.0944C12.3169 12.186 12.6206 12.3446 12.8698 12.5795C12.8977 12.6052 12.9249 12.6315 12.9511 12.6584ZM9.33406 10.8902C9.26695 10.7782 9.20725 10.6628 9.15522 10.544L9.15209 10.5369L9.14918 10.5296C9.04726 10.2757 8.98085 10.0131 8.95067 9.74283L8.94925 9.73009L8.94848 9.7173C8.93129 9.43086 8.9611 9.14639 9.03626 8.86589C9.1909 8.28875 9.50034 7.8054 9.95951 7.43076C10.405 7.06724 10.9302 6.83248 11.5226 6.72022C12.1277 6.59705 12.7539 6.62746 13.3937 6.79889C14.0259 6.9683 14.5785 7.25428 15.0401 7.66276C15.497 8.05616 15.8344 8.52204 16.0385 9.05963C16.2489 9.61366 16.2752 10.187 16.1205 10.7641C16.0454 11.0446 15.9289 11.3059 15.7708 11.5453L15.7672 11.5508C15.6108 11.7811 15.4205 11.9803 15.1978 12.1463C15.0825 12.2323 14.9586 12.3091 14.827 12.3771C14.9533 12.5519 15.0582 12.7392 15.1407 12.9387C15.2826 13.2487 15.3687 13.5769 15.3996 13.9205C15.4317 14.2774 15.3945 14.6416 15.2958 15.0097C15.1311 15.6246 14.7976 16.1392 14.3037 16.5409C13.8206 16.9338 13.2508 17.1858 12.6071 17.3033C11.9583 17.4218 11.2893 17.3841 10.6064 17.2011C9.92346 17.0181 9.32527 16.7162 8.82259 16.2892L8.81717 16.2846C8.32365 15.8532 7.95934 15.3473 7.73811 14.7674C7.51191 14.1745 7.47802 13.5665 7.6409 12.9586C7.739 12.5925 7.8757 12.2603 8.05617 11.968L8.06015 11.9616L8.06432 11.9553C8.25488 11.6667 8.48696 11.4191 8.76016 11.216L8.77023 11.2085C8.94623 11.0844 9.13451 10.9785 9.33406 10.8902ZM12.2707 9.26878C12.1393 9.29896 12.0303 9.3542 11.9358 9.43457C11.867 9.49576 11.8162 9.57467 11.7858 9.68798C11.7535 9.80851 11.7573 9.90297 11.7817 9.98387C11.8248 10.082 11.8921 10.1788 11.9927 10.2737C12.1007 10.3599 12.2362 10.429 12.4086 10.4752C12.5829 10.5219 12.7284 10.5274 12.8519 10.5061C12.9923 10.4733 13.0936 10.4208 13.1694 10.3576L13.1736 10.3542C13.2431 10.2976 13.2963 10.2208 13.3283 10.1013C13.3566 9.99542 13.3508 9.90633 13.3172 9.81818L13.3117 9.80365L13.3071 9.7888C13.2735 9.68094 13.2132 9.58348 13.1145 9.49258C13.022 9.40741 12.8977 9.33711 12.7259 9.29108C12.5564 9.24568 12.4069 9.24166 12.2707 9.26878ZM11.168 13.038C11.0055 13.0775 10.8745 13.1482 10.7651 13.2486L10.7572 13.2558C10.6657 13.3362 10.5937 13.4468 10.55 13.61C10.5136 13.7458 10.5177 13.8679 10.5575 13.9887C10.6037 14.1128 10.6826 14.2353 10.8075 14.3557C10.9356 14.4631 11.097 14.5477 11.3026 14.6027C11.5017 14.6561 11.6834 14.6626 11.8535 14.6306C12.0277 14.5979 12.1549 14.5363 12.2514 14.4567C12.3435 14.3744 12.4111 14.2676 12.4508 14.1194C12.4945 13.9561 12.4876 13.8243 12.4486 13.7089L12.4451 13.6988C12.4019 13.5615 12.3223 13.4341 12.1914 13.3142L12.1852 13.3085C12.0718 13.2012 11.9209 13.1152 11.7159 13.0603C11.513 13.0059 11.3329 13.0022 11.168 13.038Z" fill="#0D151F"/>
<path fill-rule="evenodd" clip-rule="evenodd" d="M2.00505 20.9843C2.00505 20.432 2.45276 19.9843 3.00505 19.9843L12.2604 19.9843V21.9843L3.00505 21.9843C2.45276 21.9843 2.00505 21.5366 2.00505 20.9843Z" fill="#0D151F"/>
</svg>
