<svg width="24" height="24" viewBox="0 0 24 24" fill="none" xmlns="http://www.w3.org/2000/svg">
<path d="M21.1126 16.8377C20.6747 16.4045 20.1135 16.1166 19.5056 16.0132C18.8976 15.9098 18.2724 15.9959 17.7153 16.2598L16.5663 15.1238C18.9205 12.5904 20.6965 9.57857 21.772 6.29539C21.9762 5.72818 22.0144 5.11479 21.8823 4.52675C21.7501 3.9387 21.4531 3.40023 21.0258 2.97411C20.5985 2.54799 20.0585 2.25178 19.4689 2.12001C18.8792 1.98825 18.2641 2.02637 17.6954 2.22991C14.4031 3.30255 11.3829 5.07364 8.84257 7.42136L7.7035 6.27546C7.94014 5.78032 8.03561 5.2298 7.97946 4.68416C7.92332 4.13852 7.71771 3.61881 7.38516 3.18192C7.05262 2.74503 6.60594 2.40781 6.09405 2.20717C5.58215 2.00653 5.02477 1.95022 4.48292 2.04439C3.94107 2.13856 3.43565 2.37958 3.02199 2.74108C2.60833 3.10257 2.30238 3.5706 2.13763 4.09392C1.97288 4.61723 1.95569 5.17566 2.08794 5.70807C2.22018 6.24048 2.49677 6.72635 2.88741 7.11247C3.44903 7.67323 4.21096 7.98863 5.00569 7.98933C5.44893 7.98522 5.88574 7.88312 6.28465 7.6904L7.43372 8.82634C5.07952 11.3597 3.30354 14.3716 2.22795 17.6548C2.04061 18.2212 2.01427 18.8283 2.15184 19.4087C2.28941 19.9891 2.58552 20.5202 3.00732 20.943C3.29295 21.2467 3.63597 21.4911 4.01666 21.6621C4.39734 21.8331 4.80817 21.9274 5.22551 21.9395C5.5916 21.936 5.95519 21.879 6.30463 21.7701C9.59687 20.6975 12.6171 18.9264 15.1574 16.5786L16.2965 17.7245C16.0599 18.2197 15.9644 18.7702 16.0205 19.3158C16.0767 19.8615 16.2823 20.3812 16.6148 20.8181C16.9474 21.255 17.3941 21.5922 17.906 21.7928C18.4178 21.9935 18.9752 22.0498 19.5171 21.9556C20.0589 21.8614 20.5643 21.6204 20.978 21.2589C21.3917 20.8974 21.6976 20.4294 21.8624 19.9061C22.0271 19.3828 22.0443 18.8243 21.9121 18.2919C21.7798 17.7595 21.5032 17.2737 21.1126 16.8875V16.8377ZM5.71511 5.69752C5.52829 5.88516 5.27437 5.99109 5.00922 5.99203C4.74408 5.99296 4.48941 5.88882 4.30126 5.7025C4.11311 5.51619 4.00689 5.26297 4.00595 4.99856C4.00501 4.73414 4.10944 4.48018 4.29627 4.29254C4.48309 4.10491 4.73701 3.99897 5.00216 3.99804C5.26731 3.99711 5.52197 4.10125 5.71012 4.28756C5.89827 4.47387 6.0045 4.72709 6.00543 4.99151C6.00637 5.25593 5.90194 5.50989 5.71511 5.69752ZM18.3049 4.13311C18.4565 4.0833 18.6148 4.05643 18.7745 4.0534C18.9284 4.05214 19.0809 4.08146 19.2233 4.13962C19.3657 4.19779 19.495 4.28365 19.6038 4.39219C19.7666 4.56081 19.8777 4.77242 19.9237 5.00198C19.9697 5.23154 19.9489 5.46945 19.8636 5.68756C19.3358 7.30557 18.6216 8.85709 17.7353 10.311L13.6686 6.25553C15.1266 5.37174 16.6824 4.65951 18.3049 4.13311ZM5.69513 19.8171C5.47723 19.904 5.23853 19.9253 5.00862 19.8783C4.7787 19.8313 4.56768 19.718 4.40172 19.5525C4.23576 19.387 4.12216 19.1765 4.07499 18.9472C4.02783 18.718 4.04918 18.4799 4.1364 18.2626C4.66425 16.6446 5.37844 15.0931 6.26467 13.6391L10.3314 17.6946C8.8734 18.5784 7.3176 19.2907 5.69513 19.8171ZM12 16.5487L7.41373 11.9751C7.859 11.3724 8.33595 10.7937 8.84257 10.2413L13.7486 15.1338C13.1912 15.6359 12.6075 16.1082 12 16.5487ZM15.1474 13.7189L10.2514 8.82634C10.8086 8.32083 11.3923 7.8452 12 7.40143L16.5963 11.9851C16.1478 12.588 15.6675 13.1667 15.1574 13.7189H15.1474ZM19.6937 19.6975C19.6012 19.7904 19.4913 19.8642 19.3702 19.9148C19.249 19.9653 19.1191 19.9915 18.9879 19.992C18.8566 19.9925 18.7265 19.9671 18.605 19.9175C18.4835 19.8678 18.3731 19.7947 18.2799 19.7025C18.1867 19.6102 18.1127 19.5006 18.062 19.3798C18.0114 19.259 17.985 19.1295 17.9846 18.9985C17.9841 18.8676 18.0095 18.7379 18.0593 18.6167C18.1091 18.4956 18.1824 18.3854 18.2749 18.2925C18.4621 18.1069 18.7154 18.0028 18.9793 18.0028C19.2433 18.0028 19.4965 18.1069 19.6837 18.2925C19.8607 18.4748 19.9613 18.7175 19.965 18.9711C19.9687 19.2248 19.8753 19.4703 19.7037 19.6576L19.6937 19.6975Z" fill="#0D151F"/>
</svg>
