<svg width="24" height="24" viewBox="0 0 24 24" fill="none" xmlns="http://www.w3.org/2000/svg">
<path fill-rule="evenodd" clip-rule="evenodd" d="M9.71994 1.28069C9.92404 1.08903 10.1962 1 10.4737 1H13.6316C13.9091 1 14.1812 1.08903 14.3853 1.28069C14.5894 1.47236 14.6842 1.72794 14.6842 1.98855V4.25518L15.8985 5.39553C16.6221 6.07511 17 6.89048 17 7.82098V20.4973C17 22.2044 15.2928 23.4507 13.465 22.8445L11.9474 22.3991L10.4201 22.8473L10.4179 22.848C8.72636 23.3368 7 22.2287 7 20.4973V7.82098C7 6.89048 7.37789 6.07511 8.10152 5.39553L8.10841 5.38906L9.42105 4.24438V1.98855C9.42105 1.72794 9.51585 1.47236 9.71994 1.28069ZM11.5263 2.9771V3.47137H12.5789V2.9771H11.5263ZM11.1029 5.44847L9.54942 6.81616L9.52632 6.83243C9.36516 6.94594 9.23108 7.169 9.16004 7.42556H14.8248C14.75 7.18272 14.6155 6.97423 14.4229 6.79181L12.8971 5.44847H11.1029ZM9.10526 9.40266V13.3798H14.8947V9.40266H9.10526ZM9.21053 15.3569V20.5962C9.21053 20.6964 9.27731 20.83 9.4334 20.9326C9.58742 21.0339 9.75769 21.0572 9.8862 21.0169L9.89412 21.0145L12.0393 20.3783L14.2393 20.922L14.288 20.9449C14.4095 21.002 14.5462 20.9905 14.6719 20.9079C14.8008 20.8232 14.8947 20.6747 14.8947 20.4973V15.3569H9.21053Z" fill="#0D151F"/>
</svg>
