<svg width="24" height="24" viewBox="0 0 24 24" fill="none" xmlns="http://www.w3.org/2000/svg">
<path fill-rule="evenodd" clip-rule="evenodd" d="M17.5599 4.132C17.2265 3.95422 16.8263 3.95422 16.4929 4.132C16.3266 4.22068 16.2381 4.29512 16.1913 4.35295C15.903 4.70949 15.8207 5.03037 15.8232 5.31788C15.826 5.62785 15.9297 5.96396 16.1152 6.31007C16.7753 7.54141 16.9765 9.32332 16.0883 10.6709C15.2775 11.9009 14.4361 13.379 14.1525 14.9517C13.8793 16.4661 14.1151 18.0983 15.5412 19.7516C15.6648 19.8949 15.8829 20.0013 16.1619 20.0013H17.8909C18.1699 20.0013 18.388 19.8949 18.5116 19.7516C19.9377 18.0983 20.1735 16.4661 19.9004 14.9517C19.6167 13.379 18.7753 11.9009 17.9646 10.6709C17.0763 9.32332 17.2776 7.54141 17.9376 6.31007C18.1231 5.96396 18.2269 5.62785 18.2296 5.31788C18.2322 5.03037 18.1498 4.70949 17.8615 4.35295C17.8148 4.29512 17.7262 4.22068 17.5599 4.132ZM15.5508 2.36879C16.473 1.87707 17.5798 1.87707 18.502 2.36879C18.794 2.5245 19.1382 2.75117 19.4179 3.09708C19.9949 3.81078 20.2369 4.58093 20.2302 5.33557C20.2237 6.06776 19.9847 6.72493 19.7013 7.25357C19.2762 8.04666 19.2661 9.01122 19.6355 9.57176C20.4754 10.8461 21.5102 12.6063 21.8693 14.5973C22.239 16.6466 21.8841 18.9035 20.0273 21.0563C19.467 21.7057 18.6595 22 17.8909 22H16.1619C15.3933 22 14.5858 21.7057 14.0256 21.0563C12.1687 18.9035 11.8139 16.6466 12.1835 14.5973C12.5426 12.6063 13.5774 10.8461 14.4173 9.57176C14.7868 9.01122 14.7766 8.04666 14.3515 7.25357C14.0681 6.72493 13.8291 6.06776 13.8226 5.33557C13.8159 4.58093 14.0579 3.81078 14.6349 3.09708C14.9146 2.75117 15.2588 2.5245 15.5508 2.36879Z" fill="#0D151F"/>
<path fill-rule="evenodd" clip-rule="evenodd" d="M19.3718 12.5076H14.355V10.5089H19.3718V12.5076Z" fill="#0D151F"/>
<path fill-rule="evenodd" clip-rule="evenodd" d="M9.77493 8.46448C6.5859 8.46448 4.00068 11.0471 4.00068 14.2329C4.00068 17.4188 6.5859 20.0014 9.77493 20.0014C11.1292 20.0014 12.3721 19.5369 13.3566 18.7579L14.5987 20.3247C13.2734 21.3733 11.5961 22 9.77493 22C5.48096 22 2 18.5226 2 14.2329C2 9.94327 5.48096 6.46582 9.77493 6.46582C12.4876 6.46582 14.8752 7.85451 16.2648 9.95443L14.5959 11.0566C13.5609 9.49265 11.7879 8.46448 9.77493 8.46448Z" fill="#0D151F"/>
<path d="M8.19753 12.5178C8.19753 11.7962 7.61214 11.2112 6.89003 11.2112C6.16791 11.2112 5.58252 11.7962 5.58252 12.5178C5.58252 13.2395 6.16791 13.8245 6.89003 13.8245C7.61214 13.8245 8.19753 13.2395 8.19753 12.5178Z" fill="#0D151F"/>
<path d="M11.1063 10.6895C11.1063 9.96783 10.521 9.38283 9.79884 9.38283C9.07672 9.38283 8.49133 9.96783 8.49133 10.6895C8.49133 11.4111 9.07672 11.9961 9.79884 11.9961C10.521 11.9961 11.1063 11.4111 11.1063 10.6895Z" fill="#0D151F"/>
<path d="M11.1063 13.8245C11.1063 13.1028 10.521 12.5178 9.79884 12.5178C9.07672 12.5178 8.49133 13.1028 8.49133 13.8245C8.49133 14.5461 9.07672 15.1311 9.79884 15.1311C10.521 15.1311 11.1063 14.5461 11.1063 13.8245Z" fill="#0D151F"/>
</svg>
