<svg width="24" height="24" viewBox="0 0 24 24" fill="none" xmlns="http://www.w3.org/2000/svg">
<path d="M2 2H4V8H10.5875V3H18C20.2 3 22 4.8 22 7V22H20V20H4V22H2V2ZM12.5875 5V8H20V7C20 5.9 19.1 5 18 5H12.5875ZM4 10V18H10.5875V13H18C18.7 13 19.4 13.2 20 13.6V10H4ZM12.5875 15V18H20V17C20 15.9 19.1 15 18 15H12.5875Z" fill="#0D151F"/>
<path d="M9.33894 4.82574C9.33894 6.02601 8.36593 6.99902 7.16566 6.99902C5.96539 6.99902 4.99238 6.02601 4.99238 4.82574C4.99238 3.62548 5.96539 2.65247 7.16566 2.65247C8.36593 2.65247 9.33894 3.62548 9.33894 4.82574Z" fill="#0D151F"/>
<path d="M9.33894 14.8257C9.33894 16.026 8.36593 16.999 7.16566 16.999C5.96539 16.999 4.99238 16.026 4.99238 14.8257C4.99238 13.6255 5.96539 12.6525 7.16566 12.6525C8.36593 12.6525 9.33894 13.6255 9.33894 14.8257Z" fill="#0D151F"/>
</svg>
