<svg width="24" height="24" viewBox="0 0 24 24" fill="none" xmlns="http://www.w3.org/2000/svg">
<path d="M4 22C3.45 22 2.979 21.7937 2.587 21.3811C2.195 20.9684 1.99934 20.473 2 19.8947V8.31579C2 7.73684 2.196 7.24105 2.588 6.82842C2.98 6.41579 3.45067 6.20983 4 6.21053H8V4.10526C8 3.52632 8.196 3.03053 8.588 2.6179C8.98 2.20526 9.45067 1.9993 10 2H14C14.55 2 15.021 2.20632 15.413 2.61895C15.805 3.03158 16.0007 3.52702 16 4.10526V6.21053H20C20.55 6.21053 21.021 6.41684 21.413 6.82947C21.805 7.24211 22.0007 7.73754 22 8.31579V19.8947C22 20.4737 21.804 20.9695 21.412 21.3821C21.02 21.7947 20.5493 22.0007 20 22H4ZM10 6.21053H14V4.10526H10V6.21053ZM20 15.6842H15V16.7368C15 17.0351 14.904 17.2853 14.712 17.4874C14.52 17.6895 14.2827 17.7902 14 17.7895H10C9.71667 17.7895 9.479 17.6884 9.287 17.4863C9.095 17.2842 8.99934 17.0344 9 16.7368V15.6842H4V19.8947H20V15.6842ZM11 15.6842H13V13.5789H11V15.6842ZM4 13.5789H9V12.5263C9 12.2281 9.096 11.9779 9.288 11.7758C9.48 11.5737 9.71734 11.473 10 11.4737H14C14.2833 11.4737 14.521 11.5747 14.713 11.7768C14.905 11.9789 15.0007 12.2288 15 12.5263V13.5789H20V8.31579H4V13.5789Z" fill="#0D151F"/>
</svg>
