<svg width="24" height="24" viewBox="0 0 24 24" fill="none" xmlns="http://www.w3.org/2000/svg">
<path d="M19 10H18.68L17.43 5.88001C17.2068 5.32527 16.8228 4.8499 16.3275 4.51492C15.8321 4.17993 15.248 4.00063 14.65 4.00001H8.65C7.95529 3.99802 7.28142 4.2372 6.74342 4.67673C6.20541 5.11625 5.83662 5.72886 5.7 6.41001L5.18 10H5C4.20435 10 3.44129 10.3161 2.87868 10.8787C2.31607 11.4413 2 12.2044 2 13V16C2 16.2652 2.10536 16.5196 2.29289 16.7071C2.48043 16.8947 2.73478 17 3 17H4C4 17.7957 4.31607 18.5587 4.87868 19.1213C5.44129 19.6839 6.20435 20 7 20C7.79565 20 8.55871 19.6839 9.12132 19.1213C9.68393 18.5587 10 17.7957 10 17H14C14 17.7957 14.3161 18.5587 14.8787 19.1213C15.4413 19.6839 16.2044 20 17 20C17.7956 20 18.5587 19.6839 19.1213 19.1213C19.6839 18.5587 20 17.7957 20 17H21C21.2652 17 21.5196 16.8947 21.7071 16.7071C21.8946 16.5196 22 16.2652 22 16V13C22 12.2044 21.6839 11.4413 21.1213 10.8787C20.5587 10.3161 19.7956 10 19 10ZM13 6.00001H14.65C14.8486 6.00181 15.0421 6.06269 15.206 6.17488C15.3698 6.28708 15.4965 6.44552 15.57 6.63001L16.52 10H13V6.00001ZM7.66 6.80001C7.70675 6.57074 7.83242 6.36512 8.01514 6.21894C8.19786 6.07277 8.42605 5.99529 8.66 6.00001H11V10H7.22L7.66 6.80001ZM7 18C6.80222 18 6.60888 17.9414 6.44443 17.8315C6.27998 17.7216 6.15181 17.5654 6.07612 17.3827C6.00043 17.2 5.98063 16.9989 6.01921 16.8049C6.0578 16.6109 6.15304 16.4328 6.29289 16.2929C6.43275 16.1531 6.61093 16.0578 6.80491 16.0192C6.99889 15.9806 7.19996 16.0004 7.38268 16.0761C7.56541 16.1518 7.72159 16.28 7.83147 16.4444C7.94135 16.6089 8 16.8022 8 17C8 17.2652 7.89464 17.5196 7.70711 17.7071C7.51957 17.8947 7.26522 18 7 18ZM17 18C16.8022 18 16.6089 17.9414 16.4444 17.8315C16.28 17.7216 16.1518 17.5654 16.0761 17.3827C16.0004 17.2 15.9806 16.9989 16.0192 16.8049C16.0578 16.6109 16.153 16.4328 16.2929 16.2929C16.4327 16.1531 16.6109 16.0578 16.8049 16.0192C16.9989 15.9806 17.2 16.0004 17.3827 16.0761C17.5654 16.1518 17.7216 16.28 17.8315 16.4444C17.9414 16.6089 18 16.8022 18 17C18 17.2652 17.8946 17.5196 17.7071 17.7071C17.5196 17.8947 17.2652 18 17 18ZM20 15H19.22C18.9388 14.6907 18.5961 14.4435 18.2138 14.2743C17.8315 14.1052 17.418 14.0178 17 14.0178C16.582 14.0178 16.1685 14.1052 15.7862 14.2743C15.4039 14.4435 15.0612 14.6907 14.78 15H9.22C8.93882 14.6907 8.59609 14.4435 8.21378 14.2743C7.83148 14.1052 7.41805 14.0178 7 14.0178C6.58195 14.0178 6.16852 14.1052 5.78622 14.2743C5.40391 14.4435 5.06118 14.6907 4.78 15H4V13C4 12.7348 4.10536 12.4804 4.29289 12.2929C4.48043 12.1054 4.73478 12 5 12H19C19.2652 12 19.5196 12.1054 19.7071 12.2929C19.8946 12.4804 20 12.7348 20 13V15Z" fill="#0D151F"/>
</svg>
