<svg width="24" height="24" viewBox="0 0 24 24" fill="none" xmlns="http://www.w3.org/2000/svg">
<path fill-rule="evenodd" clip-rule="evenodd" d="M4.33009 6.99115C5.88174 4.04792 8.7914 2.0061 12.1883 2.0061C15.8122 2.0061 18.8779 4.32716 20.3383 7.59131C22.2476 8.28909 23.4731 10.3653 23.4731 12.6024C23.4731 15.1023 21.9128 17.4568 19.5844 17.8101C17.9569 20.3216 15.2712 22.0061 12.1883 22.0061C9.1082 22.0061 6.42453 20.3247 4.79656 17.817C2.27565 17.4305 0.473145 15.0475 0.473145 12.3554C0.473145 9.82776 2.05339 7.58556 4.33009 6.99115ZM12.1883 4.0061C9.5249 4.0061 7.14836 5.68191 5.93585 8.25123C5.77733 8.58713 5.46347 8.81511 5.10671 8.87012C3.70076 9.08693 2.47314 10.4882 2.47314 12.3554C2.47314 14.3474 3.85943 15.7944 5.38118 15.8683C5.74676 15.8861 6.08786 16.0855 6.27917 16.4121C7.56737 18.6113 9.75581 20.0061 12.1883 20.0061C14.6247 20.0061 16.8164 18.6067 18.1037 16.4013C18.3008 16.0637 18.6556 15.8644 19.0289 15.855C20.2137 15.8255 21.4731 14.5642 21.4731 12.6024C21.4731 10.8738 20.4688 9.64895 19.4213 9.40063C19.0774 9.31908 18.7859 9.07501 18.6508 8.73517C17.5223 5.89654 15.0147 4.0061 12.1883 4.0061ZM7.72397 8.77874C8.18211 8.39395 8.73061 8.19792 9.32667 8.19792C9.79579 8.19792 10.2331 8.3369 10.6184 8.59312C10.8081 8.71716 10.9798 8.86358 11.1327 9.03041C11.5058 9.43761 11.4781 10.0702 11.0709 10.4433C10.6637 10.8164 10.0312 10.7888 9.65807 10.3816C9.61586 10.3355 9.57092 10.2976 9.52229 10.266L9.51199 10.2593L9.51203 10.2592C9.43992 10.211 9.38499 10.1979 9.32667 10.1979C9.1934 10.1979 9.10216 10.233 9.01008 10.3104L9.00854 10.3117C8.9022 10.4007 8.7788 10.5599 8.67379 10.8529C8.57321 11.1367 8.50981 11.5103 8.50981 11.9938V12.0019C8.50981 12.4874 8.57303 12.8638 8.6738 13.1508C8.77764 13.438 8.90058 13.5998 9.01073 13.6939C9.09629 13.7649 9.18751 13.8018 9.3298 13.8018C9.43698 13.8018 9.50993 13.7779 9.5729 13.7399L9.57635 13.7378L9.57636 13.7378C9.61681 13.7136 9.65302 13.6853 9.68647 13.6517C10.076 13.2602 10.7092 13.2586 11.1007 13.6482C11.4922 14.0377 11.4938 14.6709 11.1042 15.0624C10.9542 15.2132 10.7872 15.3438 10.6048 15.4532C10.2137 15.6888 9.78067 15.8018 9.3298 15.8018C8.7353 15.8018 8.18475 15.6107 7.72475 15.2256L7.72034 15.2219C7.28523 14.8534 6.9864 14.3681 6.79096 13.8253L6.78877 13.8192L6.78879 13.8192C6.59415 13.2675 6.50981 12.6551 6.50981 12.0019V11.9938C6.50981 11.3429 6.59425 10.7324 6.78947 10.1826L6.79027 10.1804C6.98527 9.63527 7.28466 9.14677 7.72397 8.77874ZM13.2222 8.79571C13.662 8.4021 14.1998 8.19792 14.789 8.19792C15.3788 8.19792 15.9184 8.40126 16.3586 8.79823C16.7726 9.17164 17.0483 9.66023 17.2265 10.196C17.4101 10.7422 17.49 11.3476 17.49 11.9938V12.0019C17.49 12.6481 17.4101 13.2535 17.2265 13.7997C17.0484 14.3352 16.7736 14.8228 16.3629 15.1976L16.3586 15.2015L16.3586 15.2015C15.9184 15.5984 15.3788 15.8018 14.789 15.8018C14.1998 15.8018 13.662 15.5976 13.2222 15.204L13.2151 15.1976L13.2151 15.1976C12.8039 14.8223 12.5289 14.334 12.3508 13.7977C12.1697 13.2523 12.0909 12.6477 12.0909 12.0019V11.9938C12.0909 11.348 12.1697 10.7434 12.3508 10.198C12.529 9.66143 12.8049 9.1721 13.2194 8.79823L13.2222 8.79571ZM14.5575 10.2847C14.4652 10.3685 14.3489 10.5273 14.2489 10.8283C14.1514 11.1221 14.0909 11.5046 14.0909 11.9938V12.0019C14.0909 12.4911 14.1514 12.8736 14.2489 13.1674C14.3483 13.4665 14.4645 13.6287 14.5596 13.7168C14.6292 13.7781 14.691 13.8018 14.789 13.8018C14.8909 13.8018 14.951 13.777 15.017 13.7181C15.1124 13.6303 15.2292 13.4679 15.3291 13.1674L15.3304 13.1634C15.4288 12.871 15.49 12.4899 15.49 12.0019V11.9938C15.49 11.5058 15.4288 11.1247 15.3304 10.8322L15.3291 10.8283L15.3291 10.8283C15.2286 10.5257 15.1116 10.3668 15.0191 10.2835C14.9523 10.2232 14.892 10.1979 14.789 10.1979C14.69 10.1979 14.628 10.222 14.5575 10.2847Z" fill="#0D151F"/>
</svg>
