<svg width="24" height="24" viewBox="0 0 24 24" fill="none" xmlns="http://www.w3.org/2000/svg">
<path d="M19.6092 4.78345C20.1615 4.78345 20.6092 5.23116 20.6092 5.78345V19.6185C20.6092 20.9351 19.5424 22.002 18.2257 22.002H7.15771C6.60543 22.002 6.15771 21.5542 6.15771 21.002C6.15771 20.4497 6.60543 20.002 7.15771 20.002H18.2257C18.4378 20.002 18.6092 19.8306 18.6092 19.6185V5.78345C18.6092 5.23116 19.0569 4.78345 19.6092 4.78345Z" fill="#0D151F"/>
<path fill-rule="evenodd" clip-rule="evenodd" d="M5.77413 2.01636C4.45746 2.01636 3.39062 3.08319 3.39062 4.39986V16.8514C3.39062 18.168 4.45746 19.2349 5.77413 19.2349H15.4586C16.7753 19.2349 17.8421 18.168 17.8421 16.8514V4.39986C17.8421 3.08319 16.7753 2.01636 15.4586 2.01636H5.77413ZM5.77413 4.01636C5.56203 4.01636 5.39062 4.18776 5.39062 4.39986V16.8514C5.39062 17.0635 5.56203 17.2349 5.77413 17.2349H15.4586C15.6707 17.2349 15.8421 17.0635 15.8421 16.8514V4.39986C15.8421 4.18776 15.6707 4.01636 15.4586 4.01636H5.77413Z" fill="#0D151F"/>
<path fill-rule="evenodd" clip-rule="evenodd" d="M12.3522 6.91807C11.6737 6.77047 11.081 6.955 10.616 7.24237C10.1437 6.95125 9.54084 6.76656 8.852 6.9247C7.91514 7.13969 7.17157 7.89334 6.93663 8.81613C6.70329 9.73249 6.95964 10.5993 7.47821 11.2165L9.56172 13.8764C10.1001 14.5628 11.1316 14.5638 11.6707 13.8791L13.864 11.0892L13.8745 11.0748C14.3117 10.4759 14.5039 9.69001 14.309 8.867C14.0844 7.91804 13.3231 7.1292 12.3522 6.91807ZM11.7234 8.91197C11.615 8.96509 11.4921 9.06325 11.3817 9.19434L10.6166 10.1032L9.8516 9.1943C9.7408 9.06267 9.61695 8.96446 9.5078 8.91181C9.4078 8.86357 9.34528 8.86347 9.29943 8.87401C9.1201 8.91512 8.93178 9.08571 8.8748 9.3096C8.81031 9.56278 8.87843 9.77683 9.01347 9.93467L9.02754 9.95112L10.6182 11.9819L12.2673 9.88424C12.367 9.74167 12.4168 9.55585 12.3629 9.32806C12.3066 9.09023 12.1088 8.91185 11.9276 8.87247C11.8847 8.86314 11.8231 8.8631 11.7234 8.91197Z" fill="#0D151F"/>
</svg>
