<svg width="24" height="24" viewBox="0 0 24 24" fill="none" xmlns="http://www.w3.org/2000/svg">
<path fill-rule="evenodd" clip-rule="evenodd" d="M10.6312 2.52534C11.3982 1.80059 12.5963 1.79641 13.3683 2.51579L17.5258 6.3898L18.8506 7.64172C19.252 8.02104 19.2699 8.65395 18.8906 9.05537C18.6126 9.34956 18.1984 9.43777 17.839 9.31458V12.8133L19.8951 13.8292C20.5773 14.1663 21.0092 14.8613 21.0092 15.6223V20.0002C21.0092 21.1047 20.1137 22.0002 19.0092 22.0002H4.99097C3.8864 22.0002 2.99097 21.1047 2.99097 20.0002V15.6223C2.99097 14.8613 3.42281 14.1663 4.10506 13.8292L6.16775 12.8101L6.20487 9.32232C5.85098 9.43383 5.44867 9.34316 5.17672 9.05537C4.79741 8.65395 4.81532 8.02104 5.21674 7.64172L10.6312 2.52534ZM8.22382 7.55187L8.16116 13.44V20.0002H11.0001V16.3566C11.0001 15.8043 11.4478 15.3566 12.0001 15.3566C12.5523 15.3566 13.0001 15.8043 13.0001 16.3566V20.0002H15.839V7.55169L12.0048 3.979L8.22382 7.55187ZM17.839 20.0002H19.0092V15.6223L17.839 15.0441V20.0002ZM6.16116 20.0002V15.0441L4.99097 15.6223V20.0002H6.16116ZM12 6.56951C12.5523 6.56951 13 7.01722 13 7.56951V7.90264H13.3535C13.9058 7.90264 14.3535 8.35035 14.3535 8.90264C14.3535 9.45492 13.9058 9.90264 13.3535 9.90264H13V11.4006C13 11.9529 12.5523 12.4006 12 12.4006C11.4477 12.4006 11 11.9529 11 11.4006V9.90264H10.6466C10.0944 9.90264 9.64664 9.45492 9.64664 8.90264C9.64664 8.35035 10.0944 7.90264 10.6466 7.90264H11V7.56951C11 7.01722 11.4477 6.56951 12 6.56951Z" fill="#0D151F"/>
</svg>
