<svg width="24" height="24" viewBox="0 0 24 24" fill="none" xmlns="http://www.w3.org/2000/svg">
<path d="M11.3758 2C11.6306 2.00028 11.8757 2.09788 12.0609 2.27285C12.2462 2.44782 12.3577 2.68695 12.3726 2.94139C12.3876 3.19584 12.3048 3.44638 12.1413 3.64183C11.9777 3.83729 11.7458 3.9629 11.4928 3.993L11.3758 4H4.878V20H16.8739V12.5C16.8742 12.2451 16.9718 12 17.1467 11.8146C17.3216 11.6293 17.5606 11.5178 17.815 11.5028C18.0694 11.4879 18.3198 11.5707 18.5152 11.7343C18.7106 11.8979 18.8362 12.1299 18.8662 12.383L18.8732 12.5V20H19.8729C20.1277 20.0003 20.3728 20.0979 20.558 20.2728C20.7433 20.4478 20.8548 20.687 20.8697 20.9414C20.8847 21.1958 20.8019 21.4464 20.6384 21.6418C20.4748 21.8373 20.2429 21.9629 19.9899 21.993L19.8729 22H2.87868C2.62389 21.9997 2.37882 21.9021 2.19354 21.7272C2.00827 21.5522 1.89678 21.313 1.88185 21.0586C1.86691 20.8042 1.94967 20.5536 2.1132 20.3582C2.27674 20.1627 2.50871 20.0371 2.76172 20.007L2.87868 20V4C2.87852 3.49542 3.06902 3.00943 3.412 2.63945C3.75497 2.26947 4.22507 2.04284 4.72805 2.005L4.878 2H11.3758ZM12.3755 12C12.5724 12 12.7674 12.0388 12.9493 12.1142C13.1312 12.1896 13.2965 12.3001 13.4358 12.4393C13.575 12.5786 13.6854 12.744 13.7608 12.926C13.8362 13.108 13.8749 13.303 13.8749 13.5C13.8749 13.697 13.8362 13.892 13.7608 14.074C13.6854 14.256 13.575 14.4214 13.4358 14.5607C13.2965 14.6999 13.1312 14.8104 12.9493 14.8858C12.7674 14.9612 12.5724 15 12.3755 15C11.9778 15 11.5964 14.842 11.3152 14.5607C11.0339 14.2794 10.876 13.8978 10.876 13.5C10.876 13.1022 11.0339 12.7206 11.3152 12.4393C11.5964 12.158 11.9778 12 12.3755 12ZM14.6677 4.172C14.8476 3.99265 15.089 3.88853 15.3428 3.88077C15.5967 3.87302 15.844 3.96222 16.0345 4.13025C16.225 4.29828 16.3444 4.53255 16.3685 4.78547C16.3926 5.0384 16.3195 5.29101 16.1642 5.492L16.0812 5.586L15.6683 5.998H20.8726C21.1289 5.99597 21.3762 6.09254 21.5634 6.26774C21.7506 6.44294 21.8634 6.68339 21.8784 6.93939C21.8934 7.1954 21.8096 7.44738 21.6441 7.64328C21.4787 7.83919 21.2443 7.96402 20.9895 7.992L20.8726 7.998H15.6663L16.0822 8.415C16.2611 8.59512 16.3649 8.83661 16.3724 9.09045C16.3799 9.34429 16.2905 9.59147 16.1225 9.78183C15.9544 9.97218 15.7203 10.0915 15.4676 10.1154C15.2149 10.1394 14.9625 10.0663 14.7616 9.911L14.6667 9.828L12.5474 7.705C12.3754 7.53268 12.2722 7.30351 12.2571 7.06049C12.242 6.81747 12.3161 6.57729 12.4654 6.385L12.5484 6.291L14.6677 4.172Z" fill="#0D151F"/>
</svg>
