<svg width="24" height="24" viewBox="0 0 24 24" fill="none" xmlns="http://www.w3.org/2000/svg">
<path d="M11.1141 2C11.3689 2.00028 11.6139 2.09788 11.7992 2.27285C11.9845 2.44782 12.096 2.68695 12.1109 2.94139C12.1258 3.19584 12.0431 3.44638 11.8795 3.64183C11.716 3.83729 11.484 3.9629 11.231 3.993L11.1141 4H4.61628V20H16.6122V12.5C16.6125 12.2451 16.71 12 16.885 11.8146C17.0599 11.6293 17.2989 11.5178 17.5533 11.5028C17.8076 11.4879 18.0581 11.5707 18.2535 11.7343C18.4489 11.8979 18.5744 12.1299 18.6045 12.383L18.6115 12.5V20H19.6112C19.866 20.0003 20.111 20.0979 20.2963 20.2728C20.4816 20.4478 20.5931 20.687 20.608 20.9414C20.6229 21.1958 20.5402 21.4464 20.3767 21.6418C20.2131 21.8373 19.9812 21.9629 19.7281 21.993L19.6112 22H2.61696C2.36217 21.9997 2.1171 21.9021 1.93183 21.7272C1.74655 21.5522 1.63506 21.313 1.62013 21.0586C1.6052 20.8042 1.68795 20.5536 1.85149 20.3582C2.01502 20.1627 2.24699 20.0371 2.5 20.007L2.61696 20V4C2.6168 3.49542 2.8073 3.00943 3.15028 2.63945C3.49325 2.26947 3.96335 2.04284 4.46633 2.005L4.61628 2H11.1141ZM12.1137 12C12.3106 12 12.5056 12.0388 12.6876 12.1142C12.8695 12.1896 13.0348 12.3001 13.174 12.4393C13.3133 12.5786 13.4237 12.744 13.4991 12.926C13.5744 13.108 13.6132 13.303 13.6132 13.5C13.6132 13.697 13.5744 13.892 13.4991 14.074C13.4237 14.256 13.3133 14.4214 13.174 14.5607C13.0348 14.6999 12.8695 14.8104 12.6876 14.8858C12.5056 14.9612 12.3106 15 12.1137 15C11.716 15 11.3346 14.842 11.0534 14.5607C10.7722 14.2794 10.6142 13.8978 10.6142 13.5C10.6142 13.1022 10.7722 12.7206 11.0534 12.4393C11.3346 12.158 11.716 12 12.1137 12ZM19.2059 4.172C19.026 3.99265 18.7846 3.88853 18.5308 3.88077C18.2769 3.87302 18.0296 3.96222 17.8391 4.13025C17.6486 4.29828 17.5292 4.53255 17.5051 4.78547C17.481 5.0384 17.5541 5.29101 17.7094 5.492L17.7924 5.586L18.2053 5.998H13.001C12.7447 5.99597 12.4974 6.09254 12.3102 6.26774C12.123 6.44294 12.0102 6.68339 11.9952 6.93939C11.9802 7.1954 12.0641 7.44738 12.2295 7.64328C12.3949 7.83919 12.6293 7.96402 12.8841 7.992L13.001 7.998H18.2073L17.7914 8.415C17.6125 8.59512 17.5087 8.83661 17.5012 9.09045C17.4937 9.34429 17.5831 9.59147 17.7511 9.78183C17.9192 9.97218 18.1533 10.0915 18.406 10.1154C18.6587 10.1394 18.9111 10.0663 19.112 9.911L19.2069 9.828L21.3262 7.705C21.4982 7.53268 21.6014 7.30351 21.6165 7.06049C21.6316 6.81747 21.5575 6.57729 21.4082 6.385L21.3252 6.291L19.2059 4.172Z" fill="#0D151F"/>
</svg>
