<svg width="24" height="24" viewBox="0 0 24 24" fill="none" xmlns="http://www.w3.org/2000/svg">
<path fill-rule="evenodd" clip-rule="evenodd" d="M11.9516 5.35034C11.4777 5.35034 11.0935 5.7345 11.0935 6.20837C11.0935 6.68225 11.4777 7.06641 11.9516 7.06641C12.4255 7.06641 12.8096 6.68225 12.8096 6.20837C12.8096 5.7345 12.4255 5.35034 11.9516 5.35034ZM9.09355 6.20837C9.09355 4.62993 10.3731 3.35034 11.9516 3.35034C13.53 3.35034 14.8096 4.62993 14.8096 6.20837C14.8096 7.78682 13.53 9.06641 11.9516 9.06641C10.3731 9.06641 9.09355 7.78682 9.09355 6.20837ZM5.15872 7.42213C5.5413 7.02382 6.17434 7.01107 6.57264 7.39365L9.21197 9.92876L10.8931 9.65949C11.6265 9.54203 12.3738 9.54202 13.1072 9.65948L14.7883 9.92873L17.4276 7.39365C17.8259 7.01107 18.459 7.02382 18.8416 7.42213C19.2241 7.82044 19.2114 8.45347 18.8131 8.83606L15.8182 11.7127L15.8182 11.7127C15.5897 11.9321 15.2716 12.0316 14.9589 11.9815L14.9588 11.9815L12.7909 11.6343C12.2671 11.5504 11.7332 11.5504 11.2094 11.6343L9.04147 11.9816L9.04144 11.9816C8.72877 12.0316 8.41061 11.9322 8.1821 11.7127L8.18208 11.7127L5.1872 8.83606C4.78889 8.45347 4.77614 7.82044 5.15872 7.42213ZM2.14629 13.0072C2.42448 12.5301 3.03677 12.3688 3.51387 12.647L6.10242 14.1563C6.41369 14.3378 6.79854 14.3378 7.10982 14.1563L8.69096 13.2344C9.62479 12.6899 10.7793 12.6899 11.7132 13.2344L13.2943 14.1563C13.6056 14.3378 13.9904 14.3378 14.3017 14.1563L15.8829 13.2344C16.8167 12.6899 17.9712 12.6899 18.9051 13.2344L21.4936 14.7437C21.9707 15.0219 22.132 15.6342 21.8538 16.1113C21.5756 16.5884 20.9633 16.7496 20.4862 16.4715L17.8977 14.9622C17.5864 14.7807 17.2015 14.7807 16.8903 14.9622L15.3091 15.8841C14.3753 16.4286 13.2207 16.4286 12.2869 15.8841L10.7058 14.9622C10.3945 14.7807 10.0096 14.7807 9.69837 14.9622L8.11722 15.8841C7.18339 16.4286 6.02885 16.4286 5.09502 15.8841L2.50647 14.3748C2.02937 14.0966 1.86811 13.4843 2.14629 13.0072ZM2.14629 17.0072C2.42448 16.5301 3.03677 16.3688 3.51387 16.647L6.10242 18.1563C6.41369 18.3378 6.79854 18.3378 7.10982 18.1563L8.69096 17.2344C9.62479 16.6899 10.7793 16.6899 11.7132 17.2344L13.2943 18.1563C13.6056 18.3378 13.9904 18.3378 14.3017 18.1563L15.8829 17.2344C16.8167 16.6899 17.9712 16.6899 18.9051 17.2344L21.4936 18.7437C21.9707 19.0219 22.132 19.6342 21.8538 20.1113C21.5756 20.5884 20.9633 20.7496 20.4862 20.4715L17.8977 18.9622C17.5864 18.7807 17.2015 18.7807 16.8903 18.9622L15.3091 19.8841C14.3753 20.4286 13.2207 20.4286 12.2869 19.8841L10.7058 18.9622C10.3945 18.7807 10.0096 18.7807 9.69837 18.9622L8.11722 19.8841C7.18339 20.4286 6.02885 20.4286 5.09502 19.8841L2.50647 18.3748C2.02937 18.0966 1.86811 17.4843 2.14629 17.0072Z" fill="#0D151F"/>
</svg>
