<svg width="24" height="24" viewBox="0 0 24 24" fill="none" xmlns="http://www.w3.org/2000/svg">
<path fill-rule="evenodd" clip-rule="evenodd" d="M4.21258 1.92871C3.65672 1.92871 3.2061 2.37933 3.2061 2.93519C3.2061 3.49106 3.65672 3.94167 4.21258 3.94167H4.63739V4.79128H3.73549C3.17962 4.79128 2.729 5.2419 2.729 5.79777C2.729 6.35363 3.17962 6.80425 3.73549 6.80425H4.63739V21.0648C4.63739 21.6207 5.088 22.0713 5.64387 22.0713C6.19973 22.0713 6.65035 21.6207 6.65035 21.0648V20.1629H17.9961V21.0648C17.9961 21.6207 18.4467 22.0713 19.0025 22.0713C19.5584 22.0713 20.009 21.6207 20.009 21.0648V6.80425H20.9109C21.4668 6.80425 21.9174 6.35363 21.9174 5.79777C21.9174 5.2419 21.4668 4.79128 20.9109 4.79128H20.009V3.94167H20.4338C20.9897 3.94167 21.4403 3.49106 21.4403 2.93519C21.4403 2.37933 20.9897 1.92871 20.4338 1.92871H17.5713C17.0154 1.92871 16.5648 2.37933 16.5648 2.93519C16.5648 3.49106 17.0154 3.94167 17.5713 3.94167H17.9961V4.79128H6.65035V3.94167H7.07515C7.63102 3.94167 8.08164 3.49106 8.08164 2.93519C8.08164 2.37933 7.63102 1.92871 7.07515 1.92871H4.21258ZM6.65035 15.2874V6.80425H7.97706V13.4313C7.97706 13.9872 8.42767 14.4378 8.98354 14.4378C9.5394 14.4378 9.99002 13.9872 9.99002 13.4313V6.80425H11.3167V13.4313C11.3167 13.9872 11.7673 14.4378 12.3232 14.4378C12.8791 14.4378 13.3297 13.9872 13.3297 13.4313V6.80425H14.6564V13.4313C14.6564 13.9872 15.107 14.4378 15.6629 14.4378C16.2187 14.4378 16.6694 13.9872 16.6694 13.4313V6.80425H17.9961V15.2874H6.65035ZM6.65035 18.15V17.3004H17.9961V18.15H6.65035Z" fill="#0D151F"/>
</svg>
