<svg width="24" height="24" viewBox="0 0 24 24" fill="none" xmlns="http://www.w3.org/2000/svg">
<path fill-rule="evenodd" clip-rule="evenodd" d="M20 4H4V20H20V4ZM4 2C2.89543 2 2 2.89543 2 4V20C2 21.1046 2.89543 22 4 22H20C21.1046 22 22 21.1046 22 20V4C22 2.89543 21.1046 2 20 2H4Z" fill="#0D151F"/>
<path d="M15.0093 6.23442C15.4094 6.22581 15.8049 6.32128 16.1569 6.51147C16.509 6.70166 16.8057 6.98005 17.0178 7.31937C17.2299 7.65869 17.3503 8.0473 17.367 8.44711C17.3838 8.84693 17.2964 9.24425 17.1134 9.60013C16.9998 9.82105 16.8518 10.0213 16.6758 10.1938L18.8526 11.5446C19.3805 11.8877 19.5657 12.5971 19.2139 13.1445C18.995 13.5096 18.6141 13.6962 18.229 13.6962C18.0201 13.6962 17.803 13.644 17.609 13.52L16.7689 12.999L17.6977 16.2743C17.873 16.8946 17.5093 17.54 16.8906 17.7149L16.8818 17.7174C16.7788 17.7431 16.6743 17.7562 16.569 17.7562C16.0553 17.7562 15.598 17.4177 15.4509 16.9096L15.4504 16.908L15.0391 15.4564L14.6277 16.908L14.6272 16.9096C14.4801 17.4177 14.0228 17.7562 13.509 17.7562C13.4038 17.7562 13.2993 17.743 13.1963 17.7172L13.1872 17.715C12.8896 17.6306 12.6376 17.4316 12.4863 17.1619C12.3351 16.8921 12.2969 16.5733 12.3801 16.2754L12.3804 16.2743L13.3375 12.9L11.9984 13.6805C11.8107 13.7904 11.3946 13.9214 10.909 13.7333L10.2974 13.4886L11.2443 16.2232C11.4421 16.8298 11.1306 17.4873 10.5269 17.6964C10.3859 17.7557 10.2435 17.7662 10.139 17.7662C9.65483 17.7662 9.19737 17.4583 9.0348 16.9721L9.03444 16.971L8.60905 15.7248L8.18126 16.9781C8.00955 17.4536 7.56899 17.7662 7.07905 17.7662H7.07493C6.89032 17.7636 6.7089 17.7176 6.54536 17.632C6.38182 17.5463 6.24074 17.4233 6.13355 17.273C6.02637 17.1227 5.95608 16.9492 5.92838 16.7667C5.90068 16.5842 5.91635 16.3977 5.97411 16.2223L5.97512 16.2192L6.69481 14.1111L6.38341 14.3034C6.18735 14.4211 5.98408 14.4762 5.76905 14.4762C5.38937 14.4762 5.00207 14.2761 4.78534 13.9263C4.70181 13.7964 4.64579 13.6507 4.62076 13.4983C4.59555 13.3447 4.60233 13.1876 4.64067 13.0368C4.67902 12.8859 4.7481 12.7447 4.8436 12.6218C4.93714 12.5014 5.05403 12.4013 5.18723 12.3273L7.00307 11.1945C6.76452 10.9609 6.57812 10.677 6.45872 10.3614C6.28568 9.90391 6.26229 9.40335 6.39192 8.93176C6.52156 8.46018 6.79753 8.0419 7.18008 7.73719C7.56264 7.43247 8.03204 7.25704 8.52067 7.23616C9.00931 7.21527 9.49196 7.35002 9.89912 7.62099C10.3063 7.89196 10.6169 8.28516 10.7863 8.74397C10.9557 9.20278 10.9751 9.70351 10.8417 10.1741C10.7537 10.4847 10.602 10.7717 10.3983 11.0176L11.3435 11.3932L13.4179 10.1744C13.0027 9.75779 12.749 9.18379 12.749 8.54618C12.7487 8.14613 12.8522 7.75283 13.0494 7.40479C13.2468 7.05666 13.5311 6.76576 13.8747 6.56059C14.2183 6.35543 14.6093 6.24303 15.0093 6.23442Z" fill="#0D151F"/>
</svg>
