<svg width="24" height="24" viewBox="0 0 24 24" fill="none" xmlns="http://www.w3.org/2000/svg">
<path fill-rule="evenodd" clip-rule="evenodd" d="M6.27711 4.00024C5.66859 5.75302 5.26662 6.94797 5.00549 8.13899C4.72621 9.41277 4.60376 10.7069 4.60376 12.682C4.60376 16.6851 7.89341 19.9629 11.9999 19.9957C16.1065 19.9629 19.3961 16.6851 19.3961 12.682C19.3961 10.7069 19.2737 9.41277 18.9944 8.13899C18.7333 6.94797 18.3313 5.75302 17.7228 4.00024L16.029 4.00024L15.9566 7.31735C15.9529 8.43762 15.4232 9.41966 14.6961 10.1059C13.9703 10.7909 12.9786 11.2483 11.9406 11.2483C10.9026 11.2483 9.91081 10.7909 9.18507 10.1059C8.45798 9.41966 7.92828 8.43762 7.92459 7.31735L7.85217 4.00024H6.27711ZM4.55388 2.86636C4.73426 2.34782 5.22311 2.00024 5.77218 2.00024H7.85217C8.93973 2.00024 9.82796 2.86929 9.8517 3.95659L9.92433 7.28373L9.92457 7.30555C9.92457 7.78499 10.1536 8.26985 10.5578 8.65143C10.966 9.03669 11.4823 9.24833 11.9406 9.24833C12.3989 9.24833 12.9151 9.03669 13.3233 8.65143C13.7276 8.26985 13.9566 7.78499 13.9566 7.30555L13.9568 7.28373L14.0295 3.95659C14.0532 2.86929 14.9414 2.00024 16.029 2.00024H18.2277C18.7768 2.00024 19.2656 2.34783 19.446 2.86635L19.463 2.91527C20.1448 4.87526 20.6357 6.28621 20.948 7.71066C21.2678 9.16913 21.3961 10.6163 21.3961 12.682C21.3961 17.8192 17.1828 21.9591 12.007 21.9957H11.9929C6.81707 21.9591 2.60376 17.8192 2.60376 12.682C2.60376 10.6163 2.73212 9.16913 3.05189 7.71066C3.3642 6.28621 3.85503 4.87526 4.53686 2.91527L4.55388 2.86636Z" fill="#0D151F"/>
<path d="M12.212 14.0121C12.1399 14.0502 12.0689 14.0918 12 14.1354C11.931 14.0918 11.86 14.0502 11.7879 14.0121C11.6209 13.9238 11.3816 13.818 11.1077 13.7824C10.8242 13.7456 10.3718 13.7741 10.0077 14.1382C9.44668 14.6992 9.3547 15.5764 9.78714 16.2416L9.81246 16.2805C10.056 16.6552 10.4154 16.9225 10.6912 17.0979C10.9843 17.2845 11.2896 17.4325 11.512 17.5352C11.8191 17.677 12.1735 17.6778 12.4815 17.5381L12.4826 17.5377L12.4879 17.5352C12.7103 17.4325 13.0156 17.2845 13.3087 17.0979C13.5845 16.9225 13.9439 16.6552 14.1875 16.2805L14.2128 16.2416C14.6452 15.5763 14.5532 14.6992 13.9922 14.1382C13.6281 13.7741 13.1757 13.7456 12.8922 13.7824C12.6183 13.818 12.379 13.9238 12.212 14.0121Z" fill="#0D151F"/>
</svg>
