<svg width="24" height="24" viewBox="0 0 24 24" fill="none" xmlns="http://www.w3.org/2000/svg">
<path fill-rule="evenodd" clip-rule="evenodd" d="M13.6986 3.66248C13.9695 4.14375 13.799 4.75352 13.3177 5.02443C12.964 5.22355 12.5144 5.48253 12.0504 5.75874C11.4279 6.12932 10.7959 6.52125 10.336 6.83778C10.3208 6.84825 10.3059 6.85855 10.2913 6.86869C10.5174 7.18818 10.8517 7.64115 11.3364 8.26997C11.5736 8.57772 11.8164 8.89175 12.057 9.20239L12.3746 9.61203C12.8751 10.2569 13.3508 10.8672 13.7298 11.352C14.2608 12.0312 13.7551 12.984 12.934 12.984H6.30265C5.15462 12.984 4.89656 11.3735 5.98689 11.0146L9.92732 9.71778C9.86875 9.64191 9.8104 9.56625 9.75236 9.49096C9.18188 8.75086 8.80113 8.2309 8.55164 7.87127C8.32293 7.54158 8.15942 7.28397 8.0815 7.10058C7.94422 6.77747 8.00696 6.48799 8.05799 6.3401C8.10975 6.19008 8.1844 6.0785 8.23084 6.01539C8.32578 5.88638 8.4397 5.77851 8.52538 5.70278C8.70767 5.54166 8.9496 5.36404 9.20207 5.19028C9.71665 4.83612 10.3933 4.41767 11.0274 4.04021C11.506 3.75527 11.9696 3.48819 12.3366 3.28159C12.8179 3.01067 13.4277 3.1812 13.6986 3.66248ZM16.2743 7.33783C15.8005 7.33783 15.4163 7.72199 15.4163 8.19586C15.4163 8.66974 15.8005 9.0539 16.2743 9.0539C16.7482 9.0539 17.1324 8.66974 17.1324 8.19586C17.1324 7.72199 16.7482 7.33783 16.2743 7.33783ZM13.4163 8.19586C13.4163 6.61742 14.6959 5.33783 16.2743 5.33783C17.8528 5.33783 19.1324 6.61742 19.1324 8.19586C19.1324 9.77431 17.8528 11.0539 16.2743 11.0539C14.6959 11.0539 13.4163 9.77431 13.4163 8.19586ZM2.13909 14.2819C2.41728 13.8048 3.02956 13.6435 3.50667 13.9217L6.09522 15.431C6.40649 15.6125 6.79134 15.6125 7.10262 15.431L8.68376 14.5091C9.61759 13.9646 10.7721 13.9646 11.706 14.5091L13.2871 15.431C13.5984 15.6125 13.9832 15.6125 14.2945 15.431L15.8757 14.5091C16.8095 13.9646 17.964 13.9646 18.8979 14.5091L21.4864 16.0184C21.9635 16.2966 22.1248 16.9089 21.8466 17.386C21.5684 17.8631 20.9561 18.0243 20.479 17.7462L17.8905 16.2369C17.5792 16.0554 17.1943 16.0554 16.8831 16.2369L15.3019 17.1588C14.3681 17.7033 13.2135 17.7033 12.2797 17.1588L10.6986 16.2369C10.3873 16.0554 10.0024 16.0554 9.69116 16.2369L8.11002 17.1588C7.17619 17.7033 6.02165 17.7033 5.08782 17.1588L2.49927 15.6495C2.02216 15.3713 1.86091 14.759 2.13909 14.2819ZM2.13909 18.3325C2.41728 17.8554 3.02957 17.6942 3.50667 17.9724L6.09522 19.4817C6.40649 19.6632 6.79134 19.6632 7.10262 19.4817L8.68376 18.5598C9.61759 18.0153 10.7721 18.0153 11.706 18.5598L13.2871 19.4817C13.5984 19.6632 13.9832 19.6632 14.2945 19.4817L15.8757 18.5598C16.8095 18.0153 17.964 18.0153 18.8979 18.5598L21.4864 20.0691C21.9635 20.3472 22.1248 20.9595 21.8466 21.4366C21.5684 21.9137 20.9561 22.075 20.479 21.7968L17.8905 20.2875C17.5792 20.106 17.1943 20.106 16.8831 20.2875L15.3019 21.2094C14.3681 21.7539 13.2135 21.7539 12.2797 21.2094L10.6986 20.2875C10.3873 20.106 10.0024 20.106 9.69116 20.2875L8.11002 21.2094C7.17619 21.7539 6.02165 21.7539 5.08782 21.2094L2.49927 19.7001C2.02216 19.4219 1.86091 18.8097 2.13909 18.3325Z" fill="#0D151F"/>
</svg>
