<svg width="24" height="24" viewBox="0 0 24 24" fill="none" xmlns="http://www.w3.org/2000/svg">
<path fill-rule="evenodd" clip-rule="evenodd" d="M2.46033 16.8643C2.80286 16.438 3.41771 16.377 3.83364 16.7281C6.47575 18.9584 9.02792 20.0003 11.5061 20.0003C13.9843 20.0003 16.5365 18.9584 19.1786 16.7281C19.5945 16.377 20.2093 16.438 20.5519 16.8643C20.8944 17.2906 20.8349 17.9209 20.419 18.272C17.5323 20.7087 14.5562 22.0003 11.5061 22.0003C8.456 22.0003 5.47988 20.7087 2.59322 18.272C2.1773 17.9209 2.1178 17.2906 2.46033 16.8643Z" fill="#0D151F"/>
<path fill-rule="evenodd" clip-rule="evenodd" d="M18.2933 2.00093C18.6624 1.98461 19.0088 2.18336 19.1882 2.51436L21.6272 7.01436C21.8387 7.40466 21.7722 7.8914 21.4642 8.20711L20.0008 9.70711C19.7039 10.0115 19.2502 10.0869 18.8746 9.89443L17.796 9.34165L17.4147 10.1234L19.285 18.271C19.4084 18.8086 19.0833 19.3469 18.5588 19.4734C18.0343 19.5999 17.5091 19.2666 17.3857 18.729L15.4345 10.229C15.3822 10.0013 15.4095 9.76203 15.5115 9.55279L16.4871 7.55279C16.7281 7.05881 17.3141 6.85859 17.796 7.10558L19.1183 7.78324L19.5641 7.32627L17.7837 4.04126C15.9053 4.22855 14.8593 4.8788 14.1706 5.67163C13.3659 6.59796 12.9474 7.81585 12.4461 9.27443L12.4263 9.33227C12.2888 9.73237 11.9199 10 11.5061 10H7.41965L5.63151 18.706C5.52051 19.2465 5.0031 19.5923 4.47584 19.4786C3.94858 19.3648 3.61114 18.8344 3.72214 18.294L5.4228 10.0139C4.98988 10.0665 4.5841 10.2666 4.27272 10.5858C3.90679 10.9609 3.70122 11.4696 3.70122 12C3.70122 12.5523 3.26442 13 2.72561 13C2.18679 13 1.75 12.5523 1.75 12C1.75 10.9391 2.16115 9.92172 2.893 9.17158C3.62485 8.42143 4.61744 8 5.65243 8H6.60744C6.62048 7.99973 6.63357 7.99973 6.64668 8H10.8156C11.2422 6.77564 11.7682 5.42959 12.7133 4.34163C13.8913 2.98561 15.6222 2.11908 18.2933 2.00093Z" fill="#0D151F"/>
<path fill-rule="evenodd" clip-rule="evenodd" d="M8.64906 14.6286C8.79722 14.249 9.15596 14 9.55489 14H13.4573C13.8563 14 14.215 14.249 14.3632 14.6286L16.3144 19.6286C16.5145 20.1414 16.2712 20.7234 15.7709 20.9285C15.2706 21.1336 14.7028 20.8842 14.5027 20.3714L12.7968 16H10.2154L8.50951 20.3714C8.3094 20.8842 7.74162 21.1336 7.24134 20.9285C6.74107 20.7234 6.49774 20.1414 6.69785 19.6286L8.64906 14.6286Z" fill="#0D151F"/>
</svg>
