<svg width="24" height="24" viewBox="0 0 24 24" fill="none" xmlns="http://www.w3.org/2000/svg">
<path fill-rule="evenodd" clip-rule="evenodd" d="M1.83337 4.8335C1.83337 3.17665 3.17652 1.8335 4.83337 1.8335H19.1667C20.8236 1.8335 22.1667 3.17664 22.1667 4.8335V19.1668C22.1667 20.8237 20.8236 22.1668 19.1667 22.1668H4.83338C3.17652 22.1668 1.83337 20.8237 1.83337 19.1668V4.8335ZM4.83337 3.8335C4.28109 3.8335 3.83337 4.28121 3.83337 4.8335V19.1668C3.83337 19.7191 4.28109 20.1668 4.83338 20.1668H19.1667C19.719 20.1668 20.1667 19.7191 20.1667 19.1668V4.8335C20.1667 4.28121 19.719 3.8335 19.1667 3.8335H4.83337ZM12 6.50021C12.5523 6.50021 13 6.94792 13 7.50021V8.04658H16.9021C17.4544 8.04658 17.9021 8.4943 17.9021 9.04658C17.9021 9.59887 17.4544 10.0466 16.9021 10.0466H15.5131L15.0477 10.9435C14.5863 11.8326 14.0315 12.6613 13.3968 13.4177C14.4543 14.3397 15.6795 15.0698 17.0193 15.5614C17.5378 15.7516 17.8039 16.3261 17.6137 16.8446C17.4235 17.3631 16.849 17.6292 16.3305 17.439C14.7243 16.8498 13.2587 15.9682 12 14.8527C10.7413 15.9682 9.27569 16.8498 7.66955 17.439C7.15106 17.6292 6.57654 17.3631 6.38631 16.8446C6.19609 16.3261 6.4622 15.7516 6.9807 15.5614C8.32053 15.0698 9.5457 14.3397 10.6032 13.4177C9.96851 12.6613 9.41377 11.8326 8.95237 10.9435L8.48694 10.0466H7.09795C6.54566 10.0466 6.09795 9.59887 6.09795 9.04658C6.09795 8.4943 6.54566 8.04658 7.09795 8.04658H11V7.50021C11 6.94792 11.4477 6.50021 12 6.50021ZM10.7402 10.0466C11.0979 10.7318 11.5206 11.3747 12 11.9678C12.4794 11.3747 12.9021 10.7318 13.2598 10.0466H10.7402Z" fill="#0D151F"/>
</svg>
