<svg width="24" height="24" viewBox="0 0 24 24" fill="none" xmlns="http://www.w3.org/2000/svg">
<path fill-rule="evenodd" clip-rule="evenodd" d="M12.0003 2.94482C11.928 2.94482 11.8641 2.97345 11.8163 3.0228C11.4318 3.41925 10.7987 3.42893 10.4022 3.04442C10.0058 2.65991 9.9961 2.02682 10.3806 1.63037C10.7895 1.20881 11.3649 0.944824 12.0003 0.944824C13.247 0.944824 14.2568 1.95585 14.2568 3.20199C14.2568 3.66633 14.1153 4.15211 13.8982 4.55265C13.7241 4.87397 13.434 5.26157 13.0002 5.49633L13.0002 5.49984L21.9243 9.36374C22.8809 9.77789 23.5 10.7206 23.5 11.763C23.5 13.2056 22.3324 14.3775 20.8871 14.3775H17V20.7971C17 21.4599 16.4628 21.9971 15.8 21.9971H8.20001C7.53726 21.9971 7.00001 21.4599 7.00001 20.7971V14.3775H3.11448C1.67055 14.3775 0.500006 13.2069 0.5 11.763C0.499993 10.7207 1.11914 9.77789 2.07567 9.36374L11.0002 5.49967L11.0003 5.19844V5.19844C11.0004 4.42642 11.5484 3.92456 12.0441 3.73627V3.73627C12.0664 3.71398 12.1021 3.66947 12.1399 3.59966C12.177 3.53117 12.2081 3.45331 12.2291 3.37606C12.2505 3.29733 12.2568 3.23673 12.2568 3.20199C12.2568 3.05947 12.1415 2.94482 12.0003 2.94482ZM12.0325 3.74684L12.0337 3.74591ZM12.0845 3.72159V3.72159ZM12 7.2462L2.87033 11.1991C2.64551 11.2964 2.5 11.518 2.5 11.763C2.5 12.1023 2.77511 12.3775 3.11448 12.3775H7.00001V12.3209C7.00001 11.6582 7.53727 11.1209 8.20001 11.1209H15.8C16.4627 11.1209 17 11.6582 17 12.3209V12.3775H20.8871C21.2252 12.3775 21.5 12.1037 21.5 11.763C21.5 11.518 21.3545 11.2964 21.1297 11.1991L12 7.2462ZM15 13.1209H9.00001V17.0278H15V13.1209ZM15 19.0278H9.00001V19.9971H15V19.0278Z" fill="#0D151F"/>
</svg>
