<svg width="24" height="24" viewBox="0 0 24 24" fill="none" xmlns="http://www.w3.org/2000/svg">
<path fill-rule="evenodd" clip-rule="evenodd" d="M3 3.99585C3 2.89128 3.89543 1.99585 5 1.99585H19C20.1046 1.99585 21 2.89128 21 3.99585V13.4912C21 14.5958 20.1046 15.4912 19 15.4912H14.8475L15.6765 17.8251C15.91 18.4826 15.4224 19.1732 14.7247 19.1732H9.27525C8.57748 19.1732 8.09001 18.4825 8.32351 17.8251L9.15247 15.4912H5C3.89543 15.4912 3 14.5958 3 13.4912V3.99585ZM11.2749 15.4912L10.6775 17.1732H13.3225L12.7251 15.4912H11.2749ZM19 3.99585L5 3.99585V10.8134H19V3.99585ZM19 12.8134H5V13.4912H19V12.8134ZM5.32153 20.9699C5.32153 20.4177 5.76925 19.9699 6.32153 19.9699H17.9684C18.5207 19.9699 18.9684 20.4177 18.9684 20.9699C18.9684 21.5222 18.5207 21.9699 17.9684 21.9699H6.32153C5.76925 21.9699 5.32153 21.5222 5.32153 20.9699Z" fill="#0D151F"/>
</svg>
