<svg width="24" height="24" viewBox="0 0 24 24" fill="none" xmlns="http://www.w3.org/2000/svg">
<path d="M9.28602 12.359C9.1066 11.6051 8.27014 11.2166 7.57838 11.5659L5.31032 12.7111C4.63685 13.0511 4.21216 13.7413 4.21216 14.4958V22H6.21143V14.4958L7.57552 13.807L9.52536 22H11.5805L9.28602 12.359Z" fill="#0D151F"/>
<path d="M16.4214 11.5659C15.7297 11.2166 14.8932 11.6051 14.7138 12.359L12.4193 22H14.4744L16.4243 13.807L17.7884 14.4958V22H19.7876V14.4958C19.7876 13.7413 19.363 13.0511 18.6895 12.7111L16.4214 11.5659Z" fill="#0D151F"/>
<path fill-rule="evenodd" clip-rule="evenodd" d="M11.9999 9.19733C13.4353 9.19733 14.5989 8.03371 14.5989 6.5983C14.5989 5.1629 13.4353 3.99927 11.9999 3.99927C10.5645 3.99927 9.40087 5.1629 9.40087 6.5983C9.40087 8.03371 10.5645 9.19733 11.9999 9.19733ZM11.9999 11.1966C14.5395 11.1966 16.5982 9.13788 16.5982 6.5983C16.5982 4.05873 14.5395 2 11.9999 2C9.46033 2 7.4016 4.05873 7.4016 6.5983C7.4016 9.13788 9.46033 11.1966 11.9999 11.1966ZM11.6702 12.2864L11.9999 12.4806L12.3296 12.2864C13.016 11.882 13.8819 12.3768 13.8819 13.1735V14.1083C13.8819 14.9049 13.016 15.3998 12.3296 14.9954L11.9999 14.8011L11.6702 14.9954C10.9838 15.3998 10.1179 14.9049 10.1179 14.1083V13.1735C10.1179 12.3768 10.9838 11.882 11.6702 12.2864Z" fill="#0D151F"/>
</svg>
