<svg width="24" height="24" viewBox="0 0 24 24" fill="none" xmlns="http://www.w3.org/2000/svg">
<path d="M16.9993 17.994H14.9994C14.2038 17.994 13.4408 18.3106 12.8782 18.874C12.3156 19.4375 11.9996 20.2017 11.9996 20.9985C11.9996 21.2641 12.1049 21.5189 12.2924 21.7067C12.48 21.8945 12.7343 22 12.9995 22C13.2647 22 13.5191 21.8945 13.7066 21.7067C13.8941 21.5189 13.9995 21.2641 13.9995 20.9985C13.9995 20.7329 14.1048 20.4782 14.2924 20.2903C14.4799 20.1025 14.7342 19.997 14.9994 19.997H16.9993C17.2645 19.997 17.5189 20.1025 17.7064 20.2903C17.8939 20.4782 17.9993 20.7329 17.9993 20.9985C17.9993 21.2641 18.1046 21.5189 18.2922 21.7067C18.4797 21.8945 18.734 22 18.9993 22C19.2645 22 19.5188 21.8945 19.7063 21.7067C19.8939 21.5189 19.9992 21.2641 19.9992 20.9985C19.9992 20.2017 19.6832 19.4375 19.1206 18.874C18.558 18.3106 17.795 17.994 16.9993 17.994ZM6.99978 17.994H4.99987C4.20425 17.994 3.44123 18.3106 2.87864 18.874C2.31606 19.4375 2 20.2017 2 20.9985C2 21.2641 2.10535 21.5189 2.29288 21.7067C2.48041 21.8945 2.73475 22 2.99996 22C3.26516 22 3.5195 21.8945 3.70703 21.7067C3.89456 21.5189 3.99991 21.2641 3.99991 20.9985C3.99991 20.7329 4.10526 20.4782 4.29279 20.2903C4.48032 20.1025 4.73466 19.997 4.99987 19.997H6.99978C7.26499 19.997 7.51933 20.1025 7.70686 20.2903C7.89438 20.4782 7.99974 20.7329 7.99974 20.9985C7.99974 21.2641 8.10509 21.5189 8.29262 21.7067C8.48015 21.8945 8.73449 22 8.99969 22C9.2649 22 9.51924 21.8945 9.70677 21.7067C9.8943 21.5189 9.99965 21.2641 9.99965 20.9985C9.99965 20.2017 9.68359 19.4375 9.12101 18.874C8.55842 18.3106 7.7954 17.994 6.99978 17.994ZM5.99982 16.9925C6.59314 16.9925 7.17314 16.8163 7.66646 16.4862C8.15979 16.1561 8.54429 15.6868 8.77134 15.1378C8.99839 14.5888 9.0578 13.9847 8.94205 13.4019C8.8263 12.8191 8.54059 12.2838 8.12105 11.8636C7.70151 11.4434 7.16699 11.1572 6.58507 11.0413C6.00315 10.9254 5.39998 10.9849 4.85182 11.2123C4.30367 11.4397 3.83516 11.8248 3.50553 12.3189C3.1759 12.813 2.99996 13.3938 2.99996 13.9881C2.99996 14.7849 3.31601 15.5491 3.8786 16.1126C4.44118 16.676 5.20421 16.9925 5.99982 16.9925ZM5.99982 12.9866C6.1976 12.9866 6.39093 13.0453 6.55537 13.1554C6.71981 13.2654 6.84798 13.4218 6.92366 13.6048C6.99935 13.7878 7.01915 13.9892 6.98057 14.1834C6.94198 14.3777 6.84675 14.5562 6.7069 14.6962C6.56705 14.8363 6.38888 14.9317 6.19491 14.9703C6.00093 15.009 5.79988 14.9891 5.61716 14.9133C5.43444 14.8375 5.27827 14.7092 5.16839 14.5445C5.05851 14.3798 4.99987 14.1861 4.99987 13.9881C4.99987 13.7225 5.10522 13.4677 5.29275 13.2799C5.48028 13.0921 5.73462 12.9866 5.99982 12.9866ZM15.4594 7.97912C15.7799 7.60159 16.0225 7.16411 16.1729 6.69203C16.3234 6.21995 16.3789 5.72266 16.3361 5.22896C16.2933 4.73527 16.1531 4.25498 15.9237 3.81593C15.6943 3.37688 15.3801 2.98779 14.9994 2.67121C14.4252 2.2166 13.7093 1.97942 12.9777 2.0014C12.246 2.02338 11.5456 2.30312 10.9996 2.79139C10.4536 2.30312 9.75319 2.02338 9.02156 2.0014C8.28993 1.97942 7.574 2.2166 6.99978 2.67121C6.61912 2.98779 6.30496 3.37688 6.07551 3.81593C5.84607 4.25498 5.70589 4.73527 5.66311 5.22896C5.62032 5.72266 5.67578 6.21995 5.82627 6.69203C5.97676 7.16411 6.21929 7.60159 6.5398 7.97912H6.6198L10.2896 11.6546C10.3826 11.7485 10.4932 11.823 10.615 11.8738C10.7369 11.9247 10.8676 11.9508 10.9996 11.9508C11.1316 11.9508 11.2623 11.9247 11.3842 11.8738C11.506 11.823 11.6166 11.7485 11.7096 11.6546L15.3794 7.97912H15.4594ZM13.9195 6.64713L10.9996 9.57149L8.07973 6.64713C7.78502 6.30299 7.63584 5.85736 7.66384 5.40485C7.69185 4.95234 7.89484 4.52858 8.22973 4.22352C8.7997 3.76284 9.52967 3.98316 10.2296 4.83443C10.3235 4.94784 10.4411 5.03913 10.5742 5.10179C10.7073 5.16444 10.8525 5.19693 10.9996 5.19693C11.1467 5.19693 11.2919 5.16444 11.425 5.10179C11.5581 5.03913 11.6757 4.94784 11.7696 4.83443C12.4695 3.98316 13.1995 3.76284 13.7695 4.22352C14.1044 4.52858 14.3074 4.95234 14.3354 5.40485C14.3634 5.85736 14.2142 6.30299 13.9195 6.64713ZM20.7092 11.274L20.4092 10.9836C20.0345 10.6105 19.5276 10.4011 18.9993 10.4011C18.4709 10.4011 17.964 10.6105 17.5893 10.9836L17.2893 11.274C16.8863 11.0823 16.4456 10.9831 15.9994 10.9836C15.4061 10.9836 14.8261 11.1598 14.3327 11.4899C13.8394 11.8201 13.4549 12.2893 13.2279 12.8383C13.0008 13.3873 12.9414 13.9914 13.0572 14.5742C13.1729 15.157 13.4586 15.6924 13.8782 16.1126C14.2977 16.5327 14.8322 16.8189 15.4141 16.9348C15.9961 17.0507 16.5992 16.9912 17.1474 16.7638C17.6955 16.5364 18.1641 16.1513 18.4937 15.6573C18.8233 15.1632 18.9993 14.5823 18.9993 13.9881C18.9966 13.5404 18.8941 13.099 18.6993 12.6961L18.9893 12.3957L19.2792 12.6961C19.3722 12.79 19.4828 12.8645 19.6047 12.9154C19.7265 12.9662 19.8572 12.9924 19.9892 12.9924C20.1212 12.9924 20.2519 12.9662 20.3738 12.9154C20.4956 12.8645 20.6062 12.79 20.6992 12.6961C20.7936 12.6037 20.8687 12.4935 20.9204 12.3718C20.972 12.2501 20.999 12.1194 21 11.9872C21.0009 11.855 20.9757 11.7239 20.9258 11.6015C20.8759 11.4791 20.8023 11.3678 20.7092 11.274ZM15.9994 14.9896C15.8016 14.9896 15.6083 14.9308 15.4438 14.8208C15.2794 14.7107 15.1512 14.5543 15.0755 14.3713C14.9999 14.1883 14.9801 13.987 15.0186 13.7927C15.0572 13.5984 15.1525 13.42 15.2923 13.2799C15.4322 13.1398 15.6103 13.0445 15.8043 13.0058C15.9983 12.9672 16.1993 12.987 16.3821 13.0628C16.5648 13.1386 16.7209 13.267 16.8308 13.4317C16.9407 13.5964 16.9993 13.79 16.9993 13.9881C16.9993 14.2537 16.894 14.5084 16.7065 14.6962C16.5189 14.884 16.2646 14.9896 15.9994 14.9896Z" fill="#0D151F"/>
</svg>
