<svg width="24" height="24" viewBox="0 0 24 24" fill="none" xmlns="http://www.w3.org/2000/svg">
<g clip-path="url(#clip0_2499_862)">
<path fill-rule="evenodd" clip-rule="evenodd" d="M13.5575 0.916748C14.1098 0.916748 14.5575 1.36446 14.5575 1.91675C14.5575 2.46903 14.1098 2.91675 13.5575 2.91675H13.0318V4.31811C14.4226 4.50312 15.6969 5.05698 16.753 5.87815L17.7386 4.89262L17.3219 4.47598C16.9314 4.08546 16.9314 3.45229 17.3219 3.06177C17.7124 2.67124 18.3456 2.67124 18.7361 3.06177L20.9387 5.26436C21.3292 5.65488 21.3292 6.28805 20.9387 6.67857C20.5482 7.06909 19.915 7.06909 19.5245 6.67857L19.1528 6.30684L18.1614 7.29822C18.9732 8.3604 19.5166 9.63868 19.6902 11.0318H21.0833V10.4425C21.0833 9.89026 21.531 9.44255 22.0833 9.44255C22.6356 9.44255 23.0833 9.89026 23.0833 10.4425V13.5575C23.0833 14.1098 22.6356 14.5575 22.0833 14.5575C21.531 14.5575 21.0833 14.1098 21.0833 13.5575V13.0318H19.682C19.497 14.4225 18.9432 15.6966 18.1222 16.7527L19.1077 17.7383L19.5244 17.3216C19.9149 16.9311 20.5481 16.9311 20.9386 17.3216C21.3291 17.7121 21.3291 18.3453 20.9386 18.7358L18.736 20.9384C18.3455 21.3289 17.7123 21.3289 17.3218 20.9384C16.9313 20.5479 16.9313 19.9147 17.3218 19.5242L17.6935 19.1525L16.7022 18.1611C15.6561 18.9607 14.4004 19.4999 13.0318 19.682V21.0833H13.5575C14.1098 21.0833 14.5575 21.531 14.5575 22.0833C14.5575 22.6356 14.1098 23.0833 13.5575 23.0833H10.4426C9.89027 23.0833 9.44255 22.6356 9.44255 22.0833C9.44255 21.531 9.89027 21.0833 10.4426 21.0833H11.0318V19.6901C9.6387 19.5165 8.36043 18.9731 7.29826 18.1613L6.30706 19.1525L6.67879 19.5243C7.06932 19.9148 7.06932 20.548 6.6788 20.9385C6.28827 21.329 5.65511 21.329 5.26458 20.9385L3.06199 18.7359C2.67147 18.3454 2.67147 17.7122 3.06199 17.3217C3.45252 16.9312 4.08568 16.9312 4.4762 17.3217L4.89285 17.7383L5.87819 16.753C5.05703 15.6968 4.50317 14.4226 4.31815 13.0318H2.91675V13.5575C2.91675 14.1098 2.46903 14.5575 1.91675 14.5575C1.36446 14.5575 0.916748 14.1098 0.916748 13.5575L0.916748 10.4425C0.916748 9.89026 1.36446 9.44255 1.91675 9.44255C2.46903 9.44255 2.91675 9.89026 2.91675 10.4425V11.0318H4.30998C4.48362 9.63856 5.02706 8.36018 5.83898 7.29794L4.84781 6.30677L4.47607 6.6785C4.08555 7.06903 3.45238 7.06903 3.06186 6.6785C2.67134 6.28798 2.67134 5.65481 3.06186 5.26429L5.26445 3.0617C5.65497 2.67118 6.28814 2.67118 6.67866 3.0617C7.06919 3.45222 7.06919 4.08539 6.67866 4.47591L6.26202 4.89256L7.2474 5.87794C8.31952 5.04443 9.61639 4.48635 11.0318 4.30994V2.91675H10.4426C9.89027 2.91675 9.44255 2.46903 9.44255 1.91675C9.44255 1.36446 9.89027 0.916748 10.4426 0.916748L13.5575 0.916748ZM12.0001 6.25004C8.82444 6.25004 6.25008 8.8244 6.25008 12C6.25008 15.1757 8.82444 17.75 12.0001 17.75C15.1757 17.75 17.7501 15.1757 17.7501 12C17.7501 8.8244 15.1757 6.25004 12.0001 6.25004ZM12.3042 9.7728C12.3042 9.22051 12.7519 8.7728 13.3042 8.7728H13.3151C13.8673 8.7728 14.3151 9.22051 14.3151 9.7728C14.3151 10.3251 13.8673 10.7728 13.3151 10.7728H13.3042C12.7519 10.7728 12.3042 10.3251 12.3042 9.7728ZM8.68497 12C8.68497 11.4477 9.13268 11 9.68497 11H9.69583C10.2481 11 10.6958 11.4477 10.6958 12C10.6958 12.5523 10.2481 13 9.69583 13H9.68497C9.13268 13 8.68497 12.5523 8.68497 12ZM12.3042 14.2272C12.3042 13.675 12.7519 13.2272 13.3042 13.2272H13.3151C13.8673 13.2272 14.3151 13.675 14.3151 14.2272C14.3151 14.7795 13.8673 15.2272 13.3151 15.2272H13.3042C12.7519 15.2272 12.3042 14.7795 12.3042 14.2272Z" fill="#0D151F"/>
</g>
<defs>
<clipPath id="clip0_2499_862">
<rect width="24" height="24" fill="white"/>
</clipPath>
</defs>
</svg>
