<svg width="24" height="24" viewBox="0 0 24 24" fill="none" xmlns="http://www.w3.org/2000/svg">
<path d="M11.9298 5.98535C11.6034 5.98461 11.3172 6.11343 11.0916 6.33853C10.8872 6.5425 10.7625 6.7959 10.7404 7.08337C10.1776 7.26268 9.70075 7.56646 9.32808 8.00304C8.88159 8.5261 8.64542 9.12828 8.64542 9.79466C8.64603 10.5156 8.86099 11.1461 9.32611 11.6359C9.76393 12.097 10.415 12.4587 11.2266 12.7472C12.0495 13.0473 12.5655 13.2963 12.8259 13.4871C13.027 13.6344 13.1047 13.7963 13.1047 14.0085C13.105 14.3073 13.0093 14.452 12.8675 14.5452C12.6535 14.6858 12.3817 14.7674 12.0287 14.7674C11.7717 14.7669 11.5468 14.7061 11.3436 14.5885C11.1548 14.4793 10.9815 14.3019 10.833 14.0268L10.8291 14.0196L10.825 14.0125C10.6774 13.7591 10.4613 13.5712 10.1913 13.4576C9.90412 13.3368 9.60058 13.3294 9.30834 13.4401C9.00838 13.5487 8.7741 13.7531 8.63006 14.0397C8.47445 14.3494 8.47305 14.6814 8.60711 14.9936L8.61056 15.0016L8.6143 15.0095C8.85421 15.5183 9.18198 15.9475 9.59995 16.2874C9.92241 16.5496 10.2905 16.7444 10.6986 16.8752C10.7118 17.1791 10.8383 17.4465 11.0515 17.6601C11.2771 17.886 11.5635 18.0145 11.8896 18.0147C12.2164 18.0155 12.5038 17.8875 12.73 17.6608C12.9319 17.4586 13.0555 17.2082 13.0791 16.9246C13.2958 16.8638 13.5052 16.7901 13.7071 16.7033C14.0468 16.5572 14.3497 16.3622 14.6115 16.1169C14.8796 15.8655 15.0913 15.5645 15.2481 15.2201C15.4147 14.8545 15.4905 14.4466 15.4905 14.0085C15.4905 13.3548 15.3013 12.7508 14.9289 12.2088C14.5295 11.6277 13.7942 11.1875 12.8428 10.8385C12.0554 10.5766 11.5006 10.3406 11.2571 10.1821C11.0872 10.0715 11.0312 9.95549 11.0312 9.79466L11.0312 9.79312C11.0309 9.70565 11.0425 9.63383 11.0647 9.5731C11.0945 9.49129 11.1436 9.42961 11.2089 9.37686C11.3295 9.27938 11.5511 9.1933 11.9483 9.19324C12.1587 9.19369 12.3118 9.23004 12.4235 9.28308L12.4349 9.28863C12.5701 9.35588 12.6755 9.43843 12.7581 9.53464C12.926 9.75816 13.1506 9.91565 13.419 9.99808C13.6982 10.0838 13.9824 10.0722 14.2538 9.96953C14.5506 9.86297 14.7877 9.66253 14.9273 9.37173C15.0743 9.06565 15.0707 8.72908 14.8824 8.42918C14.6493 8.04261 14.3426 7.71503 13.9677 7.44767C13.703 7.25893 13.418 7.12399 13.1151 7.04556C13.0858 6.77386 12.9631 6.534 12.768 6.33932C12.5421 6.11392 12.2558 5.98554 11.9298 5.98535Z" fill="#0D151F"/>
<path fill-rule="evenodd" clip-rule="evenodd" d="M12.0448 19.995C14.7852 19.995 17.1897 18.4662 18.4629 16.1832L18.2985 16.2177C17.7556 16.3318 17.2229 15.985 17.1086 15.4432C16.9943 14.9015 17.3417 14.3698 17.8846 14.2557L19.9 13.8323C20.3725 13.733 20.849 13.9833 21.0345 14.4282L21.9227 16.5588C22.1358 17.07 21.8933 17.6568 21.381 17.8695C20.886 18.075 20.3202 17.8559 20.0904 17.3796C18.4501 20.1426 15.4674 22 12.0448 22C7.74195 22 4.13436 19.0643 3.01546 15.0841C2.8656 14.551 3.17716 13.9976 3.71135 13.848C4.24554 13.6985 4.80008 14.0094 4.94994 14.5425C5.83862 17.7038 8.68998 19.995 12.0448 19.995Z" fill="#0D151F"/>
<path fill-rule="evenodd" clip-rule="evenodd" d="M11.9552 4.00504C9.21477 4.00504 6.81032 5.5338 5.53712 7.81679L5.70145 7.78227C6.24437 7.6682 6.77714 8.01495 6.89144 8.55675C7.00574 9.09855 6.65827 9.63023 6.11536 9.74429L4.09999 10.1677C3.62746 10.267 3.151 10.0167 2.96552 9.57178L2.07733 7.44122C1.86422 6.93002 2.10672 6.3432 2.61897 6.13053C3.11401 5.925 3.67982 6.14411 3.90962 6.62045C5.54987 3.8574 8.53256 2 11.9552 2C16.258 2 19.8656 4.93569 20.9845 8.91591C21.1344 9.449 20.8228 10.0024 20.2887 10.152C19.7545 10.3015 19.1999 9.99059 19.0501 9.45749C18.1614 6.29622 15.31 4.00504 11.9552 4.00504Z" fill="#0D151F"/>
</svg>
