<svg width="24" height="24" viewBox="0 0 24 24" fill="none" xmlns="http://www.w3.org/2000/svg">
<path fill-rule="evenodd" clip-rule="evenodd" d="M13.1852 1.7715L16.772 1.77148C18.2534 1.77148 19.4543 2.97237 19.4543 4.45374C19.4543 5.9351 18.2534 7.13599 16.772 7.13599C15.9667 7.13599 15.2433 6.77981 14.7531 6.21974C14.4525 5.87628 14.2377 5.45412 14.1433 4.98888L12.517 3.74531C11.6814 3.10634 12.1332 1.7715 13.1852 1.7715ZM16.772 3.77148C16.3952 3.77148 16.0898 4.07694 16.0898 4.45374C16.0898 4.62644 16.1526 4.78199 16.2582 4.90256C16.3847 5.04714 16.5674 5.13599 16.772 5.13599C17.1488 5.13599 17.4543 4.83053 17.4543 4.45374C17.4543 4.07694 17.1488 3.77148 16.772 3.77148ZM10.7689 5.70161C11.3301 5.29864 12.094 5.33113 12.6189 5.7803L17.9954 10.3805L19.3515 9.3081C19.7846 8.96551 20.4135 9.03896 20.7561 9.47215C21.0987 9.90534 21.0253 10.5342 20.5921 10.8768L18.9678 12.1614V13.8183C20.7089 14.2631 21.9962 15.8421 21.9962 17.7217C21.9962 19.9466 20.1926 21.7502 17.9678 21.7502C15.7429 21.7502 13.9393 19.9466 13.9393 17.7217C13.9393 15.8421 15.2267 14.2631 16.9678 13.8183V12.1334L11.6167 7.55498L7.55005 10.475C10.2766 11.2266 13.0605 13.2403 13.0605 16.7732V18.4168C13.0605 18.9691 12.6128 19.4168 12.0605 19.4168C11.5082 19.4168 11.0605 18.9691 11.0605 18.4168V16.7732C11.0605 14.3061 8.90091 12.7049 6.3094 12.2421C5.61975 12.119 5.19571 11.5868 5.05333 11.0791C4.90904 10.5645 4.9987 9.84477 5.61857 9.39968L10.7689 5.70161ZM17.9678 15.6933C16.8475 15.6933 15.9393 16.6014 15.9393 17.7217C15.9393 18.842 16.8475 19.7502 17.9678 19.7502C19.0881 19.7502 19.9962 18.842 19.9962 17.7217C19.9962 16.6014 19.0881 15.6933 17.9678 15.6933ZM6.03822 15.6933C4.91793 15.6933 4.00977 16.6014 4.00977 17.7217C4.00977 18.842 4.91793 19.7502 6.03822 19.7502C7.1585 19.7502 8.06667 18.842 8.06667 17.7217C8.06667 16.6014 7.1585 15.6933 6.03822 15.6933ZM2.00977 17.7217C2.00977 15.4969 3.81337 13.6933 6.03822 13.6933C8.26307 13.6933 10.0667 15.4969 10.0667 17.7217C10.0667 19.9466 8.26307 21.7502 6.03822 21.7502C3.81337 21.7502 2.00977 19.9466 2.00977 17.7217Z" fill="#0D151F"/>
</svg>
