<svg width="24" height="24" viewBox="0 0 24 24" fill="none" xmlns="http://www.w3.org/2000/svg">
<path fill-rule="evenodd" clip-rule="evenodd" d="M11.3879 4.25524C11.4583 3.70745 11.9594 3.32045 12.5072 3.39083L14.9379 3.70316C14.9476 3.70439 14.9572 3.70577 14.9668 3.70729L16.941 4.01961C17.4865 4.10591 17.8588 4.61808 17.7725 5.16359C17.6862 5.70909 17.174 6.08134 16.6285 5.99505L16.2526 5.93558L17.7757 10.7422C18.0526 10.6943 18.3374 10.6694 18.628 10.6694C21.375 10.6694 23.6019 12.8963 23.6019 15.6433C23.6019 18.3902 21.375 20.6171 18.628 20.6171C16.3943 20.6171 14.5045 19.1447 13.8763 17.1175H10.124C9.49578 19.1447 7.60598 20.6171 5.37228 20.6171C2.6253 20.6171 0.398438 18.3902 0.398438 15.6433C0.398438 12.8963 2.6253 10.6694 5.37228 10.6694C5.5206 10.6694 5.6674 10.6759 5.81242 10.6886L6.12305 9.59109C5.72788 9.45754 5.44339 9.08374 5.44339 8.6435C5.44339 8.09121 5.89111 7.6435 6.44339 7.6435H9.31077C9.86305 7.6435 10.3108 8.09121 10.3108 8.6435C10.3108 9.19578 9.86305 9.6435 9.31077 9.6435H8.18678L7.72872 11.2619C9.14099 12.0231 10.1432 13.4472 10.3187 15.1175H13.6816C13.8418 13.5934 14.6902 12.2743 15.9105 11.4768L14.05 5.60551L12.2523 5.37452C11.7045 5.30414 11.3175 4.80302 11.3879 4.25524ZM16.5551 13.511C16.1186 13.9354 15.812 14.4927 15.7005 15.1175H17.0641L16.5551 13.511ZM16.0447 17.1175C16.5571 18.0134 17.522 18.6171 18.628 18.6171C20.2704 18.6171 21.6019 17.2857 21.6019 15.6433C21.6019 14.0009 20.2704 12.6694 18.628 12.6694C18.5477 12.6694 18.4681 12.6726 18.3894 12.6789L19.3008 15.555C19.5459 16.3287 18.9684 17.1175 18.1568 17.1175H16.0447ZM8.2998 15.1175C8.16549 14.3646 7.74787 13.7099 7.16113 13.2674L6.6375 15.1175H8.2998ZM5.25112 12.6718C3.66489 12.7354 2.39844 14.0414 2.39844 15.6433C2.39844 17.2857 3.72987 18.6171 5.37228 18.6171C6.47826 18.6171 7.44322 18.0134 7.95558 17.1175H5.57966C4.78365 17.1175 4.20823 16.3566 4.42501 15.5907L5.25112 12.6718Z" fill="#0D151F"/>
</svg>
