<svg width="24" height="24" viewBox="0 0 24 24" fill="none" xmlns="http://www.w3.org/2000/svg">
<path fill-rule="evenodd" clip-rule="evenodd" d="M18.3547 0.797414C19.0474 0.105269 20.2328 0.48952 20.3878 1.45645L20.6793 3.27603L22.4858 3.47542C23.4866 3.58588 23.9146 4.80541 23.2024 5.51706L21.024 7.69362C21.6508 9.00067 22.0018 10.465 22.0018 12.0092C22.0018 17.5274 17.5285 22.0007 12.0103 22.0007C6.49223 22.0007 2.01892 17.5274 2.01892 12.0092C2.01892 6.49114 6.49223 2.01782 12.0103 2.01782C13.509 2.01782 14.9322 2.34836 16.2096 2.94073L18.3547 0.797414ZM15.9459 5.0523C14.7849 4.3939 13.4429 4.01782 12.0103 4.01782C7.5968 4.01782 4.01892 7.59571 4.01892 12.0092C4.01892 16.4228 7.5968 20.0007 12.0103 20.0007C16.4239 20.0007 20.0018 16.4228 20.0018 12.0092C20.0018 10.5271 19.5992 9.14176 18.8978 7.95359L17.6005 7.81039L16.6829 8.72797C17.336 9.65627 17.7195 10.788 17.7195 12.0092C17.7195 15.1623 15.1634 17.7184 12.0103 17.7184C8.85728 17.7184 6.30121 15.1623 6.30121 12.0092C6.30121 8.85618 8.85728 6.30011 12.0103 6.30011C13.2198 6.30011 14.3414 6.6762 15.2646 7.31781L16.1647 6.41774L15.9459 5.0523ZM18.0998 5.85336L19.8435 6.04582L20.6095 5.28047L19.7042 5.18054C19.4863 5.1565 19.2824 5.06164 19.1237 4.91052L19.1229 4.90978C18.9641 4.75853 18.8594 4.55945 18.8248 4.34321L18.6607 3.31893L17.8272 4.15175L18.0998 5.85336ZM18.4132 1.7741L18.413 1.77287L19.2029 1.6463L18.413 1.77287C18.413 1.77328 18.4131 1.77369 18.4132 1.7741ZM13.8147 8.76778C13.2806 8.46987 12.6653 8.30011 12.0103 8.30011C9.96185 8.30011 8.30121 9.96075 8.30121 12.0092C8.30121 14.0577 9.96185 15.7184 12.0103 15.7184C14.0588 15.7184 15.7195 14.0577 15.7195 12.0092C15.7195 11.3423 15.5434 10.7164 15.2353 10.1756L13.7096 11.7013C13.7292 11.8054 13.7395 11.9127 13.7395 12.0224C13.7395 12.9737 12.9683 13.7449 12.017 13.7449C11.0657 13.7449 10.2945 12.9737 10.2945 12.0224C10.2945 11.0711 11.0657 10.3 12.017 10.3C12.1011 10.3 12.1839 10.306 12.2648 10.3177L13.8147 8.76778Z" fill="#0D151F"/>
</svg>
