<svg width="24" height="24" viewBox="0 0 24 24" fill="none" xmlns="http://www.w3.org/2000/svg">
<path d="M21.6888 13.5951C22.0793 13.9857 22.0793 14.6188 21.6888 15.0094L17.6825 19.0156C17.4012 19.2969 17.0197 19.4549 16.6219 19.4549H14.6185V20.989C14.6185 21.5413 14.1708 21.989 13.6185 21.989C13.0662 21.989 12.6185 21.5413 12.6185 20.989V19.4549H9.45684V20.989C9.45684 21.5413 9.00912 21.989 8.45684 21.989C7.90455 21.989 7.45684 21.5413 7.45684 20.989V19.4549H5.96245L3.72127 21.6961C3.33074 22.0866 2.69758 22.0866 2.30705 21.6961C1.91653 21.3056 1.91653 20.6724 2.30705 20.2819L4.69468 17.8943C4.97599 17.613 5.35752 17.4549 5.75534 17.4549H16.4148L20.2746 13.5951C20.6651 13.2046 21.2983 13.2046 21.6888 13.5951Z" fill="#0D151F"/>
<path fill-rule="evenodd" clip-rule="evenodd" d="M19.2664 9.08064C20.1411 9.08064 20.7091 8.15927 20.3163 7.37781C16.7149 0.212602 6.4865 0.212605 2.88502 7.37782C2.49224 8.15927 3.06032 9.08064 3.93495 9.08064H10.6007V15.2394C10.6007 15.7917 11.0484 16.2394 11.6007 16.2394C12.153 16.2394 12.6007 15.7917 12.6007 15.2394V9.08064H19.2664ZM17.7934 7.08064H5.40797C8.46317 2.97833 14.7382 2.97833 17.7934 7.08064Z" fill="#0D151F"/>
</svg>
