<svg width="24" height="24" viewBox="0 0 24 24" fill="none" xmlns="http://www.w3.org/2000/svg">
<path fill-rule="evenodd" clip-rule="evenodd" d="M1 6.99805C1 5.34119 2.34315 3.99805 4 3.99805H20C21.6569 3.99805 23 5.34119 23 6.99805V17.0021C23 18.659 21.6569 20.0021 20 20.0021H4C2.34315 20.0021 1 18.659 1 17.0021V6.99805ZM4 5.99805C3.44772 5.99805 3 6.44576 3 6.99805V9.46363C3.50431 9.22418 3.88893 8.89447 4.19392 8.47372C4.60565 7.90571 4.9184 7.10854 5.11638 5.99805H4ZM7.14332 5.99805C6.92148 7.45552 6.51123 8.6846 5.81324 9.64751C5.10722 10.6215 4.1609 11.2503 3 11.597V12.4031C4.1609 12.7499 5.10722 13.3787 5.81324 14.3527C6.51123 15.3156 6.92148 16.5447 7.14332 18.0021H16.8567C17.0785 16.5447 17.4888 15.3156 18.1868 14.3527C18.8928 13.3787 19.8391 12.7499 21 12.4031V11.597C19.8391 11.2503 18.8928 10.6215 18.1868 9.64751C17.4888 8.6846 17.0785 7.45552 16.8567 5.99805H7.14332ZM18.8836 5.99805C19.0816 7.10853 19.3944 7.90571 19.8061 8.47372C20.1111 8.89447 20.4957 9.22418 21 9.46363V6.99805C21 6.44576 20.5523 5.99805 20 5.99805H18.8836ZM21 14.5366C20.4957 14.776 20.1111 15.1057 19.8061 15.5265C19.3944 16.0945 19.0816 16.8917 18.8836 18.0021H20C20.5523 18.0021 21 17.5544 21 17.0021V14.5366ZM5.11638 18.0021C4.9184 16.8917 4.60565 16.0945 4.19392 15.5265C3.88893 15.1057 3.50431 14.776 3 14.5366V17.0021C3 17.5544 3.44772 18.0021 4 18.0021H5.11638Z" fill="#0D151F"/>
<path fill-rule="evenodd" clip-rule="evenodd" d="M12.1538 11.3289C11.6174 11.3289 11.1826 11.7637 11.1826 12.3001C11.1826 12.8365 11.6174 13.2713 12.1538 13.2713C12.6902 13.2713 13.125 12.8365 13.125 12.3001C13.125 11.7637 12.6902 11.3289 12.1538 11.3289ZM9.18262 12.3001C9.18262 10.6591 10.5129 9.32886 12.1538 9.32886C13.7948 9.32886 15.125 10.6591 15.125 12.3001C15.125 13.941 13.7948 15.2713 12.1538 15.2713C10.5129 15.2713 9.18262 13.941 9.18262 12.3001Z" fill="#0D151F"/>
</svg>
