<svg width="24" height="24" viewBox="0 0 24 24" fill="none" xmlns="http://www.w3.org/2000/svg">
<path fill-rule="evenodd" clip-rule="evenodd" d="M9.04947 0.542236C9.60175 0.542236 10.0495 0.989952 10.0495 1.54224V1.98878H13.0193C14.4 1.98878 15.5193 3.10807 15.5193 4.48878V6.69017H18.9694C20.3501 6.69017 21.4694 7.80946 21.4694 9.19017V19.9805H22.4584C23.0106 19.9805 23.4584 20.4282 23.4584 20.9805C23.4584 21.5328 23.0106 21.9805 22.4584 21.9805H1.72607C1.17379 21.9805 0.726074 21.5328 0.726074 20.9805C0.726074 20.4282 1.17379 19.9805 1.72607 19.9805H2.57966V4.48878C2.57966 3.10806 3.69895 1.98878 5.07966 1.98878H8.04947V1.54224C8.04947 0.989952 8.49718 0.542236 9.04947 0.542236ZM4.57966 19.9805H5.72688V14.7025C5.72688 13.5979 6.62232 12.7025 7.72688 12.7025H10.3549C11.4594 12.7025 12.3549 13.5979 12.3549 14.7025V19.9805H13.5193V4.48878C13.5193 4.21264 13.2954 3.98878 13.0193 3.98878H5.07966C4.80352 3.98878 4.57966 4.21264 4.57966 4.48878V19.9805ZM15.5193 19.9805H19.4694V9.19017C19.4694 8.91403 19.2456 8.69017 18.9694 8.69017H15.5193V19.9805ZM10.3549 19.9805V14.7025H7.72688V19.9805H10.3549ZM5.72697 6.58441C5.72697 6.03212 6.17468 5.58441 6.72697 5.58441H11.3549C11.9072 5.58441 12.3549 6.03212 12.3549 6.58441C12.3549 7.13669 11.9072 7.58441 11.3549 7.58441H6.72697C6.17468 7.58441 5.72697 7.13669 5.72697 6.58441ZM5.72697 9.8893C5.72697 9.33701 6.17468 8.8893 6.72697 8.8893H11.3549C11.9072 8.8893 12.3549 9.33701 12.3549 9.8893C12.3549 10.4416 11.9072 10.8893 11.3549 10.8893H6.72697C6.17468 10.8893 5.72697 10.4416 5.72697 9.8893ZM17.465 10.4317C18.0173 10.4317 18.465 10.8794 18.465 11.4317V12.8709C18.465 13.4231 18.0173 13.8709 17.465 13.8709C16.9127 13.8709 16.465 13.4231 16.465 12.8709V11.4317C16.465 10.8794 16.9127 10.4317 17.465 10.4317ZM17.465 15.0075C18.0173 15.0075 18.465 15.4552 18.465 16.0075V17.4466C18.465 17.9989 18.0173 18.4466 17.465 18.4466C16.9127 18.4466 16.465 17.9989 16.465 17.4466V16.0075C16.465 15.4552 16.9127 15.0075 17.465 15.0075Z" fill="#0D151F"/>
</svg>
