<svg width="24" height="24" viewBox="0 0 24 24" fill="none" xmlns="http://www.w3.org/2000/svg">
<path fill-rule="evenodd" clip-rule="evenodd" d="M7.24046 4.84764L6.01454 3L4.4166 4.20416L5.62491 6.02526H5.4928C5.22972 6.02526 4.97171 6.11556 4.77822 6.30997C4.58473 6.50438 4.49486 6.76362 4.49486 7.02795V9.03335H2V11.0387H3.49692V20.6992H5.4928V11.0387H11.479V19.9973C11.479 20.2616 11.5689 20.5209 11.7624 20.7153C11.9559 20.9097 12.2139 21 12.477 21H19.5051C19.7682 21 20.0262 20.9097 20.2197 20.7153C20.4132 20.5209 20.5031 20.2616 20.5031 19.9973V11.0387H22V9.03335H9.98355V7.02795C9.98355 6.76362 9.89368 6.50438 9.70019 6.30997C9.51122 6.12009 9.2607 6.02953 9.00402 6.0254L9.63421 4.44244L7.70969 3.66897L7.24046 4.84764ZM6.49075 9.03335V8.03065H7.98766V9.03335H6.49075ZM13.4749 14.0468V11.0387H18.5072V14.0468H13.4749ZM13.4749 18.9946V16.0522H18.5072V18.9946H13.4749Z" fill="#0D151F"/>
</svg>
