<svg width="24" height="24" viewBox="0 0 24 24" fill="none" xmlns="http://www.w3.org/2000/svg">
<path fill-rule="evenodd" clip-rule="evenodd" d="M16.1755 1.4467C16.4281 1.93785 16.2347 2.54075 15.7435 2.79332L15.6109 2.86152C15.1257 3.11106 14.6742 3.42139 14.2673 3.78501C13.918 4.0972 13.6592 4.37562 13.4921 4.67129C13.3071 4.99882 13.1857 5.30672 13.108 5.59802C13.8868 5.25561 14.7648 5.02949 15.7031 5.0791C19.3413 5.27149 22.1778 8.31727 21.9869 11.9279C21.8986 13.5979 21.2101 16.3605 20.0834 18.6919C19.518 19.862 18.8119 20.988 17.9618 21.8226C17.111 22.658 16.0257 23.284 14.744 23.2162C13.6991 23.1609 12.7926 22.9472 12.0164 22.5884C11.2401 22.9472 10.3336 23.1609 9.28868 23.2162C8.00704 23.284 6.92169 22.658 6.07089 21.8226C5.22085 20.988 4.51473 19.862 3.9493 18.6919C2.8226 16.3605 2.13415 13.5979 2.04584 11.9279C1.85492 8.31727 4.69137 5.27149 8.32963 5.0791C9.32042 5.02671 10.2438 5.28175 11.0544 5.6565C11.148 5.06545 11.3485 4.39947 11.7509 3.68741C12.0797 3.10546 12.5322 2.65335 12.9345 2.2938C13.468 1.81701 14.06 1.41011 14.6963 1.08291L14.8289 1.01472C15.3201 0.762146 15.923 0.955552 16.1755 1.4467ZM11.4329 8.19711C10.4815 7.5136 9.4465 7.02284 8.43524 7.07631C5.8561 7.21269 3.91275 9.3581 4.04305 11.8223C4.11536 13.1898 4.72167 15.6937 5.75005 17.8217C6.26216 18.8814 6.84866 19.7834 7.4721 20.3955C8.09478 21.0069 8.66376 21.2464 9.18307 21.219C10.2051 21.1649 10.953 20.9276 11.5075 20.5998C11.8214 20.4143 12.2113 20.4143 12.5252 20.5998C13.0797 20.9276 13.8276 21.1649 14.8496 21.219C15.369 21.2464 15.9379 21.0069 16.5606 20.3955C17.1841 19.7834 17.7706 18.8814 18.2827 17.8217C19.311 15.6937 19.9174 13.1898 19.9897 11.8223C20.12 9.3581 18.1766 7.21269 15.5975 7.07631C14.5862 7.02284 13.5513 7.5136 12.5998 8.19711C12.2512 8.44756 11.7816 8.44756 11.4329 8.19711Z" fill="#0D151F"/>
</svg>
