<svg width="24" height="24" viewBox="0 0 24 24" fill="none" xmlns="http://www.w3.org/2000/svg">
<path d="M18 6C18 6.6 17.6 7 17 7C16.4 7 16 6.6 16 6C16 5.4 16.4 5 17 5C17.6 5 18 5.4 18 6Z" fill="#0D151F"/>
<path fill-rule="evenodd" clip-rule="evenodd" d="M4 2C3.44772 2 3 2.44772 3 3V21C3 21.5523 3.44772 22 4 22H20C20.5523 22 21 21.5523 21 21V3C21 2.44772 20.5523 2 20 2H4ZM19 4H5V8H19V4ZM5 20V10H19V20H5Z" fill="#0D151F"/>
<path d="M10 5H14V7H10V5Z" fill="#0D151F"/>
<path fill-rule="evenodd" clip-rule="evenodd" d="M10.7 12.6C11 12.2 11.2 11.9 11.4 11.6C11.8 11.2 12 11 12 11C12 11 12.2 11.2 12.6 11.6C12.8 11.9 13.1 12.2 13.3 12.5C14.1 13.6 15 15 15 16.1C15 17.6 13.7 18.9 12 18.9C10.3 18.9 9 17.6 9 16.1C9 15.1 9.9 13.7 10.7 12.6ZM12 14.2C11.9 14.4 11.7 14.6 11.6 14.8C11.4 15.2 11.2 15.5 11.1 15.8C11.1 15.9 11 16 11 16.1V16.2C11 16.5 11.3 17 12 17C12.7 17 13 16.5 13 16.2V16.1C13 16 12.9 15.9 12.9 15.8C12.8 15.5 12.6 15.2 12.4 14.8C12.3 14.6 12.1 14.4 12 14.2Z" fill="#0D151F"/>
</svg>
