<svg width="24" height="24" viewBox="0 0 24 24" fill="none" xmlns="http://www.w3.org/2000/svg">
<path fill-rule="evenodd" clip-rule="evenodd" d="M12.0004 2C9.72617 2 8.03301 3.12645 7.94052 3.18962C7.6671 3.37488 7.5034 3.68745 7.5034 4.02071V9.57071C7.5034 11.3162 8.53102 12.8215 10.0154 13.5432C10.615 13.8349 11.2893 13.9986 12.0004 13.9986C12.7032 13.9986 13.37 13.8387 13.9644 13.5534C15.4601 12.8357 16.4974 11.3245 16.4974 9.57071V4.02071C16.4974 3.68674 16.3338 3.37563 16.0609 3.19004C15.9757 3.13168 14.2799 2 12.0004 2ZM9.46975 6.28571V4.6093C9.9881 4.35444 10.9094 3.99857 12.0004 3.99857C13.0819 3.99857 14.0083 4.35619 14.5311 4.6114V6.28571H9.46975ZM9.46975 9.57071V8.28429H14.5311V9.57071C14.5311 10.8968 13.4096 12 12.0004 12C10.5912 12 9.46975 10.8968 9.46975 9.57071Z" fill="#0D151F"/>
<path d="M16.4326 13.5598C16.7184 13.3935 17.0664 13.3849 17.3597 13.5335C17.3944 13.5512 17.4256 13.5761 17.438 13.5861C17.457 13.6014 17.4787 13.6201 17.5018 13.6409C17.5485 13.6828 17.6083 13.7396 17.6789 13.8099C17.8204 13.9508 18.0098 14.1506 18.2307 14.4028C18.6725 14.9072 19.2434 15.6252 19.811 16.5074C20.7427 17.9556 21.6756 19.8626 22 22.0037H19.9977C19.7436 20.6677 19.2093 19.3006 18.6228 18.1516C18.2658 17.452 17.8927 16.84 17.5585 16.3721C17.2926 15.9997 17.0646 15.7378 16.8987 15.5905L12.9836 17.8647V22.0037H11.0172V17.8647L7.10216 15.5905C6.93662 15.7376 6.70894 15.9992 6.44316 16.3713C6.10906 16.8391 5.73597 17.451 5.37877 18.1506C4.79204 19.2996 4.25733 20.6671 4.00306 22.0037H2C2.31959 19.8737 3.23631 17.9832 4.15864 16.5429C4.73148 15.6484 5.3103 14.9216 5.75877 14.4114C5.98302 14.1562 6.17549 13.9544 6.31932 13.812C6.39108 13.741 6.45185 13.6837 6.4992 13.6415C6.52271 13.6205 6.54453 13.6018 6.56373 13.5864C6.57623 13.5765 6.60663 13.5521 6.64116 13.5345C6.92076 13.3922 7.24876 13.3943 7.52561 13.5368C7.54013 13.5443 7.55451 13.5522 7.56874 13.5604L12.0004 16.1346L16.4326 13.5598Z" fill="#0D151F"/>
<path fill-rule="evenodd" clip-rule="evenodd" d="M16.9125 18.2778C16.9125 17.8636 16.5821 17.5278 16.1746 17.5278C15.7671 17.5278 15.4367 17.8636 15.4367 18.2778V18.9547H14.7707C14.3632 18.9547 14.0328 19.2905 14.0328 19.7047C14.0328 20.1189 14.3632 20.4547 14.7707 20.4547H15.4367V21.1315C15.4367 21.5457 15.7671 21.8815 16.1746 21.8815C16.5821 21.8815 16.9125 21.5457 16.9125 21.1315V20.4547H17.5784C17.986 20.4547 18.3163 20.1189 18.3163 19.7047C18.3163 19.2905 17.986 18.9547 17.5784 18.9547H16.9125V18.2778Z" fill="#0D151F"/>
</svg>
