<svg width="24" height="24" viewBox="0 0 24 24" fill="none" xmlns="http://www.w3.org/2000/svg">
<path d="M11.6765 2C10.8576 2 10.2143 2.67397 10.2143 3.47208C10.2143 4.27312 10.8808 4.94416 11.6765 4.94416C12.1039 4.94416 12.4685 4.75953 12.7322 4.47379H13.2967L12.8155 9.70594C12.6451 11.5935 11.0935 13.0229 9.19828 13.0229C7.30561 13.0229 5.7712 11.5958 5.5809 9.70438L5.09984 4.47379H5.66438C5.92802 4.75953 6.29268 4.94416 6.72004 4.94416C7.53893 4.94416 8.18224 4.27019 8.18224 3.47208C8.18224 2.66808 7.53307 2.02045 6.72004 2.02045C6.29268 2.02045 5.92802 2.20508 5.66438 2.49082H3.99805C3.72589 2.49082 3.44784 2.60055 3.25112 2.82689L3.24458 2.83442L3.23862 2.84242C3.09127 3.04022 2.9758 3.3102 3.00436 3.60075L3.59337 9.93961C3.8416 12.522 5.75646 14.517 8.20329 14.9663V16.1924C8.20329 19.3855 10.7786 22 13.9719 22C17.1646 22 19.7406 19.4066 19.7406 16.1924V15.1142C20.4807 14.7322 21 13.9487 21 13.043C21 11.7716 19.9881 10.7529 18.7253 10.7529C17.4624 10.7529 16.4505 11.7716 16.4505 13.043C16.4505 13.9476 16.9693 14.7337 17.7303 15.0995V16.1719C17.7303 18.2544 16.0404 19.9557 13.9719 19.9557C11.9034 19.9557 10.2136 18.2544 10.2136 16.1719V14.9476C12.6626 14.5155 14.5756 12.4984 14.8236 9.91831L15.4126 3.5794C15.4398 3.30352 15.3567 3.02616 15.1657 2.80644C14.969 2.5801 14.691 2.47037 14.4188 2.47037H12.7322C12.4685 2.18463 12.1039 2 11.6765 2Z" fill="#0D151F"/>
<path d="M8.69044 5.72201C8.42292 5.72201 8.20329 5.94313 8.20329 6.21246V7.27626H7.1248L7.10327 7.27987C6.98551 7.29963 6.8803 7.35772 6.80272 7.43582C6.72681 7.51225 6.65947 7.62729 6.65947 7.76671V8.80969C6.65947 9.07902 6.8791 9.30014 7.14662 9.30014H8.20329V10.3639C8.20329 10.6333 8.42292 10.8544 8.69044 10.8544H9.72643C9.99395 10.8544 10.2136 10.6333 10.2136 10.3639V9.30014H11.2702C11.5378 9.30014 11.7574 9.07902 11.7574 8.80969V7.76671C11.7574 7.49738 11.5378 7.27626 11.2702 7.27626H10.2136V6.21246C10.2136 5.94313 9.99395 5.72201 9.72643 5.72201H8.69044Z" fill="#0D151F"/>
</svg>
