<svg width="24" height="24" viewBox="0 0 24 24" fill="none" xmlns="http://www.w3.org/2000/svg">
<path fill-rule="evenodd" clip-rule="evenodd" d="M7.92749 2C6.27064 2 4.92749 3.34314 4.92749 5V7.96207L4.3955 9.1968L3.5588 11.1572L2.0805 14.6064L2.0798 14.6089L2.07843 14.6137L2.0769 14.6189C2.0315 14.7289 2.0126 14.8442 2.008 14.96C2.00771 14.9668 2.00586 14.973 2.00401 14.9792C2.002 14.9859 2 14.9926 2 15V21C2 21.5522 2.4478 22 3 22C3.5522 22 4 21.5522 4 21V20H20V21C20 21.5522 20.4478 22 21 22C21.5522 22 22 21.5522 22 21V15C22 14.9926 21.998 14.9858 21.9959 14.9791C21.9941 14.9729 21.9922 14.9667 21.9919 14.96C21.9873 14.8442 21.9684 14.7289 21.923 14.6189L21.9216 14.6141L21.9201 14.6089L21.9194 14.6064L20.4411 11.1572L19.6045 9.1968L19.0725 7.96215V5C19.0725 3.34315 17.7294 2 16.0725 2H7.92749ZM17.0725 5.4136V5C17.0725 4.44772 16.6248 4 16.0725 4H7.92749C7.3752 4 6.92749 4.44771 6.92749 5V5.41357C6.9909 5.39373 7.05577 5.37724 7.1207 5.36073C7.1342 5.3573 7.14771 5.35386 7.1612 5.3504C7.18463 5.34434 7.20757 5.33707 7.2305 5.32981C7.26472 5.31897 7.29893 5.30813 7.3348 5.3013C7.5085 5.2682 7.6872 5.25 7.8701 5.25H10.1299C10.312 5.25 10.49 5.2682 10.6631 5.3012C10.6994 5.30806 10.7342 5.31893 10.7689 5.32981C10.792 5.33702 10.815 5.34424 10.8386 5.3503C10.8523 5.35383 10.866 5.35734 10.8797 5.36084C10.9761 5.38547 11.0723 5.41008 11.164 5.4458C11.2074 5.46265 11.2483 5.48382 11.2892 5.50502C11.3114 5.51653 11.3336 5.52806 11.3563 5.5389C11.3723 5.54657 11.3884 5.55415 11.4044 5.56173C11.4791 5.59698 11.5536 5.63216 11.6236 5.6752C11.6673 5.70212 11.7078 5.733 11.7484 5.76392C11.7674 5.77837 11.7864 5.79283 11.8057 5.8069C11.8281 5.82322 11.8511 5.83882 11.874 5.85442C11.9173 5.88382 11.9605 5.91319 12 5.9473C12.0399 5.91286 12.0834 5.88323 12.127 5.85357C12.15 5.83792 12.173 5.82227 12.1955 5.8059C12.2145 5.79202 12.2332 5.77777 12.2519 5.76354C12.2923 5.73275 12.3326 5.70204 12.376 5.6753C12.4465 5.63195 12.5214 5.59659 12.5966 5.56114C12.6128 5.55349 12.629 5.54584 12.6452 5.5381C12.668 5.52723 12.6903 5.51567 12.7126 5.50412C12.7528 5.48324 12.793 5.46241 12.8357 5.4458C12.9288 5.40957 13.0266 5.38464 13.1245 5.35968C13.1372 5.35646 13.1498 5.35324 13.1624 5.35C13.186 5.34395 13.209 5.33672 13.2321 5.3295C13.2665 5.31871 13.3009 5.30793 13.3369 5.3011C13.51 5.2682 13.688 5.25 13.8701 5.25H16.1299C16.3127 5.25 16.4915 5.2682 16.6652 5.3013C16.7015 5.30816 16.736 5.3191 16.7707 5.33006C16.7936 5.33733 16.8166 5.3446 16.8401 5.3507C16.8547 5.35447 16.8693 5.35819 16.8839 5.36192C16.9473 5.37809 17.0106 5.39424 17.0725 5.4136ZM4 18V16H20V18H4ZM17 8.1392C16.9995 8.2178 16.9902 8.251 16.9834 8.2691C16.9707 8.3038 16.9595 8.3389 16.9507 8.3746C16.8589 8.7368 16.5137 9 16.1299 9H13.8701C13.4863 9 13.1411 8.7368 13.0493 8.3745C13.0405 8.3389 13.0293 8.3037 13.0166 8.269C13.0103 8.2519 13.002 8.2221 13.0005 8.1372C13.0039 8.1118 13.0064 8.0864 13.0078 8.061C13.0356 7.6064 13.4145 7.25 13.8701 7.25H16.1299C16.5855 7.25 16.9644 7.6064 16.9922 8.061C16.9937 8.0874 16.9961 8.1133 17 8.1392ZM10.9996 8.1369C10.9993 8.1648 10.9977 8.1837 10.9958 8.2014C10.9955 8.20442 10.9953 8.20832 10.9951 8.21222C10.9949 8.21723 10.9947 8.22225 10.9942 8.2254C10.991 8.2462 10.987 8.2597 10.9835 8.269C10.9708 8.3037 10.9596 8.3388 10.9508 8.3745C10.8589 8.7368 10.5137 9 10.1299 9H7.8701C7.4863 9 7.1411 8.7368 7.0493 8.3745C7.0405 8.3389 7.0293 8.3037 7.0166 8.269C7.0103 8.252 7.002 8.2222 7.0005 8.1368C7.004 8.1115 7.0063 8.0863 7.0078 8.061C7.0356 7.6064 7.4146 7.25 7.8701 7.25H10.1299C10.5855 7.25 10.9644 7.6064 10.9922 8.061C10.9936 8.0865 10.9964 8.1115 10.9996 8.1369ZM5.73748 11.1456L5.7402 11.1416L6.0728 10.3665C6.07802 10.3707 6.08371 10.3743 6.08941 10.3778C6.09484 10.3812 6.10027 10.3846 6.1053 10.3886C6.16813 10.4379 6.2353 10.4807 6.30265 10.5237C6.31183 10.5296 6.32102 10.5354 6.3302 10.5413C6.34809 10.5528 6.36568 10.5646 6.38326 10.5764C6.41942 10.6008 6.45551 10.625 6.494 10.6461C6.56641 10.6859 6.64284 10.718 6.71938 10.7502C6.73152 10.7553 6.74367 10.7604 6.7558 10.7655C6.77642 10.7742 6.79667 10.7836 6.81691 10.793C6.85166 10.8091 6.88638 10.8251 6.9229 10.8379C7.01693 10.8707 7.11497 10.893 7.21312 10.9154C7.22018 10.917 7.22724 10.9186 7.2343 10.9202C7.25498 10.9249 7.27529 10.9306 7.29559 10.9363C7.32486 10.9446 7.35411 10.9528 7.3844 10.958C7.5427 10.985 7.7049 11 7.8701 11H10.1299C10.2995 11 10.4656 10.9833 10.628 10.9548C10.6613 10.949 10.6933 10.94 10.7253 10.9311C10.7456 10.9254 10.7658 10.9198 10.7864 10.9149C10.8926 10.8899 10.9983 10.8645 11.0998 10.828C11.1415 10.813 11.1813 10.7947 11.2212 10.7764C11.2393 10.7681 11.2574 10.7598 11.2757 10.7518C11.3647 10.7129 11.4529 10.6736 11.5371 10.6261C11.5844 10.5994 11.629 10.5695 11.6737 10.5395C11.6848 10.5321 11.6959 10.5246 11.7071 10.5172C11.7843 10.466 11.8599 10.4137 11.9316 10.3553C11.9417 10.3471 11.9525 10.3399 11.9634 10.3327C11.9759 10.3243 11.9885 10.3159 11.9999 10.306C12.0113 10.3159 12.0239 10.3243 12.0364 10.3327C12.0473 10.3399 12.0581 10.3471 12.0682 10.3553C12.1399 10.4137 12.2155 10.466 12.2927 10.5172C12.3043 10.5249 12.3158 10.5326 12.3273 10.5403C12.3717 10.57 12.4159 10.5996 12.4627 10.6261C12.5469 10.6736 12.6351 10.7129 12.7241 10.7518C12.7424 10.7598 12.7605 10.7681 12.7786 10.7764C12.8185 10.7947 12.8583 10.813 12.9 10.828C13.0016 10.8646 13.1072 10.89 13.2134 10.9149C13.2344 10.9198 13.255 10.9256 13.2756 10.9313C13.3073 10.9402 13.339 10.949 13.3718 10.9548C13.5344 10.9833 13.7005 11 13.8701 11H16.1299C16.2951 11 16.4572 10.985 16.6156 10.9579C16.6463 10.9526 16.6758 10.9443 16.7054 10.936C16.7257 10.9303 16.746 10.9246 16.7667 10.9199C16.7731 10.9184 16.7795 10.917 16.7859 10.9155C16.8844 10.8931 16.9828 10.8708 17.0772 10.8378C17.1139 10.825 17.1488 10.8089 17.1837 10.7927C17.2039 10.7834 17.2241 10.774 17.2447 10.7653C17.2563 10.7604 17.268 10.7555 17.2796 10.7506C17.3565 10.7182 17.4331 10.686 17.5059 10.646C17.5442 10.625 17.5802 10.6008 17.6162 10.5766C17.6342 10.5645 17.6522 10.5524 17.6705 10.5407C17.6816 10.5336 17.6927 10.5265 17.7038 10.5194C17.7689 10.4778 17.8338 10.4363 17.8946 10.3885C17.8996 10.3845 17.9051 10.3811 17.9105 10.3777C17.9163 10.3742 17.922 10.3706 17.9272 10.3664L18.2598 11.1415C18.2607 11.1435 18.2619 11.1452 18.2631 11.1469C18.2644 11.1486 18.2656 11.1504 18.2665 11.1524L19.4839 14H4.5161L5.7348 11.1495L5.73748 11.1456Z" fill="#0D151F"/>
</svg>
