<svg width="24" height="24" viewBox="0 0 24 24" fill="none" xmlns="http://www.w3.org/2000/svg">
<path d="M14.3508 11.1816V13.3496C14.3508 14.737 13.2255 15.8623 11.8381 15.8623C10.4509 15.8621 9.32642 14.7369 9.32642 13.3496V11.1816H14.3508Z" stroke="#0D151F" stroke-width="2"/>
<path d="M11.8389 7.71948C12.9212 7.71955 13.8563 8.01724 14.4922 8.44604C15.1339 8.87879 15.3817 9.37003 15.3818 9.78296C15.3818 10.1632 15.1694 10.6119 14.6348 11.0173H9.04199C8.5074 10.6119 8.29492 10.1631 8.29492 9.78296C8.29508 9.37006 8.54296 8.87877 9.18457 8.44604C9.82055 8.01719 10.7564 7.71948 11.8389 7.71948Z" stroke="#0D151F" stroke-width="2"/>
<path d="M11.5961 3.49829C11.8732 3.33203 12.2111 3.31108 12.5033 3.43579L12.6254 3.49829L20.6254 8.2981C20.9266 8.47882 21.1107 8.80523 21.1107 9.15649V20.0237C21.1107 20.576 20.663 21.0237 20.1107 21.0237H4.11072C3.55843 21.0237 3.11072 20.576 3.11072 20.0237V9.15649C3.11072 8.84928 3.25179 8.56147 3.48865 8.37329L3.59607 8.2981L11.5961 3.49829Z" stroke="#0D151F" stroke-width="2"/>
<path d="M6.35278 21.0234L6.35278 19.8623C6.35278 18.7579 7.24841 17.8625 8.35278 17.8623L15.3235 17.8623C16.4281 17.8623 17.3235 18.7577 17.3235 19.8623L17.3235 21.0234L6.35278 21.0234Z" stroke="#0D151F" stroke-width="2"/>
</svg>
