<svg width="24" height="24" viewBox="0 0 24 24" fill="none" xmlns="http://www.w3.org/2000/svg">
<path fill-rule="evenodd" clip-rule="evenodd" d="M12 3.5C7.30558 3.5 3.5 7.30558 3.5 12C3.5 16.6944 7.30558 20.5 12 20.5C16.6944 20.5 20.5 16.6944 20.5 12C20.5 7.30558 16.6944 3.5 12 3.5ZM1.5 12C1.5 6.20101 6.20101 1.5 12 1.5C17.799 1.5 22.5 6.20101 22.5 12C22.5 17.799 17.799 22.5 12 22.5C6.20101 22.5 1.5 17.799 1.5 12ZM10.9199 6.87437C10.9199 6.32208 11.3676 5.87437 11.9199 5.87437C15.4135 5.87437 18.2457 8.70653 18.2457 12.2002C18.2457 12.7525 17.798 13.2002 17.2457 13.2002C16.6934 13.2002 16.2457 12.7525 16.2457 12.2002C16.2457 9.8111 14.3089 7.87437 11.9199 7.87437C11.3676 7.87437 10.9199 7.42665 10.9199 6.87437ZM9.94447 12C9.94447 10.8647 10.8648 9.94444 12 9.94444C13.1353 9.94444 14.0556 10.8647 14.0556 12C14.0556 13.1352 13.1353 14.0556 12 14.0556C10.8648 14.0556 9.94447 13.1352 9.94447 12Z" fill="#0D151F"/>
</svg>
