<svg width="24" height="24" viewBox="0 0 24 24" fill="none" xmlns="http://www.w3.org/2000/svg">
<path fill-rule="evenodd" clip-rule="evenodd" d="M5.35487 3.84369C5.74923 2.59597 6.90683 1.7478 8.21539 1.7478H15.7846C17.0932 1.7478 18.2508 2.59597 18.6451 3.8437L20.0182 8.18791L20.5 8.18791C22.1569 8.18791 23.5 9.53105 23.5 11.1879V14.9961C23.5 16.653 22.1569 17.9961 20.5 17.9961H19.7277C19.3666 19.4859 18.0241 20.5922 16.4233 20.5922C14.8225 20.5922 13.4801 19.4859 13.1189 17.9961H11.2277C10.8666 19.4859 9.52414 20.5922 7.92331 20.5922C6.32248 20.5922 4.98005 19.4859 4.6189 17.9961H3.5C1.84315 17.9961 0.5 16.653 0.5 14.9961V11.1879C0.5 9.53105 1.84315 8.18791 3.5 8.18791L3.98182 8.18791L5.35487 3.84369ZM4.73967 15.9961C5.22369 14.7085 6.4665 13.7922 7.92331 13.7922C9.38012 13.7922 10.6229 14.7085 11.107 15.9961H13.2397C13.7237 14.7085 14.9665 13.7922 16.4233 13.7922C17.8801 13.7922 19.1229 14.7085 19.607 15.9961H20.5C21.0523 15.9961 21.5 15.5484 21.5 14.9961V11.1879C21.5 10.6356 21.0523 10.1879 20.5 10.1879H20.0182C19.1458 10.1879 18.3741 9.62246 18.1112 8.79065L16.7381 4.44643C16.6067 4.03053 16.2208 3.7478 15.7846 3.7478H8.21539C7.7792 3.7478 7.39334 4.03053 7.26188 4.44643L5.88883 8.79065C5.62593 9.62246 4.8542 10.1879 3.98182 10.1879H3.5C2.94771 10.1879 2.5 10.6356 2.5 11.1879V14.9961C2.5 15.5484 2.94772 15.9961 3.5 15.9961H4.73967ZM14.1806 5.69939C14.5711 6.08991 14.5711 6.72308 14.1806 7.1136L12.7728 8.52134L13.4026 8.69242C14.2923 8.9341 14.5885 10.0471 13.9366 10.699L11.7048 12.9307C11.3143 13.3213 10.6811 13.3213 10.2906 12.9307C9.90009 12.5402 9.90009 11.9071 10.2906 11.5165L11.5465 10.2607L10.9167 10.0896C10.027 9.84794 9.73079 8.73495 10.3827 8.08305L12.7664 5.69939C13.1569 5.30887 13.79 5.30887 14.1806 5.69939ZM7.92331 15.7922C7.15011 15.7922 6.52331 16.419 6.52331 17.1922C6.52331 17.9654 7.15011 18.5922 7.92331 18.5922C8.69651 18.5922 9.32331 17.9654 9.32331 17.1922C9.32331 16.419 8.69651 15.7922 7.92331 15.7922ZM16.4233 15.7922C15.6501 15.7922 15.0233 16.419 15.0233 17.1922C15.0233 17.9654 15.6501 18.5922 16.4233 18.5922C17.1965 18.5922 17.8233 17.9654 17.8233 17.1922C17.8233 16.419 17.1965 15.7922 16.4233 15.7922Z" fill="#0D151F"/>
</svg>
