<svg width="24" height="24" viewBox="0 0 24 24" fill="none" xmlns="http://www.w3.org/2000/svg">
<path fill-rule="evenodd" clip-rule="evenodd" d="M1 4C1 2.34314 2.34315 1 4 1H20C21.6569 1 23 2.34315 23 4V20C23 21.6569 21.6569 23 20 23H4C2.34315 23 1 21.6569 1 20V4ZM4 3C3.44771 3 3 3.44772 3 4V6.48894H21V4C21 3.44772 20.5523 3 20 3H4ZM21 8.48894H13V21H20C20.5523 21 21 20.5523 21 20V8.48894ZM11 21V8.48894H3V20C3 20.5523 3.44772 21 4 21H11ZM5.17126 4.73361C5.17126 4.18133 5.61898 3.73361 6.17126 3.73361H6.18212C6.73441 3.73361 7.18212 4.18133 7.18212 4.73361C7.18212 5.2859 6.73441 5.73361 6.18212 5.73361H6.17126C5.61898 5.73361 5.17126 5.2859 5.17126 4.73361ZM9.05347 4.73361C9.05347 4.18133 9.50118 3.73361 10.0535 3.73361H10.0643C10.6166 3.73361 11.0643 4.18133 11.0643 4.73361C11.0643 5.2859 10.6166 5.73361 10.0643 5.73361H10.0535C9.50118 5.73361 9.05347 5.2859 9.05347 4.73361ZM12.9357 4.73361C12.9357 4.18133 13.3834 3.73361 13.9357 3.73361H13.9465C14.4988 3.73361 14.9465 4.18133 14.9465 4.73361C14.9465 5.2859 14.4988 5.73361 13.9465 5.73361H13.9357C13.3834 5.73361 12.9357 5.2859 12.9357 4.73361ZM16.8179 4.73361C16.8179 4.18133 17.2656 3.73361 17.8179 3.73361H17.8287C18.381 3.73361 18.8287 4.18133 18.8287 4.73361C18.8287 5.2859 18.381 5.73361 17.8287 5.73361H17.8179C17.2656 5.73361 16.8179 5.2859 16.8179 4.73361ZM9.05139 12.2729C9.47592 12.6261 9.53368 13.2567 9.18041 13.6812L8.59811 14.3809L9.18042 15.0807C9.53368 15.5053 9.47591 16.1358 9.05138 16.489C8.62685 16.8423 7.99632 16.7845 7.64306 16.36L6.79462 15.3404C6.33198 14.7844 6.33198 13.9774 6.79464 13.4215L7.64307 12.4019C7.99634 11.9774 8.62687 11.9196 9.05139 12.2729ZM14.9487 12.2729C15.3733 11.9196 16.0038 11.9774 16.3571 12.4019L17.2055 13.4215C17.6682 13.9774 17.6682 14.7844 17.2055 15.3404L16.3571 16.36C16.0038 16.7845 15.3733 16.8423 14.9488 16.489C14.5242 16.1358 14.4665 15.5053 14.8197 15.0807L15.402 14.3809L14.8197 13.6812C14.4665 13.2567 14.5242 12.6261 14.9487 12.2729Z" fill="#0D151F"/>
</svg>
