<svg width="24" height="24" viewBox="0 0 24 24" fill="none" xmlns="http://www.w3.org/2000/svg">
<path fill-rule="evenodd" clip-rule="evenodd" d="M1.83337 4.83325C1.83337 3.1764 3.17652 1.83325 4.83337 1.83325H19.1667C20.8236 1.83325 22.1667 3.1764 22.1667 4.83325V19.1666C22.1667 20.8234 20.8236 22.1666 19.1667 22.1666H4.83338C3.17652 22.1666 1.83337 20.8234 1.83337 19.1666V4.83325ZM4.83337 3.83325C4.28109 3.83325 3.83337 4.28097 3.83337 4.83325V19.1666C3.83337 19.7189 4.28109 20.1666 4.83338 20.1666H19.1667C19.719 20.1666 20.1667 19.7189 20.1667 19.1666V4.83325C20.1667 4.28097 19.719 3.83325 19.1667 3.83325H4.83337ZM5.43119 7.83327C5.43119 7.28099 5.87891 6.83327 6.43119 6.83327H10.709C11.2613 6.83327 11.709 7.28099 11.709 7.83327C11.709 8.38556 11.2613 8.83327 10.709 8.83327H7.43119V10.8796H10.5098C11.0621 10.8796 11.5098 11.3273 11.5098 11.8796C11.5098 12.4319 11.0621 12.8796 10.5098 12.8796H7.43119V15.1666H10.709C11.2613 15.1666 11.709 15.6143 11.709 16.1666C11.709 16.7189 11.2613 17.1666 10.709 17.1666H6.43119C5.87891 17.1666 5.43119 16.7189 5.43119 16.1666V7.83327ZM12.9141 10.7499C12.9141 10.1977 13.3618 9.74994 13.9141 9.74994C14.2263 9.74994 14.5051 9.89303 14.6885 10.1172C15.0504 9.96791 15.4334 9.90096 15.8242 9.90096C16.5746 9.90096 17.2721 10.1412 17.8084 10.691L17.812 10.6947C18.3417 11.2434 18.5688 11.9441 18.5688 12.6931V16.1666C18.5688 16.7189 18.1211 17.1666 17.5688 17.1666C17.0166 17.1666 16.5688 16.7189 16.5688 16.1666V12.6931C16.5688 12.3633 16.4795 12.1948 16.3749 12.0857C16.2762 11.9852 16.1281 11.901 15.8242 11.901C15.6626 11.901 15.5421 11.9282 15.449 11.967C15.3395 12.0146 15.2525 12.0767 15.1789 12.1549L15.1723 12.162C15.0976 12.2399 15.0374 12.3337 14.9928 12.4548L14.9887 12.466C14.9442 12.5824 14.9141 12.7312 14.9141 12.9247V16.1666C14.9141 16.7189 14.4664 17.1666 13.9141 17.1666C13.3618 17.1666 12.9141 16.7189 12.9141 16.1666V10.7499Z" fill="#0D151F"/>
</svg>
