<svg width="24" height="24" viewBox="0 0 24 24" fill="none" xmlns="http://www.w3.org/2000/svg">
<path fill-rule="evenodd" clip-rule="evenodd" d="M2 5.72046C2 4.33974 3.11929 3.22046 4.5 3.22046H19.5C20.8807 3.22046 22 4.33975 22 5.72046V14.7205C22 16.1012 20.8807 17.2205 19.5 17.2205H4.5C3.11929 17.2205 2 16.1012 2 14.7205V5.72046ZM4.5 5.22046C4.22386 5.22046 4 5.44432 4 5.72046V14.7205C4 14.9966 4.22386 15.2205 4.5 15.2205H19.5C19.7761 15.2205 20 14.9966 20 14.7205V5.72046C20 5.44432 19.7761 5.22046 19.5 5.22046H4.5ZM10.75 9.31074V11.3357L12.9015 10.3232L10.75 9.31074ZM8.75 7.89254C8.75 7.08623 9.5888 6.55391 10.3184 6.89724L15.4835 9.3279C16.3257 9.72421 16.3257 10.9222 15.4835 11.3185L10.3184 13.7492L9.89258 12.8443L10.3184 13.7492C9.58881 14.0925 8.75 13.5602 8.75 12.7539V7.89254ZM5.32153 19.7793C5.32153 19.227 5.76925 18.7793 6.32153 18.7793H17.9684C18.5207 18.7793 18.9684 19.227 18.9684 19.7793C18.9684 20.3316 18.5207 20.7793 17.9684 20.7793H6.32153C5.76925 20.7793 5.32153 20.3316 5.32153 19.7793Z" fill="#0D151F"/>
</svg>
