<svg width="24" height="24" viewBox="0 0 24 24" fill="none" xmlns="http://www.w3.org/2000/svg">
<path fill-rule="evenodd" clip-rule="evenodd" d="M9.46483 3.67763C9.69482 2.28165 10.9072 1.2168 12.3684 1.2168C13.9936 1.2168 15.3112 2.53434 15.3112 4.1596C15.3112 5.78487 13.9936 7.1024 12.3684 7.1024C11.3131 7.1024 10.3876 6.54696 9.86816 5.7125C9.40762 5.98939 9.10014 6.33896 8.88931 6.69342C8.5432 7.27536 8.40513 7.96107 8.39223 8.57487H20.0002C21.1048 8.57487 22.0002 9.4703 22.0002 10.5749V13.2206C22.0002 14.2228 21.2632 15.0527 20.3016 15.1981L19.3727 21.158C19.2877 21.7037 18.7763 22.0771 18.2307 21.9921C17.685 21.907 17.3115 21.3957 17.3966 20.85L18.274 15.2206H5.728L6.60537 20.85C6.69042 21.3957 6.317 21.907 5.7713 21.9921C5.2256 22.0771 4.71428 21.7037 4.62923 21.158L3.70034 15.1981C2.73876 15.0527 2.00171 14.2228 2.00171 13.2206V10.5749C2.00171 9.4703 2.89714 8.57487 4.00171 8.57487H6.39235C6.40534 7.6663 6.60747 6.61747 7.17037 5.67105C7.6713 4.82884 8.42309 4.12602 9.46483 3.67763ZM4.00171 10.5749V13.2206L20.0002 13.2206V10.5749H4.00171Z" fill="#0D151F"/>
</svg>
