<svg width="24" height="24" viewBox="0 0 24 24" fill="none" xmlns="http://www.w3.org/2000/svg">
<path fill-rule="evenodd" clip-rule="evenodd" d="M20.652 10.7395C23.0297 12.7668 22.1171 16.5189 19.0502 17.3248L11.2915 19.3635C9.73883 19.7715 8.08277 19.2469 7.08753 18.0318L2.8594 12.8699C1.10845 10.7322 2.15825 7.57209 4.87475 6.80329L12.4683 4.65426C13.5854 4.3381 14.7909 4.51303 15.7609 5.13204L19.1952 7.32359C20.2076 7.96965 20.3676 9.18162 19.8362 10.044L20.652 10.7395ZM18.0573 9.09481C18.09 9.08671 18.1011 9.07589 18.1065 9.06992C18.1152 9.06039 18.1253 9.04326 18.1296 9.01926C18.1338 8.99526 18.1301 8.97589 18.1251 8.96414C18.122 8.95678 18.1153 8.94308 18.0871 8.92513L14.6529 6.73357C14.176 6.42926 13.5834 6.34327 13.0342 6.49869L5.44068 8.64773C4.08243 9.03213 3.55753 10.6122 4.43301 11.681L8.66113 16.843C9.15875 17.4505 9.98678 17.7128 10.7631 17.5088L18.5219 15.4701C20.0553 15.0672 20.5116 13.1911 19.3227 12.1775L18.0409 11.0845L11.3901 12.73C10.9237 12.8454 10.6767 13.3352 10.8717 13.7582C11.0283 14.0981 11.4207 14.2769 11.7952 14.1778C13.0531 13.8446 14.5154 13.4606 15.6885 13.1595C16.2745 13.0092 16.7918 12.8786 17.1766 12.7852C17.3683 12.7387 17.5326 12.7001 17.6583 12.6726C17.7204 12.659 17.7804 12.6465 17.8329 12.6369C17.8338 12.6367 17.8352 12.6365 17.8368 12.6362C17.8636 12.6311 17.976 12.61 18.0923 12.61C18.6452 12.61 19.0934 13.0404 19.0934 13.5714C19.0934 14.068 18.7014 14.4767 18.1983 14.5275C18.1785 14.5313 18.1475 14.5377 18.1031 14.5474C18.0002 14.5699 17.8535 14.6043 17.667 14.6495C17.2956 14.7396 16.7887 14.8675 16.2054 15.0172C15.0398 15.3163 13.5834 15.6988 12.3274 16.0314C10.998 16.3835 9.59961 15.7487 9.04088 14.5365C8.34536 13.0274 9.22663 11.2796 10.8907 10.8679L18.0573 9.09481ZM18.2265 14.5227C18.2261 14.5228 18.2209 14.5238 18.2119 14.525C18.2223 14.5231 18.2268 14.5225 18.2265 14.5227Z" fill="#0D151F"/>
</svg>
