<svg width="24" height="24" viewBox="0 0 24 24" fill="none" xmlns="http://www.w3.org/2000/svg">
<path d="M17.2427 9.57066C17.2427 10.1229 16.7949 10.5707 16.2427 10.5707C15.6904 10.5707 15.2427 10.1229 15.2427 9.57066L15.2427 7.28539L12.9573 7.2854C12.405 7.2854 11.9573 6.83768 11.9573 6.2854C11.9573 5.73311 12.405 5.2854 12.9573 5.2854L15.2427 5.28539L15.2427 3C15.2427 2.44771 15.6904 2 16.2427 2C16.795 2 17.2427 2.44771 17.2427 3L17.2427 5.28539L19.5279 5.28539C20.0802 5.28539 20.5279 5.7331 20.5279 6.28539C20.5279 6.83767 20.0802 7.28539 19.5279 7.28539L17.2427 7.28539L17.2427 9.57066Z" fill="#0D151F"/>
<path fill-rule="evenodd" clip-rule="evenodd" d="M3 6.79996C3.55228 6.79996 4 7.24768 4 7.79996V13.3999H5.58987C5.18152 13.274 4.88476 12.8937 4.88476 12.4441C4.88476 11.8918 5.33248 11.4441 5.88476 11.4441H9.48476C10.037 11.4441 10.4848 11.8918 10.4848 12.4441C10.4848 12.8937 10.188 13.274 9.77965 13.3999H20V12.6C20 12.0477 20.4477 11.6 21 11.6C21.5523 11.6 22 12.0477 22 12.6V21C22 21.5522 21.5523 22 21 22C20.4477 22 20 21.5522 20 21V19.0001H4V21C4 21.5522 3.55228 22 3 22C2.44772 22 2 21.5522 2 21V7.79996C2 7.24768 2.44772 6.79996 3 6.79996ZM4 17.0001H20V15.3999H4V17.0001Z" fill="#0D151F"/>
</svg>
