<svg width="24" height="24" viewBox="0 0 24 24" fill="none" xmlns="http://www.w3.org/2000/svg">
<path fill-rule="evenodd" clip-rule="evenodd" d="M12.1151 3.5C9.02017 3.5 6.46886 5.44642 5.59317 8.06764H18.6371C17.7614 5.44642 15.2101 3.5 12.1151 3.5ZM20.7201 8.06764C19.7898 4.30057 16.2902 1.5 12.1151 1.5C7.94006 1.5 4.44044 4.30057 3.5102 8.06764C3.50175 8.10186 3.49352 8.13615 3.48549 8.17053H2.23029C1.678 8.17053 1.23029 8.61825 1.23029 9.17053C1.23029 9.72282 1.678 10.1705 2.23029 10.1705H22C22.5523 10.1705 23 9.72282 23 9.17053C23 8.61825 22.5523 8.17053 22 8.17053H20.7448C20.7368 8.13615 20.7285 8.10186 20.7201 8.06764ZM2 11.4757C1.44772 11.4757 1 11.9234 1 12.4757C1 13.028 1.44772 13.4757 2 13.4757H7.12102L9.91705 16.2669V17.4135L7.63343 15.7418C7.18779 15.4156 6.56207 15.5124 6.23584 15.958C5.90961 16.4036 6.00641 17.0294 6.45205 17.3556L9.21942 19.3814C9.39081 19.5069 9.5977 19.5745 9.81011 19.5745H16.6492C16.8143 19.5745 16.9767 19.6154 17.1222 19.6935L18.0026 20.1661C18.0602 20.197 18.0962 20.2571 18.0962 20.3225C18.0962 20.4205 18.0167 20.5 17.9187 20.5H7.38846L3.04812 17.0915C2.61376 16.7504 1.98512 16.826 1.64402 17.2604C1.30292 17.6947 1.37852 18.3233 1.81288 18.6644L6.42512 22.2864C6.60127 22.4248 6.81876 22.5 7.04274 22.5H17.9187C19.1213 22.5 20.0962 21.5251 20.0962 20.3225C20.0962 19.5204 19.6552 18.7833 18.9486 18.404L18.0681 17.9313C17.6318 17.6971 17.1444 17.5745 16.6492 17.5745H11.9171V15.8521C11.9171 15.5866 11.8115 15.332 11.6235 15.1444L8.24121 11.768C8.05373 11.5808 7.79964 11.4757 7.53473 11.4757H2Z" fill="#0D151F"/>
</svg>
