<svg width="24" height="24" viewBox="0 0 24 24" fill="none" xmlns="http://www.w3.org/2000/svg">
<path fill-rule="evenodd" clip-rule="evenodd" d="M1.51428 4.5C1.51428 2.84315 2.85743 1.5 4.51428 1.5H19.4857C21.1426 1.5 22.4857 2.84315 22.4857 4.5V19.4714C22.4857 21.1283 21.1426 22.4714 19.4857 22.4714H8.6749C8.5885 22.4899 8.49721 22.5 8.4013 22.5H6.02987C5.93395 22.5 5.84267 22.4899 5.75626 22.4714H4.51428C2.85743 22.4714 1.51428 21.1283 1.51428 19.4714V4.5ZM7.79653 20.4714H6.63463V15.7204C6.63463 15.342 6.74693 15.1343 6.83856 15.0332C6.92707 14.9356 7.04908 14.8759 7.21558 14.8759C7.38209 14.8759 7.50409 14.9356 7.59261 15.0332C7.68423 15.1343 7.79653 15.342 7.79653 15.7204V20.4714ZM9.79653 20.4714V15.7204C9.79653 14.9346 9.55493 14.2201 9.07436 13.6899C8.59069 13.1564 7.92221 12.8759 7.21558 12.8759C6.50895 12.8759 5.84048 13.1564 5.3568 13.6899C4.87623 14.22 4.63463 14.9346 4.63463 15.7204V20.4714H4.51428C3.962 20.4714 3.51428 20.0237 3.51428 19.4714V4.5C3.51428 3.94772 3.962 3.5 4.51428 3.5H19.4857C20.038 3.5 20.4857 3.94772 20.4857 4.5V19.4714C20.4857 20.0036 20.07 20.4387 19.5456 20.4697C19.5457 20.4618 19.5457 20.4539 19.5457 20.446V16.5108C19.5457 15.7251 19.3041 15.0105 18.8236 14.4804C18.3399 13.9469 17.6714 13.6664 16.9648 13.6664C16.2582 13.6664 15.5897 13.9469 15.106 14.4804C14.6254 15.0105 14.3838 15.7251 14.3838 16.5108V20.446C14.3838 20.4545 14.3839 20.463 14.384 20.4714H13.0901V17.5073C13.0901 16.955 12.6424 16.5073 12.0901 16.5073C11.5379 16.5073 11.0901 16.955 11.0901 17.5073V20.4714H9.79653ZM7.34643 8.40381C6.88005 8.40381 6.50198 8.78188 6.50198 9.24825C6.50198 9.71463 6.88005 10.0927 7.34643 10.0927C7.8128 10.0927 8.19087 9.71463 8.19087 9.24825C8.19087 8.78188 7.8128 8.40381 7.34643 8.40381ZM4.50198 9.24825C4.50198 7.67731 5.77548 6.40381 7.34643 6.40381C8.91737 6.40381 10.1909 7.67731 10.1909 9.24825C10.1909 10.8192 8.91737 12.0927 7.34643 12.0927C5.77548 12.0927 4.50198 10.8192 4.50198 9.24825ZM14.3838 9.90106C14.3838 8.47564 15.5394 7.32011 16.9648 7.32011C18.3902 7.32011 19.5457 8.47564 19.5457 9.90106V11.4673C19.5457 11.6461 19.4979 11.8174 19.4127 11.9657C19.3244 12.1193 19.1974 12.2469 19.0445 12.3359C17.7584 13.0844 16.1691 13.0841 14.8833 12.3348C14.7316 12.2464 14.6053 12.1196 14.5174 11.9667C14.4299 11.8143 14.3838 11.6415 14.3838 11.4658V9.90106ZM16.9648 9.32011C16.6439 9.32011 16.3838 9.58021 16.3838 9.90106V10.8165C16.7635 10.9239 17.1661 10.9239 17.5457 10.8165V9.90106C17.5457 9.58021 17.2856 9.32011 16.9648 9.32011ZM12.2089 13.753C12.2088 13.7532 12.2087 13.7534 12.2085 13.7536C12.208 13.7546 12.2078 13.755 12.2078 13.755C12.2078 13.755 12.2078 13.755 12.2078 13.7549L12.2081 13.7539C12.2081 13.7536 12.2081 13.7536 12.2081 13.7539C12.2081 13.7542 12.2082 13.7546 12.2083 13.7551C12.2084 13.7554 12.2085 13.7556 12.2086 13.7558C12.2088 13.756 12.209 13.7561 12.2092 13.7562C12.2095 13.7564 12.2097 13.7565 12.2099 13.7566C12.2101 13.7566 12.2104 13.7565 12.2107 13.7564C12.211 13.7563 12.2112 13.7563 12.2114 13.7562C12.2116 13.756 12.2117 13.7558 12.2118 13.7555C12.212 13.7553 12.2121 13.7551 12.2122 13.7549C12.2122 13.7547 12.2121 13.7544 12.212 13.7541C12.2118 13.7534 12.2117 13.753 12.2116 13.7528C12.2115 13.7527 12.2115 13.7527 12.2116 13.7529L12.2122 13.7536C12.212 13.7535 12.2117 13.7532 12.2111 13.7529C12.2109 13.7528 12.2107 13.7527 12.2105 13.7526C12.2103 13.7526 12.21 13.7527 12.2097 13.7527C12.2094 13.7528 12.2091 13.7529 12.2089 13.753ZM10.4765 12.7536C11.0293 11.7961 12.2536 11.4681 13.2111 12.0209C14.1686 12.5737 14.4967 13.798 13.9439 14.7555C13.3911 15.713 12.1667 16.0411 11.2092 15.4883C10.2517 14.9355 9.92366 13.7111 10.4765 12.7536ZM16.5878 15.8237C16.4961 15.9248 16.3838 16.1324 16.3838 16.5108V19.973H17.5457V16.5108C17.5457 16.1324 17.4334 15.9248 17.3418 15.8237C17.2533 15.7261 17.1313 15.6664 16.9648 15.6664C16.7983 15.6664 16.6763 15.7261 16.5878 15.8237Z" fill="#0D151F"/>
</svg>
