<svg width="24" height="24" viewBox="0 0 24 24" fill="none" xmlns="http://www.w3.org/2000/svg">
<path fill-rule="evenodd" clip-rule="evenodd" d="M15.9796 16.7539C15.9796 18.2796 14.927 19.5595 13.5084 19.9069L13.5084 13.6008C14.927 13.9483 15.9796 15.2282 15.9796 16.7539ZM15.7927 12.4916C17.1171 13.4439 17.9796 14.9982 17.9796 16.7539C17.9796 19.6512 15.6308 22 12.7334 22L12.5869 22C11.9912 22 11.5084 21.5171 11.5084 20.9215L11.5084 15.7926C10.5561 17.117 9.00183 17.9794 7.24612 17.9794C4.34877 17.9794 2 15.6307 2 12.7333L2 12.5868C2 11.9911 2.48287 11.5082 3.07853 11.5082L8.20719 11.5082C6.88287 10.556 6.02045 9.00173 6.02045 7.24606C6.02045 4.3487 8.36922 1.99993 11.2666 1.99993L11.4131 1.99993C12.0088 1.99993 12.4916 2.48281 12.4916 3.07846L12.4916 8.20727C13.4439 6.8829 14.9982 6.02044 16.7539 6.02044C19.6512 6.02044 22 8.36921 22 11.2666L22 11.4131C22 12.0087 21.5171 12.4916 20.9215 12.4916L15.7927 12.4916ZM8.02045 7.24606C8.02045 8.77177 9.07303 10.0516 10.4916 10.3991L10.4916 4.09301C9.07303 4.44048 8.02045 5.72035 8.02045 7.24606ZM4.09307 13.5082C4.44054 14.9268 5.72041 15.9794 7.24612 15.9794C8.77183 15.9794 10.0517 14.9268 10.3992 13.5082L4.09307 13.5082ZM16.7539 8.02044C15.2282 8.02044 13.9483 9.07302 13.6008 10.4916L19.9069 10.4916C19.5595 9.07302 18.2796 8.02044 16.7539 8.02044Z" fill="#0D151F"/>
</svg>
