<svg width="24" height="24" viewBox="0 0 24 24" fill="none" xmlns="http://www.w3.org/2000/svg">
<path fill-rule="evenodd" clip-rule="evenodd" d="M6.65991 3.5C6.65991 2.67157 7.33148 2 8.15991 2H15.8402C16.6686 2 17.3402 2.67157 17.3402 3.5V7.00042H20.5C21.3284 7.00042 22 7.672 22 8.50042V18.374C22 19.2024 21.3284 19.874 20.5 19.874H17.3402V20.5C17.3402 21.3284 16.6686 22 15.8402 22H8.15991C7.33149 22 6.65991 21.3284 6.65991 20.5V19.874H3.5C2.67157 19.874 2 19.2024 2 18.374V8.50042C2 7.672 2.67157 7.00042 3.5 7.00042H6.65991V3.5ZM8.65991 7.00042H15.3402V4H8.65991V7.00042ZM6.65991 17.874V16.4016H6.17273C5.62044 16.4016 5.17273 15.9539 5.17273 15.4016C5.17273 14.8494 5.62044 14.4016 6.17273 14.4016H17.8759C18.4282 14.4016 18.8759 14.8494 18.8759 15.4016C18.8759 15.9539 18.4282 16.4016 17.8759 16.4016H17.3402V17.874H20V9.00042H4V17.874H6.65991ZM15.3402 16.4016H8.65991V20H15.3402V16.4016Z" fill="#0D151F"/>
</svg>
