<svg width="24" height="24" viewBox="0 0 24 24" fill="none" xmlns="http://www.w3.org/2000/svg">
<path fill-rule="evenodd" clip-rule="evenodd" d="M11.8272 2.66447C11.8845 1.87372 12.5442 1.25 13.3496 1.25H14.4531C15.2387 1.25 15.8856 1.8434 15.9702 2.6064H17.9724C18.5246 2.6064 18.9724 3.05411 18.9724 3.6064C18.9724 4.15868 18.5246 4.6064 17.9724 4.6064H15.796C15.5993 4.96919 15.2599 5.24333 14.8531 5.35349V5.84855C17.2519 6.31583 19.0625 8.42844 19.0625 10.9639V21.4735C19.0625 22.3166 18.3791 23 17.536 23H10.1656C9.32258 23 8.63916 22.3166 8.63916 21.4735V10.9639C8.63916 8.42684 10.4521 6.31317 12.8531 5.84767V5.32388C12.5063 5.20467 12.216 4.96405 12.0329 4.65278C9.29131 5.00456 6.9375 7.30937 6.9375 9.92391V13.9113C6.9375 14.4636 6.48978 14.9113 5.9375 14.9113C5.38522 14.9113 4.9375 14.4636 4.9375 13.9113V9.92391C4.9375 6.11315 8.22745 3.11323 11.8272 2.66447ZM13.8508 7.75227C12.0771 7.75227 10.6392 9.19018 10.6392 10.9639V16.5527H17.0625V10.9639C17.0625 9.19018 15.6246 7.75227 13.8508 7.75227ZM17.0625 18.5527H10.6392V21H17.0625V18.5527Z" fill="#0D151F"/>
</svg>
