<svg width="24" height="24" viewBox="0 0 24 24" fill="none" xmlns="http://www.w3.org/2000/svg">
<path fill-rule="evenodd" clip-rule="evenodd" d="M0.477661 3.83228C0.477661 2.72771 1.37309 1.83228 2.47766 1.83228H21.5221C22.6267 1.83228 23.5221 2.72771 23.5221 3.83228V6.5636C23.5221 7.50346 22.8738 8.2919 22 8.50614V20.1654C22 21.27 21.1046 22.1654 20 22.1654H18.7174V22.1676H5.28263V22.1654H4C2.89543 22.1654 2 21.27 2 20.1654V8.5062C1.12607 8.29205 0.477661 7.50354 0.477661 6.5636V3.83228ZM16.587 6.5636H21.5221V3.83228H16.587V6.5636ZM14.587 3.83228H9.41276V6.5636H14.587V3.83228ZM7.41276 6.5636V3.83228H2.47766V6.5636H7.41276ZM4 8.56714V20.1654H5.28263V16.8017C5.28263 13.0918 8.2901 10.0843 12 10.0843C15.7099 10.0843 18.7174 13.0918 18.7174 16.8017V20.1654H20V8.56714H4ZM16.7174 20.1654V16.8017C16.7174 14.1963 14.6053 12.0843 12 12.0843C9.39467 12.0843 7.28263 14.1963 7.28263 16.8017V20.1654H10.4182C9.63594 19.5086 9.19415 18.4241 9.19415 17.376C9.19415 15.7165 10.3016 13.9658 12.1144 13.9658C12.4341 13.9658 12.7377 14.0856 12.9692 14.3117C13.1728 14.5105 13.2678 14.7396 13.3156 14.8908C13.406 15.1768 13.4191 15.498 13.4264 15.6827C13.4289 15.7463 13.4308 15.8034 13.4325 15.8555C13.4342 15.9065 13.4357 15.9527 13.4375 15.9957C13.5935 16.0017 13.9092 16.0302 14.199 16.211C14.6679 16.5035 14.8058 16.9855 14.8058 17.376C14.8058 18.1842 14.6165 18.9939 14.1903 19.6342C14.0605 19.8292 13.9076 20.0089 13.733 20.1654H16.7174ZM11.4611 16.3973C11.3075 16.6232 11.1942 16.9445 11.1942 17.376C11.1942 18.3787 11.8062 18.7861 12.1144 18.7861C12.2547 18.7861 12.3876 18.7332 12.5254 18.5261C12.6163 18.3894 12.6975 18.1958 12.7488 17.9529C12.4814 17.9022 12.1216 17.7724 11.8381 17.4283C11.5526 17.0818 11.4907 16.6551 11.4664 16.4453C11.4645 16.4294 11.4628 16.4134 11.4611 16.3973Z" fill="#0D151F"/>
</svg>
