<svg width="24" height="24" viewBox="0 0 24 24" fill="none" xmlns="http://www.w3.org/2000/svg">
<path fill-rule="evenodd" clip-rule="evenodd" d="M4.49463 3.46764C6.44725 1.51502 9.61307 1.51502 11.5657 3.46764L11.9998 3.90171L12.4338 3.46764C14.3865 1.51502 17.5523 1.51502 19.5049 3.46764L20.5321 4.49483L19.825 5.20194L20.5321 4.49483C22.4847 6.44745 22.4847 9.61328 20.5321 11.5659L20.098 12L20.5321 12.4341C22.4847 14.3867 22.4848 17.5525 20.5321 19.5051L19.5049 20.5323C17.5523 22.485 14.3865 22.485 12.4339 20.5323L11.9998 20.0982L11.5657 20.5323C9.61303 22.485 6.4472 22.485 4.49458 20.5323L5.20169 19.8252L4.49458 20.5323L3.4674 19.5051C1.51477 17.5525 1.51478 14.3867 3.4674 12.4341L3.90151 12L3.46744 11.5659C1.51482 9.61328 1.51481 6.44745 3.46744 4.49483L4.49463 3.46764ZM5.31572 13.4142L4.88161 13.8483C3.71004 15.0199 3.71004 16.9194 4.88161 18.0909L5.9088 19.1181C7.08037 20.2897 8.97986 20.2897 10.1514 19.1181L10.5855 18.684L5.31572 13.4142ZM18.6838 10.5858L19.1179 10.1517C20.2894 8.98011 20.2894 7.08062 19.1179 5.90904L18.0907 4.88186C16.9191 3.71028 15.0196 3.71028 13.848 4.88186L13.414 5.31592L18.6838 10.5858ZM10.1515 4.88185C8.97991 3.71028 7.08041 3.71028 5.90884 4.88186L4.88165 5.90904C3.71008 7.08062 3.71008 8.98011 4.88165 10.1517L13.8481 19.1181C15.0197 20.2897 16.9192 20.2897 18.0907 19.1181L19.1179 18.0909C20.2895 16.9194 20.2895 15.0199 19.1179 13.8483L10.1515 4.88185ZM11.9838 8.97971C12.536 8.97971 12.9838 9.42743 12.9838 9.97971V9.98071C12.9838 10.533 12.536 10.9807 11.9838 10.9807C11.4315 10.9807 10.9838 10.533 10.9838 9.98071V9.97971C10.9838 9.42743 11.4315 8.97971 11.9838 8.97971ZM8.97912 11.9841C8.97912 11.4318 9.42684 10.9841 9.97912 10.9841H9.98012C10.5324 10.9841 10.9801 11.4318 10.9801 11.9841C10.9801 12.5364 10.5324 12.9841 9.98012 12.9841H9.97912C9.42684 12.9841 8.97912 12.5364 8.97912 11.9841ZM12.9869 11.9841C12.9869 11.4318 13.4346 10.9841 13.9869 10.9841H13.9879C14.5402 10.9841 14.9879 11.4318 14.9879 11.9841C14.9879 12.5364 14.5402 12.9841 13.9879 12.9841H13.9869C13.4346 12.9841 12.9869 12.5364 12.9869 11.9841ZM11.9838 12.9874C12.536 12.9874 12.9838 13.4351 12.9838 13.9874V13.9884C12.9838 14.5406 12.536 14.9884 11.9838 14.9884C11.4315 14.9884 10.9838 14.5406 10.9838 13.9884V13.9874C10.9838 13.4351 11.4315 12.9874 11.9838 12.9874Z" fill="#0D151F"/>
</svg>
