<svg width="24" height="24" viewBox="0 0 24 24" fill="none" xmlns="http://www.w3.org/2000/svg">
<path fill-rule="evenodd" clip-rule="evenodd" d="M4.51908 13.4258C3.80473 14.2179 3.22312 14.9668 2.81346 15.5664C2.50248 16.0216 1.88359 16.1369 1.43112 15.8241C0.978659 15.5113 0.863957 14.8887 1.17493 14.4336C1.64591 13.7443 2.30851 12.8932 3.12075 12C2.30851 11.1068 1.64591 10.2557 1.17493 9.56641C0.863957 9.11126 0.978659 8.4887 1.43112 8.17588C1.88359 7.86306 2.50248 7.97844 2.81346 8.43359C3.22312 9.03318 3.80473 9.78205 4.51908 10.5742C5.0108 10.1099 5.53613 9.65095 6.0894 9.2136C8.27035 7.4896 11.0135 6 13.9234 6C14.9169 6 15.8221 6.11375 16.644 6.31542M4.51908 13.4258C5.0108 13.8901 5.53613 14.3491 6.0894 14.7864C8.27035 16.5104 11.0135 18 13.9234 18C14.917 18 15.8224 17.8862 16.6443 17.6845C18.6493 17.193 20.1823 15.8419 21.1792 14.7004C21.6856 14.1205 22.0747 13.5705 22.3382 13.1643C22.4703 12.9606 22.5718 12.7915 22.6416 12.6709C22.6765 12.6105 22.7036 12.5622 22.7226 12.5275L22.7452 12.486L22.7519 12.4734L22.7542 12.4691L22.755 12.4675C22.7551 12.4673 22.7556 12.4663 21.8762 12L22.7556 12.4663L23 12L22.7556 11.5337L21.8762 12C22.7556 11.5337 22.7558 11.534 22.7556 11.5337L22.755 11.5325L22.7542 11.5309L22.7519 11.5266L22.7452 11.514L22.7226 11.4725C22.7036 11.4378 22.6765 11.3895 22.6416 11.3291C22.5718 11.2085 22.4703 11.0394 22.3382 10.8357C22.0747 10.4295 21.6856 9.87955 21.1792 9.29964C20.1823 8.15812 18.649 6.80692 16.644 6.31542M20.719 12C20.7042 11.9769 20.6889 11.953 20.6731 11.9286C20.4488 11.5828 20.116 11.1126 19.6855 10.6196C18.8085 9.61544 17.6078 8.61014 16.1734 8.25858C15.6883 8.13955 15.157 8.05598 14.5763 8.01993L14.3677 8.52033C13.4401 10.7463 13.4401 13.2537 14.3677 15.4797L14.5763 15.9801C15.157 15.944 15.688 15.8605 16.1731 15.7415C17.6075 15.3899 18.8085 14.3846 19.6855 13.3804C20.116 12.8874 20.4488 12.4172 20.6731 12.0714C20.6889 12.047 20.7042 12.0231 20.719 12ZM12.3656 15.8235C10.6193 15.4377 8.88701 14.4542 7.31786 13.2138C6.82456 12.8239 6.35491 12.4145 5.91421 12C6.35491 11.5855 6.82456 11.1761 7.31786 10.7862C8.88701 9.54577 10.6193 8.56225 12.3656 8.17654C11.4565 10.6432 11.4565 13.3568 12.3656 15.8235ZM20.9976 11.5323C20.9977 11.5321 20.9977 11.532 20.9976 11.5323Z" fill="#0D151F"/>
<path d="M16.0027 12.8531C16.2276 13.0793 16.5326 13.2064 16.8507 13.2064C17.1688 13.2064 17.4738 13.0793 17.6987 12.8531C17.9236 12.6268 18.05 12.32 18.05 12C18.05 11.68 17.9236 11.3732 17.6987 11.1469C17.4738 10.9207 17.1688 10.7936 16.8507 10.7936C16.5326 10.7936 16.2276 10.9207 16.0027 11.1469C15.7777 11.3732 15.6514 11.68 15.6514 12C15.6514 12.32 15.7777 12.6268 16.0027 12.8531Z" fill="#0D151F"/>
</svg>
