<svg width="24" height="24" viewBox="0 0 24 24" fill="none" xmlns="http://www.w3.org/2000/svg">
<path d="M20.5525 8.10547C21.0464 7.8585 21.6473 8.05884 21.8943 8.55273C22.1413 9.04671 21.941 9.64754 21.447 9.89453L19.9451 10.6455L19.0955 20H19.9998C20.5301 20 21.0388 20.2109 21.4138 20.5859C21.7889 20.961 21.9998 21.4696 21.9998 22C21.9998 22.5523 21.552 23 20.9998 23C20.4476 22.9999 19.9998 22.5522 19.9998 22H3.99976C3.99976 22.5523 3.55204 23 2.99976 23C2.44758 22.9999 1.99976 22.5522 1.99976 22C1.99976 21.4696 2.21069 20.961 2.58569 20.5859C2.96071 20.2109 3.46941 20.0001 3.99976 20H17.0867L18.0037 9.90918C18.0351 9.56446 18.2429 9.26034 18.5525 9.10547L20.5525 8.10547ZM9.87476 6.00781C10.179 5.96936 10.4868 6.07304 10.7068 6.29297L12.9929 8.5791L15.196 9.01953C15.7376 9.12784 16.0885 9.65473 15.9802 10.1963C15.8718 10.7377 15.345 11.0888 14.8035 10.9805L12.3035 10.4805C12.11 10.4417 11.9322 10.3465 11.7927 10.207L10.4802 8.89453L10.0642 11.7178L12.698 14.2842C12.891 14.4724 12.9998 14.7304 12.9998 15V18C12.9998 18.5523 12.552 19 11.9998 19C11.4476 18.9999 10.9998 18.5522 10.9998 18V15.4219L8.30249 12.793C8.07257 12.5689 7.96358 12.2482 8.0105 11.9307L8.53198 8.39746L6.99976 8.78125V10C6.99976 10.5523 6.55204 11 5.99976 11C5.44758 10.9999 4.99976 10.5522 4.99976 10V8C4.99977 7.54114 5.31241 7.14156 5.75757 7.03027L9.19116 6.1709C9.38522 6.04002 9.62544 5.97636 9.87476 6.00781ZM2.03003 13.7578C2.16398 13.222 2.70713 12.8963 3.24292 13.0303L6.69312 13.8926L6.79272 13.793C7.18321 13.4025 7.81625 13.4026 8.20679 13.793C8.59731 14.1835 8.59731 14.8165 8.20679 15.207L7.70679 15.707C7.45841 15.9553 7.09829 16.0549 6.75757 15.9697L2.75757 14.9697C2.22187 14.8358 1.89627 14.2935 2.03003 13.7578ZM10.9998 1C11.5301 1 12.0388 1.21094 12.4138 1.58594C12.7889 1.96101 12.9998 2.46957 12.9998 3C12.9998 3.53043 12.7889 4.03899 12.4138 4.41406C12.0388 4.78906 11.5301 5 10.9998 5C10.4694 4.99994 9.96071 4.78908 9.58569 4.41406C9.21069 4.039 8.99976 3.53038 8.99976 3C8.99976 2.46962 9.21069 1.961 9.58569 1.58594C9.96071 1.21092 10.4694 1.00006 10.9998 1Z" fill="#0D151F"/>
</svg>
