<svg width="24" height="24" viewBox="0 0 24 24" fill="none" xmlns="http://www.w3.org/2000/svg">
<path fill-rule="evenodd" clip-rule="evenodd" d="M7.09173 2.21925C7.30033 2.04746 7.57296 1.97131 7.8417 2.00977L11.3038 2.5053C11.827 2.58018 12.1896 3.05995 12.1138 3.57691C12.0381 4.09386 11.5526 4.45223 11.0294 4.37735L8.62115 4.03266L8.52576 6.55291H12.0266C12.3047 6.55291 12.569 6.67242 12.7508 6.88035C12.9326 7.08828 13.0139 7.36407 12.9736 7.63595L12.4626 11.0787C12.3858 11.5956 11.8997 11.9531 11.3767 11.8773C10.8537 11.8015 10.4919 11.3211 10.5686 10.8042L10.9188 8.44449H8.45416L8.14994 16.4815C8.13019 17.0034 7.68595 17.4108 7.15771 17.3912C6.62948 17.3717 6.21728 16.9327 6.23704 16.4108L6.53857 8.44449H4.06744L5.82625 20.1084H8.96051C9.48912 20.1084 9.91763 20.5319 9.91763 21.0542C9.91763 21.5766 9.48912 22 8.96051 22H5.00117C4.52705 22 4.12438 21.657 4.0545 21.1936L2.01046 7.63809C1.96942 7.36593 2.05036 7.08959 2.23218 6.88117C2.414 6.67275 2.67866 6.55291 2.95713 6.55291H6.61017L6.74805 2.91045C6.7582 2.6423 6.88313 2.39104 7.09173 2.21925Z" fill="#0D151F"/>
<path fill-rule="evenodd" clip-rule="evenodd" d="M10.1477 16.9945C10.1951 14.4233 12.3192 12.3534 14.9325 12.3534H16.474C19.0873 12.3534 21.2113 14.4232 21.2588 16.9944C21.6841 17.0961 22 17.4747 22 17.9263C22 18.3775 21.6846 18.7559 21.2597 18.8579V19.1626C21.2597 20.7297 19.9742 22 18.3883 22H13.0183C11.4325 22 10.147 20.7297 10.147 19.1626V18.8579C9.72215 18.7559 9.40674 18.3775 9.40674 17.9263C9.40674 17.4748 9.72249 17.0963 10.1477 16.9945ZM12.0634 16.9675H19.343C19.2821 15.4537 18.0209 14.245 16.474 14.245H14.9325C13.3856 14.245 12.1244 15.4537 12.0634 16.9675ZM12.0612 18.885V19.1626C12.0612 19.685 12.4897 20.1084 13.0183 20.1084H18.3883C18.917 20.1084 19.3455 19.685 19.3455 19.1626V18.885H12.0612Z" fill="#0D151F"/>
</svg>
