<svg width="24" height="24" viewBox="0 0 24 24" fill="none" xmlns="http://www.w3.org/2000/svg">
<path fill-rule="evenodd" clip-rule="evenodd" d="M2.00012 5C2.00012 3.34315 3.34327 2 5.00012 2H19.0001C20.657 2 22.0001 3.34315 22.0001 5V19C22.0001 20.6569 20.657 22 19.0001 22H5.00012C3.34327 22 2.00012 20.6569 2.00012 19V5ZM5.00012 4C4.44784 4 4.00012 4.44772 4.00012 5V19C4.00012 19.5523 4.44784 20 5.00012 20H19.0001C19.5524 20 20.0001 19.5523 20.0001 19V5C20.0001 4.44772 19.5524 4 19.0001 4H5.00012ZM6.3905 7.68517C6.3905 7.13288 6.83822 6.68517 7.3905 6.68517H11.6683C12.2206 6.68517 12.6683 7.13288 12.6683 7.68517C12.6683 8.23745 12.2206 8.68517 11.6683 8.68517H8.3905V10.7315H11.0525C11.6048 10.7315 12.0525 11.1792 12.0525 11.7315C12.0525 12.2838 11.6048 12.7315 11.0525 12.7315H8.3905V16.0185C8.3905 16.5708 7.94279 17.0185 7.3905 17.0185C6.83822 17.0185 6.3905 16.5708 6.3905 16.0185V7.68517ZM13.4141 10.8983C13.4141 10.3461 13.8618 9.89834 14.4141 9.89834C14.8584 9.89834 15.235 10.1881 15.3653 10.589C15.3807 10.585 15.3958 10.5812 15.4104 10.5777C15.662 10.5166 15.9305 10.4831 16.1615 10.4831C16.3316 10.4831 16.5033 10.4953 16.672 10.5255C16.8377 10.5546 16.9997 10.5993 17.1574 10.6562C17.677 10.8434 17.9463 11.4164 17.7591 11.936C17.5718 12.4556 16.9988 12.7249 16.4792 12.5377C16.4172 12.5153 16.3662 12.5024 16.3256 12.4953L16.3201 12.4943C16.2892 12.4888 16.2378 12.4831 16.1615 12.4831C16.1052 12.4831 15.9954 12.4938 15.8821 12.5213C15.8286 12.5343 15.788 12.5477 15.762 12.5584C15.7594 12.5594 15.7571 12.5604 15.7552 12.5612C15.6806 12.6218 15.6015 12.7163 15.5292 12.8744L15.5273 12.8786C15.4597 13.0249 15.4141 13.2145 15.4141 13.4673V16.315C15.4141 16.8673 14.9664 17.315 14.4141 17.315C13.8618 17.315 13.4141 16.8673 13.4141 16.315V10.8983Z" fill="#0D151F"/>
</svg>
