<svg width="24" height="24" viewBox="0 0 24 24" fill="none" xmlns="http://www.w3.org/2000/svg">
<path d="M20.1857 13.3302L16.9995 14.2045L16.1368 13.6967L16.1369 13.6965C16.2383 13.4988 16.2318 13.2614 16.1199 13.0696C16.0081 12.8779 15.8068 12.7591 15.5881 12.7558C15.3695 12.7525 15.1649 12.8653 15.0475 13.0537L13.2593 11.9994L15.0412 10.9516C15.1586 11.1399 15.3632 11.2527 15.5818 11.2495C15.8005 11.2462 16.0017 11.1274 16.1136 10.9356C16.2255 10.7439 16.232 10.5065 16.1306 10.3088L16.9933 9.80097L20.1857 10.6687C20.3489 10.7198 20.5256 10.7011 20.675 10.6167C20.8244 10.5324 20.9339 10.3897 20.9783 10.2214C21.0227 10.0531 20.9983 9.87356 20.9106 9.7239C20.8229 9.57438 20.6795 9.46761 20.5132 9.42801L18.5424 8.88804L19.4051 8.38022H19.405C19.5571 8.299 19.6701 8.15795 19.7179 7.98962C19.7657 7.82144 19.7442 7.64049 19.6583 7.48881C19.5724 7.33714 19.4296 7.22779 19.2629 7.18618C19.0962 7.14442 18.9201 7.17398 18.7753 7.26797L17.9126 7.7758L18.4415 5.76372C18.4914 5.54518 18.426 5.31588 18.269 5.15873C18.112 5.00158 17.8862 4.93947 17.6731 4.99486C17.46 5.05011 17.2907 5.21484 17.2263 5.42936L16.3699 8.68227L15.5072 9.19009H15.5073C15.3899 9.00183 15.1853 8.88904 14.9668 8.89219C14.7481 8.89549 14.5468 9.01431 14.4349 9.20616C14.323 9.39788 14.3166 9.63523 14.4179 9.83293L12.6297 10.8873V8.78511C12.8547 8.78511 13.0626 8.66257 13.175 8.46368C13.2874 8.26479 13.2874 8.0197 13.175 7.82082C13.0626 7.62194 12.8547 7.49939 12.6297 7.49939V6.47728L14.9658 4.09223C15.1045 3.92678 15.1519 3.70078 15.0913 3.49169C15.0309 3.28276 14.8708 3.11931 14.6662 3.05763C14.4614 2.99578 14.24 3.04414 14.0779 3.18577L12.6297 4.66435V3.64224C12.6297 3.4125 12.5096 3.20028 12.3148 3.08549C12.12 2.97069 11.88 2.97069 11.6852 3.08549C11.4904 3.20028 11.3703 3.41251 11.3703 3.64224V4.66435L9.92839 3.18577C9.7662 3.04414 9.54483 2.99578 9.34017 3.05763C9.13552 3.11933 8.97542 3.28278 8.91501 3.49169C8.85443 3.70076 8.90166 3.92678 9.04052 4.09223L11.3703 6.47728V7.49939C11.1453 7.49939 10.9374 7.62193 10.825 7.82082C10.7126 8.01971 10.7126 8.2648 10.825 8.46368C10.9374 8.66256 11.1453 8.78511 11.3703 8.78511V10.8873L9.58842 9.83955V9.8394C9.68975 9.64167 9.68329 9.40431 9.57141 9.21249C9.45953 9.02077 9.25826 8.90196 9.03957 8.89866C8.82101 8.89536 8.61635 9.00815 8.49901 9.19656L7.63629 8.68873L6.78003 5.42936C6.74124 5.25961 6.63667 5.11324 6.49021 5.0237C6.34362 4.93416 6.16779 4.90919 6.00291 4.95453C5.83804 4.99988 5.69834 5.11166 5.61568 5.2642C5.53302 5.41674 5.51462 5.59711 5.56466 5.76372L6.09355 7.7758L5.22467 7.26151C5.0799 7.16752 4.90379 7.13796 4.73708 7.17972C4.57039 7.22133 4.42759 7.33067 4.34172 7.48235C4.25584 7.63402 4.23434 7.81497 4.28213 7.98315C4.32991 8.15147 4.44292 8.29253 4.595 8.37376L5.45773 8.88158L3.48677 9.42801C3.32049 9.46761 3.17713 9.57438 3.08942 9.7239C3.00172 9.87356 2.97726 10.0531 3.02168 10.2214C3.06609 10.3897 3.17558 10.5324 3.32499 10.6167C3.4744 10.7011 3.65107 10.7198 3.81427 10.6687L7.00047 9.79436L7.8632 10.3022L7.86305 10.3023C7.76172 10.5001 7.76818 10.7374 7.88006 10.9292C7.99194 11.121 8.19321 11.2398 8.4119 11.2431C8.63046 11.2464 8.83512 11.1336 8.95246 10.9452L10.7407 11.9994L8.95879 13.0472C8.84143 12.8589 8.63678 12.7462 8.41824 12.7493C8.19954 12.7526 7.99826 12.8714 7.88639 13.0633C7.77451 13.255 7.76805 13.4923 7.86939 13.6901L7.00666 14.1979L3.81427 13.3302C3.60021 13.2792 3.37562 13.3459 3.22169 13.5062C3.06776 13.6665 3.00692 13.8971 3.06118 14.1146C3.11529 14.3322 3.27665 14.5051 3.48677 14.5708L5.45759 15.1108L4.59486 15.6186H4.595C4.41045 15.7384 4.29998 15.9473 4.30321 16.1705C4.30644 16.3937 4.42282 16.5992 4.6106 16.7134C4.79852 16.8277 5.03101 16.8343 5.22466 16.7308L6.08739 16.223L5.5585 18.2351C5.50846 18.4017 5.52673 18.582 5.60938 18.7346C5.69202 18.8871 5.83173 18.9989 5.99661 19.0442C6.16148 19.0896 6.33731 19.0646 6.48391 18.9751C6.63036 18.8855 6.73494 18.7392 6.77373 18.5694L7.63013 15.3165L8.49285 14.8087H8.49271C8.61008 14.997 8.81472 15.1097 9.03326 15.1066C9.25196 15.1033 9.45324 14.9845 9.56511 14.7926C9.67699 14.6009 9.68345 14.3636 9.58211 14.1658L11.3704 13.1114V15.2137C11.1453 15.2137 10.9375 15.3362 10.825 15.5351C10.7126 15.734 10.7126 15.9791 10.825 16.178C10.9375 16.3768 11.1453 16.4994 11.3704 16.4994V17.5215L9.03422 19.9065C8.8955 20.072 8.84813 20.298 8.90871 20.5071C8.96915 20.716 9.12924 20.8795 9.33387 20.9411C9.53865 21.003 9.76003 20.9546 9.92209 20.813L11.3704 19.3344V20.3565C11.3704 20.5863 11.4904 20.7985 11.6852 20.9133C11.88 21.0281 12.1201 21.0281 12.3149 20.9133C12.5097 20.7985 12.6297 20.5863 12.6297 20.3565V19.3344L14.0716 20.8065C14.2338 20.9483 14.4552 20.9965 14.6599 20.9347C14.8645 20.873 15.0246 20.7095 15.085 20.5006C15.1456 20.2917 15.0984 20.0657 14.9595 19.9001L12.6297 17.5215V16.4994C12.8547 16.4994 13.0626 16.3768 13.175 16.178C13.2875 15.9791 13.2875 15.734 13.175 15.5351C13.0626 15.3362 12.8547 15.2137 12.6297 15.2137V13.1114L14.4116 14.1592V14.1594C14.3103 14.3571 14.3167 14.5945 14.4286 14.7863C14.5405 14.978 14.7418 15.0968 14.9605 15.1001C15.179 15.1034 15.3837 14.9906 15.501 14.8022L16.3637 15.31L17.2201 18.563H17.22C17.257 18.7031 17.3392 18.8266 17.4536 18.9129C17.5679 18.9993 17.7076 19.0437 17.8497 19.0386C17.9041 19.046 17.959 19.046 18.0134 19.0386C18.1744 18.9949 18.3118 18.8878 18.3956 18.7407C18.4795 18.5938 18.5027 18.4189 18.4605 18.2543L17.9316 16.2422L18.7944 16.75H18.7942C18.988 16.8535 19.2204 16.847 19.4083 16.7328C19.5962 16.6186 19.7126 16.413 19.7157 16.1898C19.7189 15.9666 19.6084 15.7576 19.4239 15.638L18.5611 15.1302L20.5133 14.5708C20.7234 14.5051 20.8848 14.3322 20.9389 14.1146C20.9931 13.8971 20.9323 13.6665 20.7784 13.5062C20.6245 13.3459 20.3998 13.2792 20.1858 13.3301L20.1857 13.3302Z" fill="#0D151F"/>
</svg>
