<svg width="24" height="24" viewBox="0 0 24 24" fill="none" xmlns="http://www.w3.org/2000/svg">
<path fill-rule="evenodd" clip-rule="evenodd" d="M10.7502 2.47266C11.5437 2.10905 12.4563 2.10905 13.2498 2.47266L20.2498 5.68036C21.3162 6.16906 22 7.23454 22 8.40765V19C22 20.6568 20.6569 22 19 22H5C3.34315 22 2 20.6568 2 19V8.40765C2 7.23454 2.68378 6.16906 3.75024 5.68036L10.7502 2.47266ZM18.25 20H19C19.5523 20 20 19.5522 20 19V8.40765C20 8.01662 19.7721 7.66145 19.4166 7.49855L12.4166 4.29086C12.1521 4.16965 11.8479 4.16965 11.5834 4.29086L4.58342 7.49855C4.22793 7.66145 4 8.01661 4 8.40765V19C4 19.5522 4.44772 20 5 20H5.75V10.8001C5.75 9.69557 6.64543 8.80014 7.75 8.80014H16.25C17.3546 8.80014 18.25 9.69557 18.25 10.8001V20ZM7.75 20V18.3875H16.25V20H7.75ZM16.25 16.3875V14.6626H7.75V16.3875H16.25ZM7.75 12.6626H16.25V10.8001H7.75V12.6626Z" fill="#0D151F"/>
</svg>
