<svg width="24" height="24" viewBox="0 0 24 24" fill="none" xmlns="http://www.w3.org/2000/svg">
<path fill-rule="evenodd" clip-rule="evenodd" d="M11.0427 2.4078C11.5982 1.94675 12.4033 1.94675 12.9588 2.4078L15.2898 4.34256L17.6483 2.66124C18.6413 1.95343 20.019 2.66327 20.019 3.88267V5.68158C20.019 9.54758 16.885 12.6816 13.019 12.6816H13.0006V16.0814C14.1648 14.5926 15.9081 13.607 17.86 13.4234L19.3262 13.2854C20.2289 13.2005 21.0001 13.9297 20.9656 14.8358L20.9488 15.2785C20.8097 18.9401 17.8704 21.8748 14.2086 22.0082L12.7459 22.0614C12.4734 22.0713 12.2199 22.0095 12 21.895C11.7801 22.0095 11.5266 22.0713 11.2541 22.0614L9.79138 22.0082C6.12957 21.8748 3.19022 18.9401 3.05113 15.2785L3.03431 14.8358C2.99989 13.9297 3.77102 13.2005 4.67375 13.2854L6.13994 13.4234C8.09251 13.6071 9.83634 14.5933 11.0006 16.083V12.6816H10.9825C7.11649 12.6816 3.98249 9.54758 3.98249 5.68158V3.88267C3.98249 2.66327 5.36024 1.95343 6.35319 2.66124L8.71177 4.34256L11.0427 2.4078ZM10.6172 20.0369L10.2498 18.8796C9.64252 16.9669 7.95054 15.6026 5.95258 15.4146L5.05615 15.3302C5.21771 17.8859 7.29126 19.9158 9.86416 20.0095L10.6172 20.0369ZM13.3827 20.0369L14.1358 20.0095C16.7087 19.9158 18.7822 17.8859 18.9438 15.3302L18.0474 15.4146C16.0494 15.6026 14.3574 16.9669 13.7502 18.8796L13.3827 20.0369ZM12.0008 4.21181L9.69297 6.12733C9.16925 6.56203 8.41848 6.58962 7.86426 6.19454L5.98249 4.85313V5.68158C5.98249 8.44301 8.22107 10.6816 10.9825 10.6816H13.019C15.7805 10.6816 18.019 8.44301 18.019 5.68158V4.85313L16.1373 6.19455C15.583 6.58962 14.8323 6.56203 14.3086 6.12732L12.0008 4.21181Z" fill="#0D151F"/>
</svg>
