<svg width="24" height="24" viewBox="0 0 24 24" fill="none" xmlns="http://www.w3.org/2000/svg">
<path fill-rule="evenodd" clip-rule="evenodd" d="M12 2C12.5523 2 13 2.43465 13 2.97083C14.9647 3.03233 16.8357 3.81692 18.2301 5.17062C19.6835 6.58163 20.5 8.49537 20.5 10.4908V16.6604H21.0104C21.557 16.6604 22 17.0951 22 17.6313C22 18.1674 21.557 18.6021 21.0104 18.6021H19.5049L19.5 18.6021L18 18.6021H6L4.5 18.6021L4.49509 18.6021H2.98956C2.44304 18.6021 2 18.1674 2 17.6313C2 17.0951 2.44304 16.6604 2.98956 16.6604H3.5V10.4908C3.5 8.49537 4.31652 6.58163 5.76992 5.17062C7.1643 3.81692 9.0353 3.03233 11 2.97083C11 2.43466 11.4477 2 12 2ZM18.5 16.6605L17.5021 16.6604V12.5344C17.5021 12.0838 17.3197 11.6517 16.9949 11.3331C16.6702 11.0145 16.2297 10.8355 15.7704 10.8355H15.25V10.3501C15.25 9.70637 14.9866 9.08904 14.5178 8.63388C14.0489 8.17871 13.413 7.923 12.75 7.923H11.25C10.587 7.923 9.95107 8.17871 9.48223 8.63388C9.01339 9.08904 8.75 9.70637 8.75 10.3501V10.8355H8.34875C7.88947 10.8355 7.449 11.0145 7.12423 11.3331C6.79947 11.6517 6.61702 12.0838 6.61702 12.5344V16.6604H5.5V10.4908C5.5 9.01032 6.1058 7.59045 7.18414 6.54358C8.2034 5.55405 9.56592 4.97438 11 4.91385H13C14.4341 4.97438 15.7966 5.55405 16.8159 6.54358C17.8942 7.59046 18.5 9.01032 18.5 10.4908V16.6605ZM10.75 10.8355H13.25V10.3501C13.25 10.2213 13.1973 10.0979 13.1036 10.0068C13.0098 9.9158 12.8826 9.86466 12.75 9.86466H11.25C11.1174 9.86466 10.9902 9.9158 10.8964 10.0068C10.8027 10.0979 10.75 10.2213 10.75 10.3501V10.8355ZM9.74625 12.7771H8.59614V16.6604H15.523V12.7771H14.2537L14.25 12.7771H9.75L9.74625 12.7771Z" fill="#0D151F"/>
<path d="M6 18.6021C6.9665 18.6021 7.75 19.3628 7.75 20.3011C7.75 21.2394 6.9665 22 6 22C5.0335 22 4.25 21.2394 4.25 20.3011C4.25 19.3628 5.0335 18.6021 6 18.6021Z" fill="#0D151F"/>
<path d="M18 18.6021C18.9665 18.6021 19.75 19.3628 19.75 20.3011C19.75 21.2394 18.9665 22 18 22C17.0335 22 16.25 21.2394 16.25 20.3011C16.25 19.3628 17.0335 18.6021 18 18.6021Z" fill="#0D151F"/>
</svg>
