<svg width="24" height="24" viewBox="0 0 24 24" fill="none" xmlns="http://www.w3.org/2000/svg">
<path fill-rule="evenodd" clip-rule="evenodd" d="M2 5C2 3.34315 3.34315 2 5 2H19C20.6569 2 22 3.34315 22 5V19C22 20.6569 20.6569 22 19 22H5C3.34315 22 2 20.6569 2 19V5ZM5 4C4.44772 4 4 4.44772 4 5V19C4 19.5523 4.44772 20 5 20H19C19.5523 20 20 19.5523 20 19V5C20 4.44772 19.5523 4 19 4H5ZM4.74857 8.33333C4.74857 7.5049 5.42015 6.83333 6.24857 6.83333H7.93963C8.86929 6.83333 9.72633 7.03633 10.4579 7.49935C11.1783 7.9488 11.7163 8.58566 12.0722 9.3739C12.4237 10.1525 12.5819 11.034 12.5819 11.9907V12.0031C12.5819 12.9598 12.4237 13.8413 12.0722 14.6199C11.7163 15.4081 11.1789 16.046 10.4602 16.4992C9.72813 16.9632 8.87027 17.1667 7.93963 17.1667H6.24857C5.42015 17.1667 4.74857 16.4951 4.74857 15.6667V8.33333ZM6.74857 8.83333V15.1667H7.93963C8.57916 15.1667 9.04493 15.0285 9.39008 14.8095L9.39276 14.8079C9.75845 14.5775 10.0439 14.252 10.2494 13.7969C10.4593 13.3318 10.5819 12.7431 10.5819 12.0031V11.9907C10.5819 11.2507 10.4593 10.662 10.2494 10.1969C10.0443 9.74273 9.76018 9.42085 9.39738 9.19503L9.39006 9.19047C9.04491 8.97149 8.57916 8.83333 7.93963 8.83333H6.74857ZM14.3673 10.2273C14.8788 9.90081 15.4555 9.74999 16.0634 9.74999C16.6688 9.74999 17.2442 9.8997 17.7517 10.2291C18.258 10.5518 18.6337 11.0062 18.8865 11.5515C19.06 11.9258 19.166 12.3301 19.2163 12.7536C19.3291 13.7054 18.5399 14.3703 17.7514 14.3703H14.986C14.9996 14.4058 15.014 14.4399 15.0291 14.4727C15.1471 14.7287 15.2933 14.8891 15.4585 14.9958C15.6182 15.0989 15.8247 15.1667 16.1168 15.1667C16.3402 15.1667 16.5213 15.1345 16.6698 15.0831C16.8319 15.0269 16.9444 14.9584 17.0249 14.8885C17.442 14.5264 18.0736 14.5711 18.4356 14.9882C18.7976 15.4053 18.753 16.0369 18.3359 16.3989C18.0393 16.6563 17.6964 16.8439 17.3248 16.9727C16.9396 17.1063 16.5337 17.1667 16.1168 17.1667C15.4909 17.1667 14.8969 17.0139 14.3735 16.6758C13.8556 16.3414 13.4718 15.872 13.2127 15.3098C12.9572 14.7554 12.8432 14.1401 12.8382 13.49L12.8382 13.4862L12.838 13.4488L12.838 13.445V13.3703C12.838 12.7161 12.9519 12.0955 13.2208 11.5418C13.482 11.0002 13.8621 10.5497 14.3673 10.2273ZM15.0423 12.3703H17.0614C16.9541 12.1478 16.823 12.0084 16.6751 11.9146L16.6645 11.9079C16.5186 11.8128 16.331 11.75 16.0634 11.75C15.7961 11.75 15.6008 11.8126 15.4434 11.9131C15.2897 12.0112 15.1543 12.1533 15.0423 12.3703Z" fill="#0D151F"/>
</svg>
