<svg width="24" height="24" viewBox="0 0 24 24" fill="none" xmlns="http://www.w3.org/2000/svg">
<path fill-rule="evenodd" clip-rule="evenodd" d="M8.21394 4.01196C7.54571 4.1276 6.97006 4.49203 6.63632 5.01927L4.35246 8.62731C4.02698 9.14151 3.93628 9.72528 4.05354 10.2029C4.16348 10.6506 4.46492 11.0572 5.06898 11.2823C6.20362 11.705 7.55603 10.9746 8.39236 9.73021C8.63926 9.36285 9.03782 9.23559 9.36013 9.25725C9.68362 9.279 10.0824 9.46407 10.2719 9.89393C10.5077 10.429 10.7517 10.9529 11.0732 11.3476C11.3765 11.7198 11.6637 11.8763 12.0003 11.8763C12.3368 11.8763 12.6239 11.7199 12.927 11.3476C13.2485 10.953 13.4923 10.4291 13.7282 9.89402C13.9177 9.46417 14.3165 9.279 14.64 9.25725C14.9623 9.23559 15.3608 9.36285 15.6077 9.7302C16.4441 10.9746 17.7965 11.705 18.9311 11.2823C19.5352 11.0572 19.8366 10.6506 19.9466 10.2029C20.0638 9.72528 19.9731 9.14151 19.6476 8.62731L17.3638 5.01927C17.03 4.49203 16.4544 4.1276 15.7862 4.01196H8.21394ZM7.95217 2.02824C8.02651 2.0167 8.09781 2.01196 8.16469 2.01196H15.8354C15.9023 2.01196 15.9736 2.0167 16.0479 2.02824C17.2372 2.21295 18.3687 2.86742 19.0537 3.94958L21.3375 7.55762C21.9267 8.48839 22.1476 9.62614 21.8889 10.6798C21.6229 11.7632 20.8608 12.6976 19.6293 13.1564C17.797 13.8391 16.0937 13.0617 14.92 11.9761C14.7892 12.1927 14.6425 12.4084 14.4779 12.6106C13.9438 13.2663 13.14 13.8763 12.0003 13.8763C10.8607 13.8763 10.0568 13.2664 9.52262 12.6107C9.35785 12.4085 9.21106 12.1927 9.08024 11.976C7.90648 13.0616 6.20319 13.8391 4.37076 13.1564C3.13932 12.6976 2.37725 11.7632 2.11123 10.6798C1.85253 9.62614 2.0734 8.48839 2.66256 7.55762L4.94642 3.94958C5.63142 2.86742 6.76288 2.21295 7.95217 2.02824ZM4.76104 14.2923C5.31332 14.2923 5.76104 14.74 5.76104 15.2923V19.0359C5.76104 19.5882 6.20875 20.0359 6.76104 20.0359H17.2392C17.7915 20.0359 18.2392 19.5882 18.2392 19.0359V15.2923C18.2392 14.74 18.6869 14.2923 19.2392 14.2923C19.7915 14.2923 20.2392 14.74 20.2392 15.2923V19.0359C20.2392 20.6927 18.896 22.0359 17.2392 22.0359H6.76104C5.10418 22.0359 3.76104 20.6927 3.76104 19.0359V15.2923C3.76104 14.74 4.20875 14.2923 4.76104 14.2923Z" fill="#0D151F"/>
</svg>
