<svg width="24" height="24" viewBox="0 0 24 24" fill="none" xmlns="http://www.w3.org/2000/svg">
<path fill-rule="evenodd" clip-rule="evenodd" d="M9.27373 16.0105C9.36536 16.5553 8.99813 17.0713 8.4535 17.163C7.24148 17.367 6.28305 17.6746 5.65699 18.0072C5.343 18.174 5.15557 18.3246 5.05803 18.4341C5.04449 18.4493 5.03363 18.4626 5.02498 18.4739C5.0564 18.5131 5.11604 18.5747 5.2262 18.6568C5.50608 18.8655 5.97477 19.0957 6.64375 19.3067C7.97 19.7249 9.8639 19.9992 12 19.9992C14.1361 19.9992 16.03 19.7249 17.3562 19.3067C18.0252 19.0957 18.4939 18.8655 18.7738 18.6568C18.8807 18.5772 18.94 18.5168 18.9721 18.4775C18.9624 18.4657 18.9502 18.452 18.9351 18.4364C18.8225 18.3198 18.6082 18.1632 18.2536 17.9935C17.5478 17.6557 16.4786 17.3566 15.1447 17.1669C14.5979 17.0892 14.2176 16.5827 14.2954 16.0357C14.3731 15.4887 14.8793 15.1083 15.4261 15.186C16.872 15.3916 18.1601 15.7308 19.1167 16.1886C19.5932 16.4166 20.0363 16.6971 20.3734 17.0462C20.7148 17.3996 21 17.8828 21 18.4771C21 19.288 20.4802 19.8799 19.9688 20.2612C19.4391 20.6561 18.7362 20.9694 17.9574 21.2149C16.3883 21.7097 14.2822 22 12 22C9.71782 22 7.61171 21.7097 6.04253 21.2149C5.26381 20.9694 4.56092 20.6561 4.03116 20.2612C3.51974 19.8799 3 19.288 3 18.4771C3 17.9177 3.2535 17.4525 3.56496 17.1029C3.87308 16.757 4.27962 16.4735 4.71892 16.2402C5.59942 15.7723 6.78478 15.4149 8.12167 15.1899C8.6663 15.0983 9.18209 15.4656 9.27373 16.0105ZM19.0086 18.531C19.0084 18.531 19.0077 18.5295 19.0067 18.5266C19.0082 18.5296 19.0087 18.531 19.0086 18.531ZM19.006 18.4276C19.0069 18.4248 19.0075 18.4234 19.0076 18.4234C19.0077 18.4234 19.0073 18.4248 19.006 18.4276ZM4.99237 18.4234C4.99248 18.4234 4.99315 18.4248 4.99404 18.4276C4.99271 18.4248 4.99227 18.4234 4.99237 18.4234ZM4.99457 18.521C4.99382 18.5234 4.99328 18.5246 4.99319 18.5246C4.9931 18.5246 4.99348 18.5234 4.99457 18.521Z" fill="#0D151F"/>
<path fill-rule="evenodd" clip-rule="evenodd" d="M11.2258 2.15938C11.5116 1.97522 11.8713 1.94891 12.1809 2.08954L19.8844 5.58964C20.2326 5.74786 20.4601 6.09092 20.4705 6.4734C20.4808 6.85587 20.2722 7.21076 19.9331 7.38762L12.7673 11.1243V18.0349C12.7673 18.5874 12.3196 19.0353 11.7673 19.0353C11.215 19.0353 10.7673 18.5874 10.7673 18.0349V3.0004C10.7673 2.66032 10.94 2.34354 11.2258 2.15938ZM12.7673 8.86803L17.1888 6.56238L12.7673 4.5535V8.86803Z" fill="#0D151F"/>
</svg>
