<svg width="24" height="24" viewBox="0 0 24 24" fill="none" xmlns="http://www.w3.org/2000/svg">
<path d="M8 10.5759H12.017L12.601 11.1669C13.1486 11.7241 13.8399 12.1057 14.592 12.266L15.688 12.4979L18.052 19.22C18.0969 19.3477 18.1657 19.4651 18.2544 19.5653C18.3432 19.6656 18.4501 19.7468 18.5692 19.8042C18.6882 19.8617 18.817 19.8944 18.9482 19.9003C19.0795 19.9062 19.2106 19.8854 19.334 19.8389C19.4574 19.7924 19.5708 19.7212 19.6677 19.6294C19.7645 19.5376 19.843 19.4269 19.8985 19.3037C19.954 19.1805 19.9856 19.0471 19.9913 18.9113C19.9971 18.7755 19.9769 18.6398 19.932 18.5121L17.599 11.881L18.392 10.9578C19.0821 10.1555 19.4439 9.10705 19.401 8.03381C19.3581 6.96057 18.9138 5.94662 18.1619 5.20611C17.4101 4.46561 16.4096 4.05654 15.3718 4.0653C14.334 4.07406 13.3401 4.49997 12.6 5.25306L12.016 5.84403H8V10.5759ZM6 10.5759V5.84403H4V10.5759H6ZM11.2 12.6459H4C3.46957 12.6459 2.96086 12.4278 2.58579 12.0396C2.21071 11.6514 2 11.1249 2 10.5759V5.84403C2 5.29505 2.21071 4.76855 2.58579 4.38036C2.96086 3.99217 3.46957 3.77409 4 3.77409H11.2C12.3104 2.64505 13.8013 2.00683 15.3579 1.99421C16.9144 1.98159 18.4148 2.59556 19.5422 3.70646C20.6695 4.81736 21.3356 6.33823 21.3998 7.94791C21.4639 9.55759 20.9211 11.1301 19.886 12.3333L21.811 17.8042C21.9494 18.1881 22.0129 18.5967 21.998 19.0062C21.9831 19.4157 21.8899 19.8181 21.724 20.1902C21.5581 20.5623 21.3226 20.8967 21.0312 21.1742C20.7398 21.4516 20.3982 21.6666 20.0261 21.8068C19.6541 21.9469 19.2589 22.0095 18.8633 21.9908C18.4678 21.9721 18.0797 21.8726 17.7215 21.6979C17.3633 21.5232 17.042 21.2769 16.7763 20.9731C16.5105 20.6693 16.3055 20.3141 16.173 19.9279L14.191 14.2935C13.0619 14.0537 12.0236 13.4815 11.201 12.6459H11.2ZM14 7.175H17C17.2652 7.175 17.5196 7.28404 17.7071 7.47814C17.8946 7.67223 18 7.93548 18 8.20997C18 8.48446 17.8946 8.74771 17.7071 8.94181C17.5196 9.1359 17.2652 9.24494 17 9.24494H14C13.7348 9.24494 13.4804 9.1359 13.2929 8.94181C13.1054 8.74771 13 8.48446 13 8.20997C13 7.93548 13.1054 7.67223 13.2929 7.47814C13.4804 7.28404 13.7348 7.175 14 7.175Z" fill="#0D151F"/>
</svg>
