<svg width="24" height="24" viewBox="0 0 24 24" fill="none" xmlns="http://www.w3.org/2000/svg">
<path fill-rule="evenodd" clip-rule="evenodd" d="M16.0299 2.10822C17.3858 1.78434 18.7583 2.57678 19.1558 3.91294L20.8751 9.69297C21.0807 10.3841 20.9929 11.1294 20.6324 11.7539L15.4992 20.6448C14.7743 21.9003 13.1689 22.3305 11.9134 21.6056L4.32879 17.2266C3.07329 16.5018 2.64312 14.8964 3.36799 13.6409L8.50118 4.74991C8.86171 4.12544 9.46326 3.67678 10.1646 3.50926L16.0299 2.10822ZM17.2388 4.48317C17.1442 4.16505 16.8174 3.97638 16.4946 4.05349L10.6293 5.45453C10.4623 5.49441 10.3191 5.60123 10.2332 5.74991L8.16663 9.32935L16.8337 14.3333L18.9003 10.7539C18.9862 10.6052 19.0071 10.4277 18.9581 10.2632L17.2388 4.48317ZM15.8337 16.0654L7.16663 11.0614L5.10004 14.6409C4.92746 14.9398 5.02987 15.322 5.32879 15.4946L12.9134 19.8736C13.2123 20.0461 13.5946 19.9437 13.7671 19.6448L15.8337 16.0654ZM13.2127 6.62942C13.765 5.67292 14.988 5.3452 15.9445 5.89743C16.901 6.44967 17.2288 7.67275 16.6765 8.62926C16.1243 9.58576 14.9012 9.91349 13.9447 9.36125C12.9882 8.80901 12.6605 7.58593 13.2127 6.62942Z" fill="#0D151F"/>
</svg>
