<svg width="24" height="24" viewBox="0 0 24 24" fill="none" xmlns="http://www.w3.org/2000/svg">
<path fill-rule="evenodd" clip-rule="evenodd" d="M12 8.28089L10.553 6.32501C9.86334 5.39286 8.76798 4.79939 7.56 4.79939C5.51137 4.79939 3.8 6.49411 3.8 8.6522C3.8 9.66205 3.95883 10.5896 4.2344 11.4509L4.23811 11.4625L4.23807 11.4625C4.90153 13.5856 6.27648 15.3394 7.8195 16.6804C9.35591 18.0157 10.9595 18.8545 11.9369 19.1963C11.942 19.1969 11.948 19.1974 11.9551 19.1979C11.9687 19.1988 11.9839 19.1994 12 19.1994C12.0161 19.1994 12.0313 19.1988 12.0449 19.1979C12.052 19.1974 12.058 19.1969 12.0631 19.1963C13.0405 18.8545 14.6441 18.0157 16.1805 16.6804C17.7235 15.3394 19.0985 13.5856 19.7619 11.4625L19.7656 11.4509L19.7656 11.4509C20.0412 10.5896 20.2 9.66205 20.2 8.6522C20.2 6.49411 18.4886 4.79939 16.44 4.79939C15.232 4.79939 14.1367 5.39286 13.447 6.32501L12 8.28089ZM10.7009 3.99067C9.80647 3.36642 8.72242 2.99939 7.56 2.99939C4.49 2.99939 2 5.52748 2 8.6522C2 9.85557 2.19 10.9679 2.52 11.9994C4.1 17.0556 8.97 20.0792 11.38 20.9084C11.72 21.0297 12.28 21.0297 12.62 20.9084C15.03 20.0792 19.9 17.0556 21.48 11.9994C21.81 10.9679 22 9.85557 22 8.6522C22 5.52748 19.51 2.99939 16.44 2.99939C15.2776 2.99939 14.1935 3.36642 13.2991 3.99067C12.8008 4.33843 12.3614 4.76602 12 5.25445C11.6386 4.76602 11.1992 4.33843 10.7009 3.99067Z" fill="#0D151F"/>
</svg>
