<svg width="24" height="24" viewBox="0 0 24 24" fill="none" xmlns="http://www.w3.org/2000/svg">
<path d="M8.31152 6.9189C7.99104 6.47024 7.36754 6.36634 6.9189 6.6868C6.47025 7.00727 6.36633 7.63076 6.68679 8.07941C7.04034 8.57438 7.2077 9.08424 7.20411 9.63011C7.20047 10.1828 7.02116 10.8047 6.62647 11.5152C5.52496 13.4979 5.49753 15.4161 6.68679 17.0811C7.00727 17.5298 7.63077 17.6337 8.07941 17.3132C8.52806 16.9927 8.63199 16.3692 8.31152 15.9206C7.95797 15.4256 7.79061 14.9158 7.7942 14.3699C7.79784 13.8172 7.97716 13.1953 8.37184 12.4848C9.47335 10.5021 9.50078 8.58387 8.31152 6.9189Z" fill="#0D151F"/>
<path d="M12.8124 6.9189C12.4919 6.47024 11.8684 6.36634 11.4197 6.6868C10.9711 7.00727 10.8672 7.63076 11.1876 8.07941C11.5412 8.57438 11.7085 9.08424 11.705 9.63011C11.7013 10.1828 11.522 10.8047 11.1273 11.5152C10.0258 13.4979 9.99837 15.4161 11.1876 17.0811C11.5081 17.5298 12.1316 17.6337 12.5803 17.3132C13.0289 16.9927 13.1328 16.3692 12.8124 15.9206C12.4588 15.4256 12.2915 14.9158 12.295 14.3699C12.2987 13.8172 12.478 13.1953 12.8727 12.4848C13.9742 10.5021 14.0016 8.58387 12.8124 6.9189Z" fill="#0D151F"/>
<path d="M17.3132 6.9189C16.9927 6.47024 16.3692 6.36634 15.9206 6.6868C15.4719 7.00727 15.368 7.63076 15.6885 8.07941C16.042 8.57438 16.2094 9.08424 16.2058 9.63011C16.2022 10.1828 16.0228 10.8047 15.6282 11.5152C14.5266 13.4979 14.4992 15.4161 15.6885 17.0811C16.009 17.5298 16.6325 17.6337 17.0811 17.3132C17.5298 16.9927 17.6337 16.3692 17.3132 15.9206C16.9597 15.4256 16.7923 14.9158 16.7959 14.3699C16.7995 13.8172 16.9788 13.1953 17.3735 12.4848C18.475 10.5021 18.5025 8.58387 17.3132 6.9189Z" fill="#0D151F"/>
<path fill-rule="evenodd" clip-rule="evenodd" d="M4.12352 2C2.95073 2 2 2.95073 2 4.12352V19.8765C2 21.0493 2.95073 22 4.12352 22H19.8765C21.0493 22 22 21.0493 22 19.8765V4.12352C22 2.95073 21.0493 2 19.8765 2H4.12352ZM3.99662 4.12352C3.99662 4.05344 4.05344 3.99662 4.12352 3.99662H19.8765C19.9466 3.99662 20.0034 4.05344 20.0034 4.12352V19.8765C20.0034 19.9466 19.9466 20.0034 19.8765 20.0034H4.12352C4.05344 20.0034 3.99662 19.9466 3.99662 19.8765V4.12352Z" fill="#0D151F"/>
</svg>
