<svg width="24" height="24" viewBox="0 0 24 24" fill="none" xmlns="http://www.w3.org/2000/svg">
<path d="M8.82065 12.3165C8.55584 12.3165 8.30187 12.4217 8.11462 12.609C7.92736 12.7962 7.82217 13.0502 7.82217 13.315V15.3923C7.82217 15.6571 7.92736 15.9111 8.11462 16.0983C8.30187 16.2856 8.55584 16.3908 8.82065 16.3908C9.08547 16.3908 9.33944 16.2856 9.52669 16.0983C9.71394 15.9111 9.81914 15.6571 9.81914 15.3923V13.315C9.81914 13.0502 9.71394 12.7962 9.52669 12.609C9.33944 12.4217 9.08547 12.3165 8.82065 12.3165Z" fill="#0D151F"/>
<path d="M11.5903 12.3165C11.3255 12.3165 11.0716 12.4217 10.8843 12.609C10.6971 12.7962 10.5919 13.0502 10.5919 13.315V15.3923C10.5919 15.6571 10.6971 15.9111 10.8843 16.0983C11.0716 16.2856 11.3255 16.3908 11.5903 16.3908C11.8552 16.3908 12.1091 16.2856 12.2964 16.0983C12.4836 15.9111 12.5888 15.6571 12.5888 15.3923V13.315C12.5888 13.0502 12.4836 12.7962 12.2964 12.609C12.1091 12.4217 11.8552 12.3165 11.5903 12.3165Z" fill="#0D151F"/>
<path d="M14.36 12.3165C14.0952 12.3165 13.8413 12.4217 13.654 12.609C13.4668 12.7962 13.3616 13.0502 13.3616 13.315V15.3923C13.3616 15.6571 13.4668 15.9111 13.654 16.0983C13.8413 16.2856 14.0952 16.3908 14.36 16.3908C14.6249 16.3908 14.8788 16.2856 15.0661 16.0983C15.2533 15.9111 15.3585 15.6571 15.3585 15.3923V13.315C15.3585 13.0502 15.2533 12.7962 15.0661 12.609C14.8788 12.4217 14.6249 12.3165 14.36 12.3165Z" fill="#0D151F"/>
<path fill-rule="evenodd" clip-rule="evenodd" d="M9.51309 4.69985C9.06464 4.69985 8.63455 4.878 8.31744 5.1951C8.00033 5.51221 7.82218 5.9423 7.82218 6.39076V6.80504C7.4875 6.86664 7.1766 7.02837 6.93259 7.27238C6.61548 7.58948 6.43733 8.01957 6.43733 8.46803V9.54682H6.05097C5.60252 9.54682 5.17243 9.72496 4.85532 10.0421C4.53821 10.3592 4.36006 10.7893 4.36006 11.2377V17.4695C4.36006 17.918 4.53821 18.3481 4.85532 18.6652C5.17243 18.9823 5.60252 19.1605 6.05097 19.1605H17.1298C17.5782 19.1605 18.0083 18.9823 18.3254 18.6652C18.6425 18.3481 18.8207 17.918 18.8207 17.4695V11.2377C18.8207 10.7893 18.6425 10.3592 18.3254 10.0421C18.0083 9.72496 17.5782 9.54682 17.1298 9.54682H16.7434V8.46803C16.7434 8.01957 16.5652 7.58948 16.2481 7.27238C16.0041 7.02837 15.6932 6.86664 15.3585 6.80504V6.39076C15.3585 5.9423 15.1804 5.51221 14.8633 5.1951C14.5462 4.878 14.1161 4.69985 13.6676 4.69985H9.51309ZM9.81915 7.7756V6.69682H13.3616V7.7756C13.3616 8.04042 13.4668 8.29439 13.654 8.48164C13.8413 8.66889 14.0952 8.77409 14.3601 8.77409H14.7464V10.5453C14.7464 10.8101 14.8516 11.0641 15.0389 11.2513C15.2261 11.4386 15.4801 11.5438 15.7449 11.5438H16.8237V17.1635H6.35703V11.5438H7.43582C7.70064 11.5438 7.9546 11.4386 8.14186 11.2513C8.32911 11.0641 8.43431 10.8101 8.43431 10.5453V8.77409H8.82067C9.08548 8.77409 9.33945 8.66889 9.5267 8.48164C9.71396 8.29439 9.81915 8.04042 9.81915 7.7756Z" fill="#0D151F"/>
<path fill-rule="evenodd" clip-rule="evenodd" d="M3.97367 1.93018C3.34157 1.93018 2.73536 2.18128 2.28839 2.62824C1.84143 3.0752 1.59033 3.68141 1.59033 4.31351V19.5468C1.59033 20.1789 1.84143 20.7851 2.28839 21.2321C2.73536 21.6791 3.34157 21.9302 3.97367 21.9302H19.207C19.8391 21.9302 20.4453 21.6791 20.8923 21.2321C21.3392 20.7851 21.5903 20.1789 21.5903 19.5468V4.31351C21.5903 3.68141 21.3392 3.0752 20.8923 2.62824C20.4453 2.18128 19.8391 1.93018 19.207 1.93018H3.97367ZM3.70047 4.04031C3.77292 3.96785 3.8712 3.92715 3.97367 3.92715H19.207C19.3095 3.92715 19.4077 3.96785 19.4802 4.04031C19.5527 4.11277 19.5934 4.21104 19.5934 4.31351V19.5468C19.5934 19.6493 19.5527 19.7476 19.4802 19.82C19.4077 19.8925 19.3095 19.9332 19.207 19.9332H3.97367C3.87119 19.9332 3.77292 19.8925 3.70047 19.82C3.62801 19.7476 3.5873 19.6493 3.5873 19.5468V4.31351C3.5873 4.21104 3.62801 4.11277 3.70047 4.04031Z" fill="#0D151F"/>
</svg>
