<svg width="24" height="24" viewBox="0 0 24 24" fill="none" xmlns="http://www.w3.org/2000/svg">
<path fill-rule="evenodd" clip-rule="evenodd" d="M18.9349 2.03591C18.5603 1.93305 18.1598 2.05533 17.9077 2.34948L8.64719 13.1564C8.37632 13.4725 8.33139 13.9227 8.5345 14.2856C8.7376 14.6485 9.14599 14.8477 9.55877 14.7851L14.5164 14.0341L12.626 20.7362C12.4768 21.2652 12.7869 21.8143 13.3187 21.9628C13.8504 22.1112 14.4024 21.8027 14.5516 21.2737L16.4598 14.5088L20.3902 17.534C20.7159 17.7847 21.1628 17.8111 21.5161 17.6006C21.8693 17.3901 22.0567 16.9856 21.9882 16.5817L19.6548 2.82926C19.5902 2.44813 19.3094 2.13876 18.9349 2.03591ZM18.0394 5.2627L19.5902 14.4027L16.5098 12.0318C16.2934 11.8652 16.0178 11.7941 15.7473 11.8351L11.9092 12.4166L18.0394 5.2627Z" fill="#0D151F"/>
<path fill-rule="evenodd" clip-rule="evenodd" d="M4.99124 9.19672C4.99124 8.64443 5.43896 8.19672 5.99124 8.19672H7.89365C8.44593 8.19672 8.89365 8.64443 8.89365 9.19672C8.89365 9.749 8.44593 10.1967 7.89365 10.1967H5.99124C5.43896 10.1967 4.99124 9.749 4.99124 9.19672Z" fill="#0D151F"/>
<path d="M12.9972 4.78589C12.9972 4.2336 12.5494 3.78589 11.9972 3.78589L1.9978 3.78589V5.78589L11.9972 5.78589C12.5494 5.78589 12.9972 5.33817 12.9972 4.78589Z" fill="#0D151F"/>
<path d="M6.9641 13.6075C6.9641 13.0552 6.51639 12.6075 5.9641 12.6075L1.9978 12.6075V14.6075L5.9641 14.6075C6.51639 14.6075 6.9641 14.1598 6.9641 13.6075Z" fill="#0D151F"/>
<path d="M10.0491 18.0182C10.0491 17.466 9.60142 17.0182 9.04913 17.0182H1.9978V19.0182H9.04913C9.60142 19.0182 10.0491 18.5705 10.0491 18.0182Z" fill="#0D151F"/>
</svg>
