<svg width="24" height="24" viewBox="0 0 24 24" fill="none" xmlns="http://www.w3.org/2000/svg">
<path d="M17.9512 9.18038H19.5L19.3109 22H17.762L17.9512 13.087C17.1413 12.928 16.3821 12.6297 15.6633 12.2023C14.9446 11.7749 14.3372 11.2778 13.8209 10.7013L13.1932 13.753L15.2616 15.7542V22H13.237V17.2751L11.1585 15.2739L9.07632 22H6.88971C6.88971 22 10.2474 7.739 10.2778 7.60977C10.3891 7.13263 10.6118 6.76483 10.9864 6.52626C11.361 6.25786 11.7355 6.12864 12.1202 6.12864C12.515 6.12864 12.8794 6.2181 13.2135 6.39703C13.5577 6.56602 13.8209 6.81453 14.0132 7.13263L15.0863 8.75293C15.3799 9.28972 15.7747 9.75693 16.2707 10.1347C16.7667 10.5124 17.3336 10.8007 17.9512 10.9995V9.18038ZM8.92126 6.41691L7.75709 6.17834C7.18007 6.02923 6.65366 6.14852 6.17787 6.46661C5.71221 6.78471 5.42876 7.22209 5.32753 7.79864L4.50755 11.755C4.47718 12.0432 4.53792 12.3017 4.69989 12.5403C4.86186 12.7788 5.07445 12.9081 5.32753 12.9478L7.56475 13.3753L8.92126 6.41691ZM13.295 2C12.1815 2 11.2704 2.89465 11.2704 3.9881C11.2704 5.08156 12.1815 5.97621 13.295 5.97621C14.4086 5.97621 15.3196 5.0915 15.3196 3.9881C15.3196 2.88471 14.4187 2 13.295 2Z" fill="#0D151F"/>
</svg>
