<svg width="24" height="24" viewBox="0 0 24 24" fill="none" xmlns="http://www.w3.org/2000/svg">
<path fill-rule="evenodd" clip-rule="evenodd" d="M20.0363 3.56981C18.0093 1.4625 14.4271 1.55924 12.0192 3.41255C9.61633 1.53067 5.9882 1.50149 3.99874 3.56981C2.81346 4.80208 2.15251 6.72889 2.03516 8.65009C1.91773 10.5725 2.3382 12.5941 3.44144 14.0186L3.44795 14.027L3.45481 14.0351C3.54092 14.1368 3.62677 14.2367 3.71239 14.3346C2.83568 14.8617 2.25495 15.8419 2.25495 16.952V20.9936L3.71885 20.9932L3.7191 22.0081H5.67586L5.67562 20.9931H18.3591L18.3594 22.0081H20.3162L20.3159 20.9932L21.7801 20.9936V16.952C21.7801 15.8095 21.1792 14.8504 20.3225 14.3355C20.4038 14.2426 20.485 14.1482 20.5661 14.0525L20.5746 14.0424L20.5826 14.032C21.6877 12.5761 22.1132 10.554 21.9978 8.63364C21.8825 6.71539 21.2214 4.80193 20.0363 3.56981ZM20.0468 8.75494C20.1328 10.1613 19.8573 11.5561 19.2221 12.546C18.8624 11.2741 17.7233 10.3737 16.4096 10.3737L13.9695 10.3737L13.9682 10.3737C13.1978 10.3759 12.5193 10.6841 12.0188 11.1441C11.5026 10.6673 10.819 10.3737 10.0655 10.3737H7.62542C6.25506 10.3737 5.1628 11.3265 4.81306 12.5553C4.17622 11.5943 3.89763 10.1941 3.98675 8.7691C4.08265 7.23568 4.59661 5.79748 5.39598 4.96642C6.0858 4.24926 7.13317 3.92419 8.25023 4.00938C9.36574 4.09446 10.5011 4.58747 11.3189 5.43771L12.0175 6.16403L12.7161 5.43771L12.7172 5.43663C13.5423 4.57353 14.683 4.088 15.7998 4.00995C16.9195 3.93169 17.9636 4.26418 18.639 4.96642C19.4401 5.79918 19.9533 7.22656 20.0468 8.75494ZM6.65176 13.4005C6.65176 12.7996 7.12357 12.3684 7.62542 12.3684H10.0651C10.6173 12.3688 11.0391 12.8469 11.0391 13.4005V13.9252H6.65176V13.4005ZM12.9959 13.4005C12.9959 12.7899 13.4651 12.3684 13.9695 12.3684H16.4096C16.9573 12.3684 17.3833 12.8477 17.3833 13.4005V13.9252H12.9959V13.4005ZM5.18537 15.9199L18.8468 15.9195C19.4145 15.9205 19.8233 16.3953 19.8233 16.952V18.9987H4.21172V16.952C4.21172 16.3556 4.68474 15.9199 5.18537 15.9199Z" fill="#0D151F"/>
</svg>
