<svg width="24" height="24" viewBox="0 0 24 24" fill="none" xmlns="http://www.w3.org/2000/svg">
<path fill-rule="evenodd" clip-rule="evenodd" d="M13.062 6.0399C14.1665 6.0399 15.0619 5.15792 15.0619 4.06994C15.0619 2.98196 14.1665 2.09998 13.062 2.09998C11.9574 2.09998 11.062 2.98196 11.062 4.06994C11.062 5.15792 11.9574 6.0399 13.062 6.0399Z" fill="#0D151F"/>
<path fill-rule="evenodd" clip-rule="evenodd" d="M8.42304 13.4182L8.42916 13.4211L6.29968 17.065L5.85283 17.7003L8.05638 19.204C8.55513 19.5443 9.23954 19.4219 9.58505 18.9306C9.93055 18.4394 9.80632 17.7652 9.30757 17.4249L9.04094 17.243L12.514 12.9442L12.4979 12.9366L12.7321 12.5666C13.101 11.9839 13.8728 11.0756 14.8229 10.3788C15.6802 9.74999 16.5239 9.40648 17.2633 9.43234C17.4469 9.60302 17.6267 9.76899 17.8027 9.93073L17.7843 9.92354L17.1584 9.67898L16.6531 10.1174C14.8572 11.6755 12.3429 16.1992 14.7341 21.9H17.1479C14.8218 17.3177 16.3962 13.7205 17.6514 12.2125C17.8574 12.2998 18.0662 12.3902 18.2772 12.4815L18.3768 12.5246C18.8462 12.7276 19.3318 12.9363 19.7729 13.0983C20.1921 13.2522 20.6753 13.4047 21.1174 13.4349C21.3414 13.4502 21.6503 13.4421 21.9621 13.3129C22.3158 13.1662 22.6073 12.8889 22.7552 12.5042L23 11.8673L22.5229 11.3744C21.8153 10.6431 20.9476 9.85132 20.0144 8.99962L20.0135 8.99883L20.0126 8.99799C19.7461 8.75476 19.4742 8.50665 19.1992 8.25367L19.5036 7.82728C19.8527 7.33845 19.7334 6.66345 19.2371 6.31963C18.7408 5.9758 18.0555 6.09336 17.7065 6.58219L17.2182 7.26605C15.8034 7.25391 14.5022 7.91568 13.5107 8.64287C13.2243 8.8529 12.9513 9.07731 12.6948 9.30815L11.2262 8.45714L11.8896 5.9304L11.6035 5.52318C11.4138 5.25304 11.1609 5.10353 10.9702 5.02076C10.7743 4.9357 10.5739 4.89029 10.3972 4.86474C10.044 4.81369 9.64953 4.82301 9.26094 4.86651C8.47679 4.95428 7.53945 5.20172 6.65708 5.60733C5.78173 6.00971 4.87639 6.60665 4.25021 7.44416C3.59797 8.31654 3.27399 9.42413 3.58023 10.6939L3.70026 11.1916C3.55976 11.188 3.42045 11.185 3.2823 11.1827C2.51762 11.1701 1.74246 11.177 1 11.2738V13.4644C1.57913 13.3621 2.30987 13.3312 3.24536 13.3467C3.66478 13.3536 4.11518 13.3693 4.59376 13.3859C5.7251 13.4253 7.01406 13.4701 8.42304 13.4182ZM5.66145 9.72083L8.87472 11.2323C9.60583 11.1919 10.3651 11.1201 11.1549 11.0014L11.1934 10.9491L8.68417 9.49514L9.32859 7.04069C8.8131 7.11842 8.18486 7.29336 7.58626 7.56852C6.9088 7.87993 6.3535 8.28069 6.0194 8.72755C5.79859 9.02289 5.66622 9.34467 5.66145 9.72083Z" fill="#0D151F"/>
</svg>
