<svg width="24" height="24" viewBox="0 0 24 24" fill="none" xmlns="http://www.w3.org/2000/svg">
<path fill-rule="evenodd" clip-rule="evenodd" d="M11.5346 2.73455C11.1978 2.90766 10.8191 3.27806 10.5373 3.72893C10.1694 4.31777 9.85918 4.94247 9.61199 5.59444L9.52084 5.83487C9.52324 5.8357 9.52565 5.83653 9.52805 5.83737L9.69237 5.61038C10.3177 4.74665 11.0738 3.99374 11.9287 3.37597C11.9495 3.36093 11.9704 3.34597 11.9913 3.33109C11.9937 3.32719 11.9962 3.32319 11.9986 3.3191C12.0517 3.2315 12.1056 3.12378 12.1381 3.01681C12.1712 2.90785 12.1681 2.84617 12.1633 2.82216C12.1632 2.82206 12.1632 2.8219 12.1632 2.82167C12.1626 2.81695 12.1588 2.78389 12.0813 2.72131C11.9656 2.62782 11.8341 2.58061 11.5346 2.73455ZM14.0647 2.20022C13.9406 1.81472 13.7013 1.45882 13.3379 1.1653C12.4334 0.434902 11.4022 0.553909 10.6203 0.955758C9.87579 1.33844 9.25448 2.00783 8.84128 2.66904C8.40409 3.36863 8.03557 4.11081 7.74189 4.88541L7.41615 5.74456C4.62233 6.26866 2.41969 8.42918 1.84376 11.2158C1.5605 12.5864 2.14496 13.9907 3.317 14.7556L3.54226 14.9026L3.19962 15.8519C2.89549 16.6945 2.94056 17.6236 3.32479 18.4328C3.32579 18.4349 3.32679 18.437 3.3278 18.4391H2.56399C1.30691 18.4391 0.287842 19.4582 0.287842 20.7152C0.287842 21.9723 1.30691 22.9914 2.56399 22.9914H7.63825C8.19053 22.9914 8.63825 22.5437 8.63825 21.9914C8.63825 21.4391 8.19053 20.9914 7.63825 20.9914H2.56399C2.41148 20.9914 2.28784 20.8678 2.28784 20.7152C2.28784 20.5627 2.41148 20.4391 2.56399 20.4391H4.56509C5.51472 20.4391 6.14028 19.4495 5.73296 18.5917C5.71996 18.5643 5.70573 18.5376 5.6903 18.5115L5.11514 17.5392C4.97489 17.2205 4.96225 16.8594 5.08083 16.5309L5.64188 14.9765C5.8288 14.4586 5.63513 13.8802 5.17405 13.5793L4.41005 13.0807C3.92661 12.7652 3.68553 12.1859 3.80237 11.6206C4.21614 9.61854 5.80476 8.06868 7.8164 7.70446L8.26865 7.62258C8.48802 7.61502 8.71868 7.66785 8.92746 7.74679C9.14562 7.82929 9.29093 7.92167 9.3 7.92753C9.76354 8.22708 10.362 8.09601 10.6699 7.67075C10.6699 7.67075 10.6699 7.67074 10.6699 7.67074L11.3124 6.7832C11.811 6.09449 12.4137 5.49393 13.0949 5.00077L13.2789 4.87152C13.8197 4.50285 14.4066 4.20024 15.0278 3.97277L15.2808 3.88015C15.2842 3.8789 15.2869 3.87807 15.289 3.87752C15.291 3.87901 15.2935 3.88115 15.296 3.88396C15.2985 3.88678 15.3004 3.88947 15.3016 3.89167C15.3009 3.89367 15.2997 3.89629 15.2981 3.89955C14.6197 5.26263 13.5218 6.37202 12.1658 7.06453L11.0336 7.64278L11.0336 7.64278C10.5709 7.87908 10.3258 8.46627 10.5871 8.99333C10.7719 9.36617 10.964 9.98015 10.5911 10.5628C10.1911 11.1876 10.5881 12.0939 11.4169 12.112L11.4169 12.112L15.8169 12.2075C16.9817 12.2328 18.1484 12.4875 19.2229 12.9465C22.6327 14.403 22.4928 19.2633 19.0922 20.4707C18.1216 20.8153 17.0992 20.9914 16.0693 20.9914H11.5438C11.5246 20.8792 11.5399 20.7482 11.6028 20.6208C11.6934 20.4377 11.8313 20.3573 11.9869 20.3573H14.423C14.7741 20.3573 15.0996 20.1731 15.2803 19.872C15.4611 19.5709 15.4706 19.1971 15.3056 18.8872L15.2603 18.8021L14.423 19.2481L15.2603 18.8021C14.8205 17.9766 15.4188 16.98 16.3542 16.98H17.781C18.3333 16.98 18.781 16.5323 18.781 15.98C18.781 15.4277 18.3333 14.98 17.781 14.98H16.3542C14.4209 14.98 13.0386 16.6087 13.1132 18.3573H11.9869C10.9537 18.3573 10.1827 18.9807 9.81005 19.7343C9.4452 20.4721 9.40958 21.4339 9.92009 22.2343C10.3104 22.8463 10.9709 22.9914 11.3993 22.9914H16.0693C17.3272 22.9914 18.5759 22.7763 19.7613 22.3554C24.9714 20.5056 25.0017 13.2401 20.0086 11.1072C18.7023 10.5492 17.2839 10.2389 15.8603 10.208L12.7935 10.1414C12.8289 9.73481 12.7855 9.35712 12.711 9.03184L13.0755 8.84569C14.8128 7.95843 16.2195 6.53707 17.0886 4.79067C17.9 3.16038 16.3031 1.37593 14.5931 2.00211L14.3401 2.09473C14.2477 2.12857 14.1559 2.16374 14.0647 2.20022ZM12.3795 8.10607C12.3793 8.10565 12.3791 8.10524 12.3789 8.10482L12.3789 8.10489C12.3791 8.10528 12.3793 8.10567 12.3795 8.10607ZM11.392 20.991C11.392 20.991 11.3927 20.991 11.394 20.9912ZM5.61428 10.4214C5.61428 9.86907 6.062 9.42136 6.61428 9.42136H6.6179C7.17019 9.42136 7.6179 9.86907 7.6179 10.4214C7.6179 10.9736 7.17019 11.4214 6.6179 11.4214H6.61428C6.062 11.4214 5.61428 10.9736 5.61428 10.4214Z" fill="#0D151F"/>
</svg>
