<svg width="24" height="24" viewBox="0 0 24 24" fill="none" xmlns="http://www.w3.org/2000/svg">
<path fill-rule="evenodd" clip-rule="evenodd" d="M16.885 2.43604C16.4261 2.43604 16.0541 2.80802 16.0541 3.26689C16.0541 3.72575 16.4261 4.09774 16.885 4.09774C17.3438 4.09774 17.7158 3.72575 17.7158 3.26689C17.7158 2.80802 17.3438 2.43604 16.885 2.43604ZM14.0541 3.26689C14.0541 1.70345 15.3215 0.436035 16.885 0.436035C18.4484 0.436035 19.7158 1.70345 19.7158 3.26689C19.7158 4.83032 18.4484 6.09774 16.885 6.09774C15.3215 6.09774 14.0541 4.83032 14.0541 3.26689ZM11.1535 15.6358C11.3281 16.1598 11.045 16.7261 10.521 16.9007L7.09872 18.0415L7.2531 18.6204C7.3954 19.1541 7.07816 19.702 6.54452 19.8443C6.01089 19.9866 5.46293 19.6694 5.32063 19.1358L4.97236 17.8297C4.80893 17.2169 5.15065 16.5827 5.75237 16.3821L9.88857 15.0034C10.4125 14.8287 10.9788 15.1119 11.1535 15.6358ZM2.38855 16.4454C2.91037 16.2646 3.48003 16.5409 3.66093 17.0627L4.82321 20.4155L5.67208 20.8753C6.1577 21.1383 6.33813 21.7452 6.07509 22.2308C5.81204 22.7165 5.20513 22.8969 4.71951 22.6338L3.59754 22.0261C3.33401 21.8834 3.13344 21.6472 3.03527 21.364L1.77126 17.7178C1.59036 17.196 1.86673 16.6263 2.38855 16.4454ZM17.785 20.7447C18.1756 21.1352 18.1756 21.7684 17.785 22.1589L16.7029 23.241C16.4779 23.466 16.1727 23.5924 15.8544 23.5924H12.0729C11.5206 23.5924 11.0729 23.1447 11.0729 22.5924C11.0729 22.0402 11.5206 21.5924 12.0729 21.5924H15.523L16.3708 20.7447C16.7613 20.3541 17.3945 20.3541 17.785 20.7447Z" fill="#0D151F"/>
<path fill-rule="evenodd" clip-rule="evenodd" d="M11.7234 4.71251C10.8042 4.4754 8.34777 3.96011 5.91844 5.65387C5.4654 5.96973 5.3542 6.59306 5.67007 7.0461C5.98593 7.49914 6.60925 7.61034 7.0623 7.29448C8.69174 6.15841 10.3408 6.43072 11.1391 6.62772L11.0592 6.58685C11.1072 6.61134 11.1627 6.63333 11.2239 6.64912C11.1968 6.64214 11.1686 6.63498 11.1391 6.62772L11.5689 6.84746L8.96787 10.6518C8.66727 11.0915 8.69243 11.6767 9.02965 12.0889L12.0355 15.7634V19.4716C12.0355 20.1344 12.5728 20.6716 13.2355 20.6716H14.3707C14.923 20.6716 15.3707 20.2239 15.3707 19.6716C15.3707 19.1193 14.923 18.6716 14.3707 18.6716H14.0355V15.4779C14.0355 15.2009 13.9397 14.9325 13.7644 14.7181L13.3123 14.1655L16.4774 9.35699L17.5929 9.92729C17.7657 10.0157 17.9527 10.0585 18.1384 10.0585H21.1154C21.6677 10.0585 22.1154 9.61075 22.1154 9.05847C22.1154 8.50619 21.6677 8.05847 21.1154 8.05847H18.331L11.9689 4.80573C11.8948 4.76784 11.8132 4.73566 11.7234 4.71251ZM14.6859 8.44106L13.3642 7.76531L10.9569 11.2862L11.9856 12.5436L14.6859 8.44106Z" fill="#0D151F"/>
</svg>
