<svg width="24" height="24" viewBox="0 0 24 24" fill="none" xmlns="http://www.w3.org/2000/svg">
<path fill-rule="evenodd" clip-rule="evenodd" d="M1.25 2.57373H10.1857C10.8313 2.57373 11.4371 2.88533 11.8126 3.41047L22.4326 18.2632C23.379 19.5868 22.4328 21.4264 20.8057 21.4264H3.25C2.14543 21.4264 1.25 20.531 1.25 19.4264V2.57373ZM3.25 6.6916V19.4264H12.3556L3.25 6.6916ZM14.8143 19.4264H16.5806L5.9607 4.57373H4.19435L14.8143 19.4264ZM8.41935 4.57373L19.0393 19.4264H20.8057L10.1857 4.57373H8.41935ZM4.09865 12.6797C4.09865 12.1275 4.54636 11.6797 5.09865 11.6797H5.10606C5.65834 11.6797 6.10606 12.1275 6.10606 12.6797C6.10606 13.232 5.65834 13.6797 5.10606 13.6797H5.09865C4.54636 13.6797 4.09865 13.232 4.09865 12.6797ZM4.47187 15.7406C4.47187 15.1883 4.91958 14.7406 5.47187 14.7406H5.47928C6.03156 14.7406 6.47928 15.1883 6.47928 15.7406C6.47928 16.2929 6.03156 16.7406 5.47928 16.7406H5.47187C4.91958 16.7406 4.47187 16.2929 4.47187 15.7406ZM7.11616 17.3644C7.11616 16.8121 7.56388 16.3644 8.11616 16.3644H8.12357C8.67586 16.3644 9.12357 16.8121 9.12357 17.3644C9.12357 17.9167 8.67586 18.3644 8.12357 18.3644H8.11616C7.56388 18.3644 7.11616 17.9167 7.11616 17.3644Z" fill="#0D151F"/>
</svg>
