<svg width="24" height="24" viewBox="0 0 24 24" fill="none" xmlns="http://www.w3.org/2000/svg">
<path fill-rule="evenodd" clip-rule="evenodd" d="M16.5004 3.85719C16.4168 2.67527 15.3155 1.81095 14.1306 2.03705L5.31665 3.71897C4.37365 3.89891 3.69153 4.7235 3.69153 5.68352V18.3167C3.69153 19.2767 4.37365 20.1013 5.31664 20.2812L14.1306 21.9632C15.3157 22.1893 16.4172 21.3247 16.5004 20.1425H18.3086C19.4132 20.1425 20.3086 19.247 20.3086 18.1425V5.85719C20.3086 4.75262 19.4132 3.85719 18.3086 3.85719H16.5004ZM16.5055 18.1425L18.3086 18.1425L18.3086 5.85719H16.5055V18.1425ZM14.5055 4.0016L5.69153 5.68352V18.3167L14.5055 19.9986L14.5055 4.0016ZM10.9793 12.0001C10.9793 11.4478 11.427 11.0001 11.9793 11.0001H11.9803C12.5326 11.0001 12.9803 11.4478 12.9803 12.0001C12.9803 12.5524 12.5326 13.0001 11.9803 13.0001H11.9793C11.427 13.0001 10.9793 12.5524 10.9793 12.0001Z" fill="#0D151F"/>
</svg>
