<svg width="24" height="24" viewBox="0 0 24 24" fill="none" xmlns="http://www.w3.org/2000/svg">
<path fill-rule="evenodd" clip-rule="evenodd" d="M14.0913 1C14.6435 1 15.0913 1.44772 15.0913 2V3.52976C16.407 3.60223 17.4515 4.69209 17.4515 6.02592V14.4164H19.2752C20.4929 14.4164 21.5334 15.2937 21.7392 16.4939L22.3537 20.0777C22.6156 21.605 21.4392 23.0002 19.8897 23.0002H4.11039C2.56082 23.0002 1.38448 21.605 1.64635 20.0777L2.26085 16.4939C2.46663 15.2937 3.5072 14.4164 4.72489 14.4164H6.42458V6.02592C6.42458 4.64521 7.54387 3.52592 8.92458 3.52592H13.0913V2C13.0913 1.44772 13.539 1 14.0913 1ZM6.42458 16.4164H4.72489C4.48135 16.4164 4.27324 16.5918 4.23208 16.8319L3.61758 20.4157C3.56521 20.7211 3.80048 21.0002 4.11039 21.0002H19.8897C20.1996 21.0002 20.4348 20.7211 20.3825 20.4157L19.768 16.8319C19.7268 16.5918 19.5187 16.4164 19.2752 16.4164H17.4515V17.1873C17.4515 18.568 16.3323 19.6873 14.9515 19.6873H8.92458C7.54387 19.6873 6.42458 18.568 6.42458 17.1873V16.4164ZM8.92458 5.52592C8.64844 5.52592 8.42458 5.74978 8.42458 6.02592V8.8675H15.4515V6.02592C15.4515 5.74978 15.2277 5.52592 14.9515 5.52592H8.92458ZM15.4515 10.8675H8.42458V17.1873C8.42458 17.4634 8.64844 17.6873 8.92458 17.6873H14.9515C15.2277 17.6873 15.4515 17.4634 15.4515 17.1873V10.8675Z" fill="#0D151F"/>
</svg>
