<svg width="24" height="24" viewBox="0 0 24 24" fill="none" xmlns="http://www.w3.org/2000/svg">
<path fill-rule="evenodd" clip-rule="evenodd" d="M8.0611 5C8.0611 4.44772 8.50882 4 9.0611 4H16.5961C17.5937 4.00008 18.534 4.41005 19.2543 5.11483C19.9712 5.81631 20.4283 6.76554 20.575 7.78208L21.1578 11.8234L21.9761 17.4993C22.018 17.7904 22.0048 18.0886 21.9364 18.3751C21.8681 18.6616 21.7447 18.9363 21.5676 19.178C21.3903 19.42 21.1609 19.6263 20.8884 19.7725C20.615 19.9192 20.3089 19.9995 19.993 20L19.9913 20H3C2.73478 20 2.48043 19.8946 2.29289 19.7071C2.10536 19.5196 2 19.2652 2 19C2 16.6116 2.82023 14.2972 4.31515 12.5707C5.81398 10.8397 7.88036 9.83333 10.0713 9.83333H18.8501L18.5954 8.06761C18.5063 7.44965 18.2333 6.91399 17.8555 6.54434C17.4811 6.17801 17.0331 6.00006 16.5961 6C16.596 6 16.5961 6 16.5961 6H9.0611C8.50882 6 8.0611 5.55228 8.0611 5ZM19.1386 11.8333H10.0713C8.51137 11.8333 6.98053 12.5478 5.82712 13.8799C4.87055 14.9846 4.24705 16.4333 4.05951 18H19.9512C19.9522 17.9988 19.9532 17.9974 19.9543 17.9959C19.9666 17.9792 19.9815 17.951 19.991 17.9112C20.0005 17.8714 20.0027 17.8275 19.9966 17.7847M19.9966 17.7847L19.1783 12.1089L19.1386 11.8333M9.07129 15.5C9.07129 14.9477 9.519 14.5 10.0713 14.5H10.0814C10.6337 14.5 11.0814 14.9477 11.0814 15.5C11.0814 16.0523 10.6337 16.5 10.0814 16.5H10.0713C9.519 16.5 9.07129 16.0523 9.07129 15.5ZM13.112 15.5C13.112 14.9477 13.5597 14.5 14.112 14.5H14.1221C14.6744 14.5 15.1221 14.9477 15.1221 15.5C15.1221 16.0523 14.6744 16.5 14.1221 16.5H14.112C13.5597 16.5 13.112 16.0523 13.112 15.5Z" fill="#0D151F"/>
</svg>
