<svg width="24" height="24" viewBox="0 0 24 24" fill="none" xmlns="http://www.w3.org/2000/svg">
<path fill-rule="evenodd" clip-rule="evenodd" d="M2.03687 6.94807C2.03687 4.23569 4.23568 2.03687 6.94807 2.03687H17.052C19.7644 2.03687 21.9632 4.23568 21.9632 6.94807V17.052C21.9632 19.7644 19.7644 21.9632 17.052 21.9632H6.94807C4.23569 21.9632 2.03687 19.7644 2.03687 17.052V6.94807ZM6.94807 4.03687C5.34026 4.03687 4.03687 5.34026 4.03687 6.94807V17.052C4.03687 18.6598 5.34026 19.9632 6.94807 19.9632H17.052C18.6598 19.9632 19.9632 18.6598 19.9632 17.052V6.94807C19.9632 5.34026 18.6598 4.03687 17.052 4.03687H6.94807ZM9.17218 7.36242C9.72447 7.36242 10.1722 7.81014 10.1722 8.36242V15.4361C10.1722 15.9884 9.72447 16.4361 9.17218 16.4361C8.6199 16.4361 8.17218 15.9884 8.17218 15.4361V8.36242C8.17218 7.81014 8.6199 7.36242 9.17218 7.36242ZM13.5142 8.18651C14.0664 8.18651 14.5142 8.63422 14.5142 9.18651V9.56399H14.8279C15.3802 9.56399 15.8279 10.0117 15.8279 10.564C15.8279 11.1163 15.3802 11.564 14.8279 11.564H14.5142V14.6278C14.5142 14.631 14.5142 14.6342 14.5142 14.6373C14.551 14.6368 14.584 14.6357 14.6136 14.6341C14.6554 14.6319 14.6783 14.6293 14.6865 14.6281C15.2332 14.55 15.7398 14.9299 15.8179 15.4766C15.896 16.0234 15.5161 16.5299 14.9693 16.608C14.8861 16.6199 14.8011 16.627 14.7187 16.6314C14.6367 16.6357 14.552 16.6376 14.4652 16.6376C14.0006 16.6376 13.419 16.532 12.9982 16.0739C12.6031 15.6436 12.5142 15.0838 12.5142 14.6278V11.564H12.3916C11.8393 11.564 11.3916 11.1163 11.3916 10.564C11.3916 10.0117 11.8393 9.56399 12.3916 9.56399H12.5142V9.18651C12.5142 8.63422 12.9619 8.18651 13.5142 8.18651Z" fill="#0D151F"/>
</svg>
