<svg width="24" height="24" viewBox="0 0 24 24" fill="none" xmlns="http://www.w3.org/2000/svg">
<path fill-rule="evenodd" clip-rule="evenodd" d="M21 13.9978V14.9978C21 16.9078 19.93 18.5678 18.35 19.4078L19 21.9978H17L16.5 19.9978H7.5L7 21.9978H5L5.65 19.4078C4.84919 18.983 4.17931 18.3479 3.71239 17.5709C3.24548 16.7939 2.99919 15.9043 3 14.9978V13.9978H2V11.9978H22V13.9978H21ZM5 13.9978H19V14.9978C19 15.7934 18.6839 16.5565 18.1213 17.1191C17.5587 17.6817 16.7956 17.9978 16 17.9978H8C7.20435 17.9978 6.44129 17.6817 5.87868 17.1191C5.31607 16.5565 5 15.7934 5 14.9978V13.9978Z" fill="#0D151F"/>
<path fill-rule="evenodd" clip-rule="evenodd" d="M5.38956 4.30733C5.89137 4.53799 6.11117 5.13177 5.88051 5.63358L5.05921 7.42036L5.98674 8.07742C6.772 8.6337 7.04977 9.67034 6.64785 10.5447L6.47537 10.92C6.2447 11.4218 5.65092 11.6416 5.14911 11.4109C4.6473 11.1803 4.42749 10.5865 4.65815 10.0847L4.83063 9.70942L3.9031 9.05236C3.11784 8.49608 2.84007 7.45944 3.24199 6.58506L4.0633 4.79829C4.29396 4.29647 4.88774 4.07667 5.38956 4.30733Z" fill="#0D151F"/>
<path fill-rule="evenodd" clip-rule="evenodd" d="M9.5433 2.08319C10.0511 2.30027 10.2868 2.88793 10.0698 3.39576L8.93526 6.04977L10.186 6.75318C11.1041 7.26956 11.4643 8.40958 11.0096 9.35977L10.2864 10.8708C10.048 11.369 9.4509 11.5796 8.95273 11.3411C8.45456 11.1027 8.24398 10.5056 8.4824 10.0074L9.20555 8.49639L7.95485 7.79298C7.06507 7.29256 6.69498 6.20233 7.09623 5.26365L8.23073 2.60964C8.44781 2.10181 9.03547 1.8661 9.5433 2.08319Z" fill="#0D151F"/>
<path d="M20.5015 6.80351C20.5015 8.00442 19.5279 8.97795 18.327 8.97795C17.1261 8.97795 16.1526 8.00442 16.1526 6.80351C16.1526 5.60261 17.1261 4.62908 18.327 4.62908C19.5279 4.62908 20.5015 5.60261 20.5015 6.80351Z" fill="#0D151F"/>
<path d="M12.4093 11.2685C12.4093 10.0818 13.3713 9.11988 14.5579 9.11988H17.3223C18.5089 9.11988 19.4709 10.0818 19.4709 11.2685H12.4093Z" fill="#0D151F"/>
</svg>
