<svg width="24" height="24" viewBox="0 0 24 24" fill="none" xmlns="http://www.w3.org/2000/svg">
<path fill-rule="evenodd" clip-rule="evenodd" d="M1.99988 5C1.99988 3.34315 3.34302 2 4.99988 2H18.9999C20.6567 2 21.9999 3.34315 21.9999 5V19C21.9999 20.6569 20.6567 22 18.9999 22H4.99988C3.34302 22 1.99988 20.6569 1.99988 19V5ZM4.99988 4C4.44759 4 3.99988 4.44772 3.99988 5V19C3.99988 19.5523 4.44759 20 4.99988 20H18.9999C19.5522 20 19.9999 19.5523 19.9999 19V5C19.9999 4.44772 19.5522 4 18.9999 4H4.99988ZM10.3072 7.28997C10.8594 7.28997 11.3072 7.73769 11.3072 8.28997V13.8131C11.3072 14.5843 11.0994 15.3209 10.5651 15.8909C10.0218 16.4704 9.2966 16.71 8.52552 16.71C8.06994 16.71 7.62797 16.6152 7.21928 16.4081L7.21192 16.4043L7.20462 16.4005C6.81349 16.194 6.48465 15.9051 6.23541 15.5369L6.22946 15.5281C5.97846 15.1487 5.8417 14.7233 5.8139 14.2729L5.812 14.2421V14.1956C5.812 13.6433 6.25971 13.1956 6.812 13.1956C7.35601 13.1956 7.79856 13.63 7.8117 14.1708C7.82094 14.2736 7.84995 14.3513 7.89471 14.4203C7.95119 14.5023 8.02473 14.5705 8.13066 14.6277C8.23084 14.6771 8.35635 14.71 8.52552 14.71C8.87232 14.71 9.02052 14.6142 9.10601 14.523C9.20047 14.4222 9.30715 14.2296 9.30715 13.8131V8.28997C9.30715 7.73769 9.75487 7.28997 10.3072 7.28997ZM15.0699 10.11C14.9078 10.11 14.7784 10.1413 14.6673 10.1934L14.6584 10.1976C14.5428 10.2506 14.4435 10.3247 14.3545 10.4292C14.2858 10.5125 14.2254 10.6103 14.177 10.7263L14.1806 12.5928C14.228 12.6979 14.2849 12.7854 14.3491 12.8599C14.4429 12.9652 14.5467 13.0422 14.665 13.0981C14.7811 13.1488 14.9124 13.1777 15.0699 13.1777C15.3029 13.1777 15.4706 13.1211 15.6084 13.0286C15.7662 12.9216 15.9032 12.7678 16.0134 12.5343C16.12 12.3084 16.1876 12.0195 16.1876 11.6439V11.6347C16.1876 11.2631 16.1204 10.9755 16.0134 10.7489C15.9034 10.5159 15.7677 10.3654 15.6129 10.2622L15.6093 10.2597C15.4712 10.1668 15.3034 10.11 15.0699 10.11ZM12.1809 12.7782L12.1767 9.18316C12.1767 8.63087 12.6244 8.18316 13.1767 8.18316C13.4087 8.18316 13.6223 8.2622 13.792 8.39484C13.8017 8.39023 13.8115 8.38568 13.8213 8.38118C14.2152 8.19695 14.636 8.10997 15.0699 8.10997C15.6651 8.10997 16.2284 8.26616 16.7241 8.59929C17.2088 8.9229 17.5725 9.36654 17.8221 9.89519C18.0749 10.4309 18.1876 11.0184 18.1876 11.6347V11.6439C18.1876 12.2623 18.0753 12.8515 17.8221 13.388C17.5727 13.9163 17.2099 14.3599 16.7278 14.686L16.726 14.6872C16.2298 15.0212 15.6659 15.1777 15.0699 15.1777C14.7658 15.1777 14.468 15.1354 14.1809 15.0478V15.71C14.1809 16.2623 13.7332 16.71 13.1809 16.71C12.6287 16.71 12.1809 16.2623 12.1809 15.71V12.7782Z" fill="#0D151F"/>
</svg>
