<svg width="24" height="24" viewBox="0 0 24 24" fill="none" xmlns="http://www.w3.org/2000/svg">
<path fill-rule="evenodd" clip-rule="evenodd" d="M9.70407 2.73888C11.1911 2.22236 12.8088 2.22212 14.296 2.73823L20.1293 4.76262C21.1352 5.11172 21.8097 6.05965 21.8097 7.12444V16.5198C21.8097 17.7975 21.0003 18.935 19.7932 19.3539L14.295 21.262C12.8085 21.7779 11.1916 21.7779 9.70505 21.262L4.20686 19.3539C2.99974 18.935 2.19043 17.7975 2.19043 16.5198V7.12694C2.19043 6.06241 2.86453 5.11465 3.87011 4.76535L9.70407 2.73888ZM15.4049 18.7599V15.115C15.4049 14.5627 15.8526 14.115 16.4049 14.115C16.9571 14.115 17.4049 14.5627 17.4049 15.115V18.0658L19.1375 17.4645C19.5399 17.3248 19.8097 16.9457 19.8097 16.5198V10.6351L13 12.9994V19.5479C13.2158 19.5039 13.4294 19.4454 13.6393 19.3726L15.4049 18.7599ZM11 19.5479V12.9995L4.19043 10.6363V16.5198C4.19043 16.9457 4.4602 17.3248 4.86257 17.4645L10.3608 19.3726C10.5707 19.4454 10.7843 19.5039 11 19.5479ZM4.19043 8.51926L11 10.8825V9.59676L4.19043 7.19463V8.51926ZM6.61499 5.92912L12.0156 7.83421L17.6681 6.0255L13.6402 4.62768C12.578 4.25904 11.4225 4.2592 10.3603 4.62815L6.61499 5.92912ZM19.8097 7.44014L13 9.61909V10.8822L19.8097 8.51795V7.44014Z" fill="#0D151F"/>
</svg>
