<svg width="24" height="24" viewBox="0 0 24 24" fill="none" xmlns="http://www.w3.org/2000/svg">
<g clip-path="url(#clip0_2499_910)">
<path fill-rule="evenodd" clip-rule="evenodd" d="M12.4348 4.94164C13.9591 7.74626 16.2631 10.0503 19.0677 11.5746C20.4384 9.71817 20.2831 7.0888 18.6018 5.40754C16.9205 3.72627 14.2912 3.57097 12.4348 4.94164ZM17.4593 12.9594C14.8257 11.3864 12.623 9.18367 11.05 6.55001C10.6608 7.28789 10.4799 8.1069 10.5072 8.92174C10.515 9.15391 10.5397 9.38555 10.5813 9.61461C10.7478 10.5305 11.1843 11.4061 11.8938 12.1156C12.6032 12.825 13.4788 13.2616 14.3947 13.428C14.6238 13.4696 14.8554 13.4944 15.0876 13.5021C15.9025 13.5295 16.7215 13.3485 17.4593 12.9594ZM10.4796 3.99332C13.113 1.3599 17.3826 1.3599 20.016 3.99332C22.6494 6.62674 22.6494 10.8964 20.016 13.5298C18.6415 14.9043 16.8194 15.5614 15.0206 15.501C14.8445 15.4951 14.6686 15.4823 14.4933 15.4627L8.33852 20.2435C7.34633 21.0142 6.00644 21.0712 4.96824 20.4553L3.71018 21.7134C3.31966 22.1039 2.68649 22.1039 2.29597 21.7134C1.90544 21.3229 1.90544 20.6897 2.29597 20.2992L3.55403 19.0411C2.93811 18.0029 2.99518 16.663 3.76587 15.6708L8.54664 9.51602C8.527 9.34073 8.51423 9.16483 8.50833 8.98877C8.448 7.18994 9.10505 5.36785 10.4796 3.99332ZM9.25743 11.8613L5.34536 16.8977C5.03614 17.2958 5.07156 17.8618 5.428 18.2182L5.7911 18.5814C6.14754 18.9378 6.71355 18.9732 7.11165 18.664L12.1481 14.7519C11.547 14.4407 10.983 14.0332 10.4796 13.5298C9.97612 13.0263 9.56863 12.4624 9.25743 11.8613Z" fill="#0D151F"/>
</g>
<defs>
<clipPath id="clip0_2499_910">
<rect width="24" height="24" fill="white"/>
</clipPath>
</defs>
</svg>
