<svg width="24" height="24" viewBox="0 0 24 24" fill="none" xmlns="http://www.w3.org/2000/svg">
<path fill-rule="evenodd" clip-rule="evenodd" d="M4.54253 2.00742C4.18071 1.96314 3.82345 2.11924 3.61014 2.41483C3.39682 2.71042 3.36125 3.09867 3.5173 3.4281L5.11376 6.79842C5.09462 6.81933 5.0751 6.84082 5.0552 6.86288C4.71852 7.23607 4.27165 7.77627 3.82423 8.45167C2.94127 9.78452 2.00671 11.719 2.00004 13.9757C1.99966 13.9914 1.99966 14.0071 2.00003 14.0227C2.00627 16.2798 2.94107 18.2149 3.82422 19.5481C4.27163 20.2235 4.71849 20.7638 5.05516 21.137C5.2239 21.3241 5.36607 21.4704 5.46833 21.5721C5.5195 21.6229 5.56077 21.6627 5.5905 21.6909C5.60767 21.7072 5.62494 21.7233 5.64242 21.7393L5.64353 21.7403C5.85201 21.9294 6.06721 22 6.31579 22H14.3684C14.5498 22 14.7277 21.9507 14.8831 21.8574C14.9061 21.8433 14.929 21.8291 14.9517 21.8145C14.9884 21.7909 15.0385 21.7579 15.0999 21.7154C15.2227 21.6305 15.3916 21.5074 15.5911 21.3452C15.9893 21.0217 16.5152 20.5382 17.0408 19.8881C18.0756 18.6081 19.1181 16.6679 19.1568 14.0505C19.1582 14.0233 19.1585 13.9962 19.1577 13.9693C19.1578 13.9462 19.1579 13.9232 19.1579 13.9C19.1579 11.2061 18.0954 9.26166 17.0314 8.00002H18.5928C18.7322 8.2292 18.9222 8.58906 19.1175 9.10437C19.5434 10.2282 20 12.1064 20 15C20 15.5523 20.4477 16 21 16C21.5523 16 22 15.5523 22 15C22 11.8936 21.5092 9.77185 20.9877 8.39566C20.7272 7.70822 20.4604 7.21051 20.2468 6.87227C20.1401 6.70332 20.047 6.57471 19.9751 6.48255C19.9392 6.43649 19.9086 6.39959 19.8842 6.37136C19.8673 6.35169 19.8501 6.33225 19.8322 6.31336L19.8312 6.31227C19.6423 6.11293 19.3798 6.00002 19.1052 6.00002H16.0354L16.3004 4.50842C16.3484 4.23807 16.2831 3.95986 16.1199 3.73905C15.9567 3.51825 15.7098 3.37428 15.4373 3.34092L4.54253 2.00742ZM6.72797 8.00002H14.0825C14.157 8.05007 14.2496 8.11522 14.3557 8.1958C14.6645 8.4304 15.0817 8.79112 15.4992 9.28548C16.1751 10.0858 16.8511 11.233 17.078 12.7823C14.6719 12.4699 12.7264 12.9745 10.9975 13.4229C10.7737 13.481 10.5535 13.5381 10.3364 13.5924C8.34072 14.0913 6.49843 14.4035 4.03164 13.3702C4.17849 11.8993 4.81506 10.5774 5.49156 9.55621C5.87309 8.98029 6.25516 8.51852 6.5402 8.20257C6.60922 8.12606 6.6723 8.05839 6.72797 8.00002ZM4.19094 15.5609C4.45551 16.6578 4.96127 17.6431 5.49157 18.4436C5.87311 19.0196 6.25519 19.4814 6.54023 19.7974C6.60927 19.8739 6.67235 19.9416 6.72803 20H14.0615C14.1356 19.9461 14.2265 19.8771 14.3299 19.793C14.6422 19.5393 15.0637 19.1524 15.4855 18.6307C16.2018 17.7447 16.9121 16.4804 17.1062 14.8064C14.9831 14.4644 13.3029 14.8963 11.4897 15.3625C11.2692 15.4191 11.0469 15.4763 10.8215 15.5327C8.86636 16.0214 6.78748 16.4008 4.19094 15.5609ZM14.0041 6L14.1466 5.19787L6.10224 4.21326L6.9486 6H14.0041Z" fill="#0D151F"/>
</svg>
