<svg width="24" height="24" viewBox="0 0 24 24" fill="none" xmlns="http://www.w3.org/2000/svg">
<path fill-rule="evenodd" clip-rule="evenodd" d="M2 5C2 3.34315 3.34315 2 5 2H19C20.6569 2 22 3.34315 22 5V19C22 20.6569 20.6569 22 19 22H5C3.34315 22 2 20.6569 2 19V5ZM5 4C4.44772 4 4 4.44772 4 5V19C4 19.5523 4.44772 20 5 20H19C19.5523 20 20 19.5523 20 19V5C20 4.44772 19.5523 4 19 4H5ZM6.08395 7.36296C6.63624 7.36296 7.08395 7.81067 7.08395 8.36296V10.3736L9.59822 7.74997C9.98035 7.35123 10.6134 7.33776 11.0121 7.71989C11.4109 8.10202 11.4243 8.73504 11.0422 9.13378L8.7644 11.5106L11.6331 15.1655C11.9741 15.6 11.8983 16.2286 11.4639 16.5696C11.0294 16.9106 10.4008 16.8348 10.0598 16.4004L7.36667 12.9691L7.08395 13.2641V15.783C7.08395 16.3352 6.63624 16.783 6.08395 16.783C5.53167 16.783 5.08395 16.3352 5.08395 15.783V8.36296C5.08395 7.81067 5.53167 7.36296 6.08395 7.36296ZM13.6701 9.83473C14.231 9.50833 14.8614 9.36296 15.5266 9.36296C16.1916 9.36296 16.822 9.50824 17.3811 9.83703C17.929 10.1592 18.3543 10.6144 18.6503 11.1789C18.9509 11.7523 19.0835 12.3921 19.0835 13.0676V13.0783C19.0835 13.7538 18.9509 14.3936 18.6503 14.967C18.3543 15.5315 17.929 15.9867 17.3811 16.3089C16.822 16.6377 16.1916 16.783 15.5266 16.783C14.8614 16.783 14.231 16.6376 13.6701 16.3112L13.6661 16.3089C13.1166 15.9857 12.6917 15.5282 12.3994 14.9601C12.1053 14.3882 11.9758 13.751 11.9758 13.0783V13.0676C11.9758 12.3934 12.1045 11.7547 12.4004 11.184C12.6926 10.6167 13.1172 10.1598 13.6661 9.83703L13.6701 9.83473ZM14.6779 11.5622C14.4664 11.6871 14.3024 11.8588 14.1779 12.1007L14.1763 12.1039C14.0555 12.3366 13.9758 12.647 13.9758 13.0676V13.0783C13.9758 13.4939 14.0549 13.8062 14.1779 14.0452C14.3024 14.2871 14.4664 14.4588 14.6779 14.5837C14.8868 14.7048 15.1582 14.783 15.5266 14.783C15.8965 14.783 16.1644 14.7042 16.3673 14.5849C16.5815 14.4589 16.7498 14.2846 16.879 14.0383C17.0035 13.8008 17.0835 13.4911 17.0835 13.0783V13.0676C17.0835 12.6548 17.0035 12.3451 16.879 12.1076C16.7498 11.8613 16.5815 11.687 16.3673 11.561C16.1644 11.4417 15.8965 11.363 15.5266 11.363C15.1582 11.363 14.8868 11.4412 14.6779 11.5622Z" fill="#0D151F"/>
</svg>
