<svg width="24" height="24" viewBox="0 0 24 24" fill="none" xmlns="http://www.w3.org/2000/svg">
<path fill-rule="evenodd" clip-rule="evenodd" d="M3.76236 4.81787C3.76236 3.7133 4.65779 2.81787 5.76236 2.81787H18.2377C19.3423 2.81787 20.2377 3.7133 20.2377 4.81787V13.4462L21.9144 18.6287L21.9201 18.6495C22.2723 19.9233 21.3141 21.1824 19.9925 21.1824H4.00763C2.68599 21.1824 1.72776 19.9233 2.07994 18.6495L2.08569 18.6287L3.76236 13.4462V4.81787ZM5.48987 14.604L4.0086 19.1824H19.9915L18.5102 14.604H5.48987ZM18.2377 12.604V4.81787H5.76236V12.604H18.2377ZM9.25908 17.7955C9.25908 17.2432 9.70679 16.7955 10.2591 16.7955H13.7407C14.293 16.7955 14.7407 17.2432 14.7407 17.7955C14.7407 18.3478 14.293 18.7955 13.7407 18.7955H10.2591C9.70679 18.7955 9.25908 18.3478 9.25908 17.7955Z" fill="#0D151F"/>
</svg>
