<svg width="24" height="24" viewBox="0 0 24 24" fill="none" xmlns="http://www.w3.org/2000/svg">
<path fill-rule="evenodd" clip-rule="evenodd" d="M9.66301 2.23453C11.1867 1.92143 12.7419 1.92153 14.2748 2.23659L15.6075 2.50093C15.6963 2.49927 15.7856 2.50915 15.8726 2.53059C16.0686 2.57901 16.2451 2.68407 16.3789 2.83203C16.5128 2.98 16.5978 3.16396 16.6228 3.35986L16.9478 5.89907H19.009C19.8314 5.89907 20.5 6.55194 20.5 7.35494V20.5441C20.5 21.3471 19.8314 22 19.009 22H4.99095C4.1686 22 3.5 21.3471 3.5 20.5441V7.35494C3.5 6.55194 4.1686 5.89907 4.99095 5.89907H7.05228L7.37735 3.35969C7.40314 3.15866 7.49205 2.97036 7.63186 2.82066C7.77168 2.67096 7.95607 2.5671 8.15871 2.52356C8.17073 2.521 8.18277 2.51867 8.19482 2.51655L9.66301 2.23453ZM10.0654 4.15579C11.3251 3.89706 12.6021 3.89681 13.8669 4.15674L13.8688 4.15712L13.8957 4.16246L11.8127 7.01491L9.99616 4.16913L10.0619 4.15651L10.0654 4.15579ZM15.292 8.77298L13.3935 8.22837L14.9494 6.09771L15.292 8.77298ZM8.71497 8.72198L9.01913 6.34597L10.2269 8.23823L8.71497 8.72198ZM17.1989 7.86019L17.4746 10.0137C17.4953 10.1752 17.4745 10.3391 17.4141 10.4908C17.3537 10.6424 17.2557 10.777 17.1288 10.8824C16.9451 11.0345 16.7138 11.1159 16.4781 11.1159C16.3832 11.1159 16.2881 11.1028 16.1948 11.076L11.8127 9.59182L7.83473 11.0672C7.73254 11.0999 7.62679 11.1159 7.52238 11.1159C7.38 11.116 7.23913 11.0865 7.10932 11.0293C6.97948 10.9722 6.86358 10.8887 6.7693 10.7845C6.67502 10.6802 6.60453 10.5576 6.56251 10.4247C6.52048 10.2919 6.50789 10.1518 6.52555 10.0138L6.80123 7.86023H5.50841V20.0388H18.4916V7.86019H17.1989ZM12.0001 13.2143C12.6078 13.2143 13.1005 12.7332 13.1005 12.1397C13.1005 11.5462 12.6078 11.0651 12.0001 11.0651C11.3923 11.0651 10.8996 11.5462 10.8996 12.1397C10.8996 12.7332 11.3923 13.2143 12.0001 13.2143ZM13.1005 15.0071C13.1005 15.6005 12.6078 16.0817 12.0001 16.0817C11.3923 16.0817 10.8996 15.6005 10.8996 15.0071C10.8996 14.4136 11.3923 13.9325 12.0001 13.9325C12.6078 13.9325 13.1005 14.4136 13.1005 15.0071ZM12.0001 18.949C12.6078 18.949 13.1005 18.4679 13.1005 17.8744C13.1005 17.281 12.6078 16.7999 12.0001 16.7999C11.3923 16.7999 10.8996 17.281 10.8996 17.8744C10.8996 18.4679 11.3923 18.949 12.0001 18.949Z" fill="#0D151F"/>
</svg>
