<svg width="24" height="24" viewBox="0 0 24 24" fill="none" xmlns="http://www.w3.org/2000/svg">
<path d="M3 17.225V10.7631C3 10.2298 3.196 9.77977 3.588 9.4131C3.98 9.04644 4.44233 8.87977 4.975 8.9131C6.29167 9.1131 7.546 9.50077 8.738 10.0761C9.93 10.6514 11.0173 11.3971 12 12.3131C12.9833 11.3964 14.071 10.6504 15.263 10.0751C16.455 9.49977 17.709 9.11244 19.025 8.9131C19.5583 8.87977 20.021 9.04644 20.413 9.4131C20.805 9.77977 21.0007 10.2298 21 10.7631V17.225C21 17.7583 20.825 18.2126 20.475 18.588C20.125 18.9633 19.6833 19.1673 19.15 19.2C18.0833 19.3666 17.05 19.6416 16.05 20.025C15.05 20.4083 14.1167 20.9166 13.25 21.55C13.0667 21.7 12.8707 21.8123 12.662 21.887C12.4533 21.9616 12.2327 21.9993 12 22C11.7667 22 11.5457 21.9623 11.337 21.887C11.1283 21.8116 10.9327 21.6993 10.75 21.55C9.88333 20.9166 8.95 20.4083 7.95 20.025C6.95 19.6416 5.91667 19.3666 4.85 19.2C4.31667 19.1666 3.875 18.9626 3.525 18.588C3.175 18.2133 3 17.759 3 17.225ZM12 19.975C13.05 19.1916 14.1667 18.5666 15.35 18.1C16.5333 17.6333 17.75 17.325 19 17.175V10.9631C17.7833 11.1798 16.5873 11.6174 15.412 12.2761C14.2367 12.9348 13.0993 13.8138 12 14.9131C10.9 13.8131 9.76233 12.9338 8.587 12.2751C7.41167 11.6164 6.216 11.1791 5 10.9631V17.175C6.25 17.325 7.46667 17.6333 8.65 18.1C9.83333 18.5666 10.95 19.1916 12 19.975Z" fill="#0D151F"/>
<circle cx="12" cy="6" r="3" stroke="#0D151F" stroke-width="2"/>
</svg>
