<svg width="24" height="24" viewBox="0 0 24 24" fill="none" xmlns="http://www.w3.org/2000/svg">
<path fill-rule="evenodd" clip-rule="evenodd" d="M6.94797 5.37689H5C3.34315 5.37689 2 6.72004 2 8.37689V20.3769C2 22.0337 3.34315 23.3769 5 23.3769H19C20.6569 23.3769 22 22.0337 22 20.3769V8.37689C22 6.72004 20.6569 5.37689 19 5.37689H16.9361C16.8077 2.72981 14.6209 0.623047 11.942 0.623047C9.26313 0.623047 7.0763 2.72981 6.94797 5.37689ZM8.95197 5.37689H14.9321C14.8348 4.17863 14.0333 3.17946 12.942 2.79375V3.47221C12.942 4.0245 12.4943 4.47221 11.942 4.47221C11.3897 4.47221 10.942 4.0245 10.942 3.47221V2.79375C9.85076 3.17946 9.04928 4.17863 8.95197 5.37689ZM5 7.37689C4.44772 7.37689 4 7.82461 4 8.37689V20.3769C4 20.9292 4.44772 21.3769 5 21.3769H11V7.37689H5ZM13 7.37689V21.3769H19C19.5523 21.3769 20 20.9292 20 20.3769V8.37689C20 7.82461 19.5523 7.37689 19 7.37689H13ZM9.62564 12.176C10.0565 12.5216 10.1256 13.151 9.78004 13.5818L9.06902 14.4683L9.78005 15.3548C10.1256 15.7856 10.0565 16.415 9.62563 16.7606C9.19479 17.1061 8.56541 17.037 8.21987 16.6061L7.25793 15.4068C6.8181 14.8584 6.81811 14.0781 7.25794 13.5298L8.21988 12.3304C8.56543 11.8996 9.19481 11.8305 9.62564 12.176ZM14.3744 12.176C14.8052 11.8305 15.4346 11.8996 15.7801 12.3304L16.7421 13.5298C17.1819 14.0781 17.1819 14.8584 16.7421 15.4068L15.7801 16.6061C15.4346 17.037 14.8052 17.1061 14.3744 16.7606C13.9435 16.415 13.8744 15.7856 14.2199 15.3548L14.931 14.4683L14.22 13.5818C13.8744 13.151 13.9435 12.5216 14.3744 12.176Z" fill="#0D151F"/>
</svg>
