<svg width="24" height="24" viewBox="0 0 24 24" fill="none" xmlns="http://www.w3.org/2000/svg">
<path fill-rule="evenodd" clip-rule="evenodd" d="M1.7572 4C1.7572 2.34314 3.10035 1 4.7572 1H19.2429C20.8997 1 22.2429 2.34315 22.2429 4V18.4857C22.2429 20.1425 20.8997 21.4857 19.2429 21.4857H17.7972V22C17.7972 22.5523 17.3495 23 16.7972 23C16.2449 23 15.7972 22.5523 15.7972 22V21.4857H8.20298V22C8.20298 22.5523 7.75527 23 7.20298 23C6.6507 23 6.20298 22.5523 6.20298 22V21.4857H4.7572C3.10035 21.4857 1.7572 20.1425 1.7572 18.4857V4ZM4.7572 3C4.20492 3 3.7572 3.44771 3.7572 4V18.4857C3.7572 19.0379 4.20492 19.4857 4.7572 19.4857H19.2429C19.7951 19.4857 20.2429 19.0379 20.2429 18.4857V4C20.2429 3.44771 19.7951 3 19.2429 3H4.7572ZM5.79935 6.35792C5.79935 5.66757 6.35899 5.10792 7.04935 5.10792H16.8849C17.5753 5.10792 18.1349 5.66757 18.1349 6.35792V16.1277C18.1349 16.8181 17.5753 17.3777 16.8849 17.3777H7.04935C6.35899 17.3777 5.79935 16.8181 5.79935 16.1277V13.9972C5.26505 13.9768 4.83814 13.5372 4.83814 12.9979C4.83814 12.4586 5.26505 12.019 5.79935 11.9986V10.4845C5.26505 10.4642 4.83814 10.0246 4.83814 9.48529C4.83814 8.94599 5.26505 8.50641 5.79935 8.48602V6.35792ZM7.79935 10.4853H7.99259C8.54488 10.4853 8.99259 10.0376 8.99259 9.48529C8.99259 8.933 8.54488 8.48529 7.99259 8.48529H7.79935V7.10792H16.1349V15.3777H7.79935V13.9979H7.99259C8.54488 13.9979 8.99259 13.5502 8.99259 12.9979C8.99259 12.4456 8.54488 11.9979 7.99259 11.9979H7.79935V10.4853ZM14.054 8.9591C14.6063 8.9591 15.054 9.40682 15.054 9.9591V12.5266C15.054 13.0788 14.6063 13.5266 14.054 13.5266C13.5017 13.5266 13.054 13.0788 13.054 12.5266V9.9591C13.054 9.40682 13.5017 8.9591 14.054 8.9591Z" fill="#0D151F"/>
</svg>
