<svg width="24" height="24" viewBox="0 0 24 24" fill="none" xmlns="http://www.w3.org/2000/svg">
<path d="M6.01666 4.12704C6.01665 3.70636 6.14139 3.29512 6.3751 2.94533C6.60881 2.59555 6.941 2.32292 7.32965 2.16192C7.71831 2.00093 8.14597 1.9588 8.55857 2.04086C8.97117 2.12293 9.35016 2.3255 9.64763 2.62296C9.9451 2.92042 10.1477 3.29941 10.2298 3.71201C10.3118 4.1246 10.2697 4.55227 10.1087 4.94093C9.94775 5.32959 9.67513 5.66178 9.32535 5.8955C8.97557 6.12922 8.56434 6.25397 8.14366 6.25397C7.57955 6.25397 7.03855 6.02989 6.63966 5.63101C6.24078 5.23213 6.01668 4.69114 6.01666 4.12704ZM19.5898 14.4178L15.5528 10.56C15.2022 10.2252 14.7585 10.0044 14.2801 9.92652H11.9359L9.27962 7.39096C9.11253 7.2041 8.89135 7.07397 8.64686 7.01867C8.40236 6.96337 8.14671 6.98565 7.91546 7.08241L7.67698 7.18321C7.44769 7.28147 7.25451 7.44842 7.12407 7.66105C6.99363 7.87369 6.93235 8.12155 6.94867 8.37047L6.90586 12.0921C6.8991 12.6747 7.03757 13.2498 7.30876 13.7655C7.57994 14.2812 7.97531 14.7212 8.45914 15.0458C8.94297 15.3704 9.50004 15.5694 10.08 15.6248C10.66 15.6801 11.2447 15.5902 11.7812 15.363L15.1164 13.951L17.9762 16.3062C18.2075 16.4929 18.498 16.5906 18.7952 16.5818C19.0923 16.5729 19.3765 16.458 19.5963 16.2578C19.7207 16.1389 19.8197 15.9959 19.887 15.8374C19.9544 15.679 19.9889 15.5086 19.9883 15.3364C19.9877 15.1643 19.952 14.9941 19.8835 14.8361C19.815 14.6782 19.715 14.5359 19.5898 14.4178ZM15.9866 16.3996C15.5602 16.1247 15.0714 15.9619 14.5654 15.9263C14.0594 15.8907 13.5526 15.9834 13.0919 16.1958L11.9026 16.6893C11.2168 16.9812 10.4693 17.0985 9.72705 17.0309C8.98477 16.9632 8.27085 16.7126 7.64912 16.3015C7.02739 15.8904 6.51725 15.3316 6.16431 14.6751C5.81137 14.0186 5.62665 13.2849 5.62665 12.5395V7.80753C5.62665 7.35511 5.25989 6.98835 4.80747 6.98835V6.98835C4.35505 6.98835 3.98828 7.35511 3.98828 7.80753V12.5395C3.98716 13.556 4.23826 14.5569 4.71908 15.4524C5.19989 16.348 5.89539 17.1103 6.74325 17.671C7.59111 18.2316 8.56484 18.5732 9.57716 18.665C10.5895 18.7568 11.6088 18.596 12.5437 18.1971L13.6185 17.7438L13.7749 17.6851C13.9861 17.5883 14.2183 17.5461 14.4501 17.5624C14.6819 17.5787 14.9059 17.653 15.1015 17.7785C15.2971 17.9039 15.458 18.0766 15.5695 18.2805C15.6809 18.4844 15.7393 18.713 15.7394 18.9454C15.7389 19.313 15.5927 19.6655 15.3327 19.9254C15.0728 20.1854 14.7204 20.3316 14.3527 20.332H7.72479C7.27236 20.332 6.90559 20.6988 6.90559 21.1512V21.1512C6.90559 21.6037 7.27236 21.9704 7.72479 21.9704H14.3527C15.0065 21.9704 15.6427 21.7586 16.166 21.3668C16.6893 20.9749 17.0715 20.4241 17.2555 19.7967C17.4395 19.1694 17.4153 18.4993 17.1865 17.8869C16.9578 17.2745 16.5368 16.7526 15.9866 16.3996Z" fill="#0D151F"/>
</svg>
