<svg width="24" height="24" viewBox="0 0 24 24" fill="none" xmlns="http://www.w3.org/2000/svg">
<path fill-rule="evenodd" clip-rule="evenodd" d="M5 3C3.89543 3 3 3.89543 3 5V19C3 20.1046 3.89543 21 5 21H11V3H5ZM13 3V21H19C20.1046 21 21 20.1046 21 19V5C21 3.89543 20.1046 3 19 3H13ZM1 5C1 2.79086 2.79086 1 5 1H19C21.2091 1 23 2.79086 23 5V19C23 21.2091 21.2091 23 19 23H5C2.79086 23 1 21.2091 1 19V5ZM6.04819 5.87774C6.60047 5.87774 7.04819 6.32545 7.04819 6.87774V8.29999C7.04819 8.85228 6.60047 9.29999 6.04819 9.29999C5.4959 9.29999 5.04819 8.85228 5.04819 8.29999V6.87774C5.04819 6.32545 5.4959 5.87774 6.04819 5.87774ZM15.8355 5.87774C16.3878 5.87774 16.8355 6.32545 16.8355 6.87774V8.29999C16.8355 8.85228 16.3878 9.29999 15.8355 9.29999C15.2832 9.29999 14.8355 8.85228 14.8355 8.29999V6.87774C14.8355 6.32545 15.2832 5.87774 15.8355 5.87774ZM5.04819 12.5364C5.04819 11.9841 5.4959 11.5364 6.04819 11.5364H8.16435C8.71663 11.5364 9.16435 11.9841 9.16435 12.5364C9.16435 13.0887 8.71663 13.5364 8.16435 13.5364H6.04819C5.4959 13.5364 5.04819 13.0887 5.04819 12.5364ZM14.8355 12.5364C14.8355 11.9841 15.2832 11.5364 15.8355 11.5364H17.9517C18.504 11.5364 18.9517 11.9841 18.9517 12.5364C18.9517 13.0887 18.504 13.5364 17.9517 13.5364H15.8355C15.2832 13.5364 14.8355 13.0887 14.8355 12.5364ZM5.04819 15.3702C5.04819 14.818 5.4959 14.3702 6.04819 14.3702H8.16435C8.71663 14.3702 9.16435 14.818 9.16435 15.3702C9.16435 15.9225 8.71663 16.3702 8.16435 16.3702H6.04819C5.4959 16.3702 5.04819 15.9225 5.04819 15.3702ZM14.8355 15.3702C14.8355 14.818 15.2832 14.3702 15.8355 14.3702H17.9517C18.504 14.3702 18.9517 14.818 18.9517 15.3702C18.9517 15.9225 18.504 16.3702 17.9517 16.3702H15.8355C15.2832 16.3702 14.8355 15.9225 14.8355 15.3702ZM5.04819 18.2041C5.04819 17.6518 5.4959 17.2041 6.04819 17.2041H8.16435C8.71663 17.2041 9.16435 17.6518 9.16435 18.2041C9.16435 18.7564 8.71663 19.2041 8.16435 19.2041H6.04819C5.4959 19.2041 5.04819 18.7564 5.04819 18.2041ZM14.8355 18.2041C14.8355 17.6518 15.2832 17.2041 15.8355 17.2041H17.9517C18.504 17.2041 18.9517 17.6518 18.9517 18.2041C18.9517 18.7564 18.504 19.2041 17.9517 19.2041H15.8355C15.2832 19.2041 14.8355 18.7564 14.8355 18.2041Z" fill="#0D151F"/>
</svg>
