<svg width="24" height="24" viewBox="0 0 24 24" fill="none" xmlns="http://www.w3.org/2000/svg">
<path fill-rule="evenodd" clip-rule="evenodd" d="M8.08579 2.58579C8.46086 2.21071 8.96957 2 9.5 2C10.0304 2 10.5391 2.21071 10.9142 2.58579C11.2893 2.96086 11.5 3.46957 11.5 4C11.5 4.53043 11.2893 5.03914 10.9142 5.41421C10.5391 5.78929 10.0304 6 9.5 6C8.96957 6 8.46086 5.78929 8.08579 5.41421C7.71071 5.03914 7.5 4.53043 7.5 4C7.5 3.46957 7.71071 2.96086 8.08579 2.58579ZM12.0188 6.12339C12.263 5.98936 12.552 5.96323 12.8162 6.05132C14.6635 6.66708 15.6166 7.93744 16.0737 9.30877C16.5004 10.5889 16.5002 11.975 16.5 12.9458C16.5 12.964 16.5 12.9821 16.5 13C16.5 13.5523 16.0523 14 15.5 14C14.9477 14 14.5 13.5523 14.5 13C14.5 11.973 14.4916 10.8871 14.1763 9.94123C13.9835 9.36267 13.6805 8.84872 13.1669 8.45545L12.4701 11.2425C12.4098 11.4839 12.2617 11.6941 12.0547 11.8321L9.0547 13.8321C8.59517 14.1384 7.9743 14.0142 7.66795 13.5547C7.3616 13.0952 7.48577 12.4743 7.9453 12.1679L10.6236 10.3824L11.5299 6.75746C11.5974 6.48724 11.7746 6.25743 12.0188 6.12339ZM3.08579 14.5858C3.46086 14.2107 3.96957 14 4.5 14C5.03043 14 5.53914 14.2107 5.91421 14.5858C6.28929 14.9609 6.5 15.4696 6.5 16C6.5 16.5304 6.28929 17.0391 5.91421 17.4142C5.53914 17.7893 5.03043 18 4.5 18C3.96957 18 3.46086 17.7893 3.08579 17.4142C2.71071 17.0391 2.5 16.5304 2.5 16C2.5 15.4696 2.71071 14.9609 3.08579 14.5858ZM7.5 16C7.5 15.4477 7.94772 15 8.5 15H20.5C21.0523 15 21.5 15.4477 21.5 16C21.5 16.5523 21.0523 17 20.5 17H9.5V19C9.5 19.3788 9.286 19.725 8.94721 19.8944L4.94721 21.8944C4.45324 22.1414 3.85256 21.9412 3.60557 21.4472C3.35858 20.9532 3.55881 20.3526 4.05279 20.1056L7.5 18.382V16ZM10.5 19C10.5 18.4477 10.9477 18 11.5 18H20.5C21.0523 18 21.5 18.4477 21.5 19C21.5 19.5523 21.0523 20 20.5 20H11.5C10.9477 20 10.5 19.5523 10.5 19Z" fill="#0D151F"/>
</svg>
