<svg width="24" height="24" viewBox="0 0 24 24" fill="none" xmlns="http://www.w3.org/2000/svg">
<path fill-rule="evenodd" clip-rule="evenodd" d="M3.20349 1.94727C2.53961 1.94727 2.00144 2.48284 2.00144 3.1435V9.38352C2.00144 10.0442 2.53962 10.5797 3.20349 10.5797H13.598C14.1155 10.5797 14.5414 10.1892 14.5942 9.68804L15.0486 9.88999V13.0119H12.3039C11.64 13.0119 11.1018 13.5474 11.1018 14.2081V19.2967C11.1018 19.9573 11.64 20.4929 12.3039 20.4929H20.7979C21.4618 20.4929 22 19.9573 22 19.2967V14.2081C22 14.2057 22 14.2033 22 14.201V9.44282C22 8.78215 21.4618 8.24659 20.7979 8.24659H16.2638L14.5996 7.5069C14.5997 7.5013 14.5997 7.4957 14.5997 7.49008V3.1435C14.5997 2.48284 14.0615 1.94727 13.3976 1.94727H3.20349ZM12.5963 6.61651V3.94098H4.00486V8.58603H12.1148L9.76849 7.5432C9.26335 7.31868 9.03675 6.72916 9.26236 6.22647C9.48797 5.72378 10.0804 5.49827 10.5855 5.72279L12.5963 6.61651ZM19.9966 13.0119V10.2403H17.052V13.0119H19.9966ZM13.1052 18.4992V15.0056H19.9966V18.4992H13.1052ZM18.5982 5.9617C19.1443 5.9617 19.587 5.52114 19.587 4.97769C19.587 4.43423 19.1443 3.99367 18.5982 3.99367C18.0521 3.99367 17.6094 4.43423 17.6094 4.97769C17.6094 5.52114 18.0521 5.9617 18.5982 5.9617ZM18.5982 7.95542C20.2508 7.95542 21.5904 6.62224 21.5904 4.97769C21.5904 3.33313 20.2508 1.99996 18.5982 1.99996C16.9457 1.99996 15.606 3.33313 15.606 4.97769C15.606 6.62224 16.9457 7.95542 18.5982 7.95542ZM6.98417 14.9463C6.98417 15.4897 6.54147 15.9303 5.99537 15.9303C5.44927 15.9303 5.00657 15.4897 5.00657 14.9463C5.00657 14.4028 5.44927 13.9623 5.99537 13.9623C6.54147 13.9623 6.98417 14.4028 6.98417 14.9463ZM8.98759 14.9463C8.98759 16.5908 7.64793 17.924 5.99537 17.924C4.34281 17.924 3.00315 16.5908 3.00315 14.9463C3.00315 13.3017 4.34281 11.9685 5.99537 11.9685C7.64793 11.9685 8.98759 13.3017 8.98759 14.9463Z" fill="#0D151F"/>
<path d="M7.80884 20.3992H4.00342V21.9473H2V19.4023C2 18.8518 2.44848 18.4055 3.00171 18.4055H8.81055C9.36378 18.4055 9.81226 18.8518 9.81226 19.4023V21.9473H7.80884V20.3992Z" fill="#0D151F"/>
</svg>
