<svg width="24" height="24" viewBox="0 0 24 24" fill="none" xmlns="http://www.w3.org/2000/svg">
<path d="M7 9.99768H9C9.26522 9.99768 9.51957 9.89235 9.70711 9.70487C9.89464 9.51739 10 9.26311 10 8.99797C10 8.73283 9.89464 8.47855 9.70711 8.29107C9.51957 8.10359 9.26522 7.99826 9 7.99826H7C6.73478 7.99826 6.48043 8.10359 6.29289 8.29107C6.10536 8.47855 6 8.73283 6 8.99797C6 9.26311 6.10536 9.51739 6.29289 9.70487C6.48043 9.89235 6.73478 9.99768 7 9.99768ZM21 3.99942H13V2.99971C13 2.73457 12.8946 2.48029 12.7071 2.29281C12.5196 2.10533 12.2652 2 12 2C11.7348 2 11.4804 2.10533 11.2929 2.29281C11.1054 2.48029 11 2.73457 11 2.99971V3.99942H3C2.73478 3.99942 2.48043 4.10475 2.29289 4.29223C2.10536 4.47971 2 4.73399 2 4.99913V14.9962C2 15.7917 2.31607 16.5545 2.87868 17.1169C3.44129 17.6794 4.20435 17.9954 5 17.9954H9.59L7.29 20.2847C7.19627 20.3776 7.12188 20.4882 7.07111 20.61C7.02034 20.7319 6.9942 20.8625 6.9942 20.9945C6.9942 21.1265 7.02034 21.2571 7.07111 21.379C7.12188 21.5008 7.19627 21.6113 7.29 21.7043C7.38296 21.798 7.49356 21.8724 7.61542 21.9231C7.73728 21.9739 7.86799 22 8 22C8.13201 22 8.26272 21.9739 8.38458 21.9231C8.50644 21.8724 8.61704 21.798 8.71 21.7043L11 19.405V20.9945C11 21.2596 11.1054 21.5139 11.2929 21.7014C11.4804 21.8889 11.7348 21.9942 12 21.9942C12.2652 21.9942 12.5196 21.8889 12.7071 21.7014C12.8946 21.5139 13 21.2596 13 20.9945V19.405L15.29 21.7043C15.383 21.798 15.4936 21.8724 15.6154 21.9231C15.7373 21.9739 15.868 22 16 22C16.132 22 16.2627 21.9739 16.3846 21.9231C16.5064 21.8724 16.617 21.798 16.71 21.7043C16.8037 21.6113 16.8781 21.5008 16.9289 21.379C16.9797 21.2571 17.0058 21.1265 17.0058 20.9945C17.0058 20.8625 16.9797 20.7319 16.9289 20.61C16.8781 20.4882 16.8037 20.3776 16.71 20.2847L14.41 17.9954H19C19.7956 17.9954 20.5587 17.6794 21.1213 17.1169C21.6839 16.5545 22 15.7917 22 14.9962V4.99913C22 4.73399 21.8946 4.47971 21.7071 4.29223C21.5196 4.10475 21.2652 3.99942 21 3.99942ZM20 14.9962C20 15.2614 19.8946 15.5157 19.7071 15.7031C19.5196 15.8906 19.2652 15.9959 19 15.9959H5C4.73478 15.9959 4.48043 15.8906 4.29289 15.7031C4.10536 15.5157 4 15.2614 4 14.9962V5.99884H20V14.9962ZM7 13.9965H13C13.2652 13.9965 13.5196 13.8912 13.7071 13.7037C13.8946 13.5162 14 13.262 14 12.9968C14 12.7317 13.8946 12.4774 13.7071 12.2899C13.5196 12.1024 13.2652 11.9971 13 11.9971H7C6.73478 11.9971 6.48043 12.1024 6.29289 12.2899C6.10536 12.4774 6 12.7317 6 12.9968C6 13.262 6.10536 13.5162 6.29289 13.7037C6.48043 13.8912 6.73478 13.9965 7 13.9965Z" fill="#0D151F"/>
</svg>
