<svg width="24" height="24" viewBox="0 0 24 24" fill="none" xmlns="http://www.w3.org/2000/svg">
<path d="M3 3C3 2.45 3.196 1.979 3.588 1.587C3.98 1.195 4.45066 0.999335 5 1L19 1C19.55 1 20.021 1.196 20.413 1.588C20.805 1.98 21.0007 2.45067 21 3V21C21 21.55 20.804 22.021 20.412 22.413C20.02 22.805 19.5493 23.0007 19 23H5C4.45 23 3.979 22.804 3.587 22.412C3.195 22.02 2.99933 21.5493 3 21V3ZM5 3V21H19V3L5 3ZM7 5V15H17V5L7 5ZM7 18C7 18.2833 7.096 18.521 7.288 18.713C7.48 18.905 7.71733 19.0007 8 19C8.28333 19 8.521 18.904 8.713 18.712C8.905 18.52 9.00066 18.2827 9 18C9 17.7167 8.904 17.479 8.712 17.287C8.52 17.095 8.28266 16.9993 8 17C7.71666 17 7.479 17.096 7.287 17.288C7.095 17.48 6.99933 17.7173 7 18ZM9 7L15 7V13H9V7ZM11 18C11 18.2833 11.096 18.521 11.288 18.713C11.48 18.905 11.7173 19.0007 12 19C12.2833 19 12.521 18.904 12.713 18.712C12.905 18.52 13.0007 18.2827 13 18C13 17.7167 12.904 17.479 12.712 17.287C12.52 17.095 12.2827 16.9993 12 17C11.7167 17 11.479 17.096 11.287 17.288C11.095 17.48 10.9993 17.7173 11 18ZM15 18C15 18.2833 15.096 18.521 15.288 18.713C15.48 18.905 15.7173 19.0007 16 19C16.2833 19 16.521 18.904 16.713 18.712C16.905 18.52 17.0007 18.2827 17 18C17 17.7167 16.904 17.479 16.712 17.287C16.52 17.095 16.2827 16.9993 16 17C15.7167 17 15.479 17.096 15.287 17.288C15.095 17.48 14.9993 17.7173 15 18Z" fill="#0D151F"/>
</svg>
