<svg width="24" height="24" viewBox="0 0 24 24" fill="none" xmlns="http://www.w3.org/2000/svg">
<path d="M4 20C3.45 20 2.979 19.804 2.587 19.412C2.195 19.02 1.99934 18.5493 2 18V6C2 5.45 2.196 4.979 2.588 4.587C2.98 4.195 3.45067 3.99934 4 4H20C20.55 4 21.021 4.196 21.413 4.588C21.805 4.98 22.0007 5.45067 22 6V18C22 18.55 21.804 19.021 21.412 19.413C21.02 19.805 20.5493 20.0007 20 20H4ZM4 18H20V6H4V18ZM5 17H15V7H5V17ZM18 17C18.2833 17 18.521 16.904 18.713 16.712C18.905 16.52 19.0007 16.2827 19 16C19 15.7167 18.904 15.479 18.712 15.287C18.52 15.095 18.2827 14.9993 18 15C17.7167 15 17.479 15.096 17.287 15.288C17.095 15.48 16.9993 15.7173 17 16C17 16.2833 17.096 16.521 17.288 16.713C17.48 16.905 17.7173 17.0007 18 17ZM7 15V9H13V15H7ZM18 13C18.2833 13 18.521 12.904 18.713 12.712C18.905 12.52 19.0007 12.2827 19 12C19 11.7167 18.904 11.479 18.712 11.287C18.52 11.095 18.2827 10.9993 18 11C17.7167 11 17.479 11.096 17.287 11.288C17.095 11.48 16.9993 11.7173 17 12C17 12.2833 17.096 12.521 17.288 12.713C17.48 12.905 17.7173 13.0007 18 13ZM18 9C18.2833 9 18.521 8.904 18.713 8.712C18.905 8.52 19.0007 8.28267 19 8C19 7.71667 18.904 7.479 18.712 7.287C18.52 7.095 18.2827 6.99934 18 7C17.7167 7 17.479 7.096 17.287 7.288C17.095 7.48 16.9993 7.71734 17 8C17 8.28334 17.096 8.521 17.288 8.713C17.48 8.905 17.7173 9.00067 18 9Z" fill="#0D151F"/>
</svg>
