<svg width="24" height="24" viewBox="0 0 24 24" fill="none" xmlns="http://www.w3.org/2000/svg">
<path fill-rule="evenodd" clip-rule="evenodd" d="M1 4C1 2.34315 2.34315 1 4 1H20C21.6569 1 23 2.34315 23 4V20C23 21.6569 21.6569 23 20 23H10.4143C10.4135 23 10.4127 23 10.4119 23H5.71191C5.7111 23 5.71029 23 5.70949 23H4C2.34315 23 1 21.6569 1 20V4ZM6.21191 21H9.91191V14.9176C9.91191 14.3777 9.73485 13.8526 9.40788 13.423C8.81595 12.6451 8.49542 11.6947 8.49542 10.7172V9.15526H7.62839V10.7172C7.62839 11.6947 7.30786 12.6451 6.71593 13.423C6.38896 13.8526 6.21191 14.3777 6.21191 14.9176V21ZM7.62839 7.15526H8.49542V5.75H7.62839V7.15526ZM11.9119 21V14.9176C11.9119 13.9401 11.5914 12.9896 10.9994 12.2118C10.6725 11.7821 10.4954 11.2571 10.4954 10.7172V5.25C10.4954 4.42158 9.82384 3.75 8.99542 3.75H7.12839C6.29997 3.75 5.62839 4.42158 5.62839 5.25V10.7172C5.62839 11.2571 5.45134 11.7821 5.12437 12.2118C4.53244 12.9896 4.21191 13.9401 4.21191 14.9176V21H4C3.44772 21 3 20.5523 3 20V4C3 3.44772 3.44772 3 4 3H20C20.5523 3 21 3.44772 21 4V20C21 20.5523 20.5523 21 20 21H19.4749V14.2387C19.4749 13.4406 18.8516 12.7881 18.0653 12.7414V11.9891C18.0653 11.4369 17.6176 10.9891 17.0653 10.9891C16.513 10.9891 16.0653 11.4369 16.0653 11.9891V12.7387H14.9749C14.1465 12.7387 13.4749 13.4103 13.4749 14.2387V21H11.9119ZM17.4749 20.972V19.35L15.4749 18.5244V20.972H17.4749ZM15.4749 16.3607L17.4749 17.1863V14.7387H15.4749V16.3607Z" fill="#0D151F"/>
</svg>
