<svg width="24" height="24" viewBox="0 0 24 24" fill="none" xmlns="http://www.w3.org/2000/svg">
<path d="M12 2C16.4181 2 19.9997 5.61097 20 10.0654C20 14.1608 16.9723 17.5406 13.0508 18.0596V19.8818H16.5088C17.0886 19.8821 17.5584 20.3558 17.5586 20.9404C17.5586 21.5252 17.0887 21.9998 16.5088 22H7.49219C6.91205 22 6.44141 21.5253 6.44141 20.9404C6.44158 20.3557 6.91215 19.8818 7.49219 19.8818H10.9492V18.0596C7.02773 17.5406 4 14.1608 4 10.0654C4.00025 5.61097 7.58188 2 12 2ZM12 4.05957C8.70979 4.05957 6.04224 6.74818 6.04199 10.0654C6.04199 13.3829 8.70963 16.0723 12 16.0723C15.2904 16.0723 17.958 13.3829 17.958 10.0654C17.9578 6.74818 15.2902 4.05957 12 4.05957Z" fill="#0D151F"/>
</svg>
