<svg width="24" height="24" viewBox="0 0 24 24" fill="none" xmlns="http://www.w3.org/2000/svg">
<path fill-rule="evenodd" clip-rule="evenodd" d="M3.39918 2.24662C3.77656 1.84338 4.40938 1.82243 4.81261 2.19981L7.84857 5.04112C8.00562 5.1881 8.11109 5.38181 8.14933 5.59349L8.60927 8.13984L10.9992 9.53214V7.27124C10.9992 6.71896 11.4469 6.27124 11.9992 6.27124C12.5515 6.27124 12.9992 6.71896 12.9992 7.27124V9.55024L15.4962 8.12568L16.0363 5.56488C16.0786 5.36415 16.1817 5.18129 16.3314 5.04112L19.3674 2.19981C19.7706 1.82243 20.4035 1.84338 20.7808 2.24662C21.1582 2.64986 21.1373 3.28268 20.734 3.66006L17.9282 6.286L17.3604 8.978C17.3015 9.25761 17.1257 9.49863 16.8775 9.64023L14.6369 10.9185L17.8325 11.7411C17.9212 11.764 18.0141 11.7877 18.1103 11.8122C19.1178 12.0689 20.501 12.4215 21.5809 12.9599C22.1726 13.255 22.7886 13.6594 23.1939 14.2348C23.64 14.8682 23.7819 15.6437 23.4941 16.4746C23.0502 17.7562 21.9181 18.2694 20.8856 18.395C19.8651 18.5191 18.7536 18.3077 17.8683 17.9728L17.229 17.7309C16.7124 17.5355 16.4521 16.9583 16.6475 16.4418C16.843 15.9252 17.4201 15.6649 17.9367 15.8603L18.576 16.1022C19.246 16.3557 20.0259 16.4848 20.6441 16.4096C21.2501 16.3359 21.5039 16.1098 21.6042 15.8201C21.6763 15.612 21.6435 15.5068 21.5588 15.3865C21.4332 15.2082 21.162 14.9859 20.6884 14.7497C19.8119 14.3127 18.6374 14.0119 17.5865 13.7428C17.5014 13.721 17.4171 13.6994 17.3338 13.678L13.7935 12.7666L15.0582 15.4971C15.0877 15.5606 15.1103 15.6271 15.1259 15.6954L15.5975 17.7667L19.1899 21.669C19.5639 22.0753 19.5378 22.7079 19.1314 23.082C18.7251 23.456 18.0925 23.4299 17.7184 23.0236L13.9458 18.9255C13.8277 18.7972 13.7452 18.6402 13.7065 18.4702L13.1992 16.2421L12.9992 15.8103V22.5C12.9992 23.0523 12.5515 23.5 11.9992 23.5C11.4469 23.5 10.9992 23.0523 10.9992 22.5V15.8103L10.7992 16.2421L10.2919 18.4702C10.2531 18.6402 10.1706 18.7972 10.0525 18.9255L6.27989 23.0236C5.90583 23.4299 5.27321 23.456 4.86688 23.082C4.46056 22.7079 4.4344 22.0753 4.80846 21.669L8.40085 17.7667L8.87246 15.6954C8.888 15.6271 8.91068 15.5606 8.94011 15.4971L10.2048 12.7667L6.66602 13.6778C6.58265 13.6993 6.49825 13.7209 6.41303 13.7428C5.36227 14.0119 4.1879 14.3127 3.31145 14.7497C2.83789 14.9858 2.56668 15.2082 2.44107 15.3865C2.35633 15.5068 2.32354 15.612 2.3956 15.8201C2.49597 16.1098 2.74972 16.3359 3.35579 16.4096C3.97393 16.4848 4.75382 16.3557 5.42389 16.1022L6.06317 15.8603C6.57973 15.6649 7.1569 15.9252 7.35232 16.4418C7.54774 16.9583 7.28741 17.5355 6.77085 17.7309L6.13157 17.9728C5.2463 18.3077 4.13478 18.5191 3.11429 18.395C2.08174 18.2694 0.949636 17.7562 0.50575 16.4746C0.217965 15.6437 0.359804 14.8682 0.805968 14.2348C1.21127 13.6594 1.82724 13.2549 2.41895 12.9599C3.49872 12.4215 4.88183 12.0689 5.88926 11.8121C5.98558 11.7876 6.07846 11.7639 6.16732 11.741L9.39228 10.9106L7.20383 9.6357C6.95086 9.48833 6.77517 9.2375 6.72313 8.94939L6.24006 6.275L3.44599 3.66006C3.04275 3.28268 3.02179 2.64986 3.39918 2.24662Z" fill="#0D151F"/>
</svg>
