<svg width="24" height="24" viewBox="0 0 24 24" fill="none" xmlns="http://www.w3.org/2000/svg">
<ellipse cx="7.24231" cy="13.5926" rx="1.83044" ry="1.80309" fill="#0D151F"/>
<ellipse cx="5.16993" cy="8.95305" rx="0.968875" ry="0.954394" fill="#0D151F"/>
<ellipse cx="6.51856" cy="7.04436" rx="0.968875" ry="0.954394" fill="#0D151F"/>
<ellipse cx="7.86731" cy="5.13555" rx="0.968875" ry="0.954394" fill="#0D151F"/>
<ellipse cx="9.21595" cy="3.22673" rx="0.968875" ry="0.954394" fill="#0D151F"/>
<ellipse cx="11.9137" cy="2.95452" rx="0.968875" ry="0.954394" fill="#0D151F"/>
<ellipse cx="0.968875" cy="0.954394" rx="0.968875" ry="0.954394" transform="matrix(-1 0 0 1 20.9745 9.63525)" fill="#0D151F"/>
<ellipse cx="0.968875" cy="0.954394" rx="0.968875" ry="0.954394" transform="matrix(-1 0 0 1 19.6259 7.72644)" fill="#0D151F"/>
<ellipse cx="0.968875" cy="0.954394" rx="0.968875" ry="0.954394" transform="matrix(-1 0 0 1 18.2771 5.81763)" fill="#0D151F"/>
<ellipse cx="0.968875" cy="0.954394" rx="0.968875" ry="0.954394" transform="matrix(-1 0 0 1 16.9285 3.90894)" fill="#0D151F"/>
<ellipse cx="0.968875" cy="0.954394" rx="0.968875" ry="0.954394" transform="matrix(-1 0 0 1 15.5798 2.00012)" fill="#0D151F"/>
<path fill-rule="evenodd" clip-rule="evenodd" d="M3.00281 11.1646C3.55509 11.1646 4.00281 11.6216 4.00281 12.1854V16.3777H9.67139V16.0789C9.67139 14.3876 11.0145 13.0165 12.6714 13.0165H19C20.6569 13.0165 22 14.3876 22 16.0789V20.9793C22 21.5431 21.5523 22.0001 21 22.0001C20.7498 22.0001 20.5211 21.9063 20.3457 21.7513C20.1252 21.5641 19.9849 21.2819 19.9849 20.9662V19.4402C19.9849 18.8764 19.5371 18.4193 18.9849 18.4193H4.00281V20.9663C4.00281 21.53 3.55509 21.9871 3.00281 21.9871C2.45052 21.9871 2.00281 21.53 2.00281 20.9663V12.1854C2.00281 11.6216 2.45052 11.1646 3.00281 11.1646ZM20 16.5575V16.0789C20 15.5151 19.5523 15.0581 19 15.0581H12.6714C12.1191 15.0581 11.6714 15.5151 11.6714 16.0789V16.3777H18.9849C19.3412 16.3777 19.683 16.4411 20 16.5575Z" fill="#9BA6B2"/>
</svg>
