<svg width="24" height="24" viewBox="0 0 24 24" fill="none" xmlns="http://www.w3.org/2000/svg">
<path d="M9.07275 13.5933C9.07275 14.5891 8.25324 15.3964 7.24231 15.3964C6.23138 15.3964 5.41187 14.5891 5.41187 13.5933C5.41187 12.5975 6.23138 11.7902 7.24231 11.7902C8.25324 11.7902 9.07275 12.5975 9.07275 13.5933Z" fill="#9BA6B2"/>
<path d="M6.1388 8.95371C6.1388 9.4808 5.70502 9.9081 5.16992 9.9081C4.63483 9.9081 4.20105 9.4808 4.20105 8.95371C4.20105 8.42661 4.63483 7.99931 5.16992 7.99931C5.70502 7.99931 6.1388 8.42661 6.1388 8.95371Z" fill="#9BA6B2"/>
<path d="M7.48743 7.04493C7.48743 7.57202 7.05365 7.99932 6.51856 7.99932C5.98346 7.99932 5.54968 7.57202 5.54968 7.04493C5.54968 6.51783 5.98346 6.09053 6.51856 6.09053C7.05365 6.09053 7.48743 6.51783 7.48743 7.04493Z" fill="#9BA6B2"/>
<path d="M8.83613 5.13614C8.83613 5.66324 8.40235 6.09054 7.86725 6.09054C7.33216 6.09054 6.89838 5.66324 6.89838 5.13614C6.89838 4.60905 7.33216 4.18175 7.86725 4.18175C8.40235 4.18175 8.83613 4.60905 8.83613 5.13614Z" fill="#9BA6B2"/>
<path d="M10.1848 3.22736C10.1848 3.75446 9.75098 4.18176 9.21588 4.18176C8.68079 4.18176 8.24701 3.75446 8.24701 3.22736C8.24701 2.70027 8.68079 2.27297 9.21588 2.27297C9.75098 2.27297 10.1848 2.70027 10.1848 3.22736Z" fill="#9BA6B2"/>
<path d="M12.8825 2.95513C12.8825 3.48222 12.4487 3.90952 11.9136 3.90952C11.3785 3.90952 10.9448 3.48222 10.9448 2.95513C10.9448 2.42803 11.3785 2.00073 11.9136 2.00073C12.4487 2.00073 12.8825 2.42803 12.8825 2.95513Z" fill="#9BA6B2"/>
<path d="M19.0367 10.5903C19.0367 11.1173 19.4705 11.5446 20.0056 11.5446C20.5407 11.5446 20.9745 11.1173 20.9745 10.5903C20.9745 10.0632 20.5407 9.63586 20.0056 9.63586C19.4705 9.63586 19.0367 10.0632 19.0367 10.5903Z" fill="#9BA6B2"/>
<path d="M17.6881 8.68147C17.6881 9.20857 18.1219 9.63586 18.657 9.63586C19.1921 9.63586 19.6259 9.20857 19.6259 8.68147C19.6259 8.15437 19.1921 7.72708 18.657 7.72708C18.1219 7.72708 17.6881 8.15437 17.6881 8.68147Z" fill="#9BA6B2"/>
<path d="M16.3394 6.77269C16.3394 7.29979 16.7732 7.72708 17.3083 7.72708C17.8434 7.72708 18.2772 7.29979 18.2772 6.77269C18.2772 6.24559 17.8434 5.8183 17.3083 5.8183C16.7732 5.8183 16.3394 6.24559 16.3394 6.77269Z" fill="#9BA6B2"/>
<path d="M14.9908 4.86391C14.9908 5.39101 15.4246 5.8183 15.9597 5.8183C16.4947 5.8183 16.9285 5.39101 16.9285 4.86391C16.9285 4.33681 16.4947 3.90951 15.9597 3.90951C15.4246 3.90951 14.9908 4.33681 14.9908 4.86391Z" fill="#9BA6B2"/>
<path d="M13.6421 2.95513C13.6421 3.48222 14.0759 3.90952 14.611 3.90952C15.1461 3.90952 15.5798 3.48222 15.5798 2.95513C15.5798 2.42803 15.1461 2.00073 14.611 2.00073C14.0759 2.00073 13.6421 2.42803 13.6421 2.95513Z" fill="#9BA6B2"/>
<path fill-rule="evenodd" clip-rule="evenodd" d="M3.00281 11.1651C3.55509 11.1651 4.00281 11.6222 4.00281 12.186V16.3783H9.67139V16.0795C9.67139 14.3882 11.0145 13.0171 12.6714 13.0171H19C20.6569 13.0171 22 14.3882 22 16.0795V20.9799C22 21.5437 21.5523 22.0007 21 22.0007C20.7498 22.0007 20.5211 21.9069 20.3457 21.7519C20.1252 21.5647 19.9849 21.2825 19.9849 20.9668V19.4407C19.9849 18.877 19.5371 18.4199 18.9849 18.4199H4.00281V20.9669C4.00281 21.5306 3.55509 21.9877 3.00281 21.9877C2.45052 21.9877 2.00281 21.5306 2.00281 20.9669V12.186C2.00281 11.6222 2.45052 11.1651 3.00281 11.1651ZM20 16.5581V16.0795C20 15.5157 19.5523 15.0587 19 15.0587H12.6714C12.1191 15.0587 11.6714 15.5157 11.6714 16.0795V16.3783H18.9849C19.3412 16.3783 19.683 16.4417 20 16.5581Z" fill="#9BA6B2"/>
</svg>
