<svg width="24" height="24" viewBox="0 0 24 24" fill="none" xmlns="http://www.w3.org/2000/svg">
<path fill-rule="evenodd" clip-rule="evenodd" d="M12.003 3C12.5553 3 13.003 3.44772 13.003 4V4.45958C14.0574 4.64074 15.0734 5.11078 15.9194 5.87118C16.6408 6.51952 17.1867 7.33739 17.5056 8.25041L18.3787 10.75H18.6241C19.8134 10.75 20.8017 11.7044 20.8017 12.9112V19H22C22.5523 19 23 19.4477 23 20C23 20.5523 22.5523 21 22 21L2 21C1.44771 21 0.999999 20.5523 1 20C1 19.4477 1.44772 19 2 19L3.20426 19V12.9112C3.20426 11.7044 4.19253 10.75 5.38186 10.75H5.62727L6.50039 8.25041C6.81931 7.33739 7.36521 6.51952 8.08656 5.87118C8.93257 5.11078 9.94854 4.64074 11.003 4.45958V4C11.003 3.44772 11.4507 3 12.003 3ZM5.20426 19L8.28122 19V15.4586C8.28122 14.9063 8.72894 14.4586 9.28122 14.4586C9.83351 14.4586 10.2812 14.9063 10.2812 15.4586V19H13.7247V15.4586C13.7247 14.9063 14.1725 14.4586 14.7247 14.4586C15.277 14.4586 15.7247 14.9063 15.7247 15.4586V19H18.8017V12.9112C18.8017 12.8354 18.7355 12.75 18.6241 12.75H17.6945C17.2613 12.75 16.8639 12.4785 16.7163 12.0558L15.6175 8.90992C15.4103 8.31698 15.0549 7.78331 14.5825 7.35865C13.8536 6.70355 12.9307 6.37433 12.003 6.37433C11.0753 6.37433 10.1524 6.70355 9.4235 7.35865C8.95103 7.78331 8.59563 8.31698 8.38852 8.90992L7.28967 12.0558C7.28967 12.0558 7.28967 12.0558 7.28967 12.0558C7.14205 12.4784 6.74472 12.75 6.31149 12.75H5.38186C5.27045 12.75 5.20426 12.8354 5.20426 12.9112V19Z" fill="#0D151F"/>
</svg>
