<svg width="24" height="24" viewBox="0 0 24 24" fill="none" xmlns="http://www.w3.org/2000/svg">
<path fill-rule="evenodd" clip-rule="evenodd" d="M17.8677 2.35709C19.13 2.04151 20.3528 2.99623 20.3528 4.29737L20.3526 7.82481C20.3532 7.84543 20.3532 7.86598 20.3526 7.88643L20.352 16.145C20.352 16.1461 20.352 16.1472 20.352 16.1483C20.352 17.8455 18.9761 19.2214 17.2789 19.2214C15.5817 19.2214 14.2058 17.8455 14.2058 16.1483C14.2058 14.4511 15.5817 13.0752 17.2789 13.0752C17.6564 13.0752 18.0181 13.1433 18.3522 13.2678L18.3525 9.13566L9.29377 11.4003L9.29326 18.9131C9.29326 18.9132 9.29326 18.9131 9.29326 18.9131C9.29322 20.6103 7.91737 21.9862 6.22018 21.9862C4.52296 21.9862 3.14709 20.6103 3.14709 18.9131C3.14709 17.2159 4.52296 15.84 6.22018 15.84C6.5977 15.84 6.95933 15.9081 7.29345 16.0327L7.29382 10.6239C7.2938 10.6204 7.2938 10.6169 7.29382 10.6134L7.29405 7.34284C7.29405 7.34281 7.29405 7.34286 7.29405 7.34284C7.29408 5.96626 8.23096 4.76628 9.56644 4.43241L17.8677 2.35709ZM9.29391 9.33875L18.3526 7.07407L18.3528 4.29737L10.0515 6.37269C9.60634 6.48399 9.29405 6.88397 9.29405 7.34284L9.29391 9.33875ZM7.29326 18.9131C7.29322 18.3204 6.8128 17.84 6.22018 17.84C5.62753 17.84 5.14709 18.3205 5.14709 18.9131C5.14709 19.5058 5.62753 19.9862 6.22018 19.9862C6.81282 19.9862 7.29326 19.5057 7.29326 18.9131C7.29326 18.913 7.29326 18.9131 7.29326 18.9131ZM18.352 16.1482C18.352 15.5556 17.8715 15.0752 17.2789 15.0752C16.6863 15.0752 16.2058 15.5556 16.2058 16.1483C16.2058 16.7409 16.6863 17.2214 17.2789 17.2214C17.8716 17.2214 18.352 16.7409 18.352 16.1482C18.352 16.1482 18.352 16.1482 18.352 16.1482Z" fill="#0D151F"/>
</svg>
