<svg width="24" height="24" viewBox="0 0 24 24" fill="none" xmlns="http://www.w3.org/2000/svg">
<path fill-rule="evenodd" clip-rule="evenodd" d="M17.2294 19.0708H5.37512C4.27055 19.0708 3.37512 18.1753 3.37512 17.0708V4.92895L3.37615 4.92868L17.1239 4.92896L17.1251 4.92955L17.1251 18.3208C17.1251 18.5767 17.1608 18.8289 17.2294 19.0708ZM19.8751 21.0708H5.37512C3.16598 21.0708 1.37512 19.2799 1.37512 17.0708V4.92895C1.37512 3.82278 2.27339 2.92896 3.37635 2.92896H17.1239C18.2269 2.92896 19.1251 3.82279 19.1251 4.92896V9.24985H21.6252C22.1775 9.24985 22.6252 9.69756 22.6252 10.2498V18.3208C22.6252 19.0501 22.3355 19.7496 21.8197 20.2653C21.304 20.781 20.6044 21.0708 19.8751 21.0708ZM19.1251 11.2498V18.3208C19.1251 18.5197 19.2041 18.7104 19.3448 18.8511C19.4854 18.9917 19.6762 19.0708 19.8751 19.0708C20.0741 19.0708 20.2649 18.9917 20.4055 18.8511C20.5462 18.7104 20.6252 18.5197 20.6252 18.3208V11.2498H19.1251ZM17.1251 4.92955L17.1258 4.93031L17.1252 4.92838L17.1251 4.92955ZM4.87497 8.49995C4.87497 7.94767 5.32269 7.49995 5.87497 7.49995H9.37497C9.92726 7.49995 10.375 7.94767 10.375 8.49995V12C10.375 12.5522 9.92726 13 9.37497 13H5.87497C5.32269 13 4.87497 12.5522 4.87497 12V8.49995ZM6.87497 9.49995V11H8.37497V9.49995H6.87497ZM11.8751 8.49995C11.8751 7.94767 12.3228 7.49995 12.8751 7.49995H14.6251C15.1774 7.49995 15.6251 7.94767 15.6251 8.49995C15.6251 9.05224 15.1774 9.49995 14.6251 9.49995H12.8751C12.3228 9.49995 11.8751 9.05224 11.8751 8.49995ZM11.8751 11.9999C11.8751 11.4476 12.3228 10.9999 12.8751 10.9999H14.6251C15.1774 10.9999 15.6251 11.4476 15.6251 11.9999C15.6251 12.5522 15.1774 12.9999 14.6251 12.9999H12.8751C12.3228 12.9999 11.8751 12.5522 11.8751 11.9999ZM4.87504 16.303C4.87504 15.7508 5.32275 15.303 5.87504 15.303H14.625C15.1773 15.303 15.625 15.7508 15.625 16.303C15.625 16.8553 15.1773 17.303 14.625 17.303H5.87504C5.32275 17.303 4.87504 16.8553 4.87504 16.303Z" fill="#0D151F"/>
</svg>
