<svg width="24" height="24" viewBox="0 0 24 24" fill="none" xmlns="http://www.w3.org/2000/svg">
<path fill-rule="evenodd" clip-rule="evenodd" d="M11.8604 1.8147C8.7893 1.8147 6.24062 4.05079 5.76543 6.96768H4.9377C3.91458 6.96768 3.08264 7.79242 3.08264 8.80879V10.5265C3.08264 11.5419 3.91454 12.3676 4.9377 12.3676H7.65809V7.94996C7.65809 5.65035 9.54335 3.77927 11.8604 3.77927C14.1774 3.77927 16.0626 5.65035 16.0626 7.94996V12.3676H18.783C19.8062 12.3676 20.6381 11.5419 20.6381 10.5265V8.80879C20.6381 7.79242 19.8062 6.96768 18.783 6.96768H17.9553C17.4793 4.05083 14.9315 1.8147 11.8604 1.8147ZM5.06209 10.403V8.93225H5.67864V10.403H5.06209ZM18.0421 10.403V8.93225H18.6587L18.6595 10.403H18.0421Z" fill="#0D151F"/>
<path d="M11.8604 12.9795C9.54979 12.9795 7.58571 14.4511 6.85401 16.497L6.79509 16.6617H8.94737L8.98335 16.6004C9.56211 15.6132 10.6318 14.9441 11.8604 14.9441C13.089 14.9441 14.1586 15.6132 14.7374 16.6004L14.7734 16.6617H16.9257L16.8667 16.497C16.135 14.4511 14.171 12.9795 11.8604 12.9795Z" fill="#0D151F"/>
<path fill-rule="evenodd" clip-rule="evenodd" d="M3.20704 17.2736C2.94454 17.2736 2.6928 17.3771 2.50719 17.5613C2.32158 17.7456 2.21731 17.9954 2.21731 18.2559V19.8501H1.88049V21.8147H21.8805V19.8501H21.5034V18.2559C21.5034 17.9954 21.3992 17.7456 21.2135 17.5613C21.0279 17.3771 20.7762 17.2736 20.5137 17.2736H13.591C13.3285 17.2736 13.0768 17.3771 12.8912 17.5613C12.7056 17.7456 12.6013 17.9954 12.6013 18.2559V19.8501H11.1194V18.2559C11.1194 17.9954 11.0152 17.7456 10.8295 17.5613C10.6439 17.3771 10.3922 17.2736 10.1297 17.2736H3.20704ZM4.19676 19.8501V19.2382H9.13998V19.8501H4.19676ZM14.5808 19.8501V19.2382H19.524V19.8501H14.5808Z" fill="#0D151F"/>
<path fill-rule="evenodd" clip-rule="evenodd" d="M11.8604 5.25003C9.88274 5.25003 8.27464 6.84604 8.27464 8.8088C8.27464 10.7716 9.88274 12.3676 11.8604 12.3676C13.838 12.3676 15.4461 10.7716 15.4461 8.8088C15.4461 6.84604 13.838 5.25003 11.8604 5.25003ZM10.2541 8.8088C10.2541 7.92888 10.9746 7.2146 11.8604 7.2146C12.7462 7.2146 13.4666 7.92888 13.4666 8.8088C13.4666 9.68791 12.7461 10.403 11.8604 10.403C10.9746 10.403 10.2541 9.68791 10.2541 8.8088Z" fill="#0D151F"/>
</svg>
