<svg width="24" height="24" viewBox="0 0 24 24" fill="none" xmlns="http://www.w3.org/2000/svg">
<path fill-rule="evenodd" clip-rule="evenodd" d="M8.85549 4.75098H14.8707C14.6703 3.66011 13.891 2.77179 12.8631 2.41627V3.12502C12.8631 3.67731 12.4154 4.12502 11.8631 4.12502C11.3108 4.12502 10.8631 3.67731 10.8631 3.12502V2.41627C9.83519 2.77179 9.0559 3.66011 8.85549 4.75098ZM16.8909 4.75098C16.614 2.21914 14.4686 0.249023 11.8631 0.249023C9.25755 0.249023 7.11215 2.21914 6.83527 4.75098H6.07515L3.76641 2.71054C3.35259 2.3448 2.72062 2.38378 2.35488 2.79761C1.98915 3.21144 2.02813 3.8434 2.44196 4.20914L11.0818 11.845C11.1539 11.9351 11.2412 12.0124 11.3399 12.0731L20.1285 19.8404C20.1744 19.8901 20.2253 19.9351 20.2804 19.9746L21.4749 21.0303C21.8887 21.396 22.5207 21.3571 22.8864 20.9432C23.2522 20.5294 23.2132 19.8974 22.7993 19.5317L21.863 18.7042V7.75098C21.863 6.09412 20.5199 4.75098 18.863 4.75098H16.8909ZM19.863 16.9366V7.75098C19.863 7.19869 19.4153 6.75098 18.863 6.75098H12.863V10.7501L19.863 16.9366ZM10.863 8.98248V6.75098H8.33812L10.863 8.98248ZM2.86304 7.25543C3.41532 7.25543 3.86304 7.70315 3.86304 8.25543V19.751C3.86304 20.3033 4.31075 20.751 4.86304 20.751H10.863V16.4858C10.863 15.9335 11.3108 15.4858 11.863 15.4858C12.4153 15.4858 12.863 15.9335 12.863 16.4858V20.751H18.2177C18.77 20.751 19.2177 21.1987 19.2177 21.751C19.2177 22.3033 18.77 22.751 18.2177 22.751H4.86304C3.20618 22.751 1.86304 21.4078 1.86304 19.751V8.25543C1.86304 7.70315 2.31075 7.25543 2.86304 7.25543Z" fill="#0D151F"/>
</svg>
