<svg width="24" height="24" viewBox="0 0 24 24" fill="none" xmlns="http://www.w3.org/2000/svg">
<path fill-rule="evenodd" clip-rule="evenodd" d="M18.8866 4.93756C18.3019 5.52271 17.5866 6.33203 17.1414 7.15706C16.7351 7.90982 15.7744 8.22161 14.9975 7.8002C14.1001 7.3134 13.0929 7.05642 12.0664 7.05642C11.04 7.05642 10.0328 7.3134 9.13536 7.8002C8.3585 8.22162 7.39777 7.90982 6.99152 7.15705C6.57884 6.39236 5.93415 5.64113 5.37644 5.06934C4.88827 6.7655 4.23892 10.1997 4.0642 15.8149C4.03083 16.8872 4.90724 17.7868 6.01934 17.7868H12.967C13.5193 17.7868 13.967 18.2345 13.967 18.7868C13.967 19.3391 13.5193 19.7868 12.967 19.7868H6.01934C3.81773 19.7868 1.99548 17.9924 2.06517 15.7527C2.28257 8.76571 3.22441 4.88497 3.82534 3.42076C4.00826 2.97505 4.3941 2.66707 4.85144 2.58609C5.29434 2.50766 5.73216 2.65236 6.05028 2.94123C6.62782 3.46567 7.77057 4.57624 8.54907 5.8548C9.64294 5.33124 10.8444 5.05642 12.0664 5.05642C13.2885 5.05642 14.4899 5.33124 15.5838 5.8548C16.3636 4.5742 17.5088 3.46205 18.0856 2.93855C18.7166 2.36583 19.8028 2.41461 20.2986 3.26273C20.8937 4.28075 21.6503 6.35752 21.9659 11.2403L21.968 11.2725V12.3401C21.968 12.8924 21.5203 13.3401 20.968 13.3401C20.4157 13.3401 19.968 12.8924 19.968 12.3401V11.3372C19.7335 7.74242 19.2604 5.89272 18.8866 4.93756ZM7.27508 12.3106C7.27508 11.7583 7.7228 11.3106 8.27508 11.3106H8.28594C8.83823 11.3106 9.28594 11.7583 9.28594 12.3106C9.28594 12.8629 8.83823 13.3106 8.28594 13.3106H8.27508C7.7228 13.3106 7.27508 12.8629 7.27508 12.3106ZM15.2751 12.3106C15.2751 11.7583 15.7228 11.3106 16.2751 11.3106H16.2859C16.8382 11.3106 17.2859 11.7583 17.2859 12.3106C17.2859 12.8629 16.8382 13.3106 16.2859 13.3106H16.2751C15.7228 13.3106 15.2751 12.8629 15.2751 12.3106ZM16.5394 16.2259C16.93 15.8353 17.5631 15.8353 17.9536 16.2259L19.1104 17.3826L20.2672 16.2259C20.6577 15.8353 21.2909 15.8353 21.6814 16.2259C22.0719 16.6164 22.0719 17.2495 21.6814 17.6401L20.5246 18.7969L21.6814 19.9537C22.0719 20.3442 22.0719 20.9774 21.6814 21.3679C21.2909 21.7584 20.6577 21.7584 20.2672 21.3679L19.1104 20.2111L17.9536 21.3679C17.5631 21.7584 16.9299 21.7584 16.5394 21.3679C16.1489 20.9774 16.1489 20.3442 16.5394 19.9537L17.6962 18.7969L16.5394 17.6401C16.1489 17.2495 16.1489 16.6164 16.5394 16.2259Z" fill="#0D151F"/>
</svg>
