<svg width="24" height="24" viewBox="0 0 24 24" fill="none" xmlns="http://www.w3.org/2000/svg">
<path fill-rule="evenodd" clip-rule="evenodd" d="M5.35487 4.67353C5.74923 3.4258 6.90683 2.57764 8.21539 2.57764H15.7846C17.0932 2.57764 18.2508 3.4258 18.6451 4.67353L18.8318 5.2642L20.7513 3.57774C21.1662 3.21322 21.7981 3.25405 22.1626 3.66895C22.5271 4.08385 22.4863 4.7157 22.0714 5.08022L2.98922 21.8455C2.57432 22.21 1.94247 22.1692 1.57795 21.7543C1.21343 21.3394 1.25426 20.7075 1.66916 20.343L3.39782 18.8242C1.78828 18.7704 0.5 17.4486 0.5 15.826V12.0177C0.5 10.3609 1.84315 9.01774 3.5 9.01774L3.98182 9.01774L5.35487 4.67353ZM8.17059 14.631L17.1902 6.70653L16.7381 5.27627C16.6067 4.86036 16.2208 4.57764 15.7846 4.57764H8.21539C7.7792 4.57764 7.39334 4.86036 7.26188 5.27627L5.88883 9.62048C5.62593 10.4523 4.8542 11.0177 3.98182 11.0177H3.5C2.94771 11.0177 2.5 11.4655 2.5 12.0177V15.826C2.5 16.3782 2.94772 16.826 3.5 16.826H4.73967C5.22369 15.5383 6.4665 14.6221 7.92331 14.6221C8.00641 14.6221 8.08887 14.6251 8.17059 14.631ZM19.9739 9.84487C20.0973 9.30654 20.6337 8.97015 21.172 9.09352C22.505 9.39901 23.5 10.591 23.5 12.0177V15.826C23.5 17.4828 22.1569 18.826 20.5 18.826H19.7277C19.3666 20.3157 18.0241 21.4221 16.4233 21.4221C14.8225 21.4221 13.4801 20.3157 13.1189 18.826H11.2277C10.8666 20.3157 9.52414 21.4221 7.92331 21.4221C7.37103 21.4221 6.92331 20.9744 6.92331 20.4221C6.92331 19.8698 7.37103 19.4221 7.92331 19.4221C8.69651 19.4221 9.32331 18.7953 9.32331 18.0221C9.32331 17.3615 9.85884 16.826 10.5194 16.826H13.2397C13.7237 15.5383 14.9665 14.6221 16.4233 14.6221C17.8801 14.6221 19.1229 15.5383 19.607 16.826H20.5C21.0523 16.826 21.5 16.3782 21.5 15.826V12.0177C21.5 11.5438 21.1694 11.1448 20.7252 11.043C20.1869 10.9196 19.8505 10.3832 19.9739 9.84487ZM16.4233 16.6221C15.6501 16.6221 15.0233 17.2489 15.0233 18.0221C15.0233 18.7953 15.6501 19.4221 16.4233 19.4221C17.1965 19.4221 17.8233 18.7953 17.8233 18.0221C17.8233 17.2489 17.1965 16.6221 16.4233 16.6221Z" fill="#0D151F"/>
</svg>
