<svg width="24" height="24" viewBox="0 0 24 24" fill="none" xmlns="http://www.w3.org/2000/svg">
<path fill-rule="evenodd" clip-rule="evenodd" d="M6.78468 4.66424C4.49397 6.29575 3 8.97341 3 12C3 16.9706 7.02944 21 12 21C13.3368 21 14.6055 20.7086 15.746 20.1858L11.8539 13.4444H6.19168C5.39394 13.4444 4.74724 12.7977 4.74724 12C4.74724 11.2023 5.39394 10.5556 6.19168 10.5556H10.186L6.78468 4.66424ZM8.53283 3.69212L12.4954 10.5556H15.0432V13.4444H14.1633L17.4603 19.155C19.612 17.5104 21 14.9173 21 12C21 7.02944 16.9706 3 12 3C10.7712 3 9.59993 3.24626 8.53283 3.69212ZM1 12C1 5.92487 5.92487 1 12 1C18.0751 1 23 5.92487 23 12C23 18.0751 18.0751 23 12 23C5.92487 23 1 18.0751 1 12ZM16.4436 10.5556H19.2528V13.4444H16.4436V10.5556Z" fill="#0D151F"/>
</svg>
