<svg width="24" height="24" viewBox="0 0 24 24" fill="none" xmlns="http://www.w3.org/2000/svg">
<path fill-rule="evenodd" clip-rule="evenodd" d="M12.0001 7.87575C11.4127 7.87575 10.9366 8.35188 10.9366 8.93921C10.9366 9.52654 11.4127 10.0027 12.0001 10.0027C12.5874 10.0027 13.0635 9.52654 13.0635 8.93921C13.0635 8.35188 12.5874 7.87575 12.0001 7.87575ZM8.9366 8.93921C8.9366 7.24731 10.3082 5.87575 12.0001 5.87575C13.692 5.87575 15.0635 7.24731 15.0635 8.93921C15.0635 10.6311 13.692 12.0027 12.0001 12.0027C10.3082 12.0027 8.9366 10.6311 8.9366 8.93921Z" fill="#0D151F"/>
<path fill-rule="evenodd" clip-rule="evenodd" d="M12.0001 14.8943C10.4874 14.8943 9.1648 15.713 8.4533 16.9364C8.17563 17.4138 7.56352 17.5757 7.08611 17.2981C6.6087 17.0204 6.44677 16.4083 6.72444 15.9309C7.77929 14.1172 9.74629 12.8943 12.0001 12.8943C14.2539 12.8943 16.2209 14.1172 17.2757 15.9309C17.5534 16.4083 17.3914 17.0204 16.914 17.2981C16.4366 17.5757 15.8245 17.4138 15.5469 16.9364C14.8354 15.713 13.5128 14.8943 12.0001 14.8943Z" fill="#0D151F"/>
<path fill-rule="evenodd" clip-rule="evenodd" d="M12 3.99805C7.58192 3.99805 4 7.58043 4 12C4 16.4195 7.58192 20.0019 12 20.0019C14.2092 20.0019 16.2077 19.1075 17.6565 17.6585C19.1055 16.2094 20 14.2101 20 12C20 7.58043 16.4181 3.99805 12 3.99805ZM2 12C2 6.47626 6.47695 1.99805 12 1.99805C17.523 1.99805 22 6.47626 22 12C22 14.4015 21.1528 16.6065 19.7426 18.3303L21.7071 20.2948C22.0976 20.6853 22.0976 21.3185 21.7071 21.709C21.3166 22.0995 20.6834 22.0995 20.2929 21.709L18.3285 19.7446C16.6051 21.1547 14.4008 22.0019 12 22.0019C6.47695 22.0019 2 17.5237 2 12Z" fill="#0D151F"/>
</svg>
