<svg width="24" height="24" viewBox="0 0 24 24" fill="none" xmlns="http://www.w3.org/2000/svg">
<path fill-rule="evenodd" clip-rule="evenodd" d="M16.5263 18.5973C15.2391 19.4821 13.68 20 12 20C10.3171 20 8.75559 19.4804 7.46714 18.5928C7.74362 18.4891 8.01772 18.3413 8.28577 18.1464C8.67935 18.432 9.17993 18.6784 9.7661 18.7561C10.5027 18.8537 11.2665 18.67 11.9866 18.1464C12.3802 18.432 12.8808 18.6784 13.467 18.7561C14.2036 18.8537 14.9673 18.67 15.6875 18.1464C15.9286 18.3213 16.2098 18.4816 16.5263 18.5973ZM18.908 16.0373C18.7448 16.099 18.5903 16.1942 18.4543 16.3246C17.992 16.7681 17.6491 16.8024 17.4305 16.7734C17.159 16.7374 16.8759 16.5718 16.6487 16.3459C16.1453 15.8456 15.2994 15.8008 14.7535 16.3246C14.2911 16.7681 13.9483 16.8024 13.7296 16.7734C13.4581 16.7374 13.175 16.5718 12.9478 16.3459C12.4445 15.8456 11.5986 15.8008 11.0526 16.3246C10.5902 16.7681 10.2474 16.8024 10.0287 16.7734C9.75724 16.7374 9.47416 16.5718 9.24696 16.3459C8.74362 15.8456 7.89772 15.8008 7.35176 16.3246C6.88939 16.7681 6.54656 16.8024 6.32788 16.7734C6.05638 16.7374 5.7733 16.5718 5.5461 16.3459C5.41666 16.2173 5.26456 16.1187 5.10074 16.0522C4.83097 15.5939 4.60557 15.1064 4.43043 14.5955C4.48213 14.5616 4.53363 14.526 4.58491 14.4888C4.97848 14.7744 5.47907 15.0208 6.06524 15.0985C6.80184 15.1961 7.56561 15.0124 8.28577 14.4888C8.67935 14.7744 9.17993 15.0208 9.7661 15.0985C10.5027 15.1961 11.2665 15.0124 11.9866 14.4888C12.3802 14.7744 12.8808 15.0208 13.467 15.0985C14.2036 15.1961 14.9673 15.0124 15.6875 14.4888C16.0811 14.7744 16.5816 15.0208 17.1678 15.0985C17.9044 15.1961 18.6682 15.0124 19.3884 14.4888C19.445 14.5299 19.5038 14.5701 19.5648 14.6092C19.3923 15.1096 19.1715 15.5875 18.908 16.0373ZM20.7931 16.7666C20.4855 17.3328 20.1248 17.866 19.7177 18.3595C17.8835 20.5828 15.1073 22 12 22C8.88822 22 6.10841 20.5787 4.27436 18.3498C4.27435 18.3498 4.27434 18.3498 4.27433 18.3498C3.8497 17.8338 3.47576 17.2745 3.16014 16.6795C3.16015 16.6795 3.16016 16.6795 3.16017 16.6795C2.89564 16.1808 2.67206 15.657 2.49394 15.1127C2.49393 15.1127 2.49392 15.1127 2.49391 15.1127C2.25814 14.3922 2.102 13.6357 2.03589 12.8535C2.0359 12.8535 2.03591 12.8535 2.03592 12.8535C2.01213 12.5722 2 12.2875 2 12C2 6.47715 6.47715 2 12 2C17.5228 2 22 6.47715 22 12C22 12.7767 21.9115 13.5326 21.7439 14.2584C21.6771 14.5478 21.5977 14.8325 21.5064 15.1118C21.3178 15.6882 21.0783 16.2416 20.7931 16.7666ZM19.9885 12.4322C19.9961 12.2891 20 12.145 20 12C20 7.58172 16.4183 4 12 4C7.58172 4 4 7.58172 4 12C4 12.1407 4.00363 12.2805 4.0108 12.4193C4.52271 12.1796 5.14381 12.2885 5.5461 12.6883C5.7733 12.9142 6.05638 13.0798 6.32788 13.1158C6.54656 13.1448 6.88939 13.1105 7.35176 12.6669C7.89772 12.1432 8.74362 12.188 9.24696 12.6883C9.47416 12.9142 9.75724 13.0798 10.0287 13.1158C10.2474 13.1448 10.5902 13.1105 11.0526 12.6669C11.5986 12.1432 12.4445 12.188 12.9478 12.6883C13.175 12.9142 13.4581 13.0798 13.7296 13.1158C13.9483 13.1448 14.2911 13.1105 14.7535 12.6669C15.2994 12.1432 16.1453 12.188 16.6487 12.6883C16.8759 12.9142 17.159 13.0798 17.4305 13.1158C17.6491 13.1448 17.992 13.1105 18.4543 12.6669C18.8843 12.2545 19.5003 12.1946 19.9885 12.4322ZM12 9.5625C12.5832 9.5625 13.056 9.08973 13.056 8.50653C13.056 7.92334 12.5832 7.45056 12 7.45056C11.4168 7.45056 10.944 7.92334 10.944 8.50653C10.944 9.08973 11.4168 9.5625 12 9.5625ZM12 11.5625C13.6878 11.5625 15.056 10.1943 15.056 8.50653C15.056 6.81877 13.6878 5.45056 12 5.45056C10.3122 5.45056 8.94403 6.81877 8.94403 8.50653C8.94403 10.1943 10.3122 11.5625 12 11.5625Z" fill="#0D151F"/>
</svg>
