<svg width="24" height="24" viewBox="0 0 24 24" fill="none" xmlns="http://www.w3.org/2000/svg">
<path fill-rule="evenodd" clip-rule="evenodd" d="M7.3964 5.03516C6.91658 5.03516 6.50438 5.37596 6.41422 5.84724L5.53233 10.4565H18.496L17.6141 5.84724C17.5239 5.37596 17.1117 5.03516 16.6319 5.03516H15.5564V5.62594C15.5564 6.73051 14.661 7.62594 13.5564 7.62594H10.4719C9.36728 7.62594 8.47185 6.73051 8.47185 5.62594V5.03516H7.3964ZM10.4719 5.03516V5.62594H13.5564V5.03516H10.4719ZM20.5324 10.4572L19.5785 5.4714C19.308 4.05758 18.0714 3.03516 16.6319 3.03516H7.3964C5.95693 3.03516 4.72035 4.05757 4.44985 5.4714L3.49593 10.4572C2.1267 10.4885 1.02637 11.6083 1.02637 12.985C1.02637 14.3814 2.1584 15.5135 3.55483 15.5135H3.87537L4.49015 19.4408C4.71869 20.9007 5.97633 21.9768 7.45405 21.9768H16.5742C18.052 21.9768 19.3096 20.9007 19.5382 19.4408L20.1529 15.5135H20.4735C21.8699 15.5135 23.0019 14.3814 23.0019 12.985C23.0019 11.6083 21.9016 10.4885 20.5324 10.4572ZM18.1286 15.5135H5.89973L6.46609 19.1314C6.54226 19.6181 6.96148 19.9768 7.45405 19.9768H16.5742C17.0668 19.9768 17.486 19.6181 17.5622 19.1314L18.1286 15.5135ZM3.55483 12.4565C3.26297 12.4565 3.02637 12.6931 3.02637 12.985C3.02637 13.2769 3.26297 13.5135 3.55483 13.5135H20.4735C20.7653 13.5135 21.0019 13.2769 21.0019 12.985C21.0019 12.6931 20.7653 12.4565 20.4735 12.4565H3.55483Z" fill="#0D151F"/>
</svg>
