<svg width="24" height="24" viewBox="0 0 24 24" fill="none" xmlns="http://www.w3.org/2000/svg">
<path fill-rule="evenodd" clip-rule="evenodd" d="M14.3051 6.3523C14.7464 7.09325 14.6283 8.03919 14.0185 8.64898L8.64898 14.0185C8.03918 14.6283 7.09325 14.7464 6.35229 14.3051C5.97891 14.0828 5.48844 14.1353 5.16913 14.4546C4.78955 14.8342 4.78955 15.4496 5.16913 15.8292C5.37174 16.0318 5.63842 16.1265 5.90776 16.1126C6.44082 16.0849 6.96061 16.2845 7.33804 16.662C7.71547 17.0394 7.91514 17.5592 7.88744 18.0922C7.87345 18.3616 7.96819 18.6283 8.17079 18.8309C8.55037 19.2104 9.16579 19.2104 9.54537 18.8309C9.86467 18.5116 9.91721 18.0211 9.69486 17.6477C9.25364 16.9068 9.37169 15.9608 9.98148 15.3511L15.351 9.98149C15.9608 9.37169 16.9068 9.25365 17.6477 9.69488C18.0211 9.91723 18.5116 9.8647 18.8309 9.5454C19.2104 9.16582 19.2104 8.5504 18.8309 8.17082C18.6283 7.96821 18.3616 7.87347 18.0922 7.88746C17.5592 7.91516 17.0394 7.71549 16.6619 7.33806C16.2845 6.96062 16.0848 6.44083 16.1125 5.90777C16.1265 5.63842 16.0318 5.37174 15.8292 5.16914C15.4496 4.78956 14.8342 4.78956 14.4546 5.16914C14.1353 5.48844 14.0828 5.97891 14.3051 6.3523ZM17.9635 5.4108C17.873 4.83454 17.6057 4.28067 17.1617 3.83663C16.0462 2.72112 14.2376 2.72112 13.1221 3.83663C12.1784 4.78031 12.0331 6.21999 12.686 7.31648L7.31647 12.686C6.21999 12.0331 4.7803 12.1784 3.83663 13.1221C2.72112 14.2376 2.72112 16.0462 3.83663 17.1617C4.28068 17.6058 4.83457 17.8731 5.41084 17.9636C5.60762 17.9945 5.80701 18.0048 6.00553 17.9945C5.99522 18.193 6.00552 18.3924 6.03643 18.5892C6.12695 19.1654 6.39423 19.7193 6.83829 20.1634C7.95379 21.2789 9.76238 21.2789 10.8779 20.1634C11.8215 19.2197 11.9669 17.78 11.314 16.6836L16.6835 11.314C17.78 11.9669 19.2197 11.8216 20.1634 10.8779C21.2789 9.7624 21.2789 7.95381 20.1634 6.83831C19.7193 6.39426 19.1655 6.12698 18.5892 6.03645C18.3924 6.00554 18.193 5.99524 17.9945 6.00555C18.0048 5.80701 17.9945 5.6076 17.9635 5.4108Z" fill="#0D151F"/>
</svg>
