<svg width="24" height="24" viewBox="0 0 24 24" fill="none" xmlns="http://www.w3.org/2000/svg">
<path fill-rule="evenodd" clip-rule="evenodd" d="M4.40479 1.78651C4.00558 1.39713 3.3669 1.40572 2.97826 1.8057C2.58962 2.20568 2.5982 2.84559 2.99741 3.23497L10.4278 10.4825H7.6028L4.52717 7.09243L4.50689 7.07211C4.28528 6.85007 3.93172 6.6076 3.45726 6.6076C3.08766 6.6076 2.7907 6.75517 2.57364 6.92479C2.42225 7.01449 2.30642 7.13302 2.22673 7.24834C2.09605 7.43747 2.05135 7.62638 2.03367 7.71494C1.99919 7.88765 1.99984 8.06018 2.00004 8.11406L2.00007 8.12376V8.16257L2.11475 9.65636C2.23131 11.3949 2.78334 13.1704 3.90576 14.6535V21.04C3.90576 21.4814 4.11604 21.8378 4.34135 22.0636C4.56667 22.2893 4.92237 22.5 5.36295 22.5H7.15654C7.45649 22.5 7.7743 22.4176 8.05297 22.1943C8.2953 22 8.43054 21.758 8.50724 21.6043L8.54617 21.5263L8.7747 20.7631C9.51378 20.3832 10.0966 19.8312 10.5715 19.2429H11.7922L12.4402 21.3528C12.5015 21.759 12.7425 22.0643 13.0146 22.246C13.3014 22.4376 13.6209 22.5 13.8825 22.5H15.7882C16.2288 22.5 16.5845 22.2893 16.8098 22.0636C17.0351 21.8378 17.2454 21.4814 17.2454 21.04V16.4092L17.9227 14.7503H18.5907C19.9288 14.7503 21.0116 13.9186 21.5964 12.8932L21.6079 12.8737L21.8471 12.3945C21.9208 12.2467 21.9807 12.0706 21.9961 11.8691C22.0119 11.6638 21.9775 11.4854 21.9298 11.3421C21.8867 11.2124 21.8302 11.1061 21.8014 11.0526C21.787 11.0258 21.7764 11.0064 21.7677 10.9906C21.7538 10.9653 21.7461 10.9512 21.735 10.9289L21.6398 10.7382L18.5906 8.20983V5.65283C18.5906 5.2114 18.3803 4.85501 18.155 4.62926C17.9297 4.40351 17.574 4.19282 17.1334 4.19282L17.1202 4.19279L17.1191 4.19279C16.9685 4.19222 16.4937 4.19043 16.0838 4.60118L16.0706 4.61411L13.7117 7.20255C13.4228 7.4973 13.1587 7.89458 12.9605 8.19274L12.9054 8.27552L12.2674 9.45558L4.40479 1.78651ZM15.1695 8.60089L16.573 7.06081V9.16084L19.8493 11.8775L19.832 11.9122C19.5202 12.444 19.0411 12.7288 18.5907 12.7288H16.5682L16.2066 13.6145L13.4628 11.4887L14.6353 9.31992C14.8655 8.97449 15.0236 8.74681 15.1563 8.61383L15.1695 8.60089ZM11.5678 12.504H6.71028L4.13914 9.67026C4.26264 11.1284 4.76141 12.5381 5.68954 13.654L5.92335 13.9352V20.4785H6.75347L7.1187 19.2587L7.58702 19.0828C8.21769 18.8458 8.74554 18.3526 9.25023 17.6446L9.55198 17.2214H13.2824L14.2827 20.4785H15.2278V16.0117L15.4363 15.5011L11.5678 12.504Z" fill="#0D151F"/>
</svg>
