<svg width="24" height="24" viewBox="0 0 24 24" fill="none" xmlns="http://www.w3.org/2000/svg">
<path d="M14.3682 2C14.9962 2 15.5988 2.24936 16.043 2.69336C16.4871 3.13746 16.7372 3.74011 16.7373 4.36816V6.68457H19.5791C20.9161 6.68465 22 7.76841 22 9.10547V19.5791C21.9999 20.9161 20.9161 21.9999 19.5791 22H4.4209C3.08391 21.9999 2.00009 20.9161 2 19.5791V9.10547C2 7.76841 3.08386 6.68465 4.4209 6.68457H7.26367V4.36816C7.26374 3.74011 7.51293 3.13746 7.95703 2.69336C8.40117 2.24935 9.00381 2 9.63184 2H14.3682ZM4.4209 8.68457C4.18843 8.68465 4 8.87298 4 9.10547V19.5791C4.00009 19.8115 4.18848 19.9999 4.4209 20H19.5791C19.8115 19.9999 19.9999 19.8115 20 19.5791V9.10547C20 8.87298 19.8116 8.68465 19.5791 8.68457H4.4209ZM12 10.5C12.5523 10.5 13 10.9477 13 11.5V13.3418H14.8418C15.394 13.3418 15.8416 13.7897 15.8418 14.3418C15.8418 14.8941 15.3941 15.3418 14.8418 15.3418H13V17.1846C12.9998 17.7367 12.5521 18.1845 12 18.1846C11.4478 18.1846 11.0002 17.7367 11 17.1846V15.3418H9.1582C8.60592 15.3418 8.1582 14.8941 8.1582 14.3418C8.15837 13.7897 8.60602 13.3418 9.1582 13.3418H11V11.5C11 10.9477 11.4477 10.5 12 10.5ZM9.63184 3.89453C9.50632 3.89453 9.38568 3.94452 9.29688 4.0332C9.2081 4.12198 9.15827 4.24263 9.1582 4.36816V6.68457H14.8418V4.36816C14.8417 4.24263 14.7919 4.12198 14.7031 4.0332C14.6143 3.94454 14.4937 3.89453 14.3682 3.89453H9.63184Z" fill="#0D151F"/>
</svg>
