<svg width="24" height="24" viewBox="0 0 24 24" fill="none" xmlns="http://www.w3.org/2000/svg">
<path d="M22 8.31588H19.535L15.835 2.46855C15.6878 2.23628 15.459 2.07507 15.1989 2.02039C14.9388 1.96571 14.6687 2.02203 14.448 2.17698C14.2273 2.33192 14.0742 2.57278 14.0222 2.84658C13.9703 3.12038 14.0238 3.40469 14.171 3.63697L17.132 8.31588H6.868L9.832 3.63697C9.97919 3.40469 10.0327 3.12038 9.98076 2.84658C9.92881 2.57278 9.77566 2.33192 9.555 2.17698C9.33434 2.02203 9.06424 1.96571 8.80413 2.02039C8.54402 2.07507 8.3152 2.23628 8.168 2.46855L4.465 8.31588H2C1.73478 8.31588 1.48043 8.42678 1.29289 8.62419C1.10536 8.82159 1 9.08933 1 9.36851C1 9.64768 1.10536 9.91542 1.29289 10.1128C1.48043 10.3102 1.73478 10.4211 2 10.4211H3V18.8421C3 19.6796 3.31607 20.4829 3.87868 21.0751C4.44129 21.6673 5.20435 22 6 22H18C18.7956 22 19.5587 21.6673 20.1213 21.0751C20.6839 20.4829 21 19.6796 21 18.8421V10.4211H22C22.2652 10.4211 22.5196 10.3102 22.7071 10.1128C22.8946 9.91542 23 9.64768 23 9.36851C23 9.08933 22.8946 8.82159 22.7071 8.62419C22.5196 8.42678 22.2652 8.31588 22 8.31588ZM19 18.8421C19 19.1213 18.8946 19.389 18.7071 19.5864C18.5196 19.7839 18.2652 19.8948 18 19.8948H6C5.73478 19.8948 5.48043 19.7839 5.29289 19.5864C5.10536 19.389 5 19.1213 5 18.8421V10.4211H19V18.8421Z" fill="#0D151F"/>
<path d="M8 18.3157C8.26522 18.3157 8.51957 18.2048 8.70711 18.0074C8.89464 17.81 9 17.5423 9 17.2631V13.0526C9 12.7735 8.89464 12.5057 8.70711 12.3083C8.51957 12.1109 8.26522 12 8 12C7.73478 12 7.48043 12.1109 7.29289 12.3083C7.10536 12.5057 7 12.7735 7 13.0526V17.2631C7 17.5423 7.10536 17.81 7.29289 18.0074C7.48043 18.2048 7.73478 18.3157 8 18.3157Z" fill="#0D151F"/>
<path d="M12 18.3157C12.2652 18.3157 12.5196 18.2048 12.7071 18.0074C12.8946 17.81 13 17.5423 13 17.2631V13.0526C13 12.7735 12.8946 12.5057 12.7071 12.3083C12.5196 12.1109 12.2652 12 12 12C11.7348 12 11.4804 12.1109 11.2929 12.3083C11.1054 12.5057 11 12.7735 11 13.0526V17.2631C11 17.5423 11.1054 17.81 11.2929 18.0074C11.4804 18.2048 11.7348 18.3157 12 18.3157Z" fill="#0D151F"/>
<path d="M16 18.3157C16.2652 18.3157 16.5196 18.2048 16.7071 18.0074C16.8946 17.81 17 17.5423 17 17.2631V13.0526C17 12.7735 16.8946 12.5057 16.7071 12.3083C16.5196 12.1109 16.2652 12 16 12C15.7348 12 15.4804 12.1109 15.2929 12.3083C15.1054 12.5057 15 12.7735 15 13.0526V17.2631C15 17.5423 15.1054 17.81 15.2929 18.0074C15.4804 18.2048 15.7348 18.3157 16 18.3157Z" fill="#0D151F"/>
</svg>
