<svg width="24" height="24" viewBox="0 0 24 24" fill="none" xmlns="http://www.w3.org/2000/svg">
<path fill-rule="evenodd" clip-rule="evenodd" d="M7.68338 5.81348C7.16001 5.81348 6.73573 6.23776 6.73573 6.76113C6.73573 7.2845 7.16001 7.70878 7.68338 7.70878C8.20675 7.70878 8.63103 7.2845 8.63103 6.76113C8.63103 6.23776 8.20675 5.81348 7.68338 5.81348ZM4.73573 6.76113C4.73573 5.13319 6.05544 3.81348 7.68338 3.81348C9.31132 3.81348 10.631 5.13319 10.631 6.76113C10.631 8.38907 9.31132 9.70878 7.68338 9.70878C6.05544 9.70878 4.73573 8.38907 4.73573 6.76113ZM15.7877 5.81348C15.2644 5.81348 14.8401 6.23775 14.8401 6.76113C14.8401 7.2845 15.2644 7.70878 15.7877 7.70878C16.3111 7.70878 16.7354 7.2845 16.7354 6.76113C16.7354 6.23775 16.3111 5.81348 15.7877 5.81348ZM12.8401 6.76113C12.8401 5.13319 14.1598 3.81348 15.7877 3.81348C17.4157 3.81348 18.7354 5.13319 18.7354 6.76113C18.7354 8.38907 17.4157 9.70878 15.7877 9.70878C14.1598 9.70878 12.8401 8.38907 12.8401 6.76113ZM0.636907 10.7421C0.636907 10.1898 1.08462 9.74209 1.63691 9.74209H6.42715C6.654 9.74209 6.8741 9.81922 7.05133 9.96081L9.61714 12.0107C10.0486 12.3554 10.119 12.9847 9.77424 13.4161C9.42951 13.8476 8.80026 13.918 8.36877 13.5732L6.71028 12.2482L5.72538 13.9483L7.3225 15.7721C7.86946 16.3967 7.97366 17.2943 7.58434 18.0276L6.31865 20.4115C6.05967 20.8993 5.45428 21.0848 4.96649 20.8258C4.47869 20.5668 4.2932 19.9615 4.55218 19.4737L5.81787 17.0897L4.67225 15.7815L2.45194 19.6631C2.17772 20.1425 1.56679 20.3088 1.08739 20.0346C0.607995 19.7604 0.441665 19.1495 0.715884 18.6701L3.63529 13.5663L4.69213 11.7421H1.63691C1.08462 11.7421 0.636907 11.2944 0.636907 10.7421ZM16.9464 9.96081C17.1237 9.81922 17.3438 9.74209 17.5706 9.74209H22.3609C22.9131 9.74209 23.3609 10.1898 23.3609 10.7421C23.3609 11.2944 22.9131 11.7421 22.3609 11.7421H19.3056L20.3652 13.5711L23.2819 18.6701C23.5561 19.1495 23.3898 19.7604 22.9104 20.0346C22.431 20.3088 21.8201 20.1425 21.5458 19.6631L19.3255 15.7815L18.1799 17.0897L19.4456 19.4737C19.7046 19.9615 19.5191 20.5668 19.0313 20.8258C18.5435 21.0848 17.9381 20.8993 17.6791 20.4115L16.4134 18.0276C16.0241 17.2943 16.1283 16.3967 16.6753 15.7721L18.2724 13.9483L17.2875 12.2482L15.629 13.5732C15.1975 13.918 14.5683 13.8476 14.2235 13.4161C13.8788 12.9847 13.9491 12.3554 14.3806 12.0107L16.9464 9.96081ZM9.93464 18.7492C9.93464 17.6443 10.8303 16.7487 11.9351 16.7487C13.04 16.7487 13.9356 17.6443 13.9356 18.7492C13.9356 19.854 13.04 20.7496 11.9351 20.7496C10.8303 20.7496 9.93464 19.854 9.93464 18.7492Z" fill="#0D151F"/>
</svg>
