<svg width="24" height="24" viewBox="0 0 24 24" fill="none" xmlns="http://www.w3.org/2000/svg">
<path fill-rule="evenodd" clip-rule="evenodd" d="M2 5C2 3.34315 3.34315 2 5 2H19C20.6569 2 22 3.34315 22 5V19C22 20.6569 20.6569 22 19 22H5C3.34315 22 2 20.6569 2 19V5ZM5 4C4.44772 4 4 4.44772 4 5V19C4 19.5523 4.44772 20 5 20H19C19.5523 20 20 19.5523 20 19V5C20 4.44772 19.5523 4 19 4H5ZM7.21637 9.28894C7.21637 8.18437 8.1118 7.28894 9.21637 7.28894H10.2409C10.8043 7.28894 11.349 7.39744 11.8359 7.66063C12.3205 7.9209 12.7026 8.30147 12.9643 8.78551C13.2275 9.27224 13.3377 9.81503 13.3377 10.3773V10.3876C13.3377 11.1026 13.149 11.7755 12.7144 12.3401L12.7116 12.3437C12.3048 12.8671 11.7549 13.2037 11.116 13.3654C10.9499 13.4075 10.7953 13.4193 10.666 13.4193H9.21637V15.7113C9.21637 16.2636 8.76866 16.7113 8.21637 16.7113C7.66409 16.7113 7.21637 16.2636 7.21637 15.7113V9.28894ZM9.21637 11.4193H10.6527C10.8827 11.3562 11.0262 11.2523 11.131 11.1183C11.25 10.9628 11.3377 10.7411 11.3377 10.3876V10.3773C11.3377 10.0754 11.2793 9.87406 11.205 9.73669C11.1296 9.59719 11.0303 9.49801 10.889 9.42225L10.8855 9.42033C10.7522 9.34818 10.5505 9.28894 10.2409 9.28894L9.21637 9.28894V11.4193ZM15.7835 7.38293C16.3358 7.38293 16.7835 7.83065 16.7835 8.38293V15.6172C16.7835 16.1695 16.3358 16.6172 15.7835 16.6172C15.2312 16.6172 14.7835 16.1695 14.7835 15.6172V8.38293C14.7835 7.83065 15.2312 7.38293 15.7835 7.38293Z" fill="#0D151F"/>
</svg>
