<svg width="24" height="24" viewBox="0 0 24 24" fill="none" xmlns="http://www.w3.org/2000/svg">
<path fill-rule="evenodd" clip-rule="evenodd" d="M1.83325 4.83325C1.83325 3.1764 3.1764 1.83325 4.83325 1.83325H19.1666C20.8234 1.83325 22.1666 3.1764 22.1666 4.83325V19.1666C22.1666 20.8234 20.8234 22.1666 19.1666 22.1666H4.83325C3.1764 22.1666 1.83325 20.8234 1.83325 19.1666V4.83325ZM4.83325 3.83325C4.28097 3.83325 3.83325 4.28097 3.83325 4.83325V19.1666C3.83325 19.7189 4.28097 20.1666 4.83325 20.1666H19.1666C19.7189 20.1666 20.1666 19.7189 20.1666 19.1666V4.83325C20.1666 4.28097 19.7189 3.83325 19.1666 3.83325H4.83325ZM6.29065 9.28871C6.29065 8.18414 7.18608 7.28871 8.29065 7.28871H9.31518C9.87858 7.28871 10.4233 7.39721 10.9102 7.6604C11.3948 7.92067 11.7769 8.30124 12.0386 8.78528C12.3018 9.27201 12.412 9.8148 12.412 10.3771V10.3873C12.412 11.1023 12.2233 11.7753 11.7887 12.3398L11.7858 12.3435C11.3791 12.8669 10.8292 13.2035 10.1903 13.3652C10.0242 13.4073 9.86959 13.4191 9.74028 13.4191H8.29065V15.7111C8.29065 16.2634 7.84294 16.7111 7.29065 16.7111C6.73837 16.7111 6.29065 16.2634 6.29065 15.7111V9.28871ZM8.29065 11.4191H9.72699C9.95693 11.356 10.1005 11.2521 10.2052 11.118C10.3243 10.9626 10.412 10.7408 10.412 10.3873V10.3771C10.412 10.0752 10.3535 9.87383 10.2793 9.73646C10.2039 9.59696 10.1046 9.49778 9.96328 9.42202L9.95973 9.4201C9.82648 9.34795 9.62474 9.28871 9.31518 9.28871H8.29065V11.4191ZM15.5483 8.20558C16.1006 8.20558 16.5483 8.65329 16.5483 9.20558V9.61433H16.8919C17.4442 9.61433 17.8919 10.062 17.8919 10.6143C17.8919 11.1666 17.4442 11.6143 16.8919 11.6143H16.5483V14.7704C16.5483 14.7819 16.5485 14.7927 16.5487 14.8031C16.5958 14.8027 16.6374 14.8015 16.6739 14.7995C16.7171 14.7973 16.7412 14.7945 16.7505 14.7932C17.2972 14.7151 17.8038 15.095 17.8819 15.6417C17.96 16.1884 17.5801 16.695 17.0333 16.7731C16.949 16.7851 16.8629 16.7924 16.779 16.7968C16.6956 16.8012 16.6094 16.8032 16.5209 16.8032C16.0486 16.8032 15.4615 16.6957 15.0374 16.2339C14.6389 15.8 14.5483 15.2344 14.5483 14.7704V11.6143H14.4003C13.848 11.6143 13.4003 11.1666 13.4003 10.6143C13.4003 10.062 13.848 9.61433 14.4003 9.61433H14.5483V9.20558C14.5483 8.65329 14.996 8.20558 15.5483 8.20558Z" fill="#0D151F"/>
</svg>
