<svg width="24" height="24" viewBox="0 0 24 24" fill="none" xmlns="http://www.w3.org/2000/svg">
<path d="M20.5771 14.0774V15.0774C20.5771 16.9874 19.5071 18.6474 17.9271 19.4874L18.5771 22.0774H16.5771L16.0771 20.0774H7.07715L6.57715 22.0774H4.57715L5.22715 19.4874C4.42633 19.0626 3.75646 18.4275 3.28954 17.6505C2.82263 16.8735 2.57633 15.9839 2.57715 15.0774V14.0774H1.57715V12.0774H19.5771V5.07739C19.5771 4.81218 19.4718 4.55782 19.2843 4.37029C19.0967 4.18275 18.8424 4.07739 18.5771 4.07739C18.0771 4.07739 17.6971 4.41739 17.5771 4.86739C18.2071 5.40739 18.5771 6.20739 18.5771 7.07739H12.5771C12.5771 6.28174 12.8932 5.51868 13.4558 4.95607C14.0184 4.39346 14.7815 4.07739 15.5771 4.07739H15.7471C16.1571 2.91739 17.2671 2.07739 18.5771 2.07739C19.3728 2.07739 20.1359 2.39346 20.6985 2.95607C21.2611 3.51868 21.5771 4.28174 21.5771 5.07739V14.0774H20.5771ZM18.5771 14.0774H4.57715V15.0774C4.57715 15.873 4.89322 16.6361 5.45583 17.1987C6.01844 17.7613 6.7815 18.0774 7.57715 18.0774H15.5771C16.3728 18.0774 17.1359 17.7613 17.6985 17.1987C18.2611 16.6361 18.5771 15.873 18.5771 15.0774V14.0774Z" fill="#0D151F"/>
</svg>
