<svg width="24" height="24" viewBox="0 0 24 24" fill="none" xmlns="http://www.w3.org/2000/svg">
<path fill-rule="evenodd" clip-rule="evenodd" d="M17.3047 10.5676C17.7607 10.5676 18.1304 10.198 18.1304 9.74194C18.1304 9.28593 17.7607 8.91626 17.3047 8.91626C16.8487 8.91626 16.479 9.28593 16.479 9.74194C16.479 10.198 16.8487 10.5676 17.3047 10.5676ZM17.3047 12.5676C18.8653 12.5676 20.1304 11.3025 20.1304 9.74194C20.1304 8.18136 18.8653 6.91626 17.3047 6.91626C15.7441 6.91626 14.479 8.18136 14.479 9.74194C14.479 11.3025 15.7441 12.5676 17.3047 12.5676Z" fill="#0D151F"/>
<path fill-rule="evenodd" clip-rule="evenodd" d="M10.2502 2.44319C9.94557 1.98622 9.32835 1.862 8.87113 2.16762L8.51151 2.40737C7.4954 3.08461 6.78563 4.09611 6.47264 5.24138C6.19207 5.09755 5.89245 4.98567 5.57444 4.92308C4.60441 4.73401 3.61865 4.95984 2.79426 5.55469L2.41265 5.82991C1.9677 6.15113 1.86645 6.7725 2.18804 7.21797C2.50923 7.66288 3.13064 7.76407 3.57609 7.44258L3.95749 7.16751C4.34618 6.88732 4.77014 6.79106 5.19137 6.87472C5.20339 6.87708 5.2154 6.87964 5.2274 6.88239C4.14837 7.56468 3.42866 8.76742 3.42866 10.1376C3.42866 10.6867 3.87384 11.1319 4.42294 11.1319C4.97204 11.1319 5.41723 10.6867 5.41723 10.1376C5.41723 9.47902 5.76387 8.90188 6.2858 8.57214V13.9908C5.01297 13.8503 3.81949 13.939 2.82085 14.0462L2.00028 14.1342V21.9982H15.333H16.4485C16.7665 21.9381 17.0769 21.8261 17.3669 21.6622L17.6453 21.5048C17.9506 21.3322 18.324 21.3322 18.6294 21.5048L18.9077 21.6622C19.7445 22.1121 21.0118 22.1121 21.86 21.6622L21.9992 21.5835L21.9997 19.4424C21.7073 19.5052 21.4221 19.6123 21.1543 19.7637L20.8759 19.921C20.5706 20.0936 20.1972 20.0936 19.8918 19.921L19.6135 19.7637C18.6974 19.246 17.5772 19.246 16.6612 19.7637L16.3828 19.921C16.0774 20.0936 15.704 20.0936 15.3987 19.921L14.6978 19.5249C14.4642 19.3928 14.2119 19.308 13.9543 19.2703C13.7651 18.9514 13.5711 18.6501 13.3729 18.3656C13.6263 18.2942 13.9014 18.3248 14.1362 18.4575L14.4146 18.6149C15.3306 19.1326 16.4509 19.1326 17.3669 18.6149L17.6453 18.4575C17.9506 18.285 18.324 18.285 18.6294 18.4575L18.9078 18.6149C19.8238 19.1326 20.9441 19.1326 21.8601 18.6149L21.9993 18.5362L21.9997 16.3951C21.7073 16.458 21.4221 16.5651 21.1544 16.7164L20.876 16.8738C20.5706 17.0463 20.1972 17.0463 19.8919 16.8738L19.6135 16.7164C18.6975 16.1987 17.5772 16.1987 16.6612 16.7164L16.3828 16.8738C16.0775 17.0463 15.704 17.0463 15.3987 16.8738L15.1203 16.7164C14.2043 16.1987 13.084 16.1987 12.168 16.7164L12.0606 16.7771C11.0247 15.7281 9.90933 15.0285 8.76311 14.5844C8.60003 14.5212 8.43704 14.4635 8.27437 14.4109V8.57214C8.7963 8.90188 9.14294 9.47902 9.14294 10.1376C9.14294 10.6867 9.58812 11.1319 10.1372 11.1319C10.6863 11.1319 11.1315 10.6867 11.1315 10.1376C11.1315 8.76742 10.4118 7.56468 9.33276 6.88239C9.34477 6.87964 9.35724 6.87699 9.36926 6.87463C9.79165 6.79091 10.2144 6.88737 10.6026 7.16747L10.9843 7.44275C11.43 7.76377 12.0513 7.66333 12.3721 7.21797C12.6937 6.7725 12.5924 6.15105 12.1474 5.82983L11.7659 5.55465C10.942 4.96037 9.95476 4.73572 8.98521 4.92318C8.89682 4.94058 8.81027 4.96215 8.72547 4.98714C8.94811 4.62322 9.24818 4.30614 9.61453 4.06195L9.9744 3.82203C10.4314 3.51751 10.5545 2.89993 10.2502 2.44319ZM3.92749 20.0809V15.9546C5.2503 15.8643 6.66098 15.9148 8.0405 16.4493C9.40961 16.9798 10.8363 18.0237 12.1074 20.0809H3.92749Z" fill="#0D151F"/>
</svg>
