<svg width="24" height="24" viewBox="0 0 24 24" fill="none" xmlns="http://www.w3.org/2000/svg">
<path fill-rule="evenodd" clip-rule="evenodd" d="M2 4.5C2 3.11929 3.11929 2 4.5 2H19.5C20.8807 2 22 3.11929 22 4.5V19.5C22 20.8807 20.8807 22 19.5 22H4.5C3.11929 22 2 20.8807 2 19.5V4.5ZM4.5 4C4.22386 4 4 4.22386 4 4.5V12.4599L4.32504 12.2864C4.57989 12.1503 4.84425 12.0328 5.11604 11.9349C5.11605 11.9349 5.11604 11.9349 5.11604 11.9349L5.14875 11.9231C6.57551 11.409 8.14539 11.4634 9.53309 12.0752C9.89963 12.2368 10.2488 12.4353 10.5751 12.6675L12.3701 13.945C12.9676 14.3702 13.6122 14.7249 14.2911 15.0019C15.9745 15.6889 17.8195 15.8789 19.6075 15.5494L19.9884 15.4792L20 15.5423V4.5C20 4.22386 19.7761 4 19.5 4H4.5ZM20 17.5107L19.97 17.5163C17.8059 17.9151 15.5728 17.6851 13.5354 16.8537C12.7137 16.5183 11.9335 16.0891 11.2105 15.5745L9.41545 14.297C9.19962 14.1434 8.96872 14.0121 8.72631 13.9053C7.80858 13.5007 6.77037 13.4647 5.82681 13.8047C5.8268 13.8047 5.82681 13.8047 5.82681 13.8047L5.79409 13.8165C5.613 13.8817 5.43686 13.96 5.26706 14.0506L4 14.7272V16.4639L4.3341 16.2646C4.54854 16.1367 4.77258 16.0256 5.00422 15.9323C6.42127 15.3618 8.02476 15.4959 9.32743 16.2937L9.79641 16.581L11.3257 17.603C12.2155 18.1976 13.1834 18.6662 14.2018 18.9953L14.2855 19.0223C16.1312 19.6188 18.0997 19.7282 20 19.3401V17.5107ZM11.4497 20H4.5C4.22386 20 4 19.7761 4 19.5V18.7927L5.35873 17.9822C5.48431 17.9073 5.61551 17.8422 5.75116 17.7876C6.58098 17.4535 7.51998 17.532 8.28282 17.9992L8.71804 18.2658L10.2144 19.2658C10.6134 19.5325 11.0258 19.7775 11.4497 20ZM8.99694 8.83142C8.9969 8.83169 8.99694 8.83147 8.99694 8.83142C8.94597 9.34275 8.51574 9.73222 8.00188 9.73222C7.50228 9.73222 7.08175 9.36409 7.01193 8.87374C7.00786 8.86313 6.99943 8.84292 6.98388 8.81278C6.946 8.73939 6.88272 8.64064 6.79193 8.53206C6.60732 8.31129 6.35466 8.10376 6.06942 7.98199C5.56149 7.76514 5.32551 7.17759 5.54236 6.66966C5.7592 6.16173 6.34675 5.92575 6.85468 6.1426C7.27001 6.3199 7.6281 6.56539 7.92336 6.8314C8.4676 6.28763 9.26998 5.86732 10.3405 5.86732C10.8928 5.86732 11.3405 6.31503 11.3405 6.86732C11.3405 7.4196 10.8928 7.86732 10.3405 7.86732C9.81527 7.86732 9.50245 8.06695 9.30384 8.28056C9.19674 8.39574 9.11756 8.52205 9.06462 8.63626C9.01067 8.75262 8.99791 8.82588 8.99694 8.83142ZM15.47 8.33409C14.8625 8.33409 14.37 8.82657 14.37 9.43409C14.37 10.0416 14.8625 10.5341 15.47 10.5341C16.0775 10.5341 16.57 10.0416 16.57 9.43409C16.57 8.82657 16.0775 8.33409 15.47 8.33409ZM12.37 9.43409C12.37 7.722 13.7579 6.33409 15.47 6.33409C17.1821 6.33409 18.57 7.722 18.57 9.43409C18.57 11.1462 17.1821 12.5341 15.47 12.5341C13.7579 12.5341 12.37 11.1462 12.37 9.43409Z" fill="#0D151F"/>
</svg>
