<svg width="24" height="24" viewBox="0 0 24 24" fill="none" xmlns="http://www.w3.org/2000/svg">
<path fill-rule="evenodd" clip-rule="evenodd" d="M10.5133 4.44141H11.6299C12.1822 4.44141 12.6299 3.99369 12.6299 3.44141C12.6299 2.88912 12.1822 2.44141 11.6299 2.44141H10.0949C9.70185 2.44141 9.33368 2.63394 9.10941 2.95677L7.83788 4.78715H5.72623C5.25178 4.78715 4.82187 5.0667 4.6294 5.50037L3.78382 7.40565H3.1311C2.46836 7.40565 1.9311 7.9429 1.9311 8.60565V10.817C1.9311 11.0829 2.03673 11.3379 2.22475 11.5259C2.41275 11.7139 2.66773 11.8195 2.93357 11.8195H4.67345C7.32802 11.8195 9.43026 14.0623 9.25884 16.7112C9.24111 16.985 9.33633 17.2578 9.52824 17.4625C9.51938 17.4531 9.53944 17.4749 9.56016 17.4951C9.58518 17.5194 9.63746 17.5681 9.71291 17.6171C9.79414 17.6699 9.88881 17.7146 9.99551 17.7436C10.0981 17.7715 10.1889 17.7786 10.2578 17.7786H13.6389C13.8983 17.7786 14.1476 17.678 14.3343 17.498C14.5212 17.3179 14.6309 17.0723 14.6403 16.813L14.6568 16.362C14.7402 14.0786 16.4588 12.192 18.7183 11.892H21.243C21.9057 11.892 22.443 11.3547 22.443 10.692V7.51262C22.443 6.84988 21.9057 6.31262 21.243 6.31262H16.5859C16.2676 6.31262 15.9624 6.43905 15.7374 6.66409L14.9958 7.40565H10.9669L9.61139 5.7397L10.5133 4.44141ZM7.88526 6.78715H6.24644L5.40086 8.69243C5.20839 9.12609 4.77849 9.40565 4.30402 9.40565H3.9311V9.81948H4.67345C8.12278 9.81948 10.9224 12.4579 11.2389 15.7786H12.6962C13.0409 12.7259 15.4418 10.2721 18.5357 9.89918L18.5954 9.892H20.443V8.31262H16.9173L16.1757 9.05417C15.9507 9.27922 15.6454 9.40565 15.3272 9.40565H10.5865C10.2254 9.40565 9.88352 9.24307 9.65564 8.963L7.88526 6.78715ZM4.2478 14.6243C3.14323 14.6243 2.2478 15.5197 2.2478 16.6243C2.2478 17.7289 3.14323 18.6243 4.2478 18.6243C5.35237 18.6243 6.2478 17.7289 6.2478 16.6243C6.2478 15.5197 5.35237 14.6243 4.2478 14.6243ZM0.247803 16.6243C0.247803 14.4151 2.03866 12.6243 4.2478 12.6243C6.45694 12.6243 8.2478 14.4151 8.2478 16.6243C8.2478 18.8334 6.45694 20.6243 4.2478 20.6243C2.03866 20.6243 0.247803 18.8334 0.247803 16.6243ZM19.5677 14.6243C18.4632 14.6243 17.5677 15.5197 17.5677 16.6243C17.5677 17.7289 18.4632 18.6243 19.5677 18.6243C20.6723 18.6243 21.5677 17.7289 21.5677 16.6243C21.5677 15.5197 20.6723 14.6243 19.5677 14.6243ZM15.5677 16.6243C15.5677 14.4151 17.3586 12.6243 19.5677 12.6243C21.7769 12.6243 23.5677 14.4151 23.5677 16.6243C23.5677 18.8334 21.7769 20.6243 19.5677 20.6243C17.3586 20.6243 15.5677 18.8334 15.5677 16.6243Z" fill="#0D151F"/>
</svg>
