<svg width="24" height="24" viewBox="0 0 24 24" fill="none" xmlns="http://www.w3.org/2000/svg">
<path fill-rule="evenodd" clip-rule="evenodd" d="M6.18501 2.3156C6.57553 2.70612 6.57553 3.33929 6.18501 3.72981C4.83707 5.07775 4.00513 6.93702 4.00513 8.99251C4.00513 11.048 4.83707 12.9073 6.18501 14.2552C6.57553 14.6457 6.57553 15.2789 6.18501 15.6694C5.79448 16.0599 5.16132 16.0599 4.77079 15.6694C3.06312 13.9617 2.00513 11.5997 2.00513 8.99251C2.00513 6.38529 3.06312 4.02327 4.77079 2.3156C5.16132 1.92507 5.79448 1.92507 6.18501 2.3156ZM17.8277 2.3156C18.2182 1.92507 18.8514 1.92507 19.2419 2.3156C20.9496 4.02327 22.0076 6.38529 22.0076 8.99251C22.0076 11.5997 20.9496 13.9617 19.2419 15.6694C18.8514 16.0599 18.2182 16.0599 17.8277 15.6694C17.4372 15.2789 17.4372 14.6457 17.8277 14.2552C19.1756 12.9073 20.0076 11.048 20.0076 8.99251C20.0076 6.93702 19.1756 5.07775 17.8277 3.72981C17.4372 3.33929 17.4372 2.70612 17.8277 2.3156ZM8.9802 4.67694C9.3644 5.07369 9.35422 5.70677 8.95747 6.09097C8.18365 6.84031 7.71341 7.86546 7.71341 8.99251C7.71341 10.1196 8.18365 11.1447 8.95747 11.8941C9.35422 12.2783 9.3644 12.9113 8.9802 13.3081C8.596 13.7048 7.96292 13.715 7.56617 13.3308C6.42662 12.2273 5.71341 10.6928 5.71341 8.99251C5.71341 7.29223 6.42662 5.7577 7.56617 4.65421C7.96292 4.27001 8.596 4.28019 8.9802 4.67694ZM15.0198 4.67694C15.404 4.28019 16.0371 4.27001 16.4338 4.65421C17.5734 5.7577 18.2866 7.29223 18.2866 8.99251C18.2866 10.6928 17.5734 12.2273 16.4338 13.3308C16.0371 13.715 15.404 13.7048 15.0198 13.3081C14.6356 12.9113 14.6458 12.2783 15.0425 11.8941C15.8164 11.1447 16.2866 10.1196 16.2866 8.99251C16.2866 7.86546 15.8164 6.84031 15.0425 6.09097C14.6458 5.70677 14.6356 5.07369 15.0198 4.67694ZM12.0001 8.32502C11.597 8.32502 11.2703 8.65176 11.2703 9.05482C11.2703 9.45788 11.597 9.78462 12.0001 9.78462C12.4031 9.78462 12.7299 9.45788 12.7299 9.05482C12.7299 8.65176 12.4031 8.32502 12.0001 8.32502ZM9.27025 9.05482C9.27025 7.54719 10.4924 6.32502 12.0001 6.32502C13.5077 6.32502 14.7299 7.54719 14.7299 9.05482C14.7299 10.2095 14.013 11.1967 13.0001 11.5956V21.0018C13.0001 21.5541 12.5523 22.0018 12.0001 22.0018C11.4478 22.0018 11.0001 21.5541 11.0001 21.0018V11.5957C9.98711 11.1967 9.27025 10.2095 9.27025 9.05482Z" fill="#0D151F"/>
</svg>
