<svg width="24" height="24" viewBox="0 0 24 24" fill="none" xmlns="http://www.w3.org/2000/svg">
<path d="M9.07134 18.26C9.1547 18.2955 9.24412 18.3142 9.33475 18.3152C9.42539 18.3163 9.51535 18.2993 9.59938 18.2655C9.68342 18.2315 9.75991 18.1815 9.82469 18.118C9.88933 18.0546 9.94091 17.979 9.97632 17.8955L10.5958 16.4419C10.633 16.3583 10.6531 16.2682 10.6551 16.1768C10.6571 16.0853 10.6408 15.9944 10.6073 15.9093C10.5739 15.8242 10.5238 15.7466 10.4599 15.681C10.3961 15.6155 10.3199 15.5632 10.2358 15.5274C10.1517 15.4916 10.0612 15.4728 9.96974 15.4723C9.8783 15.4719 9.78766 15.4895 9.70309 15.5243C9.61852 15.5592 9.54175 15.6105 9.47711 15.6754C9.4126 15.7402 9.36156 15.8172 9.32709 15.9019L8.7076 17.3555C8.63595 17.5239 8.63407 17.7136 8.70234 17.883C8.77049 18.0527 8.90314 18.1882 9.07134 18.26Z" fill="#0D151F"/>
<path d="M10.4264 20.9042C10.5098 20.9398 10.5992 20.9586 10.6899 20.9597C10.7804 20.9607 10.8702 20.9437 10.9542 20.91C11.0382 20.8762 11.1149 20.8261 11.1795 20.7628C11.2443 20.6995 11.2959 20.624 11.3314 20.5408L11.9509 19.0876C11.9865 19.0042 12.0052 18.9148 12.0061 18.8243C12.0071 18.7336 11.9902 18.6438 11.9564 18.5598C11.9226 18.4757 11.8727 18.3991 11.8092 18.3345C11.7459 18.2697 11.6705 18.2181 11.5872 18.1826C11.5038 18.147 11.4144 18.1283 11.3238 18.1274C11.2333 18.1264 11.1434 18.1432 11.0594 18.1771C10.9754 18.2107 10.8987 18.2608 10.834 18.3242C10.7693 18.3875 10.7177 18.463 10.6822 18.5463L10.0628 19.9993C10.0273 20.0826 10.0086 20.1722 10.0075 20.2627C10.0065 20.3533 10.0235 20.4432 10.0572 20.5272C10.091 20.6112 10.1409 20.6877 10.2044 20.7525C10.2677 20.8173 10.3432 20.8688 10.4264 20.9042Z" fill="#0D151F"/>
<path d="M13.4027 15.4389L12.7832 16.8926C12.746 16.9761 12.7258 17.0664 12.7238 17.1578C12.7219 17.2492 12.7381 17.3403 12.7716 17.4254C12.8051 17.5104 12.8552 17.5881 12.9191 17.6535C12.9828 17.7191 13.059 17.7714 13.1431 17.8072C13.2273 17.8429 13.3178 17.8616 13.4093 17.8623C13.5007 17.8628 13.5913 17.8452 13.6759 17.8103C13.7605 17.7753 13.8372 17.7241 13.9017 17.6592C13.9664 17.5944 14.0173 17.5175 14.0518 17.4327L14.6713 15.9789C14.7084 15.8954 14.7286 15.8052 14.7305 15.7137C14.7325 15.6223 14.7162 15.5314 14.6827 15.4463C14.6493 15.3612 14.5992 15.2836 14.5354 15.218C14.4715 15.1524 14.3955 15.1003 14.3113 15.0645C14.2271 15.0287 14.1366 15.01 14.0452 15.0094C13.9537 15.0089 13.8631 15.0265 13.7785 15.0614C13.694 15.0963 13.6172 15.1476 13.5526 15.2124C13.488 15.2771 13.4373 15.3542 13.4027 15.4389Z" fill="#0D151F"/>
<path d="M8.44598 12.9211C8.36262 12.8856 8.2732 12.8667 8.1827 12.8658C8.09207 12.8648 8.00224 12.8817 7.91821 12.9155C7.83418 12.9493 7.75755 12.9992 7.6929 13.0625C7.62813 13.1258 7.57655 13.2014 7.541 13.2846L6.92099 14.7378C6.84921 14.906 6.84733 15.0959 6.91547 15.2657C6.98361 15.4354 7.11653 15.571 7.28474 15.6428C7.45294 15.7146 7.64283 15.7166 7.81263 15.6484C7.98231 15.5802 8.11792 15.4474 8.18972 15.279L8.80907 13.8254C8.88072 13.6573 8.88274 13.4677 8.81459 13.2982C8.74658 13.1286 8.61394 12.993 8.44602 12.9211L8.44598 12.9211Z" fill="#0D151F"/>
<path d="M17.6614 6.47588C17.2255 5.44903 16.4979 4.57245 15.569 3.95472C14.6401 3.33699 13.5505 3.00502 12.4349 3.00006C11.2865 2.99481 10.1639 3.34064 9.21775 3.99137C8.27157 4.6421 7.54689 5.56649 7.14101 6.64075C6.59844 6.46797 6.02487 6.41464 5.45978 6.48453C4.89469 6.55442 4.35146 6.74592 3.86732 7.04569C3.38332 7.34547 2.96988 7.74651 2.65543 8.22138C2.34111 8.6961 2.1333 9.2333 2.04632 9.79608C1.95932 10.3587 1.99514 10.9336 2.1515 11.4812C2.30771 12.0288 2.58068 12.536 2.95157 12.968C3.3226 13.4 3.7826 13.7465 4.30015 13.9839C4.81784 14.2212 5.38062 14.3436 5.94998 14.3427C6.13286 14.3427 6.30835 14.2701 6.43764 14.1408C6.56692 14.0115 6.63951 13.8361 6.63951 13.6532C6.63951 13.4704 6.56692 13.2949 6.43764 13.1656C6.30835 13.0364 6.13288 12.9636 5.94998 12.9636C5.55606 12.9647 5.16728 12.8752 4.81363 12.7017C4.45984 12.5282 4.15091 12.2756 3.91068 11.9634C3.67029 11.6514 3.50518 11.2881 3.42789 10.9018C3.35058 10.5155 3.36338 10.1167 3.46519 9.73614C3.56686 9.35557 3.755 9.00354 4.01466 8.70739C4.27444 8.41125 4.59885 8.17895 4.96288 8.02839C5.32701 7.87783 5.72079 7.81319 6.11377 7.83945C6.50686 7.86571 6.88854 7.98207 7.22937 8.17963C7.32283 8.23444 7.42801 8.26622 7.53628 8.27228C7.64442 8.27834 7.75256 8.25855 7.85154 8.21464C7.95093 8.17128 8.0386 8.10515 8.10755 8.02166C8.1765 7.93803 8.22498 7.83945 8.24869 7.73373C8.4554 6.80572 8.96461 5.97265 9.69611 5.36557C10.4278 4.75835 11.3404 4.41156 12.2907 4.3795C13.2409 4.34759 14.1748 4.63228 14.9457 5.18888C15.7165 5.74535 16.2804 6.54233 16.5491 7.45445C16.5991 7.62763 16.7153 7.77429 16.8726 7.86236C17.03 7.95044 17.2156 7.97292 17.3894 7.92512C17.7421 7.83004 18.1109 7.81145 18.4712 7.87058C18.8316 7.92969 19.1752 8.06517 19.479 8.26773C19.7828 8.47041 20.0397 8.73571 20.2326 9.04571C20.4257 9.35572 20.55 9.70343 20.5978 10.0654C20.6455 10.4274 20.6153 10.7955 20.5092 11.1449C20.4032 11.4944 20.2237 11.8171 19.9827 12.0915C19.7418 12.3658 19.445 12.5856 19.1122 12.736C18.7795 12.8865 18.4184 12.9642 18.0533 12.9636H10.1994C10.0166 12.9636 9.8412 13.0364 9.71191 13.1656C9.5825 13.2949 9.50991 13.4704 9.50991 13.6532C9.50991 13.836 9.5825 14.0115 9.71191 14.1408C9.8412 14.2701 10.0165 14.3427 10.1994 14.3427H18.0561C18.5906 14.3428 19.1196 14.2343 19.6108 14.0235C20.1021 13.8129 20.5454 13.5045 20.9139 13.1172C21.2823 12.7299 21.5682 12.2717 21.754 11.7706C21.9397 11.2694 22.0218 10.7357 21.995 10.2018C21.9682 9.66802 21.8333 9.14509 21.5982 8.66512C21.363 8.18502 21.0327 7.75787 20.6275 7.40932C20.2221 7.0608 19.7502 6.79844 19.2402 6.63793C18.7305 6.47754 18.1933 6.42245 17.6615 6.47592L17.6614 6.47588Z" fill="#0D151F"/>
</svg>
