<svg width="24" height="24" viewBox="0 0 24 24" fill="none" xmlns="http://www.w3.org/2000/svg">
<path d="M20 10.4849C20.5523 10.4849 21 10.9326 21 11.4849V21.1157C21 21.668 20.5523 22.1157 20 22.1157H4C3.44772 22.1157 3 21.668 3 21.1157V11.4849C3 10.9326 3.44772 10.4849 4 10.4849H20ZM7 12.4233C7 12.9375 6.78914 13.4309 6.41406 13.7944C6.03901 14.1579 5.53033 14.3618 5 14.3618V18.2388C5.53043 18.2388 6.03899 18.4436 6.41406 18.8071C6.74217 19.1252 6.94476 19.5422 6.99023 19.9858L7 20.1773H17C17.0001 19.6633 17.211 19.1706 17.5859 18.8071C17.961 18.4436 18.4696 18.2388 19 18.2388V14.3618C18.4697 14.3618 17.961 14.1579 17.5859 13.7944C17.2109 13.4309 17 12.9375 17 12.4233H7ZM11.415 13.4487C11.9969 13.3366 12.6003 13.3937 13.1484 13.6138C13.6965 13.8339 14.1645 14.207 14.4941 14.6851C14.8238 15.1632 15 15.7253 15 16.3003C15 17.0715 14.6837 17.8116 14.1211 18.3569C13.5585 18.9021 12.7955 19.2085 12 19.2085C11.4067 19.2085 10.8264 19.0378 10.333 18.7183C9.83985 18.3988 9.45557 17.9447 9.22852 17.4136C9.00145 16.8822 8.94186 16.297 9.05762 15.7329C9.1734 15.169 9.45943 14.6512 9.87891 14.2446C10.2985 13.838 10.8331 13.5609 11.415 13.4487ZM10.1592 2.32569C10.4477 2.04524 10.9077 2.04623 11.1953 2.32764C11.4927 2.61901 11.4925 3.09855 11.1943 3.38917L9.87988 4.66944H16.2734C16.6747 4.66965 17 4.99466 17 5.396C17 5.79736 16.6747 6.12236 16.2734 6.12257H9.87988L11.1943 7.40284C11.4926 7.69345 11.4927 8.17299 11.1953 8.46436C10.9077 8.74578 10.4477 8.74677 10.1592 8.46632L7.73828 6.1128C7.33423 5.7201 7.33423 5.07191 7.73828 4.67921L10.1592 2.32569Z" fill="#0D151F"/>
</svg>
