<svg width="24" height="24" viewBox="0 0 24 24" fill="none" xmlns="http://www.w3.org/2000/svg">
<path fill-rule="evenodd" clip-rule="evenodd" d="M1.99988 5C1.99988 3.34314 3.34302 2 4.99988 2H18.9999C20.6567 2 21.9999 3.34315 21.9999 5V12.9637C21.9999 14.6206 20.6567 15.9637 18.9999 15.9637H14.3781L18.6232 20.3005C19.0095 20.6952 19.0028 21.3283 18.6081 21.7146C18.2134 22.101 17.5803 22.0942 17.1939 21.6995L11.9999 16.3933L6.80581 21.6995C6.41948 22.0942 5.78635 22.101 5.39168 21.7146C4.997 21.3283 4.99024 20.6952 5.37657 20.3005L9.62167 15.9637H4.99988C3.34302 15.9637 1.99988 14.6206 1.99988 12.9637V5ZM4.99988 4C4.44759 4 3.99988 4.44772 3.99988 5V12.9637C3.99988 13.516 4.44759 13.9637 4.99988 13.9637H18.9999C19.5522 13.9637 19.9999 13.516 19.9999 12.9637V5C19.9999 4.44772 19.5522 4 18.9999 4H4.99988ZM9.26599 6.79506C8.04762 6.79506 7.05994 7.78275 7.05994 9.00112C7.05994 10.2195 8.04762 11.2072 9.26599 11.2072C10.4844 11.2072 11.472 10.2195 11.472 9.00112C11.472 7.78275 10.4844 6.79506 9.26599 6.79506ZM5.05994 9.00112C5.05994 6.67818 6.94305 4.79506 9.26599 4.79506C11.5889 4.79506 13.472 6.67818 13.472 9.00112C13.472 11.3241 11.5889 13.2072 9.26599 13.2072C6.94305 13.2072 5.05994 11.3241 5.05994 9.00112ZM15.6983 6.1672C15.6983 5.61491 16.146 5.1672 16.6983 5.1672H18.1575C18.7098 5.1672 19.1575 5.61491 19.1575 6.1672C19.1575 6.71948 18.7098 7.1672 18.1575 7.1672H16.6983C16.146 7.1672 15.6983 6.71948 15.6983 6.1672Z" fill="#0D151F"/>
</svg>
