<svg width="24" height="24" viewBox="0 0 24 24" fill="none" xmlns="http://www.w3.org/2000/svg">
<path d="M3 19C2.71667 19 2.479 18.904 2.287 18.712C2.095 18.52 1.99934 18.2827 2 18C2 17.7167 2.096 17.479 2.288 17.287C2.48 17.095 2.71734 16.9993 3 17H21C21.2833 17 21.521 17.096 21.713 17.288C21.905 17.48 22.0007 17.7173 22 18C22 18.2833 21.904 18.521 21.712 18.713C21.52 18.905 21.2827 19.0007 21 19H3ZM3 16V15C3 12.8667 3.65434 10.9833 4.963 9.35C6.27167 7.71667 7.95067 6.68334 10 6.25V6C10 5.45 10.196 4.979 10.588 4.587C10.98 4.195 11.4507 3.99934 12 4C12.55 4 13.021 4.196 13.413 4.588C13.805 4.98 14.0007 5.45067 14 6V6.25C16.0667 6.68334 17.75 7.71667 19.05 9.35C20.35 10.9833 21 12.8667 21 15V16H3ZM5.05 14H18.95C18.7167 12.2667 17.9417 10.8333 16.625 9.7C15.3083 8.56667 13.7667 8 12 8C10.2333 8 8.696 8.56667 7.388 9.7C6.08 10.8333 5.30067 12.2667 5.05 14Z" fill="#0D151F"/>
</svg>
