<svg width="24" height="24" viewBox="0 0 24 24" fill="none" xmlns="http://www.w3.org/2000/svg">
<path fill-rule="evenodd" clip-rule="evenodd" d="M1.8335 4.8335C1.8335 3.17665 3.17664 1.8335 4.8335 1.8335H19.1668C20.8237 1.8335 22.1668 3.17664 22.1668 4.8335V19.1668C22.1668 20.8237 20.8237 22.1668 19.1668 22.1668H4.8335C3.17665 22.1668 1.8335 20.8237 1.8335 19.1668V4.8335ZM4.8335 3.8335C4.28121 3.8335 3.8335 4.28121 3.8335 4.8335V19.1668C3.8335 19.7191 4.28121 20.1668 4.8335 20.1668H19.1668C19.7191 20.1668 20.1668 19.7191 20.1668 19.1668V4.8335C20.1668 4.28121 19.7191 3.8335 19.1668 3.8335H4.8335ZM5.54092 9.28897C5.54092 8.1844 6.43635 7.28897 7.54092 7.28897H8.56544C9.12882 7.28897 9.67354 7.39746 10.1604 7.66062C10.645 7.92089 11.0272 8.30148 11.2889 8.78554C11.552 9.27227 11.6623 9.81505 11.6623 10.3773V10.3876C11.6623 11.1026 11.4735 11.7755 11.0389 12.3401L11.0361 12.3438C10.8696 12.558 10.6797 12.7404 10.47 12.8923L11.702 15.2479C11.958 15.7373 11.7688 16.3415 11.2794 16.5975C10.79 16.8534 10.1858 16.6642 9.92979 16.1748L8.48866 13.4194H7.54092V15.7114C7.54092 16.2636 7.0932 16.7114 6.54092 16.7114C5.98863 16.7114 5.54092 16.2636 5.54092 15.7114V9.28897ZM7.54092 11.4194H8.9774C9.2097 11.3557 9.35262 11.25 9.45551 11.1183C9.57453 10.9628 9.66227 10.7411 9.66227 10.3876V10.3773C9.66227 10.0754 9.60381 9.87409 9.52954 9.73672C9.45412 9.59722 9.35482 9.49804 9.21355 9.42228L9.20999 9.42036C9.07675 9.34821 8.875 9.28897 8.56544 9.28897H7.54092V11.4194ZM13.8046 9.29469C14.3569 9.29469 14.8046 9.74241 14.8046 10.2947V13.7682C14.8046 14.0979 14.894 14.2665 14.9985 14.3756C15.0972 14.476 15.2454 14.5603 15.5493 14.5603C15.7109 14.5603 15.8314 14.5331 15.9244 14.4943C16.034 14.4467 16.1209 14.3846 16.1945 14.3064L16.2011 14.2993C16.2759 14.2214 16.336 14.1276 16.3806 14.0065L16.3848 13.9953C16.4292 13.8789 16.4594 13.7301 16.4594 13.5366V10.2947C16.4594 9.74241 16.9071 9.29469 17.4594 9.29469C18.0116 9.29469 18.4594 9.74241 18.4594 10.2947V15.7114C18.4594 16.2636 18.0116 16.7114 17.4594 16.7114C17.1471 16.7114 16.8683 16.5683 16.6849 16.3441C16.3231 16.4934 15.9401 16.5603 15.5493 16.5603C14.7988 16.5603 14.1013 16.3201 13.565 15.7703L13.5614 15.7666C13.0317 15.2179 12.8046 14.5172 12.8046 13.7682V10.2947C12.8046 9.74241 13.2523 9.29469 13.8046 9.29469Z" fill="#0D151F"/>
</svg>
