<svg width="24" height="24" viewBox="0 0 24 24" fill="none" xmlns="http://www.w3.org/2000/svg">
<path fill-rule="evenodd" clip-rule="evenodd" d="M2 6.25C2 4.86929 3.11929 3.75 4.5 3.75H19.5C20.8807 3.75 22 4.86929 22 6.25V17.75C22 19.1307 20.8807 20.25 19.5 20.25H4.5C3.11929 20.25 2 19.1307 2 17.75V6.25ZM4.5 5.75C4.22386 5.75 4 5.97386 4 6.25V7.49059H20V6.25C20 5.97386 19.7761 5.75 19.5 5.75H4.5ZM20 9.49059H4V17.75C4 18.0261 4.22386 18.25 4.5 18.25H19.5C19.7761 18.25 20 18.0261 20 17.75V9.49059ZM8.49371 12.8296C7.90762 12.8296 7.4325 13.3048 7.4325 13.8909C7.4325 14.477 7.90762 14.9521 8.49371 14.9521C9.07981 14.9521 9.55493 14.477 9.55493 13.8909C9.55493 13.3048 9.07981 12.8296 8.49371 12.8296ZM5.4325 13.8909C5.4325 12.2002 6.80305 10.8296 8.49371 10.8296C9.8342 10.8296 10.9734 11.6913 11.3879 12.8909H16.576C17.6806 12.8909 18.576 13.7863 18.576 14.8909V15.4223C18.576 15.9746 18.1283 16.4223 17.576 16.4223C17.0238 16.4223 16.576 15.9746 16.576 15.4223L16.576 14.8909H15.8029V15.4223C15.8029 15.9746 15.3552 16.4223 14.8029 16.4223C14.2506 16.4223 13.8029 15.9746 13.8029 15.4223V14.8909H11.3879C10.9734 16.0905 9.8342 16.9521 8.49371 16.9521C6.80305 16.9521 5.4325 15.5815 5.4325 13.8909Z" fill="#0D151F"/>
</svg>
