<svg width="24" height="24" viewBox="0 0 24 24" fill="none" xmlns="http://www.w3.org/2000/svg">
<path fill-rule="evenodd" clip-rule="evenodd" d="M9.50001 2C8.94772 2 8.50001 2.446 8.50001 2.99616V5.81618L4.57184 14.6507C4.44829 14.9577 4.48571 15.3057 4.67171 15.5796C4.85771 15.8535 5.16804 16.0176 5.50001 16.0176H8.50001V17.0192H3.00001C2.67856 17.0192 2.37672 17.1731 2.18877 17.4329C2.00081 17.6927 1.94967 18.0266 2.05132 18.3304L3.05132 21.3189C3.18744 21.7256 3.56958 22 4.00001 22H15.557C16.0078 22.0001 16.4506 21.8786 16.8378 21.6487L21.5123 18.8709C21.8987 18.6412 22.0836 18.1828 21.9641 17.7507C21.8445 17.3186 21.45 17.0192 21 17.0192H10.5V16.0176H19.5C20.0523 16.0176 20.5 15.5716 20.5 15.0214C20.5 11.543 19.1614 9.0206 17.1665 6.43718C15.1886 3.87576 12.4279 2 9.50001 2ZM10.5 5.98587C10.5004 6.0011 10.5004 6.01636 10.5 6.03165V14.0253H18.4579C18.2347 11.3663 17.1423 9.67351 15.5813 7.65191C14.0911 5.72208 12.2713 4.45084 10.5 4.09455V5.98587ZM6.97835 14.0253L8.50001 11.1696V14.0253H6.97835ZM4.38743 19.0115L4.72077 20.0077H13.557C13.6471 20.0077 15.7358 19.9835 15.8132 19.9376L17.3717 19.0115H4.38743Z" fill="#0D151F"/>
</svg>
