<svg width="24" height="24" viewBox="0 0 24 24" fill="none" xmlns="http://www.w3.org/2000/svg">
<path fill-rule="evenodd" clip-rule="evenodd" d="M3.0033 2C3.55558 2 4.0033 2.44772 4.0033 3V18.6966H14.1166C14.6689 18.6966 15.1166 19.1443 15.1166 19.6966C15.1166 20.2489 14.6689 20.6966 14.1166 20.6966H4.0033C2.89873 20.6966 2.0033 19.8012 2.0033 18.6966V3C2.0033 2.44772 2.45101 2 3.0033 2ZM16.3594 2.02815C16.8969 1.90152 17.4354 2.23466 17.562 2.77223L18.1161 5.12452C18.2218 5.57341 18.1776 6.03435 18.0346 6.42858C17.8946 6.81471 17.6242 7.22922 17.1835 7.48247L16.2503 8.01879C16.247 8.02555 16.243 8.03448 16.2389 8.0457C16.229 8.07303 16.222 8.1049 16.2197 8.13712C16.2174 8.16929 16.2203 8.194 16.224 8.20944L16.63 9.93327C16.7566 10.4708 16.4235 11.0093 15.8859 11.1359C15.3484 11.2625 14.8099 10.9294 14.6833 10.3918L14.2773 8.66799C14.1715 8.2191 14.2157 7.75816 14.3587 7.36393C14.4987 6.9778 14.7692 6.56329 15.2098 6.31004L16.143 5.77372C16.1464 5.76696 16.1504 5.75803 16.1544 5.74681C16.1643 5.71948 16.1714 5.68761 16.1736 5.65539C16.1759 5.62321 16.173 5.59851 16.1693 5.58307L15.6153 3.23078C15.4886 2.69321 15.8218 2.15477 16.3594 2.02815ZM20.1763 3.26655C20.7139 3.13992 21.2524 3.47306 21.379 4.01064L21.9331 6.36292C22.0388 6.81181 21.9946 7.27275 21.8516 7.66698C21.7116 8.05312 21.4412 8.46762 21.0005 8.72088L20.0673 9.25719C20.0639 9.26395 20.0599 9.27288 20.0559 9.2841C20.046 9.31143 20.039 9.3433 20.0367 9.37552C20.0344 9.4077 20.0373 9.4324 20.041 9.44784L20.447 11.1717C20.5736 11.7092 20.2405 12.2477 19.7029 12.3743C19.1653 12.5009 18.6269 12.1678 18.5003 11.6302L18.0942 9.90639C17.9885 9.4575 18.0327 8.99657 18.1757 8.60233C18.3157 8.2162 18.5861 7.80169 19.0268 7.54844L19.96 7.01212C19.9634 7.00536 19.9674 6.99644 19.9714 6.98522C19.9813 6.95789 19.9883 6.92602 19.9906 6.89379C19.9929 6.86162 19.99 6.83692 19.9863 6.82147L19.4323 4.46919C19.3056 3.93161 19.6388 3.39317 20.1763 3.26655ZM9.77124 5.45911C9.39444 5.45911 9.08899 5.76456 9.08899 6.14136C9.08899 6.51815 9.39444 6.82361 9.77124 6.82361C10.148 6.82361 10.4535 6.51815 10.4535 6.14136C10.4535 5.76456 10.148 5.45911 9.77124 5.45911ZM7.08899 6.14136C7.08899 4.65999 8.28987 3.45911 9.77124 3.45911C11.2526 3.45911 12.4535 4.65999 12.4535 6.14136C12.4535 7.62272 11.2526 8.82361 9.77124 8.82361C8.28987 8.82361 7.08899 7.62272 7.08899 6.14136ZM9.7455 12.1029C9.72493 12.1937 9.72258 12.2912 9.74291 12.3919C9.76056 12.4794 9.79459 12.5627 9.8432 12.6375L11.5738 15.3018H16.6936L21.6856 20.2938C22.0762 20.6843 22.0762 21.3175 21.6856 21.708C21.2951 22.0985 20.662 22.0985 20.2714 21.708L15.8652 17.3018H10.488L8.59119 14.3816L7.33629 16.8589C7.08672 17.3516 6.485 17.5487 5.99233 17.2991C5.49965 17.0495 5.30257 16.4478 5.55214 15.9552L7.85291 11.4132C8.37176 9.82071 10.369 8.9564 11.9488 10.0048C12.1956 10.1686 12.4155 10.3726 12.5974 10.6081L14.6641 13.2837C15.0017 13.7207 14.9211 14.3488 14.484 14.6864C14.0469 15.024 13.4189 14.9433 13.0813 14.5063L11.0146 11.8307C10.9672 11.7694 10.9087 11.7149 10.843 11.6712C10.5047 11.4467 10.1146 11.5495 9.89731 11.8032L9.7455 12.1029Z" fill="#0D151F"/>
</svg>
