<svg width="24" height="24" viewBox="0 0 24 24" fill="none" xmlns="http://www.w3.org/2000/svg">
<path fill-rule="evenodd" clip-rule="evenodd" d="M12.6015 2.1246C12.2179 1.95847 11.7821 1.95847 11.3985 2.1246L6.71259 4.15362C5.67508 4.60286 5.48507 5.98736 6.36349 6.69733L7.28377 7.44115C7.13111 7.6929 7.02701 7.99268 7.02701 8.33668C7.02701 8.73781 7.16854 9.0788 7.36358 9.35363C7.24047 9.77793 7.17445 10.2262 7.17445 10.6893C7.17445 11.7648 7.52927 12.7577 8.12869 13.5584C5.97523 13.6947 4.19169 15.3219 3.88998 17.4764L3.5 22H5.54412L5.88196 17.753C6.03186 16.6825 6.83444 15.8443 7.85553 15.6146L8.58387 16.9602C8.87953 17.5065 9.59657 17.6588 10.0904 17.2799L10.9944 16.5863L10.9944 22H13.0056L13.0057 16.5863L13.9097 17.2799C14.4035 17.6588 15.1205 17.5065 15.4162 16.9602L16.1445 15.6146C17.1656 15.8443 17.9682 16.6825 18.1181 17.753L18.4559 22H20.5L20.1101 17.4764C19.8084 15.3219 18.0248 13.6947 15.8714 13.5584C16.4708 12.7577 16.8256 11.7648 16.8256 10.6893C16.8256 10.2262 16.7596 9.77793 16.6365 9.35363C16.8315 9.0788 16.973 8.73781 16.973 8.33668C16.973 7.99266 16.8689 7.69286 16.7163 7.44111L17.6365 6.69733C18.5149 5.98736 18.3249 4.60286 17.2874 4.15362L12.6015 2.1246ZM8.96642 6.22169C9.80966 5.90985 10.8753 5.73833 12 5.73833C13.1247 5.73833 14.1904 5.90984 15.0336 6.22167L15.7265 5.66164L12 4.04804L8.2735 5.66164L8.96642 6.22169ZM9.19019 10.5294C9.18721 10.5823 9.1857 10.6356 9.1857 10.6893C9.1857 12.2371 10.4457 13.4917 12 13.4917C13.5543 13.4917 14.8144 12.2371 14.8144 10.6893C14.8144 10.6356 14.8128 10.5823 14.8099 10.5294C14.0056 10.7919 13.0274 10.935 12 10.935C10.9726 10.935 9.9945 10.7919 9.19019 10.5294ZM14.8275 8.33668C14.7348 8.27628 14.6044 8.20663 14.4285 8.13584C13.8574 7.90596 12.9993 7.74108 12 7.74108C11.0008 7.74108 10.1426 7.90596 9.57154 8.13584C9.39569 8.20663 9.26526 8.27628 9.17259 8.33668C9.26526 8.39709 9.39569 8.46674 9.57154 8.53753C10.1426 8.76741 11.0008 8.93229 12 8.93229C12.9993 8.93229 13.8574 8.76741 14.4285 8.53753C14.6044 8.46674 14.7348 8.39709 14.8275 8.33668Z" fill="#0D151F"/>
<path fill-rule="evenodd" clip-rule="evenodd" d="M13.7959 20.059C13.7959 19.5059 14.2461 19.0576 14.8015 19.0576H16.4451C17.0005 19.0576 17.4507 19.5059 17.4507 20.059C17.4507 20.612 17.0005 21.0604 16.4451 21.0604H14.8015C14.2461 21.0604 13.7959 20.612 13.7959 20.059Z" fill="#0D151F"/>
</svg>
