<svg width="24" height="24" viewBox="0 0 24 24" fill="none" xmlns="http://www.w3.org/2000/svg">
<path fill-rule="evenodd" clip-rule="evenodd" d="M15.2172 2.08282C17.2224 2.43727 18.4256 3.81395 19.1003 5.08104C19.3939 5.63235 19.5981 6.17774 19.7387 6.64023H20.3345C20.8867 6.64023 21.3345 7.08795 21.3345 7.64023C21.3345 8.19251 20.8867 8.64023 20.3345 8.64023H19.9057V9.40222H22C22.5523 9.40222 23 9.84994 23 10.4022V21.9999C23 22.5522 22.5523 22.9999 22 22.9999H4.72887C4.17659 22.9999 3.72887 22.5522 3.72887 21.9999V6.66198C3.72887 6.05793 3.49263 5.47783 3.07062 5.04564L1.28451 3.21642C0.898673 2.82127 0.906222 2.18815 1.30137 1.80231C1.69653 1.41647 2.32965 1.42402 2.71549 1.81917L4.5016 3.64839C5.28841 4.45419 5.72887 5.53575 5.72887 6.66198V9.40222H8.48761V8.64023H8.1001C7.54781 8.64023 7.1001 8.19251 7.1001 7.64023C7.1001 7.08795 7.54781 6.64023 8.1001 6.64023H8.6546C8.79522 6.17774 8.99941 5.63235 9.293 5.08105C9.97237 3.80532 11.1874 2.4185 13.2172 2.07571V2C13.2172 1.44772 13.6649 1 14.2172 1C14.7695 1 15.2172 1.44772 15.2172 2V2.08282ZM10.1444 9.40222V8.64023H18.2489V9.40222H10.1444ZM11.0583 6.02112C10.9478 6.22855 10.853 6.43747 10.772 6.64023H17.6214C17.5403 6.43747 17.4455 6.22855 17.335 6.02112C16.7566 4.93482 15.8242 3.99582 14.1967 3.99582C12.5691 3.99582 11.6368 4.93483 11.0583 6.02112ZM5.72887 11.4022V20.9999H10.3887V15.1947C10.3887 14.6424 10.8364 14.1947 11.3887 14.1947C11.941 14.1947 12.3887 14.6424 12.3887 15.1947V20.9999H13.7186V15.1947C13.7186 14.6424 14.1663 14.1947 14.7186 14.1947C15.2709 14.1947 15.7186 14.6424 15.7186 15.1947V20.9999H17.0485V15.1947C17.0485 14.6424 17.4963 14.1947 18.0485 14.1947C18.6008 14.1947 19.0485 14.6424 19.0485 15.1947V20.9999H21V11.4022H5.72887Z" fill="#0D151F"/>
</svg>
