<svg width="24" height="24" viewBox="0 0 24 24" fill="none" xmlns="http://www.w3.org/2000/svg">
<path fill-rule="evenodd" clip-rule="evenodd" d="M12.9991 2.13805C13.4774 1.86191 14.089 2.02578 14.3651 2.50407L14.5997 2.9104L15.006 2.67583C15.4843 2.39969 16.0959 2.56357 16.372 3.04186C16.6482 3.52015 16.4843 4.13174 16.006 4.40788L15.5997 4.64245L15.8343 5.04874C16.1104 5.52703 15.9465 6.13862 15.4682 6.41476C14.99 6.69091 14.3784 6.52703 14.1022 6.04874L13.8676 5.64245L13.4613 5.87705C12.983 6.15319 12.3714 5.98931 12.0953 5.51102C11.8192 5.03273 11.983 4.42114 12.4613 4.145L12.8677 3.9104L12.6331 3.50407C12.3569 3.02578 12.5208 2.41419 12.9991 2.13805ZM17.991 5.62611C18.4702 5.35152 19.0813 5.51739 19.3559 5.99657L19.7717 6.72235L20.4975 6.3065C20.9766 6.03191 21.5877 6.19778 21.8623 6.67696C22.1369 7.15615 21.971 7.76721 21.4918 8.04179L20.7661 8.45764L21.1819 9.18336C21.4565 9.66255 21.2907 10.2736 20.8115 10.5482C20.3323 10.8228 19.7212 10.6569 19.4467 10.1777L19.0308 9.452L18.305 9.86789C17.8258 10.1425 17.2148 9.97661 16.9402 9.49742C16.6656 9.01823 16.8315 8.40718 17.3107 8.13259L18.0364 7.71671L17.6206 6.99093C17.346 6.51175 17.5118 5.90069 17.991 5.62611ZM2.55335 7.70575C2.68781 6.71411 3.5345 5.97448 4.53521 5.97448H9.40038C10.1637 5.97448 10.8604 6.40894 11.1963 7.09436L12.6954 10.1533L19.2332 12.2239C20.8956 12.7504 22.0254 14.2933 22.0254 16.0372V20.4715C22.0254 21.3 21.3538 21.9715 20.5254 21.9715H3.51724C2.69844 21.9715 2.03092 21.3149 2.01744 20.4962L1.97474 17.9038C1.97461 17.8956 1.97458 17.8873 1.97464 17.8791L2.02545 11.6585C2.02579 11.6163 2.02881 11.5742 2.03448 11.5323L2.55335 7.70575ZM10.8525 10.9375L9.40038 7.97448L4.53522 7.97448L4.02486 11.7382L3.98281 16.8873H20.0254V16.0372C20.0254 15.1653 19.4605 14.3938 18.6293 14.1305L15.4462 13.1224L14.8067 14.496C14.5735 14.9967 13.9787 15.2136 13.478 14.9805C12.9773 14.7474 12.7604 14.1525 12.9936 13.6518L13.5236 12.5135L12.4479 12.1728L11.6416 13.5614C11.3642 14.039 10.7522 14.2014 10.2746 13.9241C9.79703 13.6467 9.63468 13.0347 9.91201 12.5571L10.8525 10.9375ZM20.0254 18.8873H3.99121L4.00907 19.9715H20.0254V18.8873Z" fill="#0D151F"/>
</svg>
