<svg width="24" height="24" viewBox="0 0 24 24" fill="none" xmlns="http://www.w3.org/2000/svg">
<path fill-rule="evenodd" clip-rule="evenodd" d="M1.10815 2.24878C1.10815 1.69649 1.55587 1.24878 2.10815 1.24878H3.04674C3.72991 1.24981 4.38944 1.499 4.90261 1.94997C5.41324 2.3987 5.74435 3.01681 5.83513 3.69027L6.03789 5.04356H20.9971C21.2991 5.04356 21.5849 5.18003 21.7748 5.41488C21.9646 5.64973 22.0382 5.9578 21.9749 6.25309L20.4493 13.3726C20.3191 14.0181 19.967 14.5976 19.454 15.0106C18.9416 15.4231 18.3011 15.6433 17.6436 15.6331H8.04822C7.36188 15.6378 6.69738 15.3918 6.17948 14.9412C5.66296 14.4919 5.32779 13.8699 5.23639 13.1916L3.85599 3.97854L3.85344 3.96036C3.82766 3.76375 3.73134 3.5832 3.58238 3.4523C3.43358 3.32154 3.24239 3.24922 3.04431 3.24878H2.10815C1.55587 3.24878 1.10815 2.80106 1.10815 2.24878ZM6.33755 7.04356L7.21553 12.9034L7.21809 12.9216C7.24404 13.1196 7.34155 13.3013 7.49221 13.4323C7.64288 13.5634 7.8363 13.6349 8.036 13.6332L8.04448 13.6331L17.6521 13.6331L17.6713 13.6333C17.8632 13.637 18.0503 13.573 18.1999 13.4527C18.3494 13.3323 18.4518 13.1632 18.4892 12.9749L18.4923 12.9602L19.7601 7.04356H6.33755ZM7.36205 18.3639C6.91067 18.3639 6.54475 18.7298 6.54475 19.1812C6.54475 19.6326 6.91067 19.9985 7.36205 19.9985C7.81344 19.9985 8.17936 19.6326 8.17936 19.1812C8.17936 18.7298 7.81344 18.3639 7.36205 18.3639ZM4.54475 19.1812C4.54475 17.6252 5.8061 16.3639 7.36205 16.3639C8.91801 16.3639 10.1794 17.6252 10.1794 19.1812C10.1794 20.7372 8.91801 21.9985 7.36205 21.9985C5.8061 21.9985 4.54475 20.7372 4.54475 19.1812ZM18.27 18.3639C17.8186 18.3639 17.4527 18.7298 17.4527 19.1812C17.4527 19.6326 17.8186 19.9985 18.27 19.9985C18.7214 19.9985 19.0873 19.6326 19.0873 19.1812C19.0873 18.7298 18.7214 18.3639 18.27 18.3639ZM15.4527 19.1812C15.4527 17.6252 16.7141 16.3639 18.27 16.3639C19.826 16.3639 21.0873 17.6252 21.0873 19.1812C21.0873 20.7372 19.826 21.9985 18.27 21.9985C16.7141 21.9985 15.4527 20.7372 15.4527 19.1812Z" fill="#0D151F"/>
</svg>
