<svg width="24" height="24" viewBox="0 0 24 24" fill="none" xmlns="http://www.w3.org/2000/svg">
<path fill-rule="evenodd" clip-rule="evenodd" d="M5.1462 4.14645C5.05243 4.24021 4.99976 4.36739 4.99976 4.5V22H2.99976V4.5C2.99976 3.83696 3.26315 3.20107 3.73199 2.73223C4.20083 2.26339 4.83671 2 5.49976 2H12.5021C13.1651 2 13.801 2.26339 14.2699 2.73223C14.7387 3.20107 15.0021 3.83696 15.0021 4.5V5.87607C17.1501 6.28533 18.8967 7.98756 19.5593 10.2299C19.7453 10.8595 19.8459 11.5317 19.8459 12.2299H8.15431C8.15431 11.5317 8.25489 10.8595 8.44095 10.2299C9.10395 7.98617 10.8523 6.28321 13.0021 5.87531V4.5C13.0021 4.36739 12.9494 4.24021 12.8557 4.14645C12.7619 4.05268 12.6347 4 12.5021 4H5.49976C5.36715 4 5.23997 4.05268 5.1462 4.14645ZM10.5595 10.2299C11.2208 8.71734 12.5995 7.78172 14.0001 7.78172C15.4007 7.78172 16.7794 8.71734 17.4407 10.2299H10.5595Z" fill="#0D151F"/>
<path d="M16.0001 16C16.5524 16 17.0001 15.5523 17.0001 15C17.0001 14.4477 16.5524 14 16.0001 14C15.4478 14 15.0001 14.4477 15.0001 15C15.0001 15.5523 15.4478 16 16.0001 16Z" fill="#0D151F"/>
<path d="M13.0001 15C13.0001 15.5523 12.5524 16 12.0001 16C11.4478 16 11.0001 15.5523 11.0001 15C11.0001 14.4477 11.4478 14 12.0001 14C12.5524 14 13.0001 14.4477 13.0001 15Z" fill="#0D151F"/>
<path d="M18.0001 19C18.5524 19 19.0001 18.5523 19.0001 18C19.0001 17.4477 18.5524 17 18.0001 17C17.4478 17 17.0001 17.4477 17.0001 18C17.0001 18.5523 17.4478 19 18.0001 19Z" fill="#0D151F"/>
<path d="M17.0001 21C17.0001 21.5523 16.5524 22 16.0001 22C15.4478 22 15.0001 21.5523 15.0001 21C15.0001 20.4477 15.4478 20 16.0001 20C16.5524 20 17.0001 20.4477 17.0001 21Z" fill="#0D151F"/>
<path d="M20.0001 22C20.5524 22 21.0001 21.5523 21.0001 21C21.0001 20.4477 20.5524 20 20.0001 20C19.4478 20 19.0001 20.4477 19.0001 21C19.0001 21.5523 19.4478 22 20.0001 22Z" fill="#0D151F"/>
<path d="M15.0001 18C15.0001 18.5523 14.5524 19 14.0001 19C13.4478 19 13.0001 18.5523 13.0001 18C13.0001 17.4477 13.4478 17 14.0001 17C14.5524 17 15.0001 17.4477 15.0001 18Z" fill="#0D151F"/>
<path d="M12.0001 22C12.5524 22 13.0001 21.5523 13.0001 21C13.0001 20.4477 12.5524 20 12.0001 20C11.4478 20 11.0001 20.4477 11.0001 21C11.0001 21.5523 11.4478 22 12.0001 22Z" fill="#0D151F"/>
<path d="M11.0001 18C11.0001 18.5523 10.5524 19 10.0001 19C9.44784 19 9.00013 18.5523 9.00013 18C9.00013 17.4477 9.44784 17 10.0001 17C10.5524 17 11.0001 17.4477 11.0001 18Z" fill="#0D151F"/>
<path d="M8.00013 22C8.55241 22 9.00013 21.5523 9.00013 21C9.00013 20.4477 8.55241 20 8.00013 20C7.44784 20 7.00013 20.4477 7.00013 21C7.00013 21.5523 7.44784 22 8.00013 22Z" fill="#0D151F"/>
</svg>
