<svg width="24" height="24" viewBox="0 0 24 24" fill="none" xmlns="http://www.w3.org/2000/svg">
<path d="M21.9482 15.6836L19 6.83789V3C19.0001 2.86866 18.9743 2.73859 18.924 2.61723C18.8738 2.49587 18.8001 2.3856 18.7073 2.29273C18.6144 2.19985 18.5041 2.1262 18.3828 2.07597C18.2614 2.02574 18.1313 1.99993 18 2H6C5.86866 1.99993 5.73859 2.02574 5.61723 2.07597C5.49587 2.1262 5.3856 2.19985 5.29273 2.29273C5.19985 2.3856 5.1262 2.49587 5.07597 2.61723C5.02574 2.73859 4.99993 2.86866 5 3V6.83789L2.05176 15.6836C2.01759 15.7856 2.00011 15.8924 2 16V21C1.99993 21.1313 2.02574 21.2614 2.07597 21.3828C2.1262 21.5041 2.19985 21.6144 2.29273 21.7073C2.3856 21.8001 2.49587 21.8738 2.61723 21.924C2.73859 21.9743 2.86866 22.0001 3 22H21C21.1313 22.0001 21.2614 21.9743 21.3828 21.924C21.5041 21.8738 21.6144 21.8001 21.7073 21.7073C21.8001 21.6144 21.8738 21.5041 21.924 21.3828C21.9743 21.2614 22.0001 21.1313 22 21V16C21.9999 15.8924 21.9824 15.7856 21.9482 15.6836ZM19.6127 15H4.38733L6.7204 8H17.2796L19.6127 15ZM17 4V6H7V4H17ZM20 20H4V17H20V20Z" fill="#0D151F"/>
</svg>
