<svg width="24" height="24" viewBox="0 0 24 24" fill="none" xmlns="http://www.w3.org/2000/svg">
<path fill-rule="evenodd" clip-rule="evenodd" d="M4.04256 3.79671C4.04256 2.80495 4.84653 2.00098 5.83829 2.00098H11.1832C12.1749 2.00098 12.9789 2.80495 12.9789 3.79671V10.1799C14.0174 10.2301 15.3092 10.3942 16.4454 10.9221C17.1882 11.2671 17.8974 11.7821 18.4175 12.5486C18.9413 13.3204 19.2272 14.2797 19.2272 15.4327V16.5625C19.2272 17.5543 18.4232 18.3583 17.4315 18.3583H16.0106V19.9979H18.5455C19.3493 19.9979 20.0007 19.3456 19.9994 18.5417C19.9985 17.9894 20.4455 17.541 20.9978 17.5401C21.5501 17.5393 21.9985 17.9863 21.9994 18.5386C22.0024 20.4482 20.4551 21.9979 18.5455 21.9979H4.26392C3.71163 21.9979 3.26392 21.5502 3.26392 20.9979C3.26392 20.4456 3.71163 19.9979 4.26392 19.9979H7.17361V18.3583H5.83829C4.84653 18.3583 4.04256 17.5543 4.04256 16.5626V3.79671ZM9.17361 18.3583L11.8047 18.3583C11.8071 18.3583 11.8095 18.3583 11.8119 18.3583L14.0106 18.3583V19.9979H9.17361V18.3583ZM11.7872 16.3583L6.04256 16.3583V4.00098H10.9789V4.92897H9.92975C9.37746 4.92897 8.92975 5.37668 8.92975 5.92897C8.92975 6.48125 9.37746 6.92897 9.92975 6.92897H10.9789V7.65802H9.92975C9.37746 7.65802 8.92975 8.10574 8.92975 8.65802C8.92975 9.21031 9.37746 9.65802 9.92975 9.65802H10.9789V10.9583C10.9789 11.6221 11.5154 12.1541 12.1713 12.159C13.254 12.1671 14.5754 12.2586 15.6027 12.7359C16.0984 12.9662 16.4907 13.271 16.7626 13.6716C17.0308 14.0668 17.2272 14.6217 17.2272 15.4327V16.3583H11.7941C11.7918 16.3583 11.7895 16.3583 11.7872 16.3583Z" fill="#0D151F"/>
</svg>
