<svg width="24" height="24" viewBox="0 0 24 24" fill="none" xmlns="http://www.w3.org/2000/svg">
<path fill-rule="evenodd" clip-rule="evenodd" d="M12 4.02686C10.7549 4.02686 9.17089 4.13421 7.80637 4.25285C7.04794 4.31879 6.40886 4.781 6.08208 5.43482H17.9179C17.5911 4.781 16.9521 4.31879 16.1936 4.25285C14.8291 4.13421 13.2451 4.02686 12 4.02686ZM18.1519 7.43482H5.84814V10.6352H18.1519V7.43482ZM18.1519 12.6352H5.84814V16.6107C5.84814 16.9923 5.99136 17.356 6.24332 17.6333H17.7567C18.0086 17.356 18.1519 16.9923 18.1519 16.6107V12.6352ZM15.6016 19.6333H8.39841V20.7955C8.39841 21.4582 7.86115 21.9955 7.19841 21.9955H6.06455C5.40181 21.9955 4.86455 21.4582 4.86455 20.7955V19.0854C4.21833 18.4315 3.84814 17.5441 3.84814 16.6107V6.43482C3.84814 4.2874 5.4572 2.44955 7.63313 2.26037C9.01114 2.14055 10.6653 2.02686 12 2.02686C13.3347 2.02686 14.9889 2.14055 16.3669 2.26037C18.5428 2.44955 20.1519 4.2874 20.1519 6.43482V16.6107C20.1519 17.5441 19.7817 18.4315 19.1354 19.0854V20.7955C19.1354 21.4582 18.5982 21.9955 17.9354 21.9955H16.8016C16.1389 21.9955 15.6016 21.4582 15.6016 20.7955V19.6333ZM7.03076 15.0336C7.03076 14.0841 7.80049 13.3144 8.75 13.3144C9.69951 13.3144 10.4692 14.0841 10.4692 15.0336C10.4692 15.9831 9.69951 16.7529 8.75 16.7529C7.80049 16.7529 7.03076 15.9831 7.03076 15.0336ZM8.75 15.3144C8.90506 15.3144 9.03076 15.1887 9.03076 15.0336C9.03076 14.8786 8.90506 14.7529 8.75 14.7529C8.59494 14.7529 8.46924 14.8786 8.46924 15.0336C8.46924 15.1887 8.59494 15.3144 8.75 15.3144ZM13.5308 15.0336C13.5308 14.0841 14.3005 13.3144 15.25 13.3144C16.1995 13.3144 16.9692 14.0841 16.9692 15.0336C16.9692 15.9831 16.1995 16.7529 15.25 16.7529C14.3005 16.7529 13.5308 15.9831 13.5308 15.0336ZM15.25 15.3144C15.4051 15.3144 15.5308 15.1887 15.5308 15.0336C15.5308 14.8786 15.4051 14.7529 15.25 14.7529C15.0949 14.7529 14.9692 14.8786 14.9692 15.0336C14.9692 15.1887 15.0949 15.3144 15.25 15.3144Z" fill="#0D151F"/>
</svg>
