<svg width="24" height="24" viewBox="0 0 24 24" fill="none" xmlns="http://www.w3.org/2000/svg">
<path fill-rule="evenodd" clip-rule="evenodd" d="M18.5106 4.02637C18.2181 4.02637 17.981 4.26345 17.981 4.55591C17.981 4.84837 18.2181 5.08546 18.5106 5.08546C18.803 5.08546 19.0401 4.84837 19.0401 4.55591C19.0401 4.26345 18.803 4.02637 18.5106 4.02637ZM15.981 4.55591C15.981 3.15888 17.1135 2.02637 18.5106 2.02637C19.9076 2.02637 21.0401 3.15888 21.0401 4.55591C21.0401 5.95294 19.9076 7.08546 18.5106 7.08546C17.1135 7.08546 15.981 5.95294 15.981 4.55591ZM4.32851 4.42341C4.6022 3.94371 5.21295 3.77671 5.69265 4.0504L10.6057 6.85358L12.7807 5.48566C13.857 4.80874 15.2835 5.2948 15.7225 6.48807L16.5398 8.70953L17.4304 10.7664L21.109 12.938C21.5846 13.2188 21.7425 13.832 21.4618 14.3075C21.181 14.7831 20.5679 14.9411 20.0923 14.6603L16.4137 12.4887C16.0496 12.2737 15.763 11.949 15.5951 11.5611L14.964 10.1037L12.8317 11.5111L13.5348 12.007C14.5285 12.7079 14.672 14.1261 13.8388 15.0118L11.6145 17.3761L15.1655 19.346C15.9076 19.7576 16.7423 19.9736 17.5909 19.9736H18.8045C19.3568 19.9736 19.8045 20.4214 19.8045 20.9736C19.8045 21.5259 19.3568 21.9736 18.8045 21.9736H17.5909C16.4028 21.9736 15.2343 21.6712 14.1953 21.0949L2.91439 14.8371C2.43144 14.5692 2.2571 13.9605 2.52501 13.4776C2.79291 12.9946 3.4016 12.8203 3.88456 13.0882L9.81013 16.3752L12.3821 13.6414L7.63996 10.2967C7.36416 10.1021 7.20509 9.78162 7.21696 9.44433C7.22882 9.10704 7.41002 8.79849 7.69881 8.62382L8.65694 8.04432L4.70152 5.78755C4.22182 5.51385 4.05482 4.90311 4.32851 4.42341ZM11.0929 10.2624L14.2206 8.19806L13.8455 7.17866L11.1632 8.86567L11.1483 8.87484L10.0517 9.5381L11.0929 10.2624Z" fill="#0D151F"/>
</svg>
