<svg width="24" height="24" viewBox="0 0 24 24" fill="none" xmlns="http://www.w3.org/2000/svg">
<path d="M16.6948 3.01538C19.3193 2.78703 21.6087 4.79581 21.6939 7.4685L21.9985 17.0554L21.9995 17.2361C21.9707 19.1036 20.577 20.7009 18.7134 20.9646L18.5347 20.9861C16.7399 21.1536 15.0922 20.0168 14.6148 18.281L14.5708 18.1062L12.4761 8.77319C11.873 6.08727 13.7107 3.43116 16.44 3.04467L16.6948 3.01538ZM18.2808 11.6765C17.8657 11.342 17.2639 11.4026 16.9116 11.7966L16.8443 11.8796L15.6089 13.5886L16.5191 17.6404C16.7186 18.5277 17.5596 19.1074 18.4614 18.9802C19.3636 18.8526 20.0322 18.0591 20.0034 17.1472L19.8696 12.9578L18.2808 11.6765ZM16.6919 5.02905C15.1302 5.2503 14.0782 6.7704 14.4234 8.30737L15.0278 11.0017L15.2339 10.7185L15.3325 10.5896C15.6057 10.2501 15.9381 9.98546 16.3023 9.79663L16.0894 8.11108L16.0816 8.00854C16.0689 7.50117 16.442 7.0518 16.9546 6.97924C17.4671 6.90693 17.9381 7.23729 18.0523 7.73022L18.0698 7.83081L18.2837 9.51635C18.7314 9.60713 19.1642 9.80142 19.5444 10.1081L19.7847 10.3015L19.6978 7.56127L19.689 7.41284C19.5597 5.90928 18.2047 4.81505 16.6919 5.02905Z" fill="#0D151F"/>
<path d="M7.30504 3.01538C4.68058 2.78703 2.39119 4.79581 2.30602 7.4685L2.00133 17.0554L2.00035 17.2361C2.02919 19.1036 3.42287 20.7009 5.28649 20.9646L5.4652 20.9861C7.25998 21.1536 8.90768 20.0168 9.38512 18.281L9.42906 18.1062L11.5238 8.77319C12.1269 6.08727 10.2892 3.43116 7.55992 3.04467L7.30504 3.01538ZM5.7191 11.6765C6.13413 11.342 6.73602 11.4026 7.08824 11.7966L7.15563 11.8796L8.39098 13.5876L7.48082 17.6404C7.28123 18.5277 6.44023 19.1074 5.53844 18.9802C4.63626 18.8526 3.96771 18.0591 3.99645 17.1472L4.13024 12.9578L5.7191 11.6765ZM4.30211 7.56127C4.35229 5.98245 5.74605 4.8081 7.30797 5.02905C8.86968 5.2503 9.92166 6.7704 9.57653 8.30737L8.97203 11.0017L8.76598 10.7175L8.66735 10.5896C8.39416 10.2501 8.06173 9.98548 7.69762 9.79663L7.91051 8.11108L7.91832 8.00854C7.93102 7.50116 7.5579 7.0518 7.04528 6.97924C6.53295 6.90695 6.06194 7.23657 5.94762 7.72924L5.93004 7.83081L5.71617 9.51635C5.2685 9.60713 4.8357 9.80141 4.45543 10.1081L4.2152 10.3015L4.30211 7.56127Z" fill="#0D151F"/>
</svg>
