<svg width="24" height="24" viewBox="0 0 24 24" fill="none" xmlns="http://www.w3.org/2000/svg">
<path d="M14.9917 22.1355H4.00439C2.90219 22.1355 2.0083 21.2304 2.0083 20.114C2.00832 18.9976 2.9022 18.0925 4.00439 18.0925H14.9917V22.1355ZM18.7144 22.1355H16.2837V18.0925H18.7144V22.1355ZM21.9575 22.1355H19.5259V18.0925H21.9575V22.1355ZM16.9312 2.14231C19.1878 2.40731 20.8457 3.94773 21.1226 5.86789C21.3257 7.277 20.7629 8.64939 19.5103 9.66282C20.8433 10.5427 22.0083 12.2962 22.0083 15.6364C22.0081 16.1945 21.5612 16.6472 21.0103 16.6472C20.4594 16.6471 20.0124 16.1944 20.0122 15.6364C20.0122 12.6713 18.9695 11.6655 18.2808 11.2693C17.8931 11.0463 17.5189 10.9603 17.2544 10.9118C17.2205 10.9056 17.1881 10.8999 17.1558 10.8943L17.1489 10.8923C17.1203 10.8873 17.0876 10.8821 17.0581 10.8767C17.0572 10.8765 17.0559 10.876 17.0542 10.8757C17.023 10.8703 16.8641 10.8425 16.7192 10.7761C16.6698 10.7534 16.5717 10.705 16.4692 10.6159C16.3668 10.5268 16.1943 10.3389 16.1353 10.0378C16.0723 9.71634 16.1736 9.45071 16.2749 9.28977C16.3662 9.14482 16.472 9.05701 16.5239 9.01731C16.6286 8.93733 16.7299 8.89234 16.7651 8.87668C16.8145 8.85476 16.8629 8.83604 16.9019 8.822C18.8497 8.12062 19.2625 6.95416 19.1479 6.15989C19.0217 5.28447 18.2042 4.32656 16.7007 4.15012C16.1534 4.08571 15.7613 3.58438 15.8247 3.03C15.8881 2.4755 16.3837 2.07807 16.9312 2.14231ZM14.1831 5.905C14.7342 5.905 15.1812 6.35754 15.1812 6.91575C15.1809 7.47377 14.7341 7.92649 14.1831 7.92649C12.2727 7.92662 11.5031 8.99766 11.4106 9.82004C11.3614 10.2584 11.4855 10.677 11.7632 10.9939C12.0353 11.3044 12.5248 11.5942 13.3442 11.6325C15.1896 11.7189 16.4374 12.3022 17.1577 13.2185C17.8668 14.1205 17.9221 15.1684 17.7446 15.8825C17.61 16.4238 17.0681 16.7523 16.5337 16.6159C15.9993 16.4796 15.6755 15.9307 15.8101 15.3894C15.8644 15.1708 15.8496 14.7997 15.5962 14.4773C15.3537 14.169 14.7455 13.7219 13.2515 13.6521C11.9833 13.5927 10.9547 13.1172 10.27 12.3357C9.59102 11.5605 9.31939 10.5603 9.42822 9.59153C9.65209 7.59933 11.4125 5.90515 14.1831 5.905Z" fill="#0D151F"/>
</svg>
