<svg width="24" height="24" viewBox="0 0 24 24" fill="none" xmlns="http://www.w3.org/2000/svg">
<path fill-rule="evenodd" clip-rule="evenodd" d="M2 3.85522C2 3.30294 2.44772 2.85522 3 2.85522H21.0004C21.5527 2.85522 22.0004 3.30294 22.0004 3.85522C22.0004 4.40751 21.5527 4.85522 21.0004 4.85522H19.328V7.8111C19.328 9.46796 17.9849 10.8111 16.328 10.8111H7.94313C6.28628 10.8111 4.94313 9.46795 4.94313 7.8111V4.85522H3C2.44772 4.85522 2 4.40751 2 3.85522ZM6.94313 4.85522V7.8111C6.94313 8.36339 7.39085 8.8111 7.94313 8.8111H16.328C16.8803 8.8111 17.328 8.36339 17.328 7.8111V4.85522H6.94313ZM7.11687 13.2803C7.66916 13.2803 8.11687 13.728 8.11687 14.2803V16.213C8.11687 17.0685 7.75167 17.8833 7.11309 18.4525L6.05587 19.3949C5.84301 19.5846 5.72128 19.8562 5.72128 20.1414V20.9793C5.72128 21.5316 5.27356 21.9793 4.72128 21.9793C4.16899 21.9793 3.72128 21.5316 3.72128 20.9793V20.1414C3.72128 19.2859 4.08648 18.4711 4.72506 17.9019L5.78228 16.9595C5.99514 16.7698 6.11687 16.4982 6.11687 16.213V14.2803C6.11687 13.728 6.56459 13.2803 7.11687 13.2803ZM12.7621 13.2803C13.3144 13.2803 13.7621 13.728 13.7621 14.2803V16.213C13.7621 17.0685 13.3969 17.8833 12.7583 18.4525L11.7011 19.3949C11.4883 19.5846 11.3665 19.8562 11.3665 20.1414V20.9793C11.3665 21.5316 10.9188 21.9793 10.3665 21.9793C9.81423 21.9793 9.36652 21.5316 9.36652 20.9793V20.1414C9.36652 19.2859 9.73172 18.4711 10.3703 17.9019L11.4275 16.9595C11.6404 16.7698 11.7621 16.4982 11.7621 16.213V14.2803C11.7621 13.728 12.2098 13.2803 12.7621 13.2803ZM18.4071 13.2803C18.9594 13.2803 19.4071 13.728 19.4071 14.2803V16.213C19.4071 17.0685 19.0419 17.8833 18.4033 18.4525L17.3461 19.3949C17.1333 19.5846 17.0115 19.8562 17.0115 20.1414V20.9793C17.0115 21.5316 16.5638 21.9793 16.0115 21.9793C15.4592 21.9793 15.0115 21.5316 15.0115 20.9793V20.1414C15.0115 19.2859 15.3767 18.4711 16.0153 17.9019L17.0725 16.9595C17.2854 16.7698 17.4071 16.4982 17.4071 16.213L17.4071 14.2803C17.4071 13.728 17.8548 13.2803 18.4071 13.2803Z" fill="#0D151F"/>
</svg>
