<svg width="24" height="24" viewBox="0 0 24 24" fill="none" xmlns="http://www.w3.org/2000/svg">
<path fill-rule="evenodd" clip-rule="evenodd" d="M2.58579 8.58579C2.96086 8.21071 3.46957 8 4 8H16C16.5304 8 17.0391 8.21071 17.4142 8.58579C17.7893 8.96086 18 9.46957 18 10V14.5C18 15.4283 17.6313 16.3185 16.9749 16.9749C16.3185 17.6313 15.4283 18 14.5 18H14C13.2043 18 12.4413 17.6839 11.8787 17.1213C11.3161 16.5587 11 15.7957 11 15C11 14.7348 10.8946 14.4804 10.7071 14.2929C10.5196 14.1054 10.2652 14 10 14C9.73478 14 9.48043 14.1054 9.29289 14.2929C9.10536 14.4804 9 14.7348 9 15C9 15.7956 8.68393 16.5587 8.12132 17.1213C7.55871 17.6839 6.79565 18 6 18H5.5C4.57174 18 3.6815 17.6313 3.02513 16.9749C2.36875 16.3185 2 15.4283 2 14.5V10C2 9.46957 2.21071 8.96086 2.58579 8.58579ZM16 10H4V14.5C4 14.8978 4.15804 15.2794 4.43934 15.5607C4.72064 15.842 5.10218 16 5.5 16H6C6.26522 16 6.51957 15.8946 6.70711 15.7071C6.89464 15.5196 7 15.2652 7 15C7 14.2043 7.31607 13.4413 7.87868 12.8787C8.44129 12.3161 9.20435 12 10 12C10.7957 12 11.5587 12.3161 12.1213 12.8787C12.6839 13.4413 13 14.2043 13 15C13 15.2652 13.1054 15.5196 13.2929 15.7071C13.4804 15.8946 13.7348 16 14 16H14.5C14.8978 16 15.2794 15.842 15.5607 15.5607C15.842 15.2794 16 14.8978 16 14.5L16 10Z" fill="#0D151F"/>
<path fill-rule="evenodd" clip-rule="evenodd" d="M21 2C21.5523 2 22 2.44772 22 3V15.5C22 17.2239 21.3152 18.8772 20.0962 20.0962C18.8772 21.3152 17.2239 22 15.5 22H12C11.2043 22 10.4413 21.6839 9.87868 21.1213C9.31607 20.5587 9 19.7957 9 19C9 18.4477 9.44772 18 10 18C10.5523 18 11 18.4477 11 19C11 19.2652 11.1054 19.5196 11.2929 19.7071C11.4804 19.8946 11.7348 20 12 20H15.5C16.6935 20 17.8381 19.5259 18.682 18.682C19.5259 17.8381 20 16.6935 20 15.5V3C20 2.44772 20.4477 2 21 2Z" fill="#0D151F"/>
</svg>
