<svg width="24" height="24" viewBox="0 0 24 24" fill="none" xmlns="http://www.w3.org/2000/svg">
<path fill-rule="evenodd" clip-rule="evenodd" d="M9.86065 5.69775C9.86065 5.14547 10.3084 4.69775 10.8606 4.69775H13.3037C13.4955 4.69775 13.6845 4.74373 13.8549 4.83182L16.0578 5.97091C16.0675 5.97592 16.0771 5.98109 16.0866 5.98642L21.3381 8.92349C21.7899 9.17618 22.0288 9.69014 21.9306 10.1984L21.258 13.6799C21.1934 14.0142 20.9898 14.3054 20.698 14.4808L17.7456 16.2554C17.6948 16.2859 17.6421 16.3125 17.5878 16.335V17.0674H20.9183C21.109 17.0371 21.263 16.8927 21.3044 16.7023C21.4216 16.1626 21.9542 15.8201 22.4939 15.9373C23.0336 16.0545 23.3761 16.587 23.2588 17.1267C23.0315 18.1735 22.1556 18.9545 21.0898 19.061L21.0755 19.0624C21.0425 19.0657 21.0093 19.0674 20.9761 19.0674H13.7986C13.2463 19.0674 12.7986 18.6197 12.7986 18.0674C12.7986 17.5151 13.2463 17.0674 13.7986 17.0674H15.5878V16.4269H12.1277C12.0125 18.034 10.6722 19.302 9.03568 19.302H5.02445C3.38797 19.302 2.04766 18.034 1.93247 16.4269H1.91826C1.25552 16.4269 0.718262 15.8896 0.718262 15.2269V10.0668C0.718262 9.40408 1.25552 8.86682 1.91826 8.86682H12.3805L12.9761 8.22263L13.0478 8.14504L13.9729 7.14441L13.1091 6.69775H11.163H11.0945H10.8606C10.3084 6.69775 9.86065 6.25004 9.86065 5.69775ZM15.798 8.11652L19.8572 10.3868L19.3619 12.9503L19.3305 12.9692L19.0448 13.141L16.9055 14.4269H11.5774C11.017 13.6259 10.0875 13.102 9.03568 13.102H5.02445C4.10873 13.102 3.28575 13.4991 2.71826 14.1304V10.8668H12.7304C13.065 10.8668 13.3844 10.7271 13.6115 10.4814L14.5332 9.48456L14.6407 9.36819L15.798 8.11652ZM5.02445 15.102C4.41693 15.102 3.92444 15.5945 3.92444 16.202C3.92444 16.8096 4.41693 17.302 5.02445 17.302H9.03568C9.64321 17.302 10.1357 16.8096 10.1357 16.202C10.1357 15.5945 9.64321 15.102 9.03568 15.102H5.02445Z" fill="#0D151F"/>
</svg>
