<svg width="24" height="24" viewBox="0 0 24 24" fill="none" xmlns="http://www.w3.org/2000/svg">
<path fill-rule="evenodd" clip-rule="evenodd" d="M13.6668 3.45199C15.567 1.55181 18.6478 1.55181 20.5479 3.45199C22.4481 5.35216 22.4481 8.43296 20.5479 10.3331L10.3331 20.5479C8.43297 22.4481 5.35217 22.4481 3.45199 20.5479C1.55181 18.6478 1.55181 15.567 3.45199 13.6668L13.6668 3.45199ZM19.1337 4.8662C18.0146 3.74707 16.2001 3.74707 15.081 4.8662L4.8662 15.081C3.74707 16.2001 3.74707 18.0146 4.8662 19.1337C5.98533 20.2529 7.7998 20.2529 8.91893 19.1337L19.1337 8.91893C20.2529 7.7998 20.2529 5.98533 19.1337 4.8662ZM13.746 8.00581C14.2983 8.00581 14.746 8.45352 14.746 9.00581V11.5018C14.746 12.0541 14.2983 12.5018 13.746 12.5018C13.1937 12.5018 12.746 12.0541 12.746 11.5018V9.00581C12.746 8.45352 13.1937 8.00581 13.746 8.00581ZM10.454 11.2976C11.0063 11.2976 11.454 11.7454 11.454 12.2976V14.7937C11.454 15.346 11.0063 15.7937 10.454 15.7937C9.90172 15.7937 9.45401 15.346 9.45401 14.7937V12.2976C9.45401 11.7454 9.90172 11.2976 10.454 11.2976Z" fill="#0D151F"/>
</svg>
