<svg width="24" height="24" viewBox="0 0 24 24" fill="none" xmlns="http://www.w3.org/2000/svg">
<path fill-rule="evenodd" clip-rule="evenodd" d="M8.87277 3C6.82644 3 5.15366 4.67869 5.15366 6.73225V8.94134H5.12866L5.12156 8.94162C3.32366 9.01285 1.93421 10.5538 2.00477 12.3505C2.04906 13.5047 2.71287 14.553 3.72604 15.0912V16.9716C3.72604 17.9047 4.30124 18.7339 5.15366 19.0678V20.0055C5.15366 20.5594 5.58197 20.993 6.13235 20.9987C6.68668 21.0271 7.10111 20.5762 7.13263 20.0701L7.13333 20.0589V19.208H16.8685V19.9212C16.8685 20.4789 17.3027 20.9145 17.8584 20.9145H17.8696L17.8808 20.9138C18.3979 20.8814 18.8152 20.4626 18.8475 19.9437L18.8482 19.9325V19.0468C19.7006 18.7128 20.2758 17.8836 20.2758 16.9505V15.0695C21.7759 14.27 22.4129 12.4462 21.7149 10.8636C21.2187 9.72614 20.1096 8.96774 18.88 8.92027H18.8482V6.73225C18.8482 4.67869 17.1754 3 15.1291 3H8.87277ZM7.13333 6.73225C7.13333 5.773 7.9169 4.98666 8.87277 4.98666H15.1291C16.085 4.98666 16.8685 5.773 16.8685 6.73225V9.53062C16.7403 9.62184 16.6131 9.7259 16.4955 9.84335C16.2035 10.118 15.9759 10.4403 15.8126 10.7954H8.18931C8.026 10.4403 7.79842 10.118 7.50633 9.84334C7.38873 9.72589 7.26158 9.62184 7.13333 9.53062V6.73225ZM17.4836 14.9813V12.1933C17.5022 11.4581 18.0806 10.8906 18.7949 10.9069H18.8144C19.4602 10.9442 19.9759 11.4241 20.0406 12.0573C20.1058 12.6959 19.6807 13.2898 19.0569 13.4385C18.6246 13.5392 18.2962 13.935 18.2962 14.4012V16.9505C18.2962 17.1092 18.1844 17.2213 18.0263 17.2213H5.97554C5.81746 17.2213 5.70571 17.1092 5.70571 16.9505V14.4012C5.70571 13.935 5.37731 13.5393 4.94512 13.4385C4.25363 13.2727 3.8296 12.5991 3.97566 11.909C4.10592 11.3419 4.58848 10.9442 5.18828 10.9069H5.24073C5.5602 10.9069 5.87126 11.034 6.12425 11.269C6.37529 11.5231 6.5183 11.853 6.5183 12.189V14.9179C6.49073 15.4736 6.93978 15.889 7.44369 15.9206L7.4549 15.9213H16.4838C17.0375 15.9489 17.4514 15.4983 17.4829 14.9926L17.4836 14.9813ZM8.49796 13.9346V12.782H15.5039V13.9346H8.49796Z" fill="#0D151F"/>
</svg>
