<svg width="24" height="24" viewBox="0 0 24 24" fill="none" xmlns="http://www.w3.org/2000/svg">
<path fill-rule="evenodd" clip-rule="evenodd" d="M11.5627 4.14759C12.2839 3.5774 13.3449 4.09108 13.3449 5.0105V18.9896C13.3449 19.909 12.284 20.4227 11.5627 19.8525L6.72961 16.0315L6.72794 16.0302C6.64453 15.964 6.53959 15.9264 6.42986 15.9253H2.1C1.49248 15.9253 1 15.4328 1 14.8253V9.17481C1 8.5673 1.49249 8.07481 2.1 8.07481H6.42989C6.5396 8.07372 6.64454 8.03613 6.72794 7.9699L6.72961 7.96858L11.5627 4.14759ZM11.3449 6.86932L7.97165 9.53617L7.97065 9.53696C7.53474 9.88274 6.99507 10.0716 6.43927 10.0748L6.43353 10.0748L3 10.0748V13.9253H6.43927C6.99509 13.9285 7.53477 14.1174 7.97069 14.4632L7.97165 14.4639L11.3449 17.1308V6.86932ZM16.3498 8.82142C16.7404 8.43089 17.3735 8.43089 17.7641 8.82142L19.5285 10.5858L21.2929 8.82142C21.6834 8.43089 22.3166 8.43089 22.7071 8.82142C23.0976 9.21194 23.0976 9.84511 22.7071 10.2356L20.9427 12.0001L22.7071 13.7645C23.0976 14.155 23.0976 14.7882 22.7071 15.1787C22.3166 15.5692 21.6834 15.5692 21.2929 15.1787L19.5285 13.4143L17.7641 15.1787C17.3735 15.5692 16.7404 15.5692 16.3498 15.1787C15.9593 14.7882 15.9593 14.155 16.3498 13.7645L18.1143 12.0001L16.3498 10.2356C15.9593 9.84511 15.9593 9.21194 16.3498 8.82142Z" fill="#0D151F"/>
</svg>
