<svg width="24" height="24" viewBox="0 0 24 24" fill="none" xmlns="http://www.w3.org/2000/svg">
<path d="M11.2 21.9484C10.0333 21.7247 8.9 21.3376 7.8 20.7871C6.7 20.2366 5.721 19.471 4.863 18.4903C4.00433 17.5097 3.31267 16.2968 2.788 14.8516C2.26333 13.4065 2.00067 11.686 2 9.69032V9.48387C2 9.24301 2.075 9.04516 2.225 8.89032C2.375 8.73548 2.56667 8.65806 2.8 8.65806H3C3.85 8.65806 4.725 8.76989 5.625 8.99355C6.525 9.2172 7.36667 9.55269 8.15 10C8.33333 8.72688 8.7 7.41935 9.25 6.07742C9.8 4.73548 10.4583 3.52258 11.225 2.43871C11.425 2.14624 11.6833 2 12 2C12.3167 2 12.575 2.14624 12.775 2.43871C13.5417 3.52258 14.2 4.73548 14.75 6.07742C15.3 7.41935 15.6667 8.72688 15.85 10C16.6333 9.55269 17.475 9.2172 18.375 8.99355C19.275 8.76989 20.15 8.65806 21 8.65806H21.1C21.35 8.65806 21.5627 8.74856 21.738 8.92955C21.9133 9.11054 22.0007 9.32972 22 9.5871V9.69032C22 11.686 21.7373 13.4065 21.212 14.8516C20.6867 16.2968 19.995 17.5097 19.137 18.4903C18.279 19.471 17.3 20.2366 16.2 20.7871C15.1 21.3376 13.9667 21.7247 12.8 21.9484C12.5833 21.9828 12.3167 22 12 22C11.6833 22 11.4167 21.9828 11.2 21.9484ZM11.95 19.9613C11.7667 17.1226 10.9377 14.9676 9.463 13.4963C7.98833 12.0249 6.184 11.1176 4.05 10.7742C4.01667 10.7742 4.01667 10.7742 4.05 10.7742C4.23333 13.6817 5.08767 15.8667 6.613 17.329C8.13833 18.7914 9.91733 19.6688 11.95 19.9613C11.9833 19.9785 11.9833 19.983 11.95 19.9747C11.9167 19.9665 11.9167 19.962 11.95 19.9613ZM10.05 11.1871C10.3833 11.4796 10.7333 11.8278 11.1 12.2317C11.4667 12.6357 11.7667 13.0273 12 13.4065C12.25 13.028 12.5543 12.6364 12.913 12.2317C13.2717 11.8271 13.6173 11.4789 13.95 11.1871C13.9167 10.2065 13.7293 9.1828 13.388 8.11613C13.0467 7.04946 12.584 6.0086 12 4.99355C11.4167 6.0086 10.954 7.04946 10.612 8.11613C10.27 9.1828 10.0827 10.2065 10.05 11.1871ZM13.1 15.5742C13.3 16.1247 13.471 16.7269 13.613 17.3806C13.755 18.0344 13.8673 18.7398 13.95 19.4968C14.55 19.2903 15.1833 18.9806 15.85 18.5677C16.5167 18.1548 17.1333 17.6043 17.7 16.9161C18.2667 16.228 18.7583 15.3805 19.175 14.3737C19.5917 13.3669 19.85 12.1671 19.95 10.7742C19.95 10.7398 19.95 10.7398 19.95 10.7742C18.3833 11.0151 17.0083 11.5529 15.825 12.3876C14.6417 13.2224 13.7333 14.2846 13.1 15.5742Z" fill="#0D151F"/>
</svg>
