<svg width="24" height="24" viewBox="0 0 24 24" fill="none" xmlns="http://www.w3.org/2000/svg">
<path fill-rule="evenodd" clip-rule="evenodd" d="M2 5C2 3.34315 3.34315 2 5 2H19C20.6569 2 22 3.34315 22 5V19C22 20.6569 20.6569 22 19 22H5C3.34315 22 2 20.6569 2 19V5ZM5 4C4.44772 4 4 4.44772 4 5V19C4 19.5523 4.44772 20 5 20H19C19.5523 20 20 19.5523 20 19V5C20 4.44772 19.5523 4 19 4H5ZM5.16651 7.83333C5.16651 7.28105 5.61423 6.83333 6.16651 6.83333H10.4443C10.9966 6.83333 11.4443 7.28105 11.4443 7.83333C11.4443 8.38562 10.9966 8.83333 10.4443 8.83333H7.16651V10.8796H10.2451C10.7974 10.8796 11.2451 11.3274 11.2451 11.8796C11.2451 12.4319 10.7974 12.8796 10.2451 12.8796H7.16651V15.1667H10.4443C10.9966 15.1667 11.4443 15.6144 11.4443 16.1667C11.4443 16.719 10.9966 17.1667 10.4443 17.1667H6.16651C5.61423 17.1667 5.16651 16.719 5.16651 16.1667V7.83333ZM13.967 8.84017C14.4026 8.65698 14.8638 8.56938 15.3404 8.56938C16.0309 8.56938 16.6838 8.72907 17.2533 9.09377C17.5832 9.30503 17.8692 9.5775 18.0781 9.92067C18.3654 10.3924 18.2159 11.0076 17.7442 11.2949C17.2725 11.5821 16.6572 11.4326 16.37 10.9609C16.3417 10.9145 16.2876 10.8503 16.1747 10.778C15.9811 10.654 15.7182 10.5694 15.3404 10.5694C15.1142 10.5694 14.9191 10.6098 14.7448 10.6828C14.573 10.7564 14.4649 10.8426 14.392 10.9297C14.3548 10.9747 14.35 10.9986 14.35 11.0354V11.0479C14.35 11.0625 14.3507 11.0733 14.3516 11.0809C14.3746 11.1018 14.4242 11.1394 14.5209 11.1842C14.6895 11.2624 14.9298 11.3443 15.2576 11.4209L15.9809 11.5821C16.7378 11.7534 17.4196 12.0061 17.9291 12.3994C18.5534 12.8813 18.8332 13.5731 18.8332 14.3278V14.3403C18.8332 14.9193 18.6458 15.4525 18.2865 15.9052C17.9521 16.3279 17.5163 16.6374 17.0174 16.8503C16.5092 17.0671 15.9621 17.1666 15.3913 17.1666C14.8214 17.1666 14.2779 17.0846 13.7755 16.9006C13.2729 16.7165 12.8264 16.4365 12.4698 16.0437L12.4584 16.031C12.1016 15.6243 11.8799 15.1423 11.7912 14.6102C11.7005 14.0655 12.0685 13.5502 12.6133 13.4595C13.158 13.3687 13.6732 13.7367 13.764 14.2815C13.7935 14.4584 13.8583 14.5918 13.9562 14.7055C14.0656 14.8239 14.2241 14.9349 14.4634 15.0226C14.7071 15.1119 15.0115 15.1666 15.3913 15.1666C15.7276 15.1666 16.003 15.1087 16.2325 15.0108C16.4711 14.909 16.6203 14.7879 16.7182 14.6641L16.7195 14.6624C16.8005 14.5605 16.8332 14.4647 16.8332 14.3403V14.3278C16.8332 14.0969 16.7695 14.0308 16.7071 13.9826C16.53 13.8459 16.1735 13.6764 15.5409 13.5331C15.5404 13.5329 15.5398 13.5328 15.5393 13.5327L14.8081 13.3698C14.3921 13.2728 14.0107 13.1521 13.6797 12.9987C13.3231 12.8334 12.9857 12.5983 12.734 12.2624L12.7244 12.2493C12.4605 11.8848 12.35 11.4668 12.35 11.0479V11.0354C12.35 10.5175 12.5273 10.0446 12.8541 9.65106L12.8555 9.64944C13.1553 9.28997 13.5341 9.02482 13.9624 8.84212L13.967 8.84017Z" fill="#0D151F"/>
</svg>
