<svg width="24" height="24" viewBox="0 0 24 24" fill="none" xmlns="http://www.w3.org/2000/svg">
<path fill-rule="evenodd" clip-rule="evenodd" d="M11.0001 2C10.4697 2 9.96098 2.21071 9.58591 2.58579C9.21084 2.96086 9.00012 3.46957 9.00012 4C9.00012 4.53043 9.21084 5.03914 9.58591 5.41421C9.96098 5.78929 10.4697 6 11.0001 6C11.5306 6 12.0393 5.78929 12.4143 5.41421C12.7894 5.03914 13.0001 4.53043 13.0001 4C13.0001 3.46957 12.7894 2.96086 12.4143 2.58579C12.0393 2.21071 11.5306 2 11.0001 2ZM11.1589 7.24758C11.0036 7.11137 10.8048 7.02193 10.5832 7.00345C10.4716 6.99415 10.3627 7.00356 10.2597 7.02904L5.78322 8.02382C5.44032 8.10002 5.16255 8.35055 5.05147 8.68378L4.05147 11.6838C3.87682 12.2077 4.15998 12.774 4.68392 12.9487C5.20786 13.1233 5.77418 12.8402 5.94883 12.3162L6.76979 9.85337L9.39074 9.27094L9.00358 13.917C8.975 14.2599 9.12479 14.5935 9.40012 14.8L13.0001 17.5V21C13.0001 21.5523 13.4478 22 14.0001 22C14.5524 22 15.0001 21.5523 15.0001 21V17C15.0001 16.6852 14.8519 16.3889 14.6001 16.2L11.0426 13.5319L11.3343 10.032L13.3494 11.7593C13.4672 11.8603 13.607 11.9325 13.7576 11.9702L17.7576 12.9702C18.2934 13.1041 18.8363 12.7783 18.9703 12.2425C19.1042 11.7068 18.7785 11.1638 18.2427 11.0299L14.4717 10.0871L11.1589 7.24758ZM9.64455 16.9472C9.89154 16.4532 9.69131 15.8526 9.19734 15.6056C8.70336 15.3586 8.10268 15.5588 7.85569 16.0528L7.17827 17.4076L4.29302 20.2929C3.90249 20.6834 3.90249 21.3166 4.29302 21.7071C4.68354 22.0976 5.3167 22.0976 5.70723 21.7071L8.70723 18.7071C8.78323 18.6311 8.84648 18.5433 8.89455 18.4472L9.64455 16.9472ZM17.4395 14.4393C17.7208 14.158 18.1023 14 18.5001 14C18.8979 14 19.2795 14.158 19.5608 14.4393C19.8421 14.7206 20.0001 15.1022 20.0001 15.5C20.0001 15.8978 19.8421 16.2794 19.5608 16.5607C19.2795 16.842 18.8979 17 18.5001 17C18.1023 17 17.7208 16.842 17.4395 16.5607C17.1582 16.2794 17.0001 15.8978 17.0001 15.5C17.0001 15.1022 17.1582 14.7206 17.4395 14.4393Z" fill="#0D151F"/>
</svg>
