<svg width="24" height="24" viewBox="0 0 24 24" fill="none" xmlns="http://www.w3.org/2000/svg">
<path d="M20.092 3.90016C17.3082 1.11557 12.4365 1.51337 9.65269 4.29796C8.06194 5.88916 7.16714 8.3754 7.26656 10.8616L5.67581 16.9281L2.29546 20.3094C1.89777 20.7072 1.89777 21.3039 2.29546 21.7017C2.69315 22.0994 3.28968 22.0994 3.68737 21.7017L7.06772 18.3204L13.1325 16.7292C15.7174 16.9281 18.1036 15.8341 19.5949 14.3424C21.2851 13.4473 23.7706 7.48035 20.092 3.90016ZM17.7059 4.59631C18.1036 4.79521 18.4018 4.99411 18.7001 5.29246C18.9984 5.59081 19.1972 5.88916 19.396 6.1875L16.0157 9.56879L14.3255 7.87815L17.7059 4.59631ZM15.4192 3.99961L12.9336 6.48585L11.6411 5.19301C12.6354 4.39741 14.0273 3.90016 15.4192 3.99961ZM10.3486 6.68475L11.5417 7.87815L9.255 10.1655C9.255 8.9721 9.65269 7.67925 10.3486 6.68475ZM8.06194 15.9336L8.55905 14.1435C8.95673 14.7402 9.35442 15.0385 9.85153 15.4363L8.06194 15.9336ZM11.4423 14.1435C10.6469 13.7457 10.2492 13.3479 9.85153 12.4528L13.033 9.27044L14.6238 10.9611L11.4423 14.1435ZM13.6296 14.7402L16.0157 12.3534L17.3082 13.6462C16.2145 14.3424 14.9221 14.7402 13.6296 14.7402ZM17.4076 10.9611L19.9926 8.3754C20.092 9.76769 19.5949 11.2594 18.7995 12.3534L17.4076 10.9611Z" fill="#0D151F"/>
<path d="M18.9983 16.5197C17.6402 16.5197 16.6016 17.5585 16.6016 18.9171C16.6016 20.2756 17.6402 21.3145 18.9983 21.3145C20.3565 21.3145 21.3951 20.2756 21.3951 18.9171C21.3951 17.5585 20.3565 16.5197 18.9983 16.5197Z" fill="#0D151F"/>
</svg>
