<svg width="24" height="24" viewBox="0 0 24 24" fill="none" xmlns="http://www.w3.org/2000/svg">
<path d="M19 2H5C4.20435 2 3.44129 2.31607 2.87868 2.87868C2.31607 3.44129 2 4.20435 2 5V19C2 19.7956 2.31607 20.5587 2.87868 21.1213C3.44129 21.6839 4.20435 22 5 22H19C19.7956 22 20.5587 21.6839 21.1213 21.1213C21.6839 20.5587 22 19.7956 22 19V5C22 4.20435 21.6839 3.44129 21.1213 2.87868C20.5587 2.31607 19.7956 2 19 2ZM20 19C20 19.2652 19.8946 19.5196 19.7071 19.7071C19.5196 19.8946 19.2652 20 19 20H5C4.73478 20 4.48043 19.8946 4.29289 19.7071C4.10536 19.5196 4 19.2652 4 19V5C4 4.73478 4.10536 4.48043 4.29289 4.29289C4.48043 4.10536 4.73478 4 5 4H19C19.2652 4 19.5196 4.10536 19.7071 4.29289C19.8946 4.48043 20 4.73478 20 5V19Z" fill="#0D151F"/>
<path d="M6.16288 17.11C5.96419 17.11 5.79143 17.0307 5.64458 16.872C5.50636 16.7133 5.43726 16.5267 5.43726 16.312V7.68801C5.43726 7.47335 5.50636 7.28668 5.64458 7.12801C5.79143 6.96935 5.96419 6.89001 6.16288 6.89001H10.7498C10.9485 6.89001 11.117 6.96935 11.2552 7.12801C11.402 7.28668 11.4754 7.47335 11.4754 7.68801V8.01001C11.4754 8.22468 11.402 8.41135 11.2552 8.57001C11.117 8.72868 10.9485 8.80801 10.7498 8.80801H7.74369C7.67458 8.80801 7.64003 8.84535 7.64003 8.92001V10.768C7.64003 10.852 7.67458 10.894 7.74369 10.894H10.4907C10.6894 10.894 10.8578 10.9733 10.996 11.132C11.1429 11.2907 11.2163 11.4773 11.2163 11.692V11.902C11.2163 12.1167 11.1429 12.3033 10.996 12.462C10.8578 12.6207 10.6894 12.7 10.4907 12.7H7.74369C7.67458 12.7 7.64003 12.7373 7.64003 12.812V15.08C7.64003 15.1547 7.67458 15.192 7.74369 15.192H10.7498C10.9485 15.192 11.117 15.2713 11.2552 15.43C11.402 15.5887 11.4754 15.7753 11.4754 15.99V16.312C11.4754 16.5267 11.402 16.7133 11.2552 16.872C11.117 17.0307 10.9485 17.11 10.7498 17.11H6.16288Z" fill="#0D151F"/>
<path d="M12.9911 17.11C12.7924 17.11 12.6196 17.0307 12.4728 16.872C12.3346 16.7133 12.2655 16.5267 12.2655 16.312V10.628C12.2655 10.4133 12.3346 10.2267 12.4728 10.068C12.6196 9.90935 12.7924 9.83001 12.9911 9.83001H13.5223C13.7297 9.83001 13.9024 9.90935 14.0406 10.068C14.1875 10.2173 14.2652 10.404 14.2739 10.628L14.2868 10.74C14.2868 10.7493 14.2912 10.754 14.2998 10.754L14.3257 10.726C14.8872 10.0353 15.561 9.69001 16.3471 9.69001C17.1332 9.69001 17.699 9.93268 18.0445 10.418C18.39 10.894 18.5628 11.7107 18.5628 12.868V16.312C18.5628 16.5267 18.4894 16.7133 18.3425 16.872C18.2043 17.0307 18.0359 17.11 17.8372 17.11H17.2671C17.0684 17.11 16.8956 17.0307 16.7488 16.872C16.6019 16.7133 16.5285 16.5267 16.5285 16.312V12.938C16.5285 12.378 16.4594 11.9953 16.3212 11.79C16.1829 11.5753 15.9324 11.468 15.5696 11.468C15.2673 11.468 14.9865 11.6033 14.7274 11.874C14.4769 12.1353 14.3516 12.42 14.3516 12.728V16.312C14.3516 16.5267 14.2782 16.7133 14.1313 16.872C13.9931 17.0307 13.8247 17.11 13.626 17.11H12.9911Z" fill="#0D151F"/>
</svg>
