<svg width="24" height="24" viewBox="0 0 24 24" fill="none" xmlns="http://www.w3.org/2000/svg">
<path d="M8.92542 8.22562C9.23024 8.22562 9.52817 8.31897 9.77893 8.49222L13.4547 11.0313H20.7037C21.422 11.0313 22.0045 11.6131 22.0045 12.3311V17.5049C22.0045 19.9902 19.9888 22.0049 17.5026 22.0049H6.50647C4.02026 22.0049 2.00452 19.9902 2.00452 17.5049V12.3311C2.00452 11.6131 2.58706 11.0313 3.3053 11.0313H4.27502V9.72562C4.27509 8.89727 4.94733 8.22565 5.776 8.22562H8.92542ZM4.00549 17.5049C4.00549 18.8856 5.12524 20.0049 6.50647 20.0049H17.5026C18.8838 20.0049 20.0035 18.8856 20.0035 17.5049V13.0313H4.00549V17.5049ZM8.09729 14.0391C8.64945 14.0391 9.09709 14.487 9.09729 15.0391V18.21C9.0971 18.7621 8.64946 19.21 8.09729 19.21C7.54532 19.2098 7.09748 18.762 7.09729 18.21V15.0391C7.09749 14.4871 7.54533 14.0393 8.09729 14.0391ZM12.067 14.0391C12.6192 14.0391 13.0668 14.487 13.067 15.0391V18.21C13.0668 18.7621 12.6192 19.21 12.067 19.21C11.5151 19.2098 11.0672 18.762 11.067 18.21V15.0391C11.0672 14.4871 11.5151 14.0393 12.067 14.0391ZM16.0367 14.0391C16.5889 14.0391 17.0365 14.487 17.0367 15.0391V18.21C17.0366 18.7621 16.5889 19.21 16.0367 19.21C15.4848 19.2098 15.0369 18.762 15.0367 18.21V15.0391C15.0369 14.4871 15.4848 14.0393 16.0367 14.0391ZM6.276 11.0313H9.93616L8.77014 10.2256H6.276V11.0313ZM14.6373 2.61527C14.8397 2.10893 15.4229 1.87078 15.9401 2.08402C16.4571 2.2972 16.7125 2.88051 16.5104 3.38675L16.1129 4.38089C15.9409 4.81114 16.015 5.30566 16.3082 5.67874C17.1775 6.78449 17.2711 8.29166 16.5426 9.45413L16.3776 9.71781C16.0882 10.179 15.4697 10.3116 14.9957 10.0137C14.5216 9.71567 14.3715 9.09927 14.6608 8.63773L14.8258 8.37503C15.1152 7.91322 15.0783 7.31434 14.733 6.87503C13.9949 5.93608 13.8071 4.69237 14.2399 3.60941L14.6373 2.61527ZM18.274 2.61527C18.4764 2.10902 19.0597 1.87097 19.5768 2.08402C20.0938 2.29721 20.3493 2.88048 20.1471 3.38675L19.7496 4.38089C19.5776 4.81119 19.6526 5.30565 19.9459 5.67874C20.815 6.78439 20.9086 8.29176 20.1803 9.45413L20.0153 9.71781C19.726 10.1793 19.1065 10.3117 18.6324 10.0137C18.1585 9.71563 18.0093 9.09922 18.2985 8.63773L18.4635 8.37503C18.7528 7.9132 18.7151 7.3143 18.3698 6.87503C17.6316 5.93611 17.4439 4.69234 17.8766 3.60941L18.274 2.61527ZM6.4801 3.04886C7.76604 3.04901 8.80823 4.09149 8.80823 5.37699C8.80803 6.66232 7.76592 7.70398 6.4801 7.70413C5.19415 7.70413 4.15119 6.66241 4.151 5.37699C4.151 4.09139 5.19403 3.04886 6.4801 3.04886Z" fill="#0D151F"/>
</svg>
