<svg width="24" height="24" viewBox="0 0 24 24" fill="none" xmlns="http://www.w3.org/2000/svg">
<path d="M16.3029 12C16.3029 14.3765 14.3764 16.303 11.9999 16.303C9.6234 16.303 7.6969 14.3765 7.6969 12C7.6969 9.62353 9.6234 7.69702 11.9999 7.69702C14.3764 7.69702 16.3029 9.62353 16.3029 12Z" fill="#0D151F"/>
<path d="M11.909 6.09094H12.0907C12.4848 6.09094 12.8181 5.7576 12.8181 5.36362V2.72732C12.8181 2.33332 12.4847 2 12.0907 2H11.909C11.515 2 11.1816 2.33334 11.1816 2.72732V5.36362C11.1816 5.75762 11.515 6.09094 11.909 6.09094Z" fill="#0D151F"/>
<path d="M16.2421 7.87878C16.5148 8.15146 16.9695 8.15146 17.2724 7.87878L19.1208 6.03031C19.3935 5.75763 19.3935 5.30299 19.1208 5.00007L18.9997 4.87895C18.7271 4.60627 18.2724 4.60627 17.9695 4.87895L16.121 6.72742C15.8483 7.0001 15.8483 7.45474 16.121 7.75766L16.2421 7.87878Z" fill="#0D151F"/>
<path d="M21.2727 11.1818H18.6364C18.2424 11.1818 17.9091 11.5151 17.9091 11.9091V12.0909C17.9091 12.4849 18.2424 12.8182 18.6364 12.8182H21.2727C21.6667 12.8182 22 12.4848 22 12.0909V11.9091C22 11.5151 21.6667 11.1818 21.2727 11.1818Z" fill="#0D151F"/>
<path d="M17.2726 16.1211C16.9999 15.8485 16.5453 15.8485 16.2423 16.1211L16.121 16.2423C15.8483 16.5149 15.8483 16.9696 16.121 17.2725L17.9695 19.121C18.2422 19.3936 18.6968 19.3936 18.9997 19.121L19.1208 18.9999C19.3935 18.7272 19.3935 18.2725 19.1208 17.9696L17.2726 16.1211Z" fill="#0D151F"/>
<path d="M12.0907 17.9091H11.909C11.515 17.9091 11.1816 18.2424 11.1816 18.6364V21.2727C11.1816 21.6667 11.515 22 11.909 22H12.0907C12.4847 22 12.8181 21.6667 12.8181 21.2727V18.6364C12.8181 18.2424 12.4847 17.9091 12.0907 17.9091Z" fill="#0D151F"/>
<path d="M7.75766 16.1211C7.48499 15.8485 7.03034 15.8485 6.72742 16.1211L4.87895 17.9696C4.60627 18.2423 4.60627 18.6969 4.87895 18.9999L5.00007 19.121C5.27274 19.3936 5.72739 19.3936 6.03031 19.121L7.87878 17.2725C8.15146 16.9998 8.15146 16.5452 7.87878 16.2423L7.75766 16.1211Z" fill="#0D151F"/>
<path d="M6.09082 12.0909V11.9091C6.09082 11.5151 5.75748 11.1818 5.3635 11.1818H2.7272C2.3332 11.1818 1.99988 11.5151 1.99988 11.9091V12.0909C1.99988 12.4849 2.33322 12.8182 2.7272 12.8182H5.3635C5.7575 12.8182 6.09082 12.4848 6.09082 12.0909Z" fill="#0D151F"/>
<path d="M6.72693 7.87878C6.99961 8.15146 7.45426 8.15146 7.75718 7.87878L7.8783 7.75766C8.15097 7.48499 8.15097 7.03034 7.8783 6.72742L6.02982 4.87895C5.75714 4.60627 5.3025 4.60627 4.99958 4.87895L4.87846 5.00007C4.60578 5.27274 4.60578 5.72739 4.87846 6.03031L6.72693 7.87878Z" fill="#0D151F"/>
</svg>
