<svg width="24" height="24" viewBox="0 0 24 24" fill="none" xmlns="http://www.w3.org/2000/svg">
<path fill-rule="evenodd" clip-rule="evenodd" d="M12 20.9995C11.1716 20.9995 10.5 20.3279 10.5 19.4995C10.5 18.6711 11.1716 17.9995 12 17.9995C12.8284 17.9995 13.5 18.6711 13.5 19.4995C13.5 20.3279 12.8284 20.9995 12 20.9995ZM12 22.9995C10.2956 22.9995 8.87572 21.7812 8.56375 20.1679C8.52191 19.9516 8.5 19.7281 8.5 19.4995C8.5 18.9359 8.63322 18.4034 8.86988 17.9318C9.4449 16.7859 10.6306 15.9995 12 15.9995C13.933 15.9995 15.5 17.5665 15.5 19.4995C15.5 21.4325 13.933 22.9995 12 22.9995Z" fill="#0D151F"/>
<path fill-rule="evenodd" clip-rule="evenodd" d="M5.45704 18.1497C4.73698 17.2212 4.3094 16.1172 4.22306 14.9671H4.13022C3.30412 14.9662 2.50961 14.6537 1.92201 14.0947C1.33401 13.5353 1.00091 12.7742 1 11.9777V10.9791C1.00121 10.1827 1.3344 9.42148 1.92232 8.86216C2.50983 8.30322 3.3039 7.99066 4.12988 7.98951H4.43786C5.30917 4.42516 8.09077 1.99951 11.9995 1.99951C15.9081 1.99951 18.6908 4.42512 19.5621 7.98951H19.8698C20.696 7.99066 21.4905 8.30337 22.0781 8.86254C22.666 9.4221 22.9991 10.1833 23 10.9798L23 11.9785C22.9988 12.7748 22.6656 13.5359 22.0776 14.0951C21.49 14.6539 20.6959 14.9662 19.87 14.9671H18.8204C18.5508 14.9667 18.2897 14.8648 18.0956 14.6801C17.9011 14.495 17.7893 14.2416 17.7889 13.9745V10.48C17.7889 8.53503 17.2127 6.91171 16.2101 5.77812C15.2102 4.64748 13.7701 3.98538 11.9995 3.98538C10.2288 3.98538 8.78876 4.64725 7.7888 5.77776C6.78623 6.91121 6.21002 8.53452 6.21002 10.48V13.475C6.21002 14.8268 6.41298 15.8248 6.86158 16.5913C7.10328 17.0043 7.99861 17.5185 8.86988 17.9318C8.63322 18.4034 8.5 18.9359 8.5 19.4995C8.5 19.7281 8.52191 19.9516 8.56375 20.1679C7.43236 19.753 6.17343 19.0734 5.45704 18.1497ZM4.17778 12.9885L4.13022 12.9822C3.84329 12.9822 3.57035 12.8737 3.37084 12.684C3.17173 12.4948 3.06212 12.2406 3.0619 11.9782V10.9801C3.0619 10.7177 3.17129 10.4635 3.37024 10.2741C3.56954 10.0843 3.84231 9.97565 4.12918 9.97539H4.17778V12.9885ZM20.9371 11.9782C20.9366 12.2403 20.827 12.494 20.6281 12.683C20.4288 12.8725 20.1562 12.981 19.8696 12.9812L19.8222 12.9885V9.97539H19.8696C19.9096 9.97542 19.9494 9.97758 19.9888 9.98177L20.0009 9.98313C20.2388 10.0111 20.4601 10.1136 20.6287 10.2741C20.8277 10.4635 20.9371 10.7177 20.9371 10.9801V11.9782Z" fill="#0D151F"/>
</svg>
