<svg width="24" height="24" viewBox="0 0 24 24" fill="none" xmlns="http://www.w3.org/2000/svg">
<path fill-rule="evenodd" clip-rule="evenodd" d="M8.84231 4.15925C8.42355 4.15925 8.02195 4.32987 7.72584 4.63357C7.42974 4.93728 7.26339 5.34919 7.26339 5.77869V9.55738H14.6317V5.77869C14.6317 4.77652 15.0198 3.81539 15.7108 3.10675C16.4017 2.39811 17.3387 2 18.3158 2C19.2929 2 20.23 2.39811 20.9209 3.10675C21.6118 3.81539 22 4.77652 22 5.77869C21.9997 6.05386 21.897 6.31854 21.7128 6.51863C21.5286 6.71872 21.2769 6.83914 21.0091 6.85526C20.7412 6.87139 20.4775 6.78201 20.2718 6.6054C20.066 6.42878 19.9338 6.17825 19.9021 5.90501L19.8948 5.77869C19.8948 5.34919 19.7284 4.93728 19.4323 4.63357C19.1362 4.32987 18.7346 4.15925 18.3158 4.15925C17.8971 4.15925 17.4955 4.32987 17.1994 4.63357C16.9033 4.93728 16.7369 5.34919 16.7369 5.77869V14.9555C16.7369 15.111 16.7053 15.2578 16.6475 15.3906C16.8294 15.4921 17.0365 15.5364 17.2428 15.5177C17.4492 15.4991 17.6456 15.4185 17.8074 15.2859L19.2369 14.1123C19.3448 14.0237 19.4688 13.9578 19.6016 13.9183C19.7344 13.8788 19.8735 13.8665 20.0109 13.8822C20.1483 13.8978 20.2814 13.941 20.4025 14.0094C20.5237 14.0778 20.6305 14.17 20.7169 14.2807C20.8033 14.3915 20.8675 14.5186 20.906 14.6548C20.9445 14.791 20.9565 14.9336 20.9413 15.0746C20.926 15.2156 20.8839 15.352 20.8172 15.4763C20.7505 15.6005 20.6606 15.7101 20.5527 15.7987L19.1232 16.9712C18.6 17.4006 17.9571 17.6481 17.2876 17.678C16.6181 17.7079 15.9567 17.5186 15.3991 17.1374L14.8022 16.7293C14.6163 16.6021 14.3957 16.5388 14.1724 16.5487C13.9491 16.5586 13.7346 16.6411 13.5601 16.7844L13.4464 16.8783C12.8865 17.3377 12.1909 17.588 11.4738 17.588C10.7568 17.588 10.0612 17.3377 9.50125 16.8783L9.38651 16.7844C9.21188 16.6413 8.99738 16.5589 8.77407 16.5492C8.55076 16.5395 8.33023 16.603 8.14443 16.7304L7.5497 17.1374C6.99195 17.5188 6.33034 17.7083 5.66062 17.6784C4.9909 17.6485 4.34783 17.4008 3.82449 16.9712L2.39504 15.7987C2.17701 15.6197 2.03722 15.3593 2.00643 15.0746C1.97563 14.7899 2.05635 14.5044 2.23083 14.2807C2.40532 14.0571 2.65927 13.9137 2.93681 13.8822C3.21436 13.8506 3.49278 13.9334 3.71081 14.1123L5.15816 15.301V5.77869C5.15816 5.28247 5.25345 4.7911 5.4386 4.33265C5.62374 3.8742 5.89512 3.45764 6.23722 3.10675C6.57933 2.75587 6.98546 2.47753 7.43245 2.28764C7.87943 2.09774 8.3585 2 8.84231 2C9.32612 2 9.80519 2.09774 10.2522 2.28764C10.6992 2.47753 11.1053 2.75587 11.4474 3.10675C11.7895 3.45764 12.0609 3.8742 12.246 4.33265C12.4312 4.7911 12.5265 5.28247 12.5265 5.77869C12.5262 6.05386 12.4234 6.31854 12.2393 6.51863C12.0551 6.71872 11.8034 6.83914 11.5355 6.85526C11.2677 6.87139 11.004 6.78201 10.7982 6.6054C10.5925 6.42878 10.4603 6.17825 10.4286 5.90501L10.4212 5.77869C10.4212 5.34919 10.2549 4.93728 9.95878 4.63357C9.66267 4.32987 9.26107 4.15925 8.84231 4.15925ZM14.6317 14.4168V11.7166H7.26339V14.759C7.80684 14.4669 8.42148 14.3435 9.0322 14.4039C9.64292 14.4643 10.2233 14.7059 10.7023 15.0991L10.816 15.193C11.0027 15.3463 11.2347 15.4299 11.4738 15.4299C11.713 15.4299 11.945 15.3463 12.1317 15.193L12.2454 15.0991C12.5777 14.826 12.9604 14.6247 13.3705 14.5073C13.7805 14.3898 14.2096 14.3587 14.6317 14.4157V14.4168ZM17.8074 19.6044C17.6328 19.7475 17.4183 19.8298 17.195 19.8395C16.9717 19.8492 16.7512 19.7858 16.5653 19.6584L15.9706 19.2513C15.4129 18.8699 14.7513 18.6804 14.0815 18.7103C13.4118 18.7402 12.7688 18.9879 12.2454 19.4176L12.1317 19.5115C11.945 19.6648 11.713 19.7484 11.4738 19.7484C11.2347 19.7484 11.0027 19.6648 10.816 19.5115L10.7023 19.4176C10.179 18.9882 9.53617 18.7406 8.86668 18.7107C8.19718 18.6808 7.53577 18.8702 6.97813 19.2513L6.3813 19.6594C6.19538 19.7867 5.97479 19.85 5.75148 19.8401C5.52817 19.8302 5.31372 19.7476 5.13921 19.6044L3.71081 18.4308C3.49278 18.2519 3.21436 18.1691 2.93681 18.2007C2.65927 18.2322 2.40532 18.3756 2.23083 18.5992C2.05635 18.8229 1.97563 19.1084 2.00643 19.3931C2.03722 19.6778 2.17701 19.9382 2.39504 20.1172L3.82449 21.2897C4.34783 21.7193 4.9909 21.967 5.66062 21.9969C6.33034 22.0268 6.99195 21.8373 7.5497 21.4559L8.14548 21.0478C8.33139 20.9206 8.55198 20.8573 8.77529 20.8672C8.99861 20.8771 9.21305 20.9596 9.38757 21.1029L9.50125 21.1968C10.0612 21.6562 10.7568 21.9065 11.4738 21.9065C12.1909 21.9065 12.8865 21.6562 13.4464 21.1968L13.5612 21.1029C13.7358 20.9598 13.9503 20.8774 14.1736 20.8677C14.3969 20.858 14.6175 20.9215 14.8033 21.0489L15.3991 21.4559C15.9567 21.8371 16.6181 22.0264 17.2876 21.9965C17.9571 21.9667 18.6 21.7191 19.1232 21.2897L20.5527 20.1172C20.6606 20.0286 20.7505 19.919 20.8172 19.7948C20.8839 19.6706 20.926 19.5341 20.9413 19.3931C20.9565 19.2521 20.9445 19.1095 20.906 18.9733C20.8675 18.8371 20.8033 18.71 20.7169 18.5992C20.6305 18.4885 20.5237 18.3963 20.4025 18.3279C20.2814 18.2595 20.1483 18.2163 20.0109 18.2007C19.8735 18.185 19.7344 18.1973 19.6016 18.2368C19.4688 18.2763 19.3448 18.3422 19.2369 18.4308L17.8074 19.6044Z" fill="#0D151F"/>
</svg>
