<svg width="24" height="24" viewBox="0 0 24 24" fill="none" xmlns="http://www.w3.org/2000/svg">
<path d="M21.0242 13.43C21.8461 11.9644 22.1816 10.2728 21.9817 8.60174C21.7819 6.93071 21.0572 5.36764 19.9133 4.14044C19.2213 3.45171 18.4006 2.90797 17.4986 2.54065C16.5966 2.17333 15.6312 1.98972 14.6583 2.00044C12.3372 2.05008 10.125 3.00067 8.48336 4.65371C6.84176 6.30676 5.89776 8.53447 5.84846 10.8717C5.84593 11.9184 6.05633 12.9546 6.46669 13.9163L3.56872 16.0077C2.99726 16.4136 2.56982 16.993 2.34898 17.6611C2.12814 18.3292 2.1255 19.051 2.34145 19.7208C2.5574 20.3905 2.98059 20.9731 3.54907 21.3831C4.11755 21.7932 4.80147 22.0093 5.5007 21.9997H5.75186C6.22617 21.9601 6.6862 21.8169 7.09994 21.58C7.51368 21.3432 7.87117 21.0183 8.14752 20.6281L10.2341 17.71C11.1901 18.1201 12.2184 18.3318 13.2576 18.3325C14.189 18.3291 15.1131 18.1679 15.9914 17.8559C16.2547 18.26 16.6006 18.6028 17.006 18.8614C17.4115 19.12 17.8671 19.2885 18.3424 19.3555C18.8177 19.4226 19.3017 19.3866 19.7621 19.2502C20.2225 19.1137 20.6487 18.8798 21.0121 18.5641C21.3755 18.2485 21.6678 17.8583 21.8695 17.4197C22.0711 16.9811 22.1774 16.5043 22.1813 16.021C22.1852 15.5377 22.0865 15.0592 21.892 14.6174C21.6974 14.1756 21.4115 13.7807 21.0532 13.4592L21.0242 13.43ZM9.84766 6.03726C11.1213 4.72802 12.8577 3.97964 14.6776 3.95562C15.3923 3.9482 16.1014 4.0827 16.7644 4.35142C17.4274 4.62014 18.0313 5.01782 18.5416 5.52171C19.3966 6.46174 19.9294 7.65333 20.0616 8.92111C20.1937 10.1889 19.9183 11.4659 19.2757 12.5642C19.1214 12.5534 18.9664 12.5534 18.8121 12.5642C18.0523 12.5653 17.315 12.8241 16.7191 13.2988C16.1232 13.7736 15.7035 14.4365 15.5277 15.1809L8.43732 8.0508C8.78967 7.30337 9.2667 6.62232 9.84766 6.03726ZM6.55363 19.4901C6.44225 19.6484 6.29833 19.7807 6.13165 19.8781C5.96497 19.9754 5.77943 20.0355 5.58764 20.0542C5.39288 20.0738 5.19624 20.049 5.01229 19.9817C4.82835 19.9143 4.66182 19.8061 4.52505 19.6651C4.38616 19.5266 4.27947 19.3588 4.21266 19.1738C4.14585 18.9888 4.12058 18.7912 4.13866 18.5952C4.15726 18.402 4.21693 18.2152 4.31361 18.0474C4.41028 17.8795 4.5417 17.7346 4.69893 17.6224L7.48098 15.6186C7.6413 15.819 7.81221 16.0106 7.99296 16.1925C8.17343 16.3747 8.36369 16.5468 8.56289 16.7081L6.55363 19.4901ZM9.33569 14.7918C8.83485 14.2783 8.43964 13.6702 8.17275 13.0025C7.90586 12.3348 7.77254 11.6206 7.78044 10.9009C7.76779 10.6709 7.76779 10.4403 7.78044 10.2103L13.8565 16.3287C13.0369 16.4269 12.2059 16.3398 11.4239 16.074C10.6418 15.8081 9.92849 15.3701 9.33569 14.7918ZM18.7927 17.4279C18.5062 17.4279 18.226 17.3423 17.9877 17.182C17.7494 17.0217 17.5637 16.7938 17.454 16.5272C17.3444 16.2605 17.3157 15.9672 17.3716 15.6841C17.4275 15.4011 17.5655 15.1411 17.7681 14.9371C17.9708 14.733 18.229 14.594 18.5101 14.5377C18.7911 14.4814 19.0825 14.5103 19.3472 14.6208C19.612 14.7312 19.8383 14.9182 19.9975 15.1582C20.1567 15.3981 20.2417 15.6802 20.2417 15.9688C20.2417 16.3558 20.0891 16.7269 19.8173 17.0005C19.5456 17.2742 19.177 17.4279 18.7927 17.4279Z" fill="#0D151F"/>
</svg>
