<svg width="24" height="24" viewBox="0 0 24 24" fill="none" xmlns="http://www.w3.org/2000/svg">
<path fill-rule="evenodd" clip-rule="evenodd" d="M8.58486 3C8.58486 1.89543 9.48029 1 10.5849 1H13.4152C14.5198 1 15.4152 1.89543 15.4152 3V4.3361C16.6888 4.33805 17.8225 5.14402 18.2427 6.34663L20.1019 11.6683H20.5023C21.883 11.6683 23.0023 12.7876 23.0023 14.1683V18.0236C23.0023 19.4043 21.883 20.5236 20.5023 20.5236H20.1601V22C20.1601 22.5523 19.7124 23 19.1601 23C18.6079 23 18.1601 22.5523 18.1601 22V20.5236H5.83991V22C5.83991 22.5523 5.3922 23 4.83991 23C4.28763 23 3.83991 22.5523 3.83991 22V20.5236H3.4978C2.11709 20.5236 0.997803 19.4043 0.997803 18.0236V14.1683C0.997803 12.7876 2.11709 11.6683 3.4978 11.6683H3.89812L5.75737 6.34663C6.17753 5.14401 7.3113 4.33805 8.58486 4.3361V3ZM10.5849 4.3361H13.4152V3L10.5849 3V4.3361ZM6.01667 11.6683H17.9834L16.3546 7.00628C16.2144 6.60491 15.8357 6.3361 15.4106 6.3361H8.5895C8.16435 6.3361 7.78568 6.60492 7.64545 7.00627L6.01667 11.6683ZM3.4978 13.6683C3.22166 13.6683 2.9978 13.8922 2.9978 14.1683V18.0236C2.9978 18.2997 3.22166 18.5236 3.4978 18.5236H20.5023C20.7784 18.5236 21.0023 18.2997 21.0023 18.0236V14.1683C21.0023 13.8922 20.7784 13.6683 20.5023 13.6683H3.4978ZM4.96041 16.2532C4.96041 15.701 5.40812 15.2532 5.96041 15.2532H5.96695C6.51923 15.2532 6.96695 15.701 6.96695 16.2532C6.96695 16.8055 6.51923 17.2532 5.96695 17.2532H5.96041C5.40812 17.2532 4.96041 16.8055 4.96041 16.2532ZM8.85467 16.2532C8.85467 15.701 9.30239 15.2532 9.85467 15.2532H14.1451C14.6974 15.2532 15.1451 15.701 15.1451 16.2532C15.1451 16.8055 14.6974 17.2532 14.1451 17.2532H9.85467C9.30239 17.2532 8.85467 16.8055 8.85467 16.2532ZM17.033 16.2532C17.033 15.701 17.4807 15.2532 18.033 15.2532H18.0395C18.5918 15.2532 19.0395 15.701 19.0395 16.2532C19.0395 16.8055 18.5918 17.2532 18.0395 17.2532H18.033C17.4807 17.2532 17.033 16.8055 17.033 16.2532Z" fill="#0D151F"/>
</svg>
