<svg width="24" height="24" viewBox="0 0 24 24" fill="none" xmlns="http://www.w3.org/2000/svg">
<path fill-rule="evenodd" clip-rule="evenodd" d="M5.96406 17.5957C7.01356 18.7691 8.47611 19.5051 10.5046 19.5051C12.5331 19.5051 13.9957 18.7691 15.0452 17.5957C16.1008 16.4154 16.8388 14.6717 17.1204 12.5007H3.88885C4.17045 14.6717 4.90842 16.4154 5.96406 17.5957ZM1.85635 12.4976C1.73165 11.3993 2.64929 10.4994 3.76357 10.4994H17.2456C18.3599 10.4994 19.2776 11.3993 19.1529 12.4976C18.571 17.6225 15.6883 21.5063 10.5046 21.5063C5.32096 21.5063 2.4382 17.6225 1.85635 12.4976Z" fill="#0D151F"/>
<path fill-rule="evenodd" clip-rule="evenodd" d="M15.6428 17.91C16.0764 18.1463 16.5642 18.3289 17.0918 18.4395C17.2123 18.4647 17.3323 18.4857 17.4517 18.5025C19.5575 18.7996 21.4611 17.8082 21.7946 16.1845C22.0724 14.832 21.1778 13.444 19.6869 12.6864C19.6117 12.6482 19.5349 12.6116 19.4568 12.5767C19.1189 12.4258 18.754 12.3064 18.3682 12.2255C18.1591 12.1817 17.9517 12.1505 17.7466 12.132C17.2056 14.241 16.4549 16.1735 15.5136 17.8371C15.5561 17.8619 15.5992 17.8862 15.6428 17.91ZM18.3922 16.5434C18.7363 16.519 19.0352 16.4372 19.2683 16.3254C19.6844 16.1259 19.7952 15.8944 19.8206 15.7707C19.846 15.6471 19.8355 15.3902 19.5323 15.0399C19.42 14.9101 19.2762 14.7808 19.1031 14.6616C18.887 15.3064 18.65 15.9347 18.3922 16.5434Z" fill="#0D151F"/>
<path fill-rule="evenodd" clip-rule="evenodd" d="M10.2904 1.79877C10.6847 2.18918 10.6853 2.82275 10.2917 3.21388L8.81297 4.68338L9.40666 5.27334C10.1782 6.04001 10.1782 7.28154 9.40666 8.04822L8.03699 9.40929C7.6434 9.80042 7.00467 9.801 6.61035 9.41059C6.21604 9.02017 6.21545 8.38661 6.60905 7.99548L7.95218 6.66078L7.38503 6.09718C6.59886 5.31594 6.59885 4.05082 7.38502 3.26958L8.86378 1.80008C9.25737 1.40895 9.8961 1.40836 10.2904 1.79877Z" fill="#0D151F"/>
<path fill-rule="evenodd" clip-rule="evenodd" d="M14.3586 1.79877C14.7529 2.18918 14.7535 2.82275 14.3599 3.21388L12.8811 4.68338L13.4748 5.27334C14.2463 6.04001 14.2463 7.28154 13.4748 8.04822L12.1052 9.40929C11.7116 9.80042 11.0728 9.801 10.6785 9.41059C10.2842 9.02017 10.2836 8.38661 10.6772 7.99548L12.0203 6.66078L11.4532 6.09718C10.667 5.31594 10.667 4.05082 11.4532 3.26958L12.9319 1.80008C13.3255 1.40895 13.9643 1.40836 14.3586 1.79877Z" fill="#0D151F"/>
</svg>
