<svg width="24" height="24" viewBox="0 0 24 24" fill="none" xmlns="http://www.w3.org/2000/svg">
<path fill-rule="evenodd" clip-rule="evenodd" d="M15.4771 7.41177H10.797V19.9738H14.7939C14.0396 19.6893 13.5029 18.9595 13.5029 18.1039V13.7123H19.4436V18.1039C19.4436 18.9595 18.9069 19.6893 18.1526 19.9738H20.4743C21.0245 19.9738 21.4705 20.4208 21.4705 20.9723C21.4705 21.5238 21.0245 21.9708 20.4743 21.9708H4.49227L4.47814 21.9708H3.54021C2.99006 21.9708 2.54407 21.5237 2.54407 20.9722V4.99562C2.54407 3.34118 3.88204 2 5.53251 2H19.5077C20.608 2 21.5 2.89412 21.5 3.99708V5.4147C21.5 6.51765 20.608 7.41177 19.5077 7.41177H17.4693V8.59105C17.4693 9.14253 17.0234 9.58959 16.4732 9.58959C15.923 9.58959 15.4771 9.14253 15.4771 8.59105V7.41177ZM8.80473 5.4147V19.9737H4.53636V12.4847V4.99562C4.53636 4.44414 4.98235 3.99708 5.53251 3.99708L19.5077 3.99708V5.4147H8.80473ZM5.69222 15.8017V17.7966H7.68451V15.8017H5.69222ZM15.4952 15.7094H17.4513V18.1039L15.4952 18.1039V15.7094Z" fill="#0D151F"/>
</svg>
