<svg width="24" height="24" viewBox="0 0 24 24" fill="none" xmlns="http://www.w3.org/2000/svg">
<path fill-rule="evenodd" clip-rule="evenodd" d="M11.5791 2L12.4759 2C17.9853 2.25504 22.2209 6.9149 21.9911 12.4543V12.5277L21.9902 12.5353C21.9365 13.0193 21.5082 13.3931 21.0016 13.3664L20.9937 13.366C20.5104 13.3122 20.1372 12.883 20.1638 12.3756L20.1641 12.3714C20.1863 12.1046 20.1863 11.8607 20.1641 11.5939L20.1638 11.5893C19.9392 7.0909 16.1446 3.62816 11.6544 3.85302L11.6472 3.85339L11.64 3.85298C11.1709 3.82688 10.7632 3.48483 10.7343 2.9948C10.6827 2.48641 11.0574 2.02731 11.5719 2.00019L11.5791 2ZM11.4649 5.31598H12.0881C15.8843 5.50259 18.819 8.72106 18.6575 12.5232C18.6566 12.7702 18.5465 12.9856 18.389 13.1434C18.0397 13.4932 17.4533 13.4944 17.1024 13.147C16.9045 12.9744 16.8301 12.7023 16.8301 12.4743V11.9745C16.6951 9.19326 14.3398 7.03548 11.54 7.16902L11.5334 7.16933C11.0341 7.16933 10.574 6.7745 10.574 6.25401C10.574 5.74748 10.9497 5.34295 11.4577 5.31617L11.4649 5.31598ZM11.3704 8.6777C13.4541 8.58447 15.2292 10.1978 15.3239 12.3081L15.3241 12.3143L15.324 12.6417C15.2969 13.1569 14.8384 13.5322 14.3308 13.4806C13.8415 13.4516 13.5 13.0433 13.474 12.5734L13.4735 12.5656L13.474 12.5577C13.5379 11.4702 12.709 10.5514 11.6206 10.4852H11.4037C10.9023 10.5361 10.5089 10.1172 10.4829 9.62296C10.456 9.11185 10.8583 8.67951 11.3704 8.6777ZM5.41318 8.9476C5.62626 8.73418 5.98239 8.73418 6.19547 8.9476L7.56748 10.2989C7.77849 10.5126 7.77781 10.8677 7.56542 11.0804L6.21171 12.4363L11.5347 17.7978L12.9199 16.4537L12.925 16.4486C13.1381 16.2352 13.4943 16.2352 13.7073 16.4486L15.0544 17.7978C15.2675 18.0113 15.2675 18.368 15.0544 18.5814L14.712 18.9244C13.0604 20.5786 10.3754 20.5786 8.72388 18.9244L5.07069 15.2883L5.06966 15.2872C3.41917 13.633 3.41952 10.9444 5.07069 9.29063L5.41318 8.9476ZM4.11772 7.65007C5.04525 6.72107 6.55907 6.72005 7.48788 7.64702L8.86087 8.99933C9.78941 9.92936 9.78941 11.4479 8.86087 12.3779L8.79897 12.4399L11.5587 15.2197L11.6354 15.1453C12.5644 14.221 14.0762 14.223 15.0028 15.151L16.3499 16.5003C17.2784 17.4303 17.2784 18.9489 16.3499 19.8789L16.0074 20.2219C13.6408 22.5923 9.79668 22.5927 7.4296 20.2231L7.42842 20.2219L3.77727 16.5878L3.77524 16.5858C1.40825 14.215 1.40825 10.3639 3.77524 7.99311L4.11772 7.65007Z" fill="#0D151F"/>
</svg>
