<svg width="24" height="24" viewBox="0 0 24 24" fill="none" xmlns="http://www.w3.org/2000/svg">
<path d="M3.94828 4.93182C3.94828 4.37954 4.396 3.93182 4.94828 3.93182H7.97266C8.52494 3.93182 8.97266 4.37954 8.97266 4.93182C8.97266 5.48411 8.52494 5.93182 7.97266 5.93182H4.94828C4.396 5.93182 3.94828 5.48411 3.94828 4.93182Z" fill="#0D151F"/>
<path d="M1.97266 7.81062C1.97266 7.25833 2.42037 6.81062 2.97266 6.81062H7.69488C8.24716 6.81062 8.69488 7.25833 8.69488 7.81062C8.69488 8.3629 8.24716 8.81062 7.69488 8.81062H2.97266C2.42037 8.81062 1.97266 8.3629 1.97266 7.81062Z" fill="#0D151F"/>
<path d="M3.94828 10.6894C3.94828 10.1371 4.396 9.68941 4.94828 9.68941H7.97266C8.52494 9.68941 8.97266 10.1371 8.97266 10.6894C8.97266 11.2417 8.52494 11.6894 7.97266 11.6894H4.94828C4.396 11.6894 3.94828 11.2417 3.94828 10.6894Z" fill="#0D151F"/>
<path d="M14.787 16.1957C14.2347 16.1957 13.787 16.6434 13.787 17.1957C13.787 17.748 14.2347 18.1957 14.787 18.1957H14.788C15.3402 18.1957 15.788 17.748 15.788 17.1957C15.788 16.6434 15.3402 16.1957 14.788 16.1957H14.787Z" fill="#0D151F"/>
<path fill-rule="evenodd" clip-rule="evenodd" d="M11.8563 3.79559C11.8563 2.1743 13.1506 0.827148 14.7874 0.827148C16.4242 0.827148 17.7184 2.17431 17.7184 3.79559V11.9876C18.6538 12.5355 19.4879 13.3314 20.0013 14.3763C20.5958 15.5862 20.7645 16.9658 20.4806 18.2856C20.1966 19.6056 19.4761 20.7901 18.4349 21.6391C17.3933 22.4884 16.0944 22.9497 14.755 22.9423C13.4158 22.9345 12.1219 22.4587 11.0896 21.5977C10.0578 20.7371 9.35033 19.5446 9.08075 18.2216C8.81124 16.8987 8.99485 15.5211 9.60261 14.3178C10.1117 13.3098 10.9023 12.4757 11.8563 11.9092V3.79559ZM14.7874 2.82715C14.2912 2.82715 13.8563 3.24256 13.8563 3.79559V6.55324V12.1678C13.8563 12.7859 13.4932 13.2937 13.019 13.5488C12.583 13.7835 12.1938 14.101 11.8755 14.4805C11.6861 14.7063 11.5219 14.9541 11.3878 15.2195C10.9837 16.0196 10.8605 16.9388 11.0405 17.8223C11.2205 18.7056 11.6916 19.4954 12.3707 20.0618C13.0492 20.6278 13.8949 20.9372 14.7662 20.9423C15.6373 20.9471 16.4864 20.6473 17.171 20.0891C17.8561 19.5305 18.3358 18.7461 18.5253 17.865C18.7149 16.9837 18.6018 16.0632 18.2063 15.2583C17.98 14.7978 17.6379 14.393 17.2138 14.058C17.011 13.8977 16.7894 13.7534 16.5528 13.6266C16.0733 13.3696 15.7184 12.8594 15.7184 12.2494V3.79559C15.7184 3.24255 15.2836 2.82715 14.7874 2.82715Z" fill="#0D151F"/>
</svg>
