<svg width="24" height="24" viewBox="0 0 24 24" fill="none" xmlns="http://www.w3.org/2000/svg">
<path d="M4.93052 19.0648C6.82642 20.958 9.33762 22 12.0049 22C14.6722 22 17.1843 20.958 19.0792 19.0648C22.9801 15.1695 22.9801 8.83151 19.0792 4.93521C17.1843 3.04301 14.6711 2 12.0049 2C9.33862 2 6.82542 3.04301 4.93052 4.93521C1.02967 8.83051 1.02967 15.1695 4.93052 19.0648ZM17.6646 17.6521C16.6161 18.702 15.2949 19.4387 13.8498 19.7791C13.8408 18.1786 14.436 16.6361 15.5416 15.5321C16.7051 14.3702 18.2749 13.7059 19.8206 13.6829C19.5019 15.1865 18.7529 16.5654 17.6646 17.6521ZM19.9907 11.6928C17.8657 11.6718 15.7046 12.545 14.1269 14.1195C12.5942 15.65 11.7988 17.796 11.8628 19.9949C9.78755 19.9633 7.80695 19.1225 6.34419 17.6521C4.87962 16.1889 4.04286 14.2139 4.01109 12.1454C4.08812 12.1474 4.16516 12.1593 4.2422 12.1593C6.3582 12.1593 8.40417 11.3561 9.88188 9.88151C11.4626 8.30301 12.34 6.14606 12.313 4.01409C14.3289 4.08638 16.2418 4.92098 17.6646 6.34887C19.0891 7.77215 19.9203 9.68176 19.9907 11.6928ZM6.34519 6.34887C7.43252 5.25803 8.8132 4.50534 10.3201 4.18193C10.3021 5.73545 9.63476 7.30296 8.4682 8.46886C7.36368 9.57081 5.82495 10.1632 4.22819 10.1583C4.56344 8.71583 5.29685 7.39612 6.34519 6.34887Z" fill="#0D151F"/>
</svg>
