<svg width="24" height="24" viewBox="0 0 24 24" fill="none" xmlns="http://www.w3.org/2000/svg">
<path d="M2.74442 12.7216C3.27823 12.5801 3.82555 12.8986 3.96707 13.4325L4.92508 17.0478H7.42215C7.88495 17.0479 8.28747 17.366 8.39481 17.8163L9.09793 20.7685C9.22593 21.3058 8.89395 21.8454 8.35672 21.9735C7.81962 22.1014 7.28072 21.7695 7.15262 21.2323L6.63211 19.0487H4.83817L3.93192 21.3651C3.73053 21.8795 3.15029 22.133 2.63602 21.9315C2.12174 21.7301 1.86824 21.1501 2.06961 20.6356L3.10575 17.9882L2.03348 13.9452C1.89194 13.4112 2.21056 12.8632 2.74442 12.7216ZM11.3792 2.2167C11.7429 1.92858 12.2576 1.92859 12.6214 2.2167L19.3636 7.55752C19.6969 7.82179 19.8265 8.26797 19.6868 8.66982C19.5469 9.07188 19.168 9.34166 18.7425 9.3417H13.0013V13.83H15.4056C15.9578 13.83 16.4056 14.2775 16.4056 14.83C16.4055 15.3824 15.9578 15.8299 15.4056 15.83H13.0013V20.9843C13.0013 21.5367 12.5527 21.9853 12.0003 21.9853C11.448 21.985 11.0003 21.5366 11.0003 20.9843V15.83H8.595C8.04294 15.8297 7.59507 15.3822 7.595 14.83C7.595 14.2777 8.0429 13.8302 8.595 13.83H11.0003V9.3417H5.25809C4.83259 9.34158 4.4536 9.07183 4.31375 8.66982C4.17408 8.26782 4.3044 7.82174 4.63797 7.55752L11.3792 2.2167ZM20.0335 13.4169C20.175 12.8829 20.7223 12.5645 21.2561 12.706C21.79 12.8475 22.1086 13.3956 21.9671 13.9296L20.8948 17.9726L21.9309 20.62C22.1323 21.1345 21.8788 21.7145 21.3645 21.9159C20.8503 22.1173 20.27 21.8639 20.0686 21.3495L19.1624 19.0331H17.3684L16.8479 21.2167C16.7198 21.7539 16.1809 22.0858 15.6438 21.9579C15.1066 21.8298 14.7746 21.2902 14.9026 20.7528L15.6057 17.8007C15.7131 17.3503 16.1156 17.0323 16.5784 17.0321H19.0755L20.0335 13.4169ZM8.13211 7.34072H15.8684L12.0003 4.27724L8.13211 7.34072Z" fill="#0D151F"/>
</svg>
