<svg width="24" height="24" viewBox="0 0 24 24" fill="none" xmlns="http://www.w3.org/2000/svg">
<path fill-rule="evenodd" clip-rule="evenodd" d="M11.8254 3.94995C10.6022 3.94995 9.61062 4.94155 9.61062 6.16475C9.61062 7.38794 10.6022 8.37954 11.8254 8.37954C13.0486 8.37954 14.0402 7.38794 14.0402 6.16475C14.0402 4.94155 13.0486 3.94995 11.8254 3.94995ZM7.61062 6.16475C7.61062 3.83698 9.49765 1.94995 11.8254 1.94995C14.1532 1.94995 16.0402 3.83698 16.0402 6.16475C16.0402 7.26004 15.6224 8.25775 14.9375 9.00721H17.3823C17.0769 8.53661 16.8995 7.97525 16.8995 7.37247C16.8995 5.71173 18.2458 4.36544 19.9065 4.36544C21.5673 4.36544 22.9136 5.71173 22.9136 7.37247C22.9136 8.21243 22.5692 8.97195 22.0139 9.51754C22.6132 9.97424 23 10.6956 23 11.5072V19.528C23 20.9087 21.8807 22.028 20.5 22.028H9.60034C8.31811 22.028 7.26134 21.0627 7.11711 19.8192L4.53582 20.9943C2.88044 21.7479 1 20.5378 1 18.719V12.3163C1 10.4974 2.88045 9.28735 4.53582 10.0409L7.11711 11.2161C7.23105 10.2337 7.9145 9.42492 8.8287 9.12856C8.07562 8.36718 7.61062 7.32026 7.61062 6.16475ZM7.10034 13.4059L3.70717 11.8612C3.37608 11.7105 3 11.9525 3 12.3163V18.719C3 19.0827 3.37609 19.3248 3.70717 19.174L7.10034 17.6293V13.4059ZM19.9065 6.36544C19.3504 6.36544 18.8995 6.8163 18.8995 7.37247C18.8995 7.92863 19.3504 8.37949 19.9065 8.37949C20.4627 8.37949 20.9136 7.92863 20.9136 7.37247C20.9136 6.8163 20.4627 6.36544 19.9065 6.36544ZM9.60034 11.0072C9.32419 11.0072 9.10034 11.2311 9.10034 11.5072V19.528C9.10034 19.8042 9.32419 20.028 9.60034 20.028H20.5C20.7761 20.028 21 19.8042 21 19.528V11.5072C21 11.2311 20.7761 11.0072 20.5 11.0072H9.60034Z" fill="#0D151F"/>
</svg>
