<svg width="24" height="24" viewBox="0 0 24 24" fill="none" xmlns="http://www.w3.org/2000/svg">
<path fill-rule="evenodd" clip-rule="evenodd" d="M7.14375 2C6.87081 2 6.62123 2.09225 6.43919 2.27434C6.25717 2.45641 6.16499 2.70597 6.16499 2.97884V4.79163C4.96953 4.92632 4.08372 5.90227 4.08372 7.14245V7.56737C2.88825 7.70206 2.00244 8.67801 2.00244 9.91819V19.6333C2.00244 20.9702 3.03177 22 4.36872 22H9.91879C11.2557 22 12.2851 20.9702 12.2851 19.6333V9.91819C12.2851 8.67801 11.3993 7.70206 10.2038 7.56737V7.14245C10.2038 5.90227 9.31797 4.92632 8.12251 4.79163V3.95768H9.91879C10.1917 3.95768 10.4413 3.86543 10.6233 3.68335C10.8054 3.50128 10.8975 3.25172 10.8975 2.97884C10.8975 2.70597 10.8054 2.45641 10.6233 2.27434C10.4413 2.09225 10.1917 2 9.91879 2H7.14375ZM6.04124 7.14245C6.04124 6.99897 6.08781 6.90156 6.1486 6.84075C6.20938 6.77996 6.30668 6.73343 6.44999 6.73343H7.83751C7.98082 6.73343 8.07813 6.77996 8.1389 6.84075C8.19969 6.90156 8.24627 6.99897 8.24627 7.14245V7.55148H6.04124V7.14245ZM3.95996 9.91819C3.95996 9.77471 4.00654 9.6773 4.06733 9.61649C4.1281 9.5557 4.22541 9.50917 4.36872 9.50917H9.91879C10.0621 9.50917 10.1594 9.5557 10.2202 9.61649C10.281 9.6773 10.3275 9.77471 10.3275 9.91819V19.6333C10.3275 19.7768 10.281 19.8742 10.2202 19.935C10.1594 19.9958 10.0621 20.0423 9.91879 20.0423H4.36872C4.22541 20.0423 4.1281 19.9958 4.06733 19.935C4.00654 19.8742 3.95996 19.7768 3.95996 19.6333V9.91819ZM16.1626 11.5466C15.8545 11.5466 15.5947 11.6116 15.3894 11.7566C15.182 11.903 15.0623 12.1081 14.993 12.3266C14.9252 12.5405 14.9016 12.7798 14.8929 13.0161C14.8866 13.1849 14.8878 13.3667 14.889 13.5465L14.8894 13.6114L14.079 14.2001L14.0657 14.2126C13.645 14.6096 13.3426 15.1583 13.3426 15.7354V19.9211C13.3426 21.1103 14.3098 22 15.5289 22H16.7964C18.0154 22 18.9826 21.1103 18.9826 19.9211V15.7354C18.9826 15.1721 18.6911 14.5502 18.2402 14.1957L17.4359 13.6114L17.4363 13.5465V13.5465V13.5464V13.5464C17.4374 13.3667 17.4386 13.1849 17.4323 13.0161C17.4236 12.7798 17.4 12.5405 17.3322 12.3266C17.2629 12.1081 17.1432 11.903 16.9359 11.7566C16.7305 11.6116 16.4707 11.5466 16.1626 11.5466ZM15.1801 15.7354C15.1801 15.6258 15.2171 15.5542 15.265 15.509C15.3144 15.4624 15.3987 15.4223 15.5289 15.4223H16.7964C16.9265 15.4223 17.0108 15.4624 17.0602 15.509C17.1081 15.5542 17.1451 15.6258 17.1451 15.7354V19.9211C17.1451 20.0307 17.1081 20.1023 17.0602 20.1475C17.0108 20.1941 16.9265 20.2342 16.7964 20.2342H15.5289C15.3987 20.2342 15.3144 20.1941 15.265 20.1475C15.2171 20.1023 15.1801 20.0307 15.1801 19.9211V15.7354ZM21.0189 2C20.7459 2 20.4963 2.09225 20.3143 2.27434C20.1981 2.39054 20.1186 2.53423 20.0762 2.69394H18.2438C17.9709 2.69394 17.7213 2.78619 17.5393 2.96827C17.3573 3.15034 17.2651 3.3999 17.2651 3.67278V8.53032C17.2651 8.8032 17.3573 9.05276 17.5393 9.23483C17.7213 9.41691 17.9709 9.50917 18.2438 9.50917H20.0401V21.0212C20.0401 21.294 20.1323 21.5436 20.3143 21.7257C20.4963 21.9077 20.7459 22 21.0189 22C21.2918 22 21.5414 21.9077 21.7234 21.7257C21.9055 21.5436 21.9976 21.294 21.9976 21.0212V2.97884C21.9976 2.70597 21.9055 2.45641 21.7234 2.27434C21.5414 2.09225 21.2918 2 21.0189 2ZM19.2226 7.55148V4.65162H20.0401V7.55148H19.2226Z" fill="#0D151F"/>
</svg>
