<svg width="24" height="24" viewBox="0 0 24 24" fill="none" xmlns="http://www.w3.org/2000/svg">
<path fill-rule="evenodd" clip-rule="evenodd" d="M12.6824 6.04678C12.6824 4.05792 14.3227 2.59998 16.2119 2.59998C18.2484 2.59998 19.7413 4.20181 19.7413 6.04678V12.3659C19.7413 12.7252 19.5672 13.0043 19.3928 13.1746C19.2185 13.3449 18.9327 13.5149 18.5648 13.5149H12.6824V6.04678ZM16.2119 4.51487C15.356 4.51487 14.6432 5.16331 14.6432 6.04678V11.6H17.7805V6.04678C17.7805 5.21091 17.1165 4.51487 16.2119 4.51487Z" fill="#0D151F"/>
<path fill-rule="evenodd" clip-rule="evenodd" d="M4.54514 6.04678C4.54514 4.05792 6.18536 2.59998 8.07455 2.59998H16.2119C16.7533 2.59998 17.1922 3.02864 17.1922 3.55742C17.1922 4.08621 16.7533 4.51487 16.2119 4.51487C15.3072 4.51487 14.6432 5.21091 14.6432 6.04678L14.6432 19.6425C14.6432 20.1713 14.2042 20.6 13.6628 20.6H5.52553C4.98407 20.6 4.54514 20.1713 4.54514 19.6425V6.04678ZM13.0465 4.51487H8.07455C7.21865 4.51487 6.50592 5.16331 6.50592 6.04678V18.6851H12.6824L12.6824 6.04678C12.6824 5.5035 12.8118 4.9813 13.0465 4.51487Z" fill="#0D151F"/>
<path fill-rule="evenodd" clip-rule="evenodd" d="M12.8785 7.41341C12.8785 6.88463 13.3174 6.45596 13.8589 6.45596H20.8197C21.3611 6.45596 21.8 6.88463 21.8 7.41341C21.8 7.94219 21.3611 8.37086 20.8197 8.37086H13.8589C13.3174 8.37086 12.8785 7.94219 12.8785 7.41341Z" fill="#0D151F"/>
<path fill-rule="evenodd" clip-rule="evenodd" d="M1.80005 7.41341C1.80005 6.88463 2.23899 6.45596 2.78044 6.45596H4.93731C5.47876 6.45596 5.9177 6.88463 5.9177 7.41341C5.9177 7.94219 5.47876 8.37086 4.93731 8.37086H2.78044C2.23899 8.37086 1.80005 7.94219 1.80005 7.41341Z" fill="#0D151F"/>
</svg>
