<svg width="24" height="24" viewBox="0 0 24 24" fill="none" xmlns="http://www.w3.org/2000/svg">
<path d="M22.708 11.2329C22.6106 11.0381 22.5133 10.7458 22.3186 10.551C22.0265 10.1613 21.7345 9.77169 21.3451 9.38204C20.7611 8.60274 20.177 7.82344 19.4956 6.94673C19.0088 6.45967 18.6195 5.87519 18.1327 5.38813C17.646 4.80365 17.2566 4.31659 16.4779 4.12177C15.6991 3.92694 14.823 4.02435 14.0442 4.02435C11.5133 4.02435 8.88496 4.02435 6.35398 4.02435C5.57522 4.02435 4.69912 4.02435 3.82301 4.02435C3.53097 4.02435 3.33628 4.02435 3.04425 4.02435C2.46018 4.02435 1.97345 4.21918 1.58407 4.60883C1.19469 4.99848 1 5.58295 1 6.07002V14.9346C1 15.519 1.19469 16.0061 1.58407 16.3957C1.97345 16.7854 2.46018 16.9802 3.04425 16.9802C3.04425 17.7595 3.33628 18.4414 3.92035 19.1233C4.50442 19.7078 5.28319 20 6.06195 20C6.84071 20 7.61947 19.7078 8.20354 19.1233C8.78761 18.5388 9.07965 17.8569 9.07965 16.9802H14.9204C14.9204 17.7595 15.2124 18.5388 15.7965 19.1233C16.3805 19.7078 17.0619 20 17.9381 20C18.8142 20 19.4956 19.7078 20.0796 19.1233C20.6637 18.5388 20.9558 17.8569 20.9558 16.9802C21.5398 16.9802 22.0265 16.7854 22.4159 16.3957C22.8053 16.0061 23 15.519 23 14.9346V11.8174C22.9027 11.6225 22.8053 11.3303 22.708 11.2329ZM15.0177 6.26484H15.8938L18.8142 10.0639H15.0177V6.26484ZM9.07965 6.26484H12.8761V10.1613H9.07965V6.26484ZM3.14159 6.26484H6.93805V10.1613H3.14159V6.26484ZM6.84071 17.8569C6.64602 18.0517 6.35398 18.1492 6.06195 18.1492C5.76991 18.1492 5.47788 18.0517 5.18584 17.8569C4.99115 17.5647 4.89381 17.3699 4.89381 16.9802C4.89381 16.688 4.99115 16.3957 5.18584 16.1035C5.38053 15.9087 5.67257 15.8113 5.9646 15.8113C6.25664 15.8113 6.54867 15.9087 6.84071 16.1035C7.0354 16.2983 7.13274 16.5906 7.13274 16.8828C7.13274 17.3699 7.0354 17.5647 6.84071 17.8569ZM18.7168 17.8569C18.5221 18.0517 18.2301 18.1492 17.9381 18.1492C17.646 18.1492 17.354 18.0517 17.0619 17.8569C16.8673 17.6621 16.7699 17.3699 16.7699 17.0776C16.7699 16.7854 16.8673 16.4932 17.0619 16.2009C17.2566 16.0061 17.5487 15.9087 17.8407 15.9087C18.1327 15.9087 18.4248 16.0061 18.7168 16.2009C18.9115 16.3957 19.0089 16.688 19.0089 16.9802V17.0776C19.0089 17.2725 18.9115 17.5647 18.7168 17.8569ZM20.7611 14.9346H20.0796C19.7876 14.6423 19.4956 14.3501 19.1062 14.2527C18.7168 14.0578 18.3274 13.9604 17.8407 13.9604C17.4513 13.9604 16.9646 14.0578 16.5752 14.2527C16.2832 14.4475 15.8938 14.6423 15.6018 14.9346H8.30088C8.00885 14.5449 7.71681 14.3501 7.23009 14.1553C6.84071 13.9604 6.45133 13.863 6.06195 13.863C5.67257 13.863 5.18584 13.9604 4.79646 14.1553C4.50442 14.3501 4.11504 14.5449 3.82301 14.8371H3.14159V12.1096H20.7611V14.9346Z" fill="#0D151F"/>
</svg>
