<svg width="24" height="24" viewBox="0 0 24 24" fill="none" xmlns="http://www.w3.org/2000/svg">
<path fill-rule="evenodd" clip-rule="evenodd" d="M2 5C2 3.34315 3.34315 2 5 2H19C20.6569 2 22 3.34315 22 5V19C22 20.6569 20.6569 22 19 22H5C3.34315 22 2 20.6569 2 19V5ZM5 4C4.44772 4 4 4.44772 4 5V19C4 19.5523 4.44772 20 5 20H19C19.5523 20 20 19.5523 20 19V5C20 4.44772 19.5523 4 19 4H5ZM5.76182 8.23768C5.76182 7.68539 6.20954 7.23768 6.76182 7.23768H13.3314C13.8836 7.23768 14.3314 7.68539 14.3314 8.23768C14.3314 8.78996 13.8836 9.23768 13.3314 9.23768H11.0466V15.6577C11.0466 16.21 10.5989 16.6577 10.0466 16.6577C9.4943 16.6577 9.04659 16.21 9.04659 15.6577V9.23768H6.76182C6.20954 9.23768 5.76182 8.78996 5.76182 8.23768ZM13.834 10.3457C13.834 9.79342 14.2817 9.34571 14.834 9.34571C15.2783 9.34571 15.655 9.63547 15.7853 10.0363C15.8007 10.0324 15.8157 10.0286 15.8304 10.0251C16.082 9.96399 16.3504 9.93043 16.5815 9.93043C16.7515 9.93043 16.9232 9.94269 17.0919 9.97289C17.2576 10.002 17.4196 10.0467 17.5773 10.1035C18.0969 10.2908 18.3663 10.8638 18.179 11.3834C17.9917 11.9029 17.4187 12.1723 16.8991 11.985C16.8371 11.9627 16.7862 11.9498 16.7455 11.9427L16.74 11.9417C16.7091 11.9361 16.6578 11.9304 16.5815 11.9304C16.5251 11.9304 16.4153 11.9412 16.302 11.9686C16.2485 11.9816 16.208 11.9951 16.1819 12.0057C16.1794 12.0068 16.1771 12.0077 16.1751 12.0086C16.1005 12.0692 16.0214 12.1637 15.9492 12.3218L15.9472 12.326C15.8796 12.4723 15.834 12.6618 15.834 12.9146V15.7624C15.834 16.3147 15.3863 16.7624 14.834 16.7624C14.2817 16.7624 13.834 16.3147 13.834 15.7624V10.3457Z" fill="#0D151F"/>
</svg>
