<svg width="24" height="24" viewBox="0 0 24 24" fill="none" xmlns="http://www.w3.org/2000/svg">
<path fill-rule="evenodd" clip-rule="evenodd" d="M2 4.72721C2 4.22513 2.40701 3.81812 2.90909 3.81812H21.0909C21.593 3.81812 22 4.22513 22 4.72721V15.5404C22 16.0425 21.593 16.4495 21.0909 16.4495H2.90909C2.40701 16.4495 2 16.0425 2 15.5404V4.72721ZM3.81818 5.6363V14.6313H20.1818V5.6363H3.81818Z" fill="#0D151F"/>
<path fill-rule="evenodd" clip-rule="evenodd" d="M12 15.0111C12.5021 15.0111 12.9091 15.4181 12.9091 15.9202V18.3636H15.3313C15.8334 18.3636 16.2404 18.7706 16.2404 19.2727C16.2404 19.7748 15.8334 20.1818 15.3313 20.1818H8.66873C8.16666 20.1818 7.75964 19.7748 7.75964 19.2727C7.75964 18.7706 8.16666 18.3636 8.66873 18.3636H11.0909V15.9202C11.0909 15.4181 11.4979 15.0111 12 15.0111Z" fill="#0D151F"/>
</svg>
