<svg width="24" height="24" viewBox="0 0 24 24" fill="none" xmlns="http://www.w3.org/2000/svg">
<path fill-rule="evenodd" clip-rule="evenodd" d="M12 2.73628C11.4752 2.27454 10.7787 2 9.99766 2H6.99854C5.29903 2 3.99941 3.3 3.99941 5V6.9L2 15.8V20C2 21.1 2.89974 22 3.99941 22H10.9974C11.3621 22 11.7048 21.901 12 21.7285C12.2952 21.901 12.6379 22 13.0026 22H20.0006C21.1003 22 22 21.1 22 20V15.8L20.0006 6.9V5C20.0006 3.3 18.701 2 17.0015 2H14.0023C13.2213 2 12.5248 2.27454 12 2.73628ZM10.9974 8H5.79889L4.19936 15H10.9974V8ZM6.99854 4C6.39871 4 5.99883 4.4 5.99883 5V6H10.9974V5C10.9974 4.4 10.5975 4 9.99766 4H6.99854ZM3.99941 17V20H10.9974V17H3.99941ZM13.0026 8H18.2011L19.8006 15H13.0026V8ZM17.0015 4C17.6013 4 18.0012 4.4 18.0012 5V6H13.0026V5C13.0026 4.4 13.4025 4 14.0023 4H17.0015ZM20.0006 17V20H13.0026V17H20.0006Z" fill="#0D151F"/>
</svg>
