<svg width="24" height="24" viewBox="0 0 24 24" fill="none" xmlns="http://www.w3.org/2000/svg">
<path fill-rule="evenodd" clip-rule="evenodd" d="M2.71338 6C2.71338 3.79086 4.50424 2 6.71338 2H17.2864C19.4955 2 21.2864 3.79086 21.2864 6V18C21.2864 20.2091 19.4955 22 17.2864 22H6.71338C4.50424 22 2.71338 20.2091 2.71338 18V6ZM6.71338 4C5.60881 4 4.71338 4.89543 4.71338 6V15.5H19.2864V6C19.2864 4.89543 18.391 4 17.2864 4H6.71338ZM19.2864 17.5H15.0715V20H17.2864C18.391 20 19.2864 19.1046 19.2864 18V17.5ZM13.0715 20V17.5H10.9283V20H13.0715ZM8.92826 20V17.5H4.71338V18C4.71338 19.1046 5.60881 20 6.71338 20H8.92826ZM6.21123 6.75C6.21123 5.92158 6.88281 5.25 7.71123 5.25H11.2887C12.1172 5.25 12.7887 5.92158 12.7887 6.75V12.9418C12.7887 13.7702 12.1172 14.4418 11.2887 14.4418H7.71123C6.88281 14.4418 6.21123 13.7702 6.21123 12.9418V6.75ZM8.21123 7.25V12.4418H10.7887V7.25H8.21123ZM15.6237 6.96854C15.6237 6.41625 16.0714 5.96854 16.6237 5.96854H16.6335C17.1858 5.96854 17.6335 6.41625 17.6335 6.96854C17.6335 7.52082 17.1858 7.96854 16.6335 7.96854H16.6237C16.0714 7.96854 15.6237 7.52082 15.6237 6.96854ZM15.6237 9.89352C15.6237 9.34124 16.0714 8.89352 16.6237 8.89352H16.6335C17.1858 8.89352 17.6335 9.34124 17.6335 9.89352C17.6335 10.4458 17.1858 10.8935 16.6335 10.8935H16.6237C16.0714 10.8935 15.6237 10.4458 15.6237 9.89352Z" fill="#0D151F"/>
</svg>
