<svg width="24" height="24" viewBox="0 0 24 24" fill="none" xmlns="http://www.w3.org/2000/svg">
<path fill-rule="evenodd" clip-rule="evenodd" d="M10.6623 3.48679C11.2179 2.39177 12.782 2.39177 13.3376 3.48679L16.2242 9.17572L20.0951 5.8076C21.2154 4.8328 22.9193 5.90423 22.5262 7.33628L19.9118 16.8601V18.9395C19.9118 20.5963 18.5686 21.9395 16.9118 21.9395H7.08814C5.43128 21.9395 4.08814 20.5963 4.08814 18.9395V16.8601L1.47372 7.33628C1.0806 5.90422 2.78454 4.83281 3.90483 5.8076L7.7757 9.17572L10.6623 3.48679ZM6.08814 17.7253V18.9395C6.08814 19.4917 6.53585 19.9395 7.08814 19.9395H16.9118C17.4641 19.9395 17.9118 19.4917 17.9118 18.9395V17.7253H6.08814ZM18.1493 15.7253L20.1595 8.40271L17.0532 11.1055C16.3163 11.7467 15.1729 11.5238 14.7309 10.6527L12 5.27052L9.26902 10.6527C8.82702 11.5238 7.68363 11.7467 6.94674 11.1055L3.84046 8.40271L5.85062 15.7253H18.1493Z" fill="#0D151F"/>
</svg>
