<svg width="24" height="24" viewBox="0 0 24 24" fill="none" xmlns="http://www.w3.org/2000/svg">
<path fill-rule="evenodd" clip-rule="evenodd" d="M12.6368 2.1178C12.2262 1.96073 11.7738 1.96073 11.3632 2.1178L3.18134 5.24709C2.8237 5.38388 2.52363 5.62964 2.31571 5.94187C2.10815 6.25354 2 6.61935 2 6.98985V8.1453C1.59387 8.23422 1.20542 8.40594 0.875194 8.66216C0.360846 9.06125 0 9.66479 0 10.3668V11.6601C0 12.3621 0.360847 12.9656 0.875194 13.3647C1.21276 13.6266 1.61116 13.8002 2.02709 13.8873C2.29 16.8408 4.42195 18.7789 6.45485 19.9668C8.64458 21.2462 10.9727 21.8158 11.6201 21.9585L11.619 21.9583H12.381C13.03 21.8151 15.3567 21.2455 17.5452 19.9668C19.5781 18.7789 21.71 16.8408 21.9729 13.8873C22.3888 13.8002 22.7872 13.6266 23.1248 13.3647C23.6392 12.9656 24 12.3621 24 11.6601V10.3668C24 9.66479 23.6392 9.06125 23.1248 8.66217C22.7946 8.40594 22.4061 8.23422 22 8.1453V6.98985C22 6.61935 21.8918 6.25354 21.6843 5.94187C21.4764 5.62964 21.1763 5.38388 20.8187 5.24709L12.6368 2.1178ZM4 13.2715C4 15.5093 5.52267 17.1057 7.46385 18.2399C8.24852 18.6984 9.06105 19.0557 9.78706 19.3265C10.791 19.7011 11.6294 19.9105 12 19.9941C12.0743 19.9773 12.1674 19.9555 12.2769 19.9283C13.1083 19.7218 14.884 19.2053 16.5362 18.2399C18.4773 17.1057 20 15.5093 20 13.2715V7.07527L12 4.01552L11.4709 4.21788L4 7.07527V11.017V13.2715Z" fill="#0D151F"/>
<path d="M7.88425 13.161C7.33359 13.1188 6.85293 13.5309 6.81067 14.0816C6.76841 14.6322 7.18056 15.1129 7.73122 15.1552L10.3932 15.3594C10.9432 15.4017 11.4945 15.4222 12.0457 15.421C12.5665 15.4198 13.0872 15.3993 13.6069 15.3594L16.2689 15.1552C16.8196 15.1129 17.2317 14.6322 17.1895 14.0816C17.1472 13.5309 16.6665 13.1188 16.1159 13.161L13.4539 13.3653C12.951 13.4039 12.447 13.4224 11.943 13.4209C11.4771 13.4195 11.0112 13.401 10.5463 13.3653L7.88425 13.161Z" fill="#0D151F"/>
<path d="M7.95944 10.5343L9.11768 10.3566C9.99838 10.2214 10.8862 10.1485 11.7746 10.138C12.8133 10.1257 13.8527 10.1985 14.8824 10.3566L16.0407 10.5343C16.5866 10.6181 17.097 10.2435 17.1808 9.6976C17.2646 9.1517 16.89 8.64125 16.3441 8.55747L15.1859 8.3797C14.0217 8.20103 12.8463 8.12086 11.6721 8.1392C10.7165 8.15413 9.76164 8.2343 8.81427 8.3797L7.65603 8.55747C7.11014 8.64125 6.73553 9.1517 6.81931 9.6976C6.9031 10.2435 7.41355 10.6181 7.95944 10.5343Z" fill="#0D151F"/>
</svg>
