<svg width="24" height="24" viewBox="0 0 24 24" fill="none" xmlns="http://www.w3.org/2000/svg">
<path fill-rule="evenodd" clip-rule="evenodd" d="M7.97719 2.53372C8.23752 3.0208 8.05369 3.6267 7.56661 3.88702C6.62111 4.39235 5.76215 5.05538 5.02218 5.84486C4.64449 6.24782 4.01166 6.2683 3.6087 5.89061C3.20575 5.51293 3.18527 4.8801 3.56295 4.47714C4.44871 3.53213 5.48115 2.73388 6.62389 2.12314C7.11097 1.86281 7.71687 2.04664 7.97719 2.53372ZM16.0227 2.53372C16.283 2.04664 16.8889 1.86281 17.376 2.12314C18.5187 2.73388 19.5512 3.53213 20.4369 4.47714C20.8146 4.8801 20.7941 5.51293 20.3912 5.89061C19.9882 6.2683 19.3554 6.24782 18.9777 5.84486C18.2377 5.05538 17.3788 4.39235 16.4333 3.88702C15.9462 3.6267 15.7624 3.0208 16.0227 2.53372ZM11.9999 5.68192C8.17405 5.68192 5.05542 8.81754 5.05542 12.7068C5.05542 16.596 8.17405 19.7316 11.9999 19.7316C15.8258 19.7316 18.9445 16.596 18.9445 12.7068C18.9445 8.81754 15.8258 5.68192 11.9999 5.68192ZM3.05542 12.7068C3.05542 7.73199 7.05055 3.68192 11.9999 3.68192C16.9493 3.68192 20.9445 7.73199 20.9445 12.7068C20.9445 15.4674 19.7142 17.9433 17.7732 19.6004L18.4311 20.2571C18.822 20.6473 18.8226 21.2805 18.4324 21.6714C18.0422 22.0622 17.4091 22.0628 17.0182 21.6726L16.0829 20.739C14.8597 21.3734 13.472 21.7316 11.9999 21.7316C10.4971 21.7316 9.08215 21.3582 7.84038 20.6988L6.86485 21.6726C6.47398 22.0628 5.84082 22.0622 5.45064 21.6714C5.06047 21.2805 5.06103 20.6473 5.45191 20.2571L6.16396 19.5464C4.25926 17.8898 3.05542 15.4376 3.05542 12.7068ZM11.6477 7.74163C12.2 7.74163 12.6477 8.18934 12.6477 8.74163V12.334C12.6477 12.5483 12.7275 12.7553 12.8721 12.9147C12.8721 12.9147 12.8722 12.9147 12.8722 12.9147L14.9969 15.256C15.368 15.665 15.3374 16.2974 14.9284 16.6686C14.5194 17.0397 13.887 17.0091 13.5158 16.6001L11.3911 14.2588L11.3911 14.2587C10.9128 13.7317 10.6477 13.0458 10.6477 12.334V8.74163C10.6477 8.18934 11.0954 7.74163 11.6477 7.74163Z" fill="#0D151F"/>
</svg>
