<svg width="24" height="24" viewBox="0 0 24 24" fill="none" xmlns="http://www.w3.org/2000/svg">
<path fill-rule="evenodd" clip-rule="evenodd" d="M1.99365 4.99227C1.99365 3.33618 3.33618 1.99365 4.99227 1.99365H18.995C20.6511 1.99365 21.9937 3.33618 21.9937 4.99227V18.995C21.9937 20.6511 20.6511 21.9937 18.995 21.9937H4.99227C3.33618 21.9937 1.99365 20.6511 1.99365 18.995V4.99227ZM4.99227 3.99365C4.44075 3.99365 3.99365 4.44075 3.99365 4.99227V6.8754H19.9937V4.99227C19.9937 4.44075 19.5466 3.99365 18.995 3.99365H4.99227ZM19.9937 8.8754H3.99365V18.995C3.99365 19.5466 4.44075 19.9937 4.99227 19.9937H18.995C19.5466 19.9937 19.9937 19.5466 19.9937 18.995V8.8754ZM4.73077 5.40556C4.73077 4.85327 5.17849 4.40556 5.73077 4.40556C6.28306 4.40556 6.73177 4.85327 6.73177 5.40556C6.73177 5.95784 6.28406 6.40556 5.73177 6.40556C5.17949 6.40556 4.73077 5.95784 4.73077 5.40556ZM7.48375 5.40556C7.48375 4.85327 7.93147 4.40556 8.48375 4.40556C9.03604 4.40556 9.48475 4.85327 9.48475 5.40556C9.48475 5.95784 9.03704 6.40556 8.48475 6.40556C7.93247 6.40556 7.48375 5.95784 7.48375 5.40556ZM9.38622 13.343C10.035 13.1355 10.7139 13.029 11.3991 13.029C11.8647 13.029 12.329 13.0782 12.7843 13.1758L13.8028 13.3942C13.9428 13.4242 14.0855 13.4393 14.2286 13.4393C14.3618 13.4393 14.4944 13.4262 14.6244 13.4004C14.2104 12.353 13.1881 11.6117 11.9935 11.6117C10.8206 11.6117 9.81445 12.3258 9.38622 13.343ZM14.6474 15.4175C14.5085 15.432 14.3687 15.4393 14.2286 15.4393C13.9445 15.4393 13.6613 15.4093 13.3836 15.3497L12.3651 15.1314C12.0476 15.0633 11.7238 15.029 11.3991 15.029C10.6959 15.029 10.0022 15.1899 9.37098 15.4993C9.79027 16.5356 10.8071 17.267 11.9935 17.267C13.2113 17.267 14.2493 16.4971 14.6474 15.4175ZM7.16586 14.4393C7.16586 11.7731 9.32726 9.61167 11.9935 9.61167C14.4855 9.61167 16.5354 11.4991 16.7938 13.923C16.8119 14.093 16.8211 14.2652 16.8211 14.4393C16.8211 17.1055 14.6597 19.267 11.9935 19.267C9.55116 19.267 7.53388 17.4543 7.21088 15.1005C7.18115 14.8839 7.16586 14.6631 7.16586 14.4393Z" fill="#0D151F"/>
</svg>
