<svg width="24" height="24" viewBox="0 0 24 24" fill="none" xmlns="http://www.w3.org/2000/svg">
<path fill-rule="evenodd" clip-rule="evenodd" d="M5.81062 3.81818V20.1818H18.1894V3.81818H5.81062ZM4 3.81818C4 2.83179 4.78486 2 5.79215 2H18.2079C19.2151 2 20 2.83179 20 3.81818V20.1818C20 21.1682 19.2151 22 18.2079 22H5.79215C4.78486 22 4 21.1682 4 20.1818V3.81818Z" fill="#0D151F"/>
<path fill-rule="evenodd" clip-rule="evenodd" d="M4 8.13639C4 7.63431 4.40532 7.22729 4.90531 7.22729H19.0947C19.5947 7.22729 20 7.63431 20 8.13639C20 8.63846 19.5947 9.04548 19.0947 9.04548H4.90531C4.40532 9.04548 4 8.63846 4 8.13639Z" fill="#0D151F"/>
<path d="M13.7737 6.54548C14.2635 6.54548 14.6605 6.13846 14.6605 5.63639C14.6605 5.13431 14.2635 4.72729 13.7737 4.72729C13.2839 4.72729 12.8868 5.13431 12.8868 5.63639C12.8868 6.13846 13.2839 6.54548 13.7737 6.54548Z" fill="#0D151F"/>
<path d="M16.4342 6.54548C16.924 6.54548 17.321 6.13846 17.321 5.63639C17.321 5.13431 16.924 4.72729 16.4342 4.72729C15.9444 4.72729 15.5474 5.13431 15.5474 5.63639C15.5474 6.13846 15.9444 6.54548 16.4342 6.54548Z" fill="#0D151F"/>
<path fill-rule="evenodd" clip-rule="evenodd" d="M12.0001 12.4545C10.8033 12.4545 9.80147 13.4543 9.80147 14.7273C9.80147 16.0002 10.8033 17 12.0001 17C13.1968 17 14.1987 16.0002 14.1987 14.7273C14.1987 13.4543 13.1968 12.4545 12.0001 12.4545ZM7.99084 14.7273C7.99084 12.4857 9.76833 10.6364 12.0001 10.6364C14.2318 10.6364 16.0093 12.4857 16.0093 14.7273C16.0093 16.9688 14.2318 18.8182 12.0001 18.8182C9.76833 18.8182 7.99084 16.9688 7.99084 14.7273Z" fill="#0D151F"/>
</svg>
