<svg width="24" height="24" viewBox="0 0 24 24" fill="none" xmlns="http://www.w3.org/2000/svg">
<path d="M7.19584 2C5.98991 2 5.01049 2.9752 5.01049 4.1807C5.01049 4.95234 5.41204 5.6299 6.01753 6.01748C5.90087 6.0541 5.78788 6.10121 5.67889 6.1596C5.07204 6.48466 4.73436 7.08099 4.53768 7.7467L4.52787 7.77989L4.52195 7.81399C4.34847 8.81341 4.26105 9.361 4.18955 10.4996C4.08962 11.6809 4.21976 12.9707 4.74167 13.872C5.01098 14.337 5.40605 14.7325 5.95584 14.9127C6.5054 15.0928 7.11589 15.027 7.75585 14.7537L7.76486 14.7497C8.68931 14.3368 9.34488 14.1469 9.80763 14.1004C10.2578 14.0551 10.4692 14.1493 10.587 14.2462C10.7224 14.3577 10.8461 14.5638 10.9475 14.9446C11.0487 15.3247 11.1058 15.7876 11.1732 16.346L11.1743 16.3554C11.2316 16.8298 11.2955 17.3595 11.4045 17.8938L11.4353 18.0448C9.95573 18.566 8.44684 19.0179 6.71586 19.5185L6.36676 19.6195L4.93882 19.0024C4.17898 18.6741 3.31711 18.6741 2.55727 19.0024L2.00073 19.2429V21.4202L3.35112 20.8367C3.6044 20.7273 3.89169 20.7273 4.14497 20.8367L6.26714 21.7537C7.02698 22.0821 7.88885 22.0821 8.64869 21.7537L10.7709 20.8367C11.0241 20.7273 11.3114 20.7273 11.5647 20.8367L13.6869 21.7537C14.4467 22.0821 15.3086 22.0821 16.0684 21.7537L18.1906 20.8367C18.4439 20.7273 18.7312 20.7273 18.9845 20.8367L21.1066 21.7537C21.392 21.8771 21.6919 21.9541 21.9953 21.9848V19.9548C21.9632 19.9447 21.9316 19.9329 21.9005 19.9194L19.7783 19.0024C19.0185 18.6741 18.1566 18.6741 17.3967 19.0024L15.2746 19.9194C15.0213 20.0289 14.734 20.0289 14.4807 19.9194L13.6385 19.5555C15.6435 18.8298 17.642 17.9248 20.1437 16.5007L20.6104 16.2351L19.7228 14.1791L19.1427 14.5025C17.3748 15.488 15.854 16.2449 14.421 16.8709C14.3638 16.6303 14.311 16.3409 14.2495 16.0023L14.2377 15.9372C14.038 14.8371 13.7524 13.2639 12.8905 12.1767C12.431 11.5971 11.8038 11.1463 10.9574 10.9684C10.3118 10.8327 9.57171 10.8627 8.72268 11.0755C8.70311 10.4629 8.7185 9.94458 8.89358 9.35832C10.2897 9.38878 11.848 9.32121 13.6404 9.1151C13.6581 9.66305 14.1014 10.1066 14.7234 10.1234L14.7316 10.1236H21.9991V8.03966H15.8924C15.9191 7.93392 15.9307 7.82238 15.9254 7.70665C15.9108 7.38965 15.7607 7.08672 15.4926 6.87977C15.2283 6.67571 14.8912 6.59489 14.5361 6.62061C12.0176 6.72412 10.1482 6.49847 8.13625 6.14964C8.87221 5.79896 9.38119 5.04945 9.38119 4.1807C9.38119 2.9752 8.40176 2 7.19584 2Z" fill="#0D151F"/>
</svg>
