<svg width="24" height="24" viewBox="0 0 24 24" fill="none" xmlns="http://www.w3.org/2000/svg">
<path d="M18.4927 6.83838C17.6455 3.96822 15.0304 2 11.9845 2C8.23118 2 5.17732 5.05097 5.17732 8.79993C5.17732 8.87087 5.17937 8.94197 5.18219 9.01432C3.33017 9.49458 1.99988 11.1758 1.99988 13.1524C1.99988 15.5099 3.9208 17.4282 6.28258 17.4282C6.6321 17.4282 6.9154 17.1449 6.9154 16.7954C6.9154 16.4459 6.6321 16.1626 6.28258 16.1626C4.61892 16.1626 3.26617 14.8125 3.26617 13.1533C3.26617 11.612 4.41364 10.326 5.93527 10.1615C6.10619 10.1433 6.26219 10.056 6.36768 9.91962C6.47252 9.78385 6.51819 9.61089 6.49355 9.44012C6.46043 9.21584 6.44427 9.00064 6.44427 8.80103C6.44427 5.74946 8.92987 3.26715 11.985 3.26715C14.5872 3.26715 16.8029 5.03065 17.3726 7.55547C17.4338 7.82684 17.6652 8.02665 17.9428 8.04702C20.0431 8.20523 21.6884 9.98832 21.6884 12.1055C21.6884 13.1582 21.2847 14.1559 20.5521 14.9132C20.3088 15.1642 20.3151 15.565 20.5669 15.8077C20.8186 16.0503 21.2201 16.0453 21.4613 15.7929C22.4239 14.798 22.9549 13.4881 22.9549 12.1049C22.9535 9.48386 21.0283 7.25328 18.493 6.83782L18.4927 6.83838Z" fill="#0D151F"/>
<path d="M11.275 4.51726C9.93907 4.73731 8.76556 5.58812 8.13478 6.79257C7.97313 7.10192 8.09256 7.48441 8.4027 7.64686C8.49624 7.69535 8.59606 7.71921 8.69525 7.71921C8.92314 7.71921 9.14381 7.59554 9.25712 7.37957C9.70363 6.52593 10.5355 5.9226 11.4811 5.76582C11.8264 5.70884 12.0592 5.38333 12.0022 5.03881C11.9459 4.69305 11.6188 4.45478 11.275 4.51726Z" fill="#0D151F"/>
<path d="M16.9044 14.0228H10.7152C10.3657 14.0228 10.0824 14.3061 10.0824 14.6557C10.0824 15.0052 10.3657 15.2885 10.7152 15.2885H16.9044C17.924 15.2885 18.7544 14.4581 18.7544 13.4385C18.7544 12.419 17.924 11.5894 16.9044 11.5894C16.2829 11.5894 15.7063 11.9009 15.3617 12.4226C15.1698 12.7137 15.2492 13.1067 15.541 13.2995C15.8321 13.4908 16.2259 13.4106 16.4178 13.1202C16.5268 12.955 16.7096 12.8559 16.9044 12.8559C17.2264 12.8559 17.4879 13.1176 17.4879 13.4388C17.4879 13.7614 17.2263 14.0228 16.9044 14.0228H16.9044Z" fill="#0D151F"/>
<path d="M14.4287 18.3015H10.1942C9.8447 18.3015 9.5614 18.5847 9.5614 18.9343C9.5614 19.2838 9.8447 19.5671 10.1942 19.5671H14.4685C14.4784 19.5671 14.4881 19.5665 14.498 19.5665C14.8067 19.5812 15.0542 19.8372 15.0542 20.15C15.0542 20.472 14.792 20.7335 14.4699 20.7335C14.2731 20.7335 14.0902 20.6351 13.9805 20.4698C13.7886 20.1787 13.3962 20.0986 13.1037 20.292C12.8125 20.4847 12.7331 20.8777 12.9258 21.1689C13.2697 21.6886 13.8476 21.9999 14.4699 21.9999C15.4901 21.9999 16.3205 21.1695 16.3205 20.15C16.3207 19.1164 15.4735 18.2495 14.4285 18.3014L14.4287 18.3015Z" fill="#0D151F"/>
<path d="M10.2238 16.7968C10.2238 16.4472 9.94047 16.1639 9.59094 16.1639H8.69728C8.34775 16.1639 8.06445 16.4472 8.06445 16.7968C8.06445 17.1463 8.34775 17.4296 8.69728 17.4296H9.59094C9.94047 17.4304 10.2238 17.1463 10.2238 16.7968Z" fill="#0D151F"/>
<path d="M18.4683 16.1639H11.7962C11.4466 16.1639 11.1633 16.4472 11.1633 16.7968C11.1633 17.1463 11.4466 17.4296 11.7962 17.4296H18.4683C18.7896 17.4296 19.0512 17.6912 19.0512 18.0125C19.0512 18.3338 18.7896 18.5954 18.4683 18.5954C18.2707 18.5954 18.0864 18.4962 17.9768 18.3311C17.784 18.04 17.3924 17.9606 17.0999 18.1533C16.8087 18.346 16.7293 18.739 16.9221 19.0302C17.2666 19.5504 17.8453 19.862 18.4683 19.862C19.4879 19.862 20.3175 19.0324 20.3175 18.0128C20.3175 16.993 19.4879 16.1639 18.4683 16.1639Z" fill="#0D151F"/>
</svg>
