<svg width="24" height="24" viewBox="0 0 24 24" fill="none" xmlns="http://www.w3.org/2000/svg">
<path fill-rule="evenodd" clip-rule="evenodd" d="M6.34826 2.13677L5.57834 2.06973C5.20927 2.0376 4.93465 2.40397 5.06902 2.74921L9.80453 14.9159L7.04158 14.9842C6.504 14.9975 6.07904 15.4442 6.09255 15.9818V15.9818C6.10605 16.5191 6.55249 16.9438 7.08981 16.9304L15.6376 16.7182C16.1751 16.7048 16.6 16.2582 16.5865 15.7206V15.7206C16.573 15.1833 16.1265 14.7586 15.5892 14.772L13.7378 14.8181L18.0411 12.862C18.4417 12.6799 18.6745 12.2558 18.6131 11.82V11.82L18.6123 11.8155C18.027 8.20327 15.6873 5.38054 11.8711 3.65147C10.1198 2.8658 8.25676 2.35479 6.34826 2.13677ZM17.4848 18.7157C17.4804 18.5946 17.381 18.4988 17.2598 18.4988H15.7541C15.6334 18.4988 15.5342 18.5939 15.5291 18.7145V18.7145C15.5152 19.047 15.3749 19.3618 15.1366 19.5953C14.8983 19.8289 14.5798 19.9637 14.2455 19.9725L14.2417 19.9727C14.0794 19.9798 13.9173 19.9543 13.765 19.8979C13.6127 19.8415 13.4734 19.7553 13.3552 19.6444C13.237 19.5334 13.1424 19.4 13.0769 19.2521C13.0115 19.1041 12.9765 18.9445 12.9741 18.7829V18.7829C12.9723 18.6599 12.8721 18.5611 12.749 18.5611H11.2006C11.0751 18.5611 10.9739 18.6636 10.9755 18.7891V18.7891C10.9775 18.9479 10.9473 19.1056 10.8867 19.2525C10.8261 19.3995 10.7363 19.5328 10.6227 19.6445C10.5092 19.7561 10.3741 19.8438 10.2257 19.9024C10.0774 19.9608 9.91886 19.9889 9.75945 19.9851C9.42439 19.975 9.10562 19.8388 8.86738 19.6042C8.62903 19.3694 8.48903 19.0533 8.47563 18.7199V18.7199C8.47078 18.5991 8.3715 18.5037 8.25066 18.5037H6.7449C6.62388 18.5037 6.5245 18.5994 6.51991 18.7203V18.7203C6.50718 19.0557 6.36759 19.3739 6.12911 19.6112C5.89062 19.8485 5.57066 19.9874 5.23363 20.0001C5.07257 20.0063 4.91188 19.9807 4.7608 19.9249C4.60971 19.869 4.47122 19.784 4.3533 19.6746C4.23537 19.5653 4.14034 19.4339 4.07367 19.2879C4.00701 19.1418 3.97002 18.9841 3.96484 18.8238V18.8238C3.96083 18.6998 3.85715 18.6023 3.73306 18.606L2.22721 18.651C2.1021 18.6547 2.00408 18.7598 2.00907 18.8849V18.8849C2.03462 19.5246 2.25139 20.1422 2.63163 20.6587C3.01188 21.1751 3.53833 21.567 4.14361 21.784C4.7489 22.0011 5.40551 22.0336 6.02944 21.8773C6.57454 21.7407 7.07304 21.4655 7.47693 21.0804C7.74487 21.3383 8.05636 21.5482 8.39773 21.7002C8.81269 21.8849 9.26234 21.9799 9.71693 21.9788C10.1723 21.9842 10.6234 21.891 11.0389 21.7056C11.3796 21.5536 11.6897 21.3426 11.955 21.0831C12.2217 21.34 12.5314 21.5498 12.8707 21.7027C13.2852 21.8894 13.7347 21.9869 14.1897 21.9889C14.6446 21.991 15.0949 21.8974 15.5111 21.7144C15.8531 21.564 16.1657 21.356 16.4355 21.1001C16.7053 21.3602 17.0195 21.5715 17.364 21.7239C17.7812 21.9084 18.2333 22.0021 18.6898 21.9987C19.1134 22.0106 19.5352 21.9391 19.9309 21.7882C20.328 21.6369 20.691 21.4086 20.9988 21.1168C21.3067 20.8249 21.5533 20.4752 21.7244 20.0879C21.8956 19.7006 21.9878 19.2833 21.9958 18.8603V18.8603C21.9981 18.7375 21.9017 18.6356 21.779 18.6311L20.2732 18.5762C20.1482 18.5716 20.0435 18.6697 20.0399 18.7947V18.7947C20.0305 19.1215 19.8913 19.4312 19.6529 19.6562C19.4149 19.8808 19.0972 20.0026 18.7692 19.995C18.4326 19.9825 18.1132 19.8439 17.875 19.6069C17.6365 19.3695 17.4971 19.0511 17.4848 18.7157V18.7157ZM7.8057 4.34324L11.4488 13.7043L16.5439 11.3872C15.9178 8.93475 14.291 7.29127 12.4943 6.19009C10.8417 5.17726 9.05595 4.63049 7.8057 4.34324Z" fill="#0D151F"/>
</svg>
