<svg width="24" height="24" viewBox="0 0 24 24" fill="none" xmlns="http://www.w3.org/2000/svg">
<path d="M12.8926 2H10.9091C9.81818 2 8.92562 2.9 8.92562 4V5.4C7.73554 5.9 6.7438 7.2 6.54545 8.7L6.24793 11.2L3.66942 12.2C3.3719 12.3 3.17355 12.5 3.07438 12.8C2.97521 13 2.97521 13.3 3.07438 13.6L5.75207 19C5.2562 19.1 4.95868 19.5 4.95868 20C4.95868 20.6 5.35537 21 5.95041 21C6.44628 21 6.54545 21.1 6.94215 21.3V21.4C7.43802 21.7 7.93388 22 8.92562 22C10.0165 22 10.5124 21.6 11.0083 21.3C11.3058 21.1 11.5041 21 11.9008 21C12.3967 21 12.4959 21.1 12.8926 21.3C13.2893 21.6 13.8843 22 14.9752 22C15.9669 22 16.4628 21.7 16.9587 21.4L17.0579 21.3C17.3554 21.1 17.5537 21 18.0496 21C18.6446 21 19.0413 20.6 19.0413 20C19.0413 19.5 18.7438 19.2 18.2479 19L20.9256 13.6C21.0248 13.3 21.0248 13.1 20.9256 12.8C20.8264 12.5 20.6281 12.3 20.3306 12.2L17.7521 11.2L17.4545 8.7C17.2562 7.1 16.2645 5.9 15.0744 5.3V4C14.876 2.9 13.9835 2 12.8926 2ZM10.9091 4H12.8926V5H10.9091V4ZM16.3636 12.8L18.5455 13.6L15.5702 19.8C15.2727 19.9 15.1736 20 14.876 20C14.4793 20 14.281 19.9 13.9835 19.6C13.5868 19.3 12.9917 18.8 11.9008 18.8C10.8099 18.8 10.2149 19.2 9.81818 19.6C9.52066 19.9 9.32231 20 8.92562 20C8.6281 20 8.52893 19.9 8.33058 19.8L5.35537 13.6L7.43802 12.8L10.9091 11.4V17C10.9091 17.6 11.3058 18 11.9008 18C12.4959 18 12.8926 17.6 12.8926 17V11.5L16.3636 12.8ZM15.2727 9L15.4711 10.3L12.2975 9C12.0992 8.9 11.8017 8.9 11.6033 9L8.42975 10.3L8.52893 9C8.72727 7.8 9.52066 7 10.5124 7H13.3884C14.281 7 15.1736 7.8 15.2727 9Z" fill="#0D151F"/>
</svg>
