<svg width="24" height="24" viewBox="0 0 24 24" fill="none" xmlns="http://www.w3.org/2000/svg">
<path fill-rule="evenodd" clip-rule="evenodd" d="M12.5572 2.21102C13.0944 2.08309 13.6337 2.41493 13.7616 2.9522L17.5743 18.9654C17.7022 19.5027 17.3703 20.0419 16.8331 20.1698C16.2958 20.2978 15.7566 19.9659 15.6286 19.4286L14.3591 14.0968H8.97611C8.42383 14.0968 7.97611 13.649 7.97611 13.0968C7.97611 12.5445 8.42383 12.0968 8.97611 12.0968H13.883L13.4514 10.2841H6.9859C6.35727 10.2841 5.94499 10.9808 6.30465 11.559C6.30951 11.5668 6.31426 11.5747 6.3189 11.5826L11.3646 20.2176C11.6432 20.6944 11.4825 21.3069 11.0057 21.5855C10.5288 21.8641 9.91641 21.7035 9.63778 21.2266L4.59835 12.6024C3.45145 10.7375 4.7419 8.28409 6.9859 8.28409H12.9752L11.816 3.41544C11.6881 2.87818 12.0199 2.33894 12.5572 2.21102ZM19.6516 10.2841C18.9404 10.2841 18.364 10.8606 18.364 11.5717C18.364 12.2828 18.9404 12.8593 19.6516 12.8593C20.3627 12.8593 20.9392 12.2828 20.9392 11.5717C20.9392 10.8606 20.3627 10.2841 19.6516 10.2841ZM16.364 11.5717C16.364 9.75599 17.8359 8.28408 19.6516 8.28408C21.4673 8.28408 22.9392 9.75599 22.9392 11.5717C22.9392 13.3874 21.4673 14.8593 19.6516 14.8593C17.8359 14.8593 16.364 13.3874 16.364 11.5717ZM4.75203 13.6855C5.26915 13.8794 5.53116 14.4558 5.33724 14.9729L3.04964 21.0732C2.85572 21.5903 2.2793 21.8523 1.76218 21.6584C1.24506 21.4645 0.983059 20.8881 1.17698 20.371L3.46458 14.2707C3.6585 13.7536 4.23491 13.4916 4.75203 13.6855Z" fill="#0D151F"/>
</svg>
