<svg width="24" height="24" viewBox="0 0 24 24" fill="none" xmlns="http://www.w3.org/2000/svg">
<path d="M22 2H2V22H22V2Z" fill="white"/>
<path d="M2 2V22H22V18.84H19.24L18.22 17.6468L17.16 18.84H9.32V12.4868H6.7332L9.9668 5.1668H13.1132L13.8732 6.8268V5.1668H17.78L18.4332 6.9068L19.0732 5.1668H22V2H2ZM19.74 6.2L18.7132 8.9068L18.44 9.6404L18.16 8.9068L17.1268 6.2H14.8668V11.5336H16.2268V8.0604L16.22 7.36L16.4868 8.0604L17.7868 11.5336H19.08L20.3868 8.0604L20.64 7.3668V11.5336H22V6.2H19.74ZM10.7 6.2L8.34 11.5336H9.8864L10.3 10.5068H12.8868L13.3 11.5336H14.8668L12.52 6.2H10.7ZM11.3264 8.0068L11.5932 7.3404L11.86 8.0068L12.4132 9.3532H10.7732L11.3264 8.0068ZM19.8468 12.4936L18.24 14.22L16.64 12.4936H14.8668H10.4132V17.8068H14.8668V16.6536H11.7732V15.7268H14.8068V14.5804H11.7732V13.6468H14.8668V12.4936L17.3532 15.16L14.8668 17.8068H16.5868L18.2068 16.0736L19.82 17.8068H21.5864L19.0932 15.14L21.5864 12.4936H19.8468ZM20.4932 15.1336L22 16.6668V13.62L20.4932 15.1336Z" fill="#006FCF"/>
</svg>
