<svg width="24" height="24" viewBox="0 0 24 24" fill="none" xmlns="http://www.w3.org/2000/svg">
<path d="M1 23H23.0096V1H1V23Z" fill="white"/>
<path d="M18.7637 6.69006C15.4709 11.6581 10.6473 18.2533 1.67398 17.7045V1.69312H21.7965C21.8062 1.69312 20.6219 3.88831 18.7637 6.69006Z" fill="#0072BA"/>
<path d="M1.68356 18.9177V22.326H22.326V1.95312C22.326 1.95312 15.7116 20.2175 1.68356 18.9177Z" fill="#E0A334"/>
<path d="M8.68315 7.16187C5.90065 7.16187 3.63806 9.40522 3.63806 12.1877C3.63806 14.4792 5.17855 16.4048 7.28709 17.0209C9.8 16.2026 11.8796 14.768 13.6512 13.0928C13.709 12.8039 13.7282 12.4958 13.7282 12.1877C13.7379 9.40522 11.4753 7.16187 8.68315 7.16187Z" fill="#0A81BC"/>
<path d="M12.4766 12.1877C12.4766 14.2673 10.782 15.9619 8.68314 15.9619C6.59386 15.9619 4.89932 14.2673 4.89932 12.1877C4.89932 10.108 6.59386 8.4231 8.68314 8.4231C10.782 8.4231 12.4766 10.108 12.4766 12.1877Z" fill="#5794C4"/>
<path d="M11.2153 12.1877C11.2153 13.5838 10.0696 14.691 8.68314 14.691C7.29671 14.691 6.17023 13.5741 6.17023 12.1877C6.17023 10.8013 7.29671 9.6748 8.68314 9.6748C10.0696 9.6748 11.2153 10.8013 11.2153 12.1877Z" fill="#86ADD3"/>
<path d="M9.95403 12.1879C9.95403 12.8908 9.38599 13.4395 8.68314 13.4395C7.98993 13.4395 7.42188 12.8811 7.42188 12.1879C7.42188 11.4947 7.98993 10.9363 8.68314 10.9363C9.38599 10.9363 9.95403 11.4947 9.95403 12.1879Z" fill="#B9CCDC"/>
</svg>
