<svg width="24" height="24" viewBox="0 0 24 24" fill="none" xmlns="http://www.w3.org/2000/svg">
<path d="M0.00308228 6.60292C0.00308228 6.60292 4.92695 6.9034 10.6694 1.00317C10.6694 1.00317 13.3399 9.50144 24 14.9009C24 14.9009 6.5672 8.20242 0.208495 24.0001C0.208495 24.0031 4.3107 12.1025 0.00308228 6.60292Z" fill="#231F20"/>
<path d="M14.9491 7.96251C11.681 4.22631 10.6664 1 10.6664 1C8.98253 2.73 7.37029 3.92583 5.93234 4.75138C6.68866 5.69833 7.79046 7.10661 8.99186 8.71218C10.7037 8.26602 12.6894 7.97465 14.9491 7.96251Z" fill="#ED1D24"/>
<path d="M5.9323 4.75464C2.46194 6.7487 0 6.60301 0 6.60301C1.17028 8.09628 1.72118 10.0661 1.89859 12.139C3.21515 11.098 5.56193 9.60472 8.98872 8.71544C7.79043 7.10987 6.68863 5.70159 5.9323 4.75464Z" fill="#DFE0E4"/>
<path d="M1.90172 12.1359C2.38415 17.6901 0.208557 24 0.208557 24C3.4237 16.9131 7.96787 14.0905 12.2226 13.2315C11.1892 11.6988 10.0532 10.1297 8.99186 8.70923C5.56506 9.60458 3.21828 11.0948 1.90172 12.1359Z" fill="#ED1D24"/>
<mask id="mask0_1_2350" style="mask-type:luminance" maskUnits="userSpaceOnUse" x="8" y="7" width="16" height="8">
<path d="M23.9968 14.9006C23.9968 14.9006 23.9782 14.8915 23.9501 14.8764C23.9657 14.8855 23.9813 14.8946 23.9968 14.9006ZM8.99176 8.71207C10.0531 10.1325 11.1891 11.7016 12.2225 13.2344C18.0832 12.0537 23.3961 14.6002 23.9501 14.8764C19.8791 12.8064 16.9783 10.2873 14.949 7.9624C12.6893 7.97454 10.7036 8.26591 8.99176 8.71207Z" fill="white"/>
</mask>
<g mask="url(#mask0_1_2350)">
<path d="M23.9968 7.9624H8.99176V14.9006H23.9968V7.9624Z" fill="url(#paint0_linear_1_2350)"/>
</g>
<defs>
<linearGradient id="paint0_linear_1_2350" x1="8.99144" y1="11.4426" x2="23.998" y2="11.4426" gradientUnits="userSpaceOnUse">
<stop stop-color="white"/>
<stop offset="0.0471" stop-color="#F9F9F9"/>
<stop offset="0.7023" stop-color="#A2A4A6"/>
<stop offset="1" stop-color="#808285"/>
</linearGradient>
</defs>
</svg>
