<svg width="24" height="24" viewBox="0 0 24 24" fill="none" xmlns="http://www.w3.org/2000/svg">
<path fill-rule="evenodd" clip-rule="evenodd" d="M10.3798 4.00404C10.7609 4.2929 11.1726 4.59726 11.5804 4.90076C11.627 4.9361 11.73 5.00421 11.7382 5.04044C11.7658 5.12192 11.7382 5.31591 11.7382 5.44437C11.7382 9.58174 11.7382 13.826 11.7382 17.9301C11.2907 17.9301 10.8402 17.9301 10.3927 17.9301C10.3651 13.9118 10.3699 9.83221 10.3699 5.75778C10.3699 5.18012 10.3406 4.59121 10.3699 4.01871C10.3699 4.01137 10.3561 3.99154 10.3798 4.00404Z" fill="#2494DA"/>
<path fill-rule="evenodd" clip-rule="evenodd" d="M13.6247 17.9298C13.1722 17.9298 12.7194 17.9298 12.2642 17.9298C12.2642 13.8596 12.2642 9.5813 12.2642 5.44395C12.2642 5.3021 12.2384 5.13873 12.2642 5.04216C12.2754 4.99257 12.3716 4.95118 12.4258 4.90851C12.8176 4.61449 13.2669 4.26184 13.6352 4.00362C13.6413 8.67166 13.6247 13.2733 13.6247 17.9298Z" fill="#2494DA"/>
<path fill-rule="evenodd" clip-rule="evenodd" d="M6.45326 16.1091C5.68416 15.194 5.17975 14.0252 5.1138 12.4283C5.07499 11.6342 5.24615 10.8815 5.4617 10.2741C5.6833 9.64769 6.00188 9.12087 6.37133 8.67252C7.13871 7.74822 8.17942 7.12743 9.60163 6.87049C8.74158 6.71529 7.64095 6.66959 6.72356 6.78557C5.56473 6.93342 4.56973 7.32056 3.79546 7.8642C2.85304 8.52337 2.11069 9.39636 1.68733 10.5772C1.40496 11.3773 1.28123 12.4085 1.46791 13.3858C1.6369 14.2572 1.99988 14.981 2.47498 15.5846C2.95005 16.1901 3.53205 16.6899 4.21708 17.0545C5.5919 17.7927 7.49135 18.1547 9.6426 17.9375C8.26823 17.6474 7.22622 17.0342 6.45326 16.1091ZM4.03473 15.5988C3.42082 14.7756 2.92246 13.6743 2.8871 12.3417C2.84443 10.8958 3.28675 9.82099 3.9567 9.0213C4.63396 8.20348 5.54834 7.7064 6.74467 7.40721C6.75545 7.40421 6.75804 7.40421 6.76451 7.39688C6.78176 7.40721 6.73176 7.42705 6.70717 7.44171C5.83979 7.89178 5.12889 8.45914 4.55939 9.22391C3.98601 10.0034 3.58724 11.0087 3.58724 12.321C3.58724 13.6057 4.00195 14.6474 4.52361 15.4526C5.05774 16.2816 5.7665 16.9279 6.76495 17.2694C5.53801 17.0801 4.65379 16.4329 4.03473 15.5988Z" fill="#2494DA"/>
<path fill-rule="evenodd" clip-rule="evenodd" d="M22.1871 10.2689C21.8653 9.49768 21.3765 8.85359 20.8143 8.34532C20.2376 7.82583 19.549 7.41282 18.73 7.13002C17.9189 6.84763 16.9528 6.66959 15.8393 6.72218C15.3332 6.74374 14.8569 6.7946 14.3974 6.87955C15.8221 7.11966 16.8597 7.74477 17.6319 8.66433C18.0044 9.10837 18.3175 9.64769 18.5347 10.2689C18.7407 10.8565 18.9291 11.623 18.8899 12.4219C18.8175 14.0178 18.3268 15.194 17.5483 16.1026C16.7689 17.0179 15.7479 17.6586 14.3611 17.937C17.7255 18.2371 20.2863 17.3241 21.6391 15.44C22.0995 14.7912 22.4539 14.0364 22.5758 13.078C22.7139 12.0365 22.5211 11.0453 22.1871 10.2689ZM20.7484 14.1606C20.5475 14.7076 20.2807 15.1802 19.9694 15.5932C19.3262 16.4441 18.4704 17.0715 17.2396 17.2782C18.2402 16.9244 18.937 16.28 19.4847 15.4608C19.9878 14.6939 20.4134 13.5945 20.4134 12.3417C20.4134 11.0221 20.0327 10.0318 19.4582 9.2416C19.045 8.66519 18.5054 8.16511 17.8859 7.77797C17.6738 7.64132 17.4405 7.50378 17.2189 7.40721C17.2133 7.39688 17.2205 7.39688 17.2266 7.39688C18.4022 7.68357 19.3602 8.194 20.0353 8.9993C20.7044 9.79771 21.1604 10.8647 21.1222 12.3288C21.1011 13.0151 20.9481 13.6234 20.7484 14.1606Z" fill="#2494DA"/>
</svg>
