<svg width="24" height="24" viewBox="0 0 24 24" fill="none" xmlns="http://www.w3.org/2000/svg">
<path fill-rule="evenodd" clip-rule="evenodd" d="M8.60008 2.06435C3.97546 2.54967 0.482141 6.16813 0.0519825 10.9187C-0.240924 14.1537 0.704845 16.894 2.86786 19.0776C4.60085 20.827 6.4019 21.6723 8.91756 21.9167C10.7449 22.0943 15.2014 21.9702 16.2695 21.712C19.7605 20.8682 22.8368 17.8577 23.7378 14.4035C24.0906 13.0511 24.0869 10.9152 23.7295 9.53853C22.7924 5.92948 20.1203 3.26799 16.4797 2.3173C15.6264 2.09459 15.0159 2.04716 12.5096 2.00952C10.8806 1.98493 9.12136 2.00965 8.60008 2.06435ZM11.7605 3.01517C13.9505 3.57816 16.2138 5.38594 17.2658 7.41267C18.0942 9.00866 18.3616 10.1272 18.3589 11.9852C18.3562 13.8047 18.1655 14.6631 17.4255 16.1885C15.2082 20.7583 9.78771 22.5133 5.38693 20.0865C4.12633 19.3912 2.63155 17.8535 1.96381 16.5649C1.20294 15.0965 0.902721 14.022 0.823318 12.4813C0.680268 9.70904 1.50706 7.43338 3.3681 5.47741C5.60623 3.12496 8.67999 2.2232 11.7605 3.01517ZM7.0317 6.87014C5.71752 7.54141 4.47356 9.33777 4.18456 10.9814C3.76322 13.3782 5.01866 16.0229 7.07026 17.0604C7.30204 17.1776 7.51529 17.2498 7.54428 17.221C7.57327 17.1922 7.58222 14.794 7.56407 11.8917L7.53117 6.61505L7.0317 6.87014ZM11.6273 11.9144C11.6273 14.8517 11.6729 17.255 11.7287 17.255C11.7845 17.255 12.0822 17.0949 12.3903 16.8991C14.8746 15.3214 15.7644 12.0986 14.4668 9.37842C13.9851 8.36851 13.0611 7.36399 12.1542 6.86424L11.6273 6.5739V11.9144Z" fill="#004A97"/>
</svg>
