<svg width="24" height="24" viewBox="0 0 24 24" fill="none" xmlns="http://www.w3.org/2000/svg">
<path d="M15.1787 4.43562H8.82403V15.8574H15.1787V4.43562Z" fill="#6C6BBD"/>
<path d="M9.22498 10.1463C9.22498 7.82843 10.3068 5.76805 12 4.43562C10.764 3.46349 9.2057 2.88379 7.51251 2.88379C3.50144 2.88379 0.25 6.13524 0.25 10.1463C0.25 14.1574 3.50144 17.4088 7.51251 17.4088C9.2057 17.4088 10.764 16.8296 12 15.857C10.3132 14.5246 9.22498 12.4642 9.22498 10.1463Z" fill="#D32011"/>
<path d="M23.75 10.1463C23.75 14.1574 20.4986 17.4088 16.4875 17.4088C14.7943 17.4088 13.236 16.8296 12 15.857C13.6868 14.5241 14.775 12.4642 14.775 10.1463C14.775 7.82843 13.6932 5.76805 12 4.43562C13.236 3.46349 14.7943 2.88379 16.4875 2.88379C20.4986 2.88379 23.75 6.13524 23.75 10.1463Z" fill="#0099DF"/>
<path d="M17.3266 19.0827C17.4102 19.0827 17.5327 19.102 17.6227 19.1341L17.4937 19.527C17.4037 19.4884 17.3133 19.4756 17.2298 19.4756C16.953 19.4756 16.8176 19.656 16.8176 19.9713V21.0531H16.399V19.1281H16.8176V19.3599C16.9273 19.1924 17.0884 19.0827 17.3266 19.0827ZM15.7812 19.5141H15.0923V20.3835C15.0923 20.5767 15.163 20.7052 15.3691 20.7052C15.4783 20.7052 15.6137 20.6667 15.7427 20.596L15.8652 20.9567C15.7298 21.0467 15.5242 21.105 15.3438 21.105C14.8481 21.105 14.6742 20.8411 14.6742 20.3903V19.5082H14.2813V19.1217H14.6742V18.536H15.0992V19.1217H15.7817L15.7812 19.5141ZM10.4116 19.9263C10.4566 19.6495 10.6241 19.4563 10.9266 19.4563C11.1969 19.4563 11.3709 19.6238 11.4158 19.9263H10.4116ZM11.8473 20.0934C11.8409 19.4944 11.4737 19.0827 10.933 19.0827C10.3666 19.0827 9.9737 19.4949 9.9737 20.0934C9.9737 20.7052 10.3859 21.1041 10.9651 21.1041C11.2547 21.1041 11.5186 21.0334 11.7569 20.8337L11.5508 20.5248C11.3897 20.6538 11.1836 20.7245 10.9908 20.7245C10.7205 20.7245 10.4758 20.6019 10.4116 20.2545H11.8409C11.8409 20.2031 11.8473 20.1517 11.8473 20.0934ZM13.6887 19.6234C13.5731 19.5527 13.3344 19.4558 13.0897 19.4558C12.858 19.4558 12.7226 19.5394 12.7226 19.6812C12.7226 19.8102 12.8708 19.8487 13.0507 19.868L13.2504 19.8937C13.669 19.9516 13.9265 20.1319 13.9265 20.473C13.9265 20.8401 13.6047 21.1041 13.0443 21.1041C12.729 21.1041 12.4389 21.0205 12.2071 20.853L12.4068 20.5248C12.5486 20.6341 12.7611 20.7245 13.0507 20.7245C13.3339 20.7245 13.4886 20.6409 13.4886 20.4927C13.4886 20.3835 13.3794 20.3252 13.1476 20.293L12.9479 20.2673C12.5165 20.2095 12.2847 20.0098 12.2847 19.7009C12.2847 19.3145 12.6 19.0827 13.0893 19.0827C13.3982 19.0827 13.675 19.1534 13.8746 19.2824L13.6887 19.6234ZM18.8651 19.482C18.7816 19.482 18.6976 19.4949 18.6269 19.527C18.5563 19.5591 18.4915 19.5977 18.4337 19.656C18.3823 19.7074 18.3373 19.7785 18.3047 19.8492C18.2726 19.9263 18.2597 20.0103 18.2597 20.1003C18.2597 20.1902 18.2726 20.2742 18.3047 20.3513C18.3369 20.4284 18.3754 20.4932 18.4337 20.5446C18.4851 20.596 18.5494 20.6409 18.6269 20.6735C18.704 20.7057 18.7816 20.7185 18.8651 20.7185C18.9487 20.7185 19.0327 20.7057 19.1034 20.6735C19.1805 20.6414 19.2452 20.6028 19.2966 20.5446C19.3544 20.4932 19.393 20.422 19.4256 20.3513C19.4577 20.2742 19.4705 20.1902 19.4705 20.1003C19.4705 20.0103 19.4577 19.9263 19.4256 19.8492C19.3934 19.7721 19.3549 19.7074 19.2966 19.656C19.2452 19.6046 19.1809 19.5596 19.1034 19.527C19.0263 19.4949 18.9491 19.482 18.8651 19.482ZM18.8651 19.0827C19.0134 19.0827 19.1548 19.1084 19.2837 19.1598C19.4127 19.2112 19.522 19.2824 19.6119 19.3723C19.7019 19.4623 19.7794 19.572 19.8309 19.6941C19.8823 19.8166 19.908 19.9516 19.908 20.0998C19.908 20.2481 19.8823 20.383 19.8309 20.5055C19.7794 20.6281 19.7083 20.7373 19.6119 20.8273C19.522 20.9173 19.4058 20.9884 19.2837 21.0398C19.1548 21.0912 19.0198 21.1169 18.8651 21.1169C18.7169 21.1169 18.5755 21.0912 18.4466 21.0398C18.3176 20.9884 18.2083 20.9173 18.1184 20.8273C18.0284 20.7373 17.9509 20.6276 17.8994 20.5055C17.848 20.3835 17.8223 20.2481 17.8223 20.0998C17.8223 19.9516 17.848 19.8166 17.8994 19.6941C17.9509 19.5715 18.022 19.4623 18.1184 19.3723C18.2083 19.2824 18.318 19.2112 18.4466 19.1598C18.5755 19.1084 18.7109 19.0827 18.8651 19.0827ZM7.95876 20.0934C7.95876 19.7524 8.1777 19.4751 8.54443 19.4751C8.89188 19.4751 9.12366 19.739 9.12366 20.0934C9.12366 20.4477 8.89188 20.7116 8.54443 20.7116C8.1777 20.7116 7.95876 20.4349 7.95876 20.0934ZM9.51656 19.1277H9.09796V19.3595C8.96256 19.1855 8.76336 19.0763 8.48613 19.0763C7.94545 19.0763 7.52043 19.5013 7.52043 20.087C7.52043 20.6726 7.94545 21.0976 8.48613 21.0976C8.7629 21.0976 8.96256 20.9884 9.09796 20.8144V21.0462H9.51656V19.1277ZM7.1537 21.0595V19.8492C7.1537 19.3921 6.86408 19.0896 6.39408 19.0832C6.14945 19.0767 5.89196 19.1538 5.718 19.4242C5.5826 19.2117 5.37698 19.0832 5.08047 19.0832C4.87439 19.0832 4.67473 19.141 4.51408 19.3663V19.1281H4.09549V21.0531H4.52051V19.9841C4.52051 19.6495 4.70732 19.4692 4.99051 19.4692C5.26728 19.4692 5.4091 19.6495 5.4091 19.9777V21.0531H5.83412V19.9841C5.83412 19.6495 6.02736 19.4692 6.30412 19.4692C6.59374 19.4692 6.72914 19.6495 6.72914 19.9777V21.0531H7.15416L7.1537 21.0595Z" fill="#110F0D"/>
</svg>
