<svg width="24" height="24" viewBox="0 0 24 24" fill="none" xmlns="http://www.w3.org/2000/svg">
<path d="M15.2431 6.09229H8.76544V17.7281H15.2431V6.09229Z" fill="#F06022"/>
<path d="M9.1253 11.9703C9.1253 9.69109 10.2049 7.53186 12.0043 6.09237C8.76543 3.57327 4.0871 4.17306 1.568 7.4119C-0.951105 10.6507 -0.351319 15.3291 2.76757 17.8482C5.40663 20.0074 9.24526 20.0074 11.8843 17.8482C10.2049 16.4087 9.1253 14.2495 9.1253 11.9703Z" fill="#E91D25"/>
<path d="M24 11.9702C24 16.0488 20.6412 19.4076 16.5626 19.4076C14.8832 19.4076 13.3238 18.8078 12.0043 17.8481C15.2431 15.329 15.7229 10.6507 13.2038 7.41186C12.844 6.93203 12.3641 6.57216 12.0043 6.21228C15.2431 3.69318 19.9215 4.29297 22.4406 7.41186C23.4002 8.73139 24 10.2908 24 11.9702Z" fill="#F59D1E"/>
</svg>
