<svg width="24" height="24" viewBox="0 0 24 24" fill="none" xmlns="http://www.w3.org/2000/svg">
<path d="M0.216706 14.6701C0.156761 14.5397 0.156761 14.4997 0.196724 14.2688C0.246678 13.958 0.357133 13.6172 0.49756 13.3364C0.637986 13.0855 0.73845 12.9956 0.848349 13.0555C0.948812 13.1055 0.948812 13.2659 0.848349 13.3164C0.757876 13.3663 0.657968 13.5773 0.547514 13.968C0.367124 14.5996 0.457041 14.7201 0.928275 14.5192C1.78027 14.1684 2.74272 13.0855 2.80322 12.4239C2.8232 12.2235 2.81321 12.1935 2.72274 12.0931C2.57232 11.9327 2.25151 11.8722 1.32902 11.8222C0.74733 11.7822 0.516986 11.7323 0.346587 11.6118C-0.0241838 11.341 0.0157795 10.8597 0.506995 9.81737C0.948257 8.86491 1.61986 8.06287 2.41191 7.53169C3.02357 7.1204 3.48482 7.00051 3.82562 7.1809C4.14643 7.34131 4.1864 7.70209 3.96604 8.40422C3.7357 9.13633 3.08408 10.1387 2.74272 10.2892C2.6023 10.3391 2.48185 10.2792 2.48185 10.1587C2.48185 10.0683 2.52181 10.0483 2.62228 10.0583C2.7022 10.0683 3.25392 9.31616 3.4443 8.9354C3.59472 8.61459 3.75513 8.11338 3.77511 7.85251C3.80508 7.62161 3.79509 7.59163 3.72515 7.5217C3.48482 7.27082 2.80267 7.60218 2.04059 8.32374C1.77972 8.57462 1.30904 9.18628 1.09812 9.56704C0.877766 9.9578 0.576931 10.6699 0.516431 10.9408C0.446495 11.3215 0.486459 11.3421 1.44891 11.412C2.28092 11.482 2.62172 11.5425 2.83264 11.6729C3.14346 11.8633 3.28389 12.1841 3.2134 12.5549C3.16345 12.7952 2.93255 13.267 2.73218 13.5273C2.3009 14.109 1.55936 14.6801 0.947702 14.8811C0.727349 14.9615 0.576931 14.9615 0.416523 14.8811C0.337151 14.8405 0.267215 14.7601 0.216706 14.6701Z" fill="#1882FF"/>
<path fill-rule="evenodd" clip-rule="evenodd" d="M3.77922 7.26855C3.49266 7.11687 3.07714 7.20389 2.46725 7.61399L2.46715 7.61406C1.69148 8.13425 1.03129 8.92162 0.596981 9.85906L0.596709 9.85965C0.351643 10.3797 0.22573 10.7469 0.202338 11.0126C0.190801 11.1436 0.204735 11.2451 0.237939 11.3262C0.27069 11.4062 0.324802 11.473 0.404456 11.5313C0.548712 11.633 0.750966 11.683 1.3351 11.7232C1.79582 11.7482 2.1126 11.776 2.33422 11.8188C2.55541 11.8616 2.69836 11.9221 2.79508 12.0252L2.79577 12.0259L2.79643 12.0267C2.84189 12.0772 2.88276 12.1257 2.9006 12.1969C2.9168 12.2615 2.91159 12.3365 2.90195 12.4333C2.88498 12.6179 2.80653 12.8234 2.69107 13.0295C2.57485 13.237 2.41772 13.4512 2.23654 13.6541C1.87555 14.0585 1.41045 14.4277 0.966584 14.6106C0.847088 14.6616 0.741809 14.6967 0.654353 14.7053C0.565059 14.7141 0.470997 14.6964 0.412321 14.6127C0.361218 14.5398 0.355955 14.4403 0.365945 14.3391C0.376405 14.2332 0.406565 14.1004 0.452129 13.9409C0.507967 13.7433 0.562212 13.5873 0.615484 13.4726C0.642137 13.4152 0.669604 13.3659 0.698369 13.3262C0.726508 13.2873 0.759922 13.2519 0.800412 13.2296L0.80209 13.2286L0.803801 13.2278C0.813725 13.2228 0.824523 13.2092 0.824523 13.1857C0.824523 13.1623 0.813757 13.1491 0.804193 13.1443L0.80251 13.1435L0.800859 13.1426C0.788994 13.1361 0.783616 13.1366 0.781136 13.137C0.77719 13.1375 0.766308 13.1404 0.747362 13.156C0.706728 13.1894 0.654413 13.2594 0.58523 13.3828C0.449744 13.6543 0.342854 13.9846 0.294642 14.2846L0.294452 14.2858C0.274001 14.4039 0.266406 14.4604 0.268322 14.5027C0.269912 14.5378 0.278174 14.566 0.30511 14.625C0.35 14.7038 0.406721 14.7646 0.461309 14.7926C0.529247 14.8266 0.591733 14.8422 0.659633 14.8422C0.729186 14.8422 0.809822 14.8258 0.913678 14.7879L0.915206 14.7873L0.916751 14.7868C1.50564 14.5934 2.23121 14.0365 2.65251 13.4682L2.65304 13.4675L2.65359 13.4668C2.74846 13.3436 2.85298 13.1667 2.94025 12.9897C3.02791 12.8119 3.09358 12.6433 3.11613 12.5355C3.17879 12.2044 3.05521 11.9255 2.78084 11.7575L2.78048 11.7572C2.68992 11.7012 2.56561 11.6564 2.35552 11.6173C2.14534 11.5781 1.8566 11.5458 1.44116 11.5109C1.20139 11.4935 1.01581 11.4789 0.874717 11.4608C0.736168 11.443 0.628071 11.4206 0.55077 11.3815C0.510266 11.361 0.474796 11.3343 0.447768 11.2985C0.420459 11.2622 0.405863 11.222 0.399327 11.1807C0.387261 11.1045 0.402038 11.0146 0.418889 10.9229L0.41923 10.921L0.419642 10.9192C0.45205 10.7741 0.545674 10.521 0.655995 10.2602C0.767062 9.99772 0.89891 9.71845 1.01155 9.51865C1.22707 9.12973 1.70349 8.51033 1.97184 8.25226L1.9724 8.25172C2.35753 7.88707 2.7271 7.61639 3.03569 7.46861C3.18961 7.3949 3.33416 7.34893 3.46134 7.34074C3.58934 7.3325 3.70944 7.3625 3.79599 7.45228C3.83527 7.49163 3.87286 7.53485 3.88543 7.61049C3.89569 7.67226 3.88812 7.75198 3.87378 7.86274C3.86253 8.00436 3.81494 8.2022 3.75334 8.40085C3.69087 8.60231 3.6116 8.81219 3.53409 8.9775L3.53356 8.97863L3.533 8.97975C3.4341 9.17756 3.24474 9.46603 3.07187 9.70198C2.98512 9.82038 2.90079 9.92792 2.83217 10.006C2.79814 10.0448 2.76607 10.0785 2.73829 10.1029C2.72462 10.115 2.70931 10.1272 2.69336 10.1367C2.68265 10.1431 2.65141 10.1611 2.61188 10.1569C2.59891 10.1556 2.58882 10.1551 2.58106 10.1551C2.58103 10.1562 2.58102 10.1574 2.58102 10.1587C2.58102 10.1813 2.5898 10.1921 2.60393 10.1991C2.62154 10.2079 2.65659 10.2137 2.70603 10.1969C2.77056 10.1673 2.86219 10.0909 2.97141 9.96818C3.07989 9.84635 3.19755 9.68835 3.31284 9.51081C3.54387 9.15502 3.7597 8.72959 3.87144 8.37446C3.98063 8.02652 4.02034 7.77724 4.00023 7.60064C3.99038 7.5141 3.96645 7.44801 3.93167 7.39643C3.89708 7.34515 3.84839 7.30317 3.78127 7.2696L3.78024 7.26909L3.77922 7.26855ZM3.87101 7.09272C3.47612 6.88441 2.96951 7.03726 2.35661 7.44937C1.54829 7.99148 0.865354 8.80807 0.417147 9.77539C0.171082 10.2976 0.0314506 10.692 0.00475476 10.9952C-0.00875469 11.1487 0.00613896 11.2835 0.0543702 11.4013C0.102968 11.5201 0.1827 11.6149 0.288085 11.6919L0.288711 11.6924L0.289344 11.6928C0.485786 11.8317 0.744375 11.8814 1.32222 11.9211L1.32294 11.9212L1.32366 11.9212C1.78504 11.9462 2.08969 11.9736 2.29659 12.0136C2.50321 12.0535 2.59596 12.1032 2.64975 12.1602C2.69416 12.2096 2.70345 12.2262 2.70821 12.2451C2.7146 12.2706 2.71484 12.3107 2.70454 12.414L2.70446 12.4148C2.6911 12.5609 2.62659 12.7388 2.51802 12.9326C2.41015 13.1252 2.26207 13.3277 2.08858 13.522C1.74037 13.9121 1.29849 14.2595 0.890518 14.4275L0.889377 14.4279C0.773499 14.4773 0.691028 14.5024 0.634871 14.5079C0.581902 14.5132 0.575247 14.4999 0.574776 14.4989C0.574763 14.4989 0.574781 14.4989 0.574776 14.4989C0.567044 14.4879 0.554173 14.4514 0.563332 14.3586C0.572019 14.2706 0.598257 14.1515 0.642875 13.9952L0.642948 13.995C0.697547 13.8018 0.748467 13.6571 0.795365 13.5562C0.818804 13.5057 0.840182 13.4685 0.859047 13.4425C0.877509 13.417 0.89015 13.4069 0.895466 13.4037C0.984182 13.3577 1.02287 13.2668 1.02287 13.1857C1.02287 13.1044 0.983901 13.0131 0.89422 12.9676C0.851543 12.9447 0.803717 12.9333 0.752707 12.9407C0.70252 12.9479 0.658903 12.972 0.621443 13.0027C0.549484 13.0619 0.481702 13.1616 0.41102 13.2879L0.409891 13.2899L0.408856 13.292C0.264068 13.5816 0.150521 13.9318 0.0989027 14.2525C0.0794485 14.3649 0.0671029 14.4438 0.0701774 14.5116C0.0735494 14.5861 0.0949459 14.6427 0.126593 14.7116L0.128272 14.7152L0.13024 14.7187C0.185987 14.8179 0.268159 14.9167 0.371432 14.9694L0.372049 14.9697C0.464398 15.016 0.557238 15.0406 0.659633 15.0406C0.760039 15.0406 0.864314 15.017 0.980201 14.9748C1.61407 14.766 2.37035 14.1815 2.81131 13.5871C2.91665 13.4501 3.02754 13.2612 3.11814 13.0774C3.20829 12.8946 3.28294 12.7076 3.3105 12.575L3.31067 12.5742L3.31083 12.5734C3.38877 12.1634 3.23154 11.801 2.88461 11.5884C2.76428 11.5141 2.61278 11.4634 2.39185 11.4223C2.17099 11.3811 1.87349 11.3482 1.45722 11.3132L1.4561 11.3131C1.21491 11.2956 1.03476 11.2814 0.899964 11.2641C0.762516 11.2464 0.684534 11.2268 0.640281 11.2045C0.620007 11.1942 0.610831 11.1853 0.606169 11.1791C0.601788 11.1733 0.597651 11.165 0.595237 11.1497C0.589441 11.1131 0.595773 11.0581 0.613624 10.9606C0.642139 10.8344 0.728879 10.597 0.838665 10.3375C0.948169 10.0787 1.07683 9.80669 1.1845 9.61576L1.18487 9.6151C1.3912 9.24262 1.85568 8.63928 2.10906 8.39549C2.4859 8.03872 2.83834 7.78303 3.12136 7.6475C3.26328 7.57954 3.38195 7.54461 3.47409 7.53868C3.56502 7.53282 3.61998 7.55527 3.65354 7.5903L3.65427 7.59107L3.65503 7.59183C3.68543 7.62223 3.68742 7.62889 3.68976 7.643C3.69441 7.67095 3.69218 7.72093 3.67676 7.83974L3.67642 7.84233L3.67622 7.84493C3.6671 7.96402 3.62471 8.14598 3.56389 8.3421C3.50371 8.5362 3.42779 8.73681 3.35504 8.89216C3.26338 9.07513 3.08208 9.35243 2.91187 9.58475C2.8269 9.70072 2.74641 9.80312 2.68316 9.87512C2.65125 9.91144 2.62562 9.93784 2.60719 9.95408C2.60587 9.95524 2.60462 9.95632 2.60345 9.95731C2.55806 9.95488 2.50416 9.9584 2.45932 9.98834C2.39425 10.0318 2.38268 10.1037 2.38268 10.1587C2.38268 10.2566 2.43412 10.336 2.51533 10.3766C2.59263 10.4152 2.68679 10.4143 2.77596 10.3826L2.77939 10.3814L2.78271 10.3799C2.8887 10.3332 3.00527 10.2284 3.11955 10.1001C3.23646 9.96878 3.3601 9.80222 3.47919 9.61883C3.71689 9.25279 3.94204 8.81096 4.06065 8.43399C4.17179 8.07983 4.22229 7.79761 4.19731 7.57819C4.18461 7.46671 4.15216 7.36865 4.09611 7.28553C4.04007 7.20242 3.96382 7.13931 3.87101 7.09272Z" fill="#1882FF"/>
<path d="M6.64359 7.74198C6.83397 7.75197 6.88448 7.87241 6.82398 8.18324C6.70354 8.7949 5.962 9.89778 5.19992 10.5894L4.90907 10.8502L4.73867 11.3714C4.48779 12.113 4.16698 13.4268 4.24746 13.3768C4.25745 13.3668 4.35791 13.2364 4.45782 13.086C4.83858 12.5143 5.48022 11.7328 5.81158 11.4419C6.1224 11.1611 6.32278 11.221 6.28281 11.5724C6.25284 11.8332 5.93202 12.234 5.61121 12.4243L5.42083 12.5248L5.48077 12.6552C5.6212 12.9561 5.90205 13.026 6.41325 12.8756C6.77403 12.7651 6.89447 12.7052 7.66654 12.2639C8.01733 12.0736 8.32816 11.9131 8.36812 11.9231C8.40808 11.9231 8.43861 11.9731 8.43861 12.0136C8.43861 12.0841 8.33815 12.164 7.87746 12.4349C6.66413 13.157 5.99252 13.3674 5.58179 13.187C5.42138 13.117 5.20103 12.8562 5.16051 12.7058L5.13054 12.5853L5.0001 12.7657C4.67928 13.197 4.13756 13.999 4.12757 14.059C4.11758 14.1694 3.93719 14.2493 3.80675 14.1994C3.68631 14.1594 3.67632 14.019 3.76679 13.4273C3.91721 12.4649 4.30851 11.1516 4.77919 10.0787C5.32092 8.83542 6.15293 7.77251 6.60418 7.74253C6.61362 7.74198 6.6336 7.74198 6.64359 7.74198ZM6.44322 8.15327C6.12241 8.43412 5.64118 9.17566 5.30038 9.91776C5.20991 10.1081 5.12998 10.2785 5.12998 10.2985C5.12998 10.3485 5.41084 10.0277 5.73165 9.62692C5.91204 9.39657 6.11241 9.12571 6.17291 9.01525C6.32333 8.77492 6.55368 8.25318 6.57421 8.12274C6.57421 8.09277 6.57421 8.06279 6.56422 8.06279C6.55368 8.06279 6.51316 8.09277 6.44322 8.15327ZM5.48077 12.1535C5.41028 12.2539 5.70112 12.033 5.7916 11.9231C5.93202 11.7527 6.00196 11.6323 5.962 11.6323C5.93202 11.6323 5.57069 12.0131 5.48077 12.1535Z" fill="#1882FF"/>
<path fill-rule="evenodd" clip-rule="evenodd" d="M6.61033 7.84152C6.52957 7.84705 6.41339 7.90226 6.26783 8.02197C6.12533 8.13915 5.96709 8.30775 5.80375 8.5167C5.47732 8.93431 5.13801 9.50349 4.87011 10.1183L4.87001 10.1186C4.40234 11.1846 4.01375 12.4895 3.8648 13.4425C3.81927 13.7402 3.80112 13.9128 3.8067 14.0148C3.80946 14.0652 3.81767 14.0867 3.82249 14.0949C3.82465 14.0986 3.82637 14.1014 3.83798 14.1053L3.84012 14.106L3.84222 14.1068C3.87826 14.1206 3.92852 14.1178 3.97241 14.0985C4.02015 14.0776 4.02852 14.0531 4.0288 14.05L4.02913 14.0463L4.02974 14.0427C4.0331 14.0225 4.04254 14.0035 4.0464 13.9957L4.04663 13.9953C4.05252 13.9834 4.06015 13.9695 4.0688 13.9544C4.08622 13.9241 4.11032 13.8848 4.13921 13.8392C4.19714 13.7477 4.27641 13.6274 4.36507 13.4961C4.5422 13.2337 4.75855 12.9243 4.92013 12.707L5.17523 12.3542L5.25649 12.6808C5.27121 12.7343 5.32452 12.823 5.40121 12.9117C5.47792 13.0004 5.56143 13.0699 5.62142 13.0961L5.62167 13.0962C5.79446 13.1721 6.03668 13.1723 6.39805 13.055C6.75836 12.9382 7.22206 12.7095 7.82674 12.3497L7.8272 12.3494C8.05823 12.2136 8.19355 12.1287 8.27091 12.0701C8.27941 12.0636 8.2869 12.0577 8.2935 12.0523C8.26143 12.0667 8.22257 12.0852 8.17789 12.1073C8.0533 12.169 7.88961 12.2557 7.71481 12.3506C6.9437 12.7913 6.81462 12.8564 6.44228 12.9704L6.44124 12.9707C6.17984 13.0477 5.96174 13.0734 5.78489 13.0311C5.60021 12.9869 5.47225 12.8715 5.39091 12.6972L5.39066 12.6967L5.29151 12.4809L5.56268 12.3378C5.71014 12.2499 5.86088 12.1115 5.97834 11.9632C6.0985 11.8115 6.17243 11.6639 6.18428 11.5611C6.19339 11.481 6.18727 11.4283 6.17632 11.3975C6.16654 11.37 6.1562 11.3668 6.15169 11.3655C6.14159 11.3626 6.11437 11.3611 6.06331 11.3845C6.01364 11.4073 5.95124 11.4494 5.87807 11.5155L5.87754 11.516L5.877 11.5164C5.55489 11.7992 4.91882 12.5727 4.54036 13.1409C4.48934 13.2177 4.4383 13.2893 4.39872 13.3429C4.37892 13.3698 4.36183 13.3923 4.34889 13.409C4.33847 13.4225 4.32566 13.4389 4.31759 13.4469L4.30949 13.455L4.29976 13.4611C4.28083 13.4728 4.23661 13.4904 4.19019 13.4627C4.15461 13.4414 4.14426 13.4073 4.14157 13.3978C4.1347 13.3737 4.13531 13.3473 4.13611 13.3307C4.13799 13.2913 4.14589 13.2359 4.15733 13.1715C4.18056 13.0407 4.22153 12.8556 4.27247 12.6474C4.37436 12.2309 4.51796 11.7144 4.64457 11.3401C4.64462 11.34 4.64468 11.3398 4.64473 11.3396L4.82307 10.7942L5.13327 10.5159C5.13334 10.5159 5.13341 10.5158 5.13348 10.5157C5.50767 10.1761 5.87842 9.7339 6.17033 9.30089C6.46409 8.86515 6.67036 8.44998 6.72666 8.16415C6.75673 8.00963 6.75282 7.92807 6.73614 7.8875C6.72958 7.87153 6.72159 7.86339 6.71121 7.85743C6.69899 7.85041 6.67768 7.84334 6.64085 7.84115C6.62978 7.84116 6.61587 7.84122 6.61033 7.84152ZM5.09287 12.8067L5.07968 12.8249C4.92049 13.0389 4.70577 13.3459 4.52948 13.6071C4.44136 13.7376 4.36327 13.8561 4.3068 13.9453C4.27848 13.99 4.25611 14.0266 4.24074 14.0533C4.23303 14.0667 4.22769 14.0766 4.22439 14.0832C4.20824 14.182 4.12605 14.2477 4.05224 14.2801C3.97143 14.3156 3.86721 14.328 3.77334 14.2928C3.72558 14.2765 3.68175 14.2469 3.65145 14.1953C3.62335 14.1475 3.61214 14.0893 3.60865 14.0257C3.60175 13.8995 3.62383 13.7061 3.66875 13.4123L3.6688 13.412C3.8207 12.4401 4.21469 11.1187 4.68832 10.039C4.96214 9.41058 5.30968 8.8267 5.64748 8.39455C5.81627 8.17862 5.9845 7.99816 6.14185 7.86877C6.29587 7.74211 6.45276 7.6532 6.59761 7.64358L6.59836 7.64353C6.61084 7.64279 6.63291 7.6428 6.64225 7.6428L6.64619 7.6428L6.64879 7.64294C6.70564 7.64592 6.76136 7.6575 6.81 7.68543C6.86074 7.71458 6.8973 7.75785 6.91959 7.81209C6.96064 7.91194 6.95174 8.04597 6.92133 8.20219L6.92129 8.2024C6.85713 8.52823 6.63241 8.9703 6.33479 9.41177C6.03536 9.85593 5.65439 10.3109 5.26657 10.6628L5.26614 10.6632L4.99508 10.9063L4.83262 11.4032C4.70839 11.7704 4.56622 12.2813 4.46514 12.6945C4.43757 12.8072 4.4132 12.912 4.39314 13.0043C4.77797 12.432 5.41011 11.6626 5.74562 11.3679C5.82767 11.2938 5.9067 11.2382 5.9806 11.2043C6.05329 11.1709 6.13194 11.1537 6.20579 11.1746C6.28523 11.1972 6.33692 11.2572 6.36319 11.331C6.38828 11.4015 6.39221 11.4881 6.38135 11.5836L6.38134 11.5837C6.36318 11.7417 6.26172 11.9249 6.13381 12.0864C6.00372 12.2506 5.83451 12.4072 5.66182 12.5096L5.65969 12.5109L5.55014 12.5687L5.57064 12.6133C5.57068 12.6134 5.57072 12.6135 5.57076 12.6136C5.62983 12.74 5.71248 12.8098 5.83105 12.8382C5.95744 12.8684 6.13521 12.854 6.38473 12.7806C6.73339 12.6738 6.84552 12.6189 7.61733 12.1778L7.61828 12.1773L7.61924 12.1768C7.79487 12.0815 7.96161 11.993 8.08989 11.9295C8.15381 11.8979 8.20975 11.8716 8.25313 11.8537C8.2746 11.8449 8.29512 11.8372 8.31307 11.8319C8.32198 11.8293 8.33231 11.8267 8.34303 11.8251C8.3494 11.8242 8.36179 11.8226 8.37674 11.8242C8.43572 11.8275 8.47677 11.8646 8.49886 11.8953C8.52262 11.9283 8.53779 11.9709 8.53779 12.0136C8.53779 12.1028 8.47105 12.1673 8.39068 12.2282C8.30266 12.2948 8.15747 12.3853 7.92793 12.5203C7.3194 12.8824 6.84071 13.12 6.45925 13.2437C6.07881 13.3671 5.77985 13.3823 5.54191 13.2778C5.44157 13.234 5.33481 13.1381 5.25117 13.0414C5.1885 12.9689 5.12942 12.885 5.09287 12.8067ZM6.52077 7.97264C6.5266 7.97021 6.54301 7.96362 6.56422 7.96362C6.62855 7.96362 6.65526 8.01514 6.66115 8.02888C6.66849 8.04599 6.67064 8.06255 6.67153 8.07057C6.67341 8.08746 6.67339 8.10732 6.67339 8.12039L6.67339 8.1305L6.67218 8.13816C6.66525 8.18216 6.64337 8.2481 6.61677 8.31848C6.58908 8.39177 6.55286 8.47857 6.51282 8.56823C6.43369 8.74541 6.33703 8.93947 6.25846 9.06549C6.19173 9.18593 5.98736 9.46125 5.80973 9.68806L5.80908 9.6889C5.64813 9.88995 5.49652 10.0718 5.38462 10.1976C5.32911 10.2601 5.28147 10.3108 5.24662 10.3434C5.23082 10.3582 5.2113 10.3754 5.1921 10.3864C5.18668 10.3895 5.17867 10.3937 5.16882 10.397C5.1601 10.4 5.14207 10.405 5.11958 10.4018C5.09263 10.3981 5.06492 10.3832 5.04726 10.3556C5.03242 10.3324 5.03081 10.3097 5.03081 10.2985C5.03081 10.2843 5.03378 10.2726 5.03478 10.2686C5.03627 10.2627 5.03807 10.2571 5.0397 10.2523C5.04301 10.2426 5.04734 10.2314 5.0521 10.2198C5.06173 10.1963 5.07516 10.1658 5.09096 10.131C5.12259 10.0614 5.16543 9.97069 5.21053 9.87578C5.38288 9.50057 5.59058 9.1257 5.79607 8.80861C6.00042 8.49328 6.20692 8.22833 6.3779 8.07865L6.37834 8.07826C6.41398 8.04743 6.44368 8.02301 6.46671 8.00584C6.47802 7.9974 6.48953 7.98936 6.50036 7.98298C6.50572 7.97982 6.51275 7.97597 6.52077 7.97264ZM6.39509 8.33975C6.26619 8.47931 6.11643 8.67898 5.96252 8.91648C5.79258 9.17871 5.62064 9.48224 5.46962 9.79205C5.52809 9.72131 5.59014 9.64498 5.6539 9.56535C5.83567 9.33322 6.03016 9.06943 6.08593 8.96761L6.08732 8.96508L6.08885 8.96264C6.16044 8.84825 6.25344 8.6626 6.33172 8.48734C6.35462 8.43605 6.37605 8.38615 6.39509 8.33975ZM6.4744 8.09248C6.4744 8.09254 6.47441 8.09261 6.47442 8.09267C6.47422 8.09151 6.47427 8.09134 6.4744 8.09248ZM5.91657 11.5434C5.92161 11.5411 5.93892 11.5331 5.962 11.5331C5.97653 11.5331 5.99645 11.5358 6.01669 11.5472C6.03814 11.5592 6.05338 11.5773 6.06229 11.597C6.0776 11.6309 6.07157 11.6629 6.06875 11.6755C6.06205 11.7054 6.04582 11.7369 6.03007 11.7639C5.99616 11.8219 5.93979 11.8993 5.86816 11.9862M5.91657 11.5434C5.90898 11.5469 5.90266 11.5508 5.89834 11.5536L5.91657 11.5434ZM5.89834 11.5536C5.88955 11.5594 5.88084 11.5662 5.87321 11.5725L5.89834 11.5536ZM5.87321 11.5725C5.85752 11.5855 5.83856 11.6028 5.81815 11.6224L5.87321 11.5725ZM5.81815 11.6224C5.77693 11.662 5.72481 11.7153 5.67139 11.7725L5.81815 11.6224ZM5.67139 11.7725C5.56747 11.8838 5.44948 12.0191 5.39834 12.0983L5.67139 11.7725ZM5.39834 12.0983C5.39269 12.1065 5.38614 12.1169 5.38101 12.1284C5.37826 12.1346 5.37443 12.1444 5.37231 12.1566C5.37034 12.1679 5.36829 12.19 5.37847 12.2147C5.39032 12.2435 5.41324 12.2627 5.43773 12.2717C5.45855 12.2794 5.47679 12.2786 5.48609 12.2776C5.50456 12.2756 5.51976 12.2692 5.52699 12.266C5.55744 12.2526 5.59834 12.2243 5.63533 12.1965C5.71246 12.1387 5.81533 12.0503 5.86816 11.9862" fill="#1882FF"/>
<path d="M8.47868 12.0431C8.42873 12.1835 8.37878 12.4238 8.36823 12.5842C8.34825 12.8146 8.34825 12.8651 8.40819 12.9151C8.53863 13.0255 8.77896 12.8551 9.62152 12.083C9.85187 11.8827 10.0528 11.7123 10.0728 11.7123C10.2432 11.7123 10.2731 12.0531 10.1632 12.6747C10.1133 12.9356 10.0628 13.1859 10.0528 13.2359L10.0228 13.3363L10.1433 13.2359C10.6245 12.8046 12.0082 12.0126 12.2286 12.0431C12.389 12.0631 12.3285 12.2035 12.1081 12.3139C11.9977 12.3639 11.6269 12.5748 11.2861 12.7752C10.554 13.2065 9.92236 13.7177 9.85242 13.918C9.82245 13.9985 9.72199 14.3293 9.61209 14.6501C9.11088 16.2143 8.30884 17.3371 7.68719 17.3371C7.59672 17.3371 7.51679 17.3071 7.45684 17.2566C7.38691 17.1767 7.37636 17.1362 7.3969 16.9058C7.40689 16.6749 7.44685 16.565 7.62724 16.2143C7.94806 15.5926 8.47924 14.871 9.13086 14.1789C9.40173 13.8881 9.4317 13.8381 9.53216 13.4973C9.63262 13.1665 9.84299 12.3045 9.823 12.2945C9.823 12.2845 9.61264 12.4649 9.36176 12.6753C8.73012 13.2364 8.46925 13.3569 8.20893 13.1865C7.98858 13.0361 7.92808 12.6753 8.04852 12.1641C8.13844 11.7933 8.2389 11.6329 8.38932 11.6329C8.54862 11.6323 8.56916 11.7323 8.47868 12.0431ZM9.13031 14.5696C8.97989 14.7001 8.49867 15.3217 8.23779 15.6925C7.95694 16.1038 7.6661 16.7149 7.6661 16.8859V17.0263L7.8265 16.9358C7.91698 16.8859 8.0574 16.7654 8.13733 16.655C8.49811 16.2337 8.85945 15.5521 9.10977 14.8305L9.24021 14.4697L9.13031 14.5696Z" fill="#1882FF"/>
<path fill-rule="evenodd" clip-rule="evenodd" d="M8.4222 11.7347C8.41516 11.7332 8.40468 11.732 8.38967 11.7321L8.38932 11.7321C8.35863 11.7321 8.32337 11.7446 8.27984 11.8128C8.23387 11.8848 8.18933 12.0043 8.14498 12.1871C8.08658 12.4351 8.07399 12.6392 8.09886 12.7949C8.12356 12.9496 8.18349 13.0487 8.26407 13.104C8.31743 13.1388 8.3657 13.1556 8.41551 13.1584C8.4664 13.1612 8.52719 13.1497 8.60564 13.1147C8.76665 13.0427 8.97941 12.8823 9.2959 12.6011L9.29696 12.6002L9.29804 12.5993C9.35785 12.5491 9.41581 12.5003 9.46917 12.4553C9.52695 12.4067 9.57935 12.3625 9.62288 12.3262C9.66486 12.2911 9.69982 12.2622 9.7245 12.2426C9.73654 12.233 9.74766 12.2244 9.75645 12.2182C9.75999 12.2158 9.76712 12.2108 9.77523 12.2066C9.77529 12.2066 9.77538 12.2066 9.77548 12.2065C9.77791 12.2052 9.79125 12.1983 9.80914 12.1958C9.81739 12.1947 9.84591 12.1917 9.87539 12.2101C9.88974 12.219 9.89996 12.2301 9.9071 12.2417C9.91301 12.2509 9.91598 12.2589 9.91724 12.2625C9.92132 12.274 9.92249 12.2838 9.92294 12.2885C9.92389 12.2985 9.92343 12.3075 9.92308 12.3127C9.9223 12.3243 9.92043 12.3378 9.91829 12.3512C9.91386 12.3788 9.90648 12.4165 9.89715 12.4607C9.87837 12.5494 9.85056 12.6695 9.81913 12.799C9.75642 13.0573 9.67825 13.3575 9.62717 13.5257C9.57723 13.6951 9.54173 13.8039 9.48084 13.9072C9.42054 14.0095 9.33766 14.1024 9.20344 14.2465L9.20307 14.2469C8.55584 14.9343 8.03086 15.6484 7.71541 16.2597C7.62503 16.4354 7.57325 16.5445 7.54214 16.6367C7.51215 16.7256 7.5007 16.8011 7.49598 16.9101L7.49588 16.9124L7.49568 16.9146C7.48522 17.032 7.48448 17.0864 7.49055 17.1201C7.49452 17.1421 7.50098 17.1557 7.52625 17.1853C7.56696 17.2174 7.62194 17.2379 7.68719 17.2379C7.81288 17.2379 7.95878 17.1807 8.11967 17.0583C8.27979 16.9365 8.44738 16.7555 8.61416 16.5224C8.94757 16.0566 9.26932 15.3948 9.51764 14.6199L9.51795 14.6189L9.51827 14.618C9.57288 14.4586 9.62521 14.2965 9.66779 14.1637C9.67343 14.1461 9.67893 14.1289 9.68426 14.1123C9.71821 14.0062 9.74518 13.922 9.75916 13.8843C9.78482 13.8118 9.85166 13.729 9.93186 13.6465C10.0162 13.5597 10.128 13.4607 10.259 13.3558C10.5212 13.1458 10.8661 12.9075 11.2358 12.6897C11.5725 12.4918 11.9467 12.2786 12.0653 12.2245C12.1141 12.1999 12.1516 12.1749 12.1783 12.1522C12.181 12.1499 12.1836 12.1477 12.186 12.1455C12.1702 12.1488 12.1503 12.1543 12.1263 12.1621C12.0713 12.1801 12.001 12.2086 11.9186 12.2462C11.7541 12.3212 11.5482 12.4292 11.333 12.5524C10.9007 12.7997 10.442 13.1014 10.2095 13.3097L10.2081 13.3109L9.83375 13.6232L9.95645 13.2119C9.9574 13.2072 9.95859 13.2013 9.95999 13.1943C9.97613 13.1138 10.0211 12.8896 10.0657 12.6568C10.1202 12.3486 10.1382 12.1188 10.1244 11.9695C10.1174 11.8939 10.103 11.8493 10.0893 11.8263C10.0881 11.8244 10.087 11.8227 10.086 11.8212C10.0625 11.8389 10.0297 11.8653 9.98937 11.8988C9.909 11.9655 9.80228 12.0573 9.68758 12.157C9.268 12.5415 8.99238 12.7818 8.80411 12.9116C8.71069 12.9761 8.6295 13.02 8.55668 13.0368C8.47642 13.0554 8.40394 13.0412 8.34442 12.991C8.32296 12.9731 8.30201 12.951 8.28617 12.921C8.27044 12.8913 8.26298 12.8599 8.2596 12.8276C8.25341 12.7685 8.25972 12.6876 8.26934 12.5767C8.28055 12.4084 8.33163 12.1619 8.38425 12.0127C8.4059 11.938 8.42003 11.8789 8.42731 11.8324C8.43486 11.7842 8.43383 11.7566 8.43072 11.7421C8.43016 11.7395 8.42965 11.7378 8.42926 11.7366C8.42785 11.7361 8.42559 11.7354 8.4222 11.7347ZM10.0754 11.8114C10.0745 11.8112 10.0738 11.8113 10.0733 11.8114C10.0731 11.8114 10.0729 11.8114 10.0728 11.8114C10.0737 11.8114 10.0746 11.8114 10.0754 11.8114ZM10.1873 13.0691C10.2079 12.9652 10.2343 12.8308 10.2607 12.6934L10.2608 12.6927L10.2609 12.692C10.3163 12.3788 10.3382 12.1277 10.3219 11.9513C10.3138 11.8639 10.2956 11.7845 10.2592 11.7241C10.2197 11.6584 10.1564 11.6131 10.0728 11.6131C10.0566 11.6131 10.044 11.617 10.0387 11.6188C10.0321 11.621 10.0267 11.6235 10.023 11.6253C10.0156 11.629 10.0088 11.6331 10.0035 11.6366C9.99244 11.6437 9.97971 11.6529 9.96638 11.6629C9.93933 11.6834 9.90379 11.7121 9.86271 11.7462C9.78025 11.8146 9.67171 11.9079 9.55644 12.0082L9.55547 12.0091L9.55452 12.0099C9.13207 12.397 8.86652 12.6277 8.69151 12.7484C8.60322 12.8092 8.54721 12.8354 8.51196 12.8436C8.48471 12.8499 8.47813 12.8443 8.47255 12.8396L8.47228 12.8394L8.47168 12.8389C8.46345 12.832 8.46192 12.8291 8.46155 12.8284C8.46105 12.8274 8.45849 12.8224 8.45687 12.807C8.4531 12.7709 8.45671 12.7118 8.46703 12.5928L8.46712 12.5918L8.46719 12.5908C8.47715 12.4393 8.52529 12.208 8.57212 12.0763L8.57309 12.0736L8.57391 12.0708C8.59704 11.9913 8.61402 11.9222 8.62327 11.8631C8.63233 11.8052 8.63524 11.7496 8.62462 11.7003C8.61318 11.6472 8.58533 11.5995 8.53531 11.5687C8.48972 11.5405 8.43705 11.5336 8.38914 11.5337C8.3892 11.5337 8.38926 11.5337 8.38932 11.5337V11.6329L8.38898 11.5337C8.38903 11.5337 8.38909 11.5337 8.38914 11.5337C8.2695 11.5338 8.17939 11.6015 8.11263 11.7061C8.04831 11.8069 7.99768 11.9529 7.95214 12.1407L7.95199 12.1413C7.89001 12.4044 7.87265 12.6362 7.903 12.8262C7.93344 13.0168 8.01364 13.1732 8.15302 13.2684L8.15381 13.2689L8.15462 13.2695C8.23109 13.3195 8.3128 13.3514 8.40461 13.3564C8.49558 13.3614 8.5883 13.3397 8.68656 13.2958C8.87876 13.2099 9.11195 13.0298 9.42657 12.7504C9.48701 12.6997 9.54463 12.6511 9.59749 12.6066C9.62522 12.5832 9.65164 12.561 9.67647 12.5401C9.66185 12.6042 9.64479 12.6763 9.62638 12.7522C9.56383 13.0099 9.48666 13.3059 9.43727 13.4685L9.43703 13.4693C9.38658 13.6404 9.35686 13.7269 9.30998 13.8065C9.26248 13.887 9.19498 13.9645 9.05845 14.1111C8.40255 14.8078 7.86527 15.5368 7.53911 16.1688L7.53905 16.1689C7.44906 16.3439 7.39067 16.4652 7.3542 16.5733C7.31685 16.6841 7.30326 16.7785 7.29792 16.8993C7.28798 17.0111 7.28386 17.0915 7.29534 17.1552C7.30873 17.2295 7.34192 17.2759 7.38221 17.3219L7.38717 17.3276L7.39294 17.3325C7.47163 17.3988 7.57448 17.4363 7.68719 17.4363C7.87232 17.4363 8.0598 17.3531 8.23979 17.2161C8.42056 17.0786 8.60136 16.8811 8.77545 16.6379C9.12363 16.1514 9.45339 15.4701 9.70623 14.6813C9.7614 14.5202 9.81413 14.3569 9.85667 14.2242C9.86229 14.2067 9.86771 14.1898 9.87293 14.1735C9.90783 14.0645 9.93324 13.9852 9.94536 13.9526L9.94572 13.9517L9.94606 13.9507C9.95564 13.9233 9.99372 13.8674 10.0741 13.7847C10.1508 13.7058 10.2558 13.6124 10.3829 13.5106C10.637 13.3071 10.974 13.0741 11.3364 12.8606C11.6795 12.6589 12.0446 12.4515 12.149 12.4043L12.1508 12.4035L12.1526 12.4026C12.2132 12.3722 12.2653 12.3386 12.3067 12.3034C12.3469 12.2693 12.3822 12.2292 12.4019 12.1845C12.4224 12.1379 12.4296 12.0739 12.3874 12.0183C12.3503 11.9695 12.292 11.9511 12.2414 11.9447C12.2123 11.9408 12.182 11.9443 12.1557 11.9493C12.1277 11.9545 12.097 11.963 12.0646 11.9736C11.9998 11.9948 11.9221 12.0266 11.8363 12.0657C11.6644 12.1441 11.4529 12.2553 11.2345 12.3802C10.8572 12.5961 10.4507 12.858 10.1873 13.0691ZM9.72519 12.2994C9.72518 12.2994 9.72519 12.2994 9.72519 12.2994V12.2994ZM9.0644 14.4955L9.1735 14.3964L9.33347 14.5035L9.20326 14.8636C8.95098 15.5906 8.58565 16.2827 8.21522 16.7165C8.12672 16.8373 7.97743 16.9656 7.87486 17.0224C7.87472 17.0225 7.87458 17.0226 7.87444 17.0226L7.56692 17.1961V16.8859C7.56692 16.8239 7.59109 16.7389 7.62264 16.6515C7.65575 16.5597 7.70232 16.4512 7.75715 16.3365C7.86674 16.1073 8.01212 15.8471 8.15589 15.6366L8.15668 15.6354C8.28831 15.4484 8.47493 15.1988 8.64756 14.9796C8.81667 14.7648 8.98026 14.5689 9.0644 14.4955ZM8.99047 14.8706C8.93376 14.9387 8.87021 15.0175 8.80339 15.1023C8.63276 15.319 8.44853 15.5654 8.31931 15.749C8.18236 15.9496 8.04205 16.2004 7.9361 16.4221C7.88311 16.5329 7.83942 16.635 7.80922 16.7188C7.7874 16.7793 7.77482 16.8244 7.76908 16.8543L7.77857 16.849C7.85597 16.8063 7.98542 16.6957 8.05698 16.5968L8.05936 16.5935L8.062 16.5904C8.40026 16.1955 8.74411 15.5574 8.99047 14.8706Z" fill="#1882FF"/>
<path d="M18.9151 7.47126C19.0256 7.64165 19.0256 7.80206 18.9351 7.99244C18.8546 8.16284 18.7447 8.21335 18.6842 8.11289C18.6443 8.06293 18.6543 8.04295 18.7142 7.92251C18.7742 7.79207 18.7742 7.77209 18.7342 7.68162C18.6743 7.5312 18.5838 7.48125 18.283 7.44128C17.8417 7.39133 16.6689 7.44128 15.9673 7.54175L15.7264 7.58171L15.606 7.82204C15.3051 8.36321 14.9144 9.42613 14.3627 11.1806C14.3127 11.361 14.2322 11.6119 14.1823 11.7423C13.7615 13.0756 13.7316 13.176 13.5806 13.8776C13.4502 14.4387 13.4302 14.6197 13.4907 14.6497C13.5506 14.6896 13.5306 14.89 13.4707 14.9405C13.3503 15.0204 13.2703 15.0005 13.1799 14.8806C13.0594 14.7002 13.0694 14.4493 13.2298 13.6173C13.4207 12.6149 13.5207 12.2336 13.8914 11.0008C14.0418 10.5296 14.0119 10.0583 13.8109 9.81799C13.6006 9.54713 13.0489 9.2968 12.5577 9.22631C12.2668 9.18635 12.1464 9.1264 12.1364 9.01595C12.0664 8.61465 13.3597 7.91307 15.0237 7.46182C15.2341 7.40187 15.445 7.32139 15.495 7.29142C15.5549 7.25146 15.6154 7.24147 15.6654 7.26145C15.7053 7.28143 15.8857 7.27144 16.0661 7.24147C16.7982 7.141 17.9111 7.09105 18.3218 7.141C18.6249 7.18097 18.8152 7.29087 18.9151 7.47126ZM14.6446 7.87255C13.7521 8.15341 12.8901 8.54416 12.5693 8.79504L12.4089 8.92548L12.6298 8.95545C12.9107 9.0054 13.3514 9.15582 13.5923 9.29625C13.8431 9.44666 13.993 9.60707 14.1134 9.83797C14.1634 9.93788 14.2034 10.0284 14.2139 10.0284C14.2139 10.0184 14.2739 9.84796 14.3443 9.6376C14.5247 9.10642 14.916 8.18393 15.0665 7.93305C15.1364 7.80262 15.1869 7.74267 15.1364 7.73268C15.0853 7.72214 14.9449 7.77209 14.6446 7.87255Z" fill="#1882FF"/>
<path fill-rule="evenodd" clip-rule="evenodd" d="M16.0809 7.33953C15.9881 7.35491 15.8947 7.36528 15.8182 7.36923C15.7799 7.37121 15.7441 7.37166 15.714 7.36999C15.691 7.36872 15.6564 7.36579 15.6271 7.35299C15.6154 7.34898 15.5899 7.3473 15.55 7.37394L15.548 7.37525L15.546 7.37646C15.5116 7.39706 15.4375 7.42765 15.3537 7.45846C15.2664 7.49058 15.1587 7.52648 15.0509 7.5572L15.0497 7.55754C14.223 7.78171 13.4912 8.0674 12.9769 8.3449C12.7192 8.48397 12.5205 8.61863 12.392 8.73951C12.3277 8.79997 12.2843 8.8539 12.2592 8.89998C12.253 8.91134 12.2481 8.92184 12.2443 8.93153L12.5075 8.7175L12.5082 8.71692C12.6787 8.58363 12.9837 8.41922 13.3521 8.2545C13.7226 8.08886 14.1645 7.91972 14.614 7.77822C14.6412 7.76912 14.6672 7.7604 14.692 7.75208C14.8025 7.71501 14.8894 7.68582 14.9554 7.66601C14.996 7.65383 15.0316 7.64427 15.0617 7.63854C15.089 7.63333 15.1233 7.62881 15.156 7.63547C15.1719 7.63866 15.1947 7.64579 15.2154 7.6636C15.2387 7.68359 15.2511 7.70992 15.2548 7.73605C15.2581 7.75917 15.2541 7.77924 15.2506 7.79226C15.2468 7.80595 15.2415 7.81868 15.2366 7.82935C15.2269 7.85022 15.2134 7.87413 15.2001 7.89732C15.1986 7.89987 15.1972 7.90245 15.1957 7.90505C15.1829 7.92748 15.1688 7.95198 15.1539 7.97992L15.1527 7.98201L15.1515 7.98405C15.0804 8.10261 14.9475 8.38959 14.808 8.71892C14.6693 9.04602 14.5274 9.40689 14.4383 9.66929C14.4126 9.746 14.3883 9.81755 14.3678 9.87772C14.3601 9.90016 14.353 9.92103 14.3466 9.93998C14.3347 9.97508 14.3252 10.0033 14.3187 10.0233C14.3163 10.0307 14.3144 10.0365 14.3131 10.0409V10.1275H14.2139C14.18 10.1275 14.1573 10.1108 14.1507 10.1056C14.1417 10.0986 14.1354 10.0914 14.1321 10.0873C14.1251 10.0789 14.1195 10.0699 14.1157 10.0636C14.1076 10.05 14.0986 10.0327 14.0898 10.015C14.0815 9.9984 14.0722 9.97923 14.0624 9.95912L14.0595 9.95317C14.0487 9.93089 14.0372 9.90723 14.0251 9.88309C13.9137 9.66982 13.7772 9.52287 13.5418 9.38162C13.3131 9.24845 12.8858 9.10205 12.6144 9.05344L12.2346 9.00191L12.2348 9.00295L12.2351 9.00701C12.2361 9.01803 12.2389 9.03532 12.286 9.05882C12.3384 9.08497 12.4276 9.10833 12.5712 9.12806L12.5717 9.12814C12.8276 9.16486 13.0977 9.24805 13.3315 9.35714C13.5624 9.46484 13.7688 9.60281 13.8882 9.75576C14.006 9.89749 14.0673 10.0978 14.0819 10.3162C14.0966 10.5366 14.0645 10.7844 13.9862 11.0301C13.6162 12.2602 13.5173 12.638 13.3272 13.6358L13.3272 13.6361C13.2469 14.0527 13.2058 14.3165 13.1986 14.4972C13.1917 14.6726 13.2173 14.757 13.2608 14.8231C13.3004 14.875 13.324 14.8862 13.3349 14.8885C13.3427 14.8902 13.3624 14.8913 13.4062 14.8641C13.4078 14.8613 13.4107 14.8558 13.414 14.8463C13.4202 14.829 13.4249 14.8065 13.4268 14.7831C13.4287 14.7593 13.4274 14.7394 13.4245 14.7265C13.4243 14.7258 13.4242 14.7252 13.424 14.7246C13.3832 14.6936 13.3684 14.6464 13.3628 14.6103C13.3562 14.567 13.3584 14.5134 13.3655 14.4515C13.38 14.3261 13.4188 14.1357 13.4838 13.8559C13.6357 13.1503 13.667 13.0457 14.0877 11.7125L14.0886 11.7096L14.0897 11.7069C14.1382 11.5802 14.2177 11.3325 14.2671 11.1542L14.2675 11.1525L14.2681 11.1509C14.8186 9.40023 15.2118 8.32781 15.5182 7.77573L15.6604 7.49214L15.9522 7.44373L15.9532 7.44357C16.659 7.34251 17.8411 7.29146 18.2941 7.34274L18.2951 7.34285L18.296 7.34297C18.4468 7.363 18.5607 7.38703 18.6458 7.43262C18.7386 7.48237 18.7895 7.55319 18.8256 7.64316C18.8451 7.68717 18.8651 7.73521 18.8606 7.79465C18.8565 7.84816 18.8327 7.90226 18.8043 7.96392L18.8037 7.96532L18.803 7.9667C18.7877 7.99753 18.7769 8.01921 18.7692 8.03645C18.7662 8.0431 18.7641 8.04823 18.7626 8.05212L18.7658 8.05608L18.7679 8.05959C18.785 8.04716 18.8146 8.01538 18.8455 7.95009L18.8456 7.94988C18.8863 7.86423 18.9033 7.79232 18.9014 7.72726C18.8995 7.66315 18.879 7.59783 18.8319 7.5252L18.8301 7.52231L18.8284 7.5193C18.7494 7.37672 18.5946 7.27711 18.3093 7.23939C18.1128 7.21557 17.7395 7.21512 17.3189 7.2339C16.9005 7.25259 16.443 7.28991 16.0809 7.33953ZM13.4218 14.7178C13.4219 14.7178 13.422 14.7181 13.4223 14.7189C13.422 14.7182 13.4218 14.7178 13.4218 14.7178ZM17.31 7.03575C17.7312 7.01695 18.1194 7.01649 18.3338 7.04255L18.3348 7.04268C18.6538 7.08474 18.879 7.20398 19.0002 7.42018C19.0624 7.51704 19.0965 7.61621 19.0996 7.72145C19.1027 7.82679 19.0745 7.93028 19.0247 8.03501C18.9808 8.12787 18.9205 8.20793 18.8447 8.24386C18.804 8.26314 18.7553 8.27094 18.7061 8.25444C18.6603 8.23906 18.6265 8.20677 18.6029 8.16991C18.5914 8.15498 18.5783 8.13554 18.57 8.11156C18.5597 8.08202 18.5591 8.0532 18.5643 8.02562C18.569 8.00088 18.5785 7.97705 18.5881 7.95563C18.5976 7.93417 18.6102 7.90884 18.6245 7.88024L18.6247 7.8797C18.6558 7.81204 18.6619 7.79113 18.6628 7.7795C18.6632 7.77446 18.6637 7.76749 18.6435 7.72169L18.6428 7.72002L18.6421 7.71833C18.6183 7.65871 18.594 7.62994 18.5521 7.60744C18.5018 7.58052 18.4203 7.55962 18.2708 7.53972C17.8408 7.4913 16.6794 7.54008 15.9824 7.63976L15.7924 7.67128L15.6937 7.86838L15.6926 7.87023C15.3977 8.40088 15.0098 9.45335 14.4578 11.2088C14.4076 11.3898 14.3273 11.6405 14.276 11.775C13.8562 13.105 13.8274 13.2022 13.6776 13.8985L13.6774 13.8993L13.6772 13.9001C13.6119 14.1811 13.5756 14.3614 13.5626 14.4742C13.5564 14.5275 13.5563 14.5592 13.5584 14.5767C13.5961 14.6082 13.6113 14.6531 13.6181 14.6833C13.6264 14.7207 13.6276 14.7615 13.6245 14.7992C13.6214 14.8372 13.6137 14.8767 13.6011 14.9124C13.5894 14.9455 13.5694 14.987 13.5346 15.0164L13.5303 15.02L13.5255 15.0231C13.4557 15.0695 13.3775 15.1006 13.2931 15.0824C13.2115 15.0648 13.1505 15.0063 13.1007 14.9403L13.099 14.938L13.0974 14.9356C13.0213 14.8217 12.9925 14.6905 13.0004 14.4894C13.0082 14.2916 13.0523 14.0139 13.1324 13.5986C13.3242 12.5919 13.4251 12.207 13.7965 10.9722L13.7967 10.9714L13.7969 10.9706C13.8688 10.7454 13.8969 10.5223 13.884 10.3294C13.871 10.135 13.8172 9.98013 13.7349 9.8816L13.7337 9.88023L13.7326 9.87882C13.6415 9.76146 13.4674 9.63936 13.2477 9.53689C13.0304 9.43552 12.7791 9.35831 12.5438 9.32452C12.3967 9.30429 12.2804 9.2777 12.1974 9.2363C12.1103 9.19284 12.0483 9.12619 12.038 9.02898C12.0256 8.95121 12.047 8.87475 12.0851 8.80494C12.1237 8.73408 12.1829 8.66383 12.2561 8.59504C12.4024 8.45741 12.6179 8.31323 12.8827 8.17034C13.4134 7.88398 14.16 7.59333 14.9971 7.36627C15.0995 7.33708 15.2022 7.30284 15.2853 7.2723C15.3695 7.24132 15.425 7.21719 15.4425 7.20724C15.5202 7.1563 15.6141 7.13413 15.7022 7.16937L15.7032 7.16979C15.7045 7.16994 15.7109 7.17117 15.725 7.17195C15.7455 7.17309 15.7736 7.17292 15.808 7.17115C15.8763 7.16762 15.9628 7.1581 16.0498 7.14363L16.0512 7.1434L16.0526 7.14321C16.4224 7.09246 16.8868 7.05465 17.31 7.03575ZM14.7566 7.93962C14.7312 7.94813 14.7044 7.95713 14.6761 7.9666L14.6752 7.96689L14.6744 7.96715C14.2317 8.10646 13.7967 8.27301 13.4331 8.43557C13.0824 8.59236 12.8047 8.74255 12.6499 8.85829C12.9402 8.91038 13.3903 9.06374 13.6422 9.21057L13.6433 9.21118C13.9032 9.36704 14.0649 9.53658 14.1929 9.77601C14.2103 9.72466 14.2299 9.66711 14.2503 9.60609L14.2504 9.60571C14.3417 9.33695 14.4857 8.97108 14.6253 8.64151C14.7634 8.31577 14.9006 8.01748 14.9802 7.88413C14.9842 7.87658 14.9882 7.86926 14.9921 7.86218C14.9321 7.88072 14.8553 7.90651 14.7566 7.93962Z" fill="#1882FF"/>
<path d="M14.8249 12.8552C14.8449 12.324 15.0253 11.6924 15.1862 11.6219C15.2667 11.5819 15.2967 11.5919 15.3666 11.6619C15.4565 11.7523 15.4465 11.7923 15.3366 12.2735L15.3067 12.374L15.3966 12.2735C15.4465 12.2236 15.567 12.0831 15.6675 11.9627C15.8578 11.7323 16.0882 11.6019 16.2286 11.6219C16.2885 11.6319 16.369 11.7024 16.429 11.7923C16.4789 11.8828 16.5694 11.9727 16.6293 11.9927C16.7898 12.0526 16.8697 12.0731 17.4514 11.9827C17.7422 11.9327 18.0125 11.9127 18.053 11.9227C18.1035 11.9327 18.1335 11.9827 18.1335 12.0432C18.1335 12.1231 18.1135 12.1431 17.9431 12.1636C17.8327 12.1836 17.6223 12.2136 17.4719 12.2541C17.0712 12.3346 16.7404 12.3346 16.5394 12.2741C16.379 12.2341 16.3291 12.1936 16.1281 11.9133C16.0982 11.8633 15.6774 12.3446 15.4066 12.7453C15.2262 13.0062 15.0758 13.1966 15.0358 13.1966C14.9958 13.1966 14.9353 13.1766 14.8954 13.1466C14.8349 13.0961 14.8149 13.0456 14.8249 12.8552Z" fill="#1882FF"/>
<path fill-rule="evenodd" clip-rule="evenodd" d="M15.2589 11.6986C15.2544 11.7 15.2455 11.7032 15.2303 11.7107L15.2282 11.7118L15.226 11.7127C15.226 11.7127 15.226 11.7127 15.226 11.7127C15.2254 11.7131 15.2169 11.7178 15.2022 11.7359C15.1876 11.7539 15.1708 11.7801 15.1528 11.815C15.1169 11.8848 15.0808 11.9805 15.0479 12.0935C14.9824 12.3192 14.9337 12.6019 14.924 12.8589L14.924 12.8597L14.9239 12.8604C14.919 12.9547 14.9226 13.0014 14.9296 13.028C14.9342 13.0454 14.9398 13.0542 14.9567 13.0686C14.9668 13.0758 14.9815 13.0834 14.9982 13.0892C15.0039 13.0911 15.0091 13.0927 15.0138 13.0939C15.0145 13.0932 15.0153 13.0924 15.0161 13.0916C15.0345 13.0737 15.0599 13.0452 15.0916 13.0062C15.1543 12.929 15.2353 12.8187 15.3247 12.6893C15.4626 12.4853 15.6379 12.2619 15.7829 12.0952C15.8552 12.0121 15.9217 11.941 15.9735 11.8931C15.9985 11.8699 16.0242 11.8482 16.0477 11.8338C16.0582 11.8273 16.077 11.8167 16.1002 11.8124C16.1126 11.8102 16.1323 11.8086 16.1546 11.8157C16.1773 11.8231 16.1966 11.8376 16.2098 11.8569C16.3108 11.9978 16.3668 12.0678 16.4141 12.109C16.455 12.1446 16.4905 12.1597 16.5634 12.1778L16.5657 12.1784L16.568 12.1791C16.7457 12.2326 17.0565 12.236 17.4493 12.1575C17.5679 12.1258 17.7225 12.1001 17.835 12.0814C17.87 12.0756 17.901 12.0705 17.9255 12.066L17.9284 12.0655L17.9313 12.0652C17.9729 12.0601 18.0018 12.0555 18.0223 12.0508C18.0271 12.0497 18.0311 12.0486 18.0343 12.0477C18.0343 12.0463 18.0343 12.0448 18.0343 12.0432C18.0343 12.0311 18.0318 12.0234 18.03 12.0197C18.0287 12.0196 18.027 12.0196 18.0249 12.0195C18.0158 12.0193 18.003 12.0194 17.9863 12.02C17.9532 12.0211 17.9085 12.0241 17.8551 12.029C17.7486 12.0387 17.6109 12.0559 17.4682 12.0804L17.4674 12.0805L17.4666 12.0807C17.176 12.1259 17.0032 12.1447 16.8812 12.1432C16.753 12.1417 16.6808 12.1177 16.596 12.0861C16.5447 12.0684 16.4946 12.0283 16.4554 11.9891C16.4142 11.948 16.3742 11.8971 16.3444 11.8442C16.3193 11.8072 16.2909 11.7753 16.2642 11.7524C16.2506 11.7407 16.2384 11.7323 16.2285 11.7267C16.2236 11.724 16.2197 11.7222 16.2168 11.7211C16.2153 11.7206 16.2142 11.7202 16.2134 11.72C16.2132 11.7199 16.213 11.7199 16.2129 11.7198C16.1754 11.7153 16.1074 11.7301 16.0175 11.7836C15.9296 11.836 15.8328 11.9183 15.7439 12.0259L15.7436 12.0262C15.6453 12.1441 15.5236 12.2863 15.4687 12.3416L15.3806 12.4401L15.2116 12.3456L15.2407 12.2483C15.2964 12.0045 15.3232 11.8858 15.3276 11.8151C15.3295 11.7829 15.3259 11.7711 15.3238 11.7661C15.3214 11.7603 15.3164 11.752 15.2964 11.7319C15.28 11.7155 15.2694 11.7061 15.2618 11.7006C15.2607 11.6998 15.2597 11.6991 15.2589 11.6986ZM15.2629 11.6976C15.2629 11.6976 15.2629 11.6977 15.2628 11.6977L15.2629 11.6976ZM15.4967 12.0114C15.5128 11.9334 15.5227 11.8739 15.5255 11.8272C15.5286 11.7779 15.5248 11.7328 15.5069 11.6898C15.4893 11.6475 15.4618 11.617 15.437 11.5919L15.4367 11.5917C15.4031 11.558 15.3602 11.5177 15.3033 11.5042C15.2419 11.4896 15.1874 11.5107 15.144 11.5322C15.1046 11.5501 15.0731 11.5803 15.0484 11.6108C15.0223 11.6428 14.9984 11.6817 14.9765 11.7242C14.9327 11.8093 14.8923 11.918 14.8575 12.0381C14.7877 12.2784 14.7362 12.5768 14.7258 12.8507C14.7208 12.9464 14.7223 13.0199 14.7378 13.0787C14.7556 13.146 14.79 13.1878 14.8318 13.2227L14.8338 13.2244L14.8359 13.2259C14.8915 13.2677 14.9726 13.2957 15.0358 13.2957C15.0734 13.2957 15.102 13.2765 15.1121 13.2695C15.1269 13.2593 15.1413 13.2466 15.1544 13.2338C15.181 13.2079 15.212 13.1725 15.2455 13.1313C15.313 13.0482 15.3973 12.9331 15.4882 12.8017L15.4887 12.8008C15.6216 12.6042 15.792 12.3869 15.9325 12.2254C15.9994 12.1485 16.0578 12.0862 16.1013 12.0451C16.1732 12.1428 16.229 12.2108 16.2839 12.2586C16.3576 12.3228 16.4267 12.3481 16.5132 12.3697C16.737 12.4364 17.0856 12.4328 17.4914 12.3513L17.4946 12.3507L17.4977 12.3498C17.6062 12.3206 17.7459 12.2974 17.8584 12.2787C17.8952 12.2726 17.929 12.2669 17.9579 12.2617C18.0002 12.2566 18.0367 12.2511 18.0672 12.244C18.0976 12.2369 18.1296 12.2267 18.1573 12.2081C18.1886 12.1872 18.2102 12.1587 18.2217 12.1245C18.2317 12.095 18.2327 12.0651 18.2327 12.0432C18.2327 11.9563 18.1873 11.8492 18.074 11.8258C18.0583 11.8223 18.0415 11.8215 18.0301 11.8212C18.0155 11.8209 17.9983 11.8211 17.9794 11.8217C17.9413 11.8231 17.8927 11.8264 17.837 11.8315C17.7257 11.8417 17.5832 11.8594 17.4354 11.8848C17.1447 11.93 16.987 11.9461 16.8835 11.9449C16.787 11.9438 16.7391 11.9278 16.6641 11.8998L16.6624 11.8991L16.6607 11.8986C16.6528 11.8959 16.6284 11.8816 16.5955 11.8487C16.5649 11.8182 16.5357 11.7805 16.5158 11.7444L16.5138 11.7407L16.5115 11.7373C16.4771 11.6857 16.4361 11.6385 16.3934 11.6018C16.3529 11.5671 16.3011 11.5334 16.2449 11.5241L16.2437 11.5239L16.2426 11.5237C16.1393 11.509 16.0225 11.5498 15.916 11.6132C15.8061 11.6786 15.6926 11.7767 15.5912 11.8993C15.5603 11.9363 15.528 11.9746 15.4967 12.0114ZM18.0293 12.019L18.0297 12.0191C18.0296 12.0191 18.0294 12.019 18.0293 12.019ZM14.9995 13.1062C14.9973 13.1077 14.9976 13.1072 15.0001 13.1058C14.9999 13.106 14.9997 13.1061 14.9995 13.1062Z" fill="#1882FF"/>
<path d="M18.234 12.0131C18.1641 12.1635 18.0936 12.3638 18.0636 12.4543C18.0131 12.6147 18.0131 12.6347 18.0936 12.6952C18.1441 12.7352 18.224 12.7452 18.3844 12.7252C18.6053 12.7052 19.3968 12.4044 20.059 12.1035C20.4298 11.9331 20.5302 11.9231 20.5103 12.0736C20.5003 12.1435 20.4203 12.204 20.1595 12.3344C19.7082 12.5548 18.8662 12.9061 18.6053 12.9761C18.3145 13.0565 17.9937 13.0465 17.8433 12.9461C17.5924 12.7957 17.5724 12.4449 17.7833 11.9936C17.9237 11.7028 18.0342 11.5823 18.1646 11.5823C18.3439 11.5818 18.3639 11.7022 18.234 12.0131ZM18.8457 10.4389C18.6953 10.7198 18.5848 10.7897 18.4749 10.6898C18.3445 10.5494 18.5748 10.0882 18.7757 10.0882C18.9356 10.0882 18.9656 10.2186 18.8457 10.4389Z" fill="#1882FF"/>
<path fill-rule="evenodd" clip-rule="evenodd" d="M18.5459 10.6202C18.5606 10.6326 18.5681 10.6336 18.5689 10.6337C18.5695 10.6338 18.5708 10.6339 18.5735 10.6331C18.5765 10.6322 18.582 10.6301 18.5901 10.6246C18.6279 10.5994 18.6834 10.5319 18.7583 10.3921L18.7586 10.3915C18.8162 10.2857 18.8235 10.225 18.8185 10.2011C18.8176 10.1967 18.8165 10.195 18.8165 10.1949L18.8163 10.1948C18.8162 10.1947 18.8161 10.1946 18.8158 10.1944C18.8138 10.1931 18.8033 10.1873 18.7757 10.1873C18.7625 10.1873 18.7338 10.1964 18.6939 10.2343C18.6561 10.2702 18.619 10.3222 18.5898 10.3807C18.5605 10.4392 18.5422 10.4984 18.5373 10.5466C18.5327 10.5923 18.5411 10.6131 18.5459 10.6202ZM18.5573 10.0905C18.613 10.0376 18.6886 9.98898 18.7757 9.98898C18.8281 9.98898 18.8813 9.99954 18.9261 10.0296C18.9733 10.0611 19.0017 10.1079 19.0127 10.1608C19.0327 10.2571 18.9951 10.3717 18.9329 10.4861C18.8574 10.627 18.7826 10.7347 18.7001 10.7897C18.6556 10.8193 18.6038 10.8371 18.5472 10.8308C18.4918 10.8247 18.4456 10.7972 18.4082 10.7632L18.4051 10.7604L18.4022 10.7573C18.3411 10.6915 18.3324 10.601 18.34 10.5266C18.3479 10.4488 18.3752 10.3663 18.4123 10.292C18.4496 10.2175 18.4995 10.1455 18.5573 10.0905ZM18.2154 11.6889C18.2121 11.6871 18.1988 11.6814 18.1649 11.6815L18.1646 11.6815C18.1353 11.6815 18.0997 11.6931 18.0505 11.7463C17.9993 11.8016 17.9418 11.8935 17.8729 12.0362C17.7715 12.2532 17.7305 12.4364 17.7391 12.5766C17.7475 12.713 17.8018 12.8056 17.8943 12.861L17.8963 12.8623L17.8983 12.8636C17.9513 12.899 18.0475 12.9251 18.1753 12.9298C18.3001 12.9344 18.4429 12.9181 18.5789 12.8805L18.5797 12.8803C18.7028 12.8473 18.9725 12.7446 19.273 12.62C19.5713 12.4964 19.8924 12.3545 20.1155 12.2455C20.2458 12.1804 20.3237 12.1361 20.3696 12.1018C20.3857 12.0898 20.3959 12.0805 20.4022 12.0736C20.3823 12.0785 20.3564 12.0866 20.323 12.0989C20.2654 12.1201 20.1923 12.1514 20.1004 12.1936L20.1 12.1938C19.767 12.3451 19.4015 12.4964 19.091 12.6126C18.9358 12.6706 18.7935 12.7202 18.6754 12.7567C18.5609 12.792 18.4618 12.8175 18.3951 12.8238C18.2378 12.8433 18.119 12.841 18.0331 12.7738C17.9937 12.7442 17.9399 12.7016 17.931 12.6235C17.9272 12.5905 17.9323 12.5581 17.939 12.5289C17.9459 12.4991 17.9565 12.4642 17.969 12.4245L17.9692 12.4238L17.9695 12.4231C17.9996 12.3321 18.0711 12.1286 18.1432 11.9731C18.1743 11.8986 18.1951 11.8385 18.2069 11.7908C18.2191 11.7414 18.2199 11.7122 18.2174 11.6968C18.2167 11.6924 18.2158 11.69 18.2154 11.6889ZM20.4466 12.067C20.4466 12.067 20.4465 12.067 20.4463 12.067L20.4466 12.067ZM18.3995 11.8383C18.3842 11.9002 18.359 11.9712 18.3255 12.0513L18.3248 12.0531L18.3239 12.0549C18.2567 12.1996 18.1878 12.395 18.158 12.4848C18.1454 12.5249 18.1371 12.5525 18.1323 12.5734C18.1298 12.5843 18.1287 12.5913 18.1283 12.5956C18.1323 12.5993 18.1398 12.6058 18.1532 12.6159L18.1542 12.6167L18.1551 12.6174C18.17 12.6292 18.2101 12.647 18.3722 12.6268L18.3738 12.6266L18.3755 12.6264C18.4192 12.6224 18.5012 12.6029 18.6169 12.5672C18.73 12.5322 18.8684 12.484 19.0215 12.4268C19.3275 12.3123 19.6887 12.1628 20.0178 12.0133C20.1112 11.9704 20.1897 11.9366 20.2545 11.9127C20.3177 11.8895 20.3751 11.8729 20.424 11.8693C20.4724 11.8658 20.5392 11.874 20.5813 11.9336C20.6169 11.984 20.6141 12.0453 20.6086 12.0866L20.6084 12.0876C20.5979 12.1612 20.5503 12.2145 20.4883 12.2608C20.4266 12.3068 20.3342 12.3579 20.2038 12.4231L20.203 12.4235C19.9749 12.5349 19.6496 12.6787 19.349 12.8033C19.0508 12.9268 18.7693 13.0347 18.6314 13.0717C18.4767 13.1145 18.3138 13.1334 18.168 13.128C18.0261 13.1228 17.8876 13.0941 17.7902 13.0299C17.6332 12.9348 17.5527 12.7773 17.5411 12.5887C17.5298 12.4032 17.5841 12.1856 17.6935 11.9516L17.694 11.9505C17.7654 11.8026 17.8332 11.6891 17.9049 11.6116C17.9787 11.5318 18.0634 11.4832 18.1645 11.4832C18.2181 11.483 18.275 11.4915 18.3229 11.5222C18.3754 11.5559 18.4038 11.6075 18.4132 11.6651C18.4218 11.7185 18.4144 11.7777 18.3995 11.8383ZM18.1645 11.4832C18.1645 11.4832 18.1646 11.4832 18.1646 11.4832V11.5823L18.1643 11.4832C18.1644 11.4832 18.1644 11.4832 18.1645 11.4832Z" fill="#1882FF"/>
<path d="M19.146 15.1713C19.5068 13.6976 19.7576 12.9156 20.1284 12.1035C20.3188 11.6823 20.3993 11.5823 20.5397 11.6023C20.7501 11.6223 20.7501 11.7228 20.5297 12.254C20.4193 12.5148 20.3293 12.7452 20.3293 12.7652C20.3293 12.7851 20.4398 12.6652 20.5697 12.5043C20.8305 12.1735 21.3118 11.7022 21.5121 11.5918C21.6726 11.4913 21.823 11.4913 21.9234 11.5918C22.0134 11.6922 21.9834 12.043 21.8635 12.3339C21.783 12.5043 21.783 12.5243 21.8535 12.5043C21.8835 12.4943 22.1843 12.3938 22.5051 12.2839C23.1368 12.0636 23.7379 11.9231 23.8483 11.9631C23.8883 11.9831 23.9083 12.0231 23.8983 12.0836C23.8883 12.1535 23.8383 12.1835 23.5675 12.234C23.1867 12.3244 22.3847 12.5748 21.9234 12.7552C21.6825 12.8556 21.5421 12.9356 21.3717 13.096C21.0309 13.4268 20.78 13.5272 20.6901 13.3568C20.6302 13.2364 20.6901 13.1565 21.0309 12.9256C21.3018 12.7352 21.3417 12.6952 21.4922 12.3844C21.5821 12.204 21.6726 11.9936 21.6825 11.9231C21.7125 11.7827 21.7125 11.7827 21.6126 11.8327C21.4422 11.9231 20.8006 12.6147 20.5197 13.0055C20.0884 13.6072 19.8881 14.0479 19.6572 14.8704C19.3464 15.9633 19.3064 16.0632 19.2864 16.394C19.2764 16.5545 19.2464 16.7249 19.2265 16.7648C19.1865 16.8453 19.0161 16.8553 18.9556 16.7748C18.8657 16.6649 18.9456 15.9733 19.146 15.1713Z" fill="#1882FF"/>
<path fill-rule="evenodd" clip-rule="evenodd" d="M21.8506 11.6593C21.795 11.6061 21.7011 11.5905 21.5648 11.6758L21.5624 11.6773L21.56 11.6786C21.4731 11.7266 21.3114 11.8629 21.1327 12.0365C20.9569 12.2074 20.7746 12.4046 20.6475 12.5657L20.6469 12.5666C20.5811 12.6481 20.5195 12.7201 20.4737 12.7698C20.4513 12.7941 20.4307 12.8153 20.4143 12.8298C20.4079 12.8354 20.395 12.8466 20.3796 12.8545C20.3751 12.8568 20.3676 12.8603 20.358 12.8629C20.3494 12.8652 20.3316 12.8689 20.3098 12.8643C20.2842 12.8588 20.2598 12.8429 20.2447 12.8177C20.2317 12.7961 20.2302 12.7755 20.2302 12.7652C20.2302 12.7514 20.2331 12.7395 20.2339 12.7361L20.234 12.7358C20.2353 12.7302 20.237 12.7244 20.2386 12.7191C20.2419 12.7083 20.2464 12.695 20.2517 12.6802C20.2623 12.6504 20.2775 12.6105 20.2958 12.5637C20.3324 12.4701 20.3828 12.3466 20.4382 12.2156C20.4931 12.0835 20.5331 11.9806 20.5596 11.8999C20.5866 11.8175 20.5966 11.7664 20.5971 11.7351C20.5972 11.7237 20.596 11.7175 20.5953 11.715C20.5904 11.7122 20.574 11.7052 20.5303 11.7011L20.528 11.7008L20.5257 11.7005C20.5042 11.6974 20.4921 11.6997 20.4825 11.7039C20.4714 11.7087 20.4542 11.7202 20.4296 11.7503C20.3776 11.8137 20.3148 11.9319 20.2188 12.1444L20.2186 12.1447C19.8516 12.9485 19.6025 13.7237 19.2423 15.1949L19.2422 15.1953C19.1428 15.5933 19.0736 15.9625 19.0404 16.2442C19.0238 16.3854 19.0165 16.5021 19.0184 16.5885C19.0193 16.6318 19.0225 16.6649 19.0271 16.6883C19.0307 16.7066 19.0341 16.7137 19.0342 16.7144L19.0349 16.7152C19.0359 16.7165 19.0402 16.7211 19.0517 16.7253C19.0632 16.7295 19.0782 16.7318 19.0942 16.7311C19.1104 16.7304 19.1238 16.7267 19.1323 16.7225C19.1353 16.721 19.1372 16.7198 19.1382 16.719C19.1394 16.7157 19.1423 16.7066 19.1464 16.6895C19.1515 16.6683 19.157 16.6406 19.1623 16.6083C19.1731 16.5438 19.1826 16.4645 19.1874 16.388C19.2054 16.0896 19.2414 15.964 19.4513 15.2305C19.4837 15.117 19.5204 14.989 19.5617 14.8435C19.7951 14.012 20 13.5604 20.4391 12.9477L20.4392 12.9476C20.5831 12.7474 20.8168 12.4734 21.035 12.2389C21.1443 12.1214 21.2508 12.0126 21.3413 11.9271C21.4283 11.8448 21.5097 11.775 21.5661 11.7451L21.5672 11.7445L21.5683 11.744C21.5696 11.7433 21.571 11.7426 21.5724 11.7419C21.5936 11.7313 21.6172 11.7195 21.6367 11.7125C21.6467 11.709 21.6653 11.703 21.6872 11.7031C21.7134 11.7033 21.7492 11.7129 21.7747 11.7459C21.7955 11.7727 21.7983 11.8017 21.799 11.8148C21.7997 11.83 21.7982 11.8448 21.7965 11.8565C21.7934 11.879 21.7871 11.9083 21.7803 11.9403L21.7801 11.941C21.772 11.9914 21.742 12.0714 21.7088 12.1508C21.6728 12.2369 21.6269 12.3364 21.5812 12.4281C21.5064 12.5826 21.4539 12.6813 21.3818 12.7649C21.3098 12.8484 21.2218 12.9126 21.0879 13.0067L21.0872 13.0072L21.0865 13.0077C20.9137 13.1247 20.8272 13.1942 20.7883 13.2438C20.7709 13.266 20.7692 13.2768 20.7689 13.28C20.7686 13.2833 20.7686 13.2917 20.7784 13.3115C20.7886 13.3305 20.7984 13.3355 20.8085 13.3377C20.8234 13.3411 20.8526 13.3406 20.901 13.3219C20.9986 13.284 21.135 13.1876 21.3026 13.0248L21.3032 13.0243L21.3037 13.0237C21.4854 12.8527 21.6372 12.7671 21.8853 12.6636L21.8863 12.6632L21.8873 12.6628C22.3525 12.4809 23.159 12.2291 23.5446 12.1375L23.5469 12.1369L23.5493 12.1365C23.6865 12.1109 23.7541 12.0926 23.7882 12.0764C23.7941 12.0736 23.7978 12.0714 23.8 12.07C23.8001 12.0698 23.8001 12.0697 23.8001 12.0695L23.8003 12.0685L23.8004 12.0674C23.8012 12.0625 23.8016 12.0587 23.8016 12.0557C23.7976 12.0555 23.7925 12.0554 23.7864 12.0555C23.7634 12.0559 23.7326 12.0585 23.6939 12.0637C23.6166 12.0741 23.5149 12.094 23.3951 12.1224C23.1558 12.1792 22.8509 12.2683 22.5378 12.3776L22.5373 12.3777C22.2161 12.4878 21.9149 12.5883 21.8849 12.5984L21.8827 12.5991L21.8805 12.5997C21.8702 12.6026 21.8581 12.6057 21.8457 12.6077C21.8345 12.6094 21.8157 12.6115 21.7946 12.6073C21.7705 12.6025 21.7406 12.5886 21.7208 12.5573C21.7031 12.5295 21.702 12.5014 21.7028 12.4853C21.7044 12.4552 21.7159 12.4235 21.726 12.3983C21.7372 12.3703 21.753 12.3355 21.7727 12.2938C21.8283 12.1583 21.863 12.0089 21.8733 11.8833C21.8785 11.8201 21.8773 11.766 21.8708 11.7244C21.8646 11.6838 21.8549 11.6652 21.8506 11.6593ZM21.4618 11.5063C21.6435 11.3934 21.8485 11.3766 21.9936 11.5217L21.9955 11.5236L21.9973 11.5256C22.0388 11.5719 22.0578 11.6354 22.0669 11.6941C22.0764 11.7556 22.077 11.8261 22.071 11.8996C22.0591 12.0443 22.0202 12.2118 21.958 12.3647C22.0815 12.3232 22.2733 12.2585 22.4727 12.1902C22.7912 12.0791 23.1025 11.9879 23.3493 11.9294C23.4725 11.9002 23.5812 11.8787 23.6675 11.8671C23.7105 11.8613 23.7497 11.8578 23.7832 11.8572C23.8139 11.8567 23.8505 11.8584 23.8821 11.8699L23.8875 11.8718L23.8927 11.8744C23.9315 11.8938 23.9641 11.9252 23.983 11.9685C24.0011 12.0101 24.0033 12.0552 23.9963 12.0987C23.9921 12.1269 23.9826 12.1593 23.9591 12.1899C23.9361 12.2199 23.9057 12.2403 23.8732 12.2557C23.8125 12.2844 23.7205 12.3063 23.5881 12.331C23.2114 12.4208 22.4171 12.6687 21.9606 12.8471C21.7277 12.9443 21.5989 13.0184 21.4402 13.1677C21.2673 13.3354 21.108 13.4544 20.9727 13.5068C20.9045 13.5332 20.8328 13.5466 20.7648 13.5312C20.692 13.5148 20.6369 13.4685 20.6024 13.4031L20.6019 13.4021L20.6013 13.401C20.5816 13.3614 20.5666 13.315 20.5714 13.2622C20.5761 13.2094 20.5995 13.1631 20.6322 13.1214C20.6934 13.0433 20.807 12.9575 20.9746 12.8439C21.1111 12.748 21.1784 12.6971 21.2316 12.6354C21.2847 12.5738 21.3274 12.4972 21.4029 12.3412L21.4034 12.3401C21.4475 12.2516 21.4917 12.1559 21.5258 12.0743C21.5374 12.0465 21.5473 12.0217 21.5555 12.0001C21.5325 12.0202 21.5064 12.0439 21.4776 12.0712C21.3911 12.153 21.2877 12.2585 21.1802 12.374C20.9648 12.6056 20.7373 12.8727 20.6003 13.0633C20.177 13.6539 19.981 14.0836 19.7527 14.8972L19.7526 14.8976C19.7117 15.0412 19.6756 15.1676 19.6436 15.2794C19.4309 16.0237 19.402 16.1245 19.3854 16.4L19.3854 16.4002C19.3802 16.484 19.3698 16.5701 19.358 16.6409C19.3521 16.6762 19.3458 16.7087 19.3393 16.7357C19.3335 16.7599 19.3258 16.7879 19.3152 16.809C19.2716 16.8967 19.1735 16.9261 19.1032 16.9292C19.0307 16.9325 18.935 16.9111 18.8774 16.8359C18.8513 16.803 18.8392 16.7612 18.8324 16.7262C18.8249 16.6876 18.8212 16.6423 18.8201 16.5928C18.8179 16.4936 18.8263 16.3667 18.8434 16.221C18.8778 15.929 18.9488 15.5514 19.0497 15.1475C19.4111 13.6715 19.6637 12.8826 20.0381 12.0625C20.1325 11.8538 20.205 11.7115 20.276 11.6247C20.3129 11.5796 20.354 11.5435 20.4035 11.522C20.4535 11.5003 20.5033 11.4973 20.5513 11.5038C20.6065 11.5092 20.6698 11.5212 20.7191 11.5599C20.7771 11.6054 20.7963 11.6709 20.7954 11.7378C20.7946 11.8005 20.7764 11.8753 20.748 11.9618C20.7198 12.048 20.6785 12.1538 20.625 12.283C20.7378 12.1537 20.8683 12.017 20.9945 11.8943C21.1704 11.7233 21.3483 11.5697 21.4618 11.5063ZM21.7031 11.8994C21.7043 11.8991 21.7043 11.899 21.7031 11.8994V11.8994ZM21.815 12.4117C21.8145 12.4118 21.8147 12.4117 21.8153 12.4117C21.8152 12.4117 21.8151 12.4117 21.815 12.4117Z" fill="#1882FF"/>
</svg>
