<svg width="24" height="24" viewBox="0 0 24 24" fill="none" xmlns="http://www.w3.org/2000/svg">
<g clip-path="url(#clip0_221_214)">
<g clip-path="url(#clip1_221_214)">
<path d="M18.4179 17.0864C18.4083 17.0327 18.3862 16.9914 18.3449 16.9569C18.3103 16.9223 18.2499 16.906 18.1673 16.906C18.0848 16.906 18.0118 16.9252 17.9552 16.9665C17.8947 17.0077 17.8448 17.0615 17.8035 17.1277C17.7622 17.2007 17.7277 17.2794 17.6989 17.3648C17.6922 17.3936 17.6864 17.4214 17.6797 17.4502C17.673 17.479 17.6672 17.5069 17.6643 17.5385C17.6519 17.624 17.649 17.7027 17.6547 17.7756C17.6615 17.8323 17.6768 17.8774 17.7114 17.9119C17.7402 17.9407 17.7939 17.9561 17.8698 17.9561C17.9619 17.9561 18.0406 17.9369 18.104 17.8956C18.1702 17.8515 18.2278 17.7977 18.2719 17.7305C18.3132 17.6643 18.3449 17.5942 18.3641 17.5251C18.3708 17.4906 18.3795 17.4493 18.3891 17.4013L18.414 17.2775C18.4294 17.2112 18.4294 17.1479 18.4169 17.0845L18.4179 17.0864ZM18.4179 17.0864C18.4083 17.0327 18.3862 16.9914 18.3449 16.9569C18.3103 16.9223 18.2499 16.906 18.1673 16.906C18.0848 16.906 18.0118 16.9252 17.9552 16.9665C17.8947 17.0077 17.8448 17.0615 17.8035 17.1277C17.7622 17.2007 17.7277 17.2794 17.6989 17.3648C17.6922 17.3936 17.6864 17.4214 17.6797 17.4502C17.673 17.479 17.6672 17.5069 17.6643 17.5385C17.6519 17.624 17.649 17.7027 17.6547 17.7756C17.6615 17.8323 17.6768 17.8774 17.7114 17.9119C17.7402 17.9407 17.7939 17.9561 17.8698 17.9561C17.9619 17.9561 18.0406 17.9369 18.104 17.8956C18.1702 17.8515 18.2278 17.7977 18.2719 17.7305C18.3132 17.6643 18.3449 17.5942 18.3641 17.5251C18.3708 17.4906 18.3795 17.4493 18.3891 17.4013L18.414 17.2775C18.4294 17.2112 18.4294 17.1479 18.4169 17.0845L18.4179 17.0864ZM23.1981 7.68053C23.0714 7.78515 22.7767 7.89554 22.1441 8.076C22.1374 8.076 22.1192 8.08272 22.1124 8.08272C21.6594 8.14607 21.2034 8.20942 20.7475 8.27853L16.3023 9.57342C15.831 10.5995 15.4288 11.5201 15.1024 12.3148L15.0775 12.3619C15.0525 12.4032 14.9287 12.6403 14.2539 14.3085C14.0513 14.7261 13.8997 15.0841 13.7912 15.3721C13.7691 15.4383 13.6808 15.6476 13.2652 16.5873L12.5942 18.1385C12.5913 18.1481 12.5846 18.1605 12.5789 18.1701C12.2813 18.5599 12.1296 18.629 12.0087 18.6453C11.9991 18.6482 11.9866 18.6482 11.9741 18.6482C11.9492 18.6482 11.9271 18.6453 11.9108 18.6386C11.715 18.5627 11.6228 18.461 11.6228 18.3247C11.6228 17.9167 11.9521 16.9828 12.6585 15.3807C13.3458 13.7499 14.1464 11.81 15.0362 9.60894C15.0391 9.60222 15.0487 9.58686 15.0515 9.58014C15.1082 9.47551 15.1658 9.36129 15.2166 9.2413C13.4025 9.58014 12.3139 9.7702 11.9713 9.80475L11.3915 9.8873C11.3445 9.8873 11.3032 9.88058 11.2715 9.8681L11.0373 9.8873C10.7906 9.8873 10.6005 9.84315 10.4422 9.77308C10.183 10.0457 9.872 10.3365 9.50532 10.6629C8.92939 11.0872 8.72014 11.1438 8.58767 11.1438H8.53392C8.14804 11.0996 7.92631 10.8808 7.92631 10.5583C7.92631 10.4028 8.01462 10.302 8.57231 9.96601C9.27495 9.38048 9.67042 8.98117 9.89215 8.71528C9.94591 8.48779 10.063 8.27853 10.2406 8.08176C10.2185 8.07504 10.1936 8.07504 10.1676 8.06928C9.44869 8.11343 8.49936 8.411 7.35038 8.95237C7.01826 9.0762 6.45097 9.42752 5.65042 9.99673C5.13113 10.4623 4.78941 10.8923 4.65022 11.2695C4.62143 11.3866 4.61183 11.4346 4.60895 11.45C4.60895 11.7888 5.26743 12.0701 6.41065 12.2189C8.21812 12.5011 8.65198 12.7257 8.82284 12.8677C9.28167 13.1308 9.62339 13.5512 9.82304 14.0993L9.83552 14.1559L9.8384 14.6243C9.8384 16.0238 7.73625 17.1603 3.2152 18.1951L2.11037 18.4072C2.10077 18.4101 2.08157 18.4101 2.07581 18.4101C2.04126 18.4101 2.00958 18.4034 1.98078 18.3976L1.87904 18.4072H1.85984C3.98694 21.7659 7.73529 23.9947 12.0029 23.9947C15.3174 23.9947 18.3161 22.649 20.4902 20.4806C22.6586 18.3084 24.0015 15.3078 24.0015 11.9933C24.0015 10.4709 23.7193 9.01381 23.1971 7.67477L23.1981 7.68053ZM16.7966 17.289C16.6257 17.4157 16.404 17.4819 16.1381 17.4819H15.6063L15.448 18.2229C15.4412 18.2642 15.4192 18.2988 15.3875 18.3276C15.3558 18.3564 15.3145 18.3717 15.2675 18.3717H15.0938C15.0429 18.3717 15.0016 18.3496 14.9738 18.3151C14.9546 18.2901 14.9325 18.2489 14.945 18.1884L15.3981 16.0574C15.4077 16.0162 15.4269 15.9787 15.4614 15.9499C15.4931 15.9211 15.5315 15.9087 15.5756 15.9087H16.38C16.5134 15.9087 16.6334 15.924 16.7342 15.9557C16.8446 15.9902 16.9339 16.0411 17.003 16.1112C17.0731 16.1813 17.1201 16.2696 17.145 16.3704C17.1671 16.4721 17.1671 16.5854 17.1422 16.7121C17.0855 16.9655 16.9713 17.1584 16.7976 17.288L16.7966 17.289ZM18.7058 18.2229C18.6991 18.2642 18.677 18.2988 18.6453 18.3276C18.6137 18.3564 18.5724 18.3717 18.5282 18.3717H18.3795C18.3286 18.3717 18.2873 18.3496 18.2595 18.3151C18.2528 18.3055 18.2441 18.293 18.2403 18.2805C18.2182 18.2959 18.1961 18.3093 18.1769 18.3218C18.0819 18.3756 17.9552 18.4044 17.8035 18.4044C17.6672 18.4044 17.553 18.3794 17.4618 18.3285C17.3697 18.2777 17.2977 18.2085 17.2468 18.1231C17.2026 18.0377 17.171 17.9427 17.1614 17.838C17.1489 17.7363 17.1518 17.6288 17.1681 17.5184L17.1902 17.4138C17.1969 17.3821 17.2055 17.3504 17.2122 17.312C17.241 17.2045 17.2785 17.1028 17.3226 17.0048C17.3697 16.9069 17.4301 16.8148 17.5031 16.7322C17.576 16.6468 17.6682 16.5806 17.7757 16.5326C17.8803 16.4855 18.0032 16.4625 18.1433 16.4625C18.3017 16.4625 18.4217 16.4875 18.5071 16.5479L18.5734 16.595C18.583 16.5729 18.5983 16.5537 18.6175 16.5383C18.6521 16.5095 18.6933 16.4942 18.7375 16.4942H18.8834C18.9343 16.4942 18.9755 16.5134 19.0034 16.5479C19.0351 16.5825 19.0447 16.6305 19.0351 16.6775L18.7058 18.2229ZM20.9817 16.7255L19.5822 18.8939C19.563 18.9189 19.5438 18.9381 19.5256 18.9544C19.4939 18.9765 19.4555 18.9889 19.4113 18.9889H19.2462C19.1829 18.9889 19.132 18.9573 19.1099 18.9006C19.0946 18.8661 19.0879 18.8085 19.1349 18.7394L19.515 18.1471L19.2011 16.691C19.1915 16.6468 19.2011 16.6055 19.2232 16.5671C19.2386 16.5383 19.2769 16.4942 19.3653 16.4942H19.5073C19.5544 16.4942 19.5928 16.5067 19.6215 16.5326C19.6465 16.5575 19.6657 16.5892 19.6686 16.6305L19.874 17.5961L20.5171 16.5921C20.5296 16.5671 20.5488 16.5451 20.5776 16.5259C20.6064 16.5038 20.6438 16.4942 20.688 16.4942H20.856C20.903 16.4942 20.9481 16.5163 20.9759 16.5547C20.9951 16.5767 21.0326 16.6401 20.9788 16.7255H20.9817ZM18.3449 16.9569C18.3103 16.9223 18.2499 16.906 18.1673 16.906C18.0848 16.906 18.0118 16.9252 17.9552 16.9665C17.8947 17.0077 17.8448 17.0615 17.8035 17.1277C17.7622 17.2007 17.7277 17.2794 17.6989 17.3648C17.6922 17.3936 17.6864 17.4214 17.6797 17.4502C17.673 17.479 17.6672 17.5069 17.6643 17.5385C17.6519 17.624 17.649 17.7027 17.6547 17.7756C17.6615 17.8323 17.6768 17.8774 17.7114 17.9119C17.7402 17.9407 17.7939 17.9561 17.8698 17.9561C17.9619 17.9561 18.0406 17.9369 18.104 17.8956C18.1702 17.8515 18.2278 17.7977 18.2719 17.7305C18.3132 17.6643 18.3449 17.5942 18.3641 17.5251C18.3708 17.4906 18.3795 17.4493 18.3891 17.4013L18.414 17.2775C18.4294 17.2112 18.4294 17.1479 18.4169 17.0845C18.4073 17.0308 18.3852 16.9895 18.3439 16.9549L18.3449 16.9569ZM16.5845 16.403C16.5528 16.3838 16.4827 16.3617 16.3474 16.3617H15.8406L15.7014 17.0269H16.1324C16.2658 17.0269 16.3791 16.9952 16.4712 16.9348C16.5566 16.8743 16.6133 16.7927 16.6392 16.6756C16.6517 16.5998 16.6545 16.5335 16.6459 16.4827C16.643 16.4606 16.6334 16.4289 16.5854 16.404L16.5845 16.403ZM15.4259 5.7502L22.6884 7.08924L22.9418 7.06044C21.0614 2.9003 16.8734 0.000488281 12.0039 0.000488281C5.37782 0.000488281 0.00534058 5.37584 0.00534058 11.999C0.00534058 14.035 0.51216 15.9471 1.40485 17.6278C1.56899 17.5616 1.84832 17.4819 2.33594 17.3869C3.93127 17.0509 5.27415 16.6718 6.32138 16.2533L7.28031 15.7877C7.6729 15.6293 8.07509 15.3442 8.47728 14.9488C8.76237 14.6263 8.79693 14.4516 8.79693 14.3949V14.2999C8.79693 14.2749 8.79981 14.2557 8.8094 14.2365C8.73357 13.8564 8.30643 13.5781 7.53084 13.4072C6.8378 13.3055 6.10925 13.1826 5.38454 13.0434C4.55807 12.8025 4.04262 12.4828 3.79209 12.0682C3.62411 11.7994 3.53868 11.5364 3.53868 11.2955C3.53868 10.3615 4.41889 9.39008 6.22923 8.31981C7.28031 7.79091 8.09717 7.45879 8.6635 7.32921C8.91979 7.20922 9.39205 7.11035 10.0726 7.03836C10.0851 7.03548 10.111 7.03548 10.1235 7.03836C10.7061 7.13051 11.0287 7.25338 11.1621 7.44056C11.2283 7.40888 11.2917 7.3772 11.3617 7.34553C11.5768 7.27545 11.7572 7.24378 11.9223 7.24378H11.9693C12.0135 7.24378 12.0577 7.26586 12.0836 7.30041L12.1124 7.33497C12.2007 7.44536 12.2487 7.56246 12.2487 7.67669V7.75924C12.2487 7.92722 12.1786 8.22766 11.714 8.34189C11.5585 8.4398 11.4318 8.52235 11.3339 8.59818C11.2955 8.68073 11.2514 8.76232 11.1918 8.85735C11.8119 8.82567 13.2815 8.5665 15.5699 8.09424L19.1694 7.50199C19.1694 7.50199 19.1723 7.49911 19.1762 7.49911L19.9364 7.4108L15.7858 7.38872C15.7196 7.38584 15.662 7.34457 15.6438 7.27834L15.2608 5.93258C15.2483 5.8817 15.2579 5.83467 15.2953 5.79627C15.3299 5.755 15.3779 5.7358 15.4288 5.74924L15.4259 5.7502Z" fill="#073E67"/>
</g>
</g>
<defs>
<clipPath id="clip0_221_214">
<rect width="24" height="24" fill="white" transform="translate(0.00390625 0.000488281)"/>
</clipPath>
<clipPath id="clip1_221_214">
<rect width="23.9971" height="24" fill="white" transform="translate(0.00534058 0.000488281)"/>
</clipPath>
</defs>
</svg>
