<svg width="24" height="24" viewBox="0 0 24 24" fill="none" xmlns="http://www.w3.org/2000/svg">
<path d="M2.32964 17.3907C1.84104 17.4845 1.56352 17.5627 1.39935 17.6311C0.506189 15.9503 0 14.035 0 12.0005C0 5.37508 5.37264 0.000488281 12 0.000488281C16.8684 0.000488281 21.0567 2.89886 22.9407 7.06173L22.6866 7.09104L15.4241 5.75033C15.3752 5.7386 15.3244 5.75814 15.2893 5.79723C15.2541 5.83436 15.2423 5.88518 15.258 5.93404L15.641 7.28062C15.6586 7.34511 15.7173 7.38616 15.7818 7.38811L19.9349 7.41156L19.1746 7.49951C19.1726 7.49951 19.1687 7.50342 19.1687 7.50342L15.5687 8.09756C13.2801 8.57052 11.8104 8.8285 11.1909 8.85977C11.2495 8.76596 11.2925 8.68192 11.3316 8.59984C11.4313 8.52362 11.5564 8.44153 11.7107 8.34576C12.1759 8.23241 12.2463 7.93143 12.2463 7.7614V7.67932C12.2463 7.56596 12.1993 7.4487 12.1114 7.3373L12.0821 7.30212C12.0567 7.26694 12.0117 7.24739 11.9687 7.24739H11.9218C11.7557 7.24739 11.5779 7.27671 11.3609 7.34707C11.2906 7.37834 11.2261 7.41156 11.1616 7.44283C11.0267 7.25521 10.7062 7.13208 10.1218 7.04023C10.1101 7.03632 10.0847 7.03632 10.073 7.04023C9.39283 7.11254 8.92182 7.21221 8.66384 7.33339C8.09707 7.46238 7.27818 7.79462 6.22866 8.32427C4.41694 9.39332 3.53746 10.3666 3.53746 11.2989C3.53746 11.5412 3.6215 11.805 3.79153 12.0728C4.03974 12.4871 4.55765 12.8057 5.38436 13.0461C6.10945 13.1868 6.83648 13.3099 7.53029 13.4116C8.30423 13.5816 8.7342 13.8611 8.81042 14.2422C8.80261 14.2598 8.79674 14.2793 8.79674 14.3028V14.3985C8.79674 14.4572 8.76547 14.6292 8.47818 14.9536C8.07557 15.3484 7.67492 15.6318 7.28208 15.792L6.32052 16.2572C5.26905 16.6754 3.92443 17.0546 2.32964 17.3907ZM23.1987 7.68127C23.0697 7.78681 22.7785 7.89821 22.1433 8.07801C22.1375 8.07801 22.1179 8.08388 22.1121 8.08388C21.6586 8.14446 21.2033 8.20896 20.7479 8.27931L16.2997 9.57508C15.8287 10.6011 15.4261 11.5217 15.1016 12.3171L15.0762 12.364C15.0508 12.405 14.9277 12.6454 14.2515 14.3125C14.0502 14.7308 13.8977 15.0865 13.7902 15.3757C13.7668 15.4422 13.6788 15.6513 13.2645 16.5914L12.5961 18.1432C12.5902 18.151 12.5844 18.1627 12.5785 18.1725C12.2795 18.5634 12.129 18.6337 12.0078 18.6493C12 18.6513 11.9844 18.6513 11.9726 18.6513C11.9492 18.6513 11.9257 18.6493 11.9121 18.6435C11.7127 18.5673 11.6228 18.4656 11.6228 18.3269C11.6228 17.9204 11.9531 16.9862 12.6567 15.3835C13.3427 13.7536 14.144 11.8129 15.0352 9.61026C15.0371 9.6044 15.0469 9.58681 15.0489 9.58094C15.1075 9.47541 15.1622 9.36205 15.215 9.24283C13.3993 9.58094 12.3107 9.77248 11.9687 9.80765L11.3902 9.88974C11.3433 9.88974 11.3023 9.88388 11.271 9.87215L11.0365 9.88974C10.7883 9.88974 10.5987 9.84674 10.4404 9.77638C10.1805 10.048 9.86971 10.3412 9.50228 10.6676C8.92573 11.0917 8.71661 11.1464 8.58371 11.1464H8.52899C8.14397 11.1034 7.92313 10.8826 7.92313 10.5621C7.92313 10.4077 8.01108 10.3041 8.56612 9.96791C9.26971 9.38355 9.6645 8.98681 9.8873 8.71905C9.94202 8.49039 10.0593 8.28127 10.2371 8.08388C10.2137 8.07801 10.1883 8.07801 10.1648 8.0702C9.4456 8.1171 8.49576 8.41417 7.34462 8.95554C7.01433 9.07866 6.44756 9.4285 5.64625 9.99918C5.12638 10.4663 4.78436 10.8963 4.64365 11.2735C4.61433 11.3907 4.60651 11.4376 4.60261 11.4552C4.60261 11.7914 5.25928 12.0748 6.40651 12.2233C8.21238 12.5047 8.64821 12.7295 8.81824 12.8721C9.27752 13.136 9.61954 13.5562 9.82085 14.1034L9.83257 14.1621L9.83453 14.6292C9.83453 16.0285 7.72964 17.166 3.21107 18.1998L2.10293 18.4129C2.09511 18.4168 2.07752 18.4168 2.06775 18.4168C2.03648 18.4168 2.00326 18.4109 1.97394 18.4011L1.87231 18.4129H1.85668C3.98502 21.7705 7.7316 24.0005 12.002 24.0005C15.3166 24.0005 18.3147 22.6559 20.4899 20.4845C22.6593 18.3132 24.0039 15.3112 24.0039 11.9966C24.002 10.478 23.7186 9.02003 23.1987 7.68127Z" fill="#073E67"/>
</svg>
