<svg width="24" height="24" viewBox="0 0 24 24" fill="none" xmlns="http://www.w3.org/2000/svg">
<path d="M11.5789 8.07188V10.6419C10.4114 10.3056 10.1245 9.91125 10.1245 9.29875C10.1245 8.65625 10.6245 8.145 11.5789 8.07188Z" fill="#F99C1C"/>
<path d="M12.777 12.6862C13.9589 13.0225 14.2777 13.4169 14.2777 14.0731C14.2777 14.7738 13.732 15.2562 12.777 15.33V12.6862Z" fill="#F99C1C"/>
<path fill-rule="evenodd" clip-rule="evenodd" d="M22.0039 12C22.0039 17.5228 17.5268 22 12.0039 22C6.48106 22 2.00391 17.5228 2.00391 12C2.00391 6.47715 6.48106 2 12.0039 2C17.5268 2 22.0039 6.47715 22.0039 12ZM12.8377 16.8044C14.7627 16.6438 16.0664 15.5775 16.0664 13.9712C16.0664 12.3944 15.0814 11.5037 12.777 10.9487V8.17437C13.4895 8.32 14.1714 8.62687 14.8383 9.10875L15.6877 7.73625C14.851 7.12346 13.8684 6.74074 12.8377 6.62625V5.75H11.5189V6.59688C9.62391 6.74312 8.33578 7.82375 8.33578 9.40062C8.33578 11.0506 9.36641 11.8537 11.5795 12.4087V15.2712C10.5939 15.125 9.77578 14.6869 8.91141 14.015L7.94141 15.3438C8.97971 16.1431 10.2168 16.6432 11.5189 16.79V18.25H12.8377V16.8044Z" fill="#F99C1C"/>
</svg>
