<svg width="24" height="24" viewBox="0 0 24 24" fill="none" xmlns="http://www.w3.org/2000/svg">
<g clip-path="url(#clip0_1_2238)">
<path d="M12.4161 10.7275C12.4024 11.8071 13.3783 12.4096 14.1134 12.7678C14.8686 13.1353 15.1223 13.371 15.1193 13.6997C15.1137 14.2026 14.5169 14.4246 13.9584 14.4332C12.9841 14.4483 12.4175 14.1702 11.9672 13.9598L11.6162 15.6022C12.068 15.8104 12.9047 15.992 13.7724 16C15.8091 16 17.1416 14.9946 17.1488 13.4358C17.1568 11.4575 14.4124 11.348 14.4312 10.4638C14.4377 10.1957 14.6935 9.90953 15.2541 9.83678C15.5316 9.80003 16.2977 9.77191 17.1662 10.1718L17.507 8.58278C17.04 8.41272 16.4397 8.24988 15.6923 8.24988C13.7753 8.24988 12.427 9.26894 12.4161 10.7275ZM20.7825 8.38675C20.4106 8.38675 20.0972 8.60369 19.9573 8.93659L17.0479 15.8833H19.0832L19.4882 14.764H21.9752L22.2101 15.8833H24.0039L22.4386 8.38675H20.7825ZM21.0672 10.4118L21.6545 13.2269H20.046L21.0672 10.4118ZM9.94853 8.38684L8.34428 15.8832H10.2837L11.8872 8.38666H9.94853M7.0795 8.38666L5.06087 13.4892L4.24431 9.15072C4.1485 8.66641 3.77013 8.38675 3.34994 8.38675H0.050125L0.00390625 8.60444C0.681344 8.75144 1.45103 8.98853 1.91734 9.24222C2.20272 9.39719 2.28409 9.53266 2.37784 9.90091L3.92444 15.8833H5.97391L9.11603 8.38675L7.0795 8.38666Z" fill="#1556A3"/>
</g>
<defs>
<clipPath id="clip0_1_2238">
<rect x="0.00390625" y="0.000488281" width="24" height="24" rx="2" fill="white"/>
</clipPath>
</defs>
</svg>
