<svg width="72" height="72" viewBox="0 0 72 72" fill="none" xmlns="http://www.w3.org/2000/svg">
<path fill-rule="evenodd" clip-rule="evenodd" d="M11.1117 7.80553C12.6589 6.25835 14.7573 5.38916 16.9453 5.38916H36.9453C38.188 5.38916 39.1953 6.39652 39.1953 7.63916C39.1953 8.8818 38.188 9.88916 36.9453 9.88916H16.9453C15.9508 9.88916 14.9969 10.2842 14.2937 10.9875C13.5904 11.6908 13.1953 12.6446 13.1953 13.6392V60.6392C13.1953 61.6337 13.5904 62.5875 14.2937 63.2908C14.9969 63.9941 15.9508 64.3892 16.9453 64.3892H52.9453C53.9399 64.3892 54.8937 63.9941 55.597 63.2908C56.3002 62.5875 56.6953 61.6337 56.6953 60.6392V29.6392C56.6953 28.3965 57.7027 27.3892 58.9453 27.3892C60.188 27.3892 61.1953 28.3965 61.1953 29.6392V60.6392C61.1953 62.8272 60.3261 64.9256 58.7789 66.4728C57.2318 68.02 55.1334 68.8892 52.9453 68.8892H16.9453C14.7573 68.8892 12.6589 68.02 11.1117 66.4728C9.56451 64.9256 8.69531 62.8272 8.69531 60.6392V13.6392C8.69531 11.4511 9.56451 9.3527 11.1117 7.80553Z" fill="#1882FF"/>
<path fill-rule="evenodd" clip-rule="evenodd" d="M20.6953 25.6392C20.6953 24.3965 21.7027 23.3892 22.9453 23.3892H28.9453C30.188 23.3892 31.1953 24.3965 31.1953 25.6392C31.1953 26.8818 30.188 27.8892 28.9453 27.8892H22.9453C21.7027 27.8892 20.6953 26.8818 20.6953 25.6392Z" fill="#1882FF"/>
<path fill-rule="evenodd" clip-rule="evenodd" d="M20.6953 37.6392C20.6953 36.3965 21.7027 35.3892 22.9453 35.3892H46.9453C48.188 35.3892 49.1953 36.3965 49.1953 37.6392C49.1953 38.8818 48.188 39.8892 46.9453 39.8892H22.9453C21.7027 39.8892 20.6953 38.8818 20.6953 37.6392Z" fill="#1882FF"/>
<path fill-rule="evenodd" clip-rule="evenodd" d="M20.6953 49.6392C20.6953 48.3965 21.7027 47.3892 22.9453 47.3892H46.9453C48.188 47.3892 49.1953 48.3965 49.1953 49.6392C49.1953 50.8818 48.188 51.8892 46.9453 51.8892H22.9453C21.7027 51.8892 20.6953 50.8818 20.6953 49.6392Z" fill="#1882FF"/>
<path d="M47.3028 21.3608C46.7393 21.3608 46.1758 21.153 45.731 20.7075C44.8709 19.8462 44.8709 18.4207 45.731 17.5594L57.2676 6.00678C58.1276 5.14553 59.5512 5.14553 60.4112 6.00678C61.2713 6.86803 61.2713 8.29355 60.4112 9.15481L48.8746 20.7075C48.4298 21.153 47.8663 21.3608 47.3028 21.3608Z" fill="#EF4444"/>
<path d="M58.8081 21.3608C58.2447 21.3608 57.6812 21.153 57.2363 20.7075L45.6997 9.15481C44.8397 8.29355 44.8397 6.86803 45.6997 6.00678C46.5598 5.14553 47.9833 5.14553 48.8434 6.00678L60.38 17.5594C61.24 18.4207 61.24 19.8462 60.38 20.7075C59.9648 21.153 59.4013 21.3608 58.8081 21.3608Z" fill="#EF4444"/>
</svg>
