<svg width="72" height="72" viewBox="0 0 72 72" fill="none" xmlns="http://www.w3.org/2000/svg">
<path d="M68.1025 36C68.1025 53.6731 53.7757 68 36.1025 68C18.4294 68 4.10254 53.6731 4.10254 36C4.10254 18.3269 18.4294 4 36.1025 4C53.7757 4 68.1025 18.3269 68.1025 36ZM8.90254 36C8.90254 51.0221 21.0804 63.2 36.1025 63.2C51.1247 63.2 63.3025 51.0221 63.3025 36C63.3025 20.9779 51.1247 8.8 36.1025 8.8C21.0804 8.8 8.90254 20.9779 8.90254 36Z" fill="#EF4444"/>
<rect x="26" y="30" width="5" height="24" rx="2.5" transform="rotate(-45 26 30)" fill="#EF4444"/>
<rect x="43" y="26" width="5" height="24" rx="2.5" transform="rotate(45 43 26)" fill="#EF4444"/>
</svg>
