<svg width="72" height="72" viewBox="0 0 72 72" fill="none" xmlns="http://www.w3.org/2000/svg">
<path d="M68.1025 36C68.1025 53.6731 53.7757 68 36.1025 68C18.4294 68 4.10254 53.6731 4.10254 36C4.10254 18.3269 18.4294 4 36.1025 4C53.7757 4 68.1025 18.3269 68.1025 36ZM8.90254 36C8.90254 51.0221 21.0804 63.2 36.1025 63.2C51.1247 63.2 63.3025 51.0221 63.3025 36C63.3025 20.9779 51.1247 8.8 36.1025 8.8C21.0804 8.8 8.90254 20.9779 8.90254 36Z" fill="#EF4444"/>
<path d="M36.1026 31.1639C34.8942 31.1639 33.8922 32.1757 33.8922 33.3959V49.0202C33.8922 50.2404 34.8942 51.2522 36.1026 51.2522C37.3109 51.2522 38.3129 50.2404 38.3129 49.0202V33.3959C38.3129 32.1757 37.3109 31.1639 36.1026 31.1639Z" fill="#EF4444"/>
<path d="M36.1027 20.7478C35.3069 20.7478 34.5701 21.0453 34.0101 21.6108C33.7449 21.9084 33.5387 22.2358 33.3618 22.5929C33.2145 22.95 33.1555 23.3369 33.1555 23.7238C33.1555 24.4976 33.4796 25.2714 34.0101 25.8369C35.1006 26.938 37.1048 26.938 38.1952 25.8369C38.7257 25.2714 39.0498 24.4976 39.0498 23.7238C39.0498 23.3369 38.9613 22.95 38.814 22.5929C38.6666 22.2358 38.4604 21.9084 38.1952 21.6108C37.6352 21.0453 36.8984 20.7478 36.1027 20.7478Z" fill="#EF4444"/>
</svg>
