<svg width="72" height="72" viewBox="0 0 72 72" fill="none" xmlns="http://www.w3.org/2000/svg">
<path d="M40.482 27.6757H6.23359C5.01256 27.6757 4 26.6465 4 25.4054C4 24.1643 5.01256 23.1352 6.23359 23.1352H40.482C41.703 23.1352 42.7156 24.1643 42.7156 25.4054C42.7156 26.6465 41.703 27.6757 40.482 27.6757Z" fill="#1882FF"/>
<path d="M24.1024 51.8919H18.1462C16.9252 51.8919 15.9126 50.8627 15.9126 49.6216C15.9126 48.3805 16.9252 47.3514 18.1462 47.3514H24.1024C25.3235 47.3514 26.336 48.3805 26.336 49.6216C26.336 50.8627 25.3235 51.8919 24.1024 51.8919Z" fill="#EF4444"/>
<path d="M43.46 51.8919H31.5476C30.3265 51.8919 29.314 50.8627 29.314 49.6216C29.314 48.3805 30.3265 47.3514 31.5476 47.3514H43.46C44.6811 47.3514 45.6936 48.3805 45.6936 49.6216C45.6936 50.8627 44.6811 51.8919 43.46 51.8919Z" fill="#EF4444"/>
<path d="M52.5732 64H19.4564C7.60353 64 4 60.3676 4 48.4411V23.5589C4 11.6324 7.60353 8 19.4564 8H40.482C41.703 8 42.7156 9.02919 42.7156 10.2703C42.7156 11.5114 41.703 12.5405 40.482 12.5405H19.4564C10.1051 12.5405 8.46718 14.1751 8.46718 23.5589V48.4108C8.46718 57.7946 10.1051 59.4292 19.4564 59.4292H52.5434C61.8947 59.4292 63.5326 57.7946 63.5326 48.4108V36.0605C63.5326 34.8195 64.5452 33.7903 65.7662 33.7903C66.9873 33.7903 67.9998 34.8195 67.9998 36.0605V48.4108C68.0296 60.3676 64.4261 64 52.5732 64Z" fill="#1882FF"/>
<path d="M51.8287 26.7372C51.2628 26.7372 50.697 26.5254 50.2503 26.0713C49.3866 25.1935 49.3866 23.7405 50.2503 22.8627L61.8352 11.0875C62.6988 10.2097 64.1283 10.2097 64.992 11.0875C65.8556 11.9654 65.8556 13.4183 64.992 14.2962L53.4071 26.0713C52.9604 26.5254 52.3945 26.7372 51.8287 26.7372Z" fill="#EF4444"/>
<path d="M63.3838 26.7372C62.8179 26.7372 62.2521 26.5254 61.8054 26.0713L50.2205 14.2962C49.3568 13.4183 49.3568 11.9654 50.2205 11.0875C51.0841 10.2097 52.5136 10.2097 53.3773 11.0875L64.9622 22.8627C65.8258 23.7405 65.8258 25.1935 64.9622 26.0713C64.5452 26.5254 63.9794 26.7372 63.3838 26.7372Z" fill="#EF4444"/>
</svg>
