<svg width="180" height="140" viewBox="0 0 180 140" fill="none" xmlns="http://www.w3.org/2000/svg">
<g clip-path="url(#clip0_1_28729)">
<path d="M170.208 12.7514C167.702 12.7514 165.427 13.7625 163.745 15.4066C163.441 6.84557 156.587 0 148.171 0C140.565 0 134.235 5.59289 132.862 12.9895C132.196 12.8354 131.504 12.7514 130.793 12.7514C125.615 12.7514 121.417 17.0605 121.417 22.3755C121.417 22.491 121.421 22.6057 121.425 22.7204C120.887 22.5001 120.303 22.3755 119.688 22.3755C117.099 22.3755 115 24.5301 115 27.188C115 29.8455 117.099 32 119.688 32H170.208C175.387 32 179.586 27.6909 179.586 22.3755C179.586 17.0605 175.387 12.7514 170.208 12.7514Z" fill="#D4E8FF"/>
<path d="M109.545 133.985C109.365 133.985 109.188 134.005 109.017 134.039C109.017 134.021 109.019 134.003 109.019 133.985C109.019 130.663 106.492 127.97 103.377 127.97C102.966 127.97 102.566 128.018 102.18 128.107C101.349 123.489 97.5431 120 92.97 120C88.3414 120 84.4985 123.576 83.732 128.277C83.1726 128.079 82.575 127.97 81.9532 127.97C78.837 127.97 76.3111 130.663 76.3111 133.985C76.3111 134.143 76.3187 134.299 76.3298 134.454C75.893 134.158 75.3768 133.985 74.821 133.985C73.2631 133.985 72 135.331 72 136.992C72 138.653 73.2631 140 74.821 140H109.545C111.103 140 112.366 138.653 112.366 136.992C112.366 135.331 111.103 133.985 109.545 133.985Z" fill="#D4E8FF"/>
<path d="M29.7802 66.4331C29.6371 66.4331 29.4974 66.4489 29.3616 66.4762C29.3618 66.4618 29.3627 66.4475 29.3627 66.4331C29.3627 63.7982 27.3589 61.662 24.8874 61.662C24.5616 61.662 24.2443 61.7001 23.9384 61.7706C23.2796 58.1083 20.2604 55.3406 16.6331 55.3406C12.9618 55.3406 9.91366 58.1767 9.30569 61.9055C8.86194 61.7484 8.38795 61.662 7.89471 61.662C5.42303 61.662 3.41948 63.7982 3.41948 66.4331C3.41948 66.5585 3.42553 66.6822 3.43433 66.8051C3.0879 66.5708 2.67843 66.4331 2.23762 66.4331C1.00187 66.4331 0 67.5012 0 68.8186C0 70.1362 1.00187 71.2043 2.23762 71.2043H29.7802C31.016 71.2043 32.0178 70.1362 32.0178 68.8186C32.0178 67.5012 31.016 66.4331 29.7802 66.4331Z" fill="#E8F3FF"/>
<path d="M46.7284 65.0576L134.777 54.6167L92.6496 102.208L70.4508 84.2398L131.624 55.8308L62.1261 77.9265L46.7284 65.0576Z" fill="#5CA7FF"/>
<path d="M64.5224 96.8662L62.126 77.9269L131.624 55.8309L70.4507 84.2399L64.5224 96.8662Z" fill="#1882FF"/>
<path d="M77.0029 89.5433L64.5225 96.8662L70.4504 84.2402L77.0029 89.5433Z" fill="#126FDE"/>
</g>
<defs>
<clipPath id="clip0_1_28729">
<rect width="180" height="140" fill="white"/>
</clipPath>
</defs>
</svg>
