<svg width="72" height="72" viewBox="0 0 72 72" fill="none" xmlns="http://www.w3.org/2000/svg">
<path d="M68.1024 36C68.1024 53.6731 53.7755 68 36.1024 68C18.4293 68 4.10242 53.6731 4.10242 36C4.10242 18.3269 18.4293 4 36.1024 4C53.7755 4 68.1024 18.3269 68.1024 36ZM8.90242 36C8.90242 51.0221 21.0803 63.2 36.1024 63.2C51.1246 63.2 63.3024 51.0221 63.3024 36C63.3024 20.9779 51.1246 8.8 36.1024 8.8C21.0803 8.8 8.90242 20.9779 8.90242 36Z" fill="#FFE3C5"/>
<path d="M33.0873 28.2019C33.1261 27.4415 33.5144 26.5609 34.0581 26.0006C34.563 25.4403 35.4562 25 35.9999 25C36.5436 25 37.3979 25.4403 37.9416 26.0006C38.5241 26.601 38.9125 27.4415 38.9125 28.0819C38.9125 28.7222 38.563 29.6428 38.1746 30.2031C37.4368 31.2037 37.4368 31.2438 38.4076 33.4051C38.9125 34.6058 39.728 36.0467 40.1941 36.527C40.6601 37.0473 41.5144 37.7277 42.1358 38.0479C42.7183 38.3681 44.0775 38.6082 45.1261 38.6082C46.2523 38.6082 47.6892 38.288 48.5436 37.8478C49.3203 37.4475 50.2135 36.8071 50.4853 36.4469C50.796 36.0067 50.8348 35.5664 50.563 35.006C50.33 34.5658 50.1746 33.8053 50.1746 33.285C50.1746 32.8047 50.563 32.0042 51.0678 31.4839C51.5339 30.9636 52.3882 30.6034 53.0096 30.6034C53.5921 30.6034 54.4853 31.0437 55.029 31.604C55.5727 32.1643 55.9999 33.0449 55.9999 33.6052C55.9999 34.1655 55.5727 35.0461 55.029 35.6064C54.5241 36.1667 53.864 36.607 53.5921 36.607C53.2814 36.607 52.7377 38.1279 52.1552 40.8896C51.6504 43.2911 50.9513 45.5324 50.6018 45.9326C50.0193 46.573 48.9319 46.6531 36.1164 46.6131C28.4659 46.6131 21.9416 46.533 21.6309 46.4129C21.2426 46.2929 20.6989 44.5718 19.9999 41.4099C19.3008 38.4081 18.7183 36.607 18.4465 36.607C18.1746 36.607 17.5144 36.1667 16.9708 35.6064C16.4271 35.0461 15.9999 34.1655 15.9999 33.6052C15.9999 33.0449 16.4271 32.1643 16.9708 31.604C17.4756 31.0437 18.2911 30.6034 18.796 30.6034C19.3008 30.5634 20.1552 30.9236 20.7766 31.4039C21.5533 32.0042 21.8251 32.5646 21.8251 33.5252C21.8251 34.2056 21.6309 35.006 21.3591 35.2862C20.9319 35.6865 20.9708 35.8866 21.4368 36.4469C21.7475 36.8071 22.6795 37.4475 23.4562 37.8478C24.3106 38.288 25.7475 38.6082 26.8737 38.6082C27.961 38.6082 29.2814 38.3681 29.9028 38.0479C30.4853 37.7277 31.3397 37.0473 31.8057 36.527C32.2717 36.0467 33.0873 34.6058 33.6309 33.4051C34.33 31.8041 34.4853 31.0036 34.2135 30.5233C34.0193 30.1231 33.6698 29.7229 33.4756 29.6028C33.2814 29.4827 33.0873 28.8423 33.0873 28.2019Z" fill="#F27D00"/>
</svg>
