<svg width="72" height="72" viewBox="0 0 72 72" fill="none" xmlns="http://www.w3.org/2000/svg">
<path d="M39.1255 48.6511H33.5293C29.5703 48.6511 26.3256 45.3172 26.3256 41.2092C26.3256 39.9888 27.3377 38.9767 28.5581 38.9767C29.7786 38.9767 30.7907 39.9888 30.7907 41.2092C30.7907 42.8465 32.0112 44.186 33.5293 44.186H39.1255C40.2865 44.186 41.2093 43.1441 41.2093 41.8641C41.2093 40.2567 40.7628 40.0185 39.7507 39.6613L30.7907 36.5357C28.8856 35.8511 26.3256 34.4818 26.3256 30.106C26.3256 26.3851 29.2726 23.319 32.8744 23.319H38.4706C42.4297 23.319 45.6744 26.653 45.6744 30.7609C45.6744 31.9814 44.6623 32.9934 43.4418 32.9934C42.2214 32.9934 41.2093 31.9814 41.2093 30.7609C41.2093 29.1237 39.9888 27.7841 38.4706 27.7841H32.8744C31.7135 27.7841 30.7907 28.826 30.7907 30.106C30.7907 31.7134 31.2372 31.9516 32.2493 32.3088L41.2093 35.4344C43.1144 36.119 45.6744 37.4883 45.6744 41.8641C45.6744 45.6148 42.7274 48.6511 39.1255 48.6511Z" fill="#1882FF"/>
<path d="M36 51.6279C34.7795 51.6279 33.7675 50.6158 33.7675 49.3954V22.6047C33.7675 21.3842 34.7795 20.3721 36 20.3721C37.2205 20.3721 38.2326 21.3842 38.2326 22.6047V49.3954C38.2326 50.6158 37.2205 51.6279 36 51.6279Z" fill="#1882FF"/>
<path d="M36 68C18.3479 68 4 53.6521 4 36C4 18.3479 18.3479 4 36 4C37.2205 4 38.2326 5.01209 38.2326 6.23256C38.2326 7.45302 37.2205 8.46512 36 8.46512C20.8186 8.46512 8.46512 20.8186 8.46512 36C8.46512 51.1814 20.8186 63.5349 36 63.5349C51.1814 63.5349 63.5349 51.1814 63.5349 36C63.5349 34.7795 64.547 33.7674 65.7674 33.7674C66.9879 33.7674 68 34.7795 68 36C68 53.6521 53.6521 68 36 68Z" fill="#1882FF"/>
<path d="M65.7675 20.3721C64.547 20.3721 63.5349 19.36 63.5349 18.1395V8.46512H53.8605C52.64 8.46512 51.6279 7.45302 51.6279 6.23256C51.6279 5.01209 52.64 4 53.8605 4H65.7675C66.9879 4 68 5.01209 68 6.23256V18.1395C68 19.36 66.9879 20.3721 65.7675 20.3721Z" fill="#03A629"/>
<path d="M50.8836 23.3489C50.318 23.3489 49.7524 23.1405 49.3059 22.694C48.4426 21.8308 48.4426 20.4019 49.3059 19.5387L64.1896 4.65495C65.0529 3.79169 66.4817 3.79169 67.345 4.65495C68.2082 5.5182 68.2082 6.94703 67.345 7.81029L52.4612 22.694C52.0147 23.1405 51.4491 23.3489 50.8836 23.3489Z" fill="#03A629"/>
</svg>
