<svg width="72" height="72" viewBox="0 0 72 72" fill="none" xmlns="http://www.w3.org/2000/svg">
<g clip-path="url(#clip0_394_69)">
<circle opacity="0.3" cx="21.2943" cy="69.178" r="2.82197" fill="#1882FF"/>
<circle opacity="0.3" cx="31.2952" cy="69.178" r="2.82197" fill="#1882FF"/>
<circle opacity="0.3" cx="41.2961" cy="69.178" r="2.82197" fill="#1882FF"/>
<circle opacity="0.3" cx="51.2971" cy="69.178" r="2.82197" fill="#1882FF"/>
<path fill-rule="evenodd" clip-rule="evenodd" d="M67.9952 18.8777C68.31 19.4792 68.2206 20.2126 67.7706 20.721L38.5411 53.7411C37.9607 54.3968 36.967 54.4793 36.2863 53.9284L20.8842 41.4617C20.4452 41.1063 20.2205 40.5498 20.2897 39.9892C20.3589 39.4287 20.7122 38.9435 21.2245 38.7056L40.3163 29.8393L16.6336 37.3688C16.1004 37.5383 15.5176 37.4237 15.0884 37.065L4.40505 28.1362C3.90379 27.7172 3.69973 27.0403 3.88596 26.4141C4.07218 25.7879 4.613 25.3325 5.26174 25.2556L66.3526 18.0114C67.0268 17.9315 67.6804 18.2761 67.9952 18.8777ZM50.4024 23.1984L9.41571 28.0587L16.4979 33.9778L50.4024 23.1984ZM60.3836 24.1284L24.9828 40.5687L37.1284 50.3995L60.3836 24.1284Z" fill="url(#paint0_linear_394_69)"/>
<path fill-rule="evenodd" clip-rule="evenodd" d="M65.8821 19.8851C66.1954 20.6897 65.8296 21.5993 65.0465 21.9629L23.1422 41.4235L19.2816 49.6457C18.9722 50.3048 18.2645 50.6801 17.5453 50.5666C16.8261 50.4531 16.2684 49.878 16.177 49.1557L14.5143 36.015C14.4152 35.2318 14.8895 34.4894 15.6419 34.2502L63.8615 18.9194C64.6843 18.6578 65.5689 19.0805 65.8821 19.8851ZM17.9322 36.9562L18.7159 43.1502L20.4324 39.4943C20.5957 39.1466 20.876 38.8674 21.2244 38.7056L40.3155 29.8397L17.9322 36.9562Z" fill="#126FDE"/>
<path fill-rule="evenodd" clip-rule="evenodd" d="M21.5473 38.5951C22.0374 38.4826 22.552 38.6016 22.9429 38.918L27.4892 42.5974C27.9066 42.9353 28.1317 43.4564 28.0915 43.9919C28.0513 44.5273 27.751 45.009 27.2879 45.2808L18.6286 50.3616C18.0101 50.7245 17.2274 50.6424 16.6976 50.1591C16.1679 49.6758 16.0145 48.9039 16.3193 48.2548L20.4323 39.4945C20.646 39.0393 21.0571 38.7077 21.5473 38.5951ZM22.5072 42.7757L21.5251 44.8676L23.5929 43.6543L22.5072 42.7757Z" fill="#126FDE"/>
<path fill-rule="evenodd" clip-rule="evenodd" d="M67.8895 18.7032C68.3197 19.3228 68.2706 20.1562 67.7706 20.721L38.5412 53.7411C37.9607 54.3968 36.967 54.4793 36.2864 53.9284L20.8842 41.4617C20.4452 41.1063 20.2205 40.5498 20.2897 39.9892C20.3589 39.4287 20.7123 38.9435 21.2245 38.7056L63.6681 18.9947C63.7014 18.9792 63.7352 18.9649 63.7694 18.9517L65.9574 18.1093C66.6613 17.8383 67.4593 18.0835 67.8895 18.7032ZM60.3836 24.1284L24.9828 40.5687L37.1284 50.3995L60.3836 24.1284Z" fill="url(#paint1_linear_394_69)"/>
</g>
<defs>
<linearGradient id="paint0_linear_394_69" x1="3.81799" y1="18" x2="71.8737" y2="27.3127" gradientUnits="userSpaceOnUse">
<stop stop-color="#5CA7FF"/>
<stop offset="1" stop-color="#126FDE"/>
</linearGradient>
<linearGradient id="paint1_linear_394_69" x1="20.2773" y1="17.9999" x2="71.3483" y2="23.2013" gradientUnits="userSpaceOnUse">
<stop stop-color="#5CA7FF"/>
<stop offset="1" stop-color="#126FDE"/>
</linearGradient>
<clipPath id="clip0_394_69">
<rect width="72" height="72" fill="white"/>
</clipPath>
</defs>
</svg>
