<svg width="72" height="72" viewBox="0 0 72 72" fill="none" xmlns="http://www.w3.org/2000/svg">
<path d="M36 68C20.5558 68 8 55.3191 8 39.7209C8 24.1228 20.5558 11.4419 36 11.4419C51.4442 11.4419 64 24.1228 64 39.7209C64 40.9414 62.9979 41.9535 61.7895 41.9535C60.5811 41.9535 59.5789 40.9414 59.5789 39.7209C59.5789 26.5935 48.9979 15.907 36 15.907C23.0021 15.907 12.4211 26.5935 12.4211 39.7209C12.4211 52.8484 23.0021 63.5349 36 63.5349C37.2084 63.5349 38.2105 64.547 38.2105 65.7674C38.2105 66.9879 37.2084 68 36 68Z" fill="#1882FF"/>
<path d="M47.0497 64.7751C46.4961 64.7751 45.9425 64.5689 45.5054 64.1268C44.6605 63.2723 44.6605 61.8578 45.5054 61.0032L56.8396 49.5401C57.6846 48.6855 59.0831 48.6855 59.9281 49.5401C60.7731 50.3947 60.7731 51.8092 59.9281 52.6637L48.5939 64.1268C48.1569 64.5689 47.6033 64.7751 47.0497 64.7751Z" fill="#EF4444"/>
<path d="M58.3542 64.7751C57.8006 64.7751 57.247 64.5689 56.81 64.1268L45.4758 52.6637C44.6308 51.8092 44.6308 50.3947 45.4758 49.5401C46.3207 48.6855 47.7193 48.6855 48.5643 49.5401L59.8984 61.0032C60.7434 61.8578 60.7434 63.2723 59.8984 64.1268C59.4905 64.5689 58.9369 64.7751 58.3542 64.7751Z" fill="#EF4444"/>
<path d="M36.0001 41.2093C34.7917 41.2093 33.7896 40.1972 33.7896 38.9768V24.093C33.7896 22.8726 34.7917 21.8605 36.0001 21.8605C37.2086 21.8605 38.2107 22.8726 38.2107 24.093V38.9768C38.2107 40.1972 37.2086 41.2093 36.0001 41.2093Z" fill="#1882FF"/>
<path d="M44.8421 8.46512H27.1579C25.9494 8.46512 24.9473 7.45302 24.9473 6.23256C24.9473 5.01209 25.9494 4 27.1579 4H44.8421C46.0505 4 47.0526 5.01209 47.0526 6.23256C47.0526 7.45302 46.0505 8.46512 44.8421 8.46512Z" fill="#1882FF"/>
</svg>
