<svg width="72" height="72" viewBox="0 0 72 72" fill="none" xmlns="http://www.w3.org/2000/svg">
<circle opacity="0.3" cx="21.2943" cy="69.178" r="2.82197" fill="#1882FF"/>
<circle opacity="0.3" cx="31.2952" cy="69.178" r="2.82197" fill="#1882FF"/>
<circle opacity="0.3" cx="41.2961" cy="69.178" r="2.82197" fill="#1882FF"/>
<circle opacity="0.3" cx="51.2971" cy="69.178" r="2.82197" fill="#1882FF"/>
<path fill-rule="evenodd" clip-rule="evenodd" d="M29.1155 26.0015C29.8204 25.6102 30.6758 25.6036 31.3867 25.984L38.4276 29.7518L44.4866 26.1998C45.1032 25.8473 45.7875 25.7493 46.4781 25.9218C47.1817 26.0976 47.7401 26.5218 48.1016 27.1486C48.4617 27.7701 48.5527 28.4579 48.4003 29.1522C48.2411 29.8776 47.8288 30.4727 47.1746 30.8494L29.6089 40.819C28.5486 41.426 27.2133 41.2485 26.3484 40.3857L24.1482 38.1908C23.2197 37.2645 23.4272 35.7088 24.5658 35.0582C25.0968 34.7548 25.7378 34.7127 26.3039 34.9441L27.8767 35.5871L32.146 33.3425L28.5819 29.7465C27.475 28.6297 27.7407 26.7647 29.1155 26.0015Z" fill="#126FDE"/>
<path fill-rule="evenodd" clip-rule="evenodd" d="M35.4054 7.09611C22.3273 7.09611 11.7254 17.698 11.7254 30.7761C11.7254 43.8542 22.3273 54.4561 35.4054 54.4561C41.7971 54.4561 47.5935 51.9266 51.8556 47.8094C56.3159 43.5008 59.0854 37.4637 59.0854 30.7761C59.0854 17.698 48.4835 7.09611 35.4054 7.09611ZM7.4397 30.7761C7.4397 15.3311 19.9604 2.81039 35.4054 2.81039C50.8504 2.81039 63.3711 15.3311 63.3711 30.7761C63.3711 37.8887 60.7136 44.3836 56.3415 49.3173L64.5241 57.4999C65.361 58.3367 65.361 59.6935 64.5241 60.5303C63.6873 61.3672 62.3305 61.3672 61.4937 60.5303L53.2625 52.2992C48.4196 56.3211 42.1934 58.7418 35.4054 58.7418C19.9604 58.7418 7.4397 46.2211 7.4397 30.7761Z" fill="#1882FF"/>
</svg>
