<svg width="80" height="80" viewBox="0 0 80 80" fill="none" xmlns="http://www.w3.org/2000/svg">
<path d="M32.0223 9.3395C36.4088 4.88683 43.5912 4.88683 47.9777 9.3395C50.1028 11.4967 53.0111 12.7014 56.0392 12.6787C62.2894 12.6319 67.3681 17.7106 67.3213 23.9608C67.2986 26.9889 68.5033 29.8972 70.6605 32.0223C75.1131 36.4088 75.1131 43.5912 70.6605 47.9777C68.5033 50.1028 67.2986 53.0111 67.3213 56.0392C67.3681 62.2894 62.2894 67.3681 56.0392 67.3213C53.0111 67.2986 50.1028 68.5033 47.9777 70.6605C43.5912 75.1132 36.4088 75.1132 32.0223 70.6605C29.8971 68.5033 26.9889 67.2986 23.9608 67.3213C17.7106 67.3681 12.6319 62.2894 12.6787 56.0392C12.7014 53.0111 11.4967 50.1028 9.3395 47.9777C4.88683 43.5912 4.88683 36.4088 9.3395 32.0223C11.4967 29.8972 12.7014 26.9889 12.6787 23.9608C12.6319 17.7106 17.7106 12.6319 23.9608 12.6787C26.9889 12.7014 29.8971 11.4967 32.0223 9.3395Z" fill="#22C55E"/>
<path d="M47.9777 70.6605C50.1029 68.5033 53.0111 67.2986 56.0392 67.3213C62.2894 67.3681 67.3681 62.2894 67.3213 56.0392C67.2987 53.0111 68.5033 50.1028 70.6605 47.9777C75.1132 43.5912 75.1132 36.4088 70.6605 32.0223C68.5033 29.8972 67.2987 26.9889 67.3213 23.9608C67.3681 17.7106 62.2894 12.6319 56.0392 12.6787C53.0111 12.7014 50.1029 11.4967 47.9777 9.3395C45.8334 7.16284 43.0209 6.05023 40.1936 6.00166V73.9983C43.0209 73.9498 45.8334 72.8372 47.9777 70.6605Z" fill="white" fill-opacity="0.16"/>
<path d="M49.2526 31.9193C50.0337 31.1382 51.2997 31.1382 52.0807 31.9193C52.8618 32.7003 52.8618 33.9663 52.0807 34.7474L38.7477 48.0804C37.9667 48.8614 36.7007 48.8614 35.9196 48.0804L29.2526 41.4144L29.1149 41.262C28.4745 40.4766 28.5206 39.3184 29.2526 38.5863C29.9849 37.8539 31.1438 37.8076 31.9294 38.4486L32.0807 38.5863L37.3327 43.8382L49.2526 31.9193Z" fill="white"/>
</svg>
