<svg width="72" height="72" viewBox="0 0 72 72" fill="none" xmlns="http://www.w3.org/2000/svg">
<path d="M68.1022 36C68.1022 53.6731 53.7753 68 36.1022 68C18.4291 68 4.10217 53.6731 4.10217 36C4.10217 18.3269 18.4291 4 36.1022 4C53.7753 4 68.1022 18.3269 68.1022 36ZM8.90217 36C8.90217 51.0221 21.08 63.2 36.1022 63.2C51.1243 63.2 63.3022 51.0221 63.3022 36C63.3022 20.9779 51.1243 8.8 36.1022 8.8C21.08 8.8 8.90217 20.9779 8.90217 36Z" fill="#22C55E"/>
<path d="M43.323 27.2561C44.2737 26.248 45.836 26.248 46.7867 27.2561C47.7374 28.2642 47.7374 29.9208 46.7867 30.9288L34.7061 43.7384C34.2498 44.2222 33.629 44.5001 32.9743 44.5001C32.3196 44.5001 31.6987 44.2222 31.2424 43.7384L25.2128 37.3449C24.2621 36.3368 24.2621 34.6802 25.2128 33.6722C26.1635 32.6641 27.7258 32.6641 28.6765 33.6722L32.9743 38.2293L43.323 27.2561Z" fill="#22C55E"/>
</svg>
