<svg width="72" height="72" viewBox="0 0 72 72" fill="none" xmlns="http://www.w3.org/2000/svg">
<rect x="4" y="4" width="64" height="64" rx="32" fill="#22C55E"/>
<path fill-rule="evenodd" clip-rule="evenodd" d="M27.5514 17.3333C28.5816 17.3333 29.4788 17.4663 30.243 17.7321C31.0073 17.9979 31.6553 18.4133 32.187 18.9782C32.8183 19.6096 33.3001 20.4735 33.6324 21.5701C33.998 22.6667 34.1807 24.2285 34.1807 26.2555V29.7446H50.9783V34.3302H34.1808V46.8411C34.1808 48.0706 34.347 48.9346 34.6792 49.433C35.0115 49.9315 35.726 50.1807 36.8226 50.1807C37.6865 50.1807 38.5505 50.0145 39.4145 49.6823C40.2784 49.35 41.0593 48.9014 41.7571 48.3365C42.455 47.7716 43.0199 47.1236 43.4518 46.3925C43.8838 45.6283 44.0998 44.8474 44.0998 44.0499C44.0998 43.5182 43.917 43.0862 43.5515 42.7539C43.2192 42.3884 42.6045 42.2056 41.7073 42.2056C40.9762 42.2056 40.3116 42.2887 39.7135 42.4548L39.0655 38.1682C39.6304 38.0021 40.2618 37.8858 40.9596 37.8193C41.6574 37.7196 42.3719 37.6698 43.1029 37.6698C44.997 37.6698 46.509 38.1184 47.6388 39.0156C48.8018 39.9128 49.3833 41.325 49.3833 43.2523C49.3833 44.9138 49.0012 46.4424 48.2369 47.838C47.4726 49.2337 46.4425 50.4465 45.1465 51.4767C43.8506 52.5068 42.4217 53.3043 40.8599 53.8692C39.3314 54.4008 37.7862 54.6667 36.2244 54.6667C34.9285 54.6667 33.8319 54.5171 32.9347 54.2181C32.0707 53.8858 31.3563 53.4704 30.7914 52.972C30.4591 52.6064 30.1434 52.2077 29.8444 51.7757C29.5453 51.3437 29.3127 50.7456 29.1465 49.9813C28.9804 49.1838 28.8973 48.1371 28.8973 46.8411V34.3302H24.4113V29.7446H28.8972V26.4548C28.8972 25.458 28.8308 24.6272 28.6979 23.9626C28.5649 23.298 28.2659 22.7996 27.8007 22.4673C27.3687 22.1018 26.7041 21.919 25.8069 21.919C25.2752 21.919 24.7269 22.0021 24.162 22.1682C23.6304 22.3012 23.1319 22.4507 22.6667 22.6168L21.0219 18.6791C22.1849 18.2139 23.2648 17.8816 24.2617 17.6823C25.2586 17.4496 26.3552 17.3333 27.5514 17.3333Z" fill="white"/>
</svg>
