<svg width="80" height="80" viewBox="0 0 80 80" fill="none" xmlns="http://www.w3.org/2000/svg">
<path d="M32.0223 9.3395C36.4088 4.88683 43.5912 4.88683 47.9777 9.3395C50.1028 11.4967 53.0111 12.7014 56.0392 12.6787C62.2894 12.6319 67.3681 17.7106 67.3213 23.9608C67.2986 26.9889 68.5033 29.8972 70.6605 32.0223C75.1131 36.4088 75.1131 43.5912 70.6605 47.9777C68.5033 50.1028 67.2986 53.0111 67.3213 56.0392C67.3681 62.2894 62.2894 67.3681 56.0392 67.3213C53.0111 67.2986 50.1028 68.5033 47.9777 70.6605C43.5912 75.1132 36.4088 75.1132 32.0223 70.6605C29.8971 68.5033 26.9889 67.2986 23.9608 67.3213C17.7106 67.3681 12.6319 62.2894 12.6787 56.0392C12.7014 53.0111 11.4967 50.1028 9.3395 47.9777C4.88683 43.5912 4.88683 36.4088 9.3395 32.0223C11.4967 29.8972 12.7014 26.9889 12.6787 23.9608C12.6319 17.7106 17.7106 12.6319 23.9608 12.6787C26.9889 12.7014 29.8971 11.4967 32.0223 9.3395Z" fill="#EAB308"/>
<path d="M47.9777 70.6605C50.1029 68.5033 53.0111 67.2986 56.0392 67.3213C62.2894 67.3681 67.3681 62.2894 67.3213 56.0392C67.2987 53.0111 68.5033 50.1028 70.6605 47.9777C75.1132 43.5912 75.1132 36.4088 70.6605 32.0223C68.5033 29.8972 67.2987 26.9889 67.3213 23.9608C67.3681 17.7106 62.2894 12.6319 56.0392 12.6787C53.0111 12.7014 50.1029 11.4967 47.9777 9.3395C45.8334 7.16284 43.0209 6.05023 40.1936 6.00166V73.9983C43.0209 73.9498 45.8334 72.8372 47.9777 70.6605Z" fill="white" fill-opacity="0.16"/>
<path d="M40.3891 24.0127C41.1652 24.0627 41.9246 24.2613 42.6254 24.5986L42.9701 24.7793L43.3031 24.9814C43.9549 25.406 44.5193 25.9518 44.9643 26.5898L45.1762 26.916L45.1859 26.9316L55.9936 44.9795L56.0229 45.0293L56.2084 45.3779C56.5572 46.0859 56.7643 46.8552 56.8178 47.6426L56.8314 48.0371L56.8197 48.4326C56.7619 49.3514 56.4951 50.247 56.0375 51.0498C55.5145 51.9672 54.76 52.7318 53.85 53.2676C53.0537 53.7363 52.1624 54.0163 51.2445 54.0869L50.85 54.1045H29.1518C28.0952 54.0926 27.0594 53.8036 26.1488 53.2676C25.2385 52.7316 24.4844 51.9667 23.9613 51.0488C23.4382 50.1308 23.1644 49.0918 23.1674 48.0352L23.1811 47.6396C23.2439 46.721 23.5158 45.8268 23.9779 45.0264L34.8148 26.9326C34.8181 26.9273 34.8204 26.9214 34.8236 26.916L35.0365 26.5898C35.5556 25.8457 36.2363 25.2263 37.0297 24.7793L37.3744 24.5986C38.1919 24.205 39.0897 24 40.0004 24L40.3891 24.0127ZM40.0004 27.5C39.5616 27.5 39.1298 27.6128 38.7475 27.8281C38.3652 28.0435 38.0452 28.3543 37.8178 28.7295V28.7314L27.0092 46.7764L26.9311 46.9229C26.7591 47.2712 26.6685 47.655 26.6674 48.0449C26.6661 48.4905 26.7818 48.9293 27.0023 49.3164C27.2229 49.7033 27.5414 50.026 27.9252 50.252C28.261 50.4495 28.6369 50.5669 29.0238 50.5967L29.1908 50.6045H50.809C51.1986 50.6 51.5815 50.5057 51.9281 50.3311L52.0746 50.252C52.4104 50.0542 52.6957 49.7821 52.9096 49.458L52.9975 49.3164C53.218 48.9295 53.3335 48.4912 53.3324 48.0459C53.3313 47.6006 53.2131 47.1631 52.9906 46.7773L42.183 28.7295C41.9556 28.3542 41.6347 28.0435 41.2523 27.8281C40.8702 27.6129 40.439 27.5001 40.0004 27.5Z" fill="white"/>
<path d="M40.0137 44.276L40.2178 44.2867C41.2262 44.3891 42.0135 45.2406 42.0137 46.276C42.0137 47.3115 41.2263 48.1638 40.2178 48.2662L40.0137 48.276H40C38.8955 48.276 38 47.3805 38 46.276C38.0002 45.1716 38.8956 44.276 40 44.276H40.0137ZM38 40.276V34.943C38 33.8384 38.8955 32.943 40 32.943C41.1046 32.943 42 33.8384 42 34.943V40.276C42 41.3805 41.1046 42.276 40 42.276C38.8955 42.276 38 41.3805 38 40.276Z" fill="white"/>
</svg>
