<svg width="72" height="72" viewBox="0 0 72 72" fill="none" xmlns="http://www.w3.org/2000/svg">
<path d="M35.9994 41.2156C34.7911 41.2156 33.7891 40.2037 33.7891 38.9835V23.3592C33.7891 22.1391 34.7911 21.1272 35.9994 21.1272C37.2078 21.1272 38.2098 22.1391 38.2098 23.3592V38.9835C38.2098 40.2037 37.2078 41.2156 35.9994 41.2156Z" fill="#F27D00"/>
<path d="M35.9995 51.6316C35.2038 51.6316 34.4669 51.3341 33.907 50.7687C33.6417 50.4711 33.4355 50.1436 33.2587 49.7865C33.1113 49.4294 33.0524 49.0425 33.0524 48.6556C33.0524 47.8818 33.3765 47.108 33.907 46.5425C34.9974 45.4414 37.0016 45.4414 38.0921 46.5425C38.6225 47.108 38.9467 47.8818 38.9467 48.6556C38.9467 49.0425 38.8582 49.4294 38.7108 49.7865C38.5635 50.1436 38.3573 50.4711 38.0921 50.7687C37.5321 51.3341 36.7952 51.6316 35.9995 51.6316Z" fill="#F27D00"/>
<path d="M36 68C34.0254 68 32.0213 67.494 30.253 66.4524L12.747 56.2445C9.2104 54.1613 7 50.3222 7 46.1855V25.8294C7 21.6926 9.2104 17.8535 12.747 15.7703L30.253 5.56243C33.7896 3.47919 38.1809 3.47919 41.747 5.56243L59.253 15.7703C62.7896 17.8535 65 21.6926 65 25.8294V46.1855C65 50.3222 62.7896 54.1613 59.253 56.2445L41.747 66.4524C39.9787 67.494 37.9746 68 36 68ZM36 8.4789C34.7917 8.4789 33.5538 8.80629 32.4634 9.43126L14.9573 19.6391C12.7764 20.9188 11.4207 23.2699 11.4207 25.8294V46.1855C11.4207 48.7151 12.7764 51.096 14.9573 52.3757L32.4634 62.5836C34.6443 63.8633 37.3557 63.8633 39.5071 62.5836L57.0132 52.3757C59.1941 51.096 60.5498 48.7449 60.5498 46.1855V25.8294C60.5498 23.2997 59.1941 20.9188 57.0132 19.6391L39.5071 9.43126C38.4461 8.80629 37.2083 8.4789 36 8.4789Z" fill="#F27D00"/>
</svg>
