<svg width="24" height="24" viewBox="0 0 24 24" fill="none" xmlns="http://www.w3.org/2000/svg">
<path opacity="0.6" d="M4.34192 19.5689V2.84863C9.96326 10.4911 14.6826 11.1132 19.6587 11.1132V19.5689C19.6587 20.5045 19.1902 21.263 18.6122 21.263H5.38841C4.81045 21.263 4.34192 20.5045 4.34192 19.5689Z" fill="#BECAD6"/>
<path fill-rule="evenodd" clip-rule="evenodd" d="M11.7671 5.9163C12.1813 5.9163 12.5171 6.25209 12.5171 6.6663V11.3738C12.5171 11.788 12.1813 12.1238 11.7671 12.1238C11.3528 12.1238 11.0171 11.788 11.0171 11.3738V6.6663C11.0171 6.25209 11.3528 5.9163 11.7671 5.9163Z" fill="#3E4957"/>
<path fill-rule="evenodd" clip-rule="evenodd" d="M8.54063 9.02006C8.54063 8.60585 8.87642 8.27006 9.29063 8.27006L14.2431 8.27006C14.6574 8.27006 14.9931 8.60585 14.9931 9.02006C14.9931 9.43427 14.6574 9.77006 14.2431 9.77006L9.29063 9.77006C8.87642 9.77006 8.54063 9.43427 8.54063 9.02006Z" fill="#3E4957"/>
<path fill-rule="evenodd" clip-rule="evenodd" d="M6.04151 22.0013C4.52272 22.0013 3.2915 20.77 3.2915 19.2513L3.2915 4.74908C3.2915 3.2303 4.52272 1.99909 6.0415 1.99908L17.5312 1.99908C19.05 1.99908 20.2812 3.2303 20.2812 4.74908V19.2513C20.2812 20.77 19.05 22.0013 17.5312 22.0013H6.04151ZM4.7915 19.2513C4.7915 19.9416 5.35115 20.5013 6.04151 20.5013H17.5312C18.2216 20.5013 18.7812 19.9416 18.7812 19.2513V4.74908C18.7812 4.05873 18.2216 3.49908 17.5312 3.49908L6.0415 3.49908C5.35115 3.49908 4.7915 4.05873 4.7915 4.74908V19.2513Z" fill="#3E4957"/>
<path fill-rule="evenodd" clip-rule="evenodd" d="M10.1871 17.4951C10.1871 17.0809 10.5229 16.7451 10.9371 16.7451L15.9234 16.7451C16.3376 16.7451 16.6734 17.0809 16.6734 17.4951C16.6734 17.9093 16.3376 18.2451 15.9234 18.2451H10.9371C10.5229 18.2451 10.1871 17.9093 10.1871 17.4951Z" fill="#3E4957"/>
<path d="M9.55121 17.4951C9.55121 17.9022 9.22119 18.2322 8.81409 18.2322C8.40699 18.2322 8.07697 17.9022 8.07697 17.4951C8.07697 17.088 8.40699 16.758 8.81409 16.758C9.22119 16.758 9.55121 17.088 9.55121 17.4951Z" fill="#3E4957"/>
<path fill-rule="evenodd" clip-rule="evenodd" d="M10.1871 14.8227C10.1871 14.4085 10.5229 14.0727 10.9371 14.0727H13.6348C14.049 14.0727 14.3848 14.4085 14.3848 14.8227C14.3848 15.2369 14.049 15.5727 13.6348 15.5727H10.9371C10.5229 15.5727 10.1871 15.2369 10.1871 14.8227Z" fill="#3E4957"/>
<path d="M9.55121 14.8227C9.55121 15.2298 9.22119 15.5598 8.81409 15.5598C8.40699 15.5598 8.07697 15.2298 8.07697 14.8227C8.07697 14.4156 8.40699 14.0856 8.81409 14.0856C9.22119 14.0856 9.55121 14.4156 9.55121 14.8227Z" fill="#3E4957"/>
</svg>
