<svg width="24" height="24" viewBox="0 0 24 24" fill="none" xmlns="http://www.w3.org/2000/svg">
<path opacity="0.3" d="M21.7969 13.1314V18.1267C21.7969 18.6789 21.3492 19.1267 20.7969 19.1267H20.3211C20.0629 19.1267 19.8146 19.0268 19.6284 18.8479L18.1326 17.4111C17.7527 17.0462 17.1549 17.0385 16.7658 17.3936L15.1529 18.8653C14.9687 19.0335 14.7283 19.1267 14.4789 19.1267H13.6643C13.112 19.1267 12.6643 18.6789 12.6643 18.1267V8.79181C12.6643 8.23952 13.112 7.79181 13.6643 7.79181H15.2358C15.7881 7.79181 16.2358 8.23952 16.2358 8.79181V11.1314C16.2358 11.6837 16.6835 12.1314 17.2358 12.1314H20.7969C21.3492 12.1314 21.7969 12.5791 21.7969 13.1314Z" fill="#BECAD6"/>
<path opacity="0.6" d="M12.7268 3.4657V19.0684H10.0551C9.32979 19.0684 8.64136 18.7486 8.17347 18.1944C7.21958 17.0645 5.49201 17.0242 4.48641 18.1083L4.37118 18.2325C3.87681 18.7655 3.18274 19.0684 2.4558 19.0684H1.46497V19.0684C1.46497 15.0775 2.55884 11.0343 5.49473 8.33099C7.3988 6.57778 9.54041 5.08626 11.8645 3.90423L12.7268 3.4657Z" fill="#BECAD6"/>
<path fill-rule="evenodd" clip-rule="evenodd" d="M0.979736 3.75507C0.979736 2.78857 1.76324 2.00507 2.72974 2.00507H12.1668C13.1333 2.00507 13.9168 2.78857 13.9168 3.75507V6.541H19.0946C20.0611 6.541 20.8446 7.3245 20.8446 8.291V10.7586H21.27C22.2365 10.7586 23.02 11.5421 23.02 12.5086V17.7158C23.02 18.6823 22.2365 19.4658 21.27 19.4658H20.5946C20.1804 19.4658 19.8446 19.13 19.8446 18.7158C19.8446 18.3016 20.1804 17.9658 20.5946 17.9658H21.27C21.4081 17.9658 21.52 17.8539 21.52 17.7158V12.5086C21.52 12.3705 21.4081 12.2586 21.27 12.2586H17.6317C16.6652 12.2586 15.8817 11.4751 15.8817 10.5086V8.041H13.9168V17.9658H14.9681C15.3823 17.9658 15.7181 18.3016 15.7181 18.7158C15.7181 19.13 15.3823 19.4658 14.9681 19.4658H9.46872C9.0545 19.4658 8.71872 19.13 8.71872 18.7158C8.71872 18.3016 9.0545 17.9658 9.46872 17.9658H12.4168V3.75507C12.4168 3.61699 12.3049 3.50507 12.1668 3.50507H2.72974C2.59167 3.50507 2.47974 3.61699 2.47974 3.75507V17.7162C2.47974 17.8539 2.59128 17.9658 2.72974 17.9658H4.14176C4.55598 17.9658 4.89176 18.3016 4.89176 18.7158C4.89176 19.13 4.55598 19.4658 4.14176 19.4658H2.72974C1.76363 19.4658 0.979736 18.6831 0.979736 17.7162V3.75507ZM17.3817 8.041V10.5086C17.3817 10.6467 17.4937 10.7586 17.6317 10.7586H19.3446V8.291C19.3446 8.15293 19.2327 8.041 19.0946 8.041H17.3817Z" fill="#1A2B3D"/>
<path fill-rule="evenodd" clip-rule="evenodd" d="M6.88379 17.4338C6.05536 17.4338 5.38379 18.1054 5.38379 18.9338C5.38379 19.7623 6.05536 20.4338 6.88379 20.4338C7.71222 20.4338 8.38379 19.7623 8.38379 18.9338C8.38379 18.1054 7.71222 17.4338 6.88379 17.4338ZM3.88379 18.9338C3.88379 17.277 5.22693 15.9338 6.88379 15.9338C8.54064 15.9338 9.88379 17.277 9.88379 18.9338C9.88379 20.5907 8.54064 21.9338 6.88379 21.9338C5.22693 21.9338 3.88379 20.5907 3.88379 18.9338Z" fill="#1A2B3D"/>
<path fill-rule="evenodd" clip-rule="evenodd" d="M17.6338 17.4338C16.8054 17.4338 16.1338 18.1054 16.1338 18.9338C16.1338 19.7623 16.8054 20.4338 17.6338 20.4338C18.4622 20.4338 19.1338 19.7623 19.1338 18.9338C19.1338 18.1054 18.4622 17.4338 17.6338 17.4338ZM14.6338 18.9338C14.6338 17.277 15.9769 15.9338 17.6338 15.9338C19.2906 15.9338 20.6338 17.277 20.6338 18.9338C20.6338 20.5907 19.2906 21.9338 17.6338 21.9338C15.9769 21.9338 14.6338 20.5907 14.6338 18.9338Z" fill="#1A2B3D"/>
</svg>
