<svg width="24" height="24" viewBox="0 0 24 24" fill="none" xmlns="http://www.w3.org/2000/svg">
<path opacity="0.3" d="M14.927 15.597C14.927 14.7686 15.5986 14.097 16.427 14.097H18.6913C19.5197 14.097 20.1913 14.7686 20.1913 15.597V21.3776C20.1913 21.5386 20.0109 21.6336 19.8782 21.5426L17.8418 20.1468C17.6714 20.03 17.4468 20.03 17.2764 20.1468L15.2401 21.5426C15.1074 21.6336 14.927 21.5386 14.927 21.3776V15.597Z" fill="#BECAD6"/>
<g opacity="0.6">
<path d="M5.41974 21.585H14.9247V16.3104C14.9112 14.4559 15.047 14.0972 15.8017 14.0972C14.6311 13.638 12.7643 13 11.3209 13C7.17223 13 3.80908 15.9877 3.80908 19.6731V20.1542C3.80908 20.9444 4.5302 21.585 5.41974 21.585Z" fill="#BECAD6"/>
<path d="M11.9979 10C14.0678 10 15.7458 8.32107 15.7458 6.25C15.7458 4.17893 14.0678 2.5 11.9979 2.5C9.92798 2.5 8.25 4.17893 8.25 6.25C8.25 8.32107 9.92798 10 11.9979 10Z" fill="#BECAD6"/>
</g>
<path fill-rule="evenodd" clip-rule="evenodd" d="M3.05908 19.6731C3.05908 15.5146 6.70954 12.25 11.0754 12.25C11.3869 12.25 11.6944 12.2666 11.997 12.2991C12.4089 12.3432 12.707 12.7129 12.6628 13.1247C12.6187 13.5366 12.2491 13.8347 11.8372 13.7905C11.5876 13.7638 11.3334 13.75 11.0754 13.75C7.41515 13.75 4.55908 16.4607 4.55908 19.6731V20.1542C4.55908 20.4713 4.85944 20.835 5.36711 20.835H11.9171C12.3313 20.835 12.6671 21.1708 12.6671 21.585C12.6671 21.9992 12.3313 22.335 11.9171 22.335H5.36711C4.15383 22.335 3.05908 21.4174 3.05908 20.1542V19.6731Z" fill="#3E4957"/>
<path fill-rule="evenodd" clip-rule="evenodd" d="M14.177 15.597C14.177 14.3544 15.1844 13.347 16.427 13.347H18.6913C19.9339 13.347 20.9413 14.3544 20.9413 15.597V21.3776C20.9413 22.142 20.0846 22.5934 19.4542 22.1612L17.5591 20.8623L15.6641 22.1612C15.0337 22.5934 14.177 22.142 14.177 21.3776V15.597ZM16.427 14.847C16.0128 14.847 15.677 15.1828 15.677 15.597V20.3339L16.8524 19.5282C17.2783 19.2362 17.8399 19.2362 18.2658 19.5282L19.4413 20.3339V15.597C19.4413 15.1828 19.1055 14.847 18.6913 14.847H16.427Z" fill="#3E4957"/>
<path fill-rule="evenodd" clip-rule="evenodd" d="M12.0021 3.25C10.3468 3.25 9.00419 4.59275 9.00419 6.25C9.00419 7.90725 10.3468 9.25 12.0021 9.25C13.6573 9.25 14.9999 7.90725 14.9999 6.25C14.9999 4.59275 13.6573 3.25 12.0021 3.25ZM7.50419 6.25C7.50419 3.76512 9.51755 1.75 12.0021 1.75C14.4866 1.75 16.4999 3.76512 16.4999 6.25C16.4999 8.73488 14.4866 10.75 12.0021 10.75C9.51755 10.75 7.50419 8.73488 7.50419 6.25Z" fill="#3E4957"/>
</svg>
