<svg width="24" height="24" viewBox="0 0 24 24" fill="none" xmlns="http://www.w3.org/2000/svg">
<path opacity="0.6" d="M4.52927 4.29415C4.52927 3.35791 4.99812 2.59894 5.57647 2.59894H8.41532C11.3548 8.95622 16.115 10.2571 19.8564 10.2571V19.4991C19.8564 20.4353 19.3876 21.1943 18.8092 21.1943H5.57647C4.99812 21.1943 4.52927 20.4353 4.52927 19.4991V4.29415Z" fill="#BECAD6"/>
<path fill-rule="evenodd" clip-rule="evenodd" d="M9.93678 6.69358C10.1529 6.38934 10.5598 6.29025 10.8916 6.46108L13.9644 8.04322L15.1684 7.34811C15.5271 7.141 15.9858 7.26391 16.1929 7.62263C16.4 7.98134 16.2771 8.44004 15.9184 8.64714L10.9769 11.5001C10.504 11.7732 9.90849 11.7076 9.5063 11.3382L8.76737 10.6594C8.49591 10.41 8.44589 10.0004 8.64937 9.69303C8.85285 9.38568 9.24951 9.27175 9.58507 9.42427L10.697 9.92967L11.7617 9.31495L10.0317 7.67167C9.76115 7.41466 9.72069 6.99783 9.93678 6.69358Z" fill="#3E4957"/>
<path fill-rule="evenodd" clip-rule="evenodd" d="M10.0354 17.5019C10.0354 17.0877 10.3712 16.7519 10.7854 16.7519H15.7717C16.1859 16.7519 16.5217 17.0877 16.5217 17.5019C16.5217 17.9161 16.1859 18.2519 15.7717 18.2519H10.7854C10.3712 18.2519 10.0354 17.9161 10.0354 17.5019Z" fill="#3E4957"/>
<path d="M9.39954 17.5019C9.39954 17.909 9.06952 18.239 8.66241 18.239C8.25531 18.239 7.92529 17.909 7.92529 17.5019C7.92529 17.0948 8.25531 16.7647 8.66241 16.7647C9.06952 16.7647 9.39954 17.0948 9.39954 17.5019Z" fill="#3E4957"/>
<path fill-rule="evenodd" clip-rule="evenodd" d="M10.0354 14.8294C10.0354 14.4152 10.3712 14.0794 10.7854 14.0794L13.4832 14.0794C13.8974 14.0794 14.2332 14.4152 14.2332 14.8294C14.2332 15.2437 13.8974 15.5794 13.4832 15.5794L10.7854 15.5794C10.3712 15.5794 10.0354 15.2437 10.0354 14.8294Z" fill="#3E4957"/>
<path d="M9.39954 14.8294C9.39954 15.2365 9.06952 15.5666 8.66241 15.5666C8.25531 15.5666 7.92529 15.2365 7.92529 14.8294C7.92529 14.4223 8.25531 14.0923 8.66241 14.0923C9.06952 14.0923 9.39954 14.4223 9.39954 14.8294Z" fill="#3E4957"/>
<path fill-rule="evenodd" clip-rule="evenodd" d="M6.448 22.0013C4.92922 22.0013 3.698 20.77 3.698 19.2513L3.698 4.74908C3.698 3.2303 4.92922 1.99909 6.448 1.99908L17.9377 1.99908C19.4565 1.99908 20.6877 3.2303 20.6877 4.74908V19.2513C20.6877 20.77 19.4565 22.0013 17.9377 22.0013H6.448ZM5.198 19.2513C5.198 19.9416 5.75764 20.5013 6.448 20.5013H17.9377C18.6281 20.5013 19.1877 19.9416 19.1877 19.2513V4.74908C19.1877 4.05873 18.6281 3.49908 17.9377 3.49908L6.448 3.49908C5.75764 3.49908 5.198 4.05873 5.198 4.74908V19.2513Z" fill="#3E4957"/>
</svg>
