<svg width="24" height="24" viewBox="0 0 24 24" fill="none" xmlns="http://www.w3.org/2000/svg">
<path opacity="0.3" d="M19.4475 16.9349L18.3138 9.83832L17.5246 10.5735L16.6396 11.3085L14.7991 12.7144L17.1329 17.6517C17.4636 18.3512 18.3518 18.5722 18.9715 18.1091C19.336 17.8367 19.5194 17.3844 19.4475 16.9349Z" fill="#BECAD6"/>
<path d="M19.4475 16.9349L18.3138 9.83832L17.5246 10.5735L16.6396 11.3085L14.7991 12.7144L17.1329 17.6517C17.4636 18.3512 18.3518 18.5722 18.9715 18.1091C19.336 17.8367 19.5194 17.3844 19.4475 16.9349Z" stroke="#3E4957" stroke-width="1.5" stroke-linecap="round"/>
<path opacity="0.3" d="M7.04512 4.52533L14.1376 5.65975L13.4028 6.44937L12.5631 7.50118L11.978 8.28738L11.2814 9.1851L6.32874 6.84125C5.62961 6.51038 5.40873 5.62165 5.87154 5.00167C6.14382 4.63694 6.59585 4.45347 7.04512 4.52533Z" fill="#BECAD6"/>
<path d="M7.04512 4.52502L14.1376 5.65944L13.4028 6.44907L12.5631 7.50087L11.978 8.28707L11.2814 9.1848L6.32874 6.84094C5.62961 6.51008 5.40873 5.62135 5.87155 5.00137C6.14382 4.63664 6.59585 4.45316 7.04512 4.52502Z" stroke="#3E4957" stroke-width="1.5" stroke-linecap="round"/>
<path opacity="0.6" d="M20.9999 3.48423C20.9849 4.22881 20.9119 5.67662 20.5845 6.64831C19.724 9.20254 15.9854 11.7925 15.9854 11.7925L14.7591 12.7424C13.7628 13.5142 12.3485 13.4245 11.4576 12.533C10.5667 11.6416 10.477 10.2265 11.2483 9.22969L12.1977 8.00269C12.1977 8.00269 14.7682 4.23507 17.3247 3.38661C18.3077 3.06038 19.7724 3.00515 20.5224 3.00001C20.7914 2.99817 21.0053 3.21504 20.9999 3.48423Z" fill="#BECAD6"/>
<path d="M7.14208 16.8554L8.79947 20.7259C8.93351 21.0245 9.32584 21.0939 9.55925 20.8603L10.2097 20.2095C10.4363 19.9828 10.5418 19.6618 10.4938 19.3447L10.0914 16.6855C10.064 16.5045 10.1367 16.3229 10.2814 16.2109L15.9854 11.7923C15.9854 11.7923 19.7241 9.20236 20.5846 6.64813C20.8511 5.85698 20.949 4.7502 20.9843 3.96435C21.0085 3.4264 20.5802 2.99196 20.0423 3.00916C19.2489 3.03454 18.1266 3.12033 17.3248 3.38643C14.7683 4.23489 12.1978 8.0025 12.1978 8.0025L7.78159 13.7101C7.66974 13.8547 7.48849 13.9274 7.3078 13.9003L4.65368 13.5011C4.33714 13.4535 4.0168 13.5591 3.79045 13.7856L3.13951 14.4369C2.90609 14.6704 2.97546 15.063 3.27385 15.1971L7.14208 16.8554ZM7.14208 16.8554L7.13706 16.8437M7.14208 16.8554L7.15385 16.8605" stroke="#3E4957" stroke-width="1.5" stroke-linecap="round"/>
</svg>
