<svg width="24" height="24" viewBox="0 0 24 24" fill="none" xmlns="http://www.w3.org/2000/svg">
<path opacity="0.3" d="M14.5898 17.0447H3.49561C2.94332 17.0447 2.49561 16.597 2.49561 16.0447V14.3802C2.49561 13.8279 2.94332 13.3802 3.49561 13.3802H14.5898C15.1421 13.3802 15.5898 13.8279 15.5898 14.3802V16.0447C15.5898 16.597 15.1421 17.0447 14.5898 17.0447Z" fill="#BECAD6"/>
<path d="M14.5758 20.8837H19.1633C19.6636 20.8837 20.0869 20.514 20.1542 20.0183L21.4439 10.5223L20.4726 11.0071C18.4972 11.993 16.251 12.2975 14.0843 11.873L11.8608 11.4374L12.0727 12.5869C12.085 12.6536 12.126 12.7116 12.1848 12.7454L12.8193 13.11C15.458 14.6265 16.199 18.0963 14.4101 20.5585C14.3117 20.6939 14.4085 20.8837 14.5758 20.8837Z" fill="#BECAD6"/>
<path fill-rule="evenodd" clip-rule="evenodd" d="M1.86108 16.2382C1.86108 14.1672 3.54002 12.4882 5.61108 12.4882H12.6111C14.6822 12.4882 16.3611 14.1672 16.3611 16.2382V18.2382C16.3611 20.3093 14.6822 21.9882 12.6111 21.9882H5.61108C3.54002 21.9882 1.86108 20.3093 1.86108 18.2382V16.2382ZM5.61108 13.9882C4.36844 13.9882 3.36108 14.9956 3.36108 16.2382V16.4882H14.8611V16.2382C14.8611 14.9956 13.8537 13.9882 12.6111 13.9882H5.61108ZM14.8611 17.9882H3.36108V18.2382C3.36108 19.4809 4.36844 20.4882 5.61108 20.4882H12.6111C13.8537 20.4882 14.8611 19.4809 14.8611 18.2382V17.9882Z" fill="#3E4957"/>
<path fill-rule="evenodd" clip-rule="evenodd" d="M17.6167 3.50604C17.4786 3.50604 17.3667 3.61797 17.3667 3.75604V6.72009H20.7352C21.7915 6.72009 22.607 7.64873 22.4706 8.69613L20.9377 20.4643C20.8241 21.336 20.0815 21.9882 19.2023 21.9882H11.9572C11.543 21.9882 11.2072 21.6524 11.2072 21.2382C11.2072 20.824 11.543 20.4882 11.9572 20.4882H19.2023C19.3279 20.4882 19.434 20.395 19.4502 20.2705L20.9831 8.50238C21.0026 8.35275 20.8861 8.22009 20.7352 8.22009H12.4942C12.3436 8.22009 12.2272 8.35218 12.2461 8.50153L12.8162 12.9985C12.8683 13.4094 12.5774 13.7848 12.1665 13.8369C11.7556 13.889 11.3802 13.5981 11.3281 13.1872L10.7581 8.69017C10.6255 7.6447 11.4403 6.72009 12.4942 6.72009H15.8667V3.75604C15.8667 2.78954 16.6502 2.00604 17.6167 2.00604H19.1605C19.5747 2.00604 19.9105 2.34183 19.9105 2.75604C19.9105 3.17026 19.5747 3.50604 19.1605 3.50604H17.6167Z" fill="#3E4957"/>
</svg>
