<svg width="24" height="24" viewBox="0 0 24 24" fill="none" xmlns="http://www.w3.org/2000/svg">
<path opacity="0.6" fill-rule="evenodd" clip-rule="evenodd" d="M8.40199 14.2786C7.34565 14.5975 6.21148 14.8768 5 15.1122V19C5 20.6569 6.34315 22 8 22H15.9963C17.6532 22 18.9963 20.6569 18.9963 19V4C18.9963 6.47623 17.8097 8.80564 15.4656 10.7406C15.6413 11.0574 15.7414 11.422 15.7414 11.81C15.7414 12.1248 15.6755 12.4242 15.5568 12.6952C15.927 13.2159 16.0638 13.8396 16.0638 14.4693C16.0163 15.0049 15.8737 15.4809 15.6159 15.9518C15.3441 16.4481 14.9801 16.8724 14.5416 17.2209C13.7205 17.8736 12.6919 18.2499 11.6378 18.2499C10.7894 18.2499 9.92419 18.0101 9.30562 17.4052C8.89144 17.0002 8.61203 16.4724 8.48937 15.9082C8.42124 15.5812 8.40199 15.2351 8.40199 14.9124L8.40199 14.2786Z" fill="#BECAD6"/>
<path d="M9.95339 10.9055L9.95339 10.752C9.95339 10.5558 9.94021 10.3998 9.9164 10.2807C9.89689 10.1832 9.85778 10.1278 9.80936 10.0932L9.803 10.0886L9.79704 10.0836C9.75841 10.0509 9.67612 10.0168 9.51318 10.0168C9.42471 10.0168 9.33093 10.0306 9.23124 10.0599C8.98699 10.1317 8.69724 10.0426 8.58485 9.7712L8.54795 9.6821C8.4273 9.39075 8.53753 9.03003 8.84254 8.88719C8.94028 8.84142 9.04988 8.7974 9.15738 8.77548C9.37637 8.72465 9.61398 8.69995 9.86921 8.69995C10.0952 8.69995 10.3004 8.72904 10.4811 8.7919C10.6638 8.85546 10.8219 8.95594 10.952 9.09347C11.1068 9.24911 11.2177 9.454 11.2918 9.69736C11.3754 9.94967 11.4126 10.2915 11.4126 10.7113V10.9055H13.5343C13.8979 10.9055 14.1927 11.2003 14.1927 11.5639C14.1927 11.9276 13.8979 12.2223 13.5343 12.2223H11.4125L11.4125 14.9124C11.4125 15.158 11.448 15.2843 11.4823 15.3357C11.4936 15.3527 11.5499 15.4035 11.7612 15.4035C11.9125 15.4035 12.0657 15.3745 12.2218 15.3145C12.3801 15.2536 12.522 15.1719 12.6484 15.0695C12.7742 14.9677 12.8742 14.8525 12.9501 14.724C12.9901 14.6564 13.0068 14.6021 13.0235 14.5165C13.0229 14.4792 13.0201 14.4635 13.0174 14.4547C13.0158 14.4494 13.0127 14.4399 12.9935 14.4189C12.9821 14.4063 12.9279 14.3693 12.7581 14.3693C12.7386 14.3693 12.7195 14.3696 12.7007 14.3703C12.446 14.3788 12.1566 14.2169 12.1109 13.9145L12.0894 13.7726C12.0431 13.4658 12.2306 13.1309 12.5826 13.0945C12.733 13.0732 12.8864 13.0627 13.0429 13.0627C13.4584 13.0627 13.8126 13.1612 14.086 13.3778C14.3832 13.6077 14.5151 13.9606 14.5151 14.3924V14.4009L14.5143 14.4093C14.4995 14.5773 14.4781 14.7034 14.436 14.8284C14.3946 14.9511 14.3358 15.0648 14.2577 15.2074C14.0891 15.5153 13.862 15.7822 13.5785 16.0076C13.2978 16.2307 12.988 16.4035 12.6499 16.5258L12.6477 16.5266C12.3164 16.6419 11.9799 16.7 11.6391 16.7C11.3612 16.7 11.1157 16.668 10.9075 16.5986L10.8993 16.5959C10.7065 16.5217 10.54 16.4261 10.4043 16.3064L10.3965 16.2995L10.3894 16.2917C10.3156 16.2106 10.246 16.1225 10.1805 16.0279C10.1001 15.9118 10.0454 15.7633 10.0085 15.5937L10.0082 15.5921C9.97052 15.4114 9.95332 15.1833 9.95332 14.9124L9.95332 12.2223H9.69621C9.33259 12.2223 9.03781 11.9276 9.03781 11.5639C9.03781 11.2003 9.33259 10.9055 9.69621 10.9055H9.95339Z" fill="#3E4957"/>
<path d="M19 17.2V5.49544C19 5.03526 19 4.80517 18.9748 4.61197C18.7988 3.26292 17.7371 2.20117 16.388 2.0252C16.1948 2 15.9647 2 15.5046 2H8.5C8.03558 2 7.80337 2 7.60842 2.02567C6.26222 2.2029 5.2029 3.26222 5.02567 4.60842C5 4.80337 5 5.03558 5 5.5V17.2C5 18.8802 5 19.7202 5.32698 20.362C5.6146 20.9265 6.07354 21.3854 6.63803 21.673C7.27976 22 8.11984 22 9.8 22H14.2C15.8802 22 16.7202 22 17.362 21.673C17.9265 21.3854 18.3854 20.9265 18.673 20.362C19 19.7202 19 18.8802 19 17.2Z" stroke="#3E4957" stroke-width="1.5" stroke-linecap="round"/>
<path d="M10 2V3C10 3.27614 10.2239 3.5 10.5 3.5H13.5C13.7761 3.5 14 3.27614 14 3V2" stroke="#3E4957" stroke-width="1.5" stroke-linecap="round"/>
</svg>
