<svg width="24" height="24" viewBox="0 0 24 24" fill="none" xmlns="http://www.w3.org/2000/svg">
<path opacity="0.6" d="M6.00709 2.60541C5.42419 2.60541 4.95166 3.364 4.95166 4.29977V6.73242C5.12553 6.62538 5.34616 6.62593 5.52008 6.73586L5.76943 6.89348C6.49362 7.35124 7.2767 7.70837 8.09715 7.95504C8.33675 8.02707 8.50079 8.24767 8.50079 8.49787V8.59201C8.50079 9.44665 8.43458 10.319 8.02026 11.0665C7.72963 11.5909 7.28362 12.1841 6.62136 12.6128C6.41336 12.7475 6.05402 12.9795 5.75139 13.1748C5.51051 13.3302 5.21915 13.3725 4.95166 13.2991V19.4971C4.95166 20.4328 5.42419 21.1914 6.00709 21.1914H19.3439C19.9268 21.1914 20.3993 20.4328 20.3993 19.4971V11.1872C17.3902 11.7575 10.5274 10.229 9.22758 2.60541H6.00709Z" fill="#BECAD6"/>
<path opacity="0.3" d="M16.9162 3.90943L19.6579 8.12314C19.8743 8.45575 19.6356 8.89583 19.2388 8.89583H16.4971C16.2209 8.89583 15.9971 8.67197 15.9971 8.39583V4.18212C15.9971 3.68453 16.6448 3.49236 16.9162 3.90943Z" fill="#BECAD6"/>
<path opacity="0.3" d="M8.50079 8.84201V8.74787C8.50079 8.49767 8.33675 8.27707 8.09715 8.20504C7.2767 7.95837 6.49362 7.60124 5.76943 7.14348L5.52008 6.98586C5.33847 6.87107 5.10594 6.87555 4.92889 6.99724L4.68741 7.16322C3.95566 7.66618 3.13882 8.03235 2.27648 8.24398C2.07931 8.29237 1.94067 8.46914 1.94067 8.67215V8.85037C1.94067 9.69929 2.01076 10.5652 2.42416 11.3066C2.69711 11.7962 3.10572 12.3492 3.69855 12.7794C3.92782 12.9458 4.34571 13.2158 4.68571 13.4315C5.01153 13.6382 5.42719 13.634 5.75139 13.4248C6.05402 13.2295 6.41336 12.9975 6.62136 12.8628C7.28362 12.4341 7.72963 11.8409 8.02026 11.3165C8.43457 10.5691 8.50079 9.69665 8.50079 8.84201Z" fill="#BECAD6"/>
<path fill-rule="evenodd" clip-rule="evenodd" d="M11.0354 17.4031C11.0354 16.9889 11.3712 16.6531 11.7854 16.6531H16.7717C17.1859 16.6531 17.5217 16.9889 17.5217 17.4031C17.5217 17.8173 17.1859 18.1531 16.7717 18.1531L11.7854 18.1531C11.3712 18.1531 11.0354 17.8173 11.0354 17.4031Z" fill="#3E4957"/>
<path d="M10.3995 17.4031C10.3995 17.8102 10.0695 18.1402 9.66242 18.1402C9.25532 18.1402 8.9253 17.8102 8.9253 17.4031C8.9253 16.996 9.25532 16.666 9.66242 16.666C10.0695 16.666 10.3995 16.996 10.3995 17.4031Z" fill="#3E4957"/>
<path fill-rule="evenodd" clip-rule="evenodd" d="M11.0354 14.7307C11.0354 14.3164 11.3712 13.9807 11.7854 13.9807L14.4832 13.9807C14.8974 13.9807 15.2332 14.3164 15.2332 14.7307C15.2332 15.1449 14.8974 15.4807 14.4832 15.4807L11.7854 15.4807C11.3712 15.4807 11.0354 15.1449 11.0354 14.7307Z" fill="#3E4957"/>
<path d="M10.3995 14.7307C10.3995 15.1378 10.0695 15.4678 9.66242 15.4678C9.25532 15.4678 8.9253 15.1378 8.9253 14.7307C8.9253 14.3236 9.25532 13.9935 9.66242 13.9935C10.0695 13.9935 10.3995 14.3236 10.3995 14.7307Z" fill="#3E4957"/>
<path fill-rule="evenodd" clip-rule="evenodd" d="M19.6388 19.2484C19.6388 19.9388 19.0792 20.4984 18.3888 20.4984H6.90699C6.21663 20.4984 5.65699 19.9388 5.65699 19.2484L5.65699 15.7814C5.65699 15.3672 5.3212 15.0314 4.90699 15.0314C4.49278 15.0314 4.15699 15.3672 4.15699 15.7814L4.15699 19.2484C4.15699 20.7672 5.3882 21.9984 6.90699 21.9984H18.3888C19.9076 21.9984 21.1388 20.7672 21.1388 19.2484V8.715L16.2859 2.00568L6.22718 2.00568C5.11522 2.00568 4.15699 2.87645 4.15699 4.01916C4.15699 4.43337 4.49278 4.76916 4.90699 4.76916C5.3212 4.76916 5.65699 4.43337 5.65699 4.01916C5.65699 3.76627 5.8809 3.50568 6.22718 3.50568L15.1528 3.50568V6.95781C15.1528 8.47659 16.384 9.70781 17.9028 9.70781H19.6388V19.2484ZM18.9207 8.20781L16.6528 5.07229V6.95781C16.6528 7.64817 17.2124 8.20781 17.9028 8.20781H18.9207Z" fill="#3E4957"/>
<path fill-rule="evenodd" clip-rule="evenodd" d="M4.50405 6.12914C4.92834 5.8375 5.48561 5.82678 5.92081 6.10187L6.17017 6.25949C6.83686 6.68091 7.55778 7.00968 8.31309 7.23677C8.86971 7.40411 9.25079 7.9166 9.25079 8.49784V8.59199C9.25079 9.46326 9.18975 10.5036 8.67623 11.4301C8.34723 12.0237 7.82611 12.7263 7.02898 13.2424C6.82042 13.3774 6.4606 13.6097 6.15805 13.8049C5.59148 14.1705 4.86024 14.1803 4.28397 13.8148C3.94751 13.6013 3.50952 13.3189 3.25803 13.1364C2.55195 12.624 2.07769 11.9753 1.76909 11.4218C1.25632 10.5021 1.19067 9.46927 1.19067 8.60034V8.42213C1.19067 7.87375 1.56515 7.39626 2.09772 7.26556C2.87205 7.07554 3.60552 6.74674 4.26257 6.29512L4.50405 6.12914ZM5.23802 7.44482L5.11224 7.53127C4.37274 8.03956 3.55438 8.42108 2.69081 8.66076C2.69445 9.46326 2.77286 10.1419 3.07922 10.6914C3.31653 11.117 3.65948 11.5744 4.13906 11.9224C4.34612 12.0727 4.74391 12.3302 5.08745 12.5481C5.16282 12.5959 5.26289 12.5974 5.34474 12.5446C5.64743 12.3492 6.0063 12.1176 6.21375 11.9832C6.74113 11.6418 7.11202 11.158 7.36428 10.7029C7.67423 10.1437 7.74838 9.45304 7.75073 8.63306C6.91256 8.36878 6.1119 7.9972 5.3687 7.52742L5.23802 7.44482Z" fill="#3E4957"/>
</svg>
