<svg width="24" height="24" viewBox="0 0 24 24" fill="none" xmlns="http://www.w3.org/2000/svg">
<path opacity="0.6" d="M4.34167 19.5689V4.37427C9.43077 12.6887 14.6959 12.7604 19.6584 12.2752V19.5689C19.6584 20.5045 19.1899 21.263 18.612 21.263H5.38816C4.8102 21.263 4.34167 20.5045 4.34167 19.5689Z" fill="#BECAD6"/>
<path fill-rule="evenodd" clip-rule="evenodd" d="M6.05615 22.0013C4.53737 22.0013 3.30615 20.77 3.30615 19.2513L3.30615 4.74908C3.30615 3.2303 4.53737 1.99909 6.05615 1.99908L17.5459 1.99908C19.0647 1.99908 20.2959 3.2303 20.2959 4.74908V19.2513C20.2959 20.77 19.0647 22.0013 17.5459 22.0013H6.05615ZM4.80615 19.2513C4.80615 19.9416 5.3658 20.5013 6.05615 20.5013H17.5459C18.2362 20.5013 18.7959 19.9416 18.7959 19.2513V4.74908C18.7959 4.05873 18.2362 3.49908 17.5459 3.49908L6.05615 3.49908C5.3658 3.49908 4.80615 4.05873 4.80615 4.74908V19.2513Z" fill="#3E4957"/>
<path d="M14.763 7.39266V8.45918H11.5829V10.6698C11.5829 10.8508 11.6087 10.9865 11.6604 11.077C11.7121 11.161 11.8285 11.203 12.0095 11.203C12.1581 11.203 12.3036 11.1804 12.4458 11.1352C12.588 11.0835 12.7173 11.0188 12.8336 10.9413C12.9499 10.8572 13.0437 10.7603 13.1148 10.6504C13.1859 10.5405 13.2214 10.4274 13.2214 10.311C13.2214 10.2529 13.1956 10.1979 13.1439 10.1462C13.0921 10.0945 12.992 10.0687 12.8433 10.0687C12.7269 10.0687 12.6235 10.0784 12.533 10.0977L12.3779 9.10879C12.4943 9.07647 12.6235 9.05385 12.7657 9.04092C12.9144 9.02799 13.0663 9.02153 13.2214 9.02153C13.6028 9.02153 13.9098 9.10879 14.1425 9.28331C14.3752 9.45783 14.4916 9.72931 14.4916 10.0977C14.4916 10.4468 14.4108 10.757 14.2492 11.0285C14.0876 11.3 13.8743 11.5262 13.6093 11.7072C13.3442 11.8882 13.0534 12.0272 12.7366 12.1241C12.4264 12.2146 12.1226 12.2599 11.8253 12.2599C11.5538 12.2599 11.3243 12.2275 11.1369 12.1629C10.9559 12.0983 10.8104 12.0142 10.7006 11.9108C10.6295 11.8397 10.5616 11.7589 10.497 11.6684C10.4388 11.5779 10.3903 11.4519 10.3515 11.2903C10.3192 11.1287 10.303 10.9122 10.303 10.6407V8.45918H9.48861V7.39266H14.763ZM10.2061 4.99785C10.4194 4.99785 10.6068 5.0237 10.7684 5.07541C10.93 5.12712 11.0658 5.20792 11.1756 5.3178C11.3049 5.44061 11.4051 5.6119 11.4762 5.83167C11.5473 6.05144 11.5829 6.3617 11.5829 6.76245V7.43145H10.303V6.81093C10.303 6.64933 10.2901 6.51359 10.2643 6.40371C10.2384 6.29383 10.1867 6.21303 10.1091 6.16132C10.0316 6.10315 9.91522 6.07406 9.76009 6.07406C9.67606 6.07406 9.58557 6.08376 9.48861 6.10315C9.39812 6.12254 9.30439 6.15162 9.20744 6.19041L8.839 5.25963C9.09109 5.16913 9.31732 5.1045 9.5177 5.06571C9.71807 5.02047 9.94754 4.99785 10.2061 4.99785Z" fill="#3E4957"/>
<path fill-rule="evenodd" clip-rule="evenodd" d="M10.1869 17.4951C10.1869 17.0809 10.5226 16.7451 10.9369 16.7451H15.9232C16.3374 16.7451 16.6732 17.0809 16.6732 17.4951C16.6732 17.9093 16.3374 18.2451 15.9232 18.2451H10.9369C10.5226 18.2451 10.1869 17.9093 10.1869 17.4951Z" fill="#3E4957"/>
<path d="M9.55099 17.4951C9.55099 17.9022 9.22097 18.2322 8.81387 18.2322C8.40677 18.2322 8.07675 17.9022 8.07675 17.4951C8.07675 17.088 8.40677 16.758 8.81387 16.758C9.22097 16.758 9.55099 17.088 9.55099 17.4951Z" fill="#3E4957"/>
<path fill-rule="evenodd" clip-rule="evenodd" d="M10.1869 14.8227C10.1869 14.4085 10.5226 14.0727 10.9369 14.0727L13.6346 14.0727C14.0488 14.0727 14.3846 14.4085 14.3846 14.8227C14.3846 15.2369 14.0488 15.5727 13.6346 15.5727L10.9369 15.5727C10.5226 15.5727 10.1869 15.2369 10.1869 14.8227Z" fill="#3E4957"/>
<path d="M9.55099 14.8227C9.55099 15.2298 9.22097 15.5598 8.81387 15.5598C8.40677 15.5598 8.07675 15.2298 8.07675 14.8227C8.07675 14.4156 8.40677 14.0856 8.81387 14.0856C9.22097 14.0856 9.55099 14.4156 9.55099 14.8227Z" fill="#3E4957"/>
</svg>
