<svg width="24" height="24" viewBox="0 0 24 24" fill="none" xmlns="http://www.w3.org/2000/svg">
<path opacity="0.3" d="M12.1888 13.7126L17.3694 11.5994V16.4246C17.3694 16.663 17.2824 16.8979 17.1224 17.0746C12.8745 21.7633 8.81613 19.1935 6.87224 17.0683C6.71241 16.8935 6.63062 16.664 6.63062 16.4272V11.5994L11.8112 13.7126C11.9322 13.762 12.0678 13.762 12.1888 13.7126Z" fill="#BECAD6"/>
<path opacity="0.6" d="M22.0393 8.55591L12.2062 4.10352C12.0752 4.04416 11.9248 4.04416 11.7938 4.10352L1.96069 8.55591C1.57652 8.72987 1.567 9.27203 1.94483 9.45936L3.48809 10.2245L6.62847 11.7815L11.8112 13.8947C11.9322 13.9441 12.0678 13.9441 12.1888 13.8947L17.3715 11.7815L22.0552 9.45936C22.433 9.27203 22.4235 8.72987 22.0393 8.55591Z" fill="#BECAD6"/>
<path d="M3.49976 16.4842H3.50976" stroke="#3E4957" stroke-width="1.8" stroke-linecap="round"/>
<path d="M17.3715 11.7714L22.0552 9.44923C22.433 9.2619 22.4235 8.71973 22.0393 8.54578L12.2062 4.09339C12.0752 4.03403 11.9248 4.03403 11.7938 4.09339L1.96069 8.54578C1.57652 8.71973 1.567 9.2619 1.94483 9.44923L3.48809 10.2144M17.3715 11.7714L12.1888 13.8846C12.0678 13.9339 11.9322 13.9339 11.8112 13.8846L6.62847 11.7714M17.3715 11.7714V16.6406C17.3715 16.8481 17.2856 17.0464 17.1341 17.1884V17.1884C14.2464 19.8948 9.75364 19.8948 6.86586 17.1884V17.1884C6.71441 17.0464 6.62847 16.8481 6.62847 16.6406V11.7714M6.62847 11.7714L3.48809 10.2144M3.48809 10.2144V14.0017" stroke="#3E4957" stroke-width="1.5" stroke-linecap="round"/>
</svg>
