<svg width="24" height="24" viewBox="0 0 24 24" fill="none" xmlns="http://www.w3.org/2000/svg">
<path opacity="0.6" d="M4.37791 4.29412C4.37791 3.35788 4.84675 2.59891 5.4251 2.59891H8.26395C8.88276 3.93723 9.58226 5.05146 10.336 5.97664L9.92365 7.96652L10.7472 9.41154L12.4563 9.69123L13.6705 8.80465C15.6996 9.93046 17.8302 10.2571 19.7051 10.2571V19.4991C19.7051 20.4353 19.2362 21.1943 18.6579 21.1943H5.4251C4.84675 21.1943 4.37791 20.4353 4.37791 19.4991V4.29412Z" fill="#F27D00"/>
<path fill-rule="evenodd" clip-rule="evenodd" d="M7.90161 15.1768C7.90161 14.7626 8.2374 14.4268 8.65161 14.4268H15.0457C15.4599 14.4268 15.7957 14.7626 15.7957 15.1768C15.7957 15.591 15.4599 15.9268 15.0457 15.9268H8.65161C8.2374 15.9268 7.90161 15.591 7.90161 15.1768ZM7.90161 18.0591C7.90161 17.6449 8.2374 17.3091 8.65161 17.3091H15.0457C15.4599 17.3091 15.7957 17.6449 15.7957 18.0591C15.7957 18.4733 15.4599 18.8091 15.0457 18.8091H8.65161C8.2374 18.8091 7.90161 18.4733 7.90161 18.0591Z" fill="#1A2B3D"/>
<path fill-rule="evenodd" clip-rule="evenodd" d="M6.29663 22.0013C4.77785 22.0013 3.54663 20.7701 3.54663 19.2513L3.54663 4.7491C3.54663 3.23032 4.77785 1.99911 6.29663 1.99911L17.7864 1.9991C19.3051 1.9991 20.5364 3.23032 20.5364 4.7491L20.5364 19.2513C20.5364 20.7701 19.3051 22.0013 17.7864 22.0013L6.29663 22.0013ZM5.04663 19.2513C5.04663 19.9416 5.60628 20.5013 6.29663 20.5013L17.7864 20.5013C18.4767 20.5013 19.0364 19.9416 19.0364 19.2513L19.0364 4.7491C19.0364 4.05875 18.4767 3.4991 17.7864 3.4991L6.29663 3.49911C5.60627 3.49911 5.04663 4.05875 5.04663 4.7491L5.04663 19.2513Z" fill="#1A2B3D"/>
<path fill-rule="evenodd" clip-rule="evenodd" d="M11.9878 11.3361C11.2812 11.3361 10.613 11.5731 10.1373 11.996C9.96106 12.1523 9.80536 12.339 9.67981 12.5577C9.47353 12.9169 9.01513 13.0408 8.65593 12.8346C8.29673 12.6283 8.17276 12.1699 8.37904 11.8107C8.58838 11.4461 8.84818 11.1344 9.14125 10.8744C9.92499 10.1777 10.9612 9.83606 11.9878 9.83606C13.0158 9.83606 14.0522 10.1793 14.8354 10.8746C15.128 11.1346 15.388 11.4463 15.5972 11.8107C15.8035 12.1698 15.6795 12.6283 15.3204 12.8346C14.9612 13.0408 14.5028 12.9169 14.2965 12.5577C14.1711 12.3395 14.0161 12.1532 13.8397 11.9964C13.3635 11.5738 12.6949 11.3361 11.9878 11.3361Z" fill="#1A2B3D"/>
<path opacity="0.3" d="M12.0511 9.50322C13.2226 9.50322 14.1723 8.55385 14.1723 7.38275C14.1723 6.21164 13.2226 5.26227 12.0511 5.26227C10.8796 5.26227 9.92993 6.21164 9.92993 7.38275C9.92993 8.55385 10.8796 9.50322 12.0511 9.50322Z" fill="#F27D00"/>
<path fill-rule="evenodd" clip-rule="evenodd" d="M11.9884 6.10568C11.2309 6.10568 10.6172 6.7195 10.6172 7.47616C10.6172 8.23282 11.2309 8.84664 11.9884 8.84664C12.7459 8.84664 13.3595 8.23282 13.3595 7.47616C13.3595 6.7195 12.7459 6.10568 11.9884 6.10568ZM9.11719 7.47616C9.11719 5.89061 10.4029 4.60568 11.9884 4.60568C13.5738 4.60568 14.8595 5.89061 14.8595 7.47616C14.8595 9.06171 13.5738 10.3466 11.9884 10.3466C10.4029 10.3466 9.11719 9.06171 9.11719 7.47616Z" fill="#1A2B3D"/>
</svg>
