<svg width="24" height="24" viewBox="0 0 24 24" fill="none" xmlns="http://www.w3.org/2000/svg">
<path opacity="0.6" d="M5.00171 17.1122C14.2549 15.3146 18.9981 10.9507 18.9981 6V20C18.9981 21.1046 18.1026 22 16.9981 22H7.00171C5.89714 22 5.00171 21.1046 5.00171 20V17.1122Z" fill="#BECAD6"/>
<path d="M5 20.0001V7.00342C5 5.89885 5.89543 5.00342 7 5.00342H17C18.1046 5.00342 19 5.89885 19 7.00342V20.0001C19 21.1046 18.1046 22.0001 17 22.0001H7C5.89543 22.0001 5 21.1046 5 20.0001Z" stroke="#3E4957" stroke-width="1.5" stroke-linecap="round"/>
<path d="M5 7V4C5 2.89543 5.89543 2 7 2H15.1162C15.6792 2 16.216 2.23722 16.595 2.65343L18.4788 4.72212C18.8141 5.09041 19 5.57058 19 6.06869V7" stroke="#3E4957" stroke-width="1.5" stroke-linecap="round"/>
<ellipse opacity="0.3" cx="12" cy="11.4983" rx="2" ry="2" fill="#BECAD6"/>
<path d="M14 11.4983C14 12.6029 13.1046 13.4983 12 13.4983C10.8954 13.4983 10 12.6029 10 11.4983C10 10.3937 10.8954 9.49829 12 9.49829C13.1046 9.49829 14 10.3937 14 11.4983Z" stroke="#3E4957" stroke-width="1.5"/>
<path d="M9.5 17.4983H14.5" stroke="#3E4957" stroke-width="1.5" stroke-linecap="round"/>
</svg>
