<svg width="24" height="24" viewBox="0 0 24 24" fill="none" xmlns="http://www.w3.org/2000/svg">
<path opacity="0.3" d="M15.0333 2.62868C13.8752 1.45711 11.9975 1.45711 10.8394 2.62868L8 5.50106H15.3586C14.8261 4.97065 15.4525 4.31912 15.9416 3.82982C16.0193 3.75214 16.0194 3.62576 15.9422 3.54766L15.0333 2.62868Z" fill="#BECAD6"/>
<path d="M15.0333 2.62868C13.8752 1.45711 11.9975 1.45711 10.8394 2.62868L8 5.50106H15.3586C14.8261 4.97065 15.4525 4.31912 15.9416 3.82982C16.0193 3.75214 16.0194 3.62576 15.9422 3.54766L15.0333 2.62868Z" stroke="#3E4957" stroke-width="1.5"/>
<path opacity="0.6" d="M12.5203 19.501H16.4899C18.4132 19.501 19.6358 19.2379 20.1119 18.7553C20.5288 18.3327 20.7797 16.9215 20.8356 15.4323C19.4676 15.0803 18.4027 14.1129 18.4027 12.6147C18.4027 11.1052 19.6274 10.2249 21 9.87883V9.58696C21 7.63738 20.7404 6.72936 20.2643 6.24675C19.7882 5.76414 18.403 5.50104 16.4796 5.50104H12.5203C22.0452 11.2333 1.07211 14.3444 12.5203 19.501Z" fill="#BECAD6"/>
<path d="M16.2 5.5H7.8C6.11984 5.5 5.27976 5.5 4.63803 5.82698C4.07354 6.1146 3.6146 6.57354 3.32698 7.13803C3.04593 7.68961 3.00645 8.38772 3.00091 9.63986C2.99969 9.91386 3.22434 10.1309 3.49302 10.1846C4.63762 10.4135 5.5 11.424 5.5 12.636C5.5 13.8466 4.63949 14.8563 3.49675 15.0866C3.22609 15.1412 3.00004 15.3598 3.00285 15.6359C3.01384 16.7174 3.06727 17.3523 3.32698 17.862C3.6146 18.4265 4.07354 18.8854 4.63803 19.173C5.27976 19.5 6.11984 19.5 7.8 19.5H16.2C17.8802 19.5 18.7202 19.5 19.362 19.173C19.9265 18.8854 20.3854 18.4265 20.673 17.862C20.9327 17.3523 20.9862 16.7174 20.9972 15.6359C21 15.3598 20.7739 15.1412 20.5033 15.0866C19.3605 14.8563 18.5 13.8466 18.5 12.636C18.5 11.4254 19.3605 10.4157 20.5032 10.1853C20.7739 10.1308 21.0003 9.91213 20.9991 9.63599C20.9935 8.38629 20.9538 7.68904 20.673 7.13803C20.3854 6.57354 19.9265 6.1146 19.362 5.82698C18.7202 5.5 17.8802 5.5 16.2 5.5Z" stroke="#3E4957" stroke-width="1.5"/>
<path d="M14.7495 9.75104L9.24952 15.251" stroke="#3E4957" stroke-width="1.5" stroke-linecap="round"/>
<path d="M14.74 15.251H14.75" stroke="#3E4957" stroke-width="2.5" stroke-linecap="round"/>
<path d="M9.24976 9.75104H9.25976" stroke="#3E4957" stroke-width="2.5" stroke-linecap="round"/>
</svg>
