<svg width="24" height="24" viewBox="0 0 24 24" fill="none" xmlns="http://www.w3.org/2000/svg">
<path d="M8.70807 11.9805L10.1138 18.3895L19.3132 13.6661L8.70807 11.9805Z" fill="#D12053"/>
<path d="M11.3237 2.40283L8.70917 11.9812L19.3154 13.6658L11.3237 2.40283Z" fill="#E2136E"/>
<path d="M0.0855103 1.00049L11.0564 2.32948L8.46246 11.8508L0.0855103 1.00049Z" fill="#D12053"/>
<path d="M0 2.87256H1.22175L4.64893 7.31716L0 2.87256Z" fill="#9E1638"/>
<path d="M19.6054 13.6047L16.4174 9.13045L21.5749 8.19434L19.6054 13.6047Z" fill="#D12053"/>
<path d="M19.073 14.9158L19.4019 13.9204L11.3518 18.0621L19.073 14.9158Z" fill="#E2136E"/>
<path d="M8.483 12.2329L10.1625 19.8897L5.1781 24.0007L8.483 12.2329Z" fill="#9E1638"/>
<path d="M21.0728 10.4681L24 10.4177L21.8844 8.23486L21.0728 10.4681Z" fill="#E2136E"/>
</svg>
