<svg width="24" height="24" viewBox="0 0 24 24" fill="none" xmlns="http://www.w3.org/2000/svg">
<path d="M21.7846 13.2969C21.7846 13.6157 21.7846 13.889 21.7385 14.1623C21.6462 15.4375 21.3231 16.6217 20.8154 17.7147C20.6308 18.1702 20.4 18.5801 20.1231 18.99C18.1846 21.9959 14.7692 23.9999 10.8923 23.9999C9.23077 23.9999 7.66154 23.6355 6.27692 22.9979C2.58462 21.3128 0 17.5781 0 13.2969C0 9.06127 2.49231 5.4177 6.04616 3.68701C5.76923 4.05137 5.49231 4.41572 5.26154 4.82563C5.26154 4.87117 5.21539 4.87117 5.21539 4.91671C5.07692 5.05335 4.93846 5.14444 4.8 5.28107C4.61539 5.4177 4.47692 5.59988 4.29231 5.73652L4.2 5.82761L4.10769 5.91869C4.06154 5.96424 4.01539 6.05533 3.92308 6.10087C3.83077 6.23751 3.69231 6.37414 3.6 6.51077C3.13846 7.10285 2.76923 7.74048 2.49231 8.42365C2.44615 8.46919 2.44615 8.56028 2.4 8.60582C2.35385 8.69691 2.35385 8.788 2.30769 8.83355C2.30769 8.87909 2.26154 8.92464 2.26154 8.97018C2.21538 9.10681 2.16923 9.1979 2.12308 9.33454C2.07692 9.42563 2.07692 9.51672 2.03077 9.56226C2.03077 9.6078 1.98462 9.65335 1.98462 9.69889C1.98462 9.78998 1.93846 9.88107 1.93846 9.97216L1.8 10.792C1.8 10.8831 1.8 10.9286 1.75385 11.0197V12.1128C1.75385 15.0276 3.09231 17.6692 5.26154 19.3543C6.92308 20.6751 9 21.4949 11.2615 21.4949C13.3385 21.4949 15.2308 20.8573 16.8 19.7187C17.9538 18.8989 18.8769 17.8514 19.5692 16.6217C19.6615 16.4395 19.7539 16.3029 19.8462 16.1207C20.4 14.9821 20.7231 13.7524 20.7231 12.4316V12.1128C20.7231 11.7939 20.7231 11.5207 20.6769 11.2019L20.7231 11.2474C20.8615 11.384 21 11.4751 21.1385 11.6118C21.2769 11.384 21.4154 11.2019 21.5539 10.9741C21.6462 11.384 21.6923 11.7939 21.7385 12.2494C21.7846 12.6593 21.7846 12.9781 21.7846 13.2969Z" fill="#ED1C24"/>
<path d="M12.1846 4.68911L10.1539 1C6.78462 2.50297 4.47693 5.82772 4.47693 9.69901C4.47693 11.6574 5.07693 13.4792 6.09231 14.9822C6.00001 14.4812 6.00001 13.9802 6.00001 13.4337C6.04616 9.47129 8.58462 6.10099 12.1846 4.68911Z" fill="#F7941D"/>
<path d="M13.8 6.51093C14.6308 6.2832 15.5538 6.19211 16.4308 6.19211C16.9846 6.19211 17.5846 6.23766 18.0923 6.32875L18.0461 4.68914L17.9538 1.40994C17.5846 1.36439 17.1692 1.31885 16.7538 1.31885C14.9077 1.31885 13.2 1.91093 11.8154 2.86736L12.9231 4.87132C10.9385 5.55449 9.32307 6.92083 8.30768 8.69707C7.79999 9.56241 7.43076 10.5644 7.2923 11.6119C7.56922 11.0654 7.8923 10.5644 8.26153 10.1089C9.59999 8.37825 11.5385 7.05746 13.8 6.51093Z" fill="#ED1C24"/>
<path d="M18.6462 4.64355L18.7385 6.96633C17.9539 6.7386 17.1692 6.60197 16.2923 6.60197C14.6769 6.60197 13.1539 7.05742 11.8154 7.83167C10.1539 8.83365 8.86155 10.4277 8.21539 12.295C8.86155 11.4297 9.64616 10.6554 10.5692 10.0634C11.9077 9.19801 13.5231 8.69702 15.2308 8.69702C16.5231 8.69702 17.7231 8.97029 18.8308 9.47128C19.6615 9.83563 20.4 10.3366 21.0462 10.9742L22.3385 9.06138L24 6.55643C22.5231 5.37227 20.6769 4.64355 18.6462 4.64355Z" fill="#F7941D"/>
<path d="M20.7231 12.2039V12.5227C20.7231 14.4355 19.9385 16.0296 19.8462 16.2118C19.7538 16.394 19.6615 16.5306 19.5692 16.7128C18.8769 17.9425 17.9538 18.99 16.8 19.8098C15.2308 20.9029 13.3385 21.586 11.2615 21.586C9 21.586 6.87692 20.8118 5.26154 19.4454C3.13846 17.7147 1.75385 15.1187 1.75385 12.2039V11.1108C1.75385 11.0197 1.75384 10.9741 1.8 10.8831L1.93846 10.0633C1.93846 9.97217 1.98461 9.88108 1.98461 9.78999C1.98461 9.74445 2.03077 9.6989 2.03077 9.65336C2.07692 9.56227 2.07692 9.47118 2.12308 9.42563C2.16923 9.289 2.21538 9.15237 2.26154 9.06128C2.26154 9.01573 2.30769 8.97019 2.30769 8.92464C2.35385 8.83356 2.35385 8.74247 2.4 8.69692C2.44615 8.65138 2.44615 8.56029 2.49231 8.51474C2.76923 7.83158 3.18461 7.19395 3.6 6.60187C3.69231 6.46524 3.83077 6.3286 3.92308 6.19197C3.96923 6.14643 4.01538 6.05534 4.10769 6.00979C4.15385 5.96425 4.15385 5.9187 4.2 5.9187C4.24615 5.87316 4.24615 5.82761 4.29231 5.82761C4.43077 5.64544 4.61538 5.5088 4.8 5.37217C4.93846 5.23554 5.07692 5.14445 5.21538 5.00781C5.21538 5.05336 5.16923 5.05336 5.16923 5.0989C5.16923 5.14445 5.12308 5.18999 5.12308 5.18999C4.56923 6.28306 4.2 7.60385 4.06154 8.97019C4.01538 9.33455 4.01538 9.6989 4.01538 10.1088C4.01538 15.0276 6.92308 18.99 10.5231 18.99H10.8923C11.4 18.99 11.9077 18.8989 12.4154 18.8078C14.8615 18.1702 16.6615 15.9385 16.6615 13.3425V13.2058C16.6154 11.6573 15.9692 10.2454 14.9077 9.289C15.6462 9.289 16.3846 9.42563 17.0769 9.60781C18.4154 9.92662 19.6154 10.5642 20.6769 11.3841L20.7231 11.4296C20.6769 11.6118 20.7231 11.9306 20.7231 12.2039Z" fill="#F7941D"/>
<path d="M20.7231 12.2039V12.5227C20.7231 14.5267 19.8 16.2574 19.8 16.2574C19.7077 16.4395 19.6154 16.5762 19.5231 16.7584C18.8308 17.9881 17.8615 19.0356 16.7077 19.8554C15.0923 21.0395 13.1538 21.6316 11.1231 21.6316C8.90768 21.6316 6.7846 20.8574 5.07691 19.491C2.86152 17.7148 1.56921 15.0277 1.56921 12.2039C1.56921 9.38014 2.86152 6.69301 5.07691 4.91677L5.16921 4.82568C5.16921 4.87123 5.12306 4.87123 5.12306 4.91677C5.12306 4.96232 5.07691 4.96232 5.07691 5.00786C2.90768 6.7841 1.66152 9.38014 1.66152 12.2039C1.66152 15.0277 2.90768 17.6237 5.12306 19.4455C6.7846 20.8118 8.95383 21.5405 11.1231 21.5405C13.1077 21.5405 15.0461 20.9485 16.6615 19.7643C17.8154 18.9445 18.7384 17.897 19.4308 16.6673C19.5231 16.4851 19.6154 16.3485 19.6615 16.1663C19.6615 16.1663 20.5846 14.4811 20.5846 12.4772V12.1584C20.5846 11.8395 20.5846 11.5663 20.5384 11.2475V11.2019L20.5846 11.2475L20.6308 11.293C20.7231 11.6574 20.7231 11.9306 20.7231 12.2039Z" fill="#F7941D"/>
</svg>
