<svg width="24" height="24" viewBox="0 0 24 24" fill="none" xmlns="http://www.w3.org/2000/svg">
<g clip-path="url(#clip0_1_2322)">
<path d="M13.6522 4.28736C14.0488 4.06077 14.5586 4.2496 14.7852 4.60837C15.1629 5.21262 15.5028 5.83575 15.8615 6.45888C16.2958 6.04346 16.8812 5.76022 17.5043 5.79799C17.9764 5.7791 18.4107 6.23229 18.3918 6.70436C18.3918 7.6485 18.4107 8.59264 18.3918 9.53677C18.8072 9.32906 19.2793 9.2913 19.7325 9.4046C20.1857 9.59342 20.4878 10.0277 20.62 10.4809C21.0354 10.1221 21.4131 9.70672 21.8851 9.4046C22.5083 9.23465 23.2636 9.4046 23.6412 9.97108C24.0378 10.5376 23.9056 11.3873 23.4146 11.8594C22.9803 12.3125 22.5083 12.7468 22.074 13.2C22.5649 13.6721 23.037 14.1631 23.5091 14.654C24.0567 15.2205 23.9622 16.2402 23.3391 16.7122C22.867 17.1088 22.1306 17.1277 21.6019 16.8255C21.2431 16.5612 20.9599 16.2213 20.62 15.9192C20.4878 16.4101 20.129 16.8822 19.6192 17.0144C18.9772 17.0521 18.3541 17.0332 17.712 17.0332C17.712 16.58 17.712 16.1269 17.712 15.6926C17.1644 16.3346 16.4091 16.8444 15.5972 17.071C14.8796 17.1088 14.1621 17.0899 13.4445 17.0899C12.8969 17.0899 12.4815 16.6745 12.1416 16.2968C11.2541 18.034 9.5358 19.3369 7.60976 19.6579C6.00472 19.9601 4.28639 19.6013 2.94571 18.6572C1.5295 17.7319 0.547598 16.2213 0.264357 14.5785C-0.0377676 12.9734 0.339888 11.2551 1.24626 9.91443C2.24705 8.42269 3.90873 7.40302 5.68371 7.19531C8.15736 6.83654 10.7443 8.13945 11.9717 10.311C12.1416 10.141 12.3116 9.98996 12.4815 9.82002C11.9339 9.31018 11.3863 8.78146 10.8954 8.1961C10.5932 7.61073 10.5366 6.8743 10.8954 6.28894C11.0842 6.0057 11.2919 5.64692 11.6696 5.59028C11.9906 5.49586 12.2927 5.60916 12.5759 5.74134C12.6892 5.09932 13.1046 4.57061 13.6522 4.28736ZM13.2179 6.23229C13.5389 7.11978 14.1432 7.85621 14.5209 8.70593C13.7844 7.93174 13.0291 7.19531 12.2927 6.42112C12.1605 6.28894 11.9906 6.08123 11.7829 6.21341C11.2541 6.60995 11.122 7.45967 11.5751 7.9695C12.1983 8.64928 12.8781 9.2913 13.5201 9.9522C12.8403 10.141 12.4437 10.7642 11.9528 11.1985C11.6884 11.5006 11.2541 11.7461 11.2919 12.1992C11.2919 13.0679 11.2919 13.9176 11.2919 14.7862C11.8773 14.6729 12.557 14.4652 12.8403 13.8798C12.9536 13.4455 12.8781 12.9923 12.8969 12.5391C13.3124 12.1237 13.7467 11.6139 14.3887 11.6139C15.2384 11.5195 16.0126 12.2181 16.1259 13.0301C16.2392 13.7665 15.6916 14.4841 15.0307 14.7484C14.5397 14.8051 13.9733 14.8806 13.5389 14.6162C12.9347 14.2952 12.2549 14.6162 11.7262 14.9561C12.0661 15.296 12.4249 15.6548 12.7648 15.9947C12.9725 16.1835 13.1613 16.429 13.4634 16.429C14.0677 16.4479 14.653 16.429 15.2573 16.4479C15.7294 16.4856 16.1259 16.2213 16.5035 15.9758C17.3155 15.466 17.7687 14.5596 17.9386 13.6343C18.033 13.1056 17.8253 12.5958 17.7498 12.0859C17.712 10.2354 17.7687 8.36604 17.7309 6.51553C17.24 6.42112 16.6735 6.57218 16.3714 7.00648C16.0881 7.40302 16.1259 7.95062 16.3336 8.36604C16.3902 8.49822 16.4469 8.61152 16.4847 8.7437C16.3902 8.68705 16.2203 8.55487 16.1259 8.49822L16.3147 8.46046C15.5783 7.27084 14.9363 6.02458 14.2187 4.81608C13.5578 4.94826 13.0858 5.59028 13.2179 6.23229ZM5.28717 7.91286C3.60661 8.25275 2.09599 9.42348 1.37844 10.9907C0.811957 12.0859 0.717543 13.3322 0.906371 14.5218C1.18961 15.8814 1.94492 17.1277 3.04012 17.9585C4.4941 19.0726 6.51456 19.4313 8.25177 18.846C9.74351 18.3739 11.0087 17.2221 11.6507 15.8059C11.4996 15.6737 11.3674 15.5415 11.2164 15.4093C11.0275 15.4471 10.8387 15.4848 10.6499 15.5037C10.6499 14.3708 10.6121 13.2189 10.6499 12.0859C10.6499 11.5195 11.122 11.1418 11.4807 10.783C10.9898 9.93331 10.31 9.178 9.47915 8.64928C8.25177 7.85621 6.70338 7.61073 5.28717 7.91286ZM18.3918 10.4431C18.4107 11.1796 18.3352 11.9349 18.4862 12.6713C18.5806 13.2378 18.5051 13.8232 18.3918 14.3708C18.3541 15.0505 18.3918 15.7492 18.3729 16.429C18.9017 16.429 19.657 16.5612 19.9591 15.9569C20.0346 15.4093 19.978 14.8617 19.9969 14.2952C20.62 14.9184 21.2431 15.5415 21.8663 16.1646C22.0551 16.3912 22.3761 16.4101 22.6404 16.3535C23.188 16.2968 23.4146 15.4848 23.037 15.1072C22.4327 14.4274 21.7718 13.8232 21.1487 13.1623C21.7718 12.5391 22.395 11.9349 22.9992 11.3118C23.2636 11.0663 23.2825 10.6697 23.1125 10.3676C22.867 9.9522 22.225 9.8389 21.8851 10.1788C21.2431 10.783 20.62 11.4062 19.9969 12.0293C19.978 11.5195 20.0346 11.0096 19.9591 10.5187C19.8458 10.1977 19.5248 9.93331 19.1849 9.97108C18.845 9.98996 18.5995 10.2354 18.3918 10.4431ZM13.5956 12.7657C13.5956 13.1434 13.5767 13.5022 13.4823 13.8609C13.69 13.9176 13.8788 14.012 14.0299 14.1442C14.3698 14.1442 14.7474 14.2197 15.0307 13.9931C15.7482 13.5777 15.4839 12.237 14.6341 12.2181C14.1998 12.1615 13.8977 12.5203 13.5956 12.7657Z" fill="#212124"/>
<path d="M4.41855 11.3117C4.87174 11.1417 5.43822 11.5572 5.34381 12.0481C5.28716 12.5579 4.5885 12.8601 4.21084 12.4824C3.79542 12.1614 3.94649 11.4627 4.41855 11.3117Z" fill="#212124"/>
<path d="M8.0063 11.3308C8.4406 11.142 9.02597 11.4819 8.96932 11.9728C9.02597 12.5015 8.27065 12.8792 7.87412 12.5015C7.4587 12.1994 7.55311 11.5196 8.0063 11.3308Z" fill="#212124"/>
<path d="M9.74349 13.4453C9.98897 13.4453 10.2344 13.4453 10.4799 13.4453C10.4799 14.8804 9.6302 16.2588 8.36505 16.9197C7.06214 17.6184 5.40046 17.5051 4.19196 16.6743C3.15341 15.9567 2.47363 14.7293 2.49251 13.4453C2.77575 13.4453 3.04011 13.4453 3.32335 13.4453C3.34223 14.6349 4.09755 15.7868 5.19275 16.2588C6.38236 16.8253 7.91187 16.5421 8.83712 15.5979C9.42249 15.0315 9.72461 14.2384 9.74349 13.4453Z" fill="#212124"/>
<path d="M13.2179 6.23213C13.0858 5.60899 13.5578 4.9481 14.181 4.81592C14.8607 5.96777 15.465 7.15738 16.1825 8.29035C16.2581 8.40364 16.3336 8.49806 16.4469 8.57359L16.6546 8.70577C16.749 8.76242 16.6357 8.80018 16.4658 8.76242C16.428 8.63024 16.3714 8.49806 16.3147 8.38476C16.107 7.95046 16.0692 7.42174 16.3525 7.0252C16.6546 6.60978 17.2022 6.43984 17.712 6.53425C17.7687 8.38476 17.712 10.2542 17.7309 12.1047C17.8064 12.6145 18.0142 13.1243 17.9197 13.6531C17.7687 14.5594 17.3155 15.4847 16.4847 15.9945C16.107 16.24 15.6916 16.5044 15.2384 16.4666C14.6341 16.4477 14.0488 16.4855 13.4445 16.4477C13.1424 16.4288 12.9536 16.2022 12.7459 16.0134C12.406 15.6735 12.0472 15.3147 11.7073 14.9748C12.236 14.635 12.9158 14.314 13.5201 14.635C13.9732 14.8993 14.5208 14.8238 15.0118 14.7671C15.6727 14.5028 16.2203 13.7852 16.107 13.0488C16.0126 12.2368 15.2195 11.5382 14.3698 11.6326C13.7278 11.6326 13.2935 12.1424 12.878 12.5579C12.8592 12.9922 12.9347 13.4642 12.8214 13.8985C12.557 14.4839 11.8584 14.6916 11.273 14.8049C11.273 13.9363 11.273 13.0866 11.273 12.218C11.2164 11.7648 11.6695 11.5004 11.9339 11.2172C12.4437 10.7829 12.8214 10.1597 13.5012 9.97091C12.8592 9.31002 12.1794 8.668 11.5562 7.98822C11.1031 7.49727 11.2352 6.64755 11.764 6.23213C11.9717 6.09995 12.1227 6.32654 12.2738 6.43984C13.0102 7.19515 13.7655 7.95046 14.502 8.72465C14.1432 7.85604 13.5389 7.11962 13.2179 6.23213Z" fill="#FEE700"/>
<path d="M5.28718 7.91261C6.70339 7.61049 8.25177 7.85597 9.47916 8.64904C10.3289 9.15888 11.0087 9.91419 11.4807 10.7828C11.122 11.1416 10.6499 11.5192 10.6499 12.0857C10.6121 13.2187 10.6499 14.3705 10.6499 15.5035C10.8387 15.4657 11.0275 15.4468 11.2164 15.4091C11.3674 15.5413 11.4996 15.6734 11.6507 15.8056C11.0087 17.2407 9.74351 18.3926 8.25177 18.8457C6.51456 19.4311 4.4941 19.0912 3.04013 17.9583C1.92605 17.1274 1.17074 15.8623 0.906377 14.5216C0.717549 13.332 0.830846 12.0668 1.37845 10.9905C2.09599 9.42324 3.60661 8.2525 5.28718 7.91261ZM4.41857 11.3115C3.9465 11.4626 3.79544 12.1801 4.21086 12.4822C4.58852 12.8599 5.2683 12.5578 5.34383 12.0479C5.43824 11.5381 4.87176 11.1227 4.41857 11.3115ZM8.0063 11.3304C7.55311 11.5381 7.4587 12.2179 7.87412 12.5011C8.27066 12.8788 9.00709 12.5011 8.96932 11.9724C9.02597 11.4626 8.4406 11.1227 8.0063 11.3304ZM9.74351 13.4453C9.70575 14.2383 9.40362 15.0314 8.83714 15.5979C7.91188 16.542 6.38238 16.8253 5.19277 16.2588C4.07868 15.7867 3.34225 14.6538 3.32337 13.4453C3.04013 13.4453 2.77577 13.4453 2.49253 13.4453C2.47365 14.7104 3.13454 15.9567 4.19198 16.6742C5.40048 17.5239 7.06216 17.6184 8.36507 16.9197C9.63022 16.2588 10.4988 14.8804 10.4988 13.4453C10.2345 13.4453 9.98899 13.4453 9.74351 13.4453Z" fill="#FEE700"/>
<path d="M18.3918 10.4429C18.5995 10.2163 18.845 9.98972 19.166 9.98972C19.5059 9.95196 19.8269 10.2352 19.9402 10.5373C20.0157 11.0283 19.9591 11.557 19.978 12.0479C20.6011 11.4437 21.2242 10.8017 21.8663 10.1974C22.225 9.85755 22.867 9.97084 23.0936 10.3863C23.2636 10.6884 23.2258 11.0849 22.9803 11.3304C22.3761 11.9535 21.753 12.5578 21.1298 13.1809C21.753 13.8229 22.4139 14.4461 23.0181 15.1258C23.3958 15.5035 23.1692 16.3155 22.6216 16.3721C22.3572 16.4287 22.0362 16.391 21.8474 16.1833C21.2242 15.5601 20.6011 14.937 19.978 14.3139C19.9591 14.8615 20.0157 15.428 19.9402 15.9756C19.657 16.5609 18.9017 16.4287 18.3541 16.4476C18.3729 15.7679 18.3352 15.0692 18.3729 14.3894C18.4862 13.8229 18.5618 13.2564 18.4674 12.69C18.3163 11.9535 18.4107 11.1982 18.3918 10.4429Z" fill="#FEE700"/>
</g>
<defs>
<clipPath id="clip0_1_2322">
<rect width="24" height="15.7671" fill="white" transform="translate(0 4.11719)"/>
</clipPath>
</defs>
</svg>
