<svg width="24" height="24" viewBox="0 0 24 24" fill="none" xmlns="http://www.w3.org/2000/svg">
<path fill-rule="evenodd" clip-rule="evenodd" d="M24 18C24 19.1046 23.1046 20 22 20H2C0.89543 20 0 19.1046 0 18V6C0 4.89543 0.895431 4 2 4H22C23.1046 4 24 4.89543 24 6V18Z" fill="#7A1F90"/>
<path fill-rule="evenodd" clip-rule="evenodd" d="M16.7236 6.59951L13.8736 9.43769L14.0735 11.0311L14.5986 9.93559L16.2236 12.002L18.4986 5.03104L10.9234 8.16798L12.9736 9.23855L16.7236 6.59951Z" fill="white"/>
<path d="M13.1493 14.5662C13.1493 14.5662 11.5993 14.5662 11.4743 14.5662C10.4367 14.6284 10.0993 12.923 11.3743 12.6989C11.7492 12.6989 13.1493 12.6989 13.1493 12.6989V14.5662ZM14.2485 11.5786C14.2485 11.5786 11.836 11.5786 11.2484 11.5786C8.96094 11.9272 8.72342 15.2383 11.2234 15.6865H14.2485V12.6989C15.2569 12.7322 15.4652 13.9852 14.7236 14.4417C14.8735 14.6159 15.4736 15.2633 15.4736 15.2633C17.0485 13.9106 16.1486 11.6865 14.2485 11.5786Z" fill="white"/>
<path fill-rule="evenodd" clip-rule="evenodd" d="M20.5235 13.0724C20.0236 13.0724 19.4235 13.0724 19.4235 13.0724L18.9485 14.1679C18.9485 14.1679 20.2236 14.1679 20.3486 14.1679C20.6299 14.1553 20.6423 14.5662 20.3486 14.5911C19.986 14.5911 17.9236 14.5911 17.9236 14.5911V12.6989H21.6486V11.5786C21.6486 11.5786 21.1298 11.5786 21.0986 11.5786C20.9361 9.26325 18.1548 9.19482 17.4235 10.4583C17.5673 10.5766 18.2486 11.1803 18.2486 11.1803C18.6672 10.5268 19.8298 10.5579 19.9986 11.5786H16.8235V15.6865H20.3986C21.211 15.674 21.5861 15.0765 21.6735 14.5662C21.7236 13.7445 21.2236 13.1969 20.5235 13.0724Z" fill="white"/>
<path fill-rule="evenodd" clip-rule="evenodd" d="M9.82347 11.5788H8.37343C7.91093 12.139 7.11089 14.4045 8.69843 16.1099C8.69843 16.1099 9.38591 15.5248 9.52341 15.4128C9.03591 14.9398 8.2234 13.0102 9.82347 11.5788Z" fill="white"/>
<path fill-rule="evenodd" clip-rule="evenodd" d="M6.13261 16.1491C6.13261 16.6489 5.72567 17.0542 5.22378 17.0542C4.72175 17.0542 4.31488 16.6489 4.31488 16.1491C4.31488 15.6493 4.72175 15.2439 5.22378 15.2439C5.72567 15.2439 6.13261 15.6493 6.13261 16.1491Z" fill="white"/>
<path fill-rule="evenodd" clip-rule="evenodd" d="M6.09839 14.5662C6.09839 14.5662 4.54839 14.5662 4.42336 14.5662C3.38587 14.6284 3.0484 12.923 4.32341 12.6989C4.69842 12.6989 6.09839 12.6989 6.09839 12.6989V14.5662ZM4.19838 11.5786C1.91089 11.9271 1.67337 15.2383 4.17337 15.6865H4.19009C4.36753 15.294 4.76344 15.0206 5.22374 15.0206C5.68398 15.0206 6.07989 15.294 6.25733 15.6865H7.19842C7.19842 15.5495 7.19842 11.5786 7.19842 11.5786C7.19842 11.5786 4.78591 11.5786 4.19838 11.5786Z" fill="white"/>
<path fill-rule="evenodd" clip-rule="evenodd" d="M5.22623 10.1017C5.22623 10.1535 5.18369 10.1958 5.13169 10.1958H4.65337V9.9969H5.13169C5.18369 9.9969 5.22623 10.0393 5.22623 10.091V10.1017ZM5.27385 10.6076C5.64215 10.5453 5.82342 9.79223 5.22342 9.62412C5.15471 9.62412 4.24841 9.62412 4.24841 9.62412V11.0557H4.64843V10.6076L5.09839 11.0557H5.72381L5.27385 10.6076Z" fill="white"/>
<path fill-rule="evenodd" clip-rule="evenodd" d="M6.41992 10.6461C6.2431 10.6461 6.09978 10.5034 6.09978 10.3273C6.09978 10.1513 6.2431 10.0085 6.41992 10.0085C6.59674 10.0085 6.74005 10.1513 6.74005 10.3273C6.74005 10.5034 6.59674 10.6461 6.41992 10.6461ZM6.41992 9.60189C6.01764 9.60189 5.69147 9.9267 5.69147 10.3273C5.69147 10.728 6.01764 11.0527 6.41992 11.0527C6.82226 11.0527 7.14836 10.728 7.14836 10.3273C7.14836 9.9267 6.82226 9.60189 6.41992 9.60189Z" fill="white"/>
<path fill-rule="evenodd" clip-rule="evenodd" d="M10.5525 10.0137H11.2072V9.59326H10.6531C10.2175 9.59326 9.86115 9.92067 9.86115 10.3208C9.86115 10.7209 10.2175 11.0483 10.6531 11.0483H11.2072V10.6279H10.5525C10.4564 10.6279 10.3708 10.5822 10.3158 10.5117H11.2072V10.1299H10.3158C10.3708 10.0594 10.4564 10.0137 10.5525 10.0137Z" fill="white"/>
<path fill-rule="evenodd" clip-rule="evenodd" d="M7.94999 10.6279C7.78502 10.6279 7.65006 10.4934 7.65006 10.3291V10.3125C7.65006 10.1482 7.78502 10.0137 7.94999 10.0137H8.57225V9.59326H8.01418C7.57868 9.59326 7.22223 9.92067 7.22223 10.3208C7.22223 10.7209 7.57868 11.0483 8.01418 11.0483H8.57225V10.6279H7.94999Z" fill="white"/>
<path fill-rule="evenodd" clip-rule="evenodd" d="M12.7277 9.62116H11.3167V9.99735H11.8333V11.0264H12.2111V9.99735H12.7277V9.62116Z" fill="white"/>
<path d="M9.36923 10.3184L10.0638 9.62116H9.50179L9.11109 10.0133V9.62116H8.73334V11.0264H9.11109V10.6234L9.51255 11.0264H10.0745L9.36923 10.3184Z" fill="white"/>
<path d="M15.051 16.383C14.9886 16.3953 14.9337 16.4344 14.8864 16.5001C14.8409 16.5626 14.8181 16.6258 14.8181 16.69C14.8181 16.7286 14.8261 16.7659 14.8421 16.8021C14.8624 16.8482 14.8899 16.8711 14.9246 16.8711C14.9423 16.8711 14.9651 16.8617 14.993 16.8427L15.0323 16.9471C14.9969 16.9684 14.9624 16.979 14.9288 16.979C14.8834 16.979 14.8396 16.9623 14.7976 16.9287C14.7732 16.909 14.7501 16.8717 14.7282 16.8167C14.7173 16.7897 14.7118 16.7491 14.7118 16.695V16.6569C14.7118 16.5716 14.7573 16.4758 14.8481 16.3692C14.8674 16.347 14.8998 16.3159 14.9452 16.2757H15.0877V16.3792C15.0743 16.3809 15.062 16.3822 15.051 16.383Z" fill="white"/>
<path d="M15.5641 16.3799H15.2846C15.3635 16.4309 15.4045 16.4975 15.408 16.5798C15.4583 16.5995 15.5103 16.6386 15.5641 16.697V16.3799ZM15.6828 16.3799V16.9712H15.5641V16.8948C15.5641 16.8686 15.544 16.8349 15.5037 16.7939C15.4735 16.7627 15.4417 16.7357 15.4082 16.7126C15.3713 16.6872 15.3311 16.6744 15.2875 16.6744C15.2431 16.6744 15.2109 16.6935 15.1907 16.7314C15.1883 16.7355 15.187 16.7409 15.187 16.7476C15.187 16.7632 15.1948 16.7774 15.2103 16.7902C15.2257 16.803 15.2414 16.8094 15.2574 16.8094C15.2699 16.8094 15.3001 16.8001 15.3478 16.7817L15.383 16.8893C15.33 16.9162 15.2858 16.9297 15.2505 16.9297C15.2109 16.9297 15.1748 16.9187 15.1419 16.8966C15.1091 16.8745 15.0851 16.8455 15.07 16.8095C15.0632 16.794 15.0599 16.7748 15.0599 16.7519C15.0599 16.6849 15.0876 16.6338 15.1434 16.5986C15.1821 16.5733 15.2235 16.5606 15.2672 16.5606H15.2787C15.2778 16.5399 15.2668 16.5168 15.2458 16.491C15.2247 16.4654 15.2041 16.4525 15.1839 16.4525H15.0525V16.3799H14.9995V16.2761H15.764V16.3799H15.6828Z" fill="white"/>
<path d="M15.9139 16.3799V16.9712H15.7952V16.3799H15.7076V16.2761H15.9931V16.3799H15.9139Z" fill="white"/>
<path d="M16.4932 16.5078C16.4712 16.5152 16.4475 16.5238 16.4222 16.5337C16.3849 16.55 16.3173 16.5795 16.2191 16.6221L16.1963 16.6318C16.2902 16.6647 16.3799 16.713 16.4653 16.7768C16.4763 16.785 16.4856 16.792 16.4932 16.7977V16.5078ZM16.4865 16.3799H15.9515V16.2761H16.6921V16.3799H16.6099V16.9712H16.505C16.4949 16.941 16.4434 16.8938 16.3509 16.8301C16.3129 16.804 16.2607 16.7786 16.1942 16.754C16.1234 16.7279 16.0669 16.7148 16.0248 16.7148L15.9932 16.5971C16.0209 16.5749 16.0975 16.5369 16.2228 16.483C16.2757 16.4601 16.3637 16.4257 16.4865 16.3799Z" fill="white"/>
<path d="M16.8411 16.3799V16.9712H16.7224V16.3799H16.6348V16.2761H16.9202V16.3799H16.8411Z" fill="white"/>
<path d="M17.2913 17.0703C17.2434 17.0269 17.1921 16.9865 17.1375 16.9489C17.1114 16.931 17.0681 16.911 17.0075 16.889C16.9596 16.8718 16.9314 16.8632 16.923 16.8632L16.9243 16.7248C16.9344 16.7248 16.9497 16.7254 16.9702 16.7266C16.9909 16.7278 17.0062 16.7284 17.0163 16.7284C17.0701 16.7284 17.1139 16.7216 17.1475 16.7078C17.2114 16.6812 17.2434 16.6496 17.2434 16.6133C17.2434 16.5866 17.2312 16.5644 17.2068 16.5467C17.1832 16.5329 17.1593 16.5197 17.1349 16.5066C17.1282 16.5034 17.1214 16.5018 17.1147 16.5018C17.1004 16.5018 17.0849 16.5054 17.0681 16.5127C17.047 16.5224 17.0373 16.5333 17.039 16.5455C17.0432 16.5762 17.0756 16.589 17.1362 16.5842L17.0718 16.6823C17.0457 16.684 17.0192 16.6758 16.9924 16.6578C16.9436 16.6251 16.9192 16.585 16.9192 16.5375C16.9192 16.4901 16.9439 16.4532 16.9937 16.427C17.034 16.4049 17.0803 16.3939 17.1325 16.3939C17.1551 16.3939 17.1747 16.3976 17.1912 16.4049C17.2076 16.4123 17.2241 16.4205 17.241 16.4294C17.3218 16.4703 17.3622 16.5324 17.3622 16.6157C17.3622 16.6754 17.3373 16.7235 17.2877 16.7602C17.2498 16.788 17.1955 16.808 17.1249 16.8203C17.1458 16.8301 17.1761 16.8469 17.2157 16.8705C17.2829 16.9211 17.3372 16.9665 17.3784 17.0065L17.2913 17.0703ZM16.8788 16.3794V16.2756H17.2295L17.2308 16.267C17.2308 16.2129 17.2052 16.1771 17.1539 16.1599C17.1471 16.1583 17.1395 16.1574 17.1311 16.1574C17.1184 16.1574 17.1029 16.1599 17.0844 16.1648C17.0592 16.1715 17.044 16.1754 17.039 16.1761C17.0188 16.1794 17.0011 16.1857 16.9861 16.1949C16.9667 16.2082 16.9444 16.2202 16.9192 16.231L16.8813 16.1434C16.9267 16.1121 16.9864 16.0854 17.0605 16.0631C17.0916 16.054 17.121 16.0495 17.1488 16.0495C17.1782 16.0495 17.2114 16.0601 17.2485 16.0815C17.3115 16.1192 17.3444 16.1839 17.3469 16.2756H17.415V16.3794H16.8788Z" fill="white"/>
<path d="M18.1253 16.3799V16.9712H18.0066V16.7366C18.0066 16.7162 17.9978 16.6953 17.9802 16.6737C17.9625 16.6521 17.9437 16.6413 17.9235 16.6413C17.905 16.6413 17.8874 16.6527 17.8707 16.6754C17.8538 16.6982 17.8454 16.7242 17.8454 16.7534H17.717C17.717 16.7206 17.7085 16.6924 17.6916 16.6686C17.6747 16.6449 17.6553 16.633 17.6333 16.633C17.6146 16.633 17.5968 16.6396 17.5799 16.6527C17.563 16.6658 17.5538 16.681 17.552 16.6982L17.5483 16.7289V16.7411C17.5483 16.8019 17.5856 16.8322 17.6603 16.8322C17.6721 16.8322 17.6922 16.8297 17.7207 16.8247L17.6791 16.9442C17.6546 16.947 17.6399 16.9483 17.6349 16.9483C17.5794 16.9483 17.5281 16.9279 17.4809 16.8869C17.4625 16.8713 17.4473 16.8475 17.4355 16.8156C17.4246 16.7869 17.4191 16.759 17.4191 16.7319C17.4191 16.6681 17.4389 16.6162 17.4784 16.5765C17.518 16.5367 17.5698 16.5168 17.6339 16.5168C17.6937 16.5168 17.7438 16.5452 17.7843 16.6019C17.828 16.5452 17.8752 16.5168 17.9257 16.5168C17.9535 16.5168 17.9805 16.5294 18.0066 16.5545V16.3799H17.3649V16.2761H18.1926V16.3799H18.1253Z" fill="white"/>
<path d="M19.0227 16.5078C19.0007 16.5152 18.977 16.5238 18.9516 16.5337C18.9144 16.55 18.8467 16.5795 18.7486 16.6221L18.7257 16.6318C18.8196 16.6647 18.9093 16.713 18.9948 16.7768C19.0057 16.785 19.0151 16.792 19.0227 16.7977V16.5078ZM19.0159 16.3799H18.481V16.2761H19.2215V16.3799H19.1393V16.9712H19.0344C19.0243 16.941 18.9728 16.8938 18.8803 16.8301C18.8423 16.804 18.7901 16.7786 18.7236 16.754C18.6528 16.7279 18.5963 16.7148 18.5543 16.7148L18.5226 16.5971C18.5503 16.5749 18.6269 16.5369 18.7523 16.483C18.8051 16.4601 18.8931 16.4257 19.0159 16.3799Z" fill="white"/>
<path d="M19.4206 16.3798C19.3831 16.4315 19.3643 16.4742 19.3643 16.5079C19.3643 16.5234 19.3835 16.5858 19.4218 16.6951C19.4418 16.7501 19.4519 16.7957 19.4519 16.8318C19.4519 16.9008 19.4132 16.9488 19.3358 16.9759C19.3123 16.9849 19.2702 16.9923 19.2097 16.998L19.2258 16.8958C19.2959 16.881 19.331 16.8564 19.331 16.8219C19.331 16.79 19.3164 16.7406 19.2873 16.6741C19.2581 16.6077 19.2436 16.5588 19.2436 16.5276C19.2436 16.4873 19.2604 16.4381 19.2942 16.3798H19.1706V16.276H19.5018V16.3798H19.4206Z" fill="white"/>
<path d="M19.6747 16.3799V16.9712H19.5559V16.3799H19.4684V16.2761H19.7538V16.3799H19.6747Z" fill="white"/>
<path d="M19.9734 16.4192C19.9616 16.4111 19.9497 16.4078 19.9379 16.4095C19.893 16.4168 19.8706 16.4389 19.8706 16.4757C19.8706 16.4946 19.878 16.5119 19.8928 16.5279C19.9077 16.5439 19.9243 16.5518 19.943 16.5518L19.9594 16.5494C19.9933 16.5387 20.0102 16.5183 20.0102 16.488C20.0102 16.4593 19.9979 16.4365 19.9734 16.4192ZM20.0785 17.0409C19.928 16.9148 19.8258 16.8389 19.7719 16.8135L19.7732 16.6502C19.9801 16.7976 20.1155 16.9153 20.1795 17.0029V17.1245L20.0785 17.0409ZM19.9486 16.6598C19.8931 16.6598 19.8485 16.6424 19.8148 16.6076C19.7811 16.5727 19.7644 16.5278 19.7644 16.4728C19.7644 16.4221 19.7816 16.3797 19.8161 16.3457C19.8506 16.3117 19.8935 16.2946 19.9449 16.2946C20.0146 16.2946 20.0652 16.3295 20.0963 16.3992C20.1097 16.4287 20.1165 16.4578 20.1165 16.4863C20.1165 16.5397 20.1019 16.582 20.0729 16.6131C20.0438 16.6442 20.0025 16.6598 19.9486 16.6598Z" fill="white"/>
<path d="M20.9262 16.2069C20.7878 16.1203 20.6746 16.077 20.5865 16.077C20.4825 16.077 20.4062 16.1098 20.3575 16.1753C20.3408 16.1983 20.3316 16.2318 20.3299 16.2761H20.4133V16.3799H20.3299V16.9712H20.2091V16.3799H20.1299V16.2761H20.2091C20.2115 16.1921 20.2394 16.1241 20.2924 16.0719C20.3454 16.0197 20.4173 15.9875 20.5082 15.9753C20.5174 15.9744 20.5351 15.9723 20.5612 15.9691H20.5864C20.6588 15.9691 20.7308 15.9847 20.8022 16.0157C20.8409 16.0337 20.9045 16.0696 20.9928 16.1236L20.9262 16.2069Z" fill="white"/>
<path d="M20.7089 16.5164C20.6895 16.5311 20.66 16.5508 20.6204 16.5754C20.6104 16.5795 20.5988 16.5878 20.5857 16.6005C20.5726 16.6133 20.5602 16.625 20.5484 16.6356C20.561 16.6471 20.5812 16.663 20.6091 16.6835C20.6352 16.713 20.6684 16.7495 20.7089 16.7928V16.5164ZM20.8277 16.3799V16.3836C20.8773 16.3861 20.9291 16.4017 20.9829 16.4304C21.0586 16.4715 21.0964 16.5274 21.0964 16.5981C21.0964 16.6392 21.0838 16.6747 21.0585 16.7048C21.0332 16.7347 21.0001 16.7544 20.9592 16.7639C20.9182 16.7733 20.8834 16.7748 20.8547 16.7682V16.6565C20.8682 16.6581 20.8808 16.6589 20.8925 16.6589C20.9521 16.6589 20.9819 16.6376 20.9819 16.5951C20.9819 16.5442 20.9305 16.5123 20.8277 16.4992V16.9712H20.7228C20.706 16.9384 20.6892 16.9131 20.6724 16.8951C20.6665 16.8886 20.6513 16.869 20.6269 16.8362C20.6193 16.8255 20.6054 16.8121 20.5852 16.7958C20.565 16.7794 20.5511 16.7659 20.5436 16.7553C20.5401 16.7504 20.531 16.7451 20.5157 16.7394C20.4644 16.7214 20.4226 16.7123 20.3908 16.7123L20.3591 16.5945C20.3854 16.5758 20.4444 16.5406 20.536 16.4891C20.5427 16.4841 20.5708 16.4678 20.6199 16.44C20.6377 16.4294 20.6674 16.4122 20.7089 16.3885V16.3799H20.3339V16.2761H21.149V16.3799H20.8277Z" fill="white"/>
<path d="M21.3511 16.4192C21.3391 16.4111 21.3274 16.4078 21.3155 16.4095C21.2706 16.4168 21.2483 16.4389 21.2483 16.4757C21.2483 16.4946 21.2557 16.5119 21.2704 16.5279C21.2852 16.5439 21.3019 16.5518 21.3206 16.5518L21.3371 16.5494C21.3709 16.5387 21.3878 16.5183 21.3878 16.488C21.3878 16.4593 21.3756 16.4365 21.3511 16.4192ZM21.4561 17.0409C21.3056 16.9148 21.2034 16.8389 21.1496 16.8135L21.1509 16.6502C21.3578 16.7976 21.4931 16.9153 21.5571 17.0029V17.1245L21.4561 17.0409ZM21.3263 16.6598C21.2707 16.6598 21.2262 16.6424 21.1925 16.6076C21.1588 16.5727 21.142 16.5278 21.142 16.4728C21.142 16.4221 21.1592 16.3797 21.1937 16.3457C21.2282 16.3117 21.2711 16.2946 21.3225 16.2946C21.3922 16.2946 21.4428 16.3295 21.4739 16.3992C21.4873 16.4287 21.494 16.4578 21.494 16.4863C21.494 16.5397 21.4795 16.582 21.4505 16.6131C21.4216 16.6442 21.3801 16.6598 21.3263 16.6598Z" fill="white"/>
<path d="M8.19946 17.0214L8.42067 17.0962L8.50919 17.0214L8.28797 16.9438L8.19946 17.0214Z" fill="white"/>
<path d="M8.0815 16.6884C8.10363 16.695 8.13309 16.6591 8.15522 16.6296C8.15522 16.6624 8.15522 16.7146 8.15522 16.7669C8.15522 16.8191 8.11343 16.8648 8.0815 16.8648C8.04958 16.8648 7.77178 16.8648 7.77178 16.8648V16.6884C7.77178 16.6884 8.05444 16.6884 8.0815 16.6884ZM8.27326 16.4101V16.2768H6.53589V16.4101H6.82794V16.708C6.82794 16.708 7.05162 16.708 7.07868 16.708C7.07868 16.708 7.14993 16.6852 7.16712 16.6492C7.16712 16.6917 7.16712 16.7506 7.16712 16.7669C7.16712 16.8191 7.1278 16.8648 7.07868 16.8648C7.02949 16.8648 6.7321 16.8648 6.70997 16.8648C6.68784 16.8648 6.66571 16.855 6.66571 16.7669C6.66571 16.6786 6.66571 16.4891 6.66571 16.4891H6.53589C6.53589 16.4891 6.53589 16.8159 6.53589 16.8453C6.53589 16.8747 6.55452 16.9785 6.6479 16.9785C6.74134 16.9785 7.12794 16.9785 7.1476 16.9785C7.22542 16.9759 7.28085 16.897 7.28509 16.8305C7.28509 16.6868 7.28509 16.4891 7.28509 16.4891H7.16712C7.15486 16.5414 7.16219 16.5773 7.10814 16.5905C7.05408 16.5905 6.96071 16.5905 6.96071 16.5905V16.4101H7.38834V16.9785H7.53583V16.4101H7.63901V16.9785C7.63901 16.9785 8.0913 16.9785 8.12569 16.9785C8.16015 16.9785 8.27326 16.9498 8.27326 16.8257C8.27326 16.7015 8.27326 16.4891 8.27326 16.4891H8.15522C8.15522 16.5218 8.15028 16.5709 8.09623 16.5709C8.04218 16.5709 7.77178 16.5709 7.77178 16.5709V16.4101H8.27326Z" fill="white"/>
<path d="M8.43542 16.7275H8.73042V16.5701H8.43542V16.7275Z" fill="white"/>
<path d="M9.37932 16.8844C9.37932 16.8844 9.09658 16.8844 9.08439 16.8844C9.04013 16.878 9.0106 16.8257 9.0106 16.7669C9.0106 16.708 9.0106 16.61 9.0106 16.61H9.37932V16.8844ZM8.89325 16.2768V16.4101H9.37932V16.4891H8.89325C8.89325 16.4891 8.89325 16.7832 8.89325 16.806C8.9038 16.9093 8.95696 16.9785 9.05774 16.9785C9.17818 16.9785 9.49729 16.9785 9.49729 16.9785V16.4101H9.60053V16.9785H9.73323V16.2768H8.89325Z" fill="white"/>
<path d="M10.3703 16.4101H10.9721V16.4891C10.9451 16.4891 10.8123 16.4891 10.7951 16.4891C10.7877 16.5447 10.6968 16.5747 10.6771 16.4891C10.5788 16.4891 10.3703 16.4891 10.3703 16.4891C10.3703 16.4891 10.3703 16.793 10.3703 16.8257C10.3703 16.8583 10.3753 16.9651 10.4654 16.9785C10.549 16.9785 10.7066 16.9785 10.7066 16.9785V16.8648C10.7066 16.8648 10.5738 16.8648 10.5444 16.8648C10.5125 16.855 10.4854 16.8354 10.4854 16.7864C10.4854 16.7277 10.4854 16.61 10.4854 16.61H10.6476V16.708H10.7951V16.6296C10.7853 16.5937 10.9499 16.5969 10.9573 16.6296C10.9573 16.6786 10.9573 16.9785 10.9573 16.9785H11.09V16.4101H11.1785V16.9785H11.3113V16.2768H10.3703V16.4101Z" fill="white"/>
<path d="M10.0655 16.5123C10.0089 16.5123 9.96311 16.4917 9.96311 16.4663C9.96311 16.441 10.0089 16.4204 10.0655 16.4204C10.1221 16.4204 10.1679 16.441 10.1679 16.4663C10.1679 16.4917 10.1221 16.5123 10.0655 16.5123ZM10.1609 16.3157C10.1069 16.3157 9.84753 16.3157 9.84753 16.3157C9.84753 16.3157 9.84753 16.4706 9.84753 16.5001C9.85987 16.5588 9.89138 16.6313 9.9988 16.6372C10.1069 16.6372 10.2495 16.6372 10.2495 16.6372V16.41C10.2421 16.3713 10.2151 16.3224 10.1609 16.3157Z" fill="white"/>
<path d="M9.86835 16.7063V16.822L10.2473 16.9785V16.8561L9.86835 16.7063Z" fill="white"/>
<path d="M13.243 16.5123C13.1864 16.5123 13.1405 16.4917 13.1405 16.4663C13.1405 16.441 13.1864 16.4204 13.243 16.4204C13.2994 16.4204 13.3453 16.441 13.3453 16.4663C13.3453 16.4917 13.2994 16.5123 13.243 16.5123ZM13.3383 16.3157C13.2842 16.3157 13.0249 16.3157 13.0249 16.3157C13.0249 16.3157 13.0249 16.4706 13.0249 16.5001C13.0372 16.5588 13.0687 16.6313 13.1761 16.6372C13.2842 16.6372 13.4268 16.6372 13.4268 16.6372V16.41C13.4194 16.3713 13.3924 16.3224 13.3383 16.3157Z" fill="white"/>
<path d="M13.0458 16.7063V16.822L13.4247 16.9785V16.8561L13.0458 16.7063Z" fill="white"/>
<path d="M14.025 16.8844C14.025 16.8844 13.7424 16.8844 13.7301 16.8844C13.6859 16.878 13.6564 16.8257 13.6564 16.7669C13.6564 16.708 13.6564 16.61 13.6564 16.61H14.0228L14.0248 16.6296H14.025V16.8844ZM14.143 16.4891V16.4101H14.3874V16.2768H13.5391V16.4101H14.025V16.4891H13.5391C13.5391 16.4891 13.5391 16.7832 13.5391 16.806C13.5496 16.9093 13.6028 16.9785 13.7035 16.9785C13.8239 16.9785 14.143 16.9785 14.143 16.9785V16.6296H14.2609C14.2805 16.6296 14.2855 16.6198 14.2904 16.6492C14.2904 16.6852 14.2904 16.708 14.2904 16.708C14.283 16.7374 14.2805 16.7571 14.2609 16.7669C14.2412 16.7669 14.2174 16.7669 14.2174 16.7669V16.8844H14.3051C14.3346 16.8812 14.3886 16.8485 14.3936 16.806C14.3936 16.7408 14.3936 16.4891 14.3936 16.4891H14.143Z" fill="white"/>
<path d="M12.1943 16.8844C12.1943 16.8844 11.9117 16.8844 11.8994 16.8844C11.8551 16.878 11.8257 16.8257 11.8257 16.7669C11.8257 16.708 11.8257 16.61 11.8257 16.61H12.1943V16.8844ZM11.7084 16.2768V16.4101H12.1943V16.4891H11.7084C11.7084 16.4891 11.7084 16.7832 11.7084 16.806C11.7189 16.9093 11.772 16.9785 11.8728 16.9785C11.9932 16.9785 12.3123 16.9785 12.3123 16.9785V16.4101H12.4659L12.41 16.5216V16.6C12.41 16.6 12.4935 16.6 12.5133 16.6C12.5681 16.6063 12.587 16.6424 12.587 16.7372C12.587 16.8025 12.5719 16.8497 12.521 16.8548C12.489 16.8548 12.4247 16.8548 12.4247 16.8548V16.9724C12.4247 16.9724 12.4985 16.9724 12.528 16.9724C12.5575 16.9724 12.6926 16.9855 12.705 16.8548C12.7197 16.5901 12.732 16.5216 12.5427 16.502L12.5703 16.4101H12.7783V16.9785H12.911V16.2768H11.7084Z" fill="white"/>
</svg>
