<svg width="24" height="24" viewBox="0 0 24 24" fill="none" xmlns="http://www.w3.org/2000/svg">
<g clip-path="url(#clip0_1_2310)">
<path d="M12.3837 20.4127C11.5717 20.8716 10.7798 21.3377 9.96524 21.771C9.59355 21.9686 9.19729 21.8877 8.9012 21.6269C8.69079 21.4421 8.61015 21.2328 8.71347 20.9687C8.8023 20.7426 8.87537 20.5087 8.92577 20.2731C8.99948 19.9286 8.89742 19.6115 8.67252 19.3251C8.62464 19.2643 8.57298 19.2051 8.53203 19.1403C8.18617 18.5932 8.37139 18.0779 9.04169 17.8925C10.0749 17.6061 11.069 17.7217 11.9862 18.2515C12.1003 18.3174 12.2067 18.3933 12.3176 18.4637C12.3226 18.467 12.3365 18.4598 12.3844 18.4475C12.3844 18.2956 12.3863 18.1326 12.3837 17.9696C12.3806 17.7647 12.4864 17.6553 12.7227 17.6553C13.6147 17.6553 14.5068 17.6553 15.3995 17.6553C15.6212 17.6553 15.7189 17.753 15.7189 17.9495C15.7164 19.3447 15.7157 20.7398 15.7195 22.1355C15.7201 22.3471 15.6212 22.4409 15.3812 22.4387C14.4375 22.4314 14.5099 22.5247 14.5112 21.7124C14.5125 20.8196 14.5131 19.9264 14.5106 19.0331C14.5099 18.716 14.4936 18.7183 14.0293 18.7065C13.7483 18.6993 13.6116 18.7529 13.6166 19.0437C13.6355 20.0481 13.6248 21.053 13.6235 22.0574C13.6229 22.3722 13.553 22.4353 13.2065 22.437C12.3497 22.4409 12.3768 22.5012 12.3844 21.7168C12.3869 21.264 12.3837 20.8118 12.3837 20.4127ZM9.90791 20.5567C10.0005 20.5528 10.0579 20.5645 10.0982 20.5466C10.7244 20.2742 11.2655 19.9013 11.7292 19.4407C11.876 19.295 11.7563 19.2006 11.6227 19.1336C11.1219 18.8824 10.5763 18.7651 10.0043 18.7735C9.7038 18.778 9.65277 18.8874 9.83673 19.0979C10.1013 19.4016 10.1586 19.731 10.0446 20.0933C10.0005 20.2346 9.96083 20.3769 9.90791 20.5567Z" fill="#040404"/>
<path d="M4.90265 18.7007C4.41442 18.7007 3.93248 18.6923 3.45117 18.704C3.17524 18.7107 3.05176 18.6292 3.0505 18.3691C3.04798 17.6545 3.03916 17.6545 3.85373 17.6545C4.49379 17.6545 5.13449 17.6533 5.77455 17.655C5.97551 17.6556 6.19349 17.6399 6.19097 17.4189C6.18782 17.1928 5.9837 17.1079 5.7462 17.1258C5.28757 17.1604 4.8302 17.2335 4.37221 17.2374C4.0988 17.2397 3.80774 17.1771 3.55512 17.08C3.13303 16.9186 3.04483 16.3285 3.39006 16.0606C3.46314 16.0042 3.65781 15.9779 3.72459 16.0226C4.33882 16.4346 4.99967 16.2693 5.66052 16.1811C5.87597 16.1521 6.10403 16.1292 6.31633 16.1599C7.07105 16.2682 7.43833 16.8187 7.22414 17.4859C7.21028 17.53 7.19957 17.5752 7.17815 17.6545C7.37029 17.6545 7.54543 17.655 7.71993 17.6545C7.95933 17.6533 8.0891 17.7376 8.08595 17.9705C8.07587 18.7744 8.17478 18.7018 7.28903 18.7007C6.97403 18.7007 6.65904 18.7068 6.34405 18.6985C6.16577 18.694 6.08261 18.7325 6.07379 18.9117C6.03851 19.6135 6.15254 19.7045 6.9249 19.5498C7.13909 19.5069 7.35139 19.4527 7.56811 19.4203C7.83018 19.3807 8.06012 19.5057 8.06957 19.7291C8.08784 20.155 8.13005 20.5944 8.04059 21.0075C7.8768 21.764 7.23422 22.1565 6.4543 22.3698C5.82936 22.5406 5.18677 22.511 4.56183 22.3519C3.64962 22.1196 3.05428 21.3877 3.00452 20.4236C2.98562 20.064 3.02972 19.7011 3.06877 19.341C3.09019 19.1406 3.23005 19.0251 3.47889 19.0491C3.55134 19.0558 3.62568 19.0496 3.69939 19.0502C4.12147 19.0513 4.15738 19.0988 4.17817 19.4628C4.20022 19.8508 4.23613 20.2404 4.30921 20.6223C4.393 21.06 4.71933 21.3157 5.21764 21.3347C5.57673 21.3487 5.94401 21.3185 6.29869 21.2632C6.45934 21.2381 6.63384 21.1292 6.73842 21.0131C6.84489 20.8953 6.87387 20.7217 6.93687 20.5726C6.78693 20.5682 6.63573 20.5503 6.48706 20.5615C6.22688 20.581 5.96795 20.6446 5.70903 20.6435C5.15843 20.6413 4.95746 20.4476 4.95053 19.958C4.94549 19.5672 4.94549 19.1769 4.94171 18.7861C4.94108 18.7705 4.92722 18.7537 4.90265 18.7007Z" fill="#040404"/>
<path d="M20.9981 19.8615C20.9981 20.4572 21.0025 21.0523 20.9968 21.648C20.9918 22.223 20.5212 22.5664 19.9094 22.3972C18.979 22.1399 18.0352 22.1203 17.0777 22.1667C16.3973 22.1996 16.1673 21.9986 16.1592 21.3912C16.1592 21.3728 16.1592 21.3538 16.1592 21.3354C16.156 20.5097 16.1598 20.5169 17.0304 20.2138C17.198 20.1557 17.4525 20.0106 17.45 19.9089C17.445 19.6672 17.1577 19.6711 16.941 19.646C16.3419 19.5768 16.1749 19.4199 16.1623 18.8906C16.1547 18.5836 16.1655 18.2765 16.1629 17.9695C16.1611 17.7456 16.287 17.6529 16.5327 17.6529C17.8973 17.6551 19.2625 17.6563 20.627 17.6523C20.8966 17.6518 21.0025 17.7573 20.9999 17.9912C20.993 18.6148 20.9981 19.2379 20.9981 19.8615ZM18.6016 18.7008C18.3496 18.7008 18.0976 18.6936 17.8469 18.7047C17.7669 18.7081 17.6894 18.76 17.6106 18.7896C17.656 18.8588 17.6818 18.9582 17.7499 18.9922C17.9029 19.0687 18.0762 19.1123 18.2406 19.1703C18.9147 19.4065 19.0256 20.0547 18.4498 20.4482C18.2778 20.5655 18.0623 20.6319 17.8828 20.7425C17.7896 20.7994 17.731 20.901 17.6566 20.9825C17.7599 21.0255 17.8595 21.0975 17.9666 21.107C18.4863 21.1534 19.0086 21.1779 19.5289 21.2209C19.7412 21.2382 19.8206 21.1578 19.8105 20.9831C19.7992 20.7977 19.779 20.6129 19.7727 20.4276C19.7576 19.9821 19.7507 19.536 19.7368 19.0905C19.7293 18.8393 19.6077 18.688 19.294 18.6997C19.0634 18.7081 18.8328 18.7008 18.6016 18.7008Z" fill="#040404"/>
<path d="M18.4529 24C17.9981 24.0022 17.6321 23.6817 17.6302 23.2792C17.6283 22.8694 17.9785 22.5579 18.4441 22.5557C18.9053 22.5534 19.2675 22.8678 19.2713 23.272C19.275 23.6689 18.9052 23.9977 18.4529 24Z" fill="#040404"/>
<path d="M19.2921 11.9584C19.2895 11.9621 19.2883 11.964 19.2883 11.964C18.5594 12.8823 17.6125 13.6558 16.5135 14.2256C15.3492 14.7742 13.9802 14.973 12.6872 14.9973C13.3401 14.7226 13.7977 14.0833 13.7977 13.339C13.7977 12.4269 13.1106 11.6732 12.2189 11.5527C14.6197 11.4688 16.549 9.76576 16.6428 7.64645C16.6453 7.59302 16.6466 7.53896 16.6466 7.48429C16.6466 7.37121 16.6415 7.25937 16.6308 7.1494C16.6301 6.95927 16.6333 6.7443 16.6466 6.5635C16.6783 6.1236 17.2988 5.81543 17.2988 5.81543C17.2988 5.81543 19.2705 5.81543 19.8004 5.81543C20.3518 5.89869 20.521 6.48024 20.521 6.48024C20.8303 9.54955 19.3745 11.8316 19.2921 11.9584Z" fill="#144A96"/>
<path d="M7.62296 3.03136C7.91036 1.92078 7.22496 0.792078 6.09206 0.510336C4.95917 0.228594 3.80779 0.900502 3.52039 2.01108C3.23299 3.12167 3.91839 4.25037 5.05129 4.53211C6.18418 4.81385 7.33556 4.14194 7.62296 3.03136Z" fill="#FED600"/>
<path d="M20.5067 3.00335C20.7791 1.8891 20.0786 0.769318 18.9419 0.502242C17.8053 0.235166 16.663 0.921936 16.3906 2.03619C16.1181 3.15043 16.8187 4.27022 17.9553 4.5373C19.092 4.80437 20.2343 4.1176 20.5067 3.00335Z" fill="#144A96"/>
<path d="M13.7976 13.3389C13.7976 14.0832 13.34 14.7226 12.6872 14.9972C12.1561 15.0078 11.6376 14.9885 11.1509 14.9518C9.41804 14.822 8.0915 14.4747 8.0408 14.4616C8.04016 14.461 8.03953 14.461 8.03953 14.461C6.27566 13.6732 4.85088 12.3796 4.0111 10.7959H4.01046C4.00286 10.7822 3.99525 10.7679 3.98765 10.7536C3.35321 9.53459 3.46286 6.49013 3.46286 6.49013C3.47617 5.99246 4.09286 5.8042 4.09286 5.8042H6.58813C7.07108 5.85701 7.31256 6.42241 7.31256 6.42241L7.41841 7.17545C7.33664 7.54575 7.41524 7.99372 7.52995 8.37831C7.52995 8.37894 7.53059 8.37956 7.53059 8.38018C7.60664 8.67965 7.72009 8.9667 7.86714 9.23698C7.8684 9.24008 7.8703 9.24257 7.87157 9.24567C7.87347 9.24878 7.87474 9.25189 7.87601 9.25375C7.87664 9.25562 7.87727 9.25624 7.87727 9.25624C8.58523 10.548 10.043 11.4588 11.753 11.5489C11.8455 11.5539 11.9387 11.5564 12.0325 11.5564C12.0952 11.5564 12.1573 11.5551 12.2188 11.5526C13.1106 11.6732 13.7976 12.4268 13.7976 13.3389Z" fill="#FED600"/>
</g>
<defs>
<clipPath id="clip0_1_2310">
<rect y="0.000488281" width="24" height="24" rx="2" fill="white"/>
</clipPath>
</defs>
</svg>
